<svg width="180" height="180" viewBox="0 0 180 180" fill="none" xmlns="http://www.w3.org/2000/svg">
<path d="M90 180C139.706 180 180 139.706 180 90C180 40.2944 139.706 0 90 0C40.2944 0 0 40.2944 0 90C0 139.706 40.2944 180 90 180Z" fill="#FAF7DE"/>
<mask id="mask0" style="mask-type:alpha" maskUnits="userSpaceOnUse" x="0" y="0" width="180" height="180">
<path d="M179.5 90C179.5 139.429 139.429 179.5 90 179.5C40.5705 179.5 0.5 139.429 0.5 90C0.5 40.5705 40.5705 0.5 90 0.5C139.429 0.5 179.5 40.5705 179.5 90Z" fill="#FAF7DE" stroke="black"/>
</mask>
<g mask="url(#mask0)">
<path d="M187.929 162.194C188.409 161.009 188.883 159.821 189.368 158.638C190.087 156.883 191.211 155.195 190.961 153.22C190.792 151.888 190.632 151.047 189.107 150.872C189.093 150.872 189.079 150.868 189.066 150.862C189.035 150.866 189.018 150.869 188.979 150.874C188.568 150.963 188.168 151.095 187.785 151.268C187.501 151.372 187.22 151.484 186.938 151.593C186.751 151.666 185.826 152.057 186.774 151.655C186.431 151.843 186.044 151.94 185.652 151.937C185.26 151.933 184.876 151.829 184.536 151.634C184.196 151.439 183.912 151.159 183.711 150.823C183.51 150.486 183.399 150.104 183.388 149.712C183.386 149.663 183.369 149.529 183.36 149.458C183.321 149.294 183.225 148.883 183.183 148.758C183.104 148.44 182.959 148.144 182.756 147.887C182.554 147.63 182.299 147.419 182.01 147.268C181.511 147.032 180.946 146.978 180.412 147.116C179.877 147.253 179.408 147.572 179.085 148.019C177.849 149.565 175.173 148.252 175.244 146.428C175.249 146.286 175.212 145.83 175.215 145.752C175.122 145.09 174.919 144.447 174.614 143.852C173.699 142.147 172.003 141.092 170.345 142.444C168.643 143.831 168.036 146.633 167.219 148.591C166.12 151.225 165.087 153.885 164.121 156.569C164.033 156.79 164.002 157.029 164.032 157.264C164.062 157.5 164.151 157.724 164.291 157.916C164.509 158.294 164.808 158.619 165.166 158.868C165.525 159.117 165.934 159.283 166.364 159.356C166.716 159.341 167.061 159.253 167.377 159.097C167.694 158.942 167.974 158.723 168.201 158.453C168.499 158.173 168.778 157.874 169.038 157.559C169.092 157.448 169.155 157.342 169.225 157.24C169.258 157.159 169.286 157.075 169.321 156.995C169.415 156.78 169.516 156.563 169.621 156.346C169.88 155.611 170.141 154.876 170.416 154.146C170.949 152.732 171.459 150.526 173.123 150.039C173.698 149.887 174.31 149.967 174.828 150.261C175.345 150.554 175.727 151.039 175.891 151.611C176 152.214 175.96 152.835 175.775 153.42C175.855 153.455 175.854 153.573 175.691 153.734C175.218 154.941 174.682 156.121 174.084 157.272C174.034 157.387 173.986 157.504 173.937 157.62C173.835 157.909 173.734 158.199 173.628 158.487C173.499 158.814 173.343 159.13 173.163 159.432C173.095 159.752 172.982 160.105 172.966 160.261C172.879 160.71 172.944 161.177 173.151 161.585C173.522 162.059 173.958 162.48 174.445 162.833C174.714 162.922 174.998 162.954 175.279 162.927C175.561 162.9 175.833 162.815 176.08 162.677C176.212 162.622 176.54 162.382 176.639 162.331C176.733 162.212 176.84 162.082 176.772 162.196C178.229 159.762 179.546 157.247 180.719 154.663C181.774 152.345 185.794 154.059 184.831 156.397C184.158 158.032 183.497 159.678 182.94 161.357C182.543 162.55 181.881 164.126 182.981 165.143C185.371 167.353 187.18 164.045 187.929 162.194Z" fill="white"/>
<path d="M175.419 153.712C175.381 153.81 175.338 153.906 175.29 154C175.435 153.93 175.57 153.84 175.692 153.734C175.725 153.629 175.747 153.525 175.775 153.42C175.679 153.378 175.495 153.45 175.419 153.712Z" fill="#78C8E6"/>
<path d="M62.1152 139.623L62.1174 139.643C62.4407 139.673 62.757 139.754 63.0542 139.885C62.8502 139.794 62.7085 139.733 62.5913 139.682C62.4316 139.672 62.2727 139.652 62.1152 139.623V139.623Z" fill="#78C8E6"/>
<path d="M20.1235 156.46C20.2932 156.48 20.4456 156.487 20.1235 156.46V156.46Z" fill="#78C8E6"/>
<path d="M62.5449 139.667C62.5766 139.675 62.5881 139.679 62.5892 139.681C61.9895 139.425 62.3922 139.631 62.5449 139.667Z" fill="#78C8E6"/>
<path d="M116.48 137.186L116.473 137.176C116.458 137.165 116.454 137.158 116.437 137.147C116.451 137.157 116.465 137.174 116.48 137.186Z" fill="#78C8E6"/>
<path d="M116.636 137.381C116.642 137.37 116.646 137.357 116.652 137.346C116.6 137.287 116.542 137.234 116.48 137.186C116.503 137.218 116.526 137.251 116.549 137.284C116.573 137.32 116.603 137.352 116.636 137.381V137.381Z" fill="#78C8E6"/>
<path d="M90.8025 112.327C90.7199 112.334 90.6379 112.347 90.5571 112.366C90.671 112.364 90.7825 112.356 90.8025 112.327Z" fill="#78C8E6"/>
<path d="M148.155 187.015C148.519 183.59 148.883 180.166 149.246 176.741C145.266 172.255 144.304 166.184 144.022 160.334C143.969 159.23 143.939 158.117 143.912 157.002L142.371 156.13C139.186 154.328 136.001 152.526 132.816 150.724C133.34 151.984 133.865 153.243 134.367 154.511C135.171 156.544 136.545 159.046 136.554 161.296C136.566 164.197 132.066 164.191 132.054 161.296C132.056 161.824 132.032 161.279 131.906 160.846C131.773 160.389 131.614 159.939 131.457 159.491C130.96 158.072 130.412 156.671 129.856 155.274C128.613 152.156 127.302 149.061 125.892 146.013C125.878 145.982 125.571 145.351 125.435 145.054C125.317 144.97 125.204 144.885 125.122 144.837C124.152 144.264 123.183 143.691 122.214 143.118C121.604 142.758 120.995 142.398 120.385 142.038C119.944 144.792 119.304 147.525 118.642 150.219C115.377 163.508 111.186 176.613 106.788 189.573H120.211C122.245 186.965 124.605 183.536 126.671 180.577C127.803 178.955 128.93 177.33 130.053 175.701C131.165 174.354 132.151 172.908 132.998 171.379C133.109 171.148 133.162 170.894 133.152 170.638C133.142 170.381 133.07 170.131 132.941 169.91C132.79 169.681 132.591 169.488 132.357 169.345C132.317 169.314 132.293 169.295 132.269 169.276C131.719 169.024 131.131 168.831 130.569 168.611C126.769 167.122 122.97 165.633 119.17 164.144C118.602 163.974 118.121 163.591 117.828 163.076C117.536 162.56 117.453 161.951 117.599 161.376C117.762 160.803 118.143 160.317 118.661 160.023C119.179 159.729 119.791 159.651 120.367 159.805C122.479 160.632 124.591 161.46 126.702 162.288C128.896 163.147 131.096 163.993 133.284 164.867C136.745 166.248 138.807 169.915 136.965 173.483C135.98 175.158 134.892 176.77 133.706 178.309C132.417 180.176 131.122 182.039 129.822 183.898C128.488 185.802 127.136 187.693 125.766 189.573H149.124L149.243 188.976C148.864 188.824 148.549 188.546 148.351 188.189C148.153 187.832 148.084 187.417 148.155 187.015V187.015Z" fill="#7A8CCC"/>
<path d="M178.522 166.521C177.225 167.223 175.75 167.524 174.282 167.386C173.189 167.286 172.158 166.833 171.347 166.094C171.189 165.936 171.044 165.766 170.913 165.585C170.941 165.638 170.809 165.539 170.478 165.253C170.086 164.936 169.743 164.563 169.462 164.144C169.274 163.865 169.112 163.57 168.976 163.263C167.788 163.75 166.486 163.885 165.224 163.652C163.961 163.419 162.793 162.828 161.857 161.949C161.009 161.221 160.361 160.288 159.976 159.239C159.59 158.189 159.48 157.059 159.655 155.955C159.672 155.756 159.714 155.56 159.781 155.373C161.022 151.935 162.388 148.553 163.808 145.187C164.514 143.13 165.579 141.214 166.952 139.527C167.949 136.779 168.931 134.026 169.899 131.267C171.467 126.81 173.016 122.344 174.474 117.849C175.001 116.223 176.208 113.96 175.324 112.294C174.978 111.642 173.688 110.441 172.87 110.519C172.066 110.597 171.51 111.679 171.153 112.3C169.552 115.084 168.62 118.394 167.5 121.396C166.474 124.144 165.474 126.901 164.501 129.668C162.596 135.068 160.773 140.497 158.924 145.916C159.305 147.128 159.666 148.337 159.996 149.53C160.772 152.329 156.43 153.513 155.657 150.726C154.552 146.671 153.094 142.721 151.3 138.921C150.463 137.166 148.691 131.971 146.026 133.095C143.935 133.976 143.938 136.002 144.817 137.786C146.258 140.622 147.234 143.672 147.709 146.817C148.642 153.234 147.862 159.858 149.135 166.219C149.426 167.846 149.932 169.428 150.638 170.923C151.364 172.162 152.211 173.326 153.167 174.398C154.096 175.619 153.739 176.806 153.589 178.218C153.277 181.15 152.966 184.083 152.655 187.015C152.606 187.393 152.471 187.755 152.26 188.072C152.048 188.389 151.766 188.653 151.436 188.843C151.105 189.033 150.736 189.143 150.355 189.167C149.975 189.19 149.594 189.125 149.243 188.976L149.124 189.573H175.177C174.843 189.318 174.596 188.966 174.469 188.566C174.341 188.165 174.341 187.735 174.466 187.334C174.847 185.927 175.149 184.469 175.614 183.087C175.985 181.989 177.036 181.517 177.914 180.882C179.011 180.09 180.027 179.191 180.944 178.197C182.883 175.864 184.352 173.178 185.272 170.287C183.9 170.398 182.527 170.099 181.325 169.429C180.124 168.758 179.148 167.746 178.522 166.521V166.521Z" fill="white"/>
<path d="M124.976 80.5464C123.737 78.9661 121.694 79.5106 120.198 80.3231C119.813 80.5188 119.381 80.6037 118.951 80.5681C118.52 80.5324 118.108 80.3778 117.76 80.1214C117.413 79.8651 117.143 79.5171 116.982 79.1163C116.821 78.7155 116.774 78.2778 116.847 77.8521C112.563 74.9902 109.817 69.7295 107.8 65.2294C106.33 61.9012 105.054 58.4905 103.978 55.0145C102.042 58.5504 99.3959 61.6483 96.2063 64.1139C90.8776 68.3077 84.4594 70.3971 77.6964 69.3101C77.4451 69.2616 77.2069 69.1607 76.9972 69.0141C76.7876 68.8675 76.6111 68.6783 76.4794 68.459C72.0343 71.2785 66.9409 72.9122 61.6851 73.2043C61.2141 73.2447 60.7438 73.1208 60.3539 72.8536C58.4315 75.3518 57.3124 78.3745 57.1444 81.5223C56.1593 81.0387 55.3461 80.2648 54.8142 79.305C54.7435 79.3034 54.6791 79.3116 54.6044 79.3037C49.1 78.7207 48.3581 84.6771 49.1478 88.8134C49.8709 92.5993 52.8749 97.0682 57.0944 97.2636C57.6873 97.2758 58.2525 97.5168 58.6718 97.9362C59.0911 98.3555 59.3321 98.9207 59.3444 99.5136C59.6302 106.312 62.2254 112.81 66.7018 117.935C74.5416 127.124 87.5319 131.852 98.8862 126.29C109.305 121.185 116.302 109.739 117.069 98.2826C117.087 97.6916 117.33 97.1297 117.748 96.7116C118.166 96.2935 118.728 96.0506 119.319 96.0326C119.346 96.0297 118.903 96.1325 119.473 95.9996C119.857 95.9103 120.242 95.8384 120.622 95.7328C121.775 95.441 122.861 94.9278 123.818 94.2217C125.586 92.8457 126.294 90.5068 126.585 88.3707C126.941 85.7631 126.652 82.6836 124.976 80.5464ZM88.9092 95.5403C91.8096 95.5403 91.8048 100.04 88.9092 100.04C86.009 100.04 86.0137 95.5403 88.9092 95.5403V95.5403ZM75.8239 81.3093C72.9235 81.3093 72.9285 76.8093 75.8239 76.8093C78.7241 76.8093 78.7194 81.3093 75.8239 81.3093V81.3093ZM95.8884 113.816C94.7054 115.117 93.1786 116.058 91.484 116.529C89.7895 117 87.9963 116.983 86.3113 116.479C84.4342 115.852 82.7691 114.715 81.5033 113.193C80.2375 111.672 79.4212 109.828 79.1464 107.869C79.1409 107.836 79.1489 107.804 79.1444 107.772C79.1013 107.608 79.0751 107.44 79.0662 107.271C79.0601 106.954 79.1255 106.64 79.2576 106.353C79.3897 106.065 79.585 105.811 79.829 105.609C79.8894 105.554 79.9531 105.502 80.0198 105.455C80.2049 105.325 80.4076 105.222 80.6218 105.15C80.6581 105.138 80.6802 105.111 80.718 105.101C80.7542 105.091 80.7936 105.091 80.8306 105.083C80.8961 105.067 80.9622 105.061 81.0287 105.051C81.0792 105.046 81.1283 105.037 81.1798 105.035C81.2253 105.032 81.27 105.021 81.3162 105.021H96.1964C96.7913 105.026 97.3602 105.265 97.7809 105.686C98.2016 106.107 98.4405 106.676 98.4464 107.271C98.3291 109.673 97.4309 111.971 95.8884 113.816V113.816ZM101.61 81.3093C98.7095 81.3093 98.7143 76.8093 101.61 76.8093C104.51 76.8093 104.505 81.3093 101.61 81.3093V81.3093ZM107.945 70.1598C107.646 70.6635 107.164 71.0335 106.601 71.1938C106.015 71.3386 105.396 71.2577 104.867 70.967L104.844 70.9564C104.302 70.7459 103.74 70.59 103.167 70.4912C102.514 70.4243 101.856 70.423 101.202 70.4873C100.79 70.5522 100.382 70.6456 99.9819 70.7668C99.4067 70.9165 98.7959 70.8361 98.2791 70.5427C97.7623 70.2493 97.3802 69.7659 97.2141 69.1953C97.0653 68.6202 97.1462 68.0098 97.4395 67.4932C97.7328 66.9766 98.2156 66.5944 98.7857 66.4275C101.551 65.5728 104.539 65.8067 107.138 67.0813C107.647 67.3879 108.017 67.8813 108.168 68.4564C108.318 69.0315 108.239 69.6427 107.945 70.1598V70.1598Z" fill="white"/>
<path d="M58.1442 81.5223C58.3123 78.3746 59.4314 75.3519 61.3537 72.8536C60.9963 72.5528 60.7365 72.1524 60.6072 71.7035C60.4779 71.2546 60.4851 70.7774 60.6278 70.3325C60.7705 69.8877 61.0423 69.4953 61.4086 69.2054C61.7749 68.9155 62.2192 68.741 62.6849 68.7043C75.4953 68.0087 85.5117 57.9922 87.5674 45.5745C87.7301 45.0016 88.1116 44.5157 88.6294 44.2217C89.1473 43.9277 89.76 43.8491 90.3353 44.003C90.901 44.1766 91.3789 44.56 91.6711 45.0746C91.9633 45.5892 92.0476 46.1961 91.9067 46.7708C90.724 53.8598 87.1772 60.34 81.8432 65.1569C86.3989 65.1813 90.8178 63.601 94.3248 60.6931C98.6677 57.2328 102.91 51.944 102.634 46.1135C102.497 43.2138 106.998 43.2304 107.134 46.1135C107.137 46.1795 107.132 46.2447 107.134 46.3107C107.209 46.4642 107.267 46.6251 107.308 46.7907C108.606 52.1967 110.352 57.4852 112.528 62.6015C114.512 67.1012 117.14 72.774 121.865 74.9657C122.015 75.0349 122.158 75.1192 122.291 75.2174C123.052 75.0659 123.828 75.0132 124.602 75.0605C125.268 71.5206 125.577 67.9229 125.525 64.3213C125.533 54.7258 122.709 45.3412 117.406 37.3441C112.059 29.5239 103.546 26.1104 94.2923 25.7896C93.9948 25.7837 93.7015 25.7179 93.4299 25.5963C93.1583 25.4746 92.914 25.2995 92.7115 25.0814C92.5091 24.8633 92.3525 24.6067 92.2513 24.3269C92.1501 24.047 92.1063 23.7497 92.1224 23.4525C90.8403 23.2394 89.5453 23.1119 88.2462 23.0709C88.3433 23.3932 88.3619 23.734 88.3005 24.065C88.2391 24.3959 88.0995 24.7074 87.8932 24.9734C87.687 25.2394 87.4202 25.4523 87.115 25.5943C86.8098 25.7363 86.4751 25.8032 86.1388 25.7896C80.9393 25.6809 75.8336 27.1843 71.5226 30.0934C63.9677 34.9845 58.1677 42.9456 54.7884 51.211C51.8593 58.3756 52.1475 66.3427 54.3096 73.7064C54.4138 74.0463 54.4345 74.4064 54.3699 74.756C54.7819 74.7482 55.1941 74.7641 55.6042 74.8037C58.3852 75.0983 58.469 79.3648 55.814 79.305C56.3459 80.2649 57.1592 81.0387 58.1442 81.5223V81.5223Z" fill="white"/>
<path d="M57.5385 114.522C57.468 115.028 57.2102 115.488 56.8162 115.812C56.4223 116.137 55.9209 116.301 55.4114 116.274C50.7041 116.287 46.159 117.995 42.6088 121.087C39.5848 123.605 37.1235 126.73 35.3842 130.26C33.8663 133.357 33.7172 136.606 32.996 139.917C32.193 143.602 30.8633 147.619 28.1422 150.355C26.6115 151.885 24.5821 152.816 22.4233 152.977C20.2646 153.138 18.1197 152.519 16.3788 151.232C16.1135 151.037 15.8909 150.789 15.7247 150.505C14.7527 150.49 13.7825 150.414 12.8198 150.279C12.823 150.334 12.8241 150.389 12.8274 150.444L12.8322 150.465C12.8855 150.723 12.9566 150.977 13.045 151.225C13.0541 151.251 13.0563 151.259 13.0631 151.279C13.1226 151.402 13.1805 151.525 13.2449 151.645C13.3786 151.893 13.5247 152.133 13.6827 152.366C13.7739 152.501 13.8858 152.628 13.9698 152.767C13.9169 152.68 13.8818 152.623 13.8543 152.578C13.8237 152.531 13.8017 152.495 13.7985 152.489C13.8017 152.495 13.8237 152.531 13.8543 152.578C13.9025 152.655 13.9549 152.729 14.0112 152.8C14.4317 153.289 14.89 153.743 15.3818 154.16C15.511 154.27 15.6685 154.369 15.7861 154.491C15.6993 154.401 15.6645 154.366 15.6308 154.332L15.5834 154.284L15.6308 154.332C15.7006 154.404 15.7751 154.471 15.8538 154.533C16.101 154.71 16.3537 154.879 16.6119 155.04C17.1519 155.372 17.7111 155.671 18.2865 155.936L18.318 155.948C18.466 156.005 18.6151 156.06 18.7652 156.111C19.0184 156.198 19.275 156.275 19.5342 156.34C19.6763 156.376 19.8192 156.409 19.9627 156.437C19.9869 156.442 20.0162 156.447 20.0471 156.451C20.2557 156.468 20.4626 156.489 20.6735 156.488C21.0078 156.487 21.3375 156.565 21.6363 156.715C21.8688 156.597 22.1072 156.478 22.3346 156.36C30.6428 152.148 39.1798 148.404 47.9057 145.144C48.0862 144.744 48.2547 144.338 48.4382 143.939C48.7945 142.864 49.4775 141.928 50.3919 141.26C51.3565 140.648 52.3636 140.095 53.3469 139.513C55.0915 138.483 56.836 137.452 58.5804 136.421C58.9236 136.229 59.3105 136.13 59.7035 136.132C60.0965 136.135 60.4822 136.239 60.8231 136.434C61.164 136.63 61.4485 136.91 61.6487 137.249C61.849 137.587 61.9583 137.971 61.966 138.364C61.9751 138.483 61.9986 138.609 62.0092 138.729C62.1156 138.513 62.2275 138.3 62.3307 138.082L62.3472 138.04C62.4031 137.899 62.4573 137.757 62.5096 137.615C62.6113 137.34 62.708 137.063 62.7995 136.784C63.0551 136.01 63.2781 135.225 63.4825 134.435C64.0464 132.254 64.4681 130.038 64.8389 127.817C65.0036 127.246 65.3853 126.761 65.9026 126.468C66.4198 126.174 67.0314 126.094 67.6066 126.246C68.1522 126.406 68.6176 126.766 68.9109 127.253C69.2043 127.74 69.3041 128.319 69.1906 128.877C69.4395 127.815 69.4375 126.71 69.1847 125.649C65.0083 122.241 61.6198 117.968 59.2524 113.126C58.6513 113.146 58.0521 113.205 57.4587 113.303C57.5819 113.698 57.6093 114.115 57.5385 114.522V114.522Z" fill="white"/>
<path d="M69.1906 128.877C69.1851 128.922 69.1857 128.968 69.1782 129.013C68.77 131.644 68.2091 134.248 67.4985 136.814C66.8657 139 65.4681 143.38 62.8335 144.013C63.2126 145.818 63.6604 147.634 64.0973 149.398C65.8035 156.283 67.751 163.121 69.8443 169.915C71.2851 169.905 72.726 169.894 74.167 169.884C85.5943 169.802 97.0216 169.719 108.449 169.637C109.323 166.79 110.203 163.945 111.033 161.085C112.745 155.183 114.768 148.815 115.786 142.698C115.363 142.634 114.98 142.415 114.709 142.084C114.106 141.313 113.444 140.593 112.854 139.811C112.187 138.898 111.638 137.903 111.224 136.851C109.902 133.215 109.119 129.406 108.897 125.543C100.683 132.434 89.7724 135.316 79.0704 131.363C75.4828 130.016 72.1425 128.086 69.1847 125.649C69.4374 126.71 69.4394 127.815 69.1906 128.877V128.877Z" fill="white"/>
<path d="M107.066 174.147C106.362 174.152 105.658 174.157 104.954 174.162C93.7203 174.243 82.4866 174.324 71.2529 174.405C72.8668 179.484 74.551 184.539 76.2653 189.573H102.041C102.536 188.111 103.026 186.647 103.51 185.181C104.722 181.512 105.907 177.834 107.066 174.147Z" fill="#7A8CCC"/>
<path d="M70.374 186.123C67.7199 178.08 65.1656 170 62.8136 161.863C60.9533 155.426 58.8637 148.764 57.8914 142.056C57.2391 142.442 56.5867 142.827 55.9341 143.212C54.9855 143.773 54.0367 144.334 53.0878 144.895C53.0442 144.92 52.951 144.989 52.8486 145.062C52.85 145.068 52.8511 145.074 52.8519 145.08C52.8679 145.325 52.5277 145.769 52.4147 146.013C50.9724 149.131 49.6333 152.298 48.3659 155.491C47.8398 156.816 47.3218 158.145 46.8505 159.491C46.6805 159.976 46.5245 160.464 46.3696 160.954C46.2058 161.471 46.2519 161.602 46.2532 161.296C46.2415 164.196 41.7415 164.192 41.7532 161.296C41.7623 158.98 43.1975 156.384 44.0266 154.295C44.4727 153.171 44.941 152.055 45.4041 150.937C43.4985 151.703 41.5996 152.485 39.7075 153.282C34.1717 155.619 28.6608 158.071 23.3569 160.901C21.3653 161.964 19.3385 162.846 18.0212 164.393C16.7938 165.966 15.7779 167.694 14.9993 169.531C12.1281 175.967 9.93205 182.684 8.44629 189.573H52.552C50.796 187.178 49.0727 184.76 47.3822 182.319C46.1444 180.544 44.9123 178.764 43.686 176.981C42.609 175.416 41.1753 173.811 40.7849 171.911C40.0558 168.361 42.4149 165.889 45.4688 164.692C49.626 163.063 53.7833 161.434 57.9408 159.805C58.5161 159.65 59.1289 159.729 59.6468 160.023C60.1647 160.317 60.5462 160.803 60.7086 161.376C60.8499 161.951 60.7658 162.558 60.4735 163.073C60.1812 163.587 59.703 163.971 59.137 164.144C57.3398 164.848 55.5426 165.552 53.7453 166.257C51.5068 167.134 49.2685 168.011 47.0303 168.888C46.7457 169 46.4561 169.103 46.1752 169.223C46.108 169.252 46.0353 169.272 45.9694 169.304C46.1448 169.22 45.9857 169.237 45.7879 169.437C44.7067 170.535 45.3245 171.435 46.0867 172.547C48.2479 175.7 50.4238 178.842 52.6143 181.974C53.6776 183.489 54.7492 184.999 55.829 186.503C56.5382 187.486 57.5248 188.839 58.0964 189.573H71.5276C71.1416 188.424 70.754 187.275 70.374 186.123Z" fill="#7A8CCC"/>
<path d="M85.4297 109.521C85.5562 109.745 85.6725 109.976 85.8186 110.188C85.8518 110.236 85.8867 110.283 85.9213 110.33C86.0526 110.454 86.1621 110.61 86.2877 110.74C86.4327 110.891 86.5836 111.036 86.7405 111.175C86.7814 111.211 86.9367 111.33 87.004 111.385C87.0681 111.428 87.1295 111.469 87.1494 111.482C87.2794 111.567 87.4122 111.648 87.5477 111.725C87.7009 111.812 87.859 111.888 88.0155 111.968L88.0309 111.977C88.314 112.068 88.5897 112.17 88.8798 112.241C89.0252 112.277 89.1738 112.3 89.3207 112.331C89.3617 112.337 89.4064 112.345 89.4137 112.345C89.7096 112.361 90.0026 112.376 90.2992 112.364C90.3296 112.363 90.4321 112.367 90.5361 112.366L90.579 112.355C90.6401 112.341 90.7035 112.334 90.765 112.322C91.0748 112.263 91.3803 112.183 91.6794 112.082C91.7587 112.056 91.8369 112.021 91.9173 111.998L91.9728 111.983C92.0347 111.946 92.0973 111.907 92.1321 111.889C92.3987 111.75 92.6466 111.588 92.8978 111.424L92.929 111.405L92.9555 111.38C93.0692 111.277 93.1857 111.178 93.2955 111.07C93.423 110.946 93.5409 110.815 93.6625 110.685C93.687 110.658 93.7105 110.63 93.7335 110.601C93.9067 110.325 94.0994 110.066 94.2546 109.777C94.2993 109.693 94.3409 109.607 94.3812 109.521H85.4297Z" fill="white"/>
<path d="M125.396 144.966C125.385 144.945 125.376 144.923 125.37 144.901C125.348 144.917 125.365 144.94 125.396 144.966Z" fill="#78C8E6"/>
<path d="M194.592 149.594C194.029 148.633 193.233 147.83 192.277 147.259C191.321 146.688 190.236 146.368 189.123 146.328C188.465 146.338 187.814 146.457 187.195 146.68C186.556 145.115 185.342 143.855 183.803 143.158C182.304 142.527 180.638 142.415 179.068 142.839C177.922 139.995 175.442 137.562 172.542 137.26C174.973 130.514 177.352 123.743 179.498 116.904C180.318 114.289 180.435 111.603 178.718 109.309C177.144 107.207 174.13 105.46 171.456 106.23C168.531 107.072 167.056 110.178 166.011 112.764C164.615 116.22 163.323 119.723 162.044 123.224C160.11 128.519 158.287 133.853 156.471 139.19C155.476 136.793 154.284 134.483 152.906 132.284C150.401 128.359 145.631 127.133 142.046 130.402C141.283 131.092 140.676 131.938 140.267 132.882C139.858 133.825 139.657 134.846 139.675 135.875C139.745 138.6 141.536 140.808 142.337 143.33C143.147 146.06 143.614 148.881 143.727 151.727C140.001 149.618 136.274 147.51 132.548 145.401C131.886 145.027 131.225 144.652 130.563 144.278C130.361 144.167 130.142 144.089 129.915 144.045C129.899 144.01 129.885 143.974 129.869 143.939C129.514 142.864 128.831 141.926 127.915 141.26C127.001 140.68 126.047 140.156 125.116 139.605C123.319 138.544 121.523 137.483 119.726 136.421C119.468 136.267 119.181 136.168 118.883 136.13C118.585 136.093 118.282 136.117 117.994 136.203C117.706 136.288 117.439 136.432 117.209 136.626C116.98 136.819 116.793 137.059 116.66 137.328C116.603 137.272 116.54 137.221 116.473 137.176L116.48 137.186C116.542 137.234 116.6 137.287 116.652 137.346C116.646 137.357 116.642 137.37 116.636 137.381C116.603 137.352 116.573 137.32 116.549 137.284C116.526 137.251 116.503 137.218 116.48 137.186C116.465 137.174 116.451 137.157 116.437 137.147C116.454 137.158 116.458 137.165 116.473 137.176C116.435 137.122 116.396 137.067 116.358 137.012C116.243 136.842 116.132 136.669 116.027 136.492C115.904 136.284 115.788 136.072 115.679 135.855C115.623 135.746 115.572 135.635 115.518 135.525C115.487 135.459 115.457 135.392 115.427 135.325C115.335 135.114 115.365 135.188 115.518 135.547C115.392 135.492 115.256 134.872 115.206 134.732C115.08 134.374 114.966 134.011 114.86 133.646C114.615 132.803 114.416 131.946 114.242 131.086C113.762 128.616 113.418 126.122 113.21 123.615C113.163 123.029 112.923 122.474 112.53 122.038C113.335 121.147 114.115 120.228 114.839 119.253C118.972 113.663 121.569 107.088 122.372 100.182C124.523 99.7018 126.521 98.6917 128.183 97.2437C130.903 94.7885 131.954 90.9797 132.169 87.4305C132.39 83.7759 131.426 79.5402 128.719 76.8913C128.819 76.7018 128.892 76.4992 128.936 76.2895C130.888 66.9272 130.367 57.2179 127.424 48.1184C124.524 39.4858 120.098 31.0775 112.145 26.1278C106.795 22.7986 100.521 21.5056 94.2924 21.2896C94.0031 21.2705 93.7131 21.3133 93.4416 21.4152C93.1702 21.517 92.9236 21.6756 92.7183 21.8802C92.5129 22.0849 92.3536 22.331 92.2508 22.6021C92.1481 22.8733 92.1044 23.1632 92.1225 23.4525C93.3415 23.6393 94.5274 23.9996 95.6443 24.5223C94.5274 23.9996 93.3415 23.6393 92.1225 23.4525C92.1064 23.7497 92.1502 24.047 92.2514 24.3269C92.3526 24.6067 92.5091 24.8633 92.7116 25.0814C92.9141 25.2995 93.1584 25.4746 93.43 25.5962C93.7016 25.7179 93.9949 25.7837 94.2924 25.7896C103.546 26.1104 112.059 29.5239 117.406 37.3441C122.709 45.3412 125.533 54.7258 125.525 64.3213C125.577 67.9229 125.268 71.5206 124.602 75.0605C123.828 75.0132 123.052 75.0659 122.291 75.2174C122.158 75.1192 122.016 75.0349 121.865 74.9657C117.14 72.774 114.512 67.1012 112.528 62.6015C110.352 57.4852 108.606 52.1967 107.309 46.7907C107.267 46.6251 107.209 46.4642 107.135 46.3107C107.132 46.2447 107.137 46.1795 107.134 46.1135C106.998 43.2304 102.497 43.2138 102.634 46.1135C102.911 51.944 98.6678 57.2328 94.3249 60.6931C90.8179 63.601 86.399 65.1813 81.8433 65.1569C87.1772 60.34 90.7241 53.8598 91.9068 46.7708C92.0476 46.1961 91.9633 45.5892 91.6712 45.0746C91.379 44.56 90.9011 44.1766 90.3354 44.003C89.7601 43.8491 89.1474 43.9277 88.6295 44.2217C88.1117 44.5157 87.7302 45.0016 87.5675 45.5745C85.5118 57.9922 75.4954 68.0087 62.685 68.7043C62.2193 68.741 61.775 68.9155 61.4087 69.2054C61.0424 69.4953 60.7706 69.8877 60.6279 70.3325C60.4852 70.7773 60.478 71.2546 60.6073 71.7035C60.7365 72.1524 60.9964 72.5528 61.3538 72.8536C62.1883 71.6664 63.1218 70.552 64.1443 69.5223C63.1218 70.552 62.1883 71.6664 61.3538 72.8536C61.7437 73.1208 62.2141 73.2447 62.685 73.2043C67.9408 72.9122 73.0342 71.2785 77.4793 68.459C77.6111 68.6783 77.7875 68.8675 77.9972 69.0141C78.2069 69.1608 78.4451 69.2616 78.6963 69.3101C85.4593 70.3971 91.8775 68.3077 97.2062 64.1139C100.396 61.6483 103.042 58.5504 104.978 55.0145C106.054 58.4905 107.33 61.9012 108.8 65.2294C110.817 69.7295 113.563 74.9902 117.847 77.8521C117.774 78.2779 117.821 78.7156 117.982 79.1163C118.143 79.5171 118.413 79.8651 118.76 80.1215C119.108 80.3778 119.52 80.5325 119.951 80.5681C120.381 80.6037 120.813 80.5189 121.198 80.3231C122.694 79.5106 124.737 78.9661 125.976 80.5464C127.652 82.6836 127.941 85.7631 127.585 88.3707C127.294 90.5068 126.586 92.8457 124.818 94.2217C123.861 94.9278 122.775 95.441 121.622 95.7328C121.242 95.8384 120.857 95.9103 120.473 95.9996C119.903 96.1325 120.346 96.0297 120.319 96.0326C119.728 96.0507 119.166 96.2935 118.748 96.7116C118.329 97.1297 118.087 97.6916 118.069 98.2826C117.302 109.739 110.305 121.186 99.8861 126.29C88.5318 131.852 75.5415 127.124 67.7017 117.935C63.2254 112.81 60.6301 106.312 60.3443 99.5136C60.3321 98.9207 60.0911 98.3555 59.6717 97.9362C59.2524 97.5169 58.6872 97.2759 58.0943 97.2636C53.8748 97.0682 50.8708 92.5993 50.1477 88.8134C49.358 84.6771 50.0999 78.7207 55.6043 79.3037C55.679 79.3116 55.7434 79.3034 55.8141 79.305C54.9392 77.792 54.5869 75.9077 53.6443 74.0223C54.5869 75.9077 54.9392 77.792 55.8141 79.305C58.4691 79.3648 58.3853 75.0983 55.6043 74.8037C55.1941 74.7641 54.782 74.7482 54.37 74.756C54.4346 74.4064 54.4139 74.0463 54.3097 73.7064C52.1476 66.3427 51.8594 58.3756 54.7885 51.211C58.1678 42.9456 63.9678 34.9845 71.5227 30.0934C75.8336 27.1843 80.9394 25.6809 86.1389 25.7896C86.4752 25.8032 86.8099 25.7363 87.1151 25.5943C87.4203 25.4523 87.6871 25.2394 87.8933 24.9734C88.0995 24.7074 88.2392 24.3959 88.3006 24.065C88.362 23.734 88.3434 23.3932 88.2463 23.0709C87.1312 23.0277 86.0639 23.0223 85.1443 23.0223C86.0639 23.0223 87.1312 23.0277 88.2463 23.0709C88.1599 22.5739 87.9015 22.1231 87.5162 21.7974C87.1309 21.4718 86.6434 21.292 86.1389 21.2896C75.584 20.9449 66.2332 26.9634 59.6264 34.7942C53.0635 42.5735 47.8564 52.4238 48.1405 62.8176C48.2335 66.9074 48.8485 70.9687 49.9705 74.9027C50.0565 75.2054 50.2037 75.4872 50.403 75.7307C46.206 78.0687 44.9206 84.1108 45.6574 89.0965C46.473 94.615 50.4469 100.085 55.9709 101.444C56.4652 106.152 57.8874 110.715 60.1555 114.869C62.4235 119.024 65.4924 122.688 69.1848 125.649C68.8569 124.273 68.15 123.017 67.1443 122.022C68.15 123.017 68.8569 124.273 69.1848 125.649C72.1426 128.086 75.4829 130.016 79.0705 131.363C89.7725 135.316 100.683 132.434 108.897 125.543C109.119 129.406 109.903 133.215 111.224 136.851C111.639 137.903 112.187 138.898 112.855 139.811C113.444 140.593 114.106 141.313 114.709 142.084C114.98 142.415 115.363 142.634 115.786 142.698C114.768 148.815 112.745 155.183 111.033 161.085C110.203 163.945 109.323 166.79 108.449 169.637C97.0216 169.719 85.5943 169.802 74.1671 169.884C72.7261 169.894 71.2852 169.905 69.8444 169.915C67.7511 163.121 65.8036 156.283 64.0974 149.398C63.6605 147.634 63.2127 145.818 62.8336 144.013C65.4682 143.38 66.8658 139 67.4986 136.814C68.2092 134.248 68.7701 131.644 69.1783 129.013C69.1858 128.968 69.1852 128.922 69.1907 128.877C68.8643 130.26 68.1552 131.523 67.1443 132.522C68.1552 131.523 68.8643 130.26 69.1907 128.877C69.3042 128.319 69.2044 127.74 68.911 127.253C68.6177 126.766 68.1523 126.406 67.6067 126.246C67.0315 126.094 66.4199 126.174 65.9027 126.468C65.3854 126.761 65.0037 127.246 64.839 127.817C64.4682 130.038 64.0465 132.254 63.4826 134.435C63.2782 135.225 63.0552 136.01 62.7996 136.784C62.7075 137.063 62.6109 137.339 62.5097 137.615C62.4572 137.757 62.4031 137.899 62.3473 138.04L62.3308 138.082C62.2276 138.3 62.1157 138.513 62.0093 138.729C61.9987 138.609 61.9752 138.483 61.9661 138.364C61.9584 137.971 61.8491 137.587 61.6488 137.249C61.4485 136.91 61.1641 136.63 60.8232 136.434C60.4823 136.239 60.0966 136.135 59.7036 136.132C59.3106 136.13 58.9237 136.229 58.5805 136.421C56.836 137.452 55.0915 138.483 53.347 139.513C52.3637 140.095 51.3566 140.648 50.392 141.26C49.4776 141.928 48.7946 142.864 48.4383 143.939C48.2548 144.338 48.0863 144.744 47.9058 145.144C39.1799 148.404 30.6429 152.148 22.3347 156.36C22.1073 156.478 21.8689 156.597 21.6364 156.715C21.3376 156.565 21.0079 156.487 20.6736 156.488C20.4627 156.489 20.2558 156.468 20.0472 156.451C20.0163 156.447 19.987 156.442 19.9628 156.437C19.8191 156.409 19.6763 156.377 19.5343 156.34C19.2751 156.275 19.0185 156.198 18.7653 156.111C18.6151 156.06 18.466 156.006 18.3181 155.948L18.2866 155.936C17.7112 155.671 17.152 155.372 16.612 155.04C16.3542 154.879 16.1015 154.71 15.8539 154.533C15.7752 154.471 15.7007 154.404 15.6309 154.332C15.6646 154.366 15.6994 154.401 15.7862 154.491C15.6686 154.369 15.5111 154.27 15.3819 154.16C14.8901 153.743 14.4318 153.289 14.0113 152.8C13.9549 152.729 13.9026 152.655 13.8544 152.578C13.8819 152.623 13.917 152.68 13.9699 152.767C13.8859 152.628 13.774 152.501 13.6828 152.366C13.5248 152.133 13.3787 151.893 13.245 151.645C13.1806 151.525 13.1227 151.402 13.0632 151.279C13.0564 151.259 13.0542 151.251 13.0451 151.225C12.9567 150.977 12.8856 150.723 12.8323 150.465L12.8275 150.444C12.8242 150.389 12.8231 150.334 12.8199 150.279C11.2231 150.14 9.71526 149.484 8.52641 148.409C8.52021 148.433 8.50771 148.454 8.50241 148.479C7.39191 153.662 11.8754 157.906 16.2417 159.91C16.0821 160.037 15.9052 160.148 15.7532 160.282C14.2594 161.719 13.0275 163.406 12.1131 165.266C9.75516 169.904 7.8639 174.765 6.46721 179.778C5.48501 183.011 4.58291 186.278 3.82861 189.573H8.44621C9.93197 182.684 12.128 175.967 14.9992 169.531C15.7778 167.694 16.7938 165.966 18.0211 164.393C19.3384 162.846 21.3652 161.964 23.3568 160.901C28.6607 158.071 34.1716 155.619 39.7074 153.282C41.5987 152.484 43.4976 151.702 45.404 150.937C44.9409 152.055 44.4726 153.171 44.0265 154.295C43.1974 156.384 41.7622 158.98 41.7531 161.296C41.7414 164.192 46.2414 164.196 46.2531 161.296C46.2518 161.602 46.2057 161.471 46.3695 160.954C46.5244 160.464 46.6804 159.976 46.8504 159.491C47.3217 158.145 47.8397 156.816 48.3658 155.491C49.6332 152.298 50.9723 149.131 52.4146 146.013C52.5276 145.769 52.8678 145.325 52.8518 145.08C52.851 145.074 52.8499 145.068 52.8485 145.062C52.9509 144.989 53.0441 144.92 53.0877 144.895C54.0365 144.334 54.9853 143.773 55.934 143.212C56.5865 142.827 57.2389 142.441 57.8913 142.056C58.8636 148.764 60.9532 155.426 62.8135 161.863C65.1655 170 67.7198 178.08 70.3739 186.123C70.7539 187.275 71.1415 188.424 71.5275 189.573H76.2652C74.5509 184.539 72.8667 179.484 71.2528 174.405C82.4865 174.324 93.7203 174.243 104.954 174.162C105.658 174.157 106.362 174.152 107.066 174.147C105.906 177.833 104.72 181.511 103.51 185.181C103.026 186.647 102.536 188.111 102.041 189.573H106.787C111.186 176.613 115.377 163.508 118.641 150.219C119.303 147.525 119.944 144.792 120.385 142.038C120.994 142.398 121.604 142.758 122.213 143.118C123.183 143.691 124.152 144.264 125.122 144.837C125.204 144.885 125.317 144.97 125.435 145.054C125.571 145.351 125.878 145.982 125.892 146.013C127.302 149.061 128.613 152.156 129.855 155.274C130.412 156.671 130.96 158.072 131.457 159.491C131.614 159.939 131.773 160.389 131.906 160.846C132.032 161.279 132.056 161.824 132.054 161.296C132.066 164.191 136.566 164.197 136.554 161.296C136.545 159.046 135.171 156.544 134.367 154.511C133.865 153.243 133.34 151.984 132.816 150.724C136.001 152.526 139.186 154.328 142.37 156.13L143.912 157.002C143.939 158.117 143.968 159.23 144.022 160.334C144.304 166.184 145.266 172.255 149.246 176.741C148.882 180.166 148.518 183.59 148.155 187.015C148.083 187.417 148.153 187.832 148.351 188.189C148.549 188.546 148.864 188.824 149.243 188.976L149.989 185.248L149.243 188.976C149.594 189.124 149.975 189.19 150.355 189.167C150.736 189.143 151.106 189.033 151.436 188.843C151.766 188.653 152.048 188.389 152.26 188.072C152.471 187.755 152.606 187.393 152.655 187.015C152.966 184.083 153.278 181.15 153.589 178.218C153.739 176.806 154.096 175.619 153.167 174.398C152.211 173.326 151.364 172.162 150.638 170.923C149.932 169.428 149.426 167.846 149.135 166.219C147.862 159.858 148.643 153.234 147.709 146.817C147.235 143.672 146.258 140.622 144.817 137.786C143.939 136.002 143.935 133.976 146.026 133.095C148.691 131.971 150.463 137.166 151.3 138.921C153.094 142.721 154.552 146.671 155.658 150.726C156.43 153.513 160.773 152.329 159.997 149.53C159.666 148.337 159.305 147.128 158.924 145.916C160.773 140.497 162.597 135.068 164.501 129.668C165.476 126.902 166.476 124.145 167.5 121.396C168.621 118.394 169.553 115.084 171.153 112.3C171.511 111.679 172.066 110.597 172.87 110.519C173.688 110.441 174.978 111.642 175.324 112.294C176.208 113.96 175.001 116.223 174.474 117.849C173.016 122.344 171.468 126.81 169.899 131.267C168.929 134.025 167.947 136.778 166.953 139.527C165.579 141.214 164.514 143.13 163.808 145.187C162.388 148.553 161.023 151.935 159.782 155.373C159.715 155.56 159.672 155.756 159.655 155.955C159.48 157.059 159.59 158.189 159.976 159.239C160.361 160.288 161.009 161.221 161.857 161.949C162.793 162.828 163.962 163.419 165.224 163.652C166.486 163.885 167.789 163.75 168.976 163.263C169.112 163.57 169.274 163.865 169.462 164.144C169.743 164.563 170.086 164.936 170.479 165.253C170.81 165.539 170.941 165.638 170.914 165.585C171.044 165.766 171.189 165.936 171.347 166.094C172.159 166.833 173.189 167.286 174.282 167.386C175.75 167.524 177.225 167.223 178.522 166.521C179.148 167.746 180.124 168.758 181.325 169.429C182.527 170.099 183.901 170.398 185.272 170.287C184.353 173.178 182.883 175.864 180.945 178.197C180.027 179.191 179.012 180.09 177.915 180.882C177.037 181.517 175.985 181.989 175.615 183.087C175.149 184.469 174.847 185.927 174.467 187.334C174.341 187.735 174.342 188.165 174.469 188.566C174.596 188.966 174.843 189.318 175.177 189.573H175.975L176.373 186.546L175.975 189.573H178.189C178.49 189.292 178.704 188.93 178.806 188.531C179.119 187.372 179.432 186.213 179.745 185.055C180.878 184.292 181.954 183.449 182.966 182.532C185.085 180.464 186.79 178.009 187.986 175.3C189.471 172.368 190.502 169.229 191.046 165.988C191.929 164.285 192.698 162.526 193.349 160.721C194.096 159.209 194.727 157.643 195.235 156.034C195.75 153.876 195.523 151.608 194.592 149.594V149.594ZM20.1234 156.46C20.4455 156.487 20.2931 156.48 20.1234 156.46V156.46ZM62.589 139.681C62.5879 139.679 62.5764 139.675 62.5447 139.667C62.392 139.631 61.9893 139.425 62.589 139.681ZM62.1173 139.643L62.1151 139.623C62.2726 139.652 62.4315 139.672 62.5912 139.682C62.7084 139.733 62.8501 139.794 63.0541 139.885C62.7569 139.754 62.4406 139.673 62.1173 139.643ZM125.37 144.901C125.376 144.923 125.385 144.945 125.396 144.966C125.385 144.945 125.376 144.923 125.37 144.901V144.901ZM189.368 158.638C188.884 159.821 188.409 161.009 187.93 162.194C187.18 164.045 185.372 167.353 182.981 165.143C181.882 164.126 182.544 162.549 182.94 161.357C183.498 159.678 184.158 158.032 184.831 156.397C185.795 154.059 181.774 152.345 180.719 154.663C179.546 157.247 178.229 159.762 176.772 162.196C176.84 162.082 176.733 162.212 176.639 162.331C176.54 162.382 176.212 162.622 176.08 162.677C175.833 162.815 175.561 162.9 175.279 162.927C174.998 162.954 174.714 162.922 174.446 162.833C173.958 162.48 173.523 162.059 173.151 161.585C172.944 161.177 172.879 160.71 172.966 160.261C172.983 160.105 173.095 159.752 173.164 159.432C173.344 159.13 173.499 158.814 173.628 158.487C173.734 158.199 173.835 157.909 173.937 157.62C173.986 157.504 174.034 157.386 174.085 157.272C174.682 156.121 175.218 154.941 175.691 153.734C175.57 153.84 175.435 153.93 175.289 154C175.338 153.906 175.381 153.81 175.419 153.712C175.494 153.45 175.679 153.378 175.775 153.42C175.96 152.835 176 152.214 175.891 151.611C175.727 151.039 175.345 150.554 174.828 150.26C174.31 149.967 173.699 149.887 173.123 150.039C171.46 150.526 170.949 152.732 170.417 154.146C170.142 154.875 169.88 155.611 169.622 156.346C169.516 156.563 169.415 156.78 169.321 156.995C169.286 157.075 169.259 157.159 169.225 157.24C169.155 157.342 169.093 157.448 169.038 157.559C168.779 157.874 168.499 158.173 168.201 158.453C167.974 158.723 167.694 158.942 167.378 159.097C167.061 159.253 166.716 159.341 166.364 159.355C165.934 159.283 165.525 159.117 165.166 158.868C164.808 158.619 164.509 158.294 164.291 157.916C164.151 157.724 164.062 157.5 164.032 157.264C164.002 157.029 164.033 156.79 164.121 156.569C165.09 153.884 166.123 151.225 167.219 148.591C168.036 146.633 168.643 143.831 170.346 142.444C172.003 141.092 173.699 142.147 174.614 143.852C174.919 144.447 175.122 145.09 175.215 145.752C175.212 145.83 175.249 146.286 175.244 146.428C175.173 148.252 177.849 149.565 179.085 148.019C179.408 147.572 179.878 147.253 180.412 147.116C180.946 146.978 181.511 147.032 182.01 147.268C182.3 147.419 182.554 147.63 182.756 147.887C182.959 148.144 183.104 148.44 183.183 148.758C183.226 148.883 183.321 149.294 183.361 149.458C183.369 149.529 183.387 149.663 183.389 149.712C183.399 150.104 183.51 150.486 183.711 150.823C183.912 151.159 184.196 151.439 184.536 151.634C184.876 151.829 185.26 151.933 185.652 151.937C186.044 151.94 186.431 151.843 186.774 151.655C185.826 152.057 186.751 151.666 186.939 151.593C187.221 151.484 187.501 151.372 187.786 151.268C188.168 151.095 188.568 150.963 188.979 150.874C189.018 150.869 189.035 150.866 189.066 150.862C189.079 150.868 189.093 150.872 189.107 150.872C190.632 151.047 190.792 151.888 190.961 153.22C191.211 155.195 190.088 156.883 189.368 158.638Z" fill="#323232"/>
<path d="M12.8199 150.279C12.816 150.21 12.8103 150.141 12.8103 150.072C12.8105 149.966 12.8206 149.858 12.8263 149.751C12.8316 149.726 12.836 149.7 12.8416 149.675C12.989 149.1 12.9077 148.49 12.6146 147.974C12.3215 147.458 11.8395 147.075 11.2702 146.907C10.7077 146.763 10.1115 146.838 9.60213 147.117C9.09278 147.396 8.70828 147.857 8.52637 148.409C9.71521 149.484 11.223 150.14 12.8199 150.279V150.279Z" fill="#323232"/>
<path d="M175.775 153.42C175.747 153.525 175.725 153.629 175.691 153.734C175.855 153.573 175.855 153.455 175.775 153.42Z" fill="#323232"/>
<path d="M82.3163 105.021C82.2701 105.021 82.2254 105.032 82.1799 105.035C82.1284 105.037 82.0793 105.046 82.0288 105.051C81.9623 105.061 81.8962 105.067 81.8307 105.083C81.7937 105.091 81.7543 105.091 81.7181 105.101C81.6803 105.111 81.6582 105.138 81.6219 105.15C81.4077 105.222 81.205 105.325 81.0199 105.455C80.9532 105.502 80.8895 105.554 80.8291 105.609C80.5851 105.811 80.3898 106.065 80.2577 106.353C80.1256 106.64 80.0602 106.954 80.0663 107.271C80.0752 107.44 80.1014 107.608 80.1445 107.772C80.149 107.804 80.141 107.836 80.1465 107.869C80.4214 109.828 81.2376 111.672 82.5034 113.194C83.7692 114.715 85.4343 115.852 87.3114 116.479C88.9965 116.983 90.7897 117 92.4842 116.529C94.1787 116.058 95.7055 115.117 96.8885 113.816C98.4311 111.971 99.3292 109.673 99.4465 107.271C99.4407 106.676 99.2018 106.107 98.7811 105.686C98.3604 105.265 97.7914 105.026 97.1965 105.021H82.3163V105.021ZM90.5573 112.366C90.6381 112.347 90.7201 112.334 90.8027 112.327C90.7827 112.356 90.6712 112.364 90.5573 112.366ZM93.7336 110.601C93.7106 110.63 93.6871 110.658 93.6626 110.685C93.541 110.815 93.4231 110.946 93.2956 111.07C93.1858 111.178 93.0693 111.277 92.9556 111.38L92.9291 111.405L92.8979 111.424C92.6467 111.588 92.3988 111.75 92.1322 111.889C92.0974 111.907 92.0348 111.946 91.9729 111.983L91.9174 111.998C91.837 112.021 91.7588 112.056 91.6795 112.082C91.3804 112.183 91.0749 112.263 90.7651 112.322C90.7036 112.334 90.6402 112.341 90.5791 112.355L90.5362 112.366C90.4322 112.367 90.3297 112.363 90.2993 112.364C90.0027 112.376 89.7097 112.361 89.4138 112.345C89.4065 112.345 89.3618 112.337 89.3208 112.331C89.1739 112.3 89.0253 112.277 88.8799 112.241C88.5898 112.17 88.3141 112.068 88.031 111.977L88.0156 111.968C87.8591 111.888 87.701 111.812 87.5478 111.725C87.4125 111.648 87.2797 111.567 87.1495 111.482C87.1296 111.469 87.0682 111.428 87.0041 111.385C86.9368 111.33 86.7815 111.211 86.7406 111.175C86.5837 111.037 86.4328 110.892 86.2878 110.74C86.1622 110.61 86.0527 110.454 85.9214 110.33C85.8868 110.283 85.8519 110.236 85.8187 110.188C85.6726 109.976 85.5563 109.745 85.4298 109.521H94.3813C94.341 109.607 94.2994 109.693 94.2547 109.777C94.0995 110.066 93.9068 110.325 93.7336 110.601Z" fill="#323232"/>
<path d="M105.867 70.967C106.396 71.2577 107.015 71.3387 107.601 71.1938C108.164 71.0335 108.645 70.6635 108.945 70.1598C109.238 69.6427 109.318 69.0315 109.167 68.4564C109.017 67.8813 108.647 67.3879 108.138 67.0813C105.539 65.8067 102.551 65.5728 99.7856 66.4275C99.2155 66.5944 98.7327 66.9767 98.4394 67.4932C98.1461 68.0098 98.0652 68.6202 98.214 69.1953C98.3801 69.7659 98.7622 70.2493 99.279 70.5427C99.7958 70.8362 100.407 70.9165 100.982 70.7668C101.382 70.6456 101.79 70.5522 102.202 70.4873C102.856 70.423 103.514 70.4244 104.167 70.4912C104.74 70.5901 105.302 70.7459 105.844 70.9564L105.867 70.967Z" fill="#323232"/>
<path d="M102.609 81.3093C105.505 81.3093 105.51 76.8093 102.609 76.8093C99.714 76.8093 99.7092 81.3093 102.609 81.3093Z" fill="#323232"/>
<path d="M89.9092 95.5403C87.0137 95.5403 87.009 100.04 89.9092 100.04C92.8048 100.04 92.8096 95.5403 89.9092 95.5403Z" fill="#323232"/>
<path d="M76.8238 76.8093C73.9284 76.8093 73.9234 81.3093 76.8238 81.3093C79.7193 81.3093 79.724 76.8093 76.8238 76.8093Z" fill="#323232"/>
<path d="M55.1442 114.522H57.5385C57.6188 114.198 57.6246 113.859 57.5556 113.532C57.4865 113.205 57.3444 112.898 57.1398 112.633C56.9352 112.369 56.6734 112.154 56.3741 112.005C56.0748 111.857 55.7457 111.777 55.4114 111.774C44.9874 111.615 35.6037 119.228 31.3105 128.38C29.4366 132.375 29.3309 136.559 28.1552 140.741C26.9753 144.938 23.8101 151.201 18.65 147.346C16.6175 145.828 14.6435 148.632 15.7247 150.505C16.3797 150.521 17.0264 150.522 17.6442 150.522C17.0264 150.522 16.3797 150.521 15.7247 150.505C15.8908 150.789 16.1134 151.037 16.3788 151.232C18.1196 152.519 20.2645 153.138 22.4233 152.977C24.5821 152.816 26.6114 151.885 28.1422 150.355C30.8633 147.619 32.193 143.602 32.996 139.917C33.7172 136.606 33.8663 133.357 35.3842 130.26C37.1234 126.73 39.5848 123.605 42.6088 121.087C46.159 117.995 50.704 116.287 55.4114 116.274C55.9209 116.301 56.4223 116.137 56.8162 115.812C57.2101 115.488 57.4679 115.028 57.5385 114.522H55.1442Z" fill="#323232"/>
<path d="M15.631 154.332C15.5627 154.263 15.5728 154.274 15.631 154.332V154.332Z" fill="#323232"/>
<path d="M13.8546 152.578C13.7669 152.435 13.7934 152.483 13.8546 152.578V152.578Z" fill="#323232"/>
<path d="M55.8288 186.502C54.7458 185.001 53.6742 183.492 52.6141 181.974C50.4186 178.845 48.2427 175.703 46.0865 172.547C45.3243 171.435 44.7065 170.535 45.7877 169.437C45.9855 169.237 46.1446 169.22 45.9692 169.304C46.0351 169.272 46.1078 169.252 46.175 169.223C46.4559 169.103 46.7455 169 47.0301 168.888C49.2684 168.011 51.5067 167.134 53.7451 166.257C55.5423 165.552 57.3395 164.848 59.1368 164.144C59.7028 163.971 60.181 163.587 60.4733 163.073C60.7656 162.558 60.8497 161.951 60.7084 161.376C60.546 160.803 60.1646 160.317 59.6466 160.023C59.1287 159.729 58.5159 159.65 57.9406 159.804C53.7832 161.434 49.6259 163.063 45.4686 164.692C42.4147 165.889 40.0556 168.361 40.7847 171.911C41.1751 173.811 42.6088 175.416 43.6858 176.981C44.913 178.764 46.1451 180.543 47.382 182.319C49.0787 184.754 50.8019 187.172 52.5518 189.573H58.0962C57.5246 188.839 56.538 187.486 55.8288 186.502Z" fill="#323232"/>
<path d="M129.822 183.898C131.124 182.04 132.418 180.177 133.705 178.309C134.891 176.77 135.98 175.158 136.965 173.483C138.807 169.915 136.745 166.248 133.284 164.867C131.096 163.993 128.896 163.147 126.702 162.288C124.59 161.46 122.478 160.632 120.366 159.805C119.791 159.651 119.178 159.729 118.661 160.023C118.143 160.317 117.761 160.803 117.599 161.376C117.453 161.951 117.535 162.56 117.828 163.076C118.121 163.591 118.602 163.974 119.17 164.144C122.969 165.633 126.769 167.122 130.569 168.611C131.131 168.831 131.719 169.024 132.268 169.276C132.292 169.295 132.317 169.314 132.357 169.345C132.591 169.488 132.79 169.681 132.941 169.91C133.069 170.131 133.142 170.381 133.152 170.638C133.162 170.894 133.109 171.148 132.998 171.379C132.151 172.908 131.165 174.354 130.052 175.701C128.929 177.329 127.802 178.954 126.671 180.577C124.605 183.536 122.244 186.965 120.21 189.573H125.765C127.138 187.696 128.49 185.804 129.822 183.898Z" fill="#323232"/>
</g>
</svg>
