<svg width="180" height="180" viewBox="0 0 180 180" fill="none" xmlns="http://www.w3.org/2000/svg">
<path d="M90 180C139.706 180 180 139.706 180 90C180 40.2944 139.706 0 90 0C40.2944 0 0 40.2944 0 90C0 139.706 40.2944 180 90 180Z" fill="#D0D6EA"/>
<mask id="mask0" style="mask-type:alpha" maskUnits="userSpaceOnUse" x="0" y="0" width="180" height="180">
<path d="M90 180C139.706 180 180 139.706 180 90C180 40.2944 139.706 0 90 0C40.2944 0 0 40.2944 0 90C0 139.706 40.2944 180 90 180Z" fill="#D0D6EA"/>
</mask>
<g mask="url(#mask0)">
<path d="M86.6914 101.512C86.8177 101.736 86.934 101.967 87.0801 102.179C87.1132 102.227 87.1482 102.274 87.1828 102.321C87.3143 102.445 87.4238 102.601 87.5492 102.732C87.6944 102.882 87.8453 103.027 88.002 103.167C88.0431 103.203 88.1987 103.322 88.2657 103.376C88.3298 103.419 88.3911 103.461 88.4109 103.474C88.5411 103.559 88.6739 103.639 88.8092 103.716C88.9626 103.803 89.1204 103.879 89.277 103.96L89.2924 103.968C89.5755 104.059 89.8514 104.161 90.1413 104.232C90.2868 104.268 90.4359 104.292 90.5827 104.322C90.6236 104.328 90.6679 104.336 90.6752 104.336C90.9711 104.352 91.2642 104.367 91.5609 104.355C91.5913 104.354 91.6936 104.358 91.7976 104.357C91.8145 104.353 91.8062 104.355 91.8407 104.347C91.9018 104.333 91.9652 104.325 92.0267 104.313C92.3364 104.254 92.6418 104.174 92.9408 104.074C93.0202 104.047 93.0986 104.012 93.1788 103.989L93.2343 103.974C93.2962 103.937 93.359 103.898 93.3936 103.88C93.6602 103.741 93.9083 103.579 94.1595 103.416L94.1906 103.396C94.2013 103.386 94.2036 103.383 94.217 103.371C94.3305 103.268 94.4472 103.169 94.5572 103.062C94.6847 102.937 94.8026 102.806 94.9242 102.676C94.9487 102.65 94.9721 102.621 94.9952 102.592C95.1684 102.317 95.361 102.057 95.5163 101.768C95.561 101.685 95.6024 101.599 95.6427 101.512H86.6914Z" fill="white"/>
<path d="M79.2134 61.0721L79.1929 61.0699L79.2167 61.0725L79.2134 61.0721Z" fill="white"/>
<path d="M116.032 132.025C113.097 127.851 112.266 122.664 111.406 117.661C100.381 127.91 83.1508 128.571 71.0641 119.727C70.6054 119.391 70.1738 119.026 69.734 118.669C68.5905 124.769 66.1623 130.176 61.5005 134.194C61.6539 134.209 61.8055 134.24 61.9533 134.284C71.2307 137.101 80.8577 138.603 90.5525 138.744C99.7982 138.885 109.389 137.862 117.998 134.287C117.27 133.599 116.612 132.841 116.032 132.025Z" fill="white"/>
<path d="M79.2168 61.0726L79.2476 61.0774L79.2637 61.0777C79.2483 61.0775 79.2324 61.0733 79.2168 61.0726Z" fill="white"/>
<path d="M92.0638 104.318C91.9812 104.325 91.8992 104.338 91.8184 104.357C91.9323 104.356 92.0438 104.347 92.0638 104.318Z" fill="white"/>
<path d="M124.746 70.4264C124.549 70.4814 124.345 70.5083 124.14 70.5062C123.888 70.5754 123.65 70.6909 123.439 70.8468C123.197 71.04 122.911 71.1711 122.607 71.2285C122.302 71.2859 121.988 71.268 121.692 71.1763C121.396 71.0845 121.127 70.9218 120.908 70.7023C120.689 70.4827 120.528 70.213 120.437 69.9166C117.071 68.9822 113.987 67.2325 111.458 64.8224C110.463 63.8831 109.528 62.8812 108.661 61.8228C108.235 61.6571 107.811 61.4871 107.373 61.3586C107.077 61.2718 106.778 61.1955 106.475 61.1299C106.313 61.0947 106.149 61.0629 105.984 61.0345C105.96 61.0303 105.914 61.0232 105.863 61.0155C105.757 61.0045 105.557 60.9814 105.494 60.9763C105.312 60.9613 105.13 60.95 104.948 60.9426C104.583 60.9276 104.217 60.9263 103.851 60.9387C103.452 60.9517 103.053 60.9796 102.654 61.0191C102.555 61.029 102.456 61.0396 102.356 61.0508C102.287 61.0587 101.933 61.1098 102.272 61.0579C102.643 61.0012 102.177 61.0722 102.099 61.0839C101.99 61.1004 101.882 61.1176 101.774 61.1352C101.187 61.263 100.574 61.1828 100.04 60.9083C99.7849 60.7592 99.5615 60.5613 99.3828 60.3259C99.2041 60.0905 99.0735 59.8222 98.9985 59.5363C98.9236 59.2504 98.9057 58.9526 98.9459 58.6597C98.9861 58.3669 99.0835 58.0849 99.2328 57.8298C99.5292 57.3232 100.012 56.9523 100.577 56.796C102.008 56.5418 103.46 56.4278 104.913 56.4558C102.429 52.0932 100.475 47.4501 99.0913 42.6247C98.0611 39.1648 96.0089 36.1052 92.5013 34.762C88.7224 33.3148 85.2386 34.9517 83.0364 38.1748C81.4106 40.5542 77.5127 38.3008 79.1507 35.9036L79.1628 35.8868C77.5014 37.9136 75.6219 39.7514 73.5583 41.3668C73.8252 41.6348 74.0135 41.9708 74.1028 42.3383C74.1921 42.7058 74.179 43.0908 74.0648 43.4514C71.6694 49.7786 69.6433 56.3671 66.3245 62.2941C64.4082 65.7161 61.8511 68.9494 58.4492 70.6726C58.2406 71.1281 57.8705 71.49 57.4106 71.6886C56.9506 71.8871 56.4334 71.9082 55.9589 71.7476C55.8503 71.7218 55.7404 71.7018 55.6297 71.6876C54.9885 71.8264 54.337 71.9118 53.6817 71.9428C52.7754 72.4186 52.0213 73.1398 51.5056 74.024C50.6453 75.6496 50.3361 77.5106 50.6247 79.3271C50.6792 80.5515 50.9946 81.7501 51.5499 82.8426C52.1053 83.9352 52.8876 84.8965 53.8446 85.6622C55.0599 85.3485 56.3413 85.4047 57.5245 85.8237C58.3206 86.1232 59.0545 86.5674 59.689 87.134C59.7335 87.1692 59.774 87.206 59.8151 87.2442C60.4634 87.8392 60.9832 88.5606 61.3424 89.364C61.7016 90.1674 61.8926 91.0358 61.9037 91.9158C61.9056 92.0753 61.8895 92.2345 61.8559 92.3904C61.795 93.0745 61.6277 93.745 61.3602 94.3776C61.9122 97.0438 62.6097 99.6778 63.4498 102.268C65.5387 108.254 69.5543 113.378 74.8675 116.838C80.1808 120.297 86.4915 121.896 92.8111 121.385C96.2925 121.052 99.6733 120.033 102.758 118.384C105.842 116.736 108.569 114.492 110.78 111.782C114.776 106.783 116.374 100.454 117.449 94.2255C117.046 93.1282 116.943 91.9433 117.15 90.7928C117.356 89.6423 117.866 88.5676 118.626 87.6793C119.479 86.7084 120.602 86.0135 121.851 85.6831C123.101 85.3526 124.42 85.4016 125.642 85.8237C126.056 85.9823 126.454 86.1799 126.83 86.4138C127.931 84.9135 128.686 83.1874 129.039 81.3601C129.454 79.1918 129.735 76.4275 129.007 74.2961C128.482 72.7602 126.568 70.4663 124.746 70.4264ZM90.9372 87.7983C93.8374 87.7983 93.8327 92.2983 90.9372 92.2983C88.0368 92.2983 88.0416 87.7983 90.9372 87.7983ZM77.427 72.6456C74.5266 72.6456 74.5313 68.1456 77.427 68.1456C80.3272 68.1456 80.3224 72.6456 77.427 72.6456ZM79.6184 61.1352C79.495 61.1153 79.3714 61.096 79.2478 61.0774C78.7285 61.0675 79.0312 61.0512 79.1932 61.07C79.0174 61.0594 78.8383 61.0285 78.664 61.0118C78.2682 60.9741 77.8712 60.9481 77.4738 60.9369C77.1102 60.9265 76.7465 60.9292 76.3827 60.9452C76.2013 60.9536 76.0201 60.9656 75.8393 60.9814C75.788 60.9858 75.6464 61.0023 75.5498 61.0129C75.4685 61.0254 75.3879 61.0378 75.3527 61.044C75.1887 61.0733 75.0254 61.1059 74.8628 61.1418C74.5617 61.2081 74.2632 61.2854 73.9674 61.3738C73.3772 61.5531 72.797 61.7634 72.229 62.0039C71.9401 62.0885 71.6367 62.112 71.3382 62.0729C71.0398 62.0339 70.7527 61.9331 70.4953 61.777C70.24 61.6279 70.0167 61.43 69.838 61.1946C69.6592 60.9592 69.5287 60.6909 69.4537 60.4049C69.3788 60.119 69.3609 59.8212 69.4011 59.5283C69.4414 59.2355 69.5389 58.9535 69.6882 58.6984C70.0009 58.2064 70.4769 57.8404 71.0327 57.6646C72.4205 57.0889 73.8812 56.7073 75.3733 56.5308C77.1905 56.3622 79.0225 56.4515 80.8148 56.796C81.2416 56.9136 81.6242 57.1545 81.9147 57.4885C82.2052 57.8225 82.3908 58.2348 82.4482 58.6738C82.5055 59.1128 82.4322 59.5589 82.2372 59.9563C82.0423 60.3538 81.7344 60.6849 81.3522 60.9083C80.8218 61.1946 80.2046 61.2753 79.6184 61.1352V61.1352ZM98.1501 105.807C96.9671 107.108 95.4403 108.049 93.7457 108.52C92.0511 108.991 90.2579 108.974 88.5728 108.47C86.6957 107.843 85.0306 106.706 83.7648 105.185C82.499 103.664 81.6828 101.82 81.408 99.86C81.4026 99.8272 81.4104 99.7957 81.4058 99.7628C81.3628 99.5989 81.3366 99.431 81.3277 99.2618C81.3216 98.9453 81.3871 98.6315 81.5192 98.3439C81.6513 98.0562 81.8467 97.8021 82.0907 97.6005C82.151 97.5452 82.2145 97.4936 82.2811 97.4461C82.4663 97.3162 82.6691 97.2135 82.8835 97.1411C82.9198 97.129 82.9417 97.1026 82.9795 97.0922C83.0157 97.0821 83.0553 97.0821 83.0922 97.0742C83.1576 97.0587 83.2237 97.0521 83.2904 97.0426C83.3409 97.0371 83.39 97.0283 83.4412 97.0265C83.487 97.0233 83.5317 97.0118 83.5777 97.0118H98.4579C99.0528 97.0176 99.6217 97.2565 100.042 97.6772C100.463 98.0979 100.702 98.6668 100.708 99.2618C100.591 101.664 99.6925 103.962 98.1501 105.807V105.807ZM103.789 72.6456C100.888 72.6456 100.893 68.1456 103.789 68.1456C106.689 68.1456 106.684 72.6456 103.789 72.6456Z" fill="white"/>
<path d="M79.1626 35.8867C82.113 31.5798 86.6231 28.9433 91.9338 29.9387C93.931 30.379 95.8168 31.2242 97.4743 32.4223C99.1319 33.6203 100.526 35.1456 101.571 36.9039C103.755 40.4742 104.411 44.9592 106.102 48.7876C109.333 56.0999 114.815 65.0777 123.598 65.9632C125.351 65.7797 127.114 66.1985 128.597 67.1505C132.759 60.5803 134.346 52.6672 131.155 45.2644C128.645 39.443 123.736 35.219 119.217 30.975C116.81 28.779 114.561 26.4165 112.486 23.9051C110.281 21.1584 108.245 18.2395 105.617 15.867C97.6696 8.69104 82.8472 10.6729 76.7908 19.4369C75.3588 21.5093 72.1969 20.0455 72.5311 18.0481C72.0612 18.4645 71.6403 18.9329 71.2763 19.4444C72.2315 20.605 72.1264 22.6243 70.2547 23.0129C58.6859 25.4144 52.5958 36.3945 50.7391 47.2266C50.2499 50.0807 50.3768 53.0036 49.7698 55.8415C49.1264 58.3877 48.0346 60.799 46.5457 62.9623C45.2101 65.0902 44.0477 67.2556 44.9651 69.7984C45.4425 71.0129 46.1112 72.1431 46.9459 73.1461C47.2524 72.3854 47.6519 71.6655 48.1354 71.003C48.9261 69.8175 49.9963 68.8446 51.2516 68.1702C52.507 67.4958 53.909 67.1405 55.334 67.1357C58.8395 66.0401 61.2465 62.3198 62.9504 59.079C65.7664 53.7226 67.5889 47.8986 69.7253 42.2551C69.828 41.8634 70.0359 41.5071 70.3263 41.2248C70.6168 40.9426 70.9789 40.7451 71.3734 40.6536C71.768 40.5622 72.18 40.5802 72.5651 40.7059C72.9501 40.8316 73.2935 41.0601 73.5581 41.3667C75.6217 39.7513 77.5012 37.9136 79.1626 35.8867V35.8867ZM108.272 43.156C108.846 43.0139 109.454 43.0977 109.969 43.39C110.484 43.6824 110.867 44.161 111.039 44.7274C111.071 44.8127 111.104 44.8973 111.138 44.9817C111.224 45.1738 111.312 45.3652 111.406 45.5543C111.592 45.9322 111.792 46.303 112.003 46.668C112.476 47.4855 112.994 48.2762 113.555 49.0366C114.808 50.6982 116.242 52.2144 117.832 53.5569C119.372 54.8749 121.131 55.913 123.029 56.6241C124.905 57.3341 126.961 57.4207 128.89 56.8713C131.686 56.0785 132.868 60.4217 130.087 61.2106C124.627 62.7585 119.306 60.4992 115.076 57.0903C111.359 54.1611 108.472 50.3119 106.7 45.9236C106.546 45.3484 106.625 44.7357 106.919 44.2178C107.213 43.7 107.699 43.3186 108.272 43.156Z" fill="white"/>
<path d="M36.9901 170.198C36.8589 169.72 36.8892 169.212 37.0761 168.752C37.2631 168.293 37.5962 167.908 38.0241 167.657C40.3047 166.509 42.6518 165.472 45.014 164.466C42.7362 164.359 40.5111 163.744 38.5011 162.668C35.5055 160.748 36.534 157.39 37.5719 154.714C39.0378 150.933 40.703 147.222 42.4476 143.56C40.2855 144.303 38.1226 145.017 35.995 145.742C31.7715 147.058 27.684 148.777 23.7888 150.874C21.0587 152.438 18.0995 154.395 16.4052 156.967C13.1538 161.905 11.2118 167.802 9.32236 173.358C8.10246 176.946 6.95296 180.565 5.93376 184.216C5.86124 184.473 5.74472 184.715 5.58936 184.932H43.0119C42.8213 184.722 42.6697 184.479 42.5641 184.216C40.7061 179.543 38.8481 174.871 36.9901 170.198Z" fill="#7A8CCC"/>
<path d="M58.0621 159.92C57.167 152.603 56.4672 145.26 55.9043 137.909C52.7883 139.578 49.5539 141.015 46.2274 142.21C46.6043 142.542 46.8607 142.989 46.9565 143.482C47.0523 143.975 46.9822 144.485 46.7571 144.934C45.1526 148.269 43.6136 151.645 42.2381 155.081C41.7195 156.214 41.297 157.389 40.975 158.593C40.9683 158.63 40.9635 158.667 40.9607 158.705C41.0058 158.836 41.0763 158.955 40.9305 158.902C40.8853 158.885 41.6968 159.243 41.9459 159.324C45.6014 160.511 49.8443 160.589 53.6505 160.988C55.5777 161.19 57.07 164.189 54.7861 165.181C50.5452 167.022 46.1976 168.735 42.0143 170.725C43.6438 174.823 45.2734 178.921 46.9029 183.019C47.0496 183.328 47.1046 183.673 47.0612 184.012C47.0178 184.351 46.878 184.67 46.6583 184.932H62.5785C62.425 184.715 62.3104 184.472 62.2398 184.216C60.0854 176.298 59.056 168.049 58.0621 159.92Z" fill="#7A8CCC"/>
<path d="M153.373 152.107C148.515 148.787 143.343 145.951 137.931 143.643C139.661 147.277 141.313 150.962 142.768 154.714C143.805 157.389 144.828 160.752 141.838 162.668C139.828 163.744 137.603 164.359 135.326 164.466C137.688 165.472 140.035 166.509 142.316 167.657C142.822 167.966 143.189 168.46 143.339 169.034C143.49 169.608 143.412 170.218 143.123 170.736C141.072 175.408 139.021 180.08 136.971 184.753C136.941 184.82 136.903 184.871 136.87 184.932H169.35C167.87 178.343 165.742 171.917 162.995 165.748C160.753 160.809 157.977 155.256 153.373 152.107Z" fill="#7A8CCC"/>
<path d="M133.085 182.482C134.81 178.552 136.535 174.623 138.259 170.693C134.096 168.717 129.772 167.012 125.553 165.181C123.264 164.187 124.763 161.19 126.689 160.988C130.493 160.59 134.742 160.515 138.394 159.324C138.714 159.161 139.043 159.014 139.378 158.885C139.394 158.814 139.398 158.741 139.391 158.669C139.366 158.587 139.343 158.507 139.335 158.483C138.967 157.332 138.551 156.204 138.101 155.081C136.726 151.645 135.187 148.269 133.582 144.934C133.35 144.471 133.283 143.942 133.391 143.435C133.5 142.928 133.778 142.473 134.179 142.145L134.149 142.133C131.225 141.061 128.013 140.06 124.996 138.724C124.75 141.716 124.383 144.699 123.996 147.673C122.409 159.895 120.44 172.074 118.33 184.216C118.286 184.468 118.199 184.71 118.071 184.932H133.411C133.133 184.595 132.954 184.187 132.897 183.754C132.839 183.32 132.904 182.88 133.085 182.482V182.482Z" fill="#7A8CCC"/>
<path d="M113.991 183.019C114.246 181.55 114.497 180.08 114.743 178.61C116.998 165.212 119.6 151.644 120.544 138.067C113.43 140.977 105.875 142.664 98.1986 143.056C99.5723 152.824 100.47 162.65 101.909 172.409C102.053 172.984 101.971 173.592 101.678 174.108C101.385 174.623 100.906 175.006 100.338 175.177C99.7628 175.331 99.1499 175.252 98.632 174.958C98.1141 174.664 97.7327 174.178 97.5702 173.605C96.0797 163.504 95.1799 153.331 93.7213 143.227C92.8673 143.241 92.0129 143.26 91.16 143.251C90.0039 143.241 88.8467 143.206 87.6893 143.158C87.5331 144.404 87.377 145.65 87.2209 146.896C86.0986 155.851 84.9764 164.807 83.8541 173.763C83.8406 174.355 83.5992 174.92 83.1801 175.339C82.7611 175.758 82.1966 175.999 81.6041 176.013C81.0085 176.009 80.4383 175.771 80.0172 175.35C79.596 174.929 79.3578 174.358 79.3541 173.763L79.832 169.948C80.9545 160.993 82.0769 152.037 83.199 143.081C83.2072 143.015 83.2243 142.952 83.2363 142.887C75.6125 142.272 68.0765 140.842 60.7568 138.623C60.6529 138.588 60.5514 138.546 60.4531 138.497C60.9952 145.466 61.6559 152.427 62.4947 159.365C63.452 167.283 64.4814 175.309 66.5792 183.019C66.6806 183.344 66.6994 183.689 66.6338 184.023C66.5683 184.357 66.4206 184.67 66.2039 184.932H114.507C114.281 184.674 114.117 184.367 114.028 184.035C113.939 183.704 113.926 183.357 113.991 183.019V183.019Z" fill="white"/>
<path d="M80.8145 56.796C79.0222 56.4515 77.1902 56.3622 75.373 56.5308C73.8809 56.7073 72.4202 57.0888 71.0324 57.6646C70.4766 57.8404 70.0006 58.2064 69.6879 58.6984C69.5386 58.9535 69.441 59.2355 69.4008 59.5283C69.3606 59.8211 69.3785 60.119 69.4534 60.4049C69.5284 60.6908 69.6589 60.9592 69.8377 61.1946C70.0164 61.43 70.2397 61.6279 70.495 61.777C70.7524 61.9331 71.0394 62.0338 71.3379 62.0729C71.6364 62.112 71.9398 62.0885 72.2287 62.0039C72.7966 61.7634 73.3769 61.5531 73.9671 61.3738C74.2626 61.2859 74.561 61.2085 74.8625 61.1418C75.0251 61.1059 75.1884 61.0733 75.3524 61.044C75.3876 61.0378 75.4682 61.0254 75.5495 61.0129C75.6461 61.0023 75.7877 60.9858 75.839 60.9814C76.0199 60.9657 76.201 60.9536 76.3824 60.9452C76.7459 60.9287 77.1096 60.9259 77.4735 60.9369C77.8709 60.9481 78.2679 60.9741 78.6637 61.0118C78.838 61.0285 79.0171 61.0594 79.1929 61.07L79.2134 61.0722L79.2167 61.0726C79.2323 61.0733 79.2482 61.0775 79.2636 61.0777L79.2475 61.0774C79.3711 61.096 79.4946 61.1152 79.6181 61.1352C80.2042 61.2753 80.8215 61.1945 81.3519 60.9083C81.7341 60.6849 82.0419 60.3538 82.2369 59.9563C82.4318 59.5589 82.5052 59.1127 82.4479 58.6738C82.3905 58.2348 82.2049 57.8225 81.9144 57.4885C81.6239 57.1545 81.2412 56.9136 80.8145 56.796V56.796Z" fill="#323232"/>
<path d="M79.1931 61.07C79.0311 61.0512 78.7284 61.0675 79.2477 61.0774L79.2169 61.0726L79.1931 61.07Z" fill="#323232"/>
<path d="M103.789 68.1456C100.893 68.1456 100.888 72.6456 103.789 72.6456C106.684 72.6456 106.689 68.1456 103.789 68.1456Z" fill="#323232"/>
<path d="M90.9372 87.7982C88.0416 87.7982 88.0368 92.2982 90.9372 92.2982C93.8327 92.2982 93.8374 87.7982 90.9372 87.7982Z" fill="#323232"/>
<path d="M77.427 72.6456C80.3224 72.6456 80.3272 68.1456 77.427 68.1456C74.5313 68.1456 74.5266 72.6456 77.427 72.6456Z" fill="#323232"/>
<path d="M173.723 183.87C172.381 178.008 170.558 172.267 168.273 166.705C165.987 161.164 163.276 155.477 159.087 151.098C156.898 148.999 154.435 147.204 151.766 145.763C148.569 143.857 145.279 142.112 141.907 140.535C135.49 137.534 127.934 136.161 122.165 131.932C116.637 127.881 116.391 119.585 115.178 113.359C118.38 108.793 120.132 103.427 121.289 97.9229C122.438 98.3313 123.674 98.4336 124.875 98.2196C126.24 97.9273 127.473 97.2019 128.392 96.1514C129.311 95.1009 129.865 93.7817 129.973 92.3904C130.007 92.2345 130.023 92.0753 130.021 91.9158C130.011 91.2613 129.904 90.6121 129.701 89.9897C131.78 87.349 133.135 84.2123 133.634 80.8886C134.099 77.2661 134.099 73.3504 131.942 70.2379C136.472 63.5691 138.578 55.4606 136.621 47.5052C134.818 40.1771 129.763 34.6906 124.409 29.6723C121.729 27.2751 119.18 24.7351 116.774 22.0634C114.165 19.0281 111.978 15.6274 109.026 12.8951C106.588 10.7063 103.711 9.06456 100.586 8.08002C97.4617 7.09548 94.1626 6.79098 90.9107 7.18697C83.8049 7.92897 77.0302 11.1966 72.9052 17.1657C72.7167 17.4285 72.5889 17.7299 72.5311 18.0482C73.3686 17.2903 74.2781 16.6421 74.919 16.0012C74.2781 16.6421 73.3686 17.2903 72.5311 18.0482C72.1969 20.0456 75.3588 21.5094 76.7908 19.437C82.8472 10.673 97.6696 8.69107 105.617 15.8671C108.245 18.2396 110.281 21.1585 112.486 23.9052C114.561 26.4165 116.81 28.779 119.217 30.9751C123.736 35.2191 128.645 39.4431 131.155 45.2645C134.346 52.6673 132.759 60.5804 128.597 67.1506C127.114 66.1985 125.351 65.7798 123.598 65.9633C114.815 65.0778 109.333 56.1 106.102 48.7877C104.411 44.9593 103.755 40.4743 101.571 36.904C100.526 35.1457 99.1319 33.6203 97.4743 32.4223C95.8168 31.2243 93.931 30.379 91.9338 29.9388C86.6231 28.9434 82.113 31.5799 79.1626 35.8868C79.7544 35.2263 80.3381 34.5819 80.919 34.0012C80.3381 34.5819 79.7544 35.2263 79.1626 35.8868L79.1505 35.9036C77.5125 38.3008 81.4104 40.5542 83.0362 38.1748C85.2384 34.9517 88.7222 33.3148 92.5011 34.762C96.0087 36.1052 98.0609 39.1648 99.0911 42.6247C100.475 47.4501 102.429 52.0932 104.912 56.4558C103.46 56.4278 102.008 56.5418 100.577 56.796C100.011 56.9522 99.529 57.3232 99.2326 57.8298C99.0833 58.0849 98.9859 58.3669 98.9457 58.6597C98.9055 58.9525 98.9234 59.2504 98.9983 59.5363C99.0733 59.8222 99.2039 60.0905 99.3826 60.3259C99.5613 60.5613 99.7847 60.7592 100.04 60.9083C100.574 61.1827 101.187 61.263 101.774 61.1352C101.882 61.1176 101.99 61.1004 102.098 61.0839C102.176 61.0722 102.643 61.0012 102.272 61.0579C101.933 61.1098 102.287 61.0587 102.356 61.0508C102.455 61.0396 102.555 61.029 102.654 61.0191C103.052 60.9796 103.451 60.9517 103.851 60.9387C104.217 60.9268 104.582 60.9281 104.947 60.9426C105.13 60.9503 105.312 60.9615 105.493 60.9763C105.557 60.9814 105.757 61.0045 105.863 61.0155C105.913 61.0232 105.96 61.0303 105.984 61.0345C106.148 61.0631 106.312 61.0949 106.475 61.1299C106.777 61.1951 107.076 61.2713 107.373 61.3586C107.811 61.4871 108.235 61.6571 108.661 61.8228C109.528 62.8812 110.463 63.8831 111.458 64.8224C113.987 67.2325 117.071 68.9822 120.437 69.9166C120.527 70.213 120.689 70.4827 120.908 70.7022C121.127 70.9218 121.396 71.0845 121.692 71.1762C121.988 71.268 122.302 71.2859 122.606 71.2285C122.911 71.171 123.197 71.04 123.439 70.8468C123.65 70.6908 123.888 70.5754 124.14 70.5062C124.345 70.5083 124.549 70.4814 124.746 70.4264C126.568 70.4663 128.481 72.7602 129.006 74.2961C129.735 76.4275 129.454 79.1918 129.039 81.3601C128.686 83.1874 127.931 84.9134 126.83 86.4138C126.453 86.1799 126.056 85.9823 125.642 85.8237C124.42 85.4016 123.101 85.3526 121.851 85.6831C120.602 86.0135 119.479 86.7084 118.625 87.6793C117.866 88.5676 117.356 89.6423 117.149 90.7928C116.943 91.9433 117.046 93.1281 117.449 94.2255C116.374 100.454 114.776 106.783 110.779 111.782C108.569 114.492 105.842 116.736 102.758 118.384C99.6731 120.033 96.2923 121.052 92.8109 121.385C86.4913 121.896 80.1806 120.297 74.8673 116.838C69.5541 113.378 65.5385 108.254 63.4496 102.268C62.6095 99.6778 61.912 97.0438 61.36 94.3776C61.6275 93.745 61.7948 93.0745 61.8557 92.3904C61.8894 92.2345 61.9054 92.0753 61.9035 91.9158C61.8924 91.0358 61.7014 90.1674 61.3422 89.364C60.983 88.5606 60.4632 87.8392 59.8149 87.2442C59.7738 87.206 59.7333 87.1692 59.6888 87.134C59.0543 86.5674 58.3204 86.1232 57.5243 85.8237C56.3411 85.4047 55.0597 85.3485 53.8444 85.6622C52.8874 84.8965 52.1051 83.9352 51.5497 82.8426C50.9944 81.7501 50.679 80.5515 50.6245 79.3271C50.3359 77.5106 50.6451 75.6496 51.5054 74.024C52.0211 73.1398 52.7752 72.4186 53.6815 71.9428C54.3368 71.9118 54.9883 71.8264 55.6295 71.6876C55.7402 71.7018 55.8501 71.7218 55.9587 71.7476C56.4332 71.9081 56.9504 71.8871 57.4104 71.6886C57.8703 71.49 58.2404 71.128 58.449 70.6726C61.8509 68.9494 64.408 65.7161 66.3243 62.2941C69.6431 56.3671 71.6692 49.7786 74.0646 43.4514C74.1788 43.0908 74.1919 42.7058 74.1026 42.3383C74.0133 41.9708 73.825 41.6347 73.5581 41.3668C72.5985 42.0641 71.5405 42.6149 70.419 43.0012C71.5405 42.6149 72.5985 42.0641 73.5581 41.3668C73.2935 41.0601 72.9501 40.8316 72.5651 40.706C72.18 40.5803 71.768 40.5622 71.3734 40.6536C70.9789 40.7451 70.6168 40.9426 70.3263 41.2249C70.0358 41.5071 69.828 41.8634 69.7253 42.2552C67.5889 47.8987 65.7664 53.7227 62.9504 59.0791C61.2465 62.3199 58.8395 66.0402 55.334 67.1358C53.9089 67.1406 52.507 67.4958 51.2516 68.1702C49.9963 68.8446 48.9261 69.8175 48.1354 71.0031C47.6519 71.6656 47.2524 72.3854 46.9459 73.1462C46.1112 72.1431 45.4425 71.0129 44.9651 69.7985C44.0477 67.2557 45.2101 65.0903 46.5457 62.9624C48.0346 60.799 49.1264 58.3878 49.7698 55.8416C50.3768 53.0037 50.2499 50.0808 50.7391 47.2267C52.5958 36.3946 58.6859 25.4145 70.2547 23.013C72.1264 22.6244 72.2315 20.6051 71.2763 19.4445C70.7283 20.1851 70.4282 21.0799 70.419 22.0012C70.4282 21.0799 70.7283 20.1851 71.2763 19.4445C71.0177 19.1189 70.6719 18.8736 70.2793 18.7371C69.8866 18.6007 69.4632 18.5786 69.0585 18.6737C56.0426 21.3757 48.5084 33.7291 46.3999 46.0305C45.8464 49.2601 46.059 52.6505 45.1416 55.8056C44.2898 58.7354 42.1643 60.9935 40.991 63.7743C38.4088 69.8933 42.3705 74.5636 46.0498 79.0671C46.0736 79.0962 46.1 79.1143 46.1242 79.1416C46.1564 79.617 46.2018 80.0921 46.2672 80.5645C46.6112 83.5157 47.9195 86.2709 49.9891 88.4027C49.3256 89.4057 48.9567 90.5746 48.9244 91.7768C48.8921 92.9789 49.1976 94.1661 49.8062 95.2033C50.5186 96.3554 51.5664 97.2619 52.8091 97.8011C54.0517 98.3403 55.4295 98.4863 56.7576 98.2196C57.0447 98.1624 57.327 98.083 57.6019 97.9823C57.9421 99.3457 58.2992 100.704 58.6768 102.048C60.0452 106.852 62.5006 111.277 65.853 114.98C65.8004 115.1 65.7637 115.226 65.7439 115.355C64.8075 122.157 62.6503 128.331 56.686 132.214C49.6185 136.815 41.2766 139.146 33.3881 141.888C26.2512 144.369 17.7512 147.526 13.1007 153.859C9.64408 158.567 7.65848 164.549 5.73178 170.001C4.21568 174.292 2.81808 178.636 1.59438 183.019C1.49058 183.343 1.46985 183.689 1.53408 184.023C1.5983 184.357 1.74544 184.67 1.96198 184.932H5.58918C5.74454 184.715 5.86107 184.473 5.93358 184.216C6.95278 180.565 8.10228 176.946 9.32218 173.358C11.2116 167.802 13.1536 161.905 16.405 156.967C18.0993 154.395 21.0585 152.438 23.7886 150.874C27.6838 148.777 31.7713 147.058 35.9948 145.742C38.1224 145.017 40.2853 144.303 42.4474 143.56C40.7028 147.221 39.0376 150.933 37.5717 154.713C36.5338 157.39 35.5053 160.748 38.5009 162.668C40.511 163.744 42.736 164.359 45.0138 164.466C42.6516 165.472 40.3045 166.509 38.0239 167.657C37.5961 167.908 37.2629 168.293 37.0759 168.752C36.889 169.212 36.8588 169.72 36.9899 170.198C38.8479 174.871 40.7059 179.543 42.5639 184.216C42.6696 184.479 42.8212 184.722 43.0117 184.932H46.6585C46.8782 184.67 47.018 184.351 47.0614 184.012C47.1047 183.673 47.0498 183.328 46.9031 183.019C45.2734 178.921 43.6438 174.823 42.0145 170.725C46.1978 168.735 50.5454 167.022 54.7863 165.181C57.0702 164.189 55.5779 161.19 53.6507 160.988C49.8445 160.589 45.6016 160.511 41.9461 159.324C41.697 159.243 40.8855 158.885 40.9307 158.902C41.0765 158.955 41.006 158.836 40.9609 158.705C40.9637 158.668 40.9684 158.63 40.9752 158.593C41.2971 157.389 41.7196 156.214 42.2383 155.081C43.6138 151.645 45.1528 148.269 46.7573 144.934C46.9824 144.485 47.0525 143.975 46.9567 143.482C46.8608 142.989 46.6045 142.542 46.2276 142.21C49.5541 141.015 52.7884 139.578 55.9045 137.909C56.4674 145.26 57.1672 152.603 58.0623 159.92C59.0562 168.049 60.0856 176.298 62.24 184.216C62.3105 184.472 62.4251 184.715 62.5787 184.932H66.2039C66.4205 184.67 66.5683 184.357 66.6338 184.023C66.6993 183.689 66.6805 183.344 66.5792 183.019C64.4814 175.309 63.452 167.283 62.4947 159.365C61.6559 152.427 60.9952 145.465 60.4531 138.496C60.5514 138.545 60.6528 138.588 60.7568 138.623C68.0764 140.842 75.6125 142.272 83.2363 142.887C83.2243 142.952 83.2072 143.015 83.199 143.081C82.0765 152.037 80.9541 160.992 79.832 169.948L79.3541 173.763C79.3577 174.358 79.5959 174.928 80.0171 175.35C80.4383 175.771 81.0085 176.009 81.6041 176.013C82.1966 175.999 82.761 175.758 83.1801 175.339C83.5991 174.92 83.8405 174.355 83.8541 173.763C84.9762 164.807 86.0984 155.851 87.2209 146.896C87.3771 145.65 87.5332 144.404 87.6893 143.158C88.8467 143.206 90.0039 143.241 91.16 143.251C92.0129 143.259 92.8673 143.241 93.7213 143.227C95.1799 153.331 96.0797 163.504 97.5702 173.605C97.7327 174.178 98.1141 174.664 98.632 174.958C99.1499 175.252 99.7627 175.331 100.338 175.177C100.905 175.006 101.385 174.623 101.678 174.107C101.971 173.592 102.053 172.984 101.909 172.409C100.469 162.65 99.5723 152.824 98.1986 143.056C105.875 142.664 113.43 140.977 120.544 138.067C119.6 151.644 116.998 165.212 114.743 178.61C114.495 180.08 114.244 181.55 113.991 183.019C113.926 183.356 113.939 183.704 114.028 184.035C114.117 184.367 114.281 184.674 114.507 184.932H118.071C118.198 184.71 118.286 184.468 118.33 184.216C120.44 172.074 122.409 159.895 123.996 147.673C124.382 144.699 124.75 141.715 124.996 138.724C128.013 140.06 131.225 141.061 134.148 142.133L134.179 142.145C133.777 142.473 133.5 142.928 133.391 143.435C133.283 143.942 133.35 144.471 133.582 144.934C135.187 148.269 136.726 151.645 138.101 155.081C138.551 156.204 138.967 157.332 139.335 158.483C139.342 158.507 139.366 158.587 139.391 158.668C139.398 158.741 139.394 158.814 139.378 158.885C139.043 159.014 138.714 159.161 138.394 159.324C134.742 160.515 130.493 160.59 126.689 160.988C124.763 161.189 123.264 164.187 125.553 165.181C129.772 167.012 134.096 168.717 138.259 170.693C136.534 174.623 134.81 178.552 133.085 182.482C132.904 182.88 132.839 183.32 132.896 183.754C132.954 184.187 133.132 184.595 133.411 184.932H136.87C136.903 184.871 136.941 184.82 136.971 184.753C139.021 180.08 141.072 175.408 143.123 170.736C143.412 170.218 143.49 169.608 143.34 169.034C143.189 168.46 142.822 167.966 142.316 167.657C140.035 166.509 137.688 165.472 135.326 164.466C137.603 164.359 139.828 163.744 141.838 162.668C144.829 160.751 143.805 157.389 142.768 154.713C141.313 150.962 139.661 147.277 137.931 143.643C143.343 145.951 148.515 148.787 153.373 152.107C157.978 155.256 160.753 160.809 162.996 165.748C165.742 171.917 167.871 178.343 169.35 184.932H173.724C173.807 184.583 173.807 184.219 173.723 183.87V183.87ZM121.526 91.6596C121.539 91.5088 121.597 91.3407 121.571 91.4868C121.602 91.3731 121.635 91.2603 121.672 91.1484C121.718 91.0653 121.76 90.9807 121.809 90.8994C121.839 90.851 121.871 90.8027 121.904 90.7547C122.007 90.6412 122.108 90.5269 122.223 90.4226C122.235 90.4119 122.259 90.3914 122.282 90.3718L122.289 90.3673C122.378 90.3079 122.503 90.221 122.628 90.1479L122.645 90.1428C122.754 90.1095 122.859 90.0697 122.969 90.0395C123.025 90.0238 123.19 89.9926 123.297 89.9708C123.391 89.9663 123.485 89.9643 123.578 89.9655C123.648 89.9665 123.716 89.9712 123.785 89.9751C123.967 90.0196 124.145 90.0688 124.323 90.1236C124.403 90.1648 124.484 90.2043 124.561 90.2497C124.625 90.2873 124.688 90.3266 124.749 90.3673L124.755 90.3709C124.868 90.479 124.982 90.5853 125.088 90.7005C125.073 90.6709 125.065 90.661 125.047 90.6236C125.067 90.6594 125.09 90.6938 125.115 90.7265L125.124 90.7357C125.166 90.7806 125.2 90.833 125.223 90.8902L125.229 90.8994C125.277 90.9792 125.319 91.062 125.363 91.1435C125.414 91.3026 125.458 91.4611 125.499 91.623C125.497 91.5686 125.494 91.5307 125.495 91.4503C125.494 91.5153 125.501 91.5816 125.506 91.6479C125.511 91.6684 125.518 91.6882 125.523 91.7091C125.53 91.7391 125.534 91.7698 125.534 91.8006C125.533 91.816 125.529 91.8307 125.529 91.8464C125.525 91.8541 125.522 91.846 125.516 91.8277C125.518 91.857 125.52 91.8867 125.521 91.9158C125.519 92.033 125.51 92.1493 125.506 92.2661L125.506 92.288C125.474 92.3906 125.433 92.4933 125.412 92.5601C125.405 92.5839 125.396 92.6143 125.389 92.6422C125.334 92.7367 125.275 92.8348 125.214 92.9317C125.271 92.87 125.259 92.9502 125.16 93.0543C125.14 93.0754 125.12 93.0966 125.101 93.1182C125.084 93.1483 125.062 93.1778 125.047 93.208C125.065 93.1701 125.075 93.1589 125.091 93.1289C125.052 93.1719 125.014 93.2153 124.973 93.2565C124.925 93.3059 124.874 93.3541 124.823 93.4013C124.861 93.3786 124.876 93.3675 124.93 93.3372C124.882 93.3643 124.837 93.3966 124.791 93.4273C124.74 93.4719 124.683 93.5085 124.622 93.5359C124.57 93.5709 124.52 93.6068 124.465 93.637C124.417 93.6635 124.368 93.6877 124.32 93.7126C124.164 93.7588 124.01 93.8056 123.851 93.8422C123.898 93.8419 123.925 93.8393 123.99 93.8413C123.928 93.8416 123.867 93.8461 123.805 93.8547L123.792 93.8587C123.678 93.882 123.589 93.8726 123.6 93.8602C123.472 93.8613 123.344 93.8569 123.216 93.8499C123.133 93.8318 123.05 93.8146 122.969 93.7921C122.901 93.7734 122.835 93.7503 122.769 93.7284C122.805 93.7492 122.826 93.7584 122.871 93.7877C122.833 93.7628 122.79 93.7434 122.749 93.7218C122.715 93.7102 122.68 93.6996 122.645 93.6886C122.534 93.6533 122.497 93.6038 122.573 93.6269C122.508 93.5959 122.444 93.5616 122.382 93.5242C122.346 93.5019 122.311 93.4779 122.277 93.4531C122.135 93.3178 122.001 93.182 121.868 93.0384C121.846 92.9985 121.824 92.9555 121.809 92.932C121.688 92.7308 121.542 92.185 121.739 92.8758C121.688 92.6966 121.611 92.5257 121.564 92.3437C121.551 92.289 121.539 92.2338 121.527 92.1789C121.517 92.0195 121.516 91.8597 121.524 91.7003C121.514 91.7387 121.507 91.7724 121.494 91.8211C121.508 91.7688 121.516 91.7138 121.526 91.6596ZM57.4113 91.8462C57.4073 91.8541 57.4042 91.846 57.3987 91.8277C57.4005 91.857 57.4031 91.8867 57.4035 91.9158C57.402 92.033 57.3928 92.1493 57.389 92.2661L57.3884 92.288C57.3568 92.3906 57.3159 92.4933 57.2949 92.5601C57.2874 92.5839 57.2789 92.6143 57.2712 92.6422C57.2165 92.7367 57.1581 92.8348 57.0962 92.9317C57.1533 92.87 57.1416 92.9502 57.0424 93.0543C57.0224 93.0754 57.0028 93.0966 56.9834 93.1182C56.9666 93.1483 56.9442 93.1778 56.9292 93.208C56.9479 93.1701 56.9574 93.1589 56.9737 93.1289C56.9351 93.1719 56.8966 93.2153 56.856 93.2565C56.8073 93.3059 56.7567 93.3541 56.7055 93.4013C56.7439 93.3786 56.7591 93.3675 56.8128 93.3372C56.7648 93.3643 56.7194 93.3966 56.6732 93.4271C56.6228 93.4718 56.5659 93.5086 56.5044 93.5361C56.4526 93.5709 56.402 93.6068 56.3477 93.637C56.2999 93.6635 56.2512 93.6877 56.2026 93.7126C56.0465 93.7588 55.8925 93.8056 55.7337 93.8422C55.781 93.8419 55.8075 93.8393 55.8727 93.8413C55.8109 93.8416 55.7492 93.8461 55.6881 93.8547L55.6742 93.8587C55.561 93.882 55.4717 93.8726 55.4823 93.8602C55.3541 93.8613 55.2263 93.8569 55.0982 93.8499C55.0158 93.8318 54.933 93.8146 54.8511 93.7921C54.7836 93.7734 54.7177 93.7503 54.6517 93.7284C54.6873 93.7492 54.7085 93.7584 54.7539 93.7877C54.7155 93.7628 54.6722 93.7434 54.6312 93.7218C54.597 93.7102 54.5624 93.6996 54.528 93.6886C54.4166 93.6533 54.38 93.6038 54.4553 93.6269C54.3903 93.5945 54.3254 93.5625 54.2645 93.5242C54.2288 93.5019 54.1938 93.4779 54.1592 93.4533C54.0182 93.3178 53.8832 93.182 53.7501 93.0384C53.7285 92.9985 53.7062 92.9555 53.6919 92.932C53.5703 92.7308 53.4242 92.185 53.6212 92.8758C53.5701 92.6966 53.4932 92.5257 53.4469 92.3437C53.433 92.2891 53.4218 92.2342 53.4099 92.1793C53.3997 92.0197 53.3985 91.8596 53.4063 91.6999C53.3971 91.7385 53.389 91.7724 53.3768 91.8211C53.3901 91.7684 53.3986 91.7136 53.4085 91.6593C53.4216 91.5082 53.4799 91.3399 53.4535 91.4875C53.4841 91.3734 53.5178 91.2603 53.5546 91.1484C53.6002 91.0653 53.6426 90.9807 53.6919 90.8994C53.7212 90.851 53.7538 90.8027 53.7864 90.7547C53.8898 90.6412 53.9911 90.5269 54.1057 90.4226C54.1173 90.4119 54.1414 90.3914 54.165 90.3718L54.1715 90.3673C54.261 90.3079 54.3853 90.2212 54.5108 90.1479L54.528 90.1428C54.636 90.1095 54.7416 90.0697 54.8511 90.0395C54.9077 90.0238 55.0729 89.9926 55.1795 89.9708C55.2734 89.9663 55.3673 89.9643 55.4611 89.9655C55.5303 89.9666 55.5989 89.9712 55.6676 89.9751C55.8494 90.0196 56.0272 90.0688 56.2056 90.1236C56.2854 90.1648 56.3667 90.2043 56.444 90.2497C56.5075 90.2873 56.5703 90.3266 56.6318 90.3673L56.6373 90.3709C56.7505 90.479 56.8644 90.5853 56.971 90.7005C56.9554 90.6709 56.9475 90.661 56.9292 90.6236C56.9494 90.6594 56.9721 90.6938 56.9971 90.7265L57.0065 90.7357C57.0487 90.7806 57.0822 90.833 57.1054 90.8902L57.1112 90.8994C57.1596 90.9792 57.2013 91.062 57.246 91.1433C57.2962 91.3026 57.3405 91.4613 57.3817 91.6232C57.38 91.5688 57.3764 91.5307 57.3778 91.4503C57.3767 91.5153 57.3835 91.582 57.3888 91.6483C57.3939 91.6688 57.4009 91.6882 57.406 91.7091C57.413 91.7392 57.4164 91.77 57.4163 91.801C57.4154 91.8164 57.4121 91.8307 57.4113 91.8462ZM90.5523 138.744C80.8575 138.603 71.2305 137.101 61.9531 134.284C61.8053 134.24 61.6537 134.209 61.5003 134.194C66.1621 130.176 68.5903 124.769 69.7338 118.669C70.1736 119.026 70.6052 119.391 71.0639 119.727C83.1506 128.571 100.381 127.91 111.406 117.661C112.266 122.664 113.097 127.851 116.032 132.024C116.612 132.841 117.27 133.599 117.998 134.287C109.388 137.862 99.798 138.885 90.5523 138.744Z" fill="#323232"/>
<path d="M115.076 57.0904C119.306 60.4993 124.627 62.7586 130.087 61.2107C132.868 60.4218 131.686 56.0786 128.89 56.8714C126.961 57.4208 124.905 57.3341 123.029 56.6242C121.131 55.9131 119.372 54.875 117.832 53.557C116.242 52.2144 114.808 50.6982 113.555 49.0367C112.994 48.2763 112.476 47.4856 112.003 46.6681C111.792 46.3031 111.592 45.9323 111.406 45.5544C111.312 45.3653 111.224 45.1739 111.138 44.9818C111.104 44.8974 111.071 44.8128 111.039 44.7275C110.867 44.1611 110.484 43.6824 109.969 43.3901C109.454 43.0977 108.846 43.014 108.272 43.1561C107.699 43.3187 107.213 43.7001 106.919 44.2179C106.625 44.7357 106.546 45.3485 106.7 45.9237C108.472 50.3119 111.359 54.1612 115.076 57.0904V57.0904Z" fill="#323232"/>
<path d="M125.046 93.208C125.061 93.1778 125.084 93.1483 125.101 93.1182L125.091 93.1289C125.075 93.1589 125.065 93.1701 125.046 93.208Z" fill="white"/>
<path d="M125.495 91.4503C125.494 91.5307 125.497 91.5686 125.499 91.623L125.506 91.6479C125.501 91.5816 125.494 91.5153 125.495 91.4503Z" fill="white"/>
<path d="M125.124 90.7356L125.115 90.7264C125.153 90.7815 125.19 90.837 125.223 90.8901C125.2 90.833 125.166 90.7806 125.124 90.7356V90.7356Z" fill="white"/>
<path d="M125.16 93.0543C125.259 92.9502 125.271 92.87 125.213 92.9317C125.174 92.9941 125.136 93.0554 125.101 93.1182C125.12 93.0966 125.14 93.0754 125.16 93.0543Z" fill="white"/>
<path d="M125.529 91.8463C125.53 91.8306 125.533 91.8159 125.534 91.8005C125.534 91.7697 125.531 91.739 125.524 91.709C125.518 91.6881 125.512 91.6683 125.506 91.6478C125.511 91.7079 125.513 91.7676 125.516 91.8276C125.522 91.8459 125.525 91.854 125.529 91.8463Z" fill="white"/>
<path d="M121.809 92.9319C121.823 92.9554 121.846 92.9984 121.867 93.0383C122.001 93.1819 122.135 93.3177 122.276 93.453C122.311 93.4778 122.346 93.5018 122.382 93.5241C122.444 93.5616 122.507 93.5959 122.573 93.6268C122.641 93.6546 122.707 93.6886 122.769 93.7283C122.835 93.7502 122.901 93.7733 122.968 93.792C123.05 93.8145 123.133 93.8317 123.215 93.8498C123.344 93.8568 123.471 93.8612 123.6 93.8601C123.682 93.8429 123.767 93.8368 123.851 93.8421C124.01 93.8055 124.164 93.7587 124.32 93.7125C124.368 93.6876 124.417 93.6634 124.465 93.6369C124.52 93.6067 124.57 93.5708 124.622 93.5358C124.603 93.5395 124.667 93.4933 124.823 93.4012C124.874 93.354 124.925 93.3058 124.973 93.2564C125.014 93.2152 125.052 93.1718 125.091 93.1288C125.125 93.0591 125.166 92.9931 125.213 92.9316C125.275 92.8347 125.334 92.7366 125.389 92.6421C125.396 92.6142 125.405 92.5838 125.412 92.56C125.433 92.4932 125.474 92.3905 125.506 92.2879L125.506 92.266C125.51 92.1492 125.519 92.0329 125.521 91.9157C125.52 91.8866 125.518 91.8569 125.516 91.8276C125.504 91.76 125.499 91.6915 125.499 91.6229C125.458 91.461 125.413 91.3025 125.363 91.1434C125.319 91.0619 125.277 90.9791 125.228 90.8993L125.223 90.8901C125.245 90.9509 125.202 90.9209 125.088 90.7004C124.982 90.5852 124.868 90.4789 124.755 90.3708L124.749 90.3672C124.688 90.3265 124.625 90.2872 124.561 90.2496C124.484 90.2042 124.403 90.1647 124.323 90.1235C124.145 90.0687 123.967 90.0195 123.785 89.975C123.716 89.9711 123.648 89.9664 123.578 89.9654C123.485 89.9642 123.391 89.9662 123.297 89.9707C123.19 89.9925 123.025 90.0237 122.968 90.0394C122.859 90.0696 122.753 90.1094 122.645 90.1427L122.628 90.1478C122.503 90.2209 122.378 90.3078 122.289 90.3672L122.282 90.3717C122.259 90.3913 122.235 90.4118 122.223 90.4225C122.108 90.5268 122.007 90.6411 121.904 90.7546C121.871 90.8026 121.838 90.8509 121.809 90.8993C121.76 90.9806 121.718 91.0652 121.672 91.1483C121.635 91.2602 121.601 91.373 121.571 91.4867C121.564 91.5281 121.548 91.6002 121.524 91.7002C121.516 91.8597 121.517 92.0195 121.527 92.1788C121.539 92.2337 121.55 92.2889 121.564 92.3436C121.611 92.5256 121.687 92.6965 121.739 92.8757C121.541 92.1849 121.688 92.7307 121.809 92.9319Z" fill="#F2E98C"/>
<path d="M122.872 93.7877C122.826 93.7584 122.805 93.7492 122.769 93.7284L122.749 93.7218C122.79 93.7434 122.833 93.7628 122.872 93.7877Z" fill="white"/>
<path d="M123.599 93.8601C123.589 93.8725 123.678 93.8819 123.791 93.8586L123.805 93.8546C123.769 93.8586 123.732 93.8612 123.697 93.8627C123.664 93.8641 123.632 93.8597 123.599 93.8601Z" fill="white"/>
<path d="M123.99 93.8413C123.925 93.8393 123.899 93.8419 123.851 93.8422C123.836 93.8459 123.821 93.8514 123.806 93.8547C123.867 93.8461 123.929 93.8417 123.99 93.8413V93.8413Z" fill="white"/>
<path d="M122.645 93.6886C122.68 93.6996 122.715 93.7102 122.749 93.7218C122.69 93.6906 122.633 93.6569 122.573 93.6269C122.497 93.6038 122.534 93.6533 122.645 93.6886Z" fill="white"/>
<path d="M124.791 93.4272C124.735 93.4642 124.678 93.4983 124.622 93.5358C124.684 93.5085 124.74 93.4719 124.791 93.4272V93.4272Z" fill="white"/>
<path d="M121.571 91.4868C121.597 91.3407 121.539 91.5088 121.526 91.6596C121.53 91.6389 121.534 91.6182 121.538 91.5979C121.547 91.56 121.561 91.5241 121.571 91.4868Z" fill="white"/>
<path d="M121.526 91.6595C121.516 91.7137 121.507 91.7687 121.494 91.821C121.506 91.7723 121.514 91.7386 121.523 91.7002C121.524 91.694 121.523 91.6877 121.523 91.6813L121.526 91.6595Z" fill="white"/>
<path d="M124.791 93.4273C124.836 93.3966 124.882 93.3643 124.93 93.3372C124.876 93.3675 124.861 93.3786 124.823 93.4013L124.815 93.409C124.807 93.4163 124.799 93.4204 124.791 93.4273Z" fill="white"/>
<path d="M125.046 90.6235C125.065 90.6609 125.073 90.6708 125.088 90.7004C125.097 90.7096 125.106 90.7171 125.114 90.7264C125.089 90.6938 125.067 90.6594 125.046 90.6235V90.6235Z" fill="white"/>
<path d="M121.538 91.5979C121.533 91.6182 121.53 91.6389 121.526 91.6596L121.524 91.6814C121.523 91.6878 121.524 91.6941 121.524 91.7003C121.548 91.6003 121.564 91.5282 121.571 91.4868C121.561 91.5241 121.546 91.56 121.538 91.5979Z" fill="#F2E98C"/>
<path d="M125.223 90.8901C125.19 90.837 125.153 90.7815 125.115 90.7264C125.106 90.7171 125.097 90.7096 125.088 90.7004C125.203 90.9209 125.245 90.9509 125.223 90.8901Z" fill="#323232"/>
<path d="M124.622 93.5358C124.678 93.4983 124.735 93.4642 124.791 93.4272C124.799 93.4203 124.807 93.4162 124.815 93.4089L124.823 93.4012C124.667 93.4933 124.603 93.5395 124.622 93.5358Z" fill="#323232"/>
<path d="M122.749 93.7217L122.769 93.7283C122.707 93.6886 122.641 93.6546 122.573 93.6268C122.633 93.6568 122.69 93.6905 122.749 93.7217Z" fill="#323232"/>
<path d="M125.506 91.6478L125.499 91.6229C125.499 91.6915 125.504 91.76 125.516 91.8276C125.512 91.7676 125.511 91.7079 125.506 91.6478Z" fill="#323232"/>
<path d="M125.101 93.1181C125.136 93.0553 125.174 92.994 125.214 92.9316C125.166 92.9931 125.125 93.0591 125.091 93.1288L125.101 93.1181Z" fill="#323232"/>
<path d="M123.697 93.8628C123.733 93.8613 123.769 93.8587 123.805 93.8547C123.821 93.8514 123.836 93.8459 123.851 93.8422C123.767 93.8369 123.682 93.8429 123.6 93.8602C123.632 93.8598 123.665 93.8642 123.697 93.8628Z" fill="#323232"/>
<path d="M55.4823 93.8601C55.4717 93.8725 55.561 93.8819 55.6742 93.8586L55.6881 93.8546C55.6515 93.8586 55.6152 93.8612 55.5797 93.8627C55.5471 93.8641 55.5149 93.8597 55.4823 93.8601Z" fill="white"/>
<path d="M54.754 93.7877C54.7086 93.7584 54.6874 93.7492 54.6518 93.7284L54.6313 93.7218C54.6723 93.7434 54.7156 93.7628 54.754 93.7877Z" fill="white"/>
<path d="M53.4087 91.6593C53.3988 91.7136 53.3903 91.7684 53.377 91.8211C53.3892 91.7724 53.3973 91.7385 53.4065 91.6999C53.4068 91.6937 53.4061 91.6876 53.4065 91.6814L53.4087 91.6593Z" fill="white"/>
<path d="M54.5278 93.6886C54.5622 93.6996 54.5968 93.7102 54.631 93.7218C54.5724 93.6905 54.5151 93.6568 54.4551 93.6269C54.3798 93.6038 54.4164 93.6533 54.5278 93.6886Z" fill="white"/>
<path d="M55.8726 93.8413C55.8074 93.8393 55.7809 93.8419 55.7336 93.8422C55.7182 93.8459 55.7034 93.8514 55.688 93.8547C55.7492 93.8461 55.8108 93.8417 55.8726 93.8413V93.8413Z" fill="white"/>
<path d="M53.4537 91.4875C53.4801 91.3399 53.4218 91.5081 53.4087 91.6592C53.4125 91.6387 53.4163 91.6181 53.4207 91.5978C53.4293 91.5601 53.4438 91.5245 53.4537 91.4875Z" fill="white"/>
<path d="M56.5044 93.5361C56.5659 93.5087 56.6228 93.4719 56.6732 93.4271C56.6176 93.4643 56.5601 93.4984 56.5044 93.5361Z" fill="white"/>
<path d="M56.6733 93.4271C56.7195 93.3966 56.7649 93.3643 56.8129 93.3372C56.7592 93.3675 56.744 93.3786 56.7056 93.4013L56.6977 93.409C56.6898 93.4163 56.6817 93.4204 56.6733 93.4271Z" fill="white"/>
<path d="M56.9292 93.208C56.9442 93.1778 56.9666 93.1483 56.9834 93.1182L56.9737 93.1289C56.9574 93.1589 56.9479 93.1701 56.9292 93.208Z" fill="white"/>
<path d="M57.2713 92.6421C57.279 92.6142 57.2875 92.5838 57.295 92.56C57.316 92.4932 57.3569 92.3905 57.3885 92.2879L57.3891 92.266C57.3929 92.1492 57.4021 92.0329 57.4036 91.9157C57.4032 91.8866 57.4006 91.8569 57.3988 91.8276C57.387 91.7601 57.3813 91.6917 57.3818 91.6231C57.3406 91.4612 57.2963 91.3025 57.2461 91.1432C57.2014 91.0619 57.1597 90.9791 57.1113 90.8993L57.1055 90.8901C57.1274 90.9509 57.0853 90.9209 56.9711 90.7004C56.8645 90.5852 56.7506 90.4789 56.6374 90.3708L56.6319 90.3672C56.5704 90.3265 56.5076 90.2872 56.4441 90.2496C56.3668 90.2042 56.2855 90.1647 56.2057 90.1235C56.0273 90.0687 55.8495 90.0195 55.6677 89.975C55.599 89.9711 55.5304 89.9665 55.4612 89.9654C55.3674 89.9642 55.2735 89.9662 55.1796 89.9707C55.073 89.9925 54.9078 90.0237 54.8512 90.0394C54.7417 90.0696 54.6361 90.1094 54.5281 90.1427L54.5109 90.1478C54.3854 90.2211 54.2611 90.3078 54.1716 90.3672L54.1651 90.3717C54.1415 90.3913 54.1174 90.4118 54.1058 90.4225C53.9912 90.5268 53.8899 90.6411 53.7865 90.7546C53.7539 90.8026 53.7213 90.8509 53.692 90.8993C53.6427 90.9806 53.6003 91.0652 53.5547 91.1483C53.5177 91.2604 53.484 91.3735 53.4536 91.4874C53.4463 91.5288 53.4305 91.6006 53.4064 91.6998C53.3986 91.8596 53.3998 92.0196 53.41 92.1792C53.4219 92.2341 53.4331 92.289 53.447 92.3436C53.4933 92.5256 53.5702 92.6965 53.6213 92.8757C53.4243 92.1849 53.5704 92.7307 53.692 92.9319C53.7063 92.9554 53.7286 92.9984 53.7502 93.0383C53.8833 93.1819 54.0183 93.3177 54.1593 93.4532C54.1939 93.4778 54.2289 93.5018 54.2646 93.5241C54.3255 93.5624 54.3904 93.5944 54.4554 93.6268C54.5239 93.6545 54.5897 93.6885 54.6518 93.7283C54.7178 93.7502 54.7837 93.7733 54.8512 93.792C54.9331 93.8145 55.0159 93.8317 55.0983 93.8498C55.2264 93.8568 55.3542 93.8612 55.4824 93.8601C55.565 93.8429 55.6496 93.8368 55.7338 93.8421C55.8926 93.8055 56.0466 93.7587 56.2027 93.7125C56.2513 93.6876 56.3 93.6634 56.3478 93.6369C56.4021 93.6067 56.4527 93.5708 56.5045 93.536C56.4858 93.5395 56.5506 93.4931 56.7056 93.4012C56.7568 93.354 56.8074 93.3058 56.8561 93.2564C56.8967 93.2152 56.9352 93.1718 56.9738 93.1288C57.0079 93.0591 57.0489 92.993 57.0963 92.9316C57.1582 92.8347 57.2166 92.7366 57.2713 92.6421Z" fill="#F2E98C"/>
<path d="M57.0962 92.9317C57.0566 92.9941 57.0186 93.0554 56.9834 93.1182C57.0028 93.0966 57.0224 93.0754 57.0424 93.0543C57.1416 92.9502 57.1533 92.87 57.0962 92.9317Z" fill="white"/>
<path d="M57.0065 90.7356L56.9971 90.7264C57.0354 90.7815 57.0722 90.837 57.1054 90.8901C57.0822 90.833 57.0487 90.7806 57.0065 90.7356V90.7356Z" fill="white"/>
<path d="M57.3778 91.4503C57.3764 91.5307 57.38 91.5688 57.3817 91.6232L57.3888 91.6483C57.3835 91.582 57.3767 91.5153 57.3778 91.4503Z" fill="white"/>
<path d="M56.9292 90.6235C56.9475 90.6609 56.9554 90.6708 56.971 90.7004C56.9794 90.7096 56.9889 90.7171 56.9971 90.7264C56.9721 90.6938 56.9494 90.6594 56.9292 90.6235V90.6235Z" fill="white"/>
<path d="M57.4112 91.8462C57.412 91.8307 57.4153 91.8164 57.4162 91.801C57.4163 91.7701 57.4129 91.7392 57.4059 91.7091C57.4008 91.6882 57.3938 91.6688 57.3887 91.6483C57.3935 91.7083 57.3949 91.7677 57.3986 91.8277C57.4041 91.846 57.4072 91.8541 57.4112 91.8462Z" fill="white"/>
<path d="M56.5046 93.536C56.5603 93.4983 56.6178 93.4642 56.6734 93.427C56.6818 93.4203 56.6899 93.4162 56.6978 93.4089L56.7057 93.4012C56.5507 93.4931 56.4859 93.5395 56.5046 93.536Z" fill="#323232"/>
<path d="M55.5798 93.8628C55.6153 93.8613 55.6516 93.8587 55.6882 93.8547C55.7036 93.8514 55.7184 93.8459 55.7338 93.8422C55.6496 93.8369 55.565 93.8429 55.4824 93.8602C55.515 93.8598 55.5472 93.8642 55.5798 93.8628Z" fill="#323232"/>
<path d="M54.631 93.7217L54.6515 93.7283C54.5893 93.6885 54.5236 93.6545 54.4551 93.6268C54.5151 93.6567 54.5724 93.6904 54.631 93.7217Z" fill="#323232"/>
<path d="M53.4206 91.5978C53.4162 91.6181 53.4124 91.6387 53.4086 91.6592L53.4064 91.6813C53.406 91.6875 53.4067 91.6936 53.4064 91.6998C53.4305 91.6006 53.4463 91.5288 53.4536 91.4874C53.4437 91.5244 53.4292 91.5601 53.4206 91.5978Z" fill="#323232"/>
<path d="M57.389 91.6483L57.3819 91.6232C57.3814 91.6917 57.3871 91.7602 57.3989 91.8277C57.3952 91.7677 57.3938 91.7083 57.389 91.6483Z" fill="#323232"/>
<path d="M56.9736 93.1288L56.9833 93.1181C57.0185 93.0553 57.0565 92.994 57.0961 92.9316C57.0487 92.993 57.0077 93.0591 56.9736 93.1288Z" fill="#323232"/>
<path d="M57.1056 90.8901C57.0724 90.837 57.0356 90.7815 56.9973 90.7264C56.9891 90.7171 56.9796 90.7096 56.9712 90.7004C57.0854 90.9209 57.1275 90.9509 57.1056 90.8901Z" fill="#323232"/>
<path d="M83.5775 97.0117C83.5315 97.0117 83.4868 97.0232 83.441 97.0264C83.3898 97.0282 83.3407 97.037 83.2902 97.0425C83.2235 97.052 83.1574 97.0586 83.092 97.0741C83.0551 97.082 83.0155 97.082 82.9793 97.0921C82.9415 97.1025 82.9196 97.1289 82.8833 97.141C82.669 97.2134 82.4661 97.3161 82.2809 97.446C82.2144 97.4936 82.1508 97.5451 82.0905 97.6004C81.8465 97.802 81.6512 98.0562 81.5191 98.3438C81.3869 98.6315 81.3215 98.9452 81.3275 99.2617C81.3365 99.4309 81.3627 99.5988 81.4056 99.7627C81.4102 99.7956 81.4024 99.8271 81.4078 99.8599C81.6827 101.82 82.4989 103.664 83.7647 105.185C85.0304 106.706 86.6955 107.843 88.5726 108.47C90.2577 108.974 92.051 108.991 93.7455 108.52C95.4401 108.049 96.967 107.108 98.1499 105.807C99.6924 103.962 100.59 101.664 100.708 99.2617C100.702 98.6668 100.463 98.0979 100.042 97.6772C99.6216 97.2565 99.0527 97.0175 98.4577 97.0117H83.5775ZM91.8185 104.357C91.8993 104.338 91.9813 104.325 92.0639 104.318C92.0439 104.347 91.9324 104.356 91.8185 104.357ZM94.995 102.592C94.9719 102.621 94.9485 102.65 94.924 102.676C94.8024 102.806 94.6845 102.937 94.557 103.062C94.447 103.169 94.3303 103.268 94.2168 103.371C94.2034 103.383 94.2011 103.386 94.1904 103.396L94.1593 103.416C93.9081 103.579 93.66 103.741 93.3934 103.88C93.3588 103.898 93.296 103.937 93.2341 103.974L93.1786 103.989C93.0984 104.012 93.02 104.047 92.9406 104.074C92.6416 104.174 92.3362 104.254 92.0265 104.313C91.965 104.325 91.9016 104.333 91.8405 104.347C91.806 104.355 91.8143 104.353 91.7974 104.357C91.6934 104.358 91.5911 104.354 91.5607 104.355C91.264 104.367 90.9709 104.352 90.675 104.336C90.6677 104.336 90.6234 104.328 90.5825 104.322C90.4357 104.292 90.2866 104.268 90.1411 104.232C89.8512 104.161 89.5753 104.059 89.2922 103.968L89.2768 103.96C89.1202 103.879 88.9624 103.803 88.809 103.716C88.6738 103.639 88.5411 103.558 88.4107 103.474C88.3909 103.461 88.3296 103.419 88.2655 103.376C88.1985 103.322 88.0429 103.203 88.0018 103.167C87.8451 103.028 87.6942 102.883 87.549 102.732C87.4236 102.601 87.3141 102.445 87.1826 102.321C87.148 102.274 87.113 102.227 87.0799 102.179C86.9338 101.967 86.8175 101.736 86.6912 101.512H95.6425C95.6022 101.599 95.5608 101.685 95.5161 101.768C95.3608 102.057 95.1682 102.317 94.995 102.592Z" fill="#323232"/>
</g>
</svg>
