<svg width="276" height="179" viewBox="0 0 276 179" fill="none" xmlns="http://www.w3.org/2000/svg">
<g clip-path="url(#clip0_213_1724)">
<path d="M69.4488 16.0216C70.3788 13.0072 73.1457 9.29643 76.2388 10.7875L76.0026 11.4178L76.2468 11.8111L76.491 12.2044L76.7352 12.5896L77.013 12.8267L77.2988 13.0557L77.3565 13.2523C78.222 13.9325 78.9722 14.6855 79.6002 15.5044C83.297 20.2886 83.0689 27.333 80.1637 35.8684C79.478 37.8834 80.1235 38.9071 80.3596 40.3079V40.3321C80.6133 40.3564 82.7012 40.5948 82.5952 42.4697C82.4315 45.2389 80.1463 45.2551 80.1382 46.2047C80.1302 47.1637 77.6249 63.2998 70.1332 63.8978C66.3706 64.2008 63.6372 63.4479 61.67 62.2842L61.4902 62.5792L59.8088 68.1662L59.311 68.748L58.1516 70.099L57.7437 70.1569L37.0962 57.2629L37.488 56.6244L38.6139 52.0368C38.6139 52.8073 44.5382 50.6764 46.8154 48.9322C49.4186 46.9334 50.1205 43.1162 50.1205 43.1162L50.2345 42.3619C47.2072 40.5759 46.6436 37.3164 47.2797 34.7357C48.0956 31.4425 50.8786 29.2389 53.0162 32.5564L53.4899 32.4984C54.8613 33.1625 56.8688 32.1132 58.2308 31.7536C64.7845 30.0174 67.542 22.1945 69.4435 16.0176L69.4488 16.0216ZM74.8834 35.7876C75.3732 34.9606 75.1532 33.9275 74.4017 33.4777C73.6503 33.0278 72.6465 33.3308 72.1581 34.1578C71.6683 34.9849 71.8803 36.0179 72.6318 36.4678C73.3832 36.9177 74.387 36.6146 74.8848 35.7876H74.8834Z" fill="#FFEBD7"/>
<path d="M59.1418 73.6898L57.8764 73.248L57.1907 73.7073L56.611 74.0602L53.6481 78.1239L52.5142 79.6809L37.4906 69.6625L37.131 69.8834L33.1563 63.4775L31.2388 63.4452C32.4384 62.9454 33.1563 62.6747 33.1563 62.6747V62.5023L36.3392 56.7927L37.0987 57.2682L57.7462 70.1622L58.1541 70.1043L59.3135 68.7534L60.3575 69.6625C61.9329 71.0135 63.7202 72.9719 65.6378 75.3317L64.3644 76.0038C64.3644 76.0038 64.3966 76.1425 64.4543 76.4052L63.2949 76.6342L59.2639 73.5295L59.1418 73.6939V73.6898Z" fill="white"/>
<path d="M63.1889 76.917L63.2949 76.6301L64.4543 76.4011C64.8944 78.3838 66.7556 87.5415 66.4537 98.6334C64.822 92.8174 62.365 83.5937 62.365 83.5937L63.1889 76.917Z" fill="white"/>
<path d="M54.2693 78.5725L58.1541 83.9871L56.211 100.6L56.1949 100.608L37.1309 69.8808L37.4905 69.6599L52.5141 79.6783L53.6494 78.1213L54.2693 78.5725Z" fill="white"/>
<path d="M64.5362 138.346C65.8096 138.346 66.8456 139.378 66.8456 140.656C66.8456 141.934 65.8096 142.966 64.5362 142.966C63.2627 142.966 62.2349 141.934 62.2349 140.656C62.2349 139.378 63.2627 138.346 64.5362 138.346Z" fill="white"/>
<path d="M163.054 150.42C163.764 152.23 163.576 154.171 160.981 154.171H160.973C160.965 153.376 160.647 152.525 160.051 151.697C159.487 150.918 159.088 149.698 158.182 149.23C158.018 149.14 157.83 149.108 157.626 149.108L158.826 148.853C159.43 145.716 162.075 147.952 163.053 150.418L163.054 150.42Z" fill="#FFEBD7"/>
<path d="M158.353 156.9C158.411 155.015 157.3 152.689 156.028 151.698C155.58 151.345 154.942 151.15 154.323 151.15L155.53 150.879C155.53 149.97 156.698 149.109 157.628 149.109C157.832 149.109 158.019 149.141 158.183 149.232C159.089 149.699 159.489 150.919 160.052 151.698C160.648 152.525 160.966 153.378 160.974 154.172C160.982 155.278 160.403 156.269 159.113 156.941L158.353 156.901V156.9Z" fill="#FFEBD7"/>
<path d="M156.027 151.698C157.3 152.689 158.41 155.015 158.352 156.9C158.352 157.17 158.32 157.432 158.254 157.686C157.887 159.202 156.075 160.554 154.59 159.783L153.856 159.645C154.679 157.343 154.288 153.951 152.412 153.271C152.371 153.255 152.338 153.247 152.298 153.239L152.371 152.968C152.371 151.674 153.317 151.15 154.323 151.15C154.942 151.15 155.58 151.346 156.028 151.698H156.027Z" fill="#FFEBD7"/>
<path d="M149.866 155.098C149.507 156.073 149.344 157.285 149.384 158.407H149.27C149.27 158.407 146.725 160.496 145.835 160.127C144.04 159.398 144.122 157.391 143.991 157.391L144.293 156.941L148.21 154.254L149.868 155.098H149.866Z" fill="#FFEBD7"/>
<path d="M152.412 153.271C154.289 153.951 154.681 157.343 153.855 159.645C153.374 161.013 152.46 161.995 151.17 161.808C150.011 161.636 149.449 160.12 149.383 158.408C149.343 157.286 149.505 156.074 149.865 155.099C150.354 153.788 151.186 152.903 152.296 153.239C152.336 153.247 152.37 153.255 152.41 153.271H152.412Z" fill="#FFEBD7"/>
<path d="M132.418 148.38C131.912 150.486 134.801 151.427 134.801 151.427C134.801 151.427 134.687 151.796 134.655 152.328L134.557 152.32C134.035 152.32 131.602 152.336 129.782 152.352C128.615 152.352 127.709 152.361 127.709 152.361L127.521 152.401C127.17 150.984 127.301 148.453 127.529 146.135C127.987 141.605 129.953 137.509 131.47 135.773L131.617 135.904C131.617 135.904 135.06 136.658 136.367 136.117C140.227 134.511 142.405 130.555 147.351 131.358C149.383 131.685 151.016 132.636 152.322 133.947C154.223 135.872 155.423 138.583 156.117 141.27C156.451 142.572 157.96 144.874 156.451 145.964C152.428 148.88 151.978 140.411 148.967 141.139C146.438 141.754 141.695 144.531 139.126 142.048L138.816 142.269C136.898 144.268 133.16 145.292 132.418 148.38Z" fill="#FFEBD7"/>
<path d="M165.338 132.947L169.867 147.495L168.185 148.019C167.451 147.642 164.382 149.346 163.559 150.199L163.053 150.42C162.073 147.953 159.43 145.717 158.826 148.854L157.626 149.109C156.696 149.109 155.529 149.97 155.529 150.879L154.321 151.15C153.317 151.15 152.37 151.674 152.37 152.968L152.296 153.239C151.186 152.903 150.354 153.787 149.865 155.099L148.207 154.256L144.291 156.943L143.989 157.393C143.989 157.393 140.904 160.104 139.5 158.253C138.766 157.278 138.308 155.435 138.308 155.435C138.308 155.435 136.163 156.074 135.207 154.633C134.685 153.846 134.612 152.969 134.652 152.331C134.684 151.799 134.798 151.43 134.798 151.43C134.798 151.43 131.909 150.488 132.415 148.383C133.157 145.295 136.895 144.271 138.813 142.272L139.123 142.051C141.694 144.534 146.435 141.756 148.964 141.142C151.975 140.413 152.425 148.883 156.448 145.967C157.958 144.877 156.448 142.575 156.114 141.273C155.42 138.586 154.22 135.874 152.319 133.949L153.282 133.901C156.555 132.771 157.827 132.386 160.758 134.114C161.5 134.556 164.929 133.082 164.929 133.082L165.328 132.951H165.337L165.338 132.947Z" fill="#FFEBD7"/>
<path d="M208.159 109.003L211.725 83.9615V76.7366L216.508 74.1977L226.807 68.717L226.913 68.7251C226.831 69.6666 226.823 70.3966 226.945 70.8142C227.141 71.5025 228.887 72.0668 231.426 72.3295L231.409 72.4763C227.443 79.3159 212.337 102.736 208.249 109.06L208.159 109.002V109.003Z" fill="white"/>
<path d="M215.789 150.846C217.06 150.846 218.09 149.812 218.09 148.537C218.09 147.261 217.06 146.227 215.789 146.227C214.518 146.227 213.487 147.261 213.487 148.537C213.487 149.812 214.518 150.846 215.789 150.846Z" fill="white"/>
<path d="M227.924 53.5223L227.933 53.719C229.67 54.0624 227.313 63.9906 226.913 68.7263L226.807 68.7183L216.508 74.1989L216.076 73.3799L213.489 67.3835H211.089C208.436 67.8912 205.377 67.8832 202.92 66.2696C198.399 63.3036 196.89 52.3599 196.93 51.4023C196.97 50.4527 194.775 50.7382 194.743 47.9542C194.726 45.9392 196.946 45.5055 196.946 45.5055L197.306 45.4812C197.534 43.6386 196.946 41.7462 196.759 41.0903C195.25 35.8225 196.955 26.9517 199.477 22.1108C200.138 20.8407 200.848 19.8494 201.582 19.2689L202.178 18.9739C204.413 22.3573 213.807 35.5948 224.277 37.1748L224.195 37.7728L226.049 42.1476L226.187 42.0897C228.79 40.5502 232.251 41.1482 233.164 43.3423C234.65 46.8888 232.349 53.3607 227.926 53.525L227.924 53.5223ZM206.225 42.0291C206.577 41.2182 206.143 40.2592 205.261 39.8753C204.388 39.4901 203.392 39.8349 203.042 40.6377C202.692 41.4405 203.124 42.4076 203.997 42.7914C204.879 43.1766 205.875 42.8318 206.225 42.0291Z" fill="#FFEBD7"/>
<path d="M128.443 153.532L127.26 153.549C123.955 153.065 97.0969 149.083 83.4272 145.742C79.6324 144.816 72.7687 134.24 71.7086 132.562C71.3248 137.174 70.8927 139.811 70.8927 139.811C70.8927 139.811 75.6255 171.611 76.2871 176.763L40.73 176.746L13.2604 176.73C12.4607 172.241 8.17607 148.347 7.64603 142.744C7.2703 138.746 6.84627 133.987 6.45444 128.85C5.28701 113.441 4.48725 94.6343 6.75636 82.7478C8.49409 73.6386 25.4608 65.8493 31.2389 63.4397L33.1565 63.472L37.1311 69.878L56.1951 100.604L64.135 113.408L64.6087 113.448C65.8003 108.427 66.3223 103.356 66.4525 98.6293C66.7544 87.5374 64.8932 78.3797 64.4531 76.397C64.3954 76.1344 64.3631 75.9957 64.3631 75.9957L65.6366 75.3236C77.3633 89.7652 93.8482 119.525 95.2693 121.221L95.751 121.336L132.238 134.868L132.32 135.015C132.066 135.162 131.782 135.416 131.472 135.769C129.954 137.505 127.987 141.601 127.531 146.131C127.303 148.449 127.171 150.98 127.523 152.397C127.694 153.101 127.988 153.527 128.444 153.527L128.443 153.532ZM66.8456 140.656C66.8456 139.378 65.8097 138.346 64.5363 138.346C63.2628 138.346 62.2349 139.378 62.2349 140.656C62.2349 141.934 63.2628 142.966 64.5363 142.966C65.8097 142.966 66.8456 141.934 66.8456 140.656Z" fill="#BDCFDA"/>
<path d="M202.968 114.779L202.96 114.763C202.96 114.763 204.698 113.173 207.285 110.725L207.219 110.65C207.219 110.65 207.595 110.077 208.247 109.061C212.336 102.737 227.441 79.3171 231.408 72.4774L231.424 72.3306C235.169 72.7078 240.646 72.4209 245.428 70.8813L245.682 71.6518C245.682 71.6518 257.556 80.6869 259.637 97.7416C260.788 107.194 262.486 136.258 263.782 138.911C266.818 145.137 274.587 175.896 274.971 176.862L207.219 176.83V176.715L210.59 152.362L208.975 138.911L207.187 138.813C205.482 139.674 203.874 140.435 202.429 141.065C193.452 144.981 170.137 148.356 170.137 148.356L169.867 147.495L165.338 132.947H165.33L164.89 131.522L202.968 114.779ZM218.09 148.537C218.09 147.258 217.062 146.227 215.789 146.227C214.515 146.227 213.487 147.258 213.487 148.537C213.487 149.815 214.515 150.847 215.789 150.847C217.062 150.847 218.09 149.815 218.09 148.537Z" fill="#7A9FBF"/>
<path d="M13.2603 176.732L1.12573 176.724C1.94965 167.377 5.42645 135.668 6.43017 128.853H6.45433C6.84616 133.989 7.27019 138.749 7.64591 142.746C8.17596 148.349 12.4606 172.244 13.2603 176.733V176.732Z" fill="#BDCFDA"/>
<path d="M74.4017 33.4774C75.1532 33.9273 75.3733 34.9604 74.8835 35.7874C74.3856 36.6144 73.3819 36.9175 72.6305 36.4676C71.879 36.0177 71.667 34.9846 72.1568 34.1576C72.6466 33.3306 73.6503 33.0276 74.4004 33.4774H74.4017Z" fill="#343434"/>
<path d="M224.276 37.1722C213.805 35.5909 204.412 22.3534 202.176 18.9713L201.581 19.2662C200.847 19.8481 200.137 20.8394 199.475 22.1082L199.214 21.9695C192.546 17.1691 222.439 -3.63676 230.356 7.72449L230.422 8.00331C252.767 2.41629 257.1 59.2818 254.358 64.427C252.677 67.5977 249.274 69.645 245.431 70.8815C240.648 72.421 235.172 72.7079 231.427 72.3308C228.889 72.0681 227.142 71.5038 226.946 70.8155C226.824 70.3979 226.832 69.6693 226.914 68.7264C227.314 63.992 229.673 54.0639 227.934 53.719L227.926 53.5224C232.349 53.3581 234.65 46.8875 233.164 43.3397C232.251 41.1442 228.79 40.5462 226.187 42.0871L226.048 42.145L224.195 37.7702L224.277 37.1722H224.276Z" fill="#515151"/>
<path d="M57.8763 73.2479L59.1417 73.6897L59.2638 73.5254L63.2948 76.63L63.1888 76.9169L62.3649 83.5936C62.3649 83.5936 64.8219 92.8173 66.4536 98.6333C66.3234 103.36 65.8001 108.431 64.6099 113.452L64.1362 113.412L56.1963 100.608L56.2124 100.6L58.1541 83.9869L54.2694 78.5723L53.6494 78.1224L56.6123 74.0588L57.192 73.7059L57.8777 73.2466L57.8763 73.2479Z" fill="#7A9FBF"/>
<path d="M205.262 39.8753C206.143 40.2605 206.575 41.2182 206.225 42.029C205.873 42.8318 204.879 43.1752 203.998 42.7914C203.124 42.4062 202.692 41.4404 203.042 40.6376C203.392 39.8349 204.388 39.4914 205.262 39.8753Z" fill="#343434"/>
<path d="M80.2696 4.61984C82.897 6.31561 84.9218 10.8951 80.4252 15.2282L79.6013 15.507C78.9733 14.688 78.2219 13.9338 77.3577 13.2549L77.3 13.0583L77.0142 12.8293L76.7364 12.5922L76.4922 12.207L76.248 11.8137L76.0037 11.4204L76.2399 10.7901C73.1469 9.29903 70.3799 13.0098 69.45 16.0242C67.5486 22.2012 64.7897 30.0241 58.2373 31.7602C56.8739 32.1212 54.8665 33.1691 53.4964 32.5051L53.0227 32.563C50.8851 29.2455 48.1021 31.4491 47.2862 34.7423C46.6502 37.323 47.2124 40.5825 50.241 42.3686L50.127 43.1228C50.127 43.1228 49.4252 46.94 46.8219 48.9388C44.5448 50.6831 38.6204 52.8139 38.6204 52.0435V52.0273C39.2001 46.6369 35.4374 45.8342 29.5694 38.5271C25.8806 33.9315 25.2284 16.1724 34.172 6.78568C45.2949 -4.89479 64.261 5.07375 70.3088 3.84536C74.2673 3.03451 78.1185 3.22308 80.2736 4.62388L80.2696 4.61984Z" fill="#515151"/>
<path d="M58.1529 71.1265C57.9181 71.1265 57.6806 71.0443 57.4887 70.8786C57.062 70.5096 57.0137 69.8631 57.3814 69.4347L58.8977 67.6662L60.516 62.2866C60.6783 61.7452 61.2473 61.4394 61.7867 61.6024C62.3262 61.7654 62.6321 62.3378 62.4684 62.8793L60.787 68.4663C60.7468 68.6037 60.677 68.7289 60.5844 68.838L58.9272 70.7722C58.7259 71.0079 58.4401 71.1278 58.1529 71.1278V71.1265Z" fill="#343434"/>
<path d="M37.4907 57.652C37.4102 57.652 37.3283 57.6425 37.2465 57.6223C36.699 57.4863 36.3648 56.9314 36.5004 56.3832L37.6262 51.7956C37.7604 51.246 38.3106 50.912 38.8607 51.0467C39.4082 51.1827 39.7423 51.7376 39.6068 52.2858L38.481 56.8734C38.3656 57.3408 37.9496 57.6533 37.4907 57.6533V57.652Z" fill="#343434"/>
<path d="M57.745 71.1831C57.5611 71.1831 57.3746 71.1332 57.2069 71.0282L36.707 58.2271L34.0474 63.0005C33.7737 63.4949 33.151 63.67 32.6586 63.3938C32.1674 63.1177 31.9916 62.4941 32.2667 61.9998L35.4483 56.2902C35.5852 56.0464 35.8147 55.8686 36.0844 55.7986C36.3527 55.7285 36.6413 55.773 36.8788 55.9211L58.2844 69.2893C58.7621 69.5883 58.9097 70.22 58.6118 70.6995C58.4186 71.012 58.0844 71.1831 57.745 71.1831Z" fill="#343434"/>
<path d="M60.3576 116.18C60.112 116.18 59.8665 116.092 59.6705 115.913L34.7801 93.1728C34.5667 92.9775 34.4459 92.7014 34.4473 92.4105C34.4486 92.1196 34.5721 91.8448 34.7881 91.6522L44.1893 83.2232C44.608 82.8474 45.2534 82.881 45.6305 83.3053C46.0062 83.7269 45.9686 84.3734 45.5486 84.7506L36.9915 92.424L61.046 114.399C61.462 114.779 61.4928 115.427 61.1131 115.846C60.9118 116.068 60.6354 116.181 60.3589 116.181L60.3576 116.18Z" fill="#343434"/>
<path d="M40.8697 87.2478C40.7892 87.2478 40.7074 87.2384 40.6255 87.2182L31.5678 84.9823C31.1116 84.8691 30.7922 84.4597 30.7922 83.9883V70.1042C30.7922 69.5385 31.2485 69.0806 31.8121 69.0806C32.3757 69.0806 32.8319 69.5385 32.8319 70.1042V83.1855L41.114 85.2301C41.6601 85.3648 41.9956 85.9197 41.86 86.4693C41.7446 86.9367 41.3287 87.2491 40.8697 87.2491V87.2478Z" fill="#343434"/>
<path d="M52.5145 80.7018C52.3199 80.7018 52.124 80.6466 51.9509 80.5307L36.9273 70.5123C36.4576 70.1999 36.3301 69.5641 36.6414 69.0927C36.9527 68.6213 37.5861 68.4933 38.0558 68.8071L52.2676 78.2827L55.7887 73.4527C56.1215 72.9961 56.7589 72.8977 57.2151 73.2304C57.67 73.5645 57.7679 74.2056 57.4365 74.6622L53.3398 80.2815C53.1412 80.555 52.8298 80.7018 52.5158 80.7018H52.5145Z" fill="#343434"/>
<path d="M63.2952 77.655C63.0778 77.655 62.8604 77.5863 62.6752 77.4435L58.4564 74.1974C58.0055 73.858 57.9156 73.2155 58.2538 72.7643C58.5919 72.3117 59.2306 72.2215 59.6815 72.5609L59.8774 72.7077L63.9178 75.8191C64.3647 76.1626 64.4492 76.8064 64.107 77.2549C63.9057 77.5176 63.6025 77.6563 63.2965 77.6563L63.2952 77.655Z" fill="#343434"/>
<path d="M56.2141 101.623C56.1738 101.623 56.1349 101.621 56.0933 101.617C55.5338 101.551 55.1325 101.042 55.1996 100.48L57.0957 84.2617L53.4431 79.1704C53.1143 78.7111 53.2177 78.0713 53.6753 77.7413C54.1315 77.4099 54.7702 77.515 55.099 77.9743L58.9837 83.3889C59.1327 83.5963 59.1984 83.8523 59.1689 84.1068L57.2272 100.72C57.1668 101.241 56.7253 101.625 56.2154 101.625L56.2141 101.623Z" fill="#343434"/>
<path d="M66.4861 99.7808C66.007 99.7808 65.5803 99.4414 65.485 98.9524C65.4796 98.943 65.4729 98.9188 65.4662 98.8878C63.8506 93.1311 61.4044 83.9505 61.3802 83.8589C61.3467 83.7323 61.3373 83.5989 61.3534 83.4683L62.1773 76.7916C62.2471 76.2299 62.7664 75.8313 63.3152 75.9013C63.8748 75.9713 64.272 76.4818 64.2022 77.0435L63.4024 83.5221C63.7647 84.8785 65.9547 93.0758 67.4361 98.3558C67.4442 98.3827 67.4509 98.411 67.4562 98.4379C67.4629 98.4527 67.4777 98.5066 67.4884 98.5605C67.5958 99.1154 67.2348 99.6528 66.6806 99.7606C66.6149 99.7741 66.5505 99.7795 66.4847 99.7795L66.4861 99.7808Z" fill="#343434"/>
<path d="M274.98 177.902C274.719 177.902 274.458 177.802 274.26 177.602C274.159 177.501 274.079 177.375 274.026 177.239C273.926 176.988 273.664 176.019 272.678 172.312C270.237 163.139 265.156 144.05 262.868 139.36C262.035 137.654 261.229 128.318 260.095 114.27C259.559 107.641 259.055 101.381 258.625 97.8642C256.625 81.4682 245.181 72.5529 245.067 72.4654C244.619 72.1232 244.532 71.4808 244.871 71.0309C245.212 70.581 245.849 70.4921 246.299 70.8342C246.798 71.2141 258.541 80.33 260.65 97.6164C261.082 101.176 261.59 107.457 262.128 114.105C262.906 123.757 263.974 136.975 264.7 138.46C267.075 143.331 272.191 162.549 274.647 171.786C275.266 174.108 275.803 176.121 275.917 176.472C276.078 176.846 276.007 177.297 275.702 177.603C275.504 177.802 275.242 177.903 274.982 177.903L274.98 177.902Z" fill="#343434"/>
<path d="M64.1365 114.434C63.7957 114.434 63.4629 114.263 63.2696 113.952L32.2911 64.0162C31.9932 63.5367 32.1394 62.905 32.6185 62.606C33.0989 62.3083 33.7269 62.4538 34.0248 62.9346L65.0033 112.87C65.3012 113.35 65.155 113.981 64.6759 114.28C64.5082 114.386 64.3217 114.435 64.1378 114.435L64.1365 114.434Z" fill="#343434"/>
<path d="M132.238 135.897C132.12 135.897 132.002 135.877 131.884 135.832L95.3955 122.3C94.8668 122.103 94.5971 121.515 94.7917 120.985C94.9876 120.453 95.574 120.184 96.1027 120.379L132.591 133.912C133.12 134.108 133.389 134.697 133.195 135.226C133.043 135.64 132.653 135.896 132.238 135.896V135.897Z" fill="#343434"/>
<path d="M13.3826 178.444C12.8968 178.444 12.4674 178.095 12.3789 177.599L12.1387 176.249C8.8229 157.673 6.96977 146.433 6.63027 142.842C6.15793 137.822 5.76879 133.272 5.43734 128.931C3.80562 107.392 3.91029 92.2233 5.75403 82.5578C7.5508 73.1428 23.9002 65.3927 30.8471 62.4968C32.0682 61.989 32.7982 61.7142 32.7982 61.7142C33.3242 61.5176 33.9147 61.7829 34.1119 62.3136C34.3105 62.8429 34.0421 63.4329 33.5161 63.6322C33.5067 63.6349 32.8022 63.9016 31.6294 64.3892C26.4485 66.5483 9.41333 74.2689 7.75879 82.9443C5.9486 92.4293 5.85467 107.421 7.47163 128.776C7.80173 133.104 8.19088 137.643 8.66187 142.651C8.89268 145.079 10.0306 152.818 14.1488 175.89L14.389 177.242C14.4883 177.798 14.1179 178.33 13.5638 178.429C13.5034 178.439 13.443 178.445 13.3839 178.445L13.3826 178.444Z" fill="#343434"/>
<path d="M95.2706 122.249C94.9794 122.249 94.6909 122.125 94.4883 121.884C94.075 121.391 92.9505 119.5 90.4439 115.271C84.4913 105.224 73.4114 86.5219 64.8476 75.9756C62.8549 73.5255 61.1212 71.6627 59.6948 70.4384C59.2667 70.0707 59.217 69.4242 59.582 68.9945C59.947 68.5648 60.5911 68.5136 61.0205 68.8814C62.5597 70.2027 64.3296 72.1005 66.4283 74.6812C75.0874 85.3461 86.2183 104.132 92.1977 114.224C94.0911 117.42 95.7268 120.18 96.0502 120.567C96.4125 121 96.3575 121.646 95.9254 122.009C95.7349 122.171 95.5014 122.249 95.2706 122.249Z" fill="#343434"/>
<path d="M76.3595 178.444C75.8362 178.444 75.3907 178.042 75.3437 177.51C75.337 177.424 75.3128 177.207 75.2739 176.888C74.6231 171.811 69.9306 140.281 69.8836 139.963C69.8675 139.858 69.8688 139.751 69.8863 139.646C69.8903 139.62 70.317 136.987 70.6914 132.477C71.0027 128.76 71.3543 122.804 71.259 115.537C71.2523 114.971 71.7032 114.508 72.2654 114.5H72.2789C72.8371 114.5 73.292 114.95 73.2987 115.51C73.3939 122.859 73.0384 128.886 72.7244 132.647C72.3902 136.664 72.0226 139.171 71.9233 139.815C72.2829 142.238 76.6668 171.714 77.2975 176.632C77.3404 176.992 77.3659 177.233 77.3753 177.327C77.4249 177.89 77.0103 178.388 76.4494 178.438C76.4185 178.441 76.3877 178.442 76.3582 178.442L76.3595 178.444Z" fill="#343434"/>
<path d="M154.881 147.6C154.69 147.6 154.501 147.58 154.315 147.54C152.781 147.21 151.874 145.635 151.075 144.244C150.341 142.968 149.734 142 149.208 142.133C148.676 142.263 147.984 142.516 147.251 142.785C144.551 143.777 140.852 145.133 138.419 142.785C138.012 142.393 138 141.745 138.391 141.337C138.782 140.931 139.427 140.917 139.833 141.309C141.35 142.77 144.232 141.713 146.551 140.862C147.34 140.572 148.084 140.299 148.728 140.143C150.786 139.643 151.926 141.627 152.843 143.22C153.43 144.241 154.095 145.398 154.743 145.537C155.027 145.596 155.4 145.462 155.855 145.132C156.286 144.82 156.089 144.069 155.545 142.7C155.38 142.284 155.225 141.892 155.131 141.525C154.606 139.497 153.569 136.659 151.599 134.666C150.349 133.411 148.865 132.638 147.192 132.367C144.378 131.906 142.606 133.215 140.556 134.727C139.401 135.578 138.208 136.459 136.76 137.061C135.236 137.693 132.03 137.039 131.402 136.902C130.852 136.782 130.503 136.237 130.623 135.683C130.743 135.131 131.288 134.779 131.837 134.9C133.345 135.229 135.359 135.426 135.981 135.167C137.199 134.659 138.243 133.89 139.349 133.075C141.566 131.44 143.864 129.75 147.517 130.344C149.624 130.683 151.483 131.65 153.045 133.219C154.862 135.058 156.264 137.75 157.107 141.01C157.17 141.254 157.303 141.588 157.443 141.941C157.97 143.269 158.853 145.49 157.049 146.791C156.31 147.327 155.584 147.596 154.884 147.596L154.881 147.6Z" fill="#343434"/>
<path d="M161.162 135.212C160.608 135.212 160.366 135.067 160.239 134.992C157.66 133.471 156.723 133.795 153.615 134.867C153.087 135.051 152.503 134.766 152.319 134.231C152.135 133.696 152.419 133.113 152.953 132.93C156.425 131.731 157.982 131.311 161.181 133.172C161.188 133.172 161.194 133.172 161.201 133.172C161.7 133.172 163.196 132.71 164.529 132.138C165.048 131.916 165.647 132.157 165.868 132.675C166.09 133.195 165.849 133.797 165.331 134.02C163.127 134.968 161.88 135.212 161.162 135.212ZM161.272 133.225C161.272 133.225 161.275 133.226 161.278 133.228C161.276 133.228 161.275 133.226 161.272 133.225Z" fill="#343434"/>
<path d="M146.053 161.187C145.837 161.187 145.633 161.152 145.445 161.075C144.32 160.619 143.735 159.787 143.42 159.059C142.619 159.541 141.541 160.011 140.52 159.907C139.779 159.832 139.146 159.474 138.689 158.872C138.191 158.21 137.819 157.281 137.588 156.593C136.504 156.669 135.158 156.405 134.358 155.199C133.814 154.38 133.564 153.364 133.635 152.264C133.639 152.189 133.646 152.118 133.651 152.049C132.394 151.392 130.958 150.08 131.425 148.142C132.003 145.736 134.013 144.431 135.786 143.281C136.662 142.711 137.49 142.175 138.079 141.561C138.471 141.154 139.118 141.142 139.522 141.534C139.927 141.926 139.939 142.574 139.549 142.982C138.796 143.766 137.828 144.394 136.894 145.001C135.3 146.035 133.795 147.012 133.408 148.623C133.13 149.779 135.099 150.451 135.119 150.457C135.647 150.634 135.939 151.201 135.775 151.733C135.775 151.733 135.696 152.006 135.672 152.394C135.642 152.849 135.685 153.505 136.057 154.066C136.57 154.842 138.011 154.458 138.024 154.454C138.29 154.378 138.577 154.413 138.816 154.552C139.055 154.691 139.231 154.92 139.298 155.189C139.412 155.647 139.817 156.979 140.314 157.638C140.426 157.786 140.544 157.855 140.723 157.873C141.498 157.953 142.809 157.067 143.318 156.624C143.503 156.462 143.743 156.372 143.989 156.372C144.386 156.372 144.896 156.56 145.068 157.457C145.19 158.094 145.383 158.797 146.131 159.145C146.553 159.074 147.703 158.372 148.624 157.618C149.06 157.261 149.703 157.324 150.06 157.763C150.415 158.201 150.351 158.846 149.916 159.203C148.754 160.157 147.224 161.19 146.053 161.19V161.187ZM146.212 159.176C146.212 159.176 146.215 159.176 146.218 159.177C146.216 159.177 146.215 159.177 146.212 159.176Z" fill="#343434"/>
<path d="M151.49 162.854C151.337 162.854 151.181 162.844 151.024 162.819C149.453 162.586 148.46 160.951 148.365 158.446C148.318 157.156 148.516 155.806 148.909 154.742C149.657 152.735 151.015 151.803 152.547 152.245C152.632 152.264 152.706 152.285 152.793 152.322C155.396 153.264 155.736 157.424 154.818 159.988C154.175 161.815 152.951 162.854 151.49 162.854ZM151.901 154.21C151.344 154.21 150.968 155.064 150.82 155.457C150.518 156.276 150.365 157.339 150.403 158.371C150.461 159.864 150.918 160.734 151.32 160.795C152.198 160.923 152.679 159.915 152.894 159.304L152.896 159.299C153.615 157.29 153.182 154.64 152.066 154.236C152.009 154.219 151.954 154.211 151.902 154.211L151.901 154.21Z" fill="#343434"/>
<path d="M155.507 161.031C155.027 161.031 154.557 160.919 154.123 160.693C153.622 160.433 153.425 159.816 153.684 159.312C153.942 158.81 154.557 158.613 155.058 158.872C155.356 159.027 155.699 159.017 156.074 158.846C156.636 158.589 157.126 158.011 157.264 157.443C157.311 157.259 157.334 157.082 157.334 156.898C157.383 155.221 156.356 153.248 155.403 152.506C155.138 152.299 154.727 152.172 154.323 152.172C153.393 152.172 153.393 152.728 153.393 152.967C153.393 153.532 152.936 153.99 152.373 153.99C151.809 153.99 151.353 153.532 151.353 152.967C151.353 151.267 152.547 150.125 154.324 150.125C155.187 150.125 156.039 150.404 156.659 150.891C158.245 152.126 159.441 154.78 159.376 156.929C159.376 157.254 159.333 157.604 159.246 157.941C158.965 159.101 158.052 160.193 156.923 160.709C156.456 160.923 155.978 161.029 155.51 161.029L155.507 161.031Z" fill="#343434"/>
<path d="M159.113 157.965C158.744 157.965 158.389 157.763 158.207 157.413C157.947 156.91 158.143 156.293 158.642 156.032C159.518 155.576 159.959 154.953 159.953 154.18C159.946 153.604 159.696 152.952 159.225 152.298C159.018 152.014 158.842 151.699 158.672 151.395C158.376 150.869 158.072 150.327 157.716 150.143C157.715 150.141 157.689 150.134 157.628 150.134C157.126 150.134 156.55 150.663 156.55 150.88C156.55 151.446 156.094 151.904 155.53 151.904C154.967 151.904 154.51 151.446 154.51 150.88C154.51 149.333 156.216 148.087 157.628 148.087C158.029 148.087 158.371 148.169 158.674 148.337C159.549 148.787 160.047 149.677 160.448 150.391C160.589 150.643 160.725 150.89 160.876 151.098C161.597 152.098 161.982 153.156 161.994 154.163C162.005 155.726 161.149 157.036 159.583 157.852C159.433 157.93 159.271 157.968 159.113 157.968V157.965Z" fill="#343434"/>
<path d="M160.981 155.196C160.417 155.196 159.961 154.738 159.961 154.172C159.961 153.607 160.417 153.149 160.981 153.149C161.425 153.149 162.005 153.077 162.236 152.736C162.483 152.374 162.432 151.629 162.104 150.796C161.494 149.259 160.396 148.343 160.062 148.34C160.07 148.355 159.929 148.521 159.827 149.05C159.72 149.605 159.188 149.971 158.631 149.861C158.078 149.753 157.716 149.217 157.824 148.661C158.194 146.74 159.261 146.357 159.863 146.3C161.503 146.141 163.234 148.11 164 150.04C164.599 151.566 164.57 152.93 163.921 153.888C163.517 154.485 162.678 155.195 160.98 155.195L160.981 155.196Z" fill="#343434"/>
<path d="M163.56 151.222C163.304 151.222 163.047 151.127 162.849 150.933C162.445 150.538 162.436 149.89 162.829 149.485C163.415 148.879 167.093 146.307 168.651 147.107C169.153 147.365 169.352 147.982 169.095 148.485C168.863 148.942 168.336 149.151 167.863 148.99C167.187 149.036 164.948 150.232 164.29 150.911C164.09 151.119 163.824 151.222 163.559 151.222H163.56Z" fill="#343434"/>
<path d="M134.923 152.32C134.594 152.32 134.271 152.161 134.074 151.865C133.761 151.395 133.886 150.759 134.355 150.445L139.914 146.718C140.381 146.405 141.015 146.53 141.328 147.001C141.641 147.471 141.516 148.107 141.046 148.421L135.488 152.148C135.315 152.265 135.118 152.32 134.922 152.32H134.923Z" fill="#343434"/>
<path d="M138.106 156.597C137.779 156.597 137.459 156.44 137.261 156.148C136.944 155.681 137.065 155.044 137.53 154.726L137.734 154.587L143.086 150.995C143.554 150.681 144.187 150.806 144.501 151.276C144.814 151.746 144.689 152.382 144.221 152.696L138.678 156.419C138.502 156.539 138.302 156.597 138.105 156.597H138.106Z" fill="#343434"/>
<path d="M144.292 157.965C143.968 157.965 143.647 157.809 143.45 157.519C143.132 157.052 143.251 156.415 143.717 156.095L147.634 153.408C148.099 153.09 148.734 153.209 149.052 153.676C149.37 154.144 149.25 154.781 148.785 155.1L144.868 157.787C144.692 157.908 144.492 157.965 144.294 157.965H144.292Z" fill="#343434"/>
<path d="M127.709 153.386C127.15 153.386 126.695 152.933 126.689 152.371C126.684 151.806 127.136 151.344 127.7 151.338C127.7 151.338 128.609 151.33 129.782 151.33C131.596 151.314 134.033 151.298 134.557 151.298C135.12 151.298 135.577 151.756 135.577 152.322C135.577 152.887 135.12 153.345 134.557 153.345C134.035 153.345 131.609 153.361 129.79 153.377C128.622 153.377 127.72 153.386 127.718 153.386H127.709Z" fill="#343434"/>
<path d="M128.443 154.556C127.902 154.556 126.935 154.308 126.531 152.645C126.209 151.349 126.203 149.186 126.515 146.034C126.975 141.473 128.97 137.081 130.705 135.097C131.097 134.653 131.458 134.337 131.81 134.133C132.728 133.611 133.474 133.924 133.865 134.39C134.229 134.821 134.175 135.467 133.746 135.833C133.444 136.087 133.039 136.137 132.699 135.998C132.588 136.084 132.436 136.223 132.236 136.451C130.756 138.144 128.957 142.152 128.545 146.239C128.192 149.815 128.333 151.43 128.513 152.154C128.54 152.264 128.566 152.348 128.591 152.413C128.694 152.342 128.852 152.216 129.063 152.005C129.46 151.605 130.106 151.605 130.505 152.005C130.904 152.405 130.904 153.053 130.505 153.453C129.757 154.206 129.102 154.556 128.446 154.556H128.443Z" fill="#343434"/>
<path d="M127.596 154.622C127.548 154.622 127.5 154.619 127.45 154.611L127.112 154.561C124.079 154.118 97.058 150.129 83.187 146.737C78.9964 145.715 72.1729 135.207 70.8471 133.112C70.7519 132.976 70.6901 132.873 70.6901 132.873C70.4003 132.39 70.5546 131.759 71.0364 131.467C71.5167 131.173 72.1407 131.327 72.4332 131.808C72.4413 131.821 72.4789 131.882 72.5446 131.976C76.1798 137.723 81.193 144.144 83.6688 144.748C97.4485 148.118 124.381 152.094 127.407 152.536L127.74 152.584C128.297 152.665 128.685 153.183 128.604 153.742C128.532 154.253 128.094 154.621 127.596 154.621V154.622Z" fill="#343434"/>
<path d="M40.8682 178.444C40.3918 178.444 39.9651 178.107 39.8685 177.619L39.7303 176.95C39.3586 175.247 38.6702 172.45 37.8731 169.21C35.3249 158.851 31.4737 143.197 30.8739 134.962C30.5867 130.922 32.0762 109.465 32.1393 108.555C32.1782 107.992 32.68 107.57 33.2275 107.605C33.7898 107.644 34.2138 108.134 34.1749 108.699C34.1588 108.921 32.6317 130.92 32.9095 134.817C33.4959 142.875 37.3216 158.428 39.8537 168.72C40.6535 171.973 41.3459 174.783 41.727 176.528L41.8692 177.219C41.9792 177.774 41.621 178.313 41.0681 178.423C41.001 178.437 40.9339 178.444 40.8682 178.444Z" fill="#343434"/>
<path d="M1.02129 179C0.998477 179 0.975665 179 0.951512 178.997C0.389265 178.958 -0.0347683 178.471 0.00280423 177.906C0.0215905 177.64 0.0484281 177.331 0.0779494 176.992L0.110154 176.632C0.940776 167.212 4.4149 135.528 5.4213 128.701C5.5045 128.142 6.0332 127.754 6.57934 127.837C7.13757 127.919 7.52268 128.441 7.43949 129C6.43711 135.806 2.97104 167.411 2.14176 176.811L2.10955 177.174C2.08137 177.497 2.05453 177.79 2.03709 178.044C2.00086 178.584 1.55267 178.999 1.01995 178.999L1.02129 179Z" fill="#343434"/>
<path d="M64.6101 114.476C64.5323 114.476 64.4517 114.466 64.3726 114.447C63.8251 114.317 63.4869 113.765 63.6171 113.214C64.6772 108.741 65.2891 103.826 65.434 98.6037C65.7373 87.4997 63.8412 78.346 63.4588 76.6233L63.3715 76.2327C63.2427 75.6818 63.5822 75.1309 64.1297 75.0016C64.6799 74.8696 65.2273 75.2131 65.3575 75.7626L65.4501 76.1788C65.8419 77.9393 67.7823 87.3125 67.4736 98.6576C67.3247 104.021 66.6954 109.076 65.6017 113.685C65.4904 114.155 65.0717 114.472 64.6101 114.472V114.476Z" fill="#343434"/>
<path d="M145.254 124.436C144.716 124.436 144.265 124.012 144.237 123.466L143.935 117.675C143.906 117.11 144.338 116.628 144.9 116.599C145.478 116.58 145.943 117.004 145.972 117.568L146.274 123.36C146.304 123.924 145.872 124.407 145.309 124.436C145.291 124.436 145.273 124.436 145.256 124.436H145.254Z" fill="#343434"/>
<path d="M140.319 125.6C139.955 125.6 139.602 125.403 139.418 125.06L136.717 119.997C136.451 119.498 136.638 118.877 137.134 118.611C137.63 118.343 138.25 118.531 138.515 119.03L141.216 124.093C141.482 124.591 141.296 125.212 140.799 125.479C140.646 125.561 140.481 125.6 140.319 125.6Z" fill="#343434"/>
<path d="M150.372 125.068C150.255 125.068 150.136 125.048 150.019 125.005C149.491 124.809 149.22 124.221 149.414 123.69L151.397 118.275C151.591 117.745 152.177 117.474 152.707 117.668C153.236 117.863 153.507 118.452 153.312 118.983L151.329 124.397C151.177 124.812 150.787 125.068 150.372 125.068Z" fill="#343434"/>
<path d="M216.076 74.4036C215.681 74.4036 215.306 74.172 215.139 73.7854L212.552 67.7889C212.328 67.2704 212.567 66.6669 213.083 66.442C213.604 66.2157 214.201 66.4568 214.425 66.9754L217.012 72.9719C217.236 73.4904 216.998 74.0939 216.481 74.3188C216.348 74.3767 216.211 74.4036 216.076 74.4036Z" fill="#343434"/>
<path d="M202.96 115.786C202.684 115.786 202.407 115.675 202.206 115.452C201.826 115.035 201.856 114.387 202.273 114.006C202.276 114.003 204.01 112.419 206.586 109.979C212.569 104.323 223.192 94.0135 227.129 88.5167C227.458 88.0561 228.095 87.9524 228.553 88.2824C229.01 88.6124 229.115 89.2521 228.785 89.7114C224.75 95.3483 214.021 105.763 207.986 111.468C205.39 113.924 203.647 115.518 203.647 115.518C203.451 115.698 203.206 115.785 202.96 115.785V115.786Z" fill="#343434"/>
<path d="M207.219 111.674C207.027 111.674 206.833 111.62 206.66 111.506C206.189 111.195 206.059 110.56 206.367 110.087C206.369 110.086 206.743 109.515 207.391 108.506C210.545 103.63 226.469 78.9629 230.528 71.9629C230.81 71.474 231.435 71.3097 231.922 71.5939C232.409 71.8781 232.574 72.5044 232.29 72.9933C228.206 80.035 212.259 104.737 209.103 109.619C208.449 110.637 208.071 111.213 208.071 111.213C207.876 111.512 207.549 111.675 207.218 111.675L207.219 111.674Z" fill="#343434"/>
<path d="M207.222 177.739C207.175 177.739 207.128 177.736 207.08 177.73C206.522 177.652 206.133 177.134 206.209 176.574L209.561 152.352L207.96 139.034C207.893 138.472 208.292 137.962 208.851 137.895C209.4 137.833 209.918 138.226 209.986 138.789L211.602 152.239C211.613 152.327 211.611 152.416 211.599 152.503L208.229 176.857C208.157 177.369 207.72 177.74 207.219 177.74L207.222 177.739Z" fill="#343434"/>
<path d="M208.16 110.028C208.112 110.028 208.063 110.025 208.014 110.017C207.456 109.938 207.069 109.418 207.148 108.859L210.704 83.8899V76.7377C210.704 76.3579 210.914 76.0104 211.248 75.8326L226.328 67.8131C226.83 67.5491 227.443 67.739 227.707 68.2387C227.971 68.7384 227.781 69.358 227.284 69.6233L212.745 77.3546V83.9626C212.745 84.0111 212.743 84.0596 212.734 84.1067L209.168 109.149C209.095 109.659 208.658 110.028 208.16 110.028Z" fill="#343434"/>
<path d="M170.137 149.38C169.698 149.38 169.299 149.094 169.164 148.663L164.4 133.369C164.384 133.331 164.368 133.292 164.356 133.252L163.916 131.827C163.761 131.328 164.006 130.795 164.479 130.585L202.782 113.746C203.303 113.526 203.9 113.77 204.12 114.29C204.338 114.811 204.097 115.412 203.578 115.631L203.366 115.722L166.134 132.093L166.268 132.529C166.284 132.565 166.299 132.604 166.312 132.643L170.849 147.215C175.127 146.563 194.238 143.523 202.024 140.128C203.446 139.507 205.03 138.757 206.73 137.899C220.445 130.992 241.228 117.703 241.437 117.57C241.91 117.267 242.543 117.404 242.845 117.882C243.148 118.359 243.009 118.992 242.534 119.296C242.324 119.43 221.454 132.774 207.645 139.729C205.911 140.603 204.294 141.37 202.837 142.005C193.837 145.93 171.24 149.232 170.283 149.37C170.233 149.377 170.185 149.381 170.137 149.381V149.38Z" fill="#343434"/>
<path d="M218.327 87.2465C218.255 87.2465 218.183 87.2384 218.11 87.2222C217.819 87.1589 217.569 86.9704 217.428 86.7077L213.699 79.7617C213.432 79.2646 213.617 78.6424 214.114 78.3743C214.609 78.1063 215.229 78.2922 215.496 78.7905L218.66 84.686L226.329 78.8619C226.779 78.5225 227.417 78.61 227.758 79.0613C228.098 79.5125 228.009 80.155 227.56 80.4957L218.941 87.0404C218.762 87.1764 218.545 87.2478 218.325 87.2478L218.327 87.2465Z" fill="#343434"/>
<path d="M215.79 151.87C213.958 151.87 212.469 150.375 212.469 148.537C212.469 146.698 213.96 145.203 215.79 145.203C217.62 145.203 219.111 146.7 219.111 148.537C219.111 150.374 217.622 151.87 215.79 151.87ZM215.79 147.25C215.083 147.25 214.509 147.828 214.509 148.537C214.509 149.245 215.083 149.823 215.79 149.823C216.497 149.823 217.07 149.247 217.07 148.537C217.07 147.827 216.496 147.25 215.79 147.25Z" fill="#343434"/>
<path d="M64.535 143.99C62.7034 143.99 61.2139 142.494 61.2139 140.656C61.2139 138.817 62.7034 137.322 64.535 137.322C66.3667 137.322 67.8642 138.819 67.8642 140.656C67.8642 142.493 66.3707 143.99 64.535 143.99ZM64.535 139.37C63.8292 139.37 63.2549 139.947 63.2549 140.656C63.2549 141.364 63.8292 141.942 64.535 141.942C65.2408 141.942 65.8246 141.366 65.8246 140.656C65.8246 139.946 65.2462 139.37 64.535 139.37Z" fill="#343434"/>
<path d="M199.214 22.9931C199.009 22.9931 198.801 22.9311 198.621 22.8005C197.473 21.9748 197.016 20.7047 197.332 19.2244C198.484 13.8408 210.143 5.60439 219.221 3.76181C224.736 2.64252 228.876 3.80895 231.193 7.13584C231.517 7.59918 231.404 8.23762 230.943 8.56223C230.48 8.88683 229.845 8.77235 229.521 8.31035C227.225 5.01579 222.871 5.11008 219.625 5.77007C212.141 7.28804 200.381 14.7257 199.328 19.6554C199.143 20.5215 199.469 20.8906 199.811 21.1384C200.269 21.4684 200.373 22.1082 200.046 22.5675C199.847 22.8463 199.533 22.9945 199.216 22.9945L199.214 22.9931Z" fill="#343434"/>
<path d="M208.861 34.8622C208.659 34.8622 208.458 34.7881 208.301 34.6386C208.286 34.6251 206.861 33.3065 205.584 33.7523C205.157 33.8991 204.694 33.6715 204.547 33.2445C204.399 32.8175 204.626 32.3502 205.052 32.2033C207.267 31.4383 209.334 33.3657 209.422 33.4492C209.749 33.7604 209.762 34.2789 209.452 34.6076C209.291 34.7773 209.077 34.8622 208.861 34.8622Z" fill="#343434"/>
<path d="M227.828 54.5474C227.31 54.5474 226.812 54.4868 226.335 54.3697C225.787 54.235 225.453 53.68 225.587 53.1305C225.721 52.5809 226.276 52.2456 226.82 52.3803C227.173 52.4665 227.53 52.5082 227.905 52.4988C229.658 52.4341 230.796 51.0495 231.318 50.2292C232.564 48.2708 232.953 45.48 232.224 43.7371C231.985 43.1646 231.444 42.7134 230.696 42.4642C229.458 42.0507 227.93 42.2447 226.704 42.9693C226.219 43.2562 225.593 43.0946 225.307 42.607C225.021 42.1194 225.182 41.4918 225.668 41.2049C227.385 40.1893 229.558 39.9267 231.34 40.5206C232.653 40.9597 233.636 41.8204 234.104 42.9451C235.1 45.3251 234.662 48.7746 233.037 51.331C231.766 53.3298 229.963 54.472 227.961 54.5461C227.917 54.5461 227.871 54.5474 227.827 54.5474H227.828Z" fill="#343434"/>
<path d="M208.114 68.7076C205.892 68.7076 203.965 68.1783 202.362 67.125C197.587 63.9934 196.054 53.5602 195.919 51.6179C195.862 51.5802 195.795 51.5384 195.737 51.5034C195.043 51.0751 193.75 50.2764 193.723 47.9651C193.704 45.6941 195.695 44.7055 196.75 44.4981C197.307 44.3917 197.838 44.7527 197.946 45.3076C198.053 45.8598 197.696 46.3959 197.146 46.5077C196.998 46.5387 195.752 46.839 195.761 47.9448C195.775 49.1234 196.229 49.4049 196.804 49.7605C197.247 50.0339 197.987 50.4919 197.947 51.4468C197.924 52.6752 199.518 62.8175 203.476 65.413C205.343 66.6387 207.838 66.9647 210.895 66.3788C214.079 65.778 216.693 64.3975 216.72 64.384C217.218 64.1186 217.834 64.3086 218.099 64.8069C218.364 65.3066 218.176 65.9249 217.678 66.1915C217.561 66.2549 214.774 67.7311 211.273 68.3911C210.162 68.6039 209.106 68.7103 208.11 68.7103L208.114 68.7076Z" fill="#343434"/>
<path d="M197.307 46.5021C197.266 46.5021 197.223 46.4994 197.18 46.494C196.62 46.424 196.223 45.9135 196.294 45.3519C196.486 43.8123 196.012 42.1799 195.812 41.4835L195.78 41.3704C194.191 35.8251 195.942 26.6876 198.574 21.634C199.331 20.1793 200.132 19.1112 200.952 18.462C201.396 18.1118 202.037 18.1886 202.385 18.6317C202.734 19.0762 202.659 19.72 202.216 20.0702C201.631 20.5335 200.997 21.4023 200.383 22.5822C197.983 27.1887 196.307 35.8049 197.741 40.8047L197.771 40.9124C198.008 41.73 198.562 43.6467 198.319 45.6051C198.254 46.1236 197.816 46.5021 197.308 46.5021H197.307Z" fill="#343434"/>
<path d="M234.583 73.5013C233.382 73.5013 232.28 73.4447 231.322 73.3491C226.461 72.8467 226.086 71.5281 225.964 71.0957C225.812 70.5798 225.791 69.8417 225.897 68.6376C226.022 67.1546 226.326 65.2272 226.65 63.188C227.094 60.3689 227.831 55.7166 227.455 54.6242C227.068 54.4182 226.843 53.975 226.933 53.5225C227.042 52.9675 227.576 52.6079 228.131 52.7157C230.21 53.1278 229.77 56.5099 228.664 63.5085C228.347 65.5114 228.048 67.4025 227.929 68.814C227.843 69.8013 227.872 70.2445 227.903 70.4344C228.161 70.6297 229.16 71.0688 231.529 71.3126C234.922 71.6533 240.279 71.4648 245.117 69.9064C247.966 68.9905 251.724 67.2125 253.456 63.9449C255.354 60.3877 253.395 27.5431 242.998 14.1453C239.447 9.57119 235.302 7.83771 230.667 8.99741C230.632 9.00683 230.598 9.01357 230.561 9.01761C230.025 9.16981 229.44 8.86406 229.285 8.31856C229.131 7.7744 229.429 7.21409 229.971 7.05919C230.054 7.03495 230.135 7.01474 230.214 6.99993C235.686 5.64762 240.527 7.62759 244.608 12.8873C255.225 26.5666 257.681 60.3635 255.257 64.9093C253.608 68.0167 250.406 70.3549 245.741 71.8567C241.969 73.0716 237.903 73.5027 234.583 73.5027V73.5013ZM227.922 70.5206C227.922 70.5206 227.922 70.5233 227.923 70.5246C227.923 70.5233 227.923 70.5219 227.922 70.5206Z" fill="#343434"/>
<path d="M225.297 38.3197C225.273 38.3197 225.249 38.3197 225.224 38.317C224.848 38.29 224.471 38.2442 224.104 38.1823C213.329 36.5552 203.945 23.4995 201.326 19.5369C200.977 19.0251 200.795 18.7193 200.795 18.7193C200.506 18.2344 200.663 17.6054 201.145 17.3158C201.631 17.0262 202.255 17.1825 202.543 17.666C202.553 17.6795 202.712 17.9462 203.017 18.3934C204.806 21.0993 214.207 34.617 224.426 36.1606C224.749 36.2158 225.057 36.2522 225.367 36.2751C225.929 36.3155 226.352 36.8044 226.312 37.3687C226.273 37.9089 225.826 38.3197 225.295 38.3197H225.297Z" fill="#343434"/>
<path d="M226.113 43.3168C225.721 43.3168 225.348 43.0905 225.181 42.7079L225.115 42.5598L223.256 38.1702C223.035 37.6503 223.278 37.0482 223.796 36.8273C224.316 36.6064 224.913 36.8489 225.134 37.3688L227.044 41.8756C227.273 42.3928 227.042 42.9975 226.526 43.2265C226.392 43.2871 226.251 43.3154 226.113 43.3154V43.3168Z" fill="#343434"/>
<path d="M51.5671 25.8108C51.0559 25.8108 50.6158 25.4256 50.5554 24.9044C50.491 24.3427 50.8922 23.8349 51.4517 23.7703C51.488 23.7662 55.1969 23.3244 57.3989 22.127C59.4601 21.0118 61.2837 19.1261 61.7936 18.5752L63.2884 19.9679C62.5665 20.7491 60.6409 22.6995 58.3691 23.9278C55.8196 25.3152 51.853 25.7852 51.6852 25.8041C51.645 25.8095 51.6061 25.8108 51.5671 25.8108Z" fill="#343434"/>
<path d="M52.0742 44.1841C51.9749 44.1841 51.8756 44.1693 51.7749 44.1383C50.9846 43.8945 50.3096 43.6022 49.7138 43.2426C46.1216 41.1239 45.6251 37.2043 46.2947 34.4917C46.9093 32.012 48.4269 30.2219 50.1593 29.9323C50.9604 29.7963 52.513 29.8865 53.8777 32.0039C54.0789 32.3123 54.2722 32.6585 54.448 33.0289C54.6908 33.5394 54.4748 34.1509 53.9662 34.3947C53.4576 34.6371 52.8484 34.4216 52.6069 33.9111C52.47 33.6242 52.3238 33.3589 52.1681 33.1232C51.7803 32.5238 51.1684 31.8382 50.4948 31.9541C49.7326 32.082 48.7262 33.1649 48.274 34.9873C47.7506 37.1114 48.1264 39.9332 50.7551 41.4835C51.2113 41.7569 51.7535 41.9913 52.3734 42.1812C52.9115 42.3469 53.2148 42.9193 53.0497 43.4608C52.9155 43.9012 52.5116 44.1854 52.0742 44.1854V44.1841Z" fill="#343434"/>
<path d="M54.5285 33.7428C54.0226 33.7428 53.5221 33.6539 53.0511 33.4263C52.5439 33.1811 52.3305 32.5683 52.5748 32.0592C52.819 31.55 53.4282 31.3345 53.9368 31.581C54.605 31.9029 55.8436 31.4759 56.8379 31.1311C57.2431 30.9911 57.6283 30.8591 57.9745 30.7675C63.8667 29.2064 66.4833 22.1809 68.4733 15.7197C69.1174 13.6333 70.7022 10.8331 73.0531 9.80269C74.2528 9.27874 75.5061 9.29894 76.6789 9.8633C77.1861 10.1084 77.4008 10.7199 77.1566 11.2291C76.9124 11.7396 76.3045 11.9537 75.7959 11.7086C75.1545 11.4001 74.5265 11.3894 73.869 11.6776C72.2681 12.378 70.9612 14.5762 70.4217 16.3218C68.8678 21.3687 65.9761 30.7621 58.4938 32.7447C58.1905 32.8242 57.855 32.9414 57.5021 33.064C56.599 33.3764 55.5484 33.7388 54.5258 33.7388L54.5285 33.7428Z" fill="#343434"/>
<path d="M38.9386 53.2031C38.6568 53.2031 38.422 53.1641 38.2462 53.0765C37.845 52.8772 37.5967 52.4798 37.5967 52.0394C37.5967 52.003 37.5981 51.9491 37.6021 51.9128C37.9376 48.7947 36.6709 47.5312 33.8958 44.7647C32.4936 43.3666 30.7465 41.625 28.7712 39.1655C24.6195 33.992 24.1578 15.8059 33.4316 6.07312C41.6425 -2.54581 53.549 -0.0162987 62.2443 1.82898C65.6084 2.54419 68.5123 3.16243 70.1037 2.83782C74.5319 1.93 78.5415 2.27481 80.8253 3.75911C82.6167 4.91611 83.8606 6.96478 84.0686 9.10638C84.231 10.7873 83.8539 13.3438 81.1326 15.9662C80.7274 16.3568 80.0806 16.3447 79.6914 15.9366C79.301 15.5285 79.3144 14.8806 79.721 14.4887C81.4077 12.8629 82.2088 11.0702 82.0384 9.30437C81.8613 7.47391 80.7247 6.12834 79.7196 5.48047C77.8974 4.29653 74.3682 4.05274 70.5103 4.84473C68.5042 5.2515 65.5561 4.62653 61.823 3.83319C53.5973 2.08624 42.3336 -0.305886 34.9076 7.49007C26.1653 16.6653 27.216 33.9624 30.3627 37.8819C32.2668 40.2539 33.9683 41.9496 35.3357 43.3127C37.9255 45.8947 39.7183 47.6821 39.6954 51.0548C41.2936 50.648 44.6537 49.3051 46.2009 48.1212C48.4512 46.3944 49.1168 42.9665 49.1235 42.9315C49.2281 42.3766 49.7635 42.0089 50.3124 42.1139C50.8666 42.2177 51.2316 42.7497 51.1296 43.306C51.0974 43.477 50.3231 47.5366 47.4408 49.7496C45.9352 50.9026 41.0897 53.2045 38.9413 53.2045L38.9386 53.2031Z" fill="#343434"/>
<path d="M70.4366 27.6617C70.2165 27.6617 69.9978 27.5728 69.8368 27.3977C69.5322 27.065 69.5523 26.5464 69.8838 26.2407C69.971 26.1598 72.0496 24.2755 74.1657 25.0958C74.587 25.2588 74.7964 25.7329 74.634 26.1545C74.4716 26.5774 73.998 26.7862 73.5793 26.6245C72.4065 26.1733 71.0042 27.4327 70.9895 27.4461C70.8325 27.5916 70.6339 27.663 70.4366 27.663V27.6617Z" fill="#343434"/>
<path d="M68.5055 64.9927C65.6701 64.9927 63.2038 64.3826 61.1534 63.1703C60.1953 62.606 59.3271 61.9069 58.5743 61.092C58.1905 60.6772 58.2147 60.0293 58.628 59.6454C59.0413 59.2616 59.6867 59.2845 60.0691 59.6993C60.6864 60.3674 61.4003 60.9412 62.188 61.4059C64.2732 62.6383 66.9167 63.1367 70.054 62.8821C76.5085 62.3676 79.0715 47.5488 79.1198 46.1938C79.1278 45.3169 79.8001 44.8469 80.2899 44.5034C80.9152 44.0656 81.5056 43.6521 81.5781 42.4143C81.6237 41.6156 80.7837 41.4082 80.2724 41.357C79.7491 41.3125 79.3278 40.8721 79.3278 40.3374C79.3278 39.7717 79.7719 39.3137 80.3355 39.3137H80.3597C80.3932 39.3137 80.4254 39.3151 80.459 39.3191C82.1108 39.4821 83.7264 40.5381 83.6137 42.5342C83.4822 44.766 82.2128 45.655 81.4546 46.1857C81.3553 46.2557 81.2292 46.3433 81.1487 46.4093C80.9675 48.7623 78.1603 64.2923 70.2137 64.9267C69.63 64.9739 69.0597 64.9967 68.5042 64.9967L68.5055 64.9927Z" fill="#343434"/>
<path d="M80.3584 41.3341C79.8713 41.3341 79.4392 40.9812 79.3547 40.4815C79.3024 40.1717 79.2272 39.8834 79.1534 39.5966C78.8851 38.5473 78.5804 37.3566 79.1991 35.5396C82.2008 26.7187 82.0693 20.372 78.7951 16.1332C78.2168 15.3817 77.523 14.684 76.7273 14.059C76.2831 13.7101 76.2053 13.0663 76.5529 12.6218C76.9018 12.1773 77.5432 12.0992 77.9846 12.4481C78.9146 13.1781 79.7291 13.997 80.4081 14.882C84.1345 19.7039 84.3693 26.6783 81.1273 36.2023C80.706 37.4401 80.8925 38.1675 81.1273 39.0874C81.2146 39.4282 81.3004 39.7717 81.3635 40.1394C81.4574 40.697 81.0844 41.2263 80.5289 41.3206C80.4712 41.33 80.4135 41.3354 80.3571 41.3354L80.3584 41.3341Z" fill="#343434"/>
<path d="M76.2804 51.7607C74.4179 51.7607 71.8093 50.8475 71.1773 50.4272C70.7076 50.1147 70.5801 49.479 70.8914 49.0076C71.2041 48.5362 71.8361 48.4082 72.3058 48.7207C72.9955 49.18 76.0469 49.9046 76.7004 49.6837C77.1768 49.3861 77.7806 49.5463 78.0772 50.0258C78.3751 50.5054 78.202 51.1519 77.7229 51.4495C77.3687 51.6704 76.8601 51.7593 76.2791 51.7593L76.2804 51.7607Z" fill="#343434"/>
<path d="M200.982 56.4222C200.401 56.4222 199.894 56.3333 199.541 56.1124C199.064 55.8134 198.917 55.1817 199.215 54.7022C199.505 54.2348 200.109 54.0839 200.581 54.352C201.28 54.5634 204.249 53.8523 204.95 53.3835C205.42 53.071 206.053 53.199 206.365 53.6704C206.676 54.1418 206.549 54.7776 206.079 55.0901C205.448 55.5103 202.842 56.4235 200.982 56.4235V56.4222Z" fill="#343434"/>
<path d="M73.2921 56.2835C73.0921 56.2835 72.8895 56.2242 72.7124 56.1016C70.8056 54.7776 70.9693 51.6824 71.0578 50.0203C71.0874 49.4559 71.5678 49.0115 72.13 49.0519C72.6922 49.0815 73.1243 49.5637 73.0948 50.1281C73.0371 51.2096 72.9029 53.7432 73.8731 54.4166C74.3374 54.7386 74.4528 55.3756 74.1321 55.8417C73.9335 56.1286 73.6155 56.2835 73.2921 56.2835Z" fill="#343434"/>
<path d="M203.966 60.944C203.642 60.944 203.324 60.7904 203.127 60.5022C202.806 60.0375 202.922 59.3991 203.385 59.0772C204.355 58.4037 204.22 55.8701 204.163 54.7886C204.132 54.2242 204.564 53.742 205.128 53.7124C205.682 53.6801 206.17 54.1165 206.2 54.6808C206.288 56.3429 206.452 59.4381 204.547 60.7621C204.369 60.8847 204.167 60.944 203.967 60.944H203.966Z" fill="#343434"/>
</g>
<defs>
<clipPath id="clip0_213_1724">
<rect width="276" height="179" fill="white"/>
</clipPath>
</defs>
</svg>
