<svg width="320" height="320" viewBox="0 0 320 320" fill="none" xmlns="http://www.w3.org/2000/svg">
<rect width="320" height="320" fill="white"/>
<path d="M282.843 150.693C275.181 139.385 264.553 129.64 250.583 126.984C235.126 124.046 218.697 123.644 204.408 118.026C195.553 114.544 187.996 109.226 179.467 105.242C144.463 88.8936 98.2072 96.8176 75.3776 129.445C70.4001 136.559 66.5512 144.687 59.9074 150.274C55.1613 154.264 49.2621 156.702 44.5542 160.738C37.2046 167.038 33.5184 176.502 30.106 185.565C22.6826 205.281 13.1767 233.424 31.9241 249.983C44.7042 261.272 44.9168 260.009 60.2205 268.99C76.5727 278.586 172.145 287.921 198.318 277.262C224.49 266.602 238.669 270.128 261.816 255.567C289.186 238.35 304.126 204.966 295.611 177.627C292.661 168.085 288.362 159.015 282.843 150.693Z" fill="#FAF7DE"/>
<path d="M221.199 217.963C220.058 220.4 221.628 222.791 222.148 223.576C222.239 223.722 222.367 224.014 222.495 224.297L222.613 224.571C222.978 225.374 223.124 225.876 223.188 226.159C222.924 226.278 222.422 226.47 221.527 226.67C216.316 227.839 211.086 227.355 206.65 226.725C195.881 225.201 187.648 220.51 181.46 212.378C180.548 211.173 178.914 210.781 177.545 211.429C176.176 212.086 175.455 213.61 175.82 215.079C177.198 220.701 177.454 225.557 176.614 230.33C174.916 239.576 170.389 247.598 162.778 254.863C161.536 256.05 160.806 256.597 160.386 256.862C160.103 256.46 159.62 255.666 158.89 254.069C158.369 252.928 157.146 250.263 154.436 249.926C154.262 249.907 154.08 249.898 153.906 249.898C151.533 249.898 149.945 251.879 149.398 252.563C149.288 252.7 149.051 252.91 148.823 253.111L148.594 253.321C147.937 253.914 147.508 254.206 147.262 254.352C147.061 254.142 146.733 253.722 146.267 252.928C143.538 248.338 142.388 243.208 141.612 238.809C139.732 228.094 141.649 218.803 147.472 210.415C148.339 209.174 148.211 207.495 147.162 206.39C146.121 205.295 144.451 205.085 143.164 205.879C138.245 208.928 133.709 210.671 128.899 211.346C127.019 211.593 125.148 211.721 123.277 211.721C115.92 211.721 108.683 209.758 101.299 205.77C99.784 204.958 99.0356 204.428 98.6614 204.118C98.9443 203.725 99.5558 203.023 100.852 201.827C101.774 200.978 103.928 198.989 103.407 196.314C102.896 193.677 100.231 192.664 99.3459 192.335C99.1816 192.271 98.9078 192.116 98.6432 191.961L98.3785 191.806C97.6118 191.368 97.2011 191.048 96.9912 190.857C97.1281 190.601 97.4293 190.154 98.0316 189.469C101.555 185.463 106.072 182.779 110.024 180.68C119.635 175.578 129.063 174.538 138.838 177.477C140.289 177.915 141.85 177.276 142.571 175.943C143.292 174.611 142.981 172.959 141.822 171.982C137.396 168.249 134.338 164.462 132.212 160.108C128.15 151.629 127.092 142.475 128.99 132.134C129.3 130.437 129.565 129.561 129.747 129.113C130.213 129.259 131.071 129.624 132.595 130.482C133.69 131.103 136.255 132.536 138.628 131.222C140.983 129.917 141.12 127.06 141.165 126.12C141.165 125.946 141.238 125.636 141.302 125.335L141.366 125.043C141.548 124.176 141.722 123.683 141.841 123.418C142.123 123.482 142.644 123.619 143.483 123.984C148.385 126.102 152.336 129.57 155.549 132.682C163.362 140.239 167.277 148.882 167.496 159.095C167.524 160.601 168.619 161.888 170.106 162.162C171.603 162.436 173.073 161.632 173.648 160.227C175.829 154.869 178.485 150.79 181.971 147.422C188.78 140.933 197.158 137.109 207.581 135.703C209.288 135.475 210.201 135.457 210.685 135.493C210.685 135.986 210.602 136.908 210.265 138.633C210.018 139.856 209.434 142.74 211.424 144.602C213.395 146.436 216.151 145.679 217.055 145.432C217.219 145.387 217.539 145.35 217.84 145.323L218.15 145.286C219.026 145.195 219.547 145.204 219.83 145.241C219.866 145.533 219.894 146.062 219.802 146.975C219.309 152.296 217.228 157.115 215.266 161.14C210.484 170.905 203.474 177.294 193.836 180.662C192.412 181.164 191.527 182.597 191.728 184.094C191.92 185.6 193.143 186.749 194.658 186.859C200.435 187.288 205.126 188.547 209.416 190.82C217.685 195.292 223.909 202.073 228.464 211.556C229.212 213.108 229.504 213.975 229.623 214.45C229.157 214.596 228.254 214.805 226.51 215.015C225.269 215.152 222.349 215.499 221.199 217.963Z" fill="white"/>
<path d="M88.0742 208.581C97.2376 213.528 107.058 215.928 117.618 214.513C123.423 213.692 128.47 211.492 133.143 208.59C126.608 218.009 124.819 228.286 126.763 239.357C127.685 244.641 129.026 249.862 131.81 254.553C134.046 258.331 135.808 258.614 139.039 255.685C139.431 255.329 139.851 254.973 140.189 254.562C142.133 252.134 143.146 252.919 144.287 255.411C146.997 261.316 148.512 261.727 153.286 257.181C160.824 249.999 166.136 241.401 168.062 230.914C169.075 225.146 168.537 219.661 167.232 214.322C174.168 223.448 183.386 228.322 194.521 229.901C199.833 230.65 205.208 230.987 210.538 229.801C214.819 228.842 215.64 227.254 213.842 223.275C213.623 222.782 213.423 222.28 213.13 221.833C211.424 219.241 212.482 218.511 215.202 218.201C221.655 217.452 222.513 216.138 219.665 210.196C215.157 200.805 208.622 193.102 199.249 188.027C194.074 185.28 188.689 184.093 183.204 183.692C194.028 179.913 201.512 172.648 206.45 162.554C208.804 157.735 210.794 152.724 211.296 147.294C211.707 142.922 210.447 141.663 206.112 142.137C205.583 142.192 205.035 142.229 204.524 142.375C201.53 143.196 201.165 141.964 201.704 139.281C202.981 132.91 202.005 131.687 195.47 132.563C185.148 133.95 175.802 137.775 168.08 145.131C163.873 149.201 161.08 153.957 158.999 159.049C158.753 147.586 154.162 138.222 146.085 130.409C142.224 126.676 138.08 123.245 133.07 121.082C129.036 119.338 127.447 120.151 126.562 124.413C126.453 124.942 126.316 125.463 126.298 126.001C126.151 129.104 124.865 129.068 122.483 127.726C116.815 124.541 115.354 125.097 114.168 131.587C112.297 141.827 113.045 151.903 117.654 161.514C120.228 166.78 123.888 170.905 128.086 174.446C117.107 171.142 106.784 172.612 96.8543 177.887C92.1174 180.406 87.5631 183.29 83.958 187.388C81.0557 190.683 81.3295 192.445 85.1171 194.608C85.5826 194.872 86.0481 195.164 86.5409 195.356C89.4433 196.451 89.0143 197.665 87.0064 199.518C82.2239 203.917 82.306 205.487 88.1016 208.617L88.0742 208.581Z" fill="#F7DFDB"/>
<path d="M234.223 208.791C229.139 198.204 221.819 190.264 212.428 185.189C210.137 183.975 207.718 182.99 205.144 182.241C211.844 177.942 217.155 171.818 221.007 163.942C223.097 159.67 225.57 153.948 226.164 147.577C226.374 145.341 226.364 142.521 224.402 140.595C222.449 138.67 219.665 138.697 217.457 138.943L217.192 138.962C217.037 138.98 216.872 138.998 216.69 139.016C217.238 136.032 217.457 133.047 215.513 130.976C213.377 128.694 210 128.931 206.732 129.378C195.087 130.939 185.275 135.448 177.545 142.813C175.683 144.611 174.004 146.61 172.489 148.828C170.472 141.134 166.291 134.188 159.994 128.082C156.571 124.779 151.898 120.662 146.021 118.116C143.958 117.231 141.275 116.373 138.829 117.641C136.401 118.901 135.561 121.557 135.114 123.738L135.059 123.994C135.023 124.149 134.986 124.313 134.959 124.486C132.285 123.044 129.51 121.922 126.936 123.117C124.116 124.45 123.295 127.736 122.702 130.985C120.584 142.539 121.853 153.263 126.462 162.892C127.603 165.22 128.981 167.437 130.615 169.555C122.674 169.099 114.779 170.924 107.031 175.04C102.832 177.267 97.4658 180.443 93.24 185.244C91.7523 186.932 90.1095 189.214 90.5567 191.934C91.0039 194.635 93.2766 196.251 95.2115 197.355L95.4305 197.483C95.5674 197.565 95.7134 197.647 95.8777 197.739C93.6781 199.829 91.7432 202.12 92.0992 204.94C92.4825 208.034 95.3575 209.823 98.2598 211.392C108.601 216.978 119.197 219.086 129.775 217.681C132.34 217.316 134.868 216.686 137.396 215.782C134.503 223.193 133.809 231.271 135.324 239.914C136.136 244.596 137.505 250.674 140.764 256.187C141.914 258.122 143.575 260.385 146.294 260.796C149.014 261.207 151.25 259.546 152.893 258.049L153.085 257.876C153.204 257.766 153.331 257.656 153.459 257.538C154.773 260.276 156.352 262.822 159.145 263.352C159.483 263.416 159.821 263.452 160.158 263.452C162.787 263.452 165.068 261.508 167.186 259.482C175.692 251.377 180.977 241.958 182.902 231.462C183.349 228.907 183.541 226.306 183.459 223.622C189.611 228.66 197.076 231.827 205.756 233.05C210.465 233.717 216.672 234.301 222.924 232.904C225.114 232.412 227.788 231.535 229.02 229.071C230.243 226.616 229.358 223.978 228.445 221.952L228.336 221.715C228.272 221.569 228.208 221.414 228.126 221.249C231.138 220.848 234.049 220.127 235.418 217.644C236.924 214.906 235.656 211.776 234.223 208.791ZM226.51 215.016C225.269 215.153 222.349 215.499 221.199 217.964C220.058 220.401 221.628 222.792 222.148 223.577C222.239 223.723 222.367 224.015 222.495 224.298L222.613 224.572C222.978 225.375 223.124 225.877 223.188 226.16C222.924 226.278 222.422 226.47 221.527 226.671C216.316 227.839 211.086 227.355 206.65 226.726C195.881 225.201 187.648 220.51 181.46 212.378C180.548 211.173 178.914 210.781 177.545 211.429C176.176 212.086 175.455 213.61 175.82 215.08C177.198 220.702 177.454 225.557 176.614 230.331C174.916 239.576 170.389 247.599 162.778 254.864C161.536 256.05 160.806 256.598 160.386 256.862C160.103 256.461 159.62 255.667 158.89 254.07C158.369 252.929 157.146 250.264 154.436 249.926C154.262 249.908 154.08 249.899 153.906 249.899C151.533 249.899 149.945 251.879 149.398 252.564C149.288 252.701 149.051 252.91 148.823 253.111L148.594 253.321C147.937 253.914 147.508 254.207 147.262 254.353C147.061 254.143 146.733 253.723 146.267 252.929C143.538 248.338 142.388 243.209 141.612 238.81C139.732 228.095 141.649 218.803 147.472 210.416C148.339 209.175 148.211 207.495 147.162 206.391C146.121 205.296 144.451 205.086 143.164 205.88C138.245 208.928 133.709 210.671 128.899 211.347C127.019 211.593 125.148 211.721 123.277 211.721C115.92 211.721 108.683 209.759 101.299 205.77C99.784 204.958 99.0356 204.429 98.6614 204.118C98.9443 203.726 99.5558 203.023 100.852 201.827C101.774 200.979 103.928 198.989 103.407 196.315C102.896 193.677 100.231 192.664 99.3459 192.336C99.1816 192.272 98.9078 192.116 98.6432 191.961L98.3784 191.806C97.6118 191.368 97.2011 191.049 96.9912 190.857C97.1281 190.601 97.4292 190.154 98.0316 189.47C101.555 185.463 106.072 182.78 110.024 180.681C119.635 175.579 129.063 174.538 138.838 177.477C140.289 177.915 141.85 177.276 142.571 175.944C143.292 174.611 142.981 172.959 141.822 171.983C137.396 168.25 134.338 164.462 132.212 160.109C128.15 151.63 127.092 142.475 128.99 132.135C129.3 130.437 129.565 129.561 129.747 129.114C130.213 129.26 131.071 129.625 132.595 130.483C133.69 131.103 136.255 132.536 138.628 131.222C140.983 129.917 141.12 127.06 141.165 126.12C141.165 125.947 141.238 125.636 141.302 125.335L141.366 125.043C141.548 124.176 141.722 123.683 141.841 123.419C142.123 123.482 142.644 123.619 143.483 123.984C148.385 126.102 152.336 129.57 155.549 132.682C163.362 140.239 167.277 148.883 167.496 159.096C167.524 160.601 168.619 161.888 170.106 162.162C171.603 162.436 173.073 161.633 173.648 160.227C175.829 154.87 178.485 150.79 181.971 147.422C188.78 140.933 197.158 137.109 207.581 135.703C209.288 135.475 210.201 135.457 210.684 135.493C210.684 135.986 210.602 136.908 210.265 138.633C210.018 139.856 209.434 142.74 211.424 144.602C213.395 146.437 216.151 145.679 217.055 145.433C217.219 145.387 217.539 145.35 217.84 145.323L218.15 145.287C219.026 145.195 219.547 145.204 219.83 145.241C219.866 145.533 219.893 146.062 219.802 146.975C219.309 152.296 217.228 157.115 215.266 161.14C210.484 170.906 203.474 177.294 193.836 180.662C192.412 181.164 191.527 182.597 191.728 184.094C191.92 185.6 193.143 186.75 194.658 186.859C200.435 187.288 205.126 188.548 209.416 190.82C217.685 195.293 223.909 202.074 228.464 211.557C229.212 213.108 229.504 213.975 229.623 214.45C229.157 214.596 228.254 214.806 226.51 215.016Z" fill="#343434"/>
</svg>
