<svg width="320" height="293" viewBox="0 0 320 293" fill="none" xmlns="http://www.w3.org/2000/svg">
<path d="M282.843 150.693C275.181 139.385 264.553 129.64 250.583 126.984C235.126 124.046 218.697 123.644 204.408 118.026C195.553 114.544 187.996 109.226 179.467 105.242C144.463 88.8936 98.2072 96.8176 75.3776 129.445C70.4001 136.559 66.5512 144.687 59.9074 150.274C55.1613 154.264 49.2621 156.702 44.5542 160.738C37.2046 167.038 33.5184 176.502 30.106 185.565C22.6826 205.281 13.1767 233.424 31.9241 249.983C44.7042 261.272 44.9168 260.009 60.2205 268.99C76.5727 278.586 172.145 287.921 198.318 277.262C224.49 266.602 238.669 270.128 261.816 255.567C289.186 238.35 304.126 204.966 295.611 177.627C292.661 168.085 288.362 159.015 282.843 150.693V150.693Z" fill="#FAF7DE"/>
<g clip-path="url(#clip0)">
<path d="M65.333 175.164H40.1211V277.884H116.826V175.164H65.333Z" fill="#F2E98C"/>
<path d="M118.887 171.048H38.0606C37.5144 171.049 36.991 171.266 36.6049 171.652C36.2187 172.038 36.0012 172.56 36 173.106V279.942C36.0077 280.485 36.2273 281.004 36.6121 281.389C36.9969 281.773 37.5165 281.992 38.0606 282H118.887C119.431 281.992 119.95 281.773 120.335 281.389C120.72 281.004 120.94 280.485 120.947 279.942V173.106C120.94 172.562 120.72 172.043 120.335 171.659C119.95 171.275 119.431 171.056 118.887 171.048ZM116.826 209.141V277.884H40.1211V175.164H116.826V209.141Z" fill="#323232"/>
<path d="M223.678 130.65V144.892C223.678 147.545 219.557 147.541 219.557 144.892V130.65H212.52V144.892C212.52 147.545 208.399 147.541 208.399 144.892V130.65H201.363V144.892C201.363 147.545 197.242 147.541 197.242 144.892V130.65H190.206V144.892C190.206 147.545 186.085 147.541 186.085 144.892V130.65H179.049V144.892C179.049 147.545 174.927 147.541 174.927 144.892V130.65H167.125V157.321H187.012C189.445 152.997 192.958 149.867 198.262 150.004C198.357 150 198.452 150.003 198.547 150.011C198.641 150.016 198.735 150.026 198.828 150.042C200.487 150.162 202.085 150.716 203.463 151.646C205.402 153.034 206.489 155.087 207.039 157.321H230.072V130.65H223.678Z" fill="#F2E98C"/>
<path d="M256.776 122.597V153.324C256.776 155.977 252.655 155.973 252.655 153.324V122.597C252.655 122.417 252.677 122.237 252.72 122.062H245.536C245.579 122.237 245.601 122.417 245.601 122.597V153.324C245.601 155.977 241.479 155.973 241.479 153.324V122.597C241.479 122.417 241.501 122.237 241.544 122.062H234.193V157.321H264.25V122.062H256.712C256.755 122.237 256.776 122.417 256.776 122.597V122.597Z" fill="white"/>
<path d="M273.44 212.117H263.941V191.898C264.473 191.878 264.976 191.652 265.345 191.269C265.714 190.886 265.921 190.376 265.922 189.844V181.291C265.914 180.747 265.694 180.228 265.31 179.844C264.925 179.46 264.405 179.24 263.861 179.233H225.613C225.069 179.24 224.549 179.46 224.165 179.844C223.78 180.228 223.56 180.747 223.553 181.291V189.844C223.561 190.373 223.77 190.879 224.138 191.259C224.506 191.64 225.004 191.867 225.533 191.894V212.117H207.001C204.349 212.117 204.345 216.233 207.001 216.233H226.927C227.14 216.313 227.366 216.355 227.594 216.358H261.88C262.131 216.359 262.38 216.317 262.616 216.233H273.44C276.092 216.233 276.097 212.117 273.44 212.117ZM259.82 212.242H229.654V191.902H259.82V212.242ZM261.8 187.786H227.674V183.349H261.8V187.786Z" fill="#323232"/>
<path d="M283.85 47.8103C283.85 45.1619 279.728 45.1576 279.728 47.8103V240.253C279.728 249.073 279.39 257.968 279.728 266.783C279.733 266.904 279.728 267.026 279.728 267.148C279.728 269.796 283.85 269.801 283.85 267.148V74.7053C283.85 65.8858 284.188 56.9906 283.85 48.1755C283.845 48.0542 283.85 47.9318 283.85 47.8103Z" fill="#323232"/>
<path d="M151.153 47.8103V185.665C151.153 188.314 155.274 188.318 155.274 185.665V47.8103C155.274 45.1619 151.153 45.1576 151.153 47.8103Z" fill="#323232"/>
<path d="M110.555 119.746H92.9812C91.2097 119.746 89.4138 119.658 87.6441 119.746C86.0569 119.825 84.9627 120.394 84.2204 121.256H77.5794C76.3777 121.256 75.6381 122.205 75.5189 123.314C74.33 134.371 73.1411 145.429 71.9523 156.486C71.6695 159.117 75.7927 159.097 76.0734 156.486C77.1885 146.115 78.3036 135.743 79.4187 125.371H82.8507C82.8232 125.858 82.8196 126.352 82.8394 126.846C83.0968 133.265 90.7916 131.839 95.1947 131.839H111.216C111.372 131.856 111.53 131.856 111.685 131.839C111.922 131.841 112.158 131.804 112.383 131.729C116.045 130.966 116.818 127.375 116.354 123.928C115.934 120.815 113.328 119.746 110.555 119.746ZM111.685 127.724H101.264C96.9273 127.724 92.4496 128.05 88.1238 127.724C87.8038 127.699 87.4065 127.801 87.139 127.545C86.7191 127.144 86.7852 124.98 86.9606 124.499C87.3322 123.481 89.009 123.862 89.9149 123.862H104.814C106.86 123.862 108.936 123.759 110.98 123.862C111.598 123.893 111.999 123.744 112.287 124.462C112.527 125.061 112.53 127.638 111.685 127.724Z" fill="#323232"/>
<path d="M178.606 234.291C174.087 233.091 169.568 231.891 165.05 230.691C162.484 230.01 161.389 233.979 163.954 234.66C168.473 235.86 172.992 237.06 177.51 238.26C180.076 238.941 181.171 234.972 178.606 234.291Z" fill="#323232"/>
<path d="M134.691 215.519C134.348 215.482 134.002 215.482 133.659 215.519C131.747 215.982 131.646 219.068 132.349 220.523C133.053 221.979 134.125 221.713 135.457 221.713H151.447C151.483 219.648 151.522 217.584 151.562 215.519H134.691Z" fill="#E6E6E6"/>
<path d="M181.098 197.624C180.039 203.077 179.019 208.539 178.037 214.008C177.879 214.885 176.885 215.519 176.05 215.519H155.691C155.651 217.584 155.611 219.648 155.571 221.713H185.642C186.936 221.713 188.009 221.787 189.172 221.041C191.361 219.638 191.747 217.821 192.211 215.56C192.895 212.234 193.587 208.909 194.286 205.586C194.845 202.931 195.407 200.277 195.974 197.624H181.098V197.624Z" fill="#E6E6E6"/>
<path d="M198.547 154.127C193.438 153.885 190.812 158.454 189.181 162.675C187.032 168.24 185.937 174.181 184.689 179.995C183.724 184.492 182.799 188.997 181.912 193.508H196.862C198.161 187.493 199.495 181.485 200.865 175.485C201.968 170.684 207.49 154.941 198.547 154.127Z" fill="#E6E6E6"/>
<path d="M273.44 157.321H268.371V120.004C268.363 119.461 268.144 118.942 267.759 118.558C267.374 118.173 266.855 117.954 266.311 117.946H232.133C231.589 117.954 231.069 118.173 230.684 118.558C230.299 118.942 230.08 119.461 230.072 120.004V126.534H165.064C164.52 126.542 164.001 126.761 163.616 127.145C163.231 127.529 163.012 128.048 163.004 128.592V157.321H160.754C158.103 157.321 158.098 161.436 160.754 161.436H185.11C183.228 166.352 182.235 171.857 181.387 175.785C180.112 181.684 178.892 187.591 177.727 193.508H173.813C169.804 193.508 165.897 193.321 162.11 194.967C155.696 197.755 151.836 204.023 151.659 210.918C151.654 211.08 151.652 211.242 151.648 211.403H134.834C132.161 211.403 129.913 212.281 128.675 214.893C126.724 219.006 128.387 225.555 133.656 225.829C134.714 225.884 135.789 225.829 136.848 225.829H157.467C157.465 225.868 157.462 225.905 157.462 225.945V262.581C155.806 263.155 154.407 264.297 153.515 265.803C152.622 267.31 152.293 269.084 152.586 270.81C152.879 272.536 153.775 274.102 155.115 275.23C156.455 276.359 158.152 276.976 159.905 276.973C163.859 276.973 166.789 273.936 167.267 270.206C167.349 269.779 167.349 269.341 167.267 268.914C166.86 265.734 164.669 263.063 161.583 262.342V225.945C161.583 225.905 161.579 225.868 161.577 225.829H177.168C180.664 225.829 184.297 226.118 187.782 225.788C191.439 225.442 194.831 222.246 195.756 218.751C196.424 216.224 196.816 213.589 197.349 211.031C199.554 200.449 201.817 189.879 204.209 179.338C205.466 173.801 207.271 168.166 207.496 162.465C207.509 162.126 207.512 161.782 207.51 161.436H273.44C276.092 161.436 276.097 157.321 273.44 157.321ZM151.447 221.713H135.457C134.125 221.713 133.053 221.979 132.349 220.523C131.646 219.068 131.747 215.982 133.659 215.519C134.002 215.482 134.348 215.482 134.691 215.519H151.562C151.523 217.584 151.484 219.649 151.447 221.713ZM156.261 207.34C156.754 205.578 157.605 203.936 158.76 202.517C159.915 201.098 161.351 199.931 162.977 199.09C166.384 197.328 170.116 197.624 173.813 197.624H176.927C176.039 202.211 175.176 206.804 174.341 211.403H155.77C155.764 210.033 155.929 208.669 156.261 207.34V207.34ZM163.207 269.559C162.994 273.772 156.603 273.843 156.603 269.559C156.603 265.274 162.994 265.345 163.207 269.559ZM194.286 205.586C193.587 208.909 192.896 212.234 192.211 215.56C191.747 217.821 191.361 219.638 189.172 221.041C188.009 221.787 186.936 221.713 185.642 221.713H155.571C155.611 219.649 155.651 217.584 155.691 215.519H176.05C176.885 215.519 177.879 214.885 178.037 214.008C179.021 208.539 180.041 203.077 181.098 197.624H195.974C195.407 200.277 194.845 202.931 194.286 205.586ZM200.865 175.485C199.487 181.483 198.152 187.491 196.862 193.508H181.912C182.807 188.998 183.733 184.494 184.689 179.995C185.937 174.182 187.032 168.24 189.181 162.675C190.812 158.454 193.438 153.885 198.547 154.127C207.49 154.941 201.968 170.684 200.865 175.485ZM230.072 153.463V157.321H207.039C206.489 155.087 205.402 153.034 203.463 151.646C202.085 150.716 200.487 150.162 198.828 150.042C198.735 150.026 198.641 150.016 198.547 150.011C198.452 150.003 198.357 150 198.262 150.004C192.958 149.867 189.445 152.997 187.012 157.321H167.125V130.65H174.927V144.892C174.927 147.541 179.049 147.545 179.049 144.892V130.65H186.085V144.892C186.085 147.541 190.206 147.545 190.206 144.892V130.65H197.242V144.892C197.242 147.541 201.363 147.545 201.363 144.892V130.65H208.399V144.892C208.399 147.541 212.52 147.545 212.52 144.892V130.65H219.557V144.892C219.557 147.541 223.678 147.545 223.678 144.892V130.65H230.072V153.463ZM264.25 153.463V157.321H234.193V122.062H241.544C241.501 122.237 241.479 122.417 241.479 122.597V153.324C241.479 155.973 245.601 155.977 245.601 153.324V122.597C245.601 122.417 245.579 122.237 245.536 122.062H252.72C252.677 122.237 252.655 122.417 252.655 122.597V153.324C252.655 155.973 256.776 155.977 256.776 153.324V122.597C256.776 122.417 256.755 122.237 256.712 122.062H264.25V153.463Z" fill="#323232"/>
<path d="M130.938 269.559C130.938 273.843 137.329 273.772 137.542 269.559C137.329 265.345 130.938 265.274 130.938 269.559Z" fill="#E6E6E6"/>
<path d="M153.119 252.478C147.388 255.767 141.656 259.056 135.925 262.344C135.373 262.213 134.807 262.146 134.24 262.145C132.271 262.145 130.383 262.926 128.991 264.317C127.599 265.707 126.817 267.593 126.817 269.559C126.817 271.525 127.599 273.411 128.991 274.802C130.383 276.192 132.271 276.973 134.24 276.973C138.193 276.973 141.124 273.936 141.602 270.206C141.684 269.779 141.684 269.341 141.602 268.914C141.417 267.418 140.817 266.002 139.869 264.828C144.979 261.896 150.089 258.964 155.199 256.032C157.498 254.713 155.425 251.155 153.119 252.478ZM130.938 269.559C130.938 265.274 137.329 265.345 137.542 269.559C137.329 273.772 130.938 273.843 130.938 269.559Z" fill="#323232"/>
<path d="M156.603 269.559C156.603 273.843 162.994 273.772 163.207 269.559C162.994 265.345 156.603 265.274 156.603 269.559Z" fill="#E6E6E6"/>
<path d="M180.736 269.559C180.736 273.843 187.127 273.772 187.34 269.559C187.127 265.345 180.736 265.274 180.736 269.559Z" fill="#E6E6E6"/>
<path d="M184.038 262.145C183.855 262.145 183.676 262.16 183.496 262.173C183.35 262.032 183.185 261.913 183.006 261.818C177.185 258.705 171.363 255.591 165.542 252.478C163.204 251.228 161.12 254.78 163.462 256.032C168.603 258.782 173.744 261.531 178.885 264.28C177.82 265.301 177.086 266.618 176.777 268.06C176.469 269.502 176.601 271.004 177.156 272.37C177.71 273.737 178.663 274.906 179.89 275.726C181.116 276.547 182.562 276.981 184.038 276.973C187.991 276.973 190.922 273.936 191.4 270.206C191.482 269.779 191.482 269.341 191.4 268.914C190.923 265.183 187.992 262.145 184.038 262.145ZM180.736 269.559C180.736 265.274 187.127 265.345 187.34 269.559C187.127 273.772 180.736 273.843 180.736 269.559Z" fill="#323232"/>
<path d="M52.9521 130.54H41.631C41.9381 131.269 42.2453 131.998 42.5524 132.727C47.0153 143.32 51.4782 153.913 55.9411 164.505H67.2623C66.9551 163.776 66.648 163.047 66.3409 162.318C61.878 151.726 57.4151 141.133 52.9521 130.54Z" fill="#F2E98C"/>
<path d="M98.3163 164.505H71.6972C67.2343 153.913 62.7713 143.32 58.3085 132.727C57.6354 131.13 56.9625 129.533 56.2895 127.935C55.9304 127.083 55.2946 126.424 54.3025 126.424H38.5465C37.3495 126.424 36.0267 127.765 36.5595 129.029C41.2346 140.126 45.9097 151.222 50.5848 162.318C51.2578 163.916 51.9308 165.513 52.6038 167.11C52.9629 167.963 53.5986 168.621 54.5908 168.621H98.3163C100.968 168.621 100.972 164.505 98.3163 164.505ZM64.7641 164.505H55.9411C51.4782 153.913 47.0153 143.32 42.5524 132.727C42.2453 131.998 41.9381 131.269 41.631 130.54H52.9521C57.415 141.133 61.8779 151.726 66.3409 162.318C66.648 163.047 66.9552 163.776 67.2623 164.505H64.7641Z" fill="#323232"/>
<path d="M110.98 123.862C108.936 123.759 106.86 123.862 104.814 123.862H89.9149C89.009 123.862 87.3322 123.481 86.9606 124.499C86.7852 124.98 86.7191 127.144 87.139 127.545C87.4065 127.801 87.8038 127.699 88.1238 127.724C92.4496 128.051 96.9273 127.724 101.264 127.724H111.685C112.53 127.638 112.527 125.061 112.287 124.462C111.999 123.744 111.598 123.893 110.98 123.862Z" fill="white"/>
<path d="M201.027 78.3661L201.027 78.375V94.5664C201.027 97.2192 196.906 97.2148 196.906 94.5664V78.375L196.906 78.3661H190.172L190.173 78.375V94.5664C190.173 97.2192 186.052 97.2148 186.052 94.5664V78.375L186.052 78.3661H179.318L179.318 78.375V94.5664C179.318 97.2192 175.197 97.2148 175.197 94.5664V78.375L175.197 78.3661H168.239V100.604H207.037V78.3661H201.027Z" fill="white"/>
<path d="M273.44 100.604H269.612V69.9118C269.604 69.3684 269.385 68.8494 269 68.4651C268.615 68.0808 268.095 67.8615 267.551 67.8538H219.364C218.82 67.8616 218.3 68.0809 217.915 68.4651C217.531 68.8494 217.311 69.3684 217.303 69.9118V100.604H211.158V76.3082C211.15 75.7648 210.931 75.2458 210.546 74.8615C210.161 74.4773 209.641 74.258 209.097 74.2502H166.178C165.634 74.258 165.115 74.4773 164.73 74.8615C164.345 75.2458 164.125 75.7648 164.118 76.3082V100.604H160.754C158.103 100.604 158.098 104.72 160.754 104.72H273.44C276.092 104.72 276.097 100.604 273.44 100.604ZM207.037 100.604H168.239V78.3661H175.197L175.197 78.375V94.5664C175.197 97.2148 179.318 97.2192 179.318 94.5664V78.375L179.318 78.3661H186.052L186.052 78.375V94.5664C186.052 97.2148 190.173 97.2192 190.173 94.5664V78.375L190.172 78.3661H196.906L196.906 78.375V94.5664C196.906 97.2148 201.027 97.2192 201.027 94.5664V78.375L201.027 78.3661H207.037V100.604ZM265.491 101.248H221.424V71.9697H226.38C226.379 71.9919 226.377 72.0127 226.377 72.0352V97.2055C226.377 99.8539 230.498 99.8583 230.498 97.2055V72.0352C230.498 72.0127 230.495 71.9919 230.495 71.9697H236.137C236.136 71.9919 236.134 72.0127 236.134 72.0352V97.2055C236.134 99.8539 240.255 99.8583 240.255 97.2055V72.0352C240.255 72.0127 240.252 71.9919 240.251 71.9697H245.894C245.893 71.9919 245.89 72.0127 245.89 72.0352V97.2055C245.89 99.8539 250.012 99.8583 250.012 97.2055V72.0352C250.012 72.0127 250.009 71.9919 250.008 71.9697H255.651C255.65 71.9919 255.647 72.0127 255.647 72.0352V97.2055C255.647 99.8539 259.768 99.8583 259.768 97.2055V72.0352C259.768 72.0127 259.766 71.9919 259.765 71.9697H265.491V101.248Z" fill="#323232"/>
<path d="M273.44 45H160.754C158.103 45 158.098 49.1159 160.754 49.1159H273.44C276.092 49.1159 276.097 45 273.44 45Z" fill="#323232"/>
<path d="M259.765 71.9697C259.766 71.9919 259.768 72.0127 259.768 72.0352V97.2055C259.768 99.8583 255.647 99.8539 255.647 97.2055V72.0352C255.647 72.0127 255.65 71.9919 255.651 71.9697H250.008C250.009 71.9919 250.012 72.0127 250.012 72.0352V97.2055C250.012 99.8583 245.89 99.8539 245.89 97.2055V72.0352C245.89 72.0127 245.893 71.9919 245.894 71.9697H240.251C240.252 71.9919 240.255 72.0127 240.255 72.0352V97.2055C240.255 99.8583 236.134 99.8539 236.134 97.2055V72.0352C236.134 72.0127 236.136 71.9919 236.137 71.9697H230.495C230.495 71.9919 230.498 72.0127 230.498 72.0352V97.2055C230.498 99.8583 226.377 99.8539 226.377 97.2055V72.0352C226.377 72.0127 226.379 71.9919 226.38 71.9697H221.424V101.248H265.491V71.9697H259.765Z" fill="#F2E98C"/>
<path d="M229.654 191.902V212.242H259.82V191.902H229.654ZM247.318 200.959H242.157C239.501 200.959 239.505 196.843 242.157 196.843H247.318C249.974 196.843 249.969 200.959 247.318 200.959V200.959Z" fill="#E6E6E6"/>
<path d="M227.674 183.349V187.786H261.8V183.349H227.674Z" fill="#E6E6E6"/>
<path d="M247.317 196.843H242.157C239.505 196.843 239.501 200.959 242.157 200.959H247.317C249.969 200.959 249.974 196.843 247.317 196.843Z" fill="#323232"/>
</g>
<defs>
<clipPath id="clip0">
<rect width="248" height="237" fill="white" transform="translate(36 45)"/>
</clipPath>
</defs>
</svg>
