<svg width="320" height="320" viewBox="0 0 320 320" fill="none" xmlns="http://www.w3.org/2000/svg">
<rect width="320" height="320" fill="white"/>
<path d="M282.843 150.693C275.181 139.385 264.553 129.64 250.583 126.984C235.126 124.046 218.697 123.644 204.408 118.026C195.553 114.544 187.996 109.226 179.467 105.242C144.463 88.8936 98.2072 96.8176 75.3776 129.445C70.4001 136.559 66.5512 144.687 59.9074 150.274C55.1613 154.264 49.2621 156.702 44.5542 160.738C37.2046 167.038 33.5184 176.502 30.106 185.565C22.6826 205.281 13.1767 233.424 31.9241 249.983C44.7042 261.272 44.9168 260.009 60.2205 268.99C76.5727 278.586 172.145 287.921 198.318 277.262C224.49 266.602 238.669 270.128 261.816 255.567C289.186 238.35 304.126 204.966 295.611 177.627C292.661 168.085 288.362 159.015 282.843 150.693V150.693Z" fill="#FAF7DE"/>
<path d="M255.49 95.7809H65.8063C61.5578 95.7809 58.1138 99.2342 58.1138 103.494V229.395C58.1138 233.655 61.5578 237.108 65.8063 237.108H255.49C259.738 237.108 263.182 233.655 263.182 229.395V103.494C263.182 99.2342 259.738 95.7809 255.49 95.7809Z" fill="#323232"/>
<path d="M253.913 225.824C253.762 226.531 253.372 227.164 252.81 227.616C252.248 228.069 251.547 228.313 250.826 228.308L70.673 228.262C69.8642 228.27 69.0843 227.961 68.4992 227.401C67.9141 226.841 67.57 226.074 67.5401 225.264L67.54 107.533C67.5399 107.361 67.5554 107.189 67.5864 107.019C67.7374 106.312 68.1268 105.679 68.689 105.227C69.2512 104.774 69.9518 104.53 70.6727 104.535L250.826 104.58C251.635 104.573 252.415 104.882 253 105.441C253.585 106.001 253.929 106.768 253.959 107.578L253.959 225.31C253.96 225.482 253.944 225.655 253.913 225.824Z" fill="white"/>
<path d="M53.0103 262.239L50.4569 260.96L49.1152 264.479L50.4569 260.96C49.9705 260.716 49.4841 260.473 48.9978 260.229C41.388 256.416 33.7782 252.603 26.1682 248.79L17.877 244.635L16.7273 247.286L17.877 244.635C16.3563 243.873 14.8355 243.111 13.3147 242.349C13.0342 242.912 12.7537 243.475 12.4732 244.038C9.2315 250.542 5.98979 257.045 2.74805 263.549L42.8472 282.63C43.0341 282.255 43.221 281.88 43.4079 281.505C46.6087 275.083 49.8095 268.661 53.0103 262.239Z" fill="white"/>
<path d="M51.6295 142.52C50.0284 142.49 48.4323 142.708 46.8977 143.167C46.1186 143.526 45.3991 144.004 44.7644 144.582C39.0586 149.198 33.6039 154.118 28.4239 159.32C26.1175 161.416 24.0111 163.724 22.1321 166.212C19.1166 170.57 20.0446 176.782 20.8833 181.66C22.0686 188.554 24.0588 195.281 25.2472 202.176C26.0627 206.757 26.1024 211.443 25.3646 216.037C24.1402 223.472 22.2777 230.786 19.7978 237.9C19.6957 238.151 19.676 238.429 19.7416 238.692C19.8071 238.955 19.9545 239.191 20.1625 239.365L21.4904 236.302L20.1625 239.365C20.3582 239.539 20.5935 239.663 20.8479 239.725C21.1023 239.787 21.368 239.786 21.6219 239.722C21.8757 239.658 22.11 239.532 22.3043 239.356C22.4985 239.18 22.6469 238.959 22.7363 238.712C24.715 232.912 26.3232 226.991 27.5513 220.986C28.5532 216.718 29.0452 212.346 29.0169 207.962C28.7849 201.806 27.055 195.652 25.6817 189.68C24.9062 186.309 24.1196 182.928 23.6036 179.504C23.0628 176.722 23.0037 173.868 23.4288 171.066C24.0677 167.906 26.0236 166.119 28.2296 163.842C33.4953 158.406 39.1357 153.273 44.9147 148.392C45.4636 147.928 46.0151 147.468 46.5747 147.018C46.8753 146.755 47.1924 146.511 47.5241 146.289C47.6412 146.208 47.7567 146.124 47.8806 146.054L47.8989 146.045C48.0135 146.002 48.1307 145.966 48.2499 145.939C49.019 145.777 49.7995 145.674 50.5844 145.633C53.1001 145.461 55.6377 145.464 58.1649 145.544V142.491C55.9865 142.428 53.8032 142.424 51.6295 142.52Z" fill="#323232"/>
<path d="M60.484 142.578C59.7121 142.543 58.9391 142.513 58.165 142.491V145.544C58.9393 145.568 59.7123 145.598 60.484 145.634C62.4447 145.725 62.4401 142.669 60.484 142.578Z" fill="#323232"/>
<path d="M85.4054 161.154C85.2392 159.746 84.6062 158.436 83.6081 157.432C83.2386 156.932 82.7241 156.559 82.1351 156.363C81.546 156.168 80.9111 156.16 80.3171 156.34C79.1403 156.615 78.0581 157.2 77.1828 158.035C76.4726 158.738 75.8689 159.579 75.2289 160.345C74.4014 161.336 73.553 162.309 72.7192 163.295C73.696 164.21 74.8936 164.9 75.8893 165.798C76.1719 166.083 76.472 166.349 76.7877 166.596C76.9339 166.698 77.1382 166.751 77.2742 166.85L77.2876 166.861C77.2916 166.862 77.2923 166.861 77.2968 166.861C77.3383 166.863 77.3796 166.86 77.421 166.859C77.4972 166.833 77.5748 166.81 77.6534 166.792C77.6983 166.776 77.7419 166.756 77.7837 166.732C77.8981 166.659 78.0139 166.59 78.1264 166.513C78.1764 166.471 78.2264 166.429 78.2748 166.386C78.3742 166.296 78.4703 166.204 78.5639 166.108C78.7804 165.886 78.9846 165.653 79.1755 165.408C79.2127 165.355 79.3428 165.179 79.3641 165.148C79.4635 165.006 79.5604 164.863 79.6547 164.718C79.8432 164.428 80.0227 164.132 80.1934 163.831C80.4909 163.309 80.7654 162.774 81.0201 162.23C81.1173 162.022 81.2092 161.812 81.3005 161.602C81.3102 161.571 81.4499 161.231 81.4816 161.147C81.5965 160.761 81.8557 160.435 82.2049 160.236C82.5542 160.037 82.9666 159.981 83.3559 160.08C83.7438 160.19 84.0728 160.449 84.2719 160.801C84.4711 161.152 84.5243 161.568 84.4202 161.959C83.9289 163.277 83.3201 164.548 82.6012 165.756C81.8366 167.2 80.7276 168.431 79.3728 169.341C78.7159 169.739 77.9574 169.937 77.1901 169.91C76.0161 169.756 74.9327 169.195 74.1271 168.325C73.0504 167.332 71.8577 166.522 70.7876 165.565C69.8046 166.715 68.8364 167.878 67.8455 169.022C64.6719 172.686 61.4865 176.425 58.1651 180.029C55.1616 183.338 51.9676 186.468 48.5992 189.403C48.3438 189.629 48.0205 189.763 47.6804 189.785C46.4075 189.86 45.2446 188.271 46.4444 187.242C50.3238 183.778 53.9907 180.082 57.4249 176.174C57.6745 175.901 57.9163 175.621 58.1651 175.347V145.544C55.638 145.464 53.1003 145.461 50.5846 145.633C49.7998 145.674 49.0193 145.776 48.2501 145.939C48.131 145.966 48.0137 146.002 47.8991 146.044L47.8808 146.054C47.7569 146.124 47.6414 146.208 47.5243 146.289C47.1926 146.511 46.8755 146.754 46.5749 147.018C46.0153 147.468 45.4638 147.928 44.915 148.392C39.1359 153.273 33.4956 158.406 28.2298 163.842C26.0238 166.119 24.0679 167.906 23.429 171.066C23.0039 173.868 23.0631 176.722 23.6038 179.504C24.1198 182.928 24.9064 186.309 25.6819 189.68C27.0552 195.652 28.7851 201.806 29.0171 207.962C29.0455 212.346 28.5535 216.718 27.5515 220.986C26.3235 226.991 24.7152 232.912 22.7365 238.712C22.6471 238.959 22.4988 239.18 22.3045 239.356C22.1102 239.532 21.876 239.658 21.6221 239.722C21.3682 239.786 21.1025 239.787 20.8481 239.725C20.5937 239.663 20.3584 239.539 20.1627 239.365L19.0918 241.834C26.5669 245.58 34.0418 249.325 41.5168 253.071C44.8608 254.747 48.2049 256.422 51.5489 258.098L53.6266 252.649C53.4496 252.557 53.2933 252.43 53.167 252.275C53.0408 252.12 52.9475 251.941 52.8927 251.749C52.8378 251.557 52.8227 251.356 52.8483 251.157C52.8738 250.959 52.9394 250.768 53.0411 250.596C53.3737 250.007 53.733 249.432 54.0841 248.853C56.0415 245.623 58.2385 242.524 60.3334 239.393C63.3875 234.828 66.4572 230.245 69.1024 225.425C70.035 223.812 70.8353 222.126 71.4954 220.384C72.2877 218.138 72.2562 216.117 72.4137 213.586C72.7038 209.688 72.7308 205.774 72.4945 201.872C72.2663 198.758 71.3769 195.73 71.2002 192.606C71.0651 191.022 71.2567 189.426 71.763 187.919C72.3434 186.505 73.0432 185.142 73.8547 183.847C75.6013 180.842 77.5317 177.949 79.3532 174.99C81.1649 172.181 82.7375 169.224 84.0542 166.15C84.653 164.665 85.5243 162.787 85.4054 161.154ZM48.2233 159.61C48.6127 159.511 49.0254 159.566 49.3749 159.765C49.7244 159.964 49.9834 160.291 50.0977 160.677C50.3589 161.419 50.6161 162.162 50.8985 162.896C50.9514 163.034 51.0055 163.171 51.0609 163.308L51.0629 163.313C51.0788 163.35 51.095 163.387 51.1112 163.424C51.2185 163.665 51.3328 163.903 51.457 164.136C51.5766 164.36 51.7054 164.578 51.8435 164.791C51.917 164.904 51.993 165.016 52.0716 165.126C52.1037 165.171 52.1728 165.256 52.224 165.319C52.617 165.779 53.0066 166.239 53.4243 166.68C53.7027 166.97 53.8581 167.357 53.8581 167.76C53.8581 168.163 53.7027 168.55 53.4243 168.84C53.1367 169.123 52.7498 169.282 52.3468 169.282C51.9438 169.282 51.5569 169.123 51.2693 168.84C50.3177 167.9 49.4959 166.837 48.8257 165.678C48.1656 164.326 47.6085 162.926 47.1591 161.489C47.0569 161.099 47.1109 160.684 47.3097 160.333C47.5086 159.982 47.8364 159.722 48.2233 159.61Z" fill="#FFEBD7"/>
<path d="M52.0715 165.126C51.993 165.016 51.917 164.904 51.8433 164.791C51.7052 164.578 51.5764 164.36 51.4569 164.136C51.3327 163.903 51.2184 163.665 51.1111 163.424C51.0948 163.387 51.0786 163.35 51.0628 163.313L51.0607 163.308C51.0052 163.171 50.9511 163.034 50.8983 162.896C50.616 162.162 50.3588 161.419 50.0975 160.677C50.0446 160.484 49.9541 160.302 49.8311 160.144C49.7082 159.985 49.5553 159.852 49.3812 159.753C49.207 159.654 49.0151 159.59 48.8163 159.565C48.6174 159.54 48.4157 159.555 48.2225 159.608C48.0294 159.661 47.8487 159.752 47.6906 159.876C47.5326 159.999 47.4004 160.153 47.3017 160.328C47.2029 160.502 47.1394 160.695 47.1149 160.894C47.0905 161.094 47.1054 161.296 47.159 161.49C47.6083 162.926 48.1654 164.326 48.8255 165.678C49.4958 166.837 50.3176 167.9 51.2692 168.84C51.5567 169.124 51.9436 169.282 52.3466 169.282C52.7497 169.282 53.1366 169.124 53.4241 168.84C53.7025 168.55 53.858 168.163 53.858 167.76C53.858 167.357 53.7025 166.97 53.4241 166.68C53.0064 166.239 52.6169 165.78 52.2238 165.319C52.1726 165.256 52.1036 165.171 52.0715 165.126Z" fill="#323232"/>
<path d="M57.4247 176.174C53.9905 180.082 50.3236 183.778 46.4442 187.242C45.2444 188.271 46.4074 189.86 47.6802 189.785C48.0203 189.763 48.3437 189.629 48.5991 189.403C51.9674 186.468 55.1615 183.338 58.1649 180.029V175.347C57.9162 175.621 57.6743 175.901 57.4247 176.174Z" fill="#323232"/>
<path d="M41.5163 253.071C34.0413 249.326 26.5664 245.58 19.0914 241.834L17.877 244.635L26.1682 248.789C33.778 252.603 41.3879 256.416 48.9977 260.229C49.4842 260.473 49.9706 260.716 50.4568 260.96L51.5484 258.098C48.2044 256.422 44.8603 254.746 41.5163 253.071Z" fill="#323232"/>
<path d="M12.4733 244.038C12.7538 243.475 13.0343 242.912 13.3148 242.349C14.8356 243.111 16.3564 243.873 17.8772 244.635L19.0916 241.834C18.9568 241.767 18.8219 241.699 18.687 241.632C16.9257 240.749 15.1646 239.867 13.4035 238.984C13.0532 238.786 12.6394 238.732 12.2502 238.834C11.8609 238.937 11.5268 239.187 11.3187 239.532C7.87647 246.439 4.43417 253.345 0.991842 260.252C0.661193 260.915 0.330581 261.578 0 262.242L2.74819 263.549C5.98998 257.045 9.23169 250.541 12.4733 244.038Z" fill="#323232"/>
<path d="M55.8199 260.238C54.3963 259.524 52.9727 258.811 51.5489 258.098L50.4573 260.96L53.0108 262.239C49.81 268.661 46.6092 275.083 43.4084 281.505C43.2215 281.88 43.0346 282.255 42.8477 282.63L45.596 283.938C48.6939 277.722 51.7918 271.507 54.8899 265.291C55.382 264.303 55.8743 263.316 56.3666 262.328C56.5646 261.977 56.6183 261.562 56.5162 261.172C56.4141 260.782 56.1643 260.446 55.8199 260.238Z" fill="#323232"/>
<path d="M87.7138 158.18C86.5109 155.47 84.0589 152.935 80.905 153.17C78.4044 153.391 76.0912 154.59 74.4656 156.508C73.0246 158.232 71.5784 159.951 70.1271 161.665C70.0102 161.699 69.8979 161.747 69.7925 161.807C69.5958 161.933 69.428 162.1 69.3003 162.296C69.1726 162.491 69.0879 162.712 69.0517 162.943C68.9253 163.092 68.8015 163.243 68.6749 163.391C65.2292 167.427 61.7259 171.412 58.1648 175.347V180.029C61.4862 176.425 64.6716 172.686 67.8453 169.022C68.8361 167.878 69.8044 166.715 70.7873 165.565C71.8574 166.522 73.0501 167.332 74.1268 168.325C74.9324 169.195 76.0159 169.756 77.1899 169.91C77.9571 169.937 78.7156 169.74 79.3725 169.341C80.7273 168.431 81.8364 167.2 82.6009 165.756C83.3198 164.548 83.9287 163.277 84.4199 161.959C84.524 161.568 84.4708 161.152 84.2717 160.801C84.0726 160.449 83.7436 160.19 83.3557 160.08C82.9663 159.981 82.5539 160.037 82.2046 160.236C81.8554 160.435 81.5962 160.761 81.4813 161.147C81.4496 161.231 81.3099 161.571 81.3003 161.602C81.2089 161.812 81.117 162.022 81.0198 162.23C80.7651 162.774 80.4907 163.309 80.1931 163.831C80.0219 164.132 79.8423 164.427 79.6544 164.718C79.5601 164.863 79.4632 165.006 79.3638 165.148C79.3425 165.179 79.2125 165.355 79.1752 165.408C78.9843 165.653 78.7802 165.886 78.5637 166.108C78.47 166.204 78.3739 166.296 78.2746 166.386C78.2261 166.429 78.1761 166.471 78.1261 166.513C78.0136 166.59 77.8978 166.659 77.7834 166.732C77.7416 166.756 77.6981 166.776 77.6531 166.792C77.5745 166.81 77.4969 166.833 77.4208 166.859C77.3793 166.86 77.338 166.863 77.2965 166.861C77.2921 166.861 77.2913 166.862 77.2873 166.862L77.2739 166.85C77.138 166.751 76.9336 166.698 76.7874 166.596C76.4717 166.349 76.1716 166.083 75.889 165.798C74.8933 164.9 73.6958 164.21 72.7189 163.295C73.5527 162.309 74.4011 161.336 75.2286 160.345C75.8686 159.579 76.4723 158.738 77.1825 158.036C78.0578 157.2 79.14 156.615 80.3169 156.34C80.9108 156.16 81.5457 156.168 82.1348 156.363C82.7238 156.559 83.2383 156.932 83.6078 157.432C84.606 158.436 85.2389 159.746 85.4051 161.154C85.524 162.787 84.6528 164.665 84.0539 166.15C82.7372 169.224 81.1647 172.181 79.3529 174.99C77.5315 177.949 75.601 180.842 73.8544 183.847C73.043 185.142 72.3432 186.505 71.7628 187.919C71.2564 189.426 71.0648 191.022 71.2 192.606C71.3766 195.73 72.2661 198.758 72.4942 201.872C72.7306 205.774 72.7036 209.688 72.4135 213.586C72.2559 216.117 72.2874 218.138 71.4952 220.384C70.835 222.126 70.0347 223.812 69.1021 225.425C66.4569 230.245 63.3872 234.828 60.3332 239.393C58.2382 242.524 56.0413 245.623 54.0839 248.853C53.7327 249.432 53.3734 250.007 53.0408 250.596C52.9391 250.768 52.8735 250.959 52.848 251.157C52.8225 251.356 52.8376 251.557 52.8924 251.749C52.9472 251.941 53.0406 252.12 53.1668 252.275C53.293 252.43 53.4494 252.557 53.6263 252.649L55.3072 248.242L53.6263 252.649C53.7911 252.761 53.9773 252.836 54.1731 252.871C54.3689 252.906 54.5697 252.899 54.7627 252.851C54.9556 252.802 55.1362 252.714 55.2929 252.591C55.4496 252.469 55.5788 252.314 55.6722 252.138C57.7053 248.535 60.142 245.147 62.4432 241.714C65.3072 237.441 68.1738 233.157 70.7531 228.703C72.6609 225.409 74.7218 221.88 75.1046 218.023C75.5211 213.922 75.7095 209.801 75.669 205.68C75.5459 202.17 75.1687 198.674 74.5406 195.219C74.2462 193.672 74.1531 192.094 74.2638 190.524C74.5562 188.943 75.1719 187.44 76.0721 186.11C77.8484 182.972 79.8545 179.973 81.7518 176.909C83.7051 173.869 85.4049 170.672 86.8338 167.352C88.0689 164.345 89.1037 161.311 87.7138 158.18Z" fill="#323232"/>
<path d="M61.0542 78.1826C59.5616 74.5794 58.0688 70.9761 56.576 67.3729C56.3604 66.8525 56.1448 66.332 55.9292 65.8117C55.7644 65.2838 55.3958 64.8374 54.9 64.5652C54.4042 64.2929 53.8191 64.2155 53.2659 64.349C52.7154 64.5016 52.2487 64.8568 51.966 65.3384C51.6832 65.82 51.607 66.3897 51.7536 66.925C53.2464 70.5283 54.7392 74.1315 56.2319 77.7348C56.4476 78.2552 56.6632 78.7756 56.8787 79.296C57.0436 79.8239 57.4121 80.2702 57.9079 80.5425C58.4038 80.8148 58.9889 80.8922 59.5421 80.7586C60.0925 80.6061 60.5592 80.2508 60.8419 79.7692C61.1246 79.2876 61.2008 78.718 61.0542 78.1826Z" fill="#F2E98C" stroke="#323232" stroke-width="2" stroke-miterlimit="10"/>
<path d="M48.3104 88.5299C44.685 86.0224 41.0596 83.5149 37.434 81.0075C36.9179 80.6506 36.4019 80.2936 35.8859 79.9366C35.411 79.6459 34.8479 79.5659 34.3182 79.714C33.7885 79.8621 33.3347 80.2263 33.0547 80.728C32.7897 81.2362 32.719 81.8338 32.8573 82.3962C32.9956 82.9586 33.3322 83.4423 33.797 83.7464C37.4225 86.2539 41.048 88.7614 44.6735 91.269C45.1895 91.6258 45.7056 91.9827 46.2217 92.3397C46.6966 92.6304 47.2596 92.7104 47.7893 92.5623C48.319 92.4142 48.7729 92.05 49.0529 91.5483C49.3179 91.0401 49.3886 90.4425 49.2502 89.8801C49.1119 89.3177 48.7752 88.834 48.3104 88.5299Z" fill="#F2E98C" stroke="#323232" stroke-width="2" stroke-miterlimit="10"/>
<path d="M40.157 102.868C36.5504 102.64 32.9438 102.412 29.3371 102.184L27.7796 102.085C27.2297 102.088 26.7032 102.296 26.3143 102.665C25.9254 103.034 25.7056 103.534 25.7026 104.056C25.7152 104.575 25.9381 105.069 26.3249 105.437C26.7117 105.804 27.2327 106.015 27.7796 106.027C31.3862 106.255 34.9928 106.483 38.5994 106.711L40.157 106.81C40.7069 106.807 41.2335 106.599 41.6223 106.23C42.0112 105.861 42.231 105.361 42.234 104.839C42.2214 104.32 41.9986 103.826 41.6118 103.459C41.2249 103.091 40.7039 102.88 40.157 102.868Z" fill="#F2E98C" stroke="#323232" stroke-width="2" stroke-miterlimit="10"/>
<path d="M300.723 253.062C296.848 248.203 293.627 242.855 291.142 237.154C289.931 234.201 288.936 231.162 287.519 228.296C286.446 226.223 285.262 224.21 283.971 222.266C281.635 218.606 279.305 214.942 277.013 211.254C276.157 209.879 275.295 208.505 274.501 207.093C272.659 204.163 270.521 201.431 268.121 198.941C266.478 197.054 263.999 194.831 261.534 196.881C259.748 198.366 261.51 201.178 262.39 202.691C262.565 203.012 262.619 203.384 262.544 203.741C262.47 204.099 262.27 204.418 261.982 204.641C261.693 204.864 261.335 204.976 260.972 204.958C260.608 204.94 260.263 204.793 259.997 204.543C257.603 202.297 254.623 199.321 251.108 199.397C249.496 199.432 247.933 199.996 247.822 201.757C247.748 203.199 248.154 204.625 248.977 205.811C250.06 207.357 247.812 208.649 246.584 207.663C245.076 206.384 243.458 205.243 241.748 204.254C240.593 203.626 239.041 202.819 237.675 203.041C235.381 203.414 234.344 205.901 234.364 207.979C234.283 208.737 234.461 209.5 234.87 210.143C235.385 210.905 235.9 211.666 236.414 212.428C237.3 213.739 238.186 215.049 239.072 216.36C240.192 218.016 237.587 219.441 236.44 217.902C232.166 212.162 227.661 206.56 222.902 201.218C220.131 198.107 217.219 195.06 214.26 192.129C213.253 191.13 211.449 189.194 209.836 189.594C209.346 189.775 208.912 190.081 208.577 190.483C208.411 190.642 208.253 190.806 208.097 190.973C208.025 191.049 207.959 191.129 207.897 191.213C207.801 191.356 207.714 191.505 207.635 191.658C207.61 191.734 207.523 191.956 207.508 192.029C207.506 192.049 207.5 192.07 207.492 192.088C207.491 192.114 207.49 192.15 207.487 192.199C207.484 192.263 207.508 192.596 207.504 192.649C207.724 193.686 208.136 194.673 208.719 195.558C211.151 199.438 213.819 203.165 216.706 206.718C224.959 217.697 232.83 228.98 240.599 240.308C241.435 241.525 240.051 242.735 238.879 242.552C234.663 241.894 231.311 239.893 227.714 237.729C225.883 236.598 223.992 235.566 222.051 234.638C220.55 233.801 218.844 233.404 217.129 233.492C216.082 233.65 214.578 234.598 214.536 235.764C214.496 236.863 215.673 238.081 216.352 238.824C218.655 241.091 221.145 243.158 223.793 245.006C229.376 249.365 233.726 255.011 238.96 259.746C243.618 264.405 249.817 267.191 256.385 267.576C259.406 267.992 262.27 268.459 264.777 270.286C266.898 271.833 268.976 273.441 271.036 275.069C271.094 275.117 271.148 275.17 271.199 275.226C271.349 275.405 271.452 275.62 271.497 275.849C271.542 276.079 271.528 276.316 271.457 276.539C271.386 276.762 271.26 276.963 271.09 277.124C270.92 277.284 270.713 277.399 270.487 277.458L270.896 278.37C270.996 278.283 271.095 278.197 271.195 278.111C278.122 272.117 285.048 266.124 291.975 260.13L294.893 257.605L300.837 253.185C300.797 253.146 300.759 253.105 300.723 253.062Z" fill="#FFEBD7"/>
<path d="M306.015 252.006C304.818 253.042 303.622 254.077 302.425 255.113C295.498 261.106 288.571 267.1 281.645 273.094C278.496 275.819 275.346 278.544 272.197 281.269L273.449 284.058L272.197 281.269C271.359 281.994 270.52 282.719 269.682 283.445C271.282 285.25 272.881 287.055 274.481 288.861C274.631 289.031 274.743 289.232 274.808 289.45C274.874 289.668 274.892 289.897 274.861 290.122C274.83 290.348 274.75 290.564 274.628 290.755C274.506 290.947 274.345 291.11 274.154 291.234L278.005 296.887L317.65 263.761C313.772 259.843 309.893 255.925 306.015 252.006Z" fill="white"/>
<path d="M307.176 248.841C306.886 248.563 306.5 248.408 306.098 248.408C305.697 248.408 305.311 248.563 305.021 248.841C304.278 249.484 303.535 250.127 302.792 250.77C299.327 246.398 296.423 241.607 294.149 236.509C292.798 233.262 291.711 229.913 290.15 226.754C289.023 224.584 287.779 222.477 286.423 220.443C283.853 216.415 281.284 212.386 278.78 208.316C277.562 206.15 276.233 204.05 274.796 202.024C273.681 200.574 272.395 199.293 271.22 197.899C270.348 196.786 269.373 195.759 268.307 194.832C265.432 192.499 261.032 192.243 258.66 195.529C258.001 196.447 257.68 197.565 257.75 198.693C255.215 196.947 252.369 195.818 249.186 196.588C248.063 196.774 247.03 197.321 246.243 198.147C245.457 198.973 244.959 200.033 244.826 201.167C244.78 201.597 244.766 202.031 244.784 202.463C242.664 201.019 240.327 199.871 237.905 199.966C236.394 200.101 234.966 200.718 233.829 201.725C232.693 202.733 231.908 204.078 231.589 205.565C231.515 205.866 231.455 206.199 231.403 206.543C229.856 204.648 228.291 202.768 226.692 200.92C223.737 197.506 220.542 194.343 217.461 191.052C214.78 188.189 210.685 184.574 206.92 187.87C205.28 189.306 204.151 191.039 204.534 193.301C205.088 196.569 207.615 199.596 209.502 202.181C215.265 210.079 221.166 217.861 226.811 225.847C229.809 230.089 232.783 234.346 235.733 238.621C235.208 238.434 234.694 238.218 234.193 237.974C232.483 237.13 230.885 236.073 229.252 235.091C226.078 233.182 222.542 230.938 218.794 230.478C215.711 230.1 211.623 231.992 211.493 235.555C211.378 238.708 214.449 241.433 216.614 243.291C219.311 245.607 222.289 247.536 224.908 249.952C227.682 252.51 230.216 255.313 232.838 258.025C238.012 263.376 243.906 268.434 251.41 269.936C254.689 270.593 258.326 270.437 261.444 271.765C263.049 272.635 264.546 273.693 265.901 274.918C266.901 275.68 267.894 276.451 268.881 277.229C269.103 277.409 269.369 277.526 269.652 277.566C269.935 277.607 270.223 277.569 270.487 277.458L269.162 274.507L270.487 277.458C270.713 277.399 270.92 277.284 271.09 277.124C271.259 276.963 271.386 276.762 271.457 276.539C271.528 276.316 271.542 276.079 271.496 275.849C271.451 275.62 271.349 275.405 271.199 275.226C271.148 275.17 271.094 275.117 271.036 275.069C268.976 273.441 266.898 271.833 264.776 270.286C262.27 268.459 259.406 267.992 256.385 267.576C249.817 267.191 243.618 264.405 238.96 259.746C233.726 255.011 229.375 249.365 223.793 245.006C221.144 243.158 218.655 241.091 216.352 238.824C215.673 238.081 214.496 236.863 214.535 235.764C214.578 234.598 216.082 233.65 217.129 233.492C218.844 233.404 220.549 233.801 222.05 234.638C223.992 235.566 225.883 236.598 227.714 237.729C231.31 239.893 234.663 241.894 238.878 242.552C240.051 242.735 241.434 241.525 240.599 240.308C232.83 228.98 224.959 217.697 216.705 206.718C213.818 203.165 211.151 199.438 208.718 195.558C208.135 194.673 207.723 193.686 207.503 192.649C207.508 192.596 207.483 192.263 207.487 192.199C207.489 192.15 207.491 192.114 207.492 192.088C207.5 192.069 207.505 192.049 207.508 192.029C207.522 191.956 207.609 191.734 207.634 191.658C207.713 191.505 207.801 191.356 207.896 191.213C207.958 191.129 208.025 191.049 208.096 190.973C208.253 190.806 208.411 190.642 208.576 190.483C208.911 190.081 209.346 189.775 209.836 189.594C211.448 189.194 213.252 191.13 214.26 192.129C217.219 195.06 220.131 198.107 222.902 201.218C227.661 206.56 232.165 212.162 236.44 217.902C237.586 219.441 240.191 218.016 239.071 216.36C238.186 215.049 237.3 213.739 236.414 212.428C235.899 211.666 235.384 210.905 234.869 210.143C234.461 209.5 234.282 208.737 234.364 207.979C234.344 205.901 235.381 203.414 237.675 203.041C239.041 202.819 240.593 203.626 241.748 204.254C243.458 205.243 245.076 206.384 246.583 207.663C247.811 208.649 250.06 207.357 248.976 205.811C248.154 204.625 247.748 203.199 247.821 201.757C247.932 199.996 249.496 199.432 251.108 199.397C254.623 199.321 257.602 202.297 259.997 204.543C260.262 204.793 260.608 204.94 260.971 204.958C261.335 204.976 261.693 204.864 261.981 204.641C262.27 204.418 262.469 204.099 262.544 203.741C262.619 203.384 262.564 203.012 262.39 202.691C261.51 201.178 259.748 198.366 261.533 196.881C263.998 194.831 266.478 197.054 268.121 198.941C270.521 201.431 272.659 204.163 274.501 207.093C275.295 208.505 276.157 209.879 277.012 211.254C279.305 214.942 281.635 218.606 283.971 222.266C285.262 224.21 286.446 226.223 287.518 228.296C288.936 231.162 289.931 234.201 291.142 237.154C293.626 242.855 296.848 248.203 300.722 253.062C300.758 253.105 300.796 253.146 300.836 253.185L294.893 257.605L291.975 260.13C285.048 266.124 278.121 272.117 271.195 278.111C271.095 278.197 270.995 278.283 270.896 278.37L272.197 281.269C275.346 278.544 278.496 275.819 281.645 273.094C288.572 267.1 295.498 261.106 302.425 255.113C303.622 254.077 304.818 253.042 306.015 252.006C309.893 255.925 313.772 259.843 317.65 263.761L320 261.798C315.725 257.479 311.451 253.16 307.176 248.841Z" fill="#323232"/>
<path d="M266.444 282.222C266.164 282.512 266.008 282.899 266.008 283.302C266.008 283.705 266.164 284.093 266.444 284.382C268.405 286.595 270.365 288.808 272.326 291.021C272.541 291.291 272.854 291.465 273.197 291.505C273.539 291.544 273.883 291.447 274.154 291.234L271.544 287.401L274.154 291.234C274.345 291.11 274.507 290.947 274.629 290.755C274.751 290.564 274.83 290.348 274.861 290.122C274.892 289.897 274.874 289.668 274.809 289.45C274.743 289.232 274.631 289.031 274.481 288.861C272.881 287.055 271.282 285.25 269.682 283.445C270.521 282.719 271.359 281.994 272.197 281.269L270.896 278.37C269.412 279.654 267.928 280.938 266.444 282.222Z" fill="#323232"/>
<path d="M179.763 123.578H120.239C119.258 123.578 118.462 124.376 118.462 125.36C118.462 126.344 119.258 127.142 120.239 127.142H179.763C180.744 127.142 181.54 126.344 181.54 125.36C181.54 124.376 180.744 123.578 179.763 123.578Z" fill="#EDEDED"/>
<path d="M194.6 131.628H120.239C119.258 131.628 118.462 132.425 118.462 133.409C118.462 134.393 119.258 135.191 120.239 135.191H194.6C195.581 135.191 196.377 134.393 196.377 133.409C196.377 132.425 195.581 131.628 194.6 131.628Z" fill="#EDEDED"/>
<path d="M113.78 143.83H92.9946V122.989H113.78V143.83Z" fill="#F2E98C"/>
<path d="M102.847 138.145L97.7095 133.979L99.6192 131.901L102.566 134.289L107.726 128.674L109.919 130.45L102.847 138.145Z" fill="white"/>
<path d="M113.78 171.8H92.9946V150.959H113.78V171.8Z" fill="#F2E98C"/>
<path d="M102.847 166.116L97.7095 161.949L99.6192 159.87L102.566 162.26L107.726 156.644L109.919 158.421L102.847 166.116Z" fill="white"/>
<path d="M226.004 118.177C223.05 118.087 220.135 118.877 217.629 120.447C215.122 122.018 213.136 124.298 211.922 127C210.709 129.703 210.321 132.705 210.809 135.628C211.297 138.551 212.638 141.263 214.664 143.421C216.689 145.58 219.307 147.088 222.187 147.754C225.067 148.421 228.08 148.216 230.844 147.166C233.608 146.116 235.999 144.268 237.715 141.855C239.432 139.442 240.396 136.573 240.486 133.611C240.607 129.639 239.149 125.781 236.433 122.887C233.717 119.992 229.966 118.298 226.004 118.177ZM236.416 133.487C236.35 135.642 235.649 137.729 234.4 139.484C233.152 141.24 231.412 142.585 229.401 143.349C227.39 144.112 225.198 144.261 223.103 143.777C221.008 143.292 219.103 142.195 217.629 140.624C216.156 139.054 215.18 137.081 214.825 134.954C214.47 132.827 214.752 130.643 215.635 128.677C216.518 126.711 217.963 125.052 219.786 123.909C221.61 122.767 223.731 122.192 225.88 122.258C227.307 122.301 228.712 122.626 230.014 123.214C231.315 123.802 232.489 124.642 233.467 125.684C234.446 126.727 235.21 127.953 235.716 129.291C236.222 130.63 236.46 132.056 236.416 133.487Z" fill="#F2E98C"/>
<path d="M225.559 151.47C225.37 151.47 225.181 151.467 224.991 151.461C220.177 151.311 215.617 149.258 212.305 145.751C208.994 142.244 207.199 137.567 207.312 132.739C207.425 127.91 209.436 123.322 212.908 119.975C216.38 116.627 221.031 114.791 225.847 114.867C230.663 114.943 235.254 116.924 238.62 120.379C241.985 123.834 243.852 128.482 243.814 133.312C243.776 138.141 241.836 142.76 238.417 146.161C234.997 149.563 230.375 151.471 225.559 151.47ZM225.538 116.284C221.095 116.285 216.832 118.047 213.678 121.186C210.525 124.324 208.736 128.586 208.703 133.041C208.669 137.496 210.393 141.784 213.499 144.97C216.605 148.157 220.841 149.983 225.284 150.051C229.727 150.119 234.017 148.424 237.219 145.335C240.421 142.245 242.275 138.012 242.378 133.558C242.48 129.104 240.823 124.79 237.767 121.555C234.71 118.321 230.503 116.429 226.062 116.292C225.887 116.287 225.713 116.284 225.538 116.284V116.284Z" fill="#F2E98C"/>
<path d="M223.626 139.531L217.833 133.742L220.45 131.429L223.771 134.749L230.842 128.498L233.313 130.967L223.626 139.531Z" fill="#33C65C"/>
<path d="M193.812 152.172H120.239C119.258 152.172 118.462 152.97 118.462 153.954C118.462 154.938 119.258 155.736 120.239 155.736H193.812C194.793 155.736 195.589 154.938 195.589 153.954C195.589 152.97 194.793 152.172 193.812 152.172Z" fill="#EDEDED"/>
<path d="M164.62 159.203H120.239C119.258 159.203 118.462 160.001 118.462 160.985C118.462 161.969 119.258 162.766 120.239 162.766H164.62C165.602 162.766 166.397 161.969 166.397 160.985C166.397 160.001 165.602 159.203 164.62 159.203Z" fill="#EDEDED"/>
<path d="M182.696 166.496H120.239C119.258 166.496 118.462 167.294 118.462 168.278C118.462 169.262 119.258 170.059 120.239 170.059H182.696C183.678 170.059 184.473 169.262 184.473 168.278C184.473 167.294 183.678 166.496 182.696 166.496Z" fill="#EDEDED"/>
<path d="M113.78 200.789H92.9946V179.948H113.78V200.789Z" fill="#F2E98C"/>
<path d="M102.421 195.104L97.2827 190.938L99.1925 188.86L102.139 191.249L107.3 185.633L109.492 187.41L102.421 195.104Z" fill="white"/>
<path d="M193.812 181.425H120.239C119.258 181.425 118.462 182.223 118.462 183.207C118.462 184.191 119.258 184.988 120.239 184.988H193.812C194.793 184.988 195.589 184.191 195.589 183.207C195.589 182.223 194.793 181.425 193.812 181.425Z" fill="#EDEDED"/>
<path d="M182.696 188.456H120.239C119.258 188.456 118.462 189.254 118.462 190.238C118.462 191.222 119.258 192.019 120.239 192.019H182.696C183.678 192.019 184.473 191.222 184.473 190.238C184.473 189.254 183.678 188.456 182.696 188.456Z" fill="#EDEDED"/>
</svg>
