<svg width="102" height="80" viewBox="0 0 102 80" fill="none" xmlns="http://www.w3.org/2000/svg">
<g clip-path="url(#clip0)">
<path d="M48.4595 61.5219L36.4751 67.9134L49.0015 77.4704C49.3049 77.645 49.6519 77.7292 50.0015 77.7131C50.3512 77.6971 50.689 77.5813 50.9751 77.3796C51.2612 77.1779 51.4836 76.8987 51.6162 76.5747C51.7488 76.2508 51.786 75.8957 51.7235 75.5513L48.4595 61.5219Z" fill="white"/>
<path d="M47.2951 59.5295L35.3107 65.9211C33.6264 66.8194 34.0261 68.9258 35.3107 69.9058L42.6532 75.5077C44.8539 77.1868 48.0269 80.8114 51.1452 79.836C55.5422 78.4607 53.6048 73.4597 52.8792 70.3408L50.6847 60.9085C50.012 58.0171 45.5613 59.241 46.2347 62.1353L47.9708 69.5973L49.1183 74.5296C49.1776 74.7842 49.2293 75.6954 49.4318 75.8771C49.6998 76.1176 50.13 75.7891 50.0461 75.3863C49.9421 74.8875 48.039 73.855 47.6407 73.5512L43.542 70.4241L37.6399 65.9211V69.9059L49.6243 63.5143C52.2457 62.1161 49.9172 58.1311 47.2951 59.5295Z" fill="#323232"/>
<path d="M45.4418 74.0786L50.4576 71.1432C53.0193 69.6439 50.6994 65.6538 48.1284 67.1585L43.1126 70.0939C40.5508 71.5931 42.8708 75.5832 45.4418 74.0786Z" fill="#323232"/>
<path d="M72.8081 31.3675L65.6333 61.3983L91.9719 67.691L99.1467 37.6602L72.8081 31.3675Z" fill="#F2E98C"/>
<path d="M65.0199 63.6233L91.3585 69.916C91.9483 70.0694 92.5746 69.9869 93.1046 69.686C93.6346 69.3851 94.0264 68.8895 94.1968 68.3044L101.372 38.2735C101.525 37.6837 101.443 37.0574 101.142 36.5274C100.841 35.9974 100.345 35.6056 99.7601 35.4352L73.4216 29.1425C72.8318 28.989 72.2054 29.0715 71.6754 29.3724C71.1455 29.6733 70.7537 30.1689 70.5832 30.754L63.4083 60.7849C62.7186 63.6717 67.1673 64.9036 67.8583 62.0117L75.0331 31.9808L72.1948 33.5924L98.5333 39.8851L96.9218 37.0467L89.7469 67.0776L92.5853 65.466L66.2467 59.1733C63.3599 58.4836 62.128 62.9323 65.0199 63.6233Z" fill="#323232"/>
<path d="M88.9888 21.4352C87.2756 21.0258 85.4984 20.958 83.759 21.2355C82.0195 21.5129 80.3517 22.1303 78.8508 23.0523C77.3499 23.9743 76.0453 25.183 75.0115 26.6092C73.9777 28.0354 73.235 29.6512 72.8257 31.3645L98.918 37.5984C99.3274 35.8851 99.3952 34.108 99.1178 32.3685C98.8403 30.629 98.223 28.9612 97.3009 27.4603C96.3789 25.9595 95.1703 24.6549 93.7442 23.6211C92.318 22.5873 90.7021 21.8445 88.9888 21.4352Z" fill="white"/>
<path d="M89.6023 19.2102C81.1181 17.3955 72.8332 22.3016 70.6008 30.7511C70.4462 31.3409 70.5282 31.9678 70.8293 32.498C71.1303 33.0283 71.6266 33.4199 72.2123 33.5895L98.3047 39.8233C99.4632 40.1001 100.875 39.4658 101.143 38.2118C102.958 29.7275 98.0518 21.4427 89.6023 19.2102C86.7283 18.4508 85.5022 22.9009 88.3755 23.6601C94.3078 25.2276 97.9903 30.9207 96.6931 36.985L99.5314 35.3734L73.4391 29.1395L75.0507 31.9779C76.6181 26.0455 82.3112 22.363 88.3755 23.6601C91.2718 24.2796 92.5095 19.832 89.6023 19.2102Z" fill="#323232"/>
<path d="M13.949 2.29482L2.31982 9.00891L36.5401 68.2802L48.1692 61.5661L13.949 2.29482Z" fill="#F2E98C"/>
<path d="M0.327352 10.1734L30.3171 62.1172L34.5476 69.4447C34.863 69.966 35.369 70.3439 35.9583 70.4984C36.5477 70.6529 37.174 70.5719 37.7046 70.2725L49.3337 63.5584C49.8549 63.2429 50.2328 62.7369 50.3873 62.1476C50.5419 61.5583 50.4609 60.932 50.1615 60.4014L20.1718 8.45771L15.9412 1.13018C15.6258 0.608961 15.1198 0.231045 14.5305 0.076523C13.9411 -0.0779985 13.3148 0.00302068 12.7842 0.30241L1.15513 7.01649C-1.41606 8.50097 0.905109 12.4903 3.48429 11.0012L15.1134 4.28712L11.9564 3.45935L41.9462 55.4031L46.1768 62.7306L47.0045 59.5736L35.3754 66.2878L38.5323 67.1156L8.54263 15.1718L4.31207 7.84426C2.8276 5.27307 -1.16174 7.59424 0.327352 10.1734Z" fill="#323232"/>
<path d="M6.57507 7.86301L35.8092 57.5989L39.9291 64.608C41.433 67.1668 45.4234 64.8472 43.9137 62.2789L14.6796 12.5429L10.5598 5.53384C9.0558 2.9751 5.0654 5.29463 6.57507 7.86301V7.86301Z" fill="#323232"/>
</g>
<defs>
<clipPath id="clip0">
<rect width="101.519" height="80" fill="white"/>
</clipPath>
</defs>
</svg>
