<svg id="レイヤー_1" data-name="レイヤー 1" xmlns="http://www.w3.org/2000/svg" viewBox="0 0 1029.93448 1197.32247"><defs><style>.cls-1{fill:#fff;}.cls-2{fill:#ffebd7;}.cls-3{fill:#f4da33;}.cls-4{fill:#353535;}.cls-5{fill:#88c6b2;}.cls-6{fill:#7a8ccc;}.cls-7{fill:#f1ce7a;}.cls-8{fill:#f2e98c;}.cls-9{fill:#7e7e7e;}</style></defs><path class="cls-1" d="M195.219,674.64091q2.147,8.33475,4.2945,16.6696c20.2125,3.9243,41.3523,1.9061,61.2554-3.012,15.6585-3.869,32.0269-9.4971,45.9674-18.3258a8.20839,8.20839,0,0,1-3.22618-4.4697q-1.92438-6.1182-3.84862-12.2365c-14.843,10.0861-32.84,15.8337-50.1856,19.1775C231.8919,675.83381,213.145,677.38,195.219,674.64091Z"/><path class="cls-2" d="M244.9842,656.15161c14.3323-2.763,29.6183-7.0433,42.3398-14.9242a8.47166,8.47166,0,0,1-1.3526-3.0417c-1.4338-6.0937-3.0236-12.1717-4.3056-18.2985-.9273-4.4311-.06268-8.0943.66-12.4794,3.116-18.9096,4.8914-38.3835,3.6984-57.5411-1.4957-24.0283-11.2563-46.4252-15.9777-69.8375a169.11716,169.11716,0,0,1-2.7559-19.1086c-.4707-5.5547.1406-11.5226-1.7371-16.8595-1.836-5.2177-6.8467-10.8681-11.7001-5.2825-6.7667,7.7876-8.903,23.5913-10.202,33.4769-1.5898,12.1007-1.7985,24.3771-2.8574,36.5297a8.75353,8.75353,0,0,1-1.4916,4.2779,8.48584,8.48584,0,0,1-9.926,5.5883c-17.62528-3.7244-35.194-7.9249-52.8004-11.9534q-14.53815,9.94695-29.07588,19.894a7.10262,7.10262,0,0,1-4.63652,1.8711c-.0919.005-.1819.0029-.273.0042-.0409-.0013-.0809,0-.1221-.0019a7.08952,7.08952,0,0,1-4.6798-1.8793q-2.11305-1.4457-4.2265-2.8919-24.0663-16.4661-48.13259-32.9327c-16.0021-1.5585-32.2628-2.3443-48.0311.7179-4.4777.8698-9.386,1.6442-13.4829,3.8134a427.13843,427.13843,0,0,1,73.9233,5.7787c10.7196,1.7667,6.145,18.0456-4.49179,16.2925a399.17061,399.17061,0,0,0-70.62821-5.1604c.238.139.4727.2793.7198.4154,7.7583,4.263,3.5669,14.7003-3.3961,15.6387a9.23655,9.23655,0,0,1,.0346,1.7168c-.4537,6.1657-.0309,11.324,4.6935,15.8011,5.0968,4.8301,12.2067,8.2947,18.3352,11.5871,12.6151,6.7776,25.8229,12.3515,38.6776,18.6435,27.0258,13.2285,54.985,24.5869,82.77969,36.0864,2.7563,1.1405,6.6606,2.1883,9.0247,4.0503,3.27322,2.5781,4.4059,8.1791,5.7799,11.9576q5.13015,14.10705,10.2597,28.2142C207.5573,660.76461,227.0359,659.61161,244.9842,656.15161Zm-75.947-96.4185c-19.0843-9.1051-40.5954-8.146-61.03849-11.5116-20.7475-3.4161-40.7711-10.5431-61.8849-11.6474-10.8355-.567-10.8665-17.4644,0-16.896,22.6921,1.1868,44.093,8.6184,66.3766,12.2509,22.31749,3.6378,44.21839,3.2647,65.07439,13.2148C187.3848,549.82861,178.8019,564.39171,169.0372,559.73311Z"/><path class="cls-3" d="M203.6228,153.25031c1.1266,10.7039,18.0349,10.8194,16.896,0q-1.66752-15.837-3.3342-31.6743c-1.12648-10.7039-18.0349-10.8194-16.896,0Q201.95555,137.41331,203.6228,153.25031Z"/><path class="cls-3" d="M254.3739,165.84941q9.16875-18.3375,18.3373-36.6753c4.8494-9.6981-9.7205-18.2649-14.5889-8.5278q-9.1692,18.3378-18.3377,36.6753C234.9353,167.01971,249.5052,175.58671,254.3739,165.84941Z"/><path class="cls-3" d="M281.3502,192.21911q14.17005-7.50165,28.34-15.0036c9.6137-5.0895,1.0857-19.6785-8.5276-14.5891q-14.17005,7.50165-28.34,15.0034C263.2089,182.71931,271.7369,197.30861,281.3502,192.21911Z"/><path class="cls-4" d="M177.5648,545.14381c-20.856-9.9501-42.7569-9.577-65.07439-13.2148-22.2836-3.6325-43.6845-11.0641-66.3766-12.2509-10.8665-.5684-10.8355,16.329,0,16.896,21.1138,1.1043,41.1374,8.2313,61.8849,11.6474,20.44309,3.3656,41.95419,2.4065,61.03849,11.5116C178.8019,564.39171,187.3848,549.82861,177.5648,545.14381Z"/><path class="cls-3" d="M134.2007,362.31081c0-19.377-.3791-38.8012-.0243-58.1784q-27.4137-18.75675-54.82789-37.5139c-3.8412-2.6281-13.5617-11.9745-18.8372-9.6072-4.5779,2.0543-3.3396,9.0548-3.3396,13.1184v180.8734l76.87559,52.5991C133.5444,456.52071,134.2007,409.38721,134.2007,362.31081Z"/><path class="cls-5" d="M228.1257,405.83351V266.08391c0-5.8761-2.2312-12.1812-9.5807-8.0838-7.0537,3.9324-13.617,9.3171-20.2752,13.8726q-23.58675,16.1379-47.1731,32.2762v199.5585q38.51475-26.3523,77.029-52.7043Z"/><path class="cls-4" d="M334.46212,681.00121c.28,4.7498-.65672,9.9815,1.07948,14.3223-1.7362-4.3408-.79948-9.5725-1.07948-14.3223-4.33422.8976-8.16342,4.7575-6.77252,10.3026,8.0491,32.0891,15.6944,64.5919,26.17852,95.987,3.42668,10.2622,19.75008,5.863,16.29208-4.4916-1.539-4.6093-3.0017-9.2481-4.4286-13.9002-1.0296,2.6191-2.079,5.1552-3.1564,7.5253,1.0774-2.3701,2.1268-4.9062,3.1564-7.5253-8.2933-27.0355-14.8822-54.7088-21.74948-82.0868C342.7257,681.80341,338.387,680.18841,334.46212,681.00121Z"/><path class="cls-4" d="M409.615,980.79091q-5.9028,12.6768-11.5582,25.419,5.6268-12.755,11.5582-25.419a8.23882,8.23882,0,0,0-8.6625,3.6934c-15.7006,23.6521-38.6826,46.4749-68.2729,49.8716-27.0406,3.1042-55.9894-11.2274-72.1384-32.7208-16.7264-22.2623-24.4559-50.7734-30.8224-77.4366-7.3466-30.7714-12.7669-62.0124-19.0381-93.0125q-12.90465-63.7899-27.7394-127.1644c-.0045-.0184-.0107-.0343-.01518-.0526a8.79481,8.79481,0,0,0,2.826,1.3958c25.78828,7.5666,53.68028,5.6082,79.50848-.7738,22.9293-5.6655,46.2541-15.0681,64.2812-30.6696a9.03551,9.03551,0,0,0,1.4037-1.525,13.4072,13.4072,0,0,0-3.8519-2.4169,13.4072,13.4072,0,0,1,3.8519,2.4169c4.73962-6.5145-3.9196-15.2926-11.2691-11.7853q-3.74775-11.9157-7.4951-23.8312a8.56852,8.56852,0,0,0-10.4969-5.794c-1.02628-5.1629-1.79228-10.7522-3.6391-15.5222.7132-3.0168,1.01482-6.2368,1.4611-9.279,3.465-23.6094,5.58772-47.9283,1.6603-71.6116-2.3644-14.2593-6.78358-28.0366-10.6318-41.9352-4.0074-14.4736-5.6793-28.3457-6.925-43.2407-1.5226-18.2024-18.9911-39.6532-37.98178-25.7957-.219-9.5737-.60642-19.146-.60642-28.5215V272.03111c0-6.6118.71942-13.8681-2.3875-19.9382-7.2204-14.1042-23.4696-14.9406-35.3368-6.8211q-15.45585,10.5753-30.9124,21.1507-16.71045,11.4333-33.4211,22.867c-.106.0726-.2013.1423-.3057.2145-.1068-.0712-.2219-.144-.3246-.2145q-7.3353-5.0187-14.6706-10.0378-18.4833-12.64665-36.967-25.2931c-7.44689-5.0954-16.0974-13.123-25.417-14.131-14.6834-1.5879-24.7492,10.2964-25.0033,24.0714-.134,7.2768,0,14.5689,0,21.8467v161.7507c0,5.9922-.9025,11.2285,4.4233,15.3966,4.4257,3.4639,9.1983,6.5843,13.9503,9.6904-16.3598-.179-35.3735,1.3485-47.8129,11.2369-13.992,11.1231-14.0572,28.0595-2.3702,38.7862a8.36013,8.36013,0,0,0-5.285,7.368c-1.8203,24.7265,18.4751,35.5897,37.9764,45.3895,17.3688,8.7285,35.0848,17.0315,52.8528,24.9323,22.43179,9.9751,45.09209,19.4578,67.79479,28.8032q6.276,17.25825,12.5516,34.5168a9.2452,9.2452,0,0,0,1.1302,2.1661q3.28935,12.76845,6.579,25.537a9.56125,9.56125,0,0,0-2.039,8.0867c-5.3724-3.9081-15.373.6427-13.3782,9.1071q14.55555,61.7649,27.0934,123.9771c6.9964,34.4738,12.8143,69.3244,21.4628,103.4387,7.1977,28.3924,16.7322,58.1408,35.944,80.8725,18.9346,22.4036,50.9813,37.2118,80.4594,34.5633,36.49472-3.2788,64.48572-29.0561,83.9334-58.3528C419.3533,987.27011,414.9119,981.77931,409.615,980.79091ZM299.6615,653.26651q1.92435,6.1182,3.84862,12.2365a8.20839,8.20839,0,0,0,3.22618,4.4697c-13.9405,8.8287-30.3089,14.4568-45.9674,18.3258-19.9031,4.9181-41.0429,6.9363-61.2554,3.012q-2.1477-8.3349-4.2945-16.6696c17.926,2.7391,36.6729,1.1929,54.2569-2.1969C266.8215,669.10021,284.8185,663.35261,299.6615,653.26651ZM151.0967,384.65241v-80.5035q23.58615-16.1382,47.1731-32.2762c6.6582-4.5555,13.2215-9.9402,20.2752-13.8726,7.3495-4.0974,9.5807,2.2077,9.5807,8.0838v184.9192q-38.5146,26.35215-77.029,52.7043Zm75.6249,87.7357c-1.1001,9.2757-1.5642,18.632-2.19,27.9582-9.7032-2.1229-19.397-4.3374-29.0936-6.5538q3.00225-2.05425,6.0039-4.1079Q214.0818,481.03636,226.7216,472.38811Zm-169.54989-21.385V270.12971c0-4.0636-1.2383-11.0641,3.3396-13.1184,5.2755-2.3673,14.996,6.9791,18.8372,9.6072q27.41385,18.757,54.82789,37.5139c-.3548,19.3772.0243,38.8014.0243,58.1784,0,47.0764-.6563,94.2099-.1534,141.2914ZM179.3678,628.10051c-1.374-3.7785-2.50668-9.3795-5.7799-11.9576-2.3641-1.862-6.2684-2.9098-9.0247-4.0503-27.7947-11.4995-55.75389-22.8579-82.77969-36.0864-12.8547-6.292-26.0625-11.8659-38.6776-18.6435-6.1285-3.2924-13.2384-6.757-18.3352-11.5871-4.7244-4.4771-5.1472-9.6354-4.6935-15.8011a9.23655,9.23655,0,0,0-.0346-1.7168c6.963-.9384,11.1544-11.3757,3.3961-15.6387-.2471-.1361-.4818-.2764-.7198-.4154a399.17061,399.17061,0,0,1,70.62821,5.1604c10.63679,1.7531,15.21139-14.5258,4.49179-16.2925a427.13843,427.13843,0,0,0-73.9233-5.7787c4.0969-2.1692,9.0052-2.9436,13.4829-3.8134,15.7683-3.0622,32.029-2.2764,48.0311-.7179q24.0663,16.4661,48.13259,32.9327,2.11305,1.446,4.2265,2.8919a7.08952,7.08952,0,0,0,4.6798,1.8793c.0412.0019.0812.0006.1221.0019.0911-.0013.1811.0008.273-.0042a7.10262,7.10262,0,0,0,4.63652-1.8711q14.53812-9.947,29.07588-19.894c17.6064,4.0285,35.17512,8.229,52.8004,11.9534a8.48584,8.48584,0,0,0,9.926-5.5883,8.75353,8.75353,0,0,0,1.4916-4.2779c1.0589-12.1526,1.2676-24.429,2.8574-36.5297,1.299-9.8856,3.4353-25.6893,10.202-33.4769,4.8534-5.5856,9.8641.0648,11.7001,5.2825,1.8777,5.3369,1.2664,11.3048,1.7371,16.8595a169.11716,169.11716,0,0,0,2.7559,19.1086c4.7214,23.4123,14.482,45.8092,15.9777,69.8375,1.193,19.1576-.5824,38.6315-3.6984,57.5411-.72268,4.3851-1.5873,8.0483-.66,12.4794,1.282,6.1268,2.8718,12.2048,4.3056,18.2985a8.47166,8.47166,0,0,0,1.3526,3.0417c-12.7215,7.8809-28.0075,12.1612-42.3398,14.9242-17.9483,3.46-37.4269,4.613-55.3567.1631Q184.4975,642.20766,179.3678,628.10051Zm5.7994,67.223c-5.0688,3.3792-6.7584,10.1376-10.1376,13.5168C178.4088,705.46111,180.0984,698.70271,185.1672,695.32351Z"/><path class="cls-6" d="M530.16649,505.54011a149.21142,149.21142,0,0,0-26.94079,9.1229c-11.9877,5.1962-26.0197,10.8677-36.2237,19.1049-8.2595,6.6676-13.6121,16.7803-18.053,26.2071-9.7767,20.7519-15.2386,43.3755-22.4198,65.0911q-17.13075,51.8013-35.1694,103.308c-1.71268.2398-3.4283.4692-5.1302.7414-7.3706,0-13.4558,21.8634-20.498,39.7835,1.4269,4.6521,2.8896,9.2909,4.4286,13.9002,3.458,10.3546-12.8654,14.7538-16.29208,4.4916-10.48412-31.3951-18.12942-63.8979-26.17852-95.987-1.3909-5.5451,2.4383-9.405,6.77252-10.3026-.191-3.239-.95542-6.2512-3.51662-8.6048a9.03551,9.03551,0,0,1-1.4037,1.525c-18.0271,15.6015-41.3519,25.0041-64.2812,30.6696-25.8282,6.382-53.7202,8.3404-79.50848.7738a8.79481,8.79481,0,0,1-2.826-1.3958c.00448.0183.01068.0342.01518.0526q14.928,63.3477,27.7394,127.1644c6.2712,31.0001,11.6915,62.2411,19.0381,93.0125,6.3665,26.6632,14.096,55.1743,30.8224,77.4366,16.149,21.4934,45.0978,35.825,72.1384,32.7208,29.5903-3.3967,52.5723-26.2195,68.2729-49.8716a8.23882,8.23882,0,0,1,8.6625-3.6934c22.65-48.6431,47.6999-96.7877,67.853-148.6098,11.8272-33.792,40.55039-62.5152,42.24-99.6864-28.61849-4.2398-57.23609-7.1464-85.02039-7.0579.6402-12.0552-.04-24.3084.1097-36.2759.1555-12.4255-.73218-28.3462,5.5882-39.5898,5.4045-9.6142,18.7039-11.4197,28.5095-13.6699,3.2967-.7565,6.6074-1.4602,9.92312-2.141-2.40822-2.3315-2.50062-5.2499-2.16652-8.3507-3.7764-2.0759-6.1941-6.6297-3.3726-11.4178q14.62368-24.81615,29.2479-49.6328a72.97736,72.97736,0,0,1-14.4903-2.2052,8.52336,8.52336,0,0,1-3.7277-14.1199c12.1964-11.88,25.523-22.4895,38.01389-34.0451,3.008-2.7825,5.8732-5.6688,8.6662-8.6128C530.71549,505.43331,530.43959,505.47991,530.16649,505.54011Z"/><path class="cls-7" d="M591.60432,587.296a.8315.8315,0,0,0,.113-.0848C591.63312,587.23041,591.58032,587.25571,591.60432,587.296Z"/><path class="cls-7" d="M599.30562,588.28241c.0124-.0352-.0771-.0806-.2297-.1311C599.18022,588.36411,599.28052,588.3,599.30562,588.28241Z"/><path class="cls-1" d="M680.27692,1155.02021c-7.55-17.5007-14.7646-35.1478-20.9496-53.1797-6.6112-19.276-12.745-39.7183-14.5576-60.306q-4.1523,1.311-8.3044,2.6224c.5651,38.3375,13.0338,76.1209,26.8711,111.796a20.876,20.876,0,0,1,5.5485.6314,20.876,20.876,0,0,0-5.5485-.6314c.4946,1.2749.9867,2.5537,1.4841,3.8231Q672.54882,1157.39821,680.27692,1155.02021Z"/><path class="cls-8" d="M675.40322,667.10931q-10.0014-15.48585-20.0021-30.9717c-1.7432-2.6986-4.1827-8.6802-6.758-8.2193-1.5163.2713-3.9691,2.9372-5.1698,3.8258q-5.4816,4.05615-10.9631,8.1124-17.943,13.27755-35.8854,26.5551-19.266,14.25645-38.53163,28.5128c3.1507,4.8229,7.0455,10.1824,7.6465,15.7265,1.1901,10.9805-9.9804,16.1218-17.641,21.2974q-18.7215,12.6483-37.443,25.2965-29.84728,20.1654-59.695,40.3306a8.08075,8.08075,0,0,1-3.6869,1.4112c-8.1489,2.3782-13.2408-3.0225-17.3258-9.2355q-10.80345,7.99455-21.6076,15.9892c.111.3679.2405.7265.3461,1.0968-.1056-.3703-.2351-.7289-.3461-1.0968q-7.761,5.74305-15.5219,11.4861-15.8499,11.72925-31.7007,23.4583c-2.6301,1.9464-5.7451,3.742-8.1134,6.004-2.1735,2.0757-2.2312.5995-1.2289,3.251,1.0354,2.7387,3.6482,5.5474,5.2419,7.9709q6.2001,9.4284,12.4005,18.8568,17.66133,26.85615,35.32222,53.7123,21.38157,32.5137,42.76348,65.0274c.20052-.211.3869-.43.5981-.6352,8.7442-8.5051,22.129-8.7357,33.5132-9.6267q24.1956-1.89345,48.392-3.7871c12.9814-1.0159,26.3266-3.0408,39.2898-.9378,13.0911,2.1238,22.598,9.7747,29.48013,20.8133,5.8662,9.4092,11.1025,27.2265,24.3536,27.9027a9.10815,9.10815,0,0,1,2.7464.5534q9.2355-2.91645,18.4714-5.833c.002-.0495.0016-.0991.0041-.1486a8.7778,8.7778,0,0,1,6.2019-8.1463q102.34005-35.0421,204.6652-70.1267-56.8947-88.09515-113.7889-176.1902Q708.41642,718.227,675.40322,667.10931Z"/><path class="cls-1" d="M612.27182,495.66771c.0173-9.8129.2087-19.6232.3918-29.4337-24.4365,1.3359-41.18693,18.3053-56.11323,35.9446-14.3154,16.9175-31.0266,30.9149-47.2865,45.6481,8.9018.0446,17.9425-1.0758,26.6228-1.6178q22.50195-1.4046,45.0041-2.8098a7.62145,7.62145,0,0,1,4.9422,1.2518c6.50963-16.8113,17.775-31.3304,26.57413-47.4095A9.41274,9.41274,0,0,1,612.27182,495.66771Z"/><path class="cls-2" d="M832.97992,256.48091a25.91153,25.91153,0,0,0-7.5347-9.3362c-6.5703-5.0069-12.8713-5.8179-19.5261-.7187-8.6357,6.6167-17.0421-8.0657-8.5277-14.5891a28.77744,28.77744,0,0,1,5.6983-3.4131c-2.7014-3.7125-5.7135-7.2412-7.8824-11.0789-17.3184-7.5512-31.9527-22.1438-44.4865-35.7083-15.7979-17.0966-30.8583-36.3612-40.2889-57.7873a8.89487,8.89487,0,0,1,2.1458-10.265,36.27468,36.27468,0,0,1-6.1656-10.0391c-37.9793,46.8831-90.8333,72.6636-150.04733,82.5174a8.71355,8.71355,0,0,1-8.9702-3.9817,37.36171,37.36171,0,0,0-8.5528,8.2251,8.44491,8.44491,0,0,1,5.2775,7.3006c2.7493,32.6143,2.7782,65.3979,4.31483,98.0776,1.21187,25.7757,2.19817,52.3634,14.21137,75.7955,12.585,24.5478,34.589,46.0874,60.68833,55.8508,45.535,17.0342,105.706-8.3267,124.766-53.0211,4.2565-9.9817,18.8067-1.3625,14.5893,8.5276-12.1803,28.5615-38.8262,48.6354-67.4327,58.9727-20.6332,7.4559-43.8747,9.9029-65.4208,4.9877-.1473,16.2913-.639,32.5774-.6678,48.8703-.0182,10.333-15.2229,10.8385-16.7607,1.5737-8.7991,16.0791-20.0645,30.5982-26.57413,47.4095,3.0199,2.0967,3.8878,6.4131,2.607,9.9911,1.7114,6.8459,3.61023,13.6604,5.76143,20.3804.6435,2.0101,1.8377,4.3717,2.8718,6.7159,15.3004-16.6864,29.087-38.3286,35.857-59.5163.0887-.2776.191-.5393.2978-.7957a7.60982,7.60982,0,0,1,4.1023-6.0008c46.3378-26.3369,95.6192-51.0149,135.3437-87.1083a8.10056,8.10056,0,0,1,8.0751-1.8995c.1857-1.6329.4233-3.2972.6683-4.9758-4.686.8105-10.145-1.8647-10.2465-8.0139q-.44055-26.764-.7136-53.5309c-.083-7.4541,7.8003-9.7913,12.8262-7.0451a166.27638,166.27638,0,0,0,13.7792-18.5258c-10.6223-.7695-10.5856-17.4318.2091-16.875,20.0673,1.0346,33.5565-16.3593,37.7351-34.4346C837.01332,274.338,836.92052,264.62441,832.97992,256.48091Zm-210.8494,43.4678a8.65186,8.65186,0,0,1,5.9734-2.4744l3.934.0804a8.92356,8.92356,0,0,1,5.9734,2.4746,8.44733,8.44733,0,0,1,0,11.9472,8.65237,8.65237,0,0,1-5.9734,2.4742l-3.934-.0804a8.92355,8.92355,0,0,1-5.9734-2.4742,8.44757,8.44757,0,0,1,0-11.9474Zm-27.5158-59.1428c-10.89,0-10.87193-16.896,0-16.896C605.50432,223.90991,605.48612,240.80591,594.61472,240.80591Zm78.1242,124.7385c-16.2793,12.6136-47.2275,15.0936-62.3118-1.0504-7.4213-7.9423,4.5078-19.9093,11.9468-11.9473,8.2314,8.8094,29.2372,8.1638,38.4178,1.0503C669.28672,347.01471,681.32262,358.89331,672.73892,365.54441Zm20.1906-121.2653c-10.89,0-10.8718-16.896,0-16.896C703.81912,227.38311,703.80142,244.27911,692.92952,244.27911Z"/><path class="cls-6" d="M532.672,563.30581c-3.8816.2423-7.77387.5416-11.6671.7856a8.277,8.277,0,0,1-1.2297,4.2826q-15.95385,27.07275-31.90729,54.1455c-2.706,4.5922-7.5879,4.8847-11.2162,2.89-.3342,3.1008-.2418,6.0192,2.16642,8.3507q8.91117-1.8297,17.88018-3.3462c10.6533-1.7996,15.18989,14.4851,4.4917,16.2925q-12.6441,2.13585-25.1814,4.8986a164.73251,164.73251,0,0,0-16.8531,4.3588c-.7966.2675-2.7481,1.0137-3.51538,1.2914a18.78759,18.78759,0,0,0-1.13762,2.0765c-3.9567,12.3976-2.8483,26.7848-2.8611,39.6176-.0116,11.4099.1514,22.8299-.823,34.1903q26.2809-17.7552,52.5608-35.5104a8.39718,8.39718,0,0,1-.5507-3.4877c1.0482-25.2898,9.14019-50.4534,16.988-74.3178,5.0238-15.2759,10.4305-30.4649,16.4249-45.39a8.90641,8.90641,0,0,1,9.0853-5.6121,42.87393,42.87393,0,0,1,4.2987-6.5744Q541.14848,562.77666,532.672,563.30581Z"/><path class="cls-1" d="M787.918,403.28471c.0507,3.3812.0932,6.7623.1489,10.1433a7.64289,7.64289,0,0,1-6.6495,8.0139c-.245,1.6786-.4826,3.3429-.6683,4.9758a9.53889,9.53889,0,0,1,3.2947,1.8253c3.467,2.906,4.8819,8.111.5775,12.0215-35.1186,31.9085-77.1751,55.2599-118.5612,78.3915,8.6741,2.8107,16.5033,7.4192,21.9937,15.4889,11.2984,16.606,3.6605,37.1803,11.1994,54.6618,4.2644,9.8895-10.2956,18.4848-14.5893,8.5279-6.4359-14.9243-3.5843-30.2462-7.2728-45.5924-3.4968-14.5477-16.8502-18.2915-29.9521-19.9411-5.4338,14.6565-13.6583,28.326-22.5064,41.1172-6.5352,9.4475-14.216,22.3674-24.2657,28.6066-17.41533,10.8123-25.07343-27.2738-28.13373-40.7079q-11.4543.7149-22.9078,1.4303a42.87393,42.87393,0,0,0-4.2987,6.5744c5.009.2939,9.5675,4.2275,7.2072,10.1038-5.7407,14.2935-10.9321,28.8321-15.7835,43.4486-6.7732,20.4068-14.1528,42.0148-16.4166,63.6777,6.1404-4.5579,13.64633-10.6058,21.02433-9.3379a13.55488,13.55488,0,0,1,7.51777,4.1318q29.38065-21.7416,58.76183-43.4834,13.75365-10.1778,27.508-20.3556c9.471-7.0088,20.7644-10.0485,29.1101,1.7242,7.7018,10.8649,14.8447,22.2051,21.9442,33.5475,26.8488-77.5734,62.818-153.7508,109.4965-221.3084a9.24153,9.24153,0,0,1,1.4458-1.6162,8.49118,8.49118,0,0,1,8.0025-1.8362C800.84412,418.371,796.02732,410.13571,787.918,403.28471Z"/><path class="cls-6" d="M1012.99862,991.46761c-4.7928-53.8232-9.7086-107.6504-16.1036-161.311-8.5577-71.8066-22.612-142.6756-31.7357-214.3684-1.6405-12.8915-3.0517-25.9655-5.8162-38.6777-2.6074-11.9887-12.7017-21.0717-22.3274-28.1236-28.2616-20.7046-62.3795-30.6506-92.405-48.1683a8.2421,8.2421,0,0,1-3.1993-3.2119,7.88138,7.88138,0,0,1-2.9387-3.3085c-.5705-1.1337-1.0931-2.2887-1.5922-3.4538q-16.67475-20.675-33.349-41.3494c-43.9964,65.9237-78.1349,139.4699-103.4872,214.3386a8.31408,8.31408,0,0,1-3.6456,4.6305c.7515,1.1773,1.4994,2.3586,2.2563,3.5304q35.54295,55.0347,71.0862,110.0694l85.1523,131.8488c-2.2803-9.9014-4.9038-19.8028-6.6499-29.7042-2.8409-.3583-5.3142-2.228-5.9466-6.038q-1.55115-9.34485-3.1028-18.6896-10.614-63.92745-21.2277-127.8547c-1.7688-10.6537,14.5159-15.1932,16.2925-4.4916q1.5513,9.34485,3.1029,18.6896,10.614,63.92745,21.2276,127.8547c1.1394,6.8609-5.207,11.1776-10.3459,10.5296,1.7461,9.9014,4.3696,19.8028,6.6499,29.7042q7.3458,11.3742,14.6916,22.7485a9.17382,9.17382,0,0,1,2.0935-.2104,151.62063,151.62063,0,0,1,69.3994,17.7938c9.6232,5.097,1.0758,19.6757-8.5276,14.5892a132.81555,132.81555,0,0,0-60.8718-15.487,8.88482,8.88482,0,0,1-2.9337-.5182c-.1906.0854-.3816.1683-.5775.2415a8.30982,8.30982,0,0,1-5.7985,7.8467q-100.6038,34.5045-201.2287,68.9494c.1324,23.0245,7.0839,45.9202,14.4796,67.4827,8.302,24.2048,18.4878,47.6795,28.849,71.0573a9.69643,9.69643,0,0,1,.441,1.2342c29.6109-7.1801,59.1533-14.6482,88.5188-22.7779,47.5109-13.1532,94.3993-28.3082,141.0131-44.3283,19.258-6.6184,42.3237-11.3312,57.8795-25.3993,16.175-14.6279,20.4047-35.7925,20.0388-56.8007a7.59582,7.59582,0,0,1,6.2721-7.9373V998.902A8.52593,8.52593,0,0,1,1012.99862,991.46761Zm-257.3097-329.6769c8.7735,6.5217,18.4858,12.7708,23.7807,22.6815,12.0903,22.6276-2.6446,45.9632-4.4583,68.8768-.8539,10.785-17.754,10.8409-16.896,0,.8951-11.3125,4.252-21.7917,6.9621-32.74,2.1492-8.6839,4.0194-19.1986-.1967-27.6091-4.6935-9.3619-16.2476-15.5257-24.3738-21.5662q-13.97325-10.3872-27.9473-20.7742c-8.6378-6.4208-.2042-21.08,8.5276-14.5891q4.6314,3.442,9.2619,6.8844c6.5232-7.5217,16.4665-9.7348,27.154-10.6778,9.9483-.8776,14.9135-3.1416,19.0526-12.66a160.1254,160.1254,0,0,0,7.9814-24.1189c8.4517-33.0115,8.9657-67.1872,21.8481-99.132,4.0214-9.9728,20.3577-5.5898,16.2921,4.4917-12.8824,31.9457-13.3955,66.1194-21.8477,99.1318-3.5504,13.8672-8.0681,33.6485-20.2327,42.6309-5.9944,4.4262-13.1567,5.5874-20.3878,6.3147-4.2487.4275-12.8605.2102-16.6584,3.8329Q749.61942,657.27936,755.68892,661.79071ZM889.897,561.28931c-45.1365,7.6079-66.9029,48.082-68.557,90.9276-.4191,10.8554-17.3156,10.8736-16.896,0,1.9197-49.7166,28.38-98.3574,80.9613-107.2201C896.05862,543.20111,900.59612,559.486,889.897,561.28931Z"/><path class="cls-2" d="M597.27612,1031.75481c-6.4906-8.1852-9.62283-18.5783-16.31643-26.554-7.4844-8.9177-18.8517-9.0694-29.6055-8.4747-12.5029.6915-24.9946,1.9134-37.47807,2.8903-12.901,1.0097-25.82712,1.853-38.71362,3.0298-8.2508.7535-22.8871,3.8525-14.5625,14.9455,6.5303,8.7018,20.1849,7.4562,29.8077,7.504,10.9659.0545,21.45329,1.0634,31.22542,6.3812a9.71288,9.71288,0,0,1,.92567.5763q4.202-2.1273,8.40433-4.2549c9.68787-4.9048,18.23077,9.6767,8.52757,14.5892q-24.76185,12.5367-49.52439,25.0731c-9.6879,4.9048-18.2308-9.6767-8.5276-14.5892q10.23915-5.18385,20.4786-10.3678c-8.7834-1.3284-18.1814-.2409-26.98-1.0888a7.61,7.61,0,0,1-3.6118,9.6611c-6.3121,3.5219-10.5171,10.3936-8.354,17.735,1.9705,6.6868,7.4201,9.4679,13.6583,11.1034,5.636,1.4775,10.8236,3.9782,12.8811,9.8905,2.5621,7.3627-4.3733,12.3191-3.2323,18.9647.997,5.8091,6.3281,10.2769,7.6939,16.1095,1.08162,4.618.4323,9.652-.48338,14.2285-.51282,2.5639-1.90782,5.2293-2.11372,7.8142-.3547,4.461,2.1582,9.9505,3.7818,13.9561,5.81092,14.3322,17.40339,18.7015,32.28809,19.2495,33.01483,1.2158,65.23973-11.0959,96.42143-20.3049,6.791-2.0055,11.034,4.1548,10.3402,9.5692,4.5362-2.052,8.8547-5.1027,13.2965-7.788-14.3319-36.9548-27.0914-76.0881-27.918-115.8477C610.44892,1044.31311,603.17532,1039.19411,597.27612,1031.75481Z"/><path class="cls-9" d="M913.16,414.377c-3.5813-40.6086-35.8129-78.1013-78.8251-75.5991-6.9741.4055-9.44-6.3888-7.4716-11.4877-.509-.2683-1.0056-.5464-1.4986-.8324a46.03774,46.03774,0,0,1-21.5911,7.7527,65.6163,65.6163,0,0,0,7.9097,7.7434,8.45987,8.45987,0,0,1,10.8785.4404c19.5273,17.181,24.4901,43.6116,24.7541,68.4589.1543,14.4806-.5189,28.9097.0124,43.3917.3415,9.3122.7635,19.1454,4.1539,27.9436q1.68855,2.09325,3.3767,4.1866a9.5641,9.5641,0,0,1,.9079,1.3559c12.8873,7.271,26.631,13.2988,40.2988,19.4768-.1873-10.2413,2.7485-20.997,5.8736-29.9586C909.18312,456.47571,915.13132,436.72731,913.16,414.377Z"/><path class="cls-9" d="M538.84179,190.306a37.36171,37.36171,0,0,1,8.5528-8.2251c-2.9337-4.4946-2.1731-11.2039,4.4789-12.3108,56.17673-9.3483,107.91583-33.0322,143.33063-79.0251,6.548-8.5046,21.2181-.0819,14.5888,8.5276q-1.66875,2.16675-3.3808,4.2726a36.27468,36.27468,0,0,0,6.1656,10.0391c3.6936-3.5282,9.8551-4.1432,12.4435,1.7372,8.5726,19.477,21.8006,36.9334,36.0348,52.608,11.6861,12.8687,26.1211,28.8572,42.9936,34.8653,10.1875,3.6275,5.7709,19.9466-4.4913,16.2925-1.471-.5239-2.9172-1.1172-4.351-1.7424,2.1689,3.8377,5.181,7.3664,7.8824,11.0789,7.2344-3.2589,15.067-3.0149,22.2767-.3611,1.2569-2.0569,2.5236-4.1091,3.7715-6.1708-5.047-1.2247-9.1118-6.5653-5.4974-12.17,15.972-24.7685,15.9575-57.2653,9.5386-85.1268-12.6674-54.985-58.8695-98.0409-114.9336-106.4427-51.5737-7.729-116.0684,14.739-146.83353,57.9872a9.2124,9.2124,0,0,1-1.9734,2.0443c-7.9307,9.9928-13.9314,21.8563-19.1759,33.3605-5.5304,12.1313-11.1829,25.8704-11.689,39.3666-.23757,6.3393-6.0951,8.976-10.8488,7.9138-1.7609,11.1309-2.8854,22.5111,1.662,32.6605C531.76949,189.33041,535.65239,188.95461,538.84179,190.306Z"/><path class="cls-4" d="M797.06272,334.32621c.0709.005.1369.0173.2091.021a46.15388,46.15388,0,0,0,6.5018-.1367,38.59282,38.59282,0,0,1-3.5017-4.8986Q798.67307,331.85951,797.06272,334.32621Z"/><path class="cls-4" d="M843.85752,242.10191a41.33951,41.33951,0,0,0-18.4911-14.0392,114.3517,114.3517,0,0,0-7.7967,14.448,114.3517,114.3517,0,0,1,7.7967-14.448c-7.2097-2.6538-15.0423-2.8978-22.2767.3611.9372,1.2879,1.8406,2.5955,2.6528,3.9493-.8122-1.3538-1.7156-2.6614-2.6528-3.9493a28.77744,28.77744,0,0,0-5.6983,3.4131c-8.5144,6.5234-.108,21.2058,8.5277,14.5891,6.6548-5.0992,12.9558-4.2882,19.5261.7187a25.91153,25.91153,0,0,1,7.5347,9.3362c3.9406,8.1435,4.0334,17.8571,2.027,26.5357-4.1786,18.0753-17.6678,35.4692-37.7351,34.4346-10.7947-.5568-10.8314,16.1055-.2091,16.875q1.61115-2.4672,3.2092-5.0143c-.4496-.7483-.8848-1.5147-1.2878-2.3212.403.8065.8382,1.5729,1.2878,2.3212.1337-.2131.2682-.4177.4018-.6316-.1336.2139-.2681.4185-.4018.6316a38.59282,38.59282,0,0,0,3.5017,4.8986,46.03774,46.03774,0,0,0,21.5911-7.7527,29.72819,29.72819,0,0,1-6.1054-4.5359,29.72819,29.72819,0,0,0,6.1054,4.5359c14.881-9.9372,24.7583-27.8512,27.1372-45.83C854.274,267.23721,852.07,253.11791,843.85752,242.10191Z"/><path class="cls-4" d="M783.28352,352.852a109.75479,109.75479,0,0,1-11.333,11.3099,109.75479,109.75479,0,0,0,11.333-11.3099c-5.0259-2.7462-12.9092-.409-12.8262,7.0451q.297,26.76585.7136,53.5309c.1015,6.1492,5.5605,8.8244,10.2465,8.0139.8303-5.6915,1.7106-11.5304.6707-16.7296,1.0399,5.1992.1596,11.0381-.6707,16.7296a7.64289,7.64289,0,0,0,6.6495-8.0139c-.0557-3.381-.0982-6.7621-.1489-10.1433q-1.1781-.9954-2.4507-1.9516,1.2747.956,2.4507,1.9516-.3261-21.69345-.5647-43.3876A7.76144,7.76144,0,0,0,783.28352,352.852Z"/><path class="cls-4" d="M692.92952,244.27911c10.8719,0,10.8896-16.896,0-16.896C682.05772,227.38311,682.03952,244.27911,692.92952,244.27911Z"/><path class="cls-4" d="M594.61472,240.80591c10.8714,0,10.8896-16.896,0-16.896C583.74279,223.90991,583.72469,240.80591,594.61472,240.80591Z"/><path class="cls-4" d="M632.03792,314.45071a8.44813,8.44813,0,0,0,8.448-8.448,8.53821,8.53821,0,0,0-2.4746-5.9734,8.92356,8.92356,0,0,0-5.9734-2.4746l-3.934-.0804a8.44847,8.44847,0,0,0-8.448,8.448,8.53614,8.53614,0,0,0,2.4746,5.9738,8.92355,8.92355,0,0,0,5.9734,2.4742Z"/><path class="cls-4" d="M784.04382,428.243a9.53889,9.53889,0,0,0-3.2947-1.8253c-.0738.6496-.1262,1.287-.1802,1.9251C781.70862,428.31761,782.87022,428.27821,784.04382,428.243Z"/><path class="cls-4" d="M784.04382,428.243c-1.1736.0352-2.3352.0746-3.4749.0998-.0978,1.1558-.1704,2.298-.1704,3.4031,0-1.1051.0726-2.2473.1704-3.4031-.6266.0138-1.2487.0239-1.86.0239.6113,0,1.2334-.0101,1.86-.0239.054-.6381.1064-1.2755.1802-1.9251a8.10056,8.10056,0,0,0-8.0751,1.8995c-39.7245,36.0934-89.0059,60.7714-135.3437,87.1083a7.60982,7.60982,0,0,0-4.1023,6.0008c-.1068.2564-.2091.5181-.2978.7957-6.77,21.1877-20.5566,42.8299-35.857,59.5163-1.0341-2.3442-2.2283-4.7058-2.8718-6.7159-2.1512-6.72-4.05-13.5345-5.76143-20.3804,1.2808-3.578.4129-7.8944-2.607-9.9911a76.82671,76.82671,0,0,0-4.8073,18.8838,76.82671,76.82671,0,0,1,4.8073-18.8838,7.62145,7.62145,0,0,0-4.9422-1.2518q-22.5021,1.4049-45.0041,2.8098c-8.6803.542-17.721,1.6624-26.6228,1.6178,16.2599-14.7332,32.9711-28.7306,47.2865-45.6481,14.9263-17.6393,31.67673-34.6087,56.11323-35.9446-.1831,9.8105-.3745,19.6208-.3918,29.4337a9.41274,9.41274,0,0,0,.1353,1.5737c1.4425-2.6361,2.8227-5.3117,4.1002-8.0491-1.2775,2.7374-2.6577,5.413-4.1002,8.0491,1.5378,9.2648,16.7425,8.7593,16.7607-1.5737.0288-16.2929.5205-32.579.6678-48.8703,21.5461,4.9152,44.7876,2.4682,65.4208-4.9877,28.6065-10.3373,55.2524-30.4112,67.4327-58.9727,4.2174-9.8901-10.3328-18.5093-14.5893-8.5276-19.06,44.6944-79.231,70.0553-124.766,53.0211-26.0993-9.7634-48.10333-31.303-60.68833-55.8508-12.0132-23.4321-12.9995-50.0198-14.21137-75.7955-1.53663-32.6797-1.56553-65.4633-4.31483-98.0776a8.44491,8.44491,0,0,0-5.2775-7.3006c-3.7323,5.0277-5.8558,10.8737-5.1249,16.7231-.7309-5.8494,1.3926-11.6954,5.1249-16.7231-3.1894-1.3514-7.0723-.9756-9.4549,1.1793a32.67585,32.67585,0,0,0,4.33,7.0958,32.67585,32.67585,0,0,1-4.33-7.0958,7.0851,7.0851,0,0,0-2.1636,6.1213c2.7143,32.1966,2.7737,64.5597,4.2574,96.8224,1.33043,28.9334,2.8636,58.0922,16.0232,84.4711a134.54751,134.54751,0,0,0,65.48523,62.304c-.0087,2.7036-.0413,5.4071-.0718,8.1104-26.93053,1.3322-47.31333,16.6755-64.43373,36.3736q-2.34135,2.69475-4.6637,5.3819a7.74711,7.74711,0,0,0-6.6974-3.4652c-10.31737-.0794-21.3147,4.0444-30.756,7.6544-23.1561,8.8537-48.86138,19.318-63.2202,40.4594-13.5003,19.8776-20.1316,44.0845-27.1099,66.8025-9.1364,29.7466-19.4807,59.1614-29.5954,88.5873q-8.2584,24.025-16.7242,47.98c-2.668,7.4966,5.3171,11.8656,11.2307,9.7101-.997-2.5657-1.9078-5.1746-2.6738-7.8558.766,2.6812,1.6768,5.2901,2.6738,7.8558a8.31738,8.31738,0,0,0,5.0618-5.2185c13.9974-39.3311,27.4127-78.8786,40.5199-118.5139,7.1812-21.7156,12.6431-44.3392,22.4198-65.0911,4.441-9.4268,9.7936-19.5395,18.053-26.2071,10.20412-8.2372,24.23612-13.9087,36.2237-19.1049a149.214,149.214,0,0,1,26.94079-9.1229c.2731-.0602.5491-.1068.8225-.1642-2.793,2.944-5.6582,5.8303-8.6662,8.6128-12.4909,11.5556-25.81749,22.1651-38.01389,34.0451a8.52335,8.52335,0,0,0,3.7278,14.1199,72.97625,72.97625,0,0,0,14.4903,2.2052q-14.62425,24.81645-29.24788,49.6328c-2.82152,4.7881-.40392,9.3419,3.37258,11.4178.4001-3.7121,1.374-7.676-.3812-11.1868,1.7552,3.5108.7813,7.4747.3812,11.1868,3.6283,1.9947,8.5102,1.7022,11.2162-2.89q15.95385-27.07275,31.90729-54.1455a8.277,8.277,0,0,0,1.2297-4.2826c3.89323-.244,7.7855-.5433,11.6671-.7856q8.47635-.529,16.9534-1.0585a34.01843,34.01843,0,0,1,7.7459-7.1606v0a34.01843,34.01843,0,0,0-7.7459,7.1606q11.4537-.7152,22.9078-1.4303c3.0603,13.4341,10.7184,51.5202,28.13373,40.7079,10.0497-6.2392,17.7305-19.1591,24.2657-28.6066,8.8481-12.7912,17.0726-26.4607,22.5064-41.1172,13.1019,1.6496,26.4553,5.3934,29.9521,19.9411,3.6885,15.3462.8369,30.6681,7.2728,45.5924,4.2937,9.9569,18.8537,1.3616,14.5893-8.5279-7.5389-17.4815.099-38.0558-11.1994-54.6618-5.4904-8.0697-13.3196-12.6782-21.9937-15.4889,41.3861-23.1316,83.4426-46.483,118.5612-78.3915C788.92572,436.354,787.51082,431.149,784.04382,428.243Zm-226.67253,60.9493c-6.7584,5.0688-13.5168,6.7584-18.5856,3.3792C543.85449,495.95071,550.61289,494.26111,557.37129,489.19231Zm34.233,98.1037c-.024-.0403.0288-.0656.113-.0848A.8315.8315,0,0,1,591.60432,587.296Zm7.4716.8553c.1526.0505.2421.0959.2297.1311C599.28052,588.3,599.18022,588.36411,599.07592,588.15131Z"/><path class="cls-4" d="M1018.63212,1012.39691v0a7.59582,7.59582,0,0,0-6.2721,7.9373c.3659,21.0082-3.8638,42.1728-20.0388,56.8007-15.5558,14.0681-38.6215,18.7809-57.8795,25.3993-46.6138,16.0201-93.5022,31.1751-141.0131,44.3283-29.3655,8.1297-58.9079,15.5978-88.5188,22.7779a9.69643,9.69643,0,0,0-.441-1.2342c-10.3612-23.3778-20.547-46.8525-28.849-71.0573-7.3957-21.5625-14.3472-44.4582-14.4796-67.4827q100.6218-34.45455,201.2287-68.9494a8.30982,8.30982,0,0,0,5.7985-7.8467c.1959-.0732.3869-.1561.5775-.2415a8.88482,8.88482,0,0,0,2.9337.5182,132.81555,132.81555,0,0,1,60.8718,15.487c9.6034,5.0865,18.1508-9.4922,8.5276-14.5892a151.62063,151.62063,0,0,0-69.3994-17.7938,9.17382,9.17382,0,0,0-2.0935.2104q-7.3458-11.3742-14.6916-22.7485c1.2483,5.4217,2.3925,10.8435,3.2266,16.2652-.8341-5.4217-1.9783-10.8435-3.2266-16.2652l-85.1523-131.8488q-35.54295-55.0347-71.0862-110.0694c-.7569-1.1718-1.5048-2.3531-2.2563-3.5304a8.31408,8.31408,0,0,0,3.6456-4.6305c25.3523-74.8687,59.4908-148.4149,103.4872-214.3386q16.67415,20.6748,33.349,41.3494c.4991,1.1651,1.0217,2.3201,1.5922,3.4538a7.88138,7.88138,0,0,0,2.9387,3.3085,8.2421,8.2421,0,0,0,3.1993,3.2119c30.0255,17.5177,64.1434,27.4637,92.405,48.1683,9.6257,7.0519,19.72,16.1349,22.3274,28.1236,2.7645,12.7122,4.1757,25.7862,5.8162,38.6777,9.1237,71.6928,23.178,142.5618,31.7357,214.3684,6.395,53.6606,11.3108,107.4878,16.1036,161.311a8.52593,8.52593,0,0,0,5.6335,7.4344v0c5.1596,1.9646,11.8817-.4817,11.2625-7.4344-8.2719-92.8969-17.2396-185.747-32.7471-277.763-5.3807-31.9251-10.6095-62.287-14.6195-94.1775-1.8294-14.551-3.514-29.1956-6.2398-43.6128-2.3055-12.1944-8.6205-22.0335-17.5527-30.6651-12.7822-12.3515-27.8174-21.2846-43.5724-29.0916-8.2797-15.7828,5.6648-39.0076,9.9305-54.0278,6.3748-22.4439,7.4795-46.9979,1.1983-69.5922-11.2319-40.4046-48.71-73.1715-91.957-70.6557a8.227,8.227,0,0,0-7.4716,5.4083,58.195,58.195,0,0,0,12.6712,4.7693,58.195,58.195,0,0,1-12.6712-4.7693c-1.9684,5.0989.4975,11.8932,7.4716,11.4877,43.0122-2.5022,75.2438,34.9905,78.8251,75.5991,1.9713,22.3503-3.9769,42.0987-11.2208,62.8722-3.1251,8.9616-6.0609,19.7173-5.8736,29.9586-13.6678-6.178-27.4115-12.2058-40.2988-19.4768a9.5641,9.5641,0,0,0-.9079-1.3559q-1.688-2.0934-3.3767-4.1866c-3.3904-8.7982-3.8124-18.6314-4.1539-27.9436-.5313-14.482.1419-28.9111-.0124-43.3917-.264-24.8473-5.2268-51.2779-24.7541-68.4589a8.45987,8.45987,0,0,0-10.8785-.4404c5.5894,4.7632,11.524,9.1495,16.024,15.4496-4.5-6.3001-10.4346-10.6864-16.024-15.4496-3.889,2.7966-5.6727,8.3369-1.0688,12.3876,20.8907,18.3806,20.1329,47.6941,19.614,73.2336-.1823,8.9934-.5086,18.5609-.1287,28.1012q-9.543-11.83245-19.086-23.6643a9.28362,9.28362,0,0,0-5.869-4.4944c1.909,4.0604,3.7195,8.2952,5.6665,12.6763-1.947-4.3811-3.7575-8.6159-5.6665-12.6763a8.49118,8.49118,0,0,0-8.0025,1.8362,16.4054,16.4054,0,0,1,6.9106,4.0817,16.4054,16.4054,0,0,0-6.9106-4.0817,9.24153,9.24153,0,0,0-1.4458,1.6162c-46.6785,67.5576-82.6477,143.735-109.4965,221.3084-7.0995-11.3424-14.2424-22.6826-21.9442-33.5475-8.3457-11.7727-19.6391-8.733-29.1101-1.7242q-13.75425,10.1778-27.508,20.3556-29.38129,21.74175-58.76183,43.4834a13.55488,13.55488,0,0,0-7.51777-4.1318c-7.378-1.2679-14.88393,4.78-21.02433,9.3379,2.2638-21.6629,9.6434-43.2709,16.4166-63.6777,4.8514-14.6165,10.0428-29.1551,15.7835-43.4486,2.3603-5.8763-2.1982-9.8099-7.2072-10.1038-5.0279,9.3906-7.2913,20.478-11.6098,30.1946,4.3185-9.7166,6.5819-20.804,11.6098-30.1946a8.90641,8.90641,0,0,0-9.0853,5.6121c-5.9944,14.9251-11.4011,30.1141-16.4249,45.39-7.8478,23.8644-15.93979,49.028-16.988,74.3178a8.39718,8.39718,0,0,0,.5507,3.4877q-26.28012,17.7552-52.5608,35.5104c.9744-11.3604.8114-22.7804.823-34.1903.0128-12.8328-1.0956-27.22,2.8611-39.6176a18.78759,18.78759,0,0,1,1.13762-2.0765c.76728-.2777,2.71878-1.0239,3.51538-1.2914a164.73251,164.73251,0,0,1,16.8531-4.3588q12.51978-2.77215,25.1814-4.8986c10.69819-1.8074,6.1616-18.0921-4.4917-16.2925q-8.96385,1.5144-17.88018,3.3462a8.54978,8.54978,0,0,0,.83158.7377,8.54978,8.54978,0,0,1-.83158-.7377c-3.31572.6808-6.62642,1.3845-9.92312,2.141-9.8055,2.2502-23.10488,4.0557-28.5095,13.6699-6.3203,11.2436-5.4326,27.1643-5.5882,39.5898-.1934,15.451,1.0255,31.3827-1.0456,46.7426a8.83926,8.83926,0,0,0,2.1412,7.1797c-8.0095,4.9086-18.8821,11.0225-19.1094,20.4619-.092,3.822,1.6211,7.7417,3.8003,11.4684q-9.5157,6.9681-19.0043,13.9706a108.62977,108.62977,0,0,1,6.7609,16.7562q10.80408-7.99455,21.6076-15.9892c4.085,6.213,9.1769,11.6137,17.3258,9.2355a8.08075,8.08075,0,0,0,3.6869-1.4112q29.8479-20.16525,59.695-40.3306,18.7215-12.64815,37.443-25.2965c7.6606-5.1756,18.8311-10.3169,17.641-21.2974-.601-5.5441-4.4958-10.9036-7.6465-15.7265q19.266-14.25645,38.53163-28.5128,17.94255-13.27755,35.8854-26.5551,5.4816-4.05615,10.9631-8.1124c1.2007-.8886,3.6535-3.5545,5.1698-3.8258,2.5753-.4609,5.0148,5.5207,6.758,8.2193q10.0008,15.48585,20.0021,30.9717,33.0135,51.11775,66.0273,102.2356,56.894,88.095,113.7889,176.1902-102.32265,35.09265-204.6652,70.1267a8.7778,8.7778,0,0,0-6.2019,8.1463c-.0025.0495-.0021.0991-.0041.1486q-9.2361,2.91645-18.4714,5.833a9.10815,9.10815,0,0,0-2.7464-.5534c-13.2511-.6762-18.4874-18.4935-24.3536-27.9027-6.8821-11.0386-16.389-18.6895-29.48013-20.8133-12.9632-2.103-26.3084-.0781-39.2898.9378q-24.19615,1.89345-48.392,3.7871c-11.3842.891-24.769,1.1216-33.5132,9.6267-.2112.2052-.39758.4242-.5981.6352q-21.3816-32.5137-42.76348-65.0274-17.661-26.85615-35.32222-53.7123-6.2001-9.42855-12.4005-18.8568c-1.5937-2.4235-4.2065-5.2322-5.2419-7.9709-1.0023-2.6515-.9446-1.1753,1.2289-3.251,2.3683-2.262,5.4833-4.0576,8.1134-6.004q15.8505-11.72925,31.7007-23.4583,7.76085-5.74305,15.5219-11.4861a108.62977,108.62977,0,0,0-6.7609-16.7562q-29.61915,21.867-58.74238,44.3286c-11.91962,9.2516-8.59612,20.6757-1.65792,31.2262q14.03175,21.33735,28.0636,42.6749Q402.591,957.924,435.9387,1008.634q2.2455,3.4149,4.4913,6.8297a9.18475,9.18475,0,0,0,1.6137,1.8588,26.74428,26.74428,0,0,0,2.16242,5.8452,31.51494,31.51494,0,0,0,16.29,14.719c-22.83192,15.1075-17.709,50.4224,9.50688,57.8779.6897.189,1.4045.3436,2.1198.4921-.0808.1054-.1448.1913-.2339.3069-1.7642,2.2825-2.5682,6.3303-2.748,9.1439-.4773,7.4753,3.4357,13.579,6.7674,19.8957,4.2323,8.0234-2.2745,17.3652-.9578,26.1991,2.8471,19.1007,13.4603,35.9817,32.2435,42.0749,19.27069,6.2512,41.37829,2.8259,60.75089-1.0807,20.5417-4.1424,40.35453-10.7576,60.41353-16.6817a7.84342,7.84342,0,0,0,5.8485-6.7232c-5.3939,2.4396-11.0979,3.4603-17.6996.7095,6.6017,2.7508,12.3057,1.7301,17.6996-.7095.6938-5.4144-3.5492-11.5747-10.3402-9.5692-31.1817,9.209-63.4066,21.5207-96.42143,20.3049-14.8847-.548-26.47717-4.9173-32.28809-19.2495-1.6236-4.0056-4.1365-9.4951-3.7818-13.9561.2059-2.5849,1.6009-5.2503,2.11372-7.8142.91568-4.5765,1.565-9.6105.48338-14.2285-1.3658-5.8326-6.6969-10.3004-7.6939-16.1095-1.141-6.6456,5.7944-11.602,3.2323-18.9647-2.0575-5.9123-7.2451-8.413-12.8811-9.8905-6.2382-1.6355-11.6878-4.4166-13.6583-11.1034-2.1631-7.3414,2.0419-14.2131,8.354-17.735a7.61,7.61,0,0,0,3.6118-9.6611c8.7986.8479,18.1966-.2396,26.98,1.0888q-10.23975,5.18385-20.4786,10.3678c-9.7032,4.9125-1.1603,19.494,8.5276,14.5892q24.76245-12.53655,49.52439-25.0731c9.7032-4.9125,1.1603-19.494-8.52757-14.5892q-4.2026,2.12745-8.40433,4.2549a9.71288,9.71288,0,0,0-.92567-.5763c-9.77213-5.3178-20.25952-6.3267-31.22542-6.3812-9.6228-.0478-23.2774,1.1978-29.8077-7.504-8.3246-11.093,6.3117-14.192,14.5625-14.9455,12.8865-1.1768,25.81262-2.0201,38.71362-3.0298,12.48347-.9769,24.97517-2.1988,37.47807-2.8903,10.7538-.5947,22.1211-.443,29.6055,8.4747,6.6936,7.9757,9.82583,18.3688,16.31643,26.554,5.8992,7.4393,13.1728,12.5583,22.3093,14.0011.8266,39.7596,13.5861,78.8929,27.918,115.8477,4.9595-2.9983,10.0757-5.5262,15.833-5.6507-13.8373-35.6751-26.306-73.4585-26.8711-111.796q4.15245-1.31115,8.3044-2.6224c1.8126,20.5877,7.9464,41.03,14.5576,60.306,6.185,18.0319,13.3996,35.679,20.9496,53.1797q-7.72815,2.3781-15.4564,4.7558c-.4974-1.2694-.9895-2.5482-1.4841-3.8231-5.7573.1245-10.8735,2.6524-15.833,5.6507q2.1,5.41605,4.2306,10.7755c1.65,4.1421,5.6327,7.365,10.3921,5.9005q12.47775-3.83925,24.955-7.6784,1.3977,3.167,2.7984,6.3327c1.4248,3.2147,3.9175,4.4773,6.487,4.3916,1.3843,3.6818,4.9784,6.5642,9.8946,5.3756,53.9125-13.0334,107.5194-27.2145,160.4209-43.916,26.0122-8.2122,51.8628-16.9243,77.6494-25.8169,20.5367-7.0822,42.5856-12.6275,59.2746-27.2879,19.8643-17.4501,26.0943-43.842,25.65-69.3461C1029.14592,1014.02241,1023.39482,1011.37491,1018.63212,1012.39691ZM533.20749,721.65821q-16.9353,11.44155-33.87,22.883-27.31155,18.4515-54.62238,36.9031c-.41792-.6336-.88322-1.2557-1.21442-1.8053q-2.91375-4.8378-5.8278-9.6757c-.5062-.8402-1.6814-3.6674-2.7555-5.2378,1.8113-1.1934,3.9295-3.1469,4.8873-3.7941q6.20115-4.1898,12.403-8.3797,34.77015-23.49075,69.53969-46.9816,6.1107-4.1283,12.2211-8.2566c.5408-.3655,2.4767-1.3492,3.9901-2.3062,1.1126,2.3433,3.3933,4.9891,4.4913,6.8125,1.6731,2.7773,3.1565,5.9747,5.1419,8.5363a5.51873,5.51873,0,0,1,.3374.6282C543.35289,713.68681,534.414,720.843,533.20749,721.65821Z"/><path class="cls-4" d="M885.40532,544.99681c-52.5813,8.8627-79.0416,57.5035-80.9613,107.2201-.4196,10.8736,16.4769,10.8554,16.896,0,1.6541-42.8456,23.4205-83.3197,68.557-90.9276C900.59612,559.486,896.05862,543.20111,885.40532,544.99681Z"/><path class="cls-4" d="M858.58952,873.67891q-10.614-63.92715-21.2276-127.8547-1.5513-9.3447-3.1029-18.6896c-1.7766-10.7016-18.0613-6.1621-16.2925,4.4916q10.61415,63.9273,21.2277,127.8547,1.55115,9.34485,3.1028,18.6896c.6324,3.81,3.1057,5.6797,5.9466,6.038a114.84575,114.84575,0,0,1-1.9507-19.925,114.84575,114.84575,0,0,0,1.9507,19.925C853.38252,884.85651,859.72892,880.53981,858.58952,873.67891Z"/><path class="cls-1" d="M499.3375,744.54121q16.93453-11.44155,33.87-22.883c1.2065-.8152,10.1454-7.9714,14.7217-10.6739a5.51873,5.51873,0,0,0-.3374-.6282c-1.9854-2.5616-3.4688-5.759-5.1419-8.5363-1.098-1.8234-3.3787-4.4692-4.4913-6.8125-1.5134.957-3.4493,1.9407-3.9901,2.3062q-6.1107,4.1283-12.2211,8.2566Q486.978,729.061,452.2077,752.55171q-6.20175,4.1898-12.403,8.3797c-.9578.6472-3.076,2.6007-4.8873,3.7941,1.0741,1.5704,2.2493,4.3976,2.7555,5.2378q2.91435,4.838,5.8278,9.6757c.3312.5496.7965,1.1717,1.21442,1.8053Q472.026,762.993,499.3375,744.54121Z"/><path class="cls-4" d="M610.42712,364.494c15.0843,16.144,46.0325,13.664,62.3118,1.0504,8.5837-6.6511-3.4522-18.5297-11.9472-11.9474-9.1806,7.1135-30.1864,7.7591-38.4178-1.0503C614.93492,344.58471,603.00582,356.55171,610.42712,364.494Z"/><path class="cls-4" d="M780.59692,642.62051c12.1646-8.9824,16.6823-28.7637,20.2327-42.6309,8.4522-33.0124,8.9653-67.1861,21.8477-99.1318,4.0656-10.0815-12.2707-14.4645-16.2921-4.4917-12.8824,31.9448-13.3964,66.1205-21.8481,99.132a160.1254,160.1254,0,0,1-7.9814,24.1189c-4.1391,9.5184-9.1043,11.7824-19.0526,12.66-10.6875.943-20.6308,3.1561-27.154,10.6778q-4.6308-3.4425-9.2619-6.8844c-8.7318-6.4909-17.1654,8.1683-8.5276,14.5891q13.97385,10.38705,27.9473,20.7742c8.1262,6.0405,19.6803,12.2043,24.3738,21.5662,4.2161,8.4105,2.3459,18.9252.1967,27.6091-2.7101,10.9483-6.067,21.4275-6.9621,32.74-.858,10.8409,16.0421,10.785,16.896,0,1.8137-22.9136,16.5486-46.2492,4.4583-68.8768-5.2949-9.9107-15.0072-16.1598-23.7807-22.6815q-6.0693-4.5114-12.1382-9.0226c3.7979-3.6227,12.4097-3.4054,16.6584-3.8329C767.44022,648.20791,774.60252,647.04671,780.59692,642.62051Z"/><path class="cls-4" d="M852.14342,134.59331c-4.363-30.5413-16.7644-58.9458-37.4315-81.9444-21.4945-23.9188-50.4995-41.5841-81.8903-48.84-30.5572-7.0632-62.7145-3.8498-92.3254,5.9033-30.8764,10.1698-59.994,27.4337-80.14833,53.2001a9.36577,9.36577,0,0,0-.97177.9748c-10.41243,12.2224-18.18513,26.6735-24.67373,41.2883-6.3872,14.3868-12.4278,29.8184-13.0247,45.7356a7.40486,7.40486,0,0,0,6.0472,7.9138c.957-6.051,2.098-12.0277,2.6128-17.6901-.5148,5.6624-1.6558,11.6391-2.6128,17.6901,4.7537,1.0622,10.61123-1.5745,10.8488-7.9138.5061-13.4962,6.1586-27.2353,11.689-39.3666,5.2445-11.5042,11.2452-23.3677,19.1759-33.3605a9.2124,9.2124,0,0,0,1.9734-2.0443c30.76513-43.2482,95.25983-65.7162,146.83353-57.9872,56.0641,8.4018,102.2662,51.4577,114.9336,106.4427,6.4189,27.8615,6.4334,60.3583-9.5386,85.1268-3.6144,5.6047.4504,10.9453,5.4974,12.17a107.16913,107.16913,0,0,0,7.0174-13.1732,107.16913,107.16913,0,0,1-7.0174,13.1732,8.14187,8.14187,0,0,0,9.0915-3.6424C854.02072,193.76191,856.16822,162.76751,852.14342,134.59331Z"/><path class="cls-4" d="M804.04962,202.79481c-16.8725-6.0081-31.3075-21.9966-42.9936-34.8653-14.2342-15.6746-27.4622-33.131-36.0348-52.608-2.5884-5.8804-8.7499-5.2654-12.4435-1.7372,3.0991,3.6875,6.7353,7.0153,10.3744,10.6544-3.6391-3.6391-7.2753-6.9669-10.3744-10.6544a8.89487,8.89487,0,0,0-2.1458,10.265c9.4306,21.4261,24.491,40.6907,40.2889,57.7873,12.5338,13.5645,27.1681,28.1571,44.4865,35.7083a20.62413,20.62413,0,0,1-2.9816-10.3158,20.62413,20.62413,0,0,0,2.9816,10.3158c1.4338.6252,2.88,1.2185,4.351,1.7424C809.82052,222.74141,814.23712,206.42231,804.04962,202.79481Z"/><path class="cls-4" d="M695.20412,90.745c-35.4148,45.9929-87.1539,69.6768-143.33063,79.0251-6.652,1.1069-7.4126,7.8162-4.4789,12.3108a35.82031,35.82031,0,0,1,11.6663-5.4646,35.82031,35.82031,0,0,0-11.6663,5.4646,8.71355,8.71355,0,0,0,8.9702,3.9817c59.214-9.8538,112.068-35.6343,150.04733-82.5174a32.49613,32.49613,0,0,1-2.0456-8.0297,32.49613,32.49613,0,0,0,2.0456,8.0297q1.709-2.1099,3.3808-4.2726C716.42222,90.66311,701.75212,82.24041,695.20412,90.745Z"/></svg>