<svg id="レイヤー_1" data-name="レイヤー 1" xmlns="http://www.w3.org/2000/svg" xmlns:xlink="http://www.w3.org/1999/xlink" viewBox="0 0 1230.13668 979.55738"><defs><style>.cls-1{fill:none;}.cls-2{fill:#fff;}.cls-3{fill:#87dcaa;}.cls-4{fill:#ffebd7;}.cls-5{fill:url(#新規パターン1_5);}.cls-6{fill:#7e7e7e;}.cls-7{fill:#323232;}.cls-8{fill:#b4e6e6;}.cls-9{fill:#e6e6e6;}.cls-10{clip-path:url(#clip-path);}.cls-11{fill:#ffe146;}.cls-12{fill:#cacaca;}.cls-13{fill:#f2e98c;}</style><pattern id="新規パターン1_5" data-name="新規パターン1 5" width="12.5" height="12.5" patternTransform="matrix(-1.03011, -1.39175, 1.36011, -1.07154, -5468.20487, 494.6494)" patternUnits="userSpaceOnUse" viewBox="0 0 12.5 12.5"><rect class="cls-1" width="12.5" height="12.5"/><rect class="cls-2" x="0.00005" y="-0.0001" width="12.50005" height="12.49996"/><circle class="cls-3" cx="6.25005" cy="6.24985" r="2.43056"/></pattern><clipPath id="clip-path"><path class="cls-1" d="M898.7824,5.70378c-153.7426-11.1969-287.4525,104.3593-298.6494,258.102-8.0352,110.3312,49.2106,210.341,138.9984,262.1634L721.5108,621.214l86.778-66.9598a280.70417,280.70417,0,0,0,49.9463,8.201c153.7426,11.1968,287.4525-104.3594,298.6494-258.102C1168.0813,150.61048,1052.5251,16.90058,898.7824,5.70378Z"/></clipPath></defs><path class="cls-2" d="M1204.3344,623.75628c-3.6257-.0283-7.2527,0-10.8782,0H1000.0197a4.66762,4.66762,0,0,1-4.8066-4.4941H569.914c2.9917,2.604,1.9328,8.8872-3.1693,8.8872H446.0197a4.63988,4.63988,0,0,1-4.7778-4.2563l-41.1509,19.9704c13.8569,4.1863,27.5769,8.9154,39.2742,17.3489,27.5909,19.8924,34.3347,52.6096,39.5793,84.3544h7.8054c-.3861-2.7387,1.2031-5.8105,4.7698-5.8105h149a4.53613,4.53613,0,0,1,4.3804,2.7859h0c1.279,2.959-.1826,7.2141-4.3804,7.2141h-149a4.6338,4.6338,0,0,1-4.7698-4.1895h-7.8054c1.016,6.1499,1.9768,12.2637,3.0209,18.2403,3.4305,19.6377,7.7889,39.1101,11.3298,58.7329,3.3068,18.3252,6.4125,36.6864,9.4276,55.0618a4.49582,4.49582,0,0,1,4.7969-4.3059q14.50005.43395,29,.8682a4.89128,4.89128,0,0,1,4.8235,5.0918h7.9219q.81255-1.098,1.6251-2.196c1.4108-1.9064,2.7335-3.9456,4.2626-5.7603,3.2045-3.8031,10.7198-3.2784,16.6308-2.6278,1.7097-1.9041,3.3206-3.9172,4.9325-6.0261a5.24974,5.24974,0,0,1,.2726-6.2742c4.9087-6.1246,3.6111-15.0594,2.2101-22.1909-1.4452-7.3564-3.4249-14.7986-2.887-22.3662,1.1597-16.3149,14.4489-23.6055,27.0126-31.333a53.25715,53.25715,0,0,0,15.3279-13.8894c3.7812-4.9406,8.0443-9.7503,14.4333-11.0748a15.24017,15.24017,0,0,1,16.124,6.3499q10.20525-11.273,20.4104-22.546,12.04755-13.30785,24.095-26.6158c3.9168-4.3267,8.8726-7.2093,14.9583-5.3313,9.1591,2.826,11.3213,13.9505,5.6211,20.9477-4.5096,5.5356-9.1641,10.9666-13.8785,16.3518l4.2774.1712a4.73922,4.73922,0,0,1,4.8264-5.0884h37c3.4646,0,6.6675,4.3816,4.3174,7.5236q-18,24.0657-36,48.1317a5.44486,5.44486,0,0,1-7.5152,1.1176l-6.8186,6.5459a27.7305,27.7305,0,0,0,5.4797,7.3052,43.71035,43.71035,0,0,1,8.025,9.8139c8.9584,15.016,7.4409,34.0326-6.9646,44.8795-16.7293,12.5963-31.5759,28.8286-50,39a4.8927,4.8927,0,0,1-2.9163.6369c-1.1682,1.9407-2.2715,3.9061-3.3972,5.8436q1.6077,2.29875,3.1072,4.6784a4.57655,4.57655,0,0,1,.5943,1.5886,4.60146,4.60146,0,0,1,3.5883-1.5283h345.9954c16.2758,0,31.2602-5.3076,41.1235-19.073,12.3973-17.302,24.2656-35.0094,36.3904-52.5024q35.86845-51.75,71.7373-103.4999,28.35495-40.9092,56.7099-81.8185c3.9419-5.6872,10.6722-12.9193,10.3633-20.1909C1219.966,629.40908,1212.6979,623.82148,1204.3344,623.75628ZM559.8371,774.27988q-20.6727,26.95515-41.3454,53.9102c-3.8673,5.0425-12.549.0568-8.6346-5.0472q20.67255-26.95515,41.3452-53.9103C555.0696,764.19008,563.7514,769.176,559.8371,774.27988Zm359.1229,5.2899c-1.6805,5.9979-5.0946,11.7785-8.0013,17.2409-4.6023,8.6487-9.4982,17.1419-14.4455,25.5966-10.0011,17.0916-20.3343,33.986-30.6761,50.8726a5.09566,5.09566,0,0,1-1.5366,1.6218,23.61842,23.61842,0,0,1-14.6619,8.6446c-7.1165,1.2951-14.45.9834-21.6209.3896-6.1473-.5092-13.1208-.5924-18.9499-2.7168-14.132-5.1503-13.1043-21.8913-9.6182-33.911a35.10536,35.10536,0,0,1,1.1673-3.3389,5.28288,5.28288,0,0,1,.5854-1.7366,568.50052,568.50052,0,0,1,40.8303-64.195c10.9656-15.1043,22.8831-31.6918,43.5696-32.1795,10.2094-.2408,17.8975,4.77,24.4939,12.2744C914.9399,763.643,921.144,771.77508,918.96,779.56978Z"/><path class="cls-2" d="M187.9775,579.63568c-.8606,4.99-2.4732,9.8157-3.1569,14.8171,53.3722.4629,106.3524,10.1427,157.6388,24.503.4607.129.9257.2515,1.3918.3723q-1.2912-5.42355-2.5826-10.8473C292.821,590.353,239.8902,578.54978,187.9775,579.63568Z"/><path class="cls-3" d="M655.2043,770.12708a53.10375,53.10375,0,0,1,4.8847-2.0854l-2.6385-.3958Q656.32745,768.88668,655.2043,770.12708Z"/><path class="cls-2" d="M736.5751,749.75628H709.5197a4.71372,4.71372,0,0,1-4.8264-4.9116l-4.2774-.1712c-6.3216,7.2215-12.7539,14.3584-19.1176,21.5326,5.2861,1.7492,9.2313,5.9411,10.0194,13.8964.3343,3.3741-.3638,7.8474,1.0677,10.9901,1.335,2.9305,4.4927,5.3839,6.1399,8.3754.6859,1.2456,1.3252,2.4448,1.978,3.6071l6.8186-6.5459a4.063,4.063,0,0,1-1.1196-6.1649Q721.38875,770.06028,736.5751,749.75628Z"/><path class="cls-4" d="M699.4115,817.915c-5.8772-5.4511-8.137-12.8518-13.4273-18.6232-4.4433-4.8471-4.0906-11.2948-4.5259-17.4752-.2096-2.9761-.1844-5.1428-3.1635-6.3362a12.22225,12.22225,0,0,0-5.6181-.6738,3.90889,3.90889,0,0,1-.9907.1091c-.7087.0979-1.4085.2295-2.0884.3836-7.8285,1.7746-14.9634,6.2594-21.5536,10.6767-11.393,7.6365-22.1671,16.1083-34.0006,23.0977-5.5592,3.2833-10.5845-5.3643-5.0474-8.6348,11.4307-6.7512,21.8371-15.2737,32.9403-22.5769a5.79288,5.79288,0,0,1,.266-.6294c2.6192-5.2414-.9468-13.675-7.666-11.7911-4.6267,1.2971-7.6512,6.8006-10.4027,10.3441-7.2849,9.382-17.8353,13.8876-27.3422,20.5469-4.9804,3.4887-9.3122,7.6555-10.3082,13.9052-1.0111,6.3446.5807,12.8902,1.8944,19.0616,2.5203,11.8381,3.6981,24.1418-4.3179,34.1433-2.3565,2.9403-5.7398,1.718-7.3436-.7969-1.6119,2.1089-3.2228,4.122-4.9325,6.0261,1.6716.1841,3.2222.3776,4.5018.4868,15.7801,1.3475,31.3669,5.4446,45.0654,13.5639a95.59627,95.59627,0,0,1,29.3791,27.8317c1.1257-1.9375,2.229-3.9029,3.3972-5.8436-4.1892-.4449-6.7566-6.7181-2.1311-9.2717,9.0209-4.98,16.8623-11.7956,24.6725-18.4461,8.2983-7.0663,16.8579-13.715,25.3275-20.5539C714.665,846.20938,710.0674,827.79818,699.4115,817.915Z"/><path class="cls-2" d="M536.5197,884.16408q-14.5-.4341-29-.8682a4.699,4.699,0,0,1-4.3228-2.8003q.54555,3.3354,1.0931,6.6706,3.9474,24.3093,7.708,48.6503l6.6174-8.9811a3.99039,3.99039,0,0,1-.4131-5.6028q7.0551-9.53355,14.1099-19.0674,8.47635-11.4546,16.9529-22.9093h-7.9219A4.56822,4.56822,0,0,1,536.5197,884.16408Z"/><path class="cls-5" d="M610.0273,887.98508c-14.8981-7.2365-31.5728-9.4762-47.9898-9.2735q-17.60025,23.7843-35.2004,47.5683a5.48647,5.48647,0,0,1-8.2217.5555l-6.6174,8.9811q2.20785,14.3,4.3431,28.6106c.9359,6.3055-8.7013,9.0016-9.6428,2.6583q-1.48365-9.99675-3.0131-19.9875l-1.0356,1.4055,1.0356-1.4055q-5.38845-35.3376-11.2204-70.6058c-3.4269-20.7639-6.9637-41.5122-10.8092-62.2033-3.6342-19.553-7.9074-38.9666-11.1523-58.5918-3.0727-18.5838-5.6151-37.808-12.8571-55.3367a71.96967,71.96967,0,0,0-35.8714-37.9443c-10.3518-5.0271-21.6438-7.5841-32.5569-11.0753q-1.36425-.43635-2.7314-.875l-29.5012,14.3167,29.5012-14.3167c-7.5637-2.4198-15.1489-4.8661-22.5845-7.6379-4.8784-1.8186-9.0686-6.7408-12.9829-10.0533-3.8052-3.2201-6.3557-2.8495-12.0539-4.438q-10.94835-3.05205-21.9781-5.8014c-49.1521-12.2248-99.5481-19.342-150.2541-17.8579-5.2302,10.4875-10.6986,22.1244-19.9916,29.298-23.0901,17.8239-50.027,30.1734-72.2216,49.2186-11.3335,9.7253-21.0901,21.0765-27.7241,34.5303-7.77793,15.7734-10.377,33.3467-10.18743,50.7868,9.121-1.2006,18.63983-.6779,27.81793-.6779H263.2326c24.2718,0,48.561-.2723,72.8315,0,20.2047.2268,43.2273,12.264,43.7718,34.844.1518,6.297,0,12.6162,0,18.9145v149.5579a5.44117,5.44117,0,0,1-.1475,1.2653H607.1025c.0376-.0609.059-.121.0998-.1821q17.51265-26.2683,35.0249-52.5372h0q.6567-.9849,1.3133-1.97C635.0328,905.06978,623.8589,894.70358,610.0273,887.98508ZM397.0434,684.07368c-26.9614,12.9809-32.8331,41.39-44.6901,66.1052-2.7855,5.8064-11.4051.7278-8.6346-5.0471,6.034-12.5779,10.0869-26.0271,16.7278-38.3303,7.2681-13.4655,17.6486-24.6697,31.5495-31.3626C397.7739,672.65718,402.8398,681.28288,397.0434,684.07368Z"/><path class="cls-4" d="M411.6861,457.63068a103.215,103.215,0,0,1-9.5529-9.88c-11.6902-14.155-14.5996-31.0193-10.7582-48.8341.7736-3.5873,4.2323-4.2582,6.8173-3.0141.1525-1.7407.2485-3.4986.3475-5.2655-2.8664-.1734-5.733-2.587-4.8415-6.2099q.292-1.1871.5746-2.3861a36.587,36.587,0,0,1-6.9572.4304c.1225,3.1019-2.3288,6.324-6.1252,5.1062a105.56354,105.56354,0,0,1-20.695-8.9976,35.62609,35.62609,0,0,1-21.1382,6.9641c.5159,3.1639-2.0478,7.0071-6.1668,6.0335-10.8422-2.5628-21.5943-5.8733-30.9806-11.8262a24.2949,24.2949,0,0,1-8.9907,15.7981,25.32421,25.32421,0,0,1,15.1749,10.8103c3.6053,5.3596-5.0614,10.3594-8.6347,5.0471-4.5931-6.828-13.4227-8.4771-19.9387-3.2175-5.5145,4.4514-7.3178,11.8125-7.2799,18.5938.0895,15.9864,8.9899,28.5701,22.0026,37.1557,5.3545,3.5329.3398,12.1891-5.0474,8.6348a66.21366,66.21366,0,0,1-16.7746-15.707c-8.6485,14.5317-23.8914,25.3334-37.8433,34.3542-10.4078,6.7292-28.8118,13.1914-31.537,26.8645-.6316,3.1689-3.3718,4.0701-5.7878,3.3883a5.27085,5.27085,0,0,1-3.0299-.1442c.1591,2.4051.2483,4.8175.3231,7.2266,2.8305-.6016,6.1922.9636,6.1732,4.7002q-.0924,18.2133-.1851,36.4268c11.0581.2679,22.1009,1.1174,33.0885,2.4306a482.20386,482.20386,0,0,1,88.2166,19.2105q5.9811,1.894,11.9082,3.9536.3438-11.9316.6877-23.8628c.0998-3.4578,3.1005-5.4172,6.3293-4.8215,5.6478,1.0421,11.3449,1.8796,17.0558,2.4843,8.3493.8844,19.6422,2.3938,27.0545-2.5158,5.4921-3.638,7.3945-10.7415,8.5446-16.8443,1.4151-7.5101,1.4986-15.2257,1.8341-22.8385.07-1.5919.1501-3.2123.2434-4.8452-5.9286-2.42-9.9822-7.8651-15.0216-12.089-4.9401-4.1404,2.17-11.1787,7.071-7.071,2.6261,2.2011,5.5325,6.3222,8.8655,8.6596,1.2922-10.3232,4.0277-20.5241,10.6104-28.4257,2.4105-2.8936,5.2595-5.3379,7.93-7.9781,1.6932-1.6739,5.7363-4.7758,5.9696-7.2605C421.5295,464.59808,413.7646,459.55568,411.6861,457.63068Zm-35.8473-34.6974c-7.0897,0-7.078-11,0-11C382.9284,411.93328,382.9167,422.93328,375.8388,422.93328Z"/><path class="cls-6" d="M371.996,309.07358c-4.2234-2.446-2.3496-7.9951,1.2332-9.135a14.42775,14.42775,0,0,1-3.2095-2.6823,14.42775,14.42775,0,0,0,3.2095,2.6823,4.63161,4.63161,0,0,1,3.8142.5003c.7422.4298,1.4709.8767,2.1948,1.3291a14.33849,14.33849,0,0,0,10.965-4.7956c-15.6667,1.0482-31.279-7.1445-44.4112-14.7419-8.1361-4.707-15.8934-9.6964-24.7618-12.9819a100.11067,100.11067,0,0,0-25.5178-6.0031,123.4776,123.4776,0,0,0-34.0481,2.1294c-9.0467,1.7352-22.9761,4.2207-28.2656,12.7676-3.3838,5.4679-12.0308.4405-8.6347-5.0471.0525-.0849.1134-.1623.1669-.2462-3.3255,1.4272-6.8374,2.1849-9.7411,3.8642,4.6566,1.5037,4.0676,9.6321-1.7218,9.7606-20.0669.4452-37.6626,20.3593-47.1083,36.3137-18.2901,30.8929-18.0326,72.9377-7.6561,106.367a116.6374,116.6374,0,0,0,11.2049,25.4585c5.1868,8.6558,11.6913,16.3704,16.6669,25.1885a165.30537,165.30537,0,0,1,11.8623,25.5525c6.3588-8.6841,17.5493-14.3322,26.3262-19.5406a218.54678,218.54678,0,0,0,20.5522-14.2902c7.6853-5.8447,14.8595-12.335,19.6454-20.824a4.577,4.577,0,0,1,2.7848-2.2839,47.31183,47.31183,0,0,1-4.2411-30.0335c1.8562-9.9306,8.3598-19.1013,18.2343-22.2854a21.90711,21.90711,0,0,1,11.6797-.5471,24.2949,24.2949,0,0,0,8.9907-15.7981,58.902,58.902,0,0,1-5.4522-3.8872c-11.3889-9.186-18.5592-22.5105-24.5554-35.5843-2.6666-5.8142,5.9551-10.8897,8.6348-5.0473,5.5029,11.9986,11.828,24.3609,22.197,32.9114,9.325,7.6894,21.2728,11.0627,32.8148,13.7909a4.33591,4.33591,0,0,1,3.5084,3.6092,35.62609,35.62609,0,0,0,21.1382-6.9641,74.9243,74.9243,0,0,1-17.1533-13.4297c-10.3017-10.9382-17.2806-24.4753-23.8555-37.8439-2.8327-5.7599,5.7948-10.8218,8.6348-5.0472,6.0098,12.2196,12.2467,24.8345,21.5062,34.9727,9.3031,10.1858,21.1966,16.5251,34.2212,20.703a4.79649,4.79649,0,0,1,3.4668,4.5365,36.587,36.587,0,0,0,6.9572-.4304c3.2232-13.6289,5.4548-28.22,2.1902-42.0034C393.1874,326.208,384.1155,316.09248,371.996,309.07358Z"/><path class="cls-2" d="M359.4159,784.74188c-10.0689-7.0983-21.6462-6.9089-33.2883-6.9089H50.2099c-9.25233,0-18.2822.2863-26.61983,4.9455-7.6173,4.2566-13.3852,11.2128-13.57037,20.1992-.14693,7.1285,0,14.2758,0,21.4052v146.7662H369.8359V810.12888c0-2.3465.0449-4.6976,0-7.0437C369.6897,795.44748,365.5893,789.09388,359.4159,784.74188Z"/><path class="cls-2" d="M701.8229,718.63078c-2.2938,2.3469-4.4221,4.885-6.6241,7.3174q-18.8742,20.8488-37.7483,41.6977l2.6385.3958a48.797,48.797,0,0,1,8.2983-2.2828q9.6117-11.01585,19.2236-22.0314l12.223-14.0083c2.1887-2.5083,5.397-5.1773,7.0537-8.084C709.2602,717.47268,704.714,715.67288,701.8229,718.63078Z"/><path class="cls-2" d="M885.6022,745.85808c-20.6865.4877-32.604,17.0752-43.5696,32.1795a568.50052,568.50052,0,0,0-40.8303,64.195,5.28288,5.28288,0,0,0-.5854,1.7366,35.10536,35.10536,0,0,0-1.1673,3.3389c-3.4861,12.0197-4.5138,28.7607,9.6182,33.911,5.8291,2.1244,12.8026,2.2076,18.9499,2.7168,7.1709.5938,14.5044.9055,21.6209-.3896a23.61842,23.61842,0,0,0,14.6619-8.6446,5.09566,5.09566,0,0,0,1.5366-1.6218c10.3418-16.8866,20.675-33.781,30.6761-50.8726,4.9473-8.4547,9.8432-16.9479,14.4455-25.5966,2.9067-5.4624,6.3208-11.243,8.0013-17.2409,2.184-7.7947-4.0201-15.9268-8.8639-21.4373C903.4997,750.62808,895.8116,745.61728,885.6022,745.85808Zm23.9375,30.5582c.0076-.0462.0122-.078.0188-.1185l.0213.0566C909.5624,776.35518,909.5475,776.36908,909.5397,776.41628Z"/><path class="cls-3" d="M909.5397,776.41628c.0078-.0472.0227-.0611.0401-.0619l-.0213-.0566C909.5519,776.33828,909.5473,776.37008,909.5397,776.41628Z"/><path class="cls-2" d="M336.1932,772.833H43.66247a49.20209,49.20209,0,0,0-11.4976,1.3381,43.91626,43.91626,0,0,0-4.3087,1.2585c-13.4592,4.6717-22.8364,15.1145-22.8364,27.2472v168.4723H374.8359V802.67678C374.8359,786.20138,357.5329,772.833,336.1932,772.833Z"/><path class="cls-7" d="M401.0197,513.25628c-5.224-.35332-9.474-7.282-13.173-10.38223-4.90107-4.10774-12.01112,2.93066-7.07107,7.07106,6.39082,5.35634,11.18261,12.69832,20.244,13.31117,6.42389.43447,6.3971-9.56735,0-10Z"/><path class="cls-7" d="M308.39405,406.35978c-5.95934-8.85915-16.32414-13.65873-26.85448-10.2632-9.87464,3.1841-16.37814,12.35478-18.23432,22.28553-4.18077,22.36751,8.02033,42.20267,26.19085,54.19152,5.38709,3.55439,10.40168-5.10183,5.04719-8.6347-13.0126-8.58568-21.91294-21.16927-22.00246-37.15573-.038-6.78124,1.76534-14.14228,7.2799-18.59369,6.516-5.25974,15.34553-3.61061,19.93861,3.21747,3.57339,5.31219,12.24008.31254,8.63471-5.0472Z"/><path class="cls-7" d="M391.3751,398.91658c-3.84142,17.81477-.932,34.67905,10.75821,48.834a103.17171,103.17171,0,0,0,9.55278,9.8801c2.07852,1.92507,9.84333,6.96733,9.53618,10.23869-.23328,2.48454-4.27643,5.58649-5.96975,7.26051-2.67045,2.64-5.51942,5.08441-7.93,7.97792-9.88318,11.86328-11.11367,28.90785-11.7687,43.77138-.3355,7.61284-.41889,15.32834-1.83408,22.83852-1.15,6.10274-3.05249,13.20635-8.54465,16.84422-7.41229,4.90971-18.70507,3.40027-27.05448,2.51593-5.71078-.60486-11.408-1.4423-17.05583-2.48439-3.22864-.59572-6.22955,1.36365-6.3292,4.82139l-.7159,24.8414c-.18551,6.43717,9.81464,6.43182,10,0l.7159-24.8414-6.3292,4.8214c12.77515,2.35714,26.54231,4.85408,39.50415,2.97729,8.74645-1.26644,16.14813-5.05237,20.63643-12.86926,3.9186-6.8247,5.22036-14.83348,6.01626-22.54987.8017-7.77266.734-15.59431,1.35556-23.37758.61736-7.73113,1.46916-16.57471,4.54228-23.76311,3.29643-7.71073,10.403-12.36483,15.73135-18.51474,2.17044-2.50509,4.42508-5.20158,4.94917-8.56713.77164-4.95537-2.19758-9.43881-5.527-12.78887-7.93021-7.97931-16.91847-14.53079-22.13742-24.81894-4.69128-9.24794-4.60692-20.42923-2.45927-30.38909,1.35307-6.27491-8.2848-8.95614-9.64279-2.6584Z"/><path class="cls-7" d="M191.0197,533.25628l-.2032,40c-.0327,6.43577,9.96726,6.4436,10,0l.2032-40c.03269-6.43576-9.96727-6.4436-10,0Z"/><path class="cls-7" d="M379.8359,971.14928V821.59143c0-6.2983.15183-12.61748,0-18.91455-.54442-22.57984-23.56706-34.61715-43.77172-34.8438-24.27061-.27226-48.55972,0-72.83162,0H64.32612c-16.61945,0-34.3588-1.726-48.82342,8.20149C6.464,782.23811.29867,791.53551.0197,802.68112c-.04432,1.7707,0,3.54822,0,5.31927V971.14928c0,6.43452,10,6.44518,10,0V824.38292c0-7.12944-.14689-14.2767,0-21.40517.18517-8.98648,5.953-15.94253,13.57034-20.19921,8.33762-4.65919,17.36754-4.94546,26.61993-4.94546H326.12752c11.64224,0,23.21948-.18944,33.28847,6.90889,6.17329,4.352,10.2738,10.70554,10.41991,18.34324.04488,2.34608,0,4.6972,0,7.04367v161.0204c0,6.43452,10,6.44518,10,0Z"/><path class="cls-7" d="M36.5197,769.82828c-.33738-17.87116,2.20234-35.93369,10.176-52.1042,6.634-13.45372,16.39059-24.80484,27.72409-34.53019,22.1946-19.04533,49.13154-31.39474,72.22167-49.21875,10.0073-7.725,15.57993-20.62788,21.19563-31.69526l-4.31735,2.4764c51.75667-1.87635,103.20922,5.3038,153.36748,17.77887q11.02974,2.74324,21.97794,5.80138c5.69824,1.58849,8.2488,1.218,12.054,4.438,3.91442,3.31248,8.10446,8.23478,12.98289,10.05334,8.33071,3.10547,16.85078,5.8047,25.316,8.51282,10.91309,3.4912,22.205,6.04816,32.55688,11.07521a71.97052,71.97052,0,0,1,35.87134,37.94444c7.242,17.52867,9.78433,36.753,12.85705,55.33661,3.24494,19.62527,7.51818,39.03882,11.15228,58.59193,3.84559,20.691,7.3823,41.43932,10.80923,62.20332q7.46625,45.23863,14.23351,90.59331c.94151,6.34319,10.57871,3.64712,9.64279-2.6584q-5.74016-38.67315-12.05124-77.26091c-3.50251-21.56893-7.11419-43.12179-10.99466-64.62624-3.54091-19.62275-7.8992-39.09521-11.32982-58.73294-6.43346-36.8267-9.66424-78.84855-42.60017-102.59459-18.18319-13.10965-41.25232-17.27508-62.12937-24.35039-3.39581-1.15086-6.81552-2.6492-10.28878-3.54147-2.31512-.59474.7007.37295.88925.71494-.52013-.94343-2.23265-1.88932-3.04586-2.57748-2.82577-2.39123-5.63781-4.79982-8.47781-7.17412-3.87735-3.24153-9.05209-3.98376-13.85328-5.3281-52.63528-14.73795-107.05465-24.55051-161.85084-24.52446q-8.54722.00406-17.08881.325a5.00826,5.00826,0,0,0-4.31736,2.4764q-3.34473,6.5918-6.98027,13.03478c-3.0221,5.36543-5.90581,11.36407-10.83387,15.22473-11.58226,9.07357-24.31333,16.60508-36.77724,24.37681C79.1753,665.72914,53.34261,683.36781,39.0898,710.65032c-9.53818,18.25784-12.95618,38.72725-12.5701,59.178.12133,6.427,10.12173,6.44814,10,0Z"/><path class="cls-7" d="M615.83705,977.27988l38-57a4.92852,4.92852,0,0,0,0-5.0472c-8.27481-13.14712-19.06126-24.553-32.48634-32.5102-13.69849-8.11924-29.28522-12.21633-45.06527-13.56378-5.80473-.49566-17.02189-2.73761-21.13263,2.14093-1.52909,1.81468-2.85181,3.8538-4.26261,5.76028l-18.578,25.10535-14.1099,19.06742c-3.83105,5.1771,4.84422,10.16948,8.63471,5.0472l37-50-4.31735,2.4764c17.22341-.46944,34.84734,1.62215,50.50755,9.22879,14.75146,7.16524,26.47969,18.47944,35.17509,32.29481v-5.0472l-38,57c-3.57979,5.3697,5.078,10.38224,8.63471,5.0472Z"/><path class="cls-7" d="M491.5197,749.75628h149c6.43452,0,6.44518-10,0-10h-149c-6.43452,0-6.44518,10,0,10Z"/><path class="cls-7" d="M709.5197,749.75628h37l-4.31736-7.5236-36,48.1317c-3.85613,5.15562,4.82108,10.146,8.63471,5.0472l36-48.1317c2.35009-3.14206-.85269-7.5236-4.31735-7.5236h-37c-6.43452,0-6.44518,10,0,10Z"/><path class="cls-7" d="M507.5197,883.29578l29,.8683c6.43705.19273,6.43108-9.80744,0-10l-29-.8683c-6.43706-.19273-6.43109,9.80744,0,10Z"/><path class="cls-7" d="M184.5197,597.75628c.29732-7.84751,3.70052-15.09564,4-23l-5,5c54.37776-1.91881,110.05287,10.54566,160.6708,29.8214l-3.4922-3.4922,5,21c1.48995,6.25777,11.13488,3.60835,9.64279-2.6584l-4.49237-18.868c-1.09117-4.5829-3.97066-5.64076-8.31588-7.24923q-10.10891-3.742-20.39316-6.98564a482.20867,482.20867,0,0,0-88.21653-19.21052,327.52991,327.52991,0,0,0-50.40345-2.35743,5.10728,5.10728,0,0,0-5,5c-.29732,7.84751-3.70053,15.09564-4,23-.24384,6.43579,9.75656,6.42542,10,0Z"/><path class="cls-7" d="M391.9961,675.43893c-13.901,6.69285-24.28144,17.89706-31.54964,31.36247-6.64086,12.30318-10.69371,25.75241-16.72782,38.33028-2.77047,5.775,5.84918,10.85353,8.63471,5.0472,11.85687-24.71522,17.72867-53.12433,44.68994-66.10525,5.79648-2.7908.73049-11.41645-5.04719-8.6347Z"/><path class="cls-7" d="M584.05973,863.44261c8.016-10.00147,6.8381-22.30516,4.31787-34.14335-1.31384-6.17142-2.90545-12.71691-1.89437-19.06156.99595-6.24973,5.32775-10.41642,10.30828-13.9052,9.5068-6.65936,20.05717-11.16491,27.3421-20.54684,2.75146-3.54348,5.776-9.04711,10.40266-10.3442,6.71938-1.88378,10.28514,6.54973,7.66607,11.79122-2.86835,5.74038,5.75471,10.81089,8.63471,5.0472,6.18857-12.38507-2.50653-29.923-17.75145-26.76269-6.389,1.32446-10.652,6.13424-14.43342,11.07479a53.25417,53.25417,0,0,1-15.32785,13.88945c-12.56359,7.72754-25.8528,15.018-27.01249,31.33292-.53792,7.56766,1.44175,15.00983,2.88688,22.36624,1.40095,7.13147,2.69868,16.06635-2.21006,22.191-3.98686,4.97439,3.04492,12.09448,7.07107,7.07106Z"/><path class="cls-7" d="M614.04329,809.07363c11.83358-6.9893,22.60774-15.46116,34.00068-23.09767,6.59018-4.41729,13.72506-8.90194,21.55364-10.67669,2.81017-.63707,5.95571-.91723,8.69719.1811,2.979,1.19348,2.95392,3.36021,3.16351,6.33618.43527,6.18047.08272,12.62812,4.52585,17.47526,5.29027,5.77131,7.55026,13.17212,13.42737,18.62309,10.65588,9.88326,15.25349,28.29461,2.58457,38.524-8.46967,6.83877-17.02925,13.4876-25.32761,20.55379-7.81017,6.65048-15.6516,13.46616-24.67239,18.44621-5.63525,3.111-.59641,11.75033,5.04719,8.6347,18.42416-10.17131,33.2708-26.40361,50-39,14.40568-10.84686,15.923-29.8634,6.96466-44.87948a43.70981,43.70981,0,0,0-8.025-9.81379c-3.48065-3.18111-5.20629-6.82374-7.4576-10.91238-1.64718-2.9915-4.80506-5.4449-6.13994-8.3754-1.4315-3.1426-.73348-7.61592-1.06775-10.99006-1.96979-19.88317-23.63548-16.301-36.76991-9.65458-16.20836,8.20186-29.91909,20.75786-45.55168,29.991-5.53722,3.27047-.5119,11.91809,5.04719,8.6347Z"/><path class="cls-7" d="M551.20234,769.23268l-41.3453,53.9102c-3.91438,5.104,4.76746,10.08971,8.63471,5.0472l41.3453-53.9102c3.91439-5.104-4.76746-10.08971-8.63471-5.0472Z"/><path class="cls-7" d="M213.268,276.474c-19.76207.43849-36.5946,15.50532-48.12926,30.26149-11.4544,14.6535-18.11812,31.98854-21.17525,50.2598-6.474,38.69221.65869,81.01156,24.14662,112.93116,10.47086,14.22968,19.19118,30.94406,23.58819,48.159,1.59152,6.231,11.23881,3.59026,9.64279-2.6584-3.164-12.38773-8.70979-24.53858-14.96562-35.62538-4.97569-8.81809-11.48011-16.53275-16.6669-25.18857a116.64615,116.64615,0,0,1-11.20508-25.45835c-10.37645-33.42938-10.63393-75.47423,7.65617-106.3671,9.44574-15.95432,27.04145-35.86845,47.10834-36.3137,6.42521-.14256,6.44818-10.14307,0-10Z"/><path class="cls-7" d="M233.19875,278.14258c5.28948-8.547,19.21887-11.03245,28.26553-12.76767a123.48187,123.48187,0,0,1,34.048-2.12943,100.11058,100.11058,0,0,1,25.51789,6.00313c8.86844,3.28544,16.62568,8.27486,24.76184,12.98191,13.77937,7.97184,30.28945,16.60726,46.72767,14.52576,6.29843-.79754,6.37815-10.80764,0-10-13.92788,1.76362-27.58063-5.20419-39.36251-11.83822-13.16163-7.41093-25.384-14.86419-40.20091-18.66138-20.46114-5.24368-42.84317-4.08553-63.12748,1.56014-9.35672,2.60423-19.91181,6.62906-25.26476,15.27856-3.39617,5.48769,5.25079,10.51507,8.63471,5.0472Z"/><path class="cls-7" d="M371.9961,309.07363c12.11942,7.01892,21.19136,17.13438,24.46691,30.964,3.45582,14.59069.75415,30.088-2.76471,44.38949-1.53742,6.24844,8.10354,8.91429,9.64279,2.6584,4.04487-16.43927,6.80707-34.1767,2.47949-50.85769-4.08883-15.76074-14.89194-27.74721-28.77729-35.78886-5.57947-3.23133-10.62026,5.40708-5.04719,8.6347Z"/><path class="cls-7" d="M272.20234,340.27988c5.9962,13.07388,13.16653,26.39837,24.55547,35.5844,10.54206,8.50295,23.42626,12.639,36.43269,15.7134,6.258,1.4792,8.92868-8.16068,2.6584-9.64279-11.542-2.72819-23.4899-6.10147-32.81481-13.791-10.369-8.55047-16.69411-20.91287-22.197-32.91126-2.67958-5.84245-11.30134-.767-8.63471,5.0472Z"/><path class="cls-7" d="M319.48684,327.30638c6.57475,13.3686,13.55358,26.90575,23.85544,37.844,10.32973,10.96782,23.63469,17.86805,37.84822,22.42732,6.14225,1.97024,8.7722-7.68167,2.6584-9.64279-13.02464-4.17791-24.91812-10.51724-34.22121-20.70309-9.2595-10.13814-15.49645-22.753-21.50614-34.97262-2.84-5.77457-11.46747-.71275-8.63471,5.0472Z"/><path class="cls-7" d="M264.76154,450.69948c-4.78591,8.48892-11.96005,14.97921-19.64547,20.82388a218.506,218.506,0,0,1-20.55219,14.29017c-11.77716,6.989-27.90618,14.76573-30.86558,29.61355-1.25265,6.28479,8.38392,8.97441,9.64279,2.6584,2.72529-13.67325,21.12917-20.13539,31.537-26.86459,14.31165-9.25322,30.002-20.36888,38.51817-35.47421,3.1646-5.61314-5.47065-10.65938-8.63471-5.0472Z"/><path class="cls-7" d="M375.8388,411.93328c-7.078,0-7.0897,11,0,11C382.9167,422.93328,382.9284,411.93328,375.8388,411.93328Z"/><path class="cls-7" d="M1000.0197,623.75628h193.43637c3.62571,0,7.25269-.02822,10.87832,0,8.36365.06511,15.63144,5.65287,16.00517,14.452.30884,7.27156-6.42148,14.50357-10.36339,20.19079l-56.70981,81.81857-71.73744,103.4998c-12.12475,17.49309-23.993,35.2005-36.3903,52.50242-9.86334,13.76547-24.84769,19.073-41.12344,19.073H658.0197c-6.43452,0-6.44518,10,0,10H996.50061c8.43718,0,16.92132.39362,25.19318-1.64546,15.95626-3.93336,26.77159-14.72228,35.744-27.66733l20.10858-29.01184L1147.308,766.31906l64.43706-92.96712c4.62733-6.6761,9.31991-13.31211,13.88422-20.03157,11.54312-16.99348-.4231-39.13161-20.71473-39.56409-30.06031-.64067-60.20351,0-90.26932,0H1000.0197c-6.43452,0-6.44518,10,0,10Z"/><path class="cls-7" d="M446.0197,628.14928h120.725c6.43452,0,6.44518-10,0-10H446.0197c-6.43452,0-6.44518,10,0,10Z"/><path class="cls-8" d="M898.7824,5.70368C745.0397-5.49312,611.3299,110.06308,600.133,263.80578c-8.0352,110.3311,49.2107,210.3409,138.9984,262.1634l-17.6205,95.2447,86.7778-66.9598a280.69967,280.69967,0,0,0,49.9463,8.2011c153.7427,11.1969,287.4527-104.3593,298.6494-258.102C1168.0812,150.61048,1052.5251,16.90058,898.7824,5.70368Z"/><path class="cls-9" d="M955.4252,453.25628H600.4477a13.73876,13.73876,0,0,0-13.9433,13.5247v217.4765l-44.9613,19.8152a6.11578,6.11578,0,0,0-3.6494,5.5964v5.2867a6.1159,6.1159,0,0,0,6.1159,6.1158H932.5311c3.3778,0,10.6741.5658,15.6007-4.3608l21.2365-32.4533V466.781A13.73865,13.73865,0,0,0,955.4252,453.25628Z"/><path class="cls-7" d="M955.4252,448.25628H701.78314c-33.45523,0-66.94182-.42674-100.395,0-10.82264.13806-19.45734,7.535-19.88373,18.62153-.1545,4.01707,0,8.07087,0,12.08993V684.25748l2.4764-4.31735-37.23755,16.41121c-5.88094,2.59183-12.59939,4.47474-13.68294,11.89882-1.19465,8.18525,1.30431,17.32017,11.0039,17.82142,12.619.65212,25.445,0,38.07533,0H928.721c8.47792,0,18.2557.47584,23.88728-7.08039,3.87894-5.20461,7.17594-10.96616,10.729-16.396,3.3327-5.093,7.60229-10.2274,10.27677-15.7048,2.20183-4.50942.7542-12.06328.7542-16.8529V526.29227c0-19.75737.77392-39.68929,0-59.43559-.41593-10.6123-8.47188-18.11761-18.9431-18.6004-6.43363-.29663-6.41871,9.70406,0,10,10.48336.48335,8.9431,10.88137,8.9431,18.1451V681.04805a14.68237,14.68237,0,0,0,0,2.54971c.34432,1.84193.92815-1.86072.46328-1.52864-1.59642,1.14037-3.00549,4.59294-4.05391,6.19512l-6.61491,10.1088-6.51005,9.94857c-1.10029,1.68144-2.17565,4.2643-3.67913,5.62239-2.92331,2.64062-8.29982,2.14079-12.05863,2.12758-13.5629-.04767-27.12682,0-40.68978,0H550.74035c-1.80007,0-3.65894.13239-5.45506,0-2.63272-.19405-2.71962-1.82267-2.39159-4.72975.26568-2.35451.97661-2.86525,3.0064-3.75981l7.72552-3.40477,23.06316-10.16432,12.33921-5.4381a4.90405,4.90405,0,0,0,2.47641-4.31735V471.609c0-6.32968.66217-12.83618,8.95825-13.35269,8.3536-.52009,16.90632,0,25.27061,0H851.343c34.13158,0,68.3464.702,102.4725,0,.53609-.011,1.07344,0,1.60971,0C961.85972,458.25628,961.87038,448.25628,955.4252,448.25628Z"/><rect class="cls-8" x="606.0956" y="479.75628" width="342.307" height="198.368"/><path class="cls-7" d="M606.0956,683.12428H906.04423c13.78678,0,27.99833,1.00347,41.76,0,.19722-.01438.40036,0,.59842,0a5.07266,5.07266,0,0,0,5-5v-198.368a5.07265,5.07265,0,0,0-5-5H648.454c-13.78678,0-27.99832-1.00347-41.76,0-.19721.01438-.40035,0-.59841,0a5.07265,5.07265,0,0,0-5,5v198.368c0,6.43452,10,6.44518,10,0v-198.368l-5,5H934.44923c4.19331,0,9.21146.76319,13.355,0a3.49252,3.49252,0,0,1,.59842,0l-5-5v198.368l5-5H648.454c-13.78678,0-27.99832-1.00347-41.76,0-.19721.01438-.40035,0-.59841,0C599.66108,673.12428,599.65042,683.12428,606.0956,683.12428Z"/><g class="cls-10"><path class="cls-11" d="M979.45869,149.68268l6.4242-20.5035c1.92859-6.15527-7.722-8.78867-9.64279-2.6584l-6.4242,20.5035c-1.92858,6.15527,7.722,8.78867,9.64279,2.6584Z"/><path class="cls-11" d="M999.93119,174.26653l21.1671-15.499c5.13963-3.76334.15609-12.44465-5.04719-8.6347l-21.1671,15.499c-5.13962,3.76334-.15608,12.44465,5.04719,8.6347Z"/><path class="cls-11" d="M1017.8894,206.22578l20.4301-6.0307c6.15841-1.81789,3.53684-11.47155-2.6584-9.64279l-20.4301,6.0307c-6.15841,1.81788-3.53684,11.47154,2.6584,9.64279Z"/><path class="cls-6" d="M920.3757,94.61428c-4.7295-5.33-11.0362-9.4045-17.9538-7.6944.6359-11.1557-11.2882-12.3615-22.4239-13.2837-11.1358-.9224-20.4544.967-31.4373,3.0244-10.9827,2.0574-24.8996-1.2018-32.4877-9.4043-1.5242,5.302-.272,16.2927,3.7366,20.0827-12.8761.9332-23.8988,9.4319-33.0516,18.5365-9.1526,9.1044-14.0647,14.1948-25.4011,20.3716,5.9846,5.1297,11.5655,6.4471,14.6323,12.6045,1.7712,3.5563.8393,11.7237.8393,11.7237l8.4667,44.922a4.60372,4.60372,0,0,0,5.9845-2.5649c7.7171-16.1773,39.3274-53.8612,39.3274-53.8612h60.7007l14.5339,8.5494s4.9668,21.5409,16.2439,38.4723l4.3218,7.2033c4.3662-24.1022,14.5037-44.8114,9.3572-68.759C934.2674,117.57038,925.1051,99.94428,920.3757,94.61428Z"/><rect class="cls-4" x="804.0557" y="252.04918" width="106.0126" height="89.7686"/><path class="cls-2" d="M857.4894,332.841c-42.747,0-58.9908-30.7778-58.9908-30.7778L784.8195,319.162l56.426,260.7567,44.4569,2.5647,49.5866-251.3523-17.9539-29.0679S900.2365,332.841,857.4894,332.841Z"/><path class="cls-12" d="M1038.7624,360.73768c-17.7829-10.6867-44.9187-18.6376-56.8792-24.0495-13.6877-6.1897-31.6242-11.7639-45.3119-17.9537l-5.5399.0171-11.7042,38.8655-61.4103,203.9202-2.8213.8294-5.6767-19.3986-21.6302,6.3265-78.5261-138.7053s3.8472-.7781,9.4385-2.2143l-4.5055-18.5267,9.8746-63.197-.5472-1.2055a461.51531,461.51531,0,0,1-61.889,23.1262c-11.2767,3.3086-22.8099,6.2495-33.1033,11.9348-10.2935,5.6769-19.4072,14.611-22.3994,25.9817l-7.6702,235.7678h437.8115l-16.5899-227.4321C1058.2549,383.898,1048.2094,366.41448,1038.7624,360.73768Z"/><path class="cls-4" d="M930.9458,189.1v.0085a9.26726,9.26726,0,0,0-1.3593.1026l-8.3559-19.362s-11.3933-37.6967-29.8684-44.2369c-11.9752,3.8468-20.573,7.4744-20.573,7.4744l-15.3889-5.1296-6.8396,1.7099-34.1975,4.2747a91.75029,91.75029,0,0,0-12.8242,13.679c-5.5485,7.3269-2.8213,38.4809-11.969,39.3272l-10.8035-.1134a7.55959,7.55959,0,0,0-1.3252.1197c-6.5145,1.1456-8.2361,8.0558-9.2448,13.6728-2.3768,13.2003,3.1149,33.5541,17.5634,35.4606l3.2232-.4018c2.3169,18.1247,3.9841,33.3341,13.8415,47.8168a79.43529,79.43529,0,0,0,16.5601,17.3295c17.3212,13.756,42.6018,15.3121,62.5646,6.395a53.147,53.147,0,0,0,20.2706-15.6112c10.6611-13.337,15.5171-31.7097,18.9625-52.3907l3.4284-2.3852c11.3706,2.1373,21.5786-20.8606,19.1933-34.1207C942.7355,196.78588,937.9734,189.00588,930.9458,189.1Zm-92.0343,71.4986h32.0347C867.3212,282.10038,843.383,282.95528,838.9115,260.59858Z"/><path class="cls-12" d="M805.7057,393.56728l-19.655,5.7538a178.028,178.028,0,0,1-26.8025,8.917c-.188.0514-.3675.0941-.5471.1369-5.5913,1.4362-9.4385,2.2143-9.4385,2.2143l78.5261,138.7053,21.6302-6.3265-19.7235-67.4035Z"/><path class="cls-12" d="M783.8193,318.75158l-6.5147.1026q-6.83535,3.41115-13.7816,6.5916l.5472,1.2055-9.8746,63.197,4.5055,18.5267c.1796-.0428.3591-.0855.5471-.1369a178.028,178.028,0,0,0,26.8025-8.917l19.655-5.7538-11.3792-38.8911Z"/><path class="cls-7" d="M783.2811,230.35488c2.188,15.99235,3.35832,32.364,10.3588,47.16435,6.77449,14.32254,19.59065,27.62223,34.05711,34.2444,27.58606,12.62779,62.66844,4.96975,80.61181-19.95942,10.67512-14.83121,14.70405-33.56782,17.695-51.24993,1.06476-6.2948-8.57008-9.00018-9.64279-2.6584-4.606,27.23039-12.694,57.43326-42.02015,66.911-27.89423,9.015-56.8556-3.81939-70.6246-29.47522-7.78025-14.497-8.606-31.65473-10.79236-47.6352-.86842-6.34734-10.5052-3.645-9.64279,2.6584Z"/><path class="cls-7" d="M854.17234,207.30018c-3.45371,7.70965-6.868,15.60379-11.2254,22.8525a5.09185,5.09185,0,0,0,1.79376,6.84095c3.73973,2.37068,7.2463,5.07579,10.986,7.4465,5.45131,3.45576,10.47387-5.19456,5.04719-8.6347-3.7397-2.37072-7.24627-5.07583-10.986-7.4465l1.79376,6.841c4.35775-7.24925,7.77146-15.14235,11.2254-22.8525,2.60917-5.8244-6.00551-10.91629-8.63471-5.0472Z"/><path class="cls-7" d="M779.9207,181.91988c-14.33795-.49614-18.36293,16.03765-17.2048,27.431,1.40694,13.84105,8.8415,28.15384,23.8617,30.0461,6.36837.80229,6.31-9.20506,0-10-8.91879-1.1236-12.97287-12.44143-13.8617-20.0461-.63409-5.42508-.57214-17.70011,7.2048-17.431,6.43641.22272,6.42785-9.77758,0-10Z"/><path class="cls-7" d="M935.9458,189.10858V189.1l-5,5c12.93685-.17258,6.50467,39.14305-9.2877,38.7168-6.43732-.17375-6.433,9.82637,0,10,27.20878.73438,37.93878-59.099,9.2877-58.7168a5.0775,5.0775,0,0,0-5,5v.0086c0,6.43452,10,6.44518,10,0Z"/><path class="cls-7" d="M853.2872,329.72949c-20.13288-5.51047-38.6778-14.94386-52.10807-31.29584-1.98476-2.41655-6.496-1.67836-7.85289,1.01193l-5.917,11.7321c-2.89085,5.73193,5.733,10.80059,8.63471,5.0472l5.917-11.7321-7.85289,1.01193c14.44212,17.584,34.88141,27.94478,56.52074,33.86757,6.21568,1.70126,8.86791-7.94322,2.6584-9.64279Z"/><path class="cls-7" d="M800.6772,356.39453l28.0163,19.997c2.164,1.54458,5.62452.40753,6.841-1.79375q10.36836-18.76281,20.7409-37.5233c3.116-5.63646-5.51705-10.68666-8.63471-5.0472q-10.37161,18.761-20.7409,37.5233l6.841-1.79375-28.0163-19.997c-5.24727-3.74531-10.2465,4.92362-5.04719,8.6347Z"/><path class="cls-7" d="M778.9979,320.08078c12.49123,42.70808,25.18916,85.28319,38.57876,127.71875l9.87064,31.28295c1.92964,6.11557,11.587,3.50348,9.64279-2.6584-12.93667-41.0001-25.90943-81.9443-37.9801-123.20668q-5.23555-17.89725-10.4693-35.795c-1.80279-6.16383-11.456-3.541-9.64279,2.6584Z"/><path class="cls-7" d="M759.2488,325.32208l-9.8746,63.1971c-.98371,6.29573,8.65067,9.00792,9.64279,2.6584l9.8746-63.1971c.98372-6.29573-8.65067-9.00792-9.64279-2.6584Z"/><path class="cls-7" d="M783.5271,395.00373c-11.29767,4.94225-23.52651,8.28753-35.5937,10.76406-3.23305.66351-4.48746,4.69668-2.98816,7.345l68.729,121.40016,9.79717,17.30534c3.17047,5.60019,11.81276.56638,8.63471-5.0472l-68.729-121.40016L753.58,408.06558l-2.98815,7.345a190.42064,190.42064,0,0,0,37.98249-11.77215c5.882-2.57312.79756-11.19153-5.04719-8.6347Z"/><path class="cls-7" d="M864.2304,339.37228a108.618,108.618,0,0,0,56.51213-33.86757l-7.85289-1.01193,6.7097,10.926c3.36213,5.47485,12.015.45729,8.63471-5.0472l-6.7097-10.926c-1.58634-2.58318-5.67244-3.507-7.85289-1.01193A99.43186,99.43186,0,0,1,861.572,329.72949c-6.2487,1.526-3.60234,11.17172,2.6584,9.64279Z"/><path class="cls-7" d="M905.8005,349.98263l-24.6906,17.7742,6.84095,1.79375q-10.37236-18.75822-20.7323-37.5233c-3.11192-5.63473-11.75128-.596-8.63471,5.0472q10.36268,18.76358,20.7323,37.5233c1.21787,2.20248,4.68,3.34936,6.841,1.79375l24.6906-17.7742c5.17583-3.72595.18912-12.4042-5.04719-8.6347Z"/><path class="cls-7" d="M926.2099,317.42238c-13.22221,43.90678-25.92243,87.95692-38.67909,132.00156l-7.07721,24.43534c-1.79375,6.19324,7.853,8.8378,9.64279,2.6584,11.48676-39.66006,22.63252-79.43544,34.47921-118.98924q5.61043-18.73221,11.27709-37.44766c1.8597-6.17546-7.7889-8.81455-9.64279-2.6584Z"/><path class="cls-13" d="M848.7092,380.12758a827.64018,827.64018,0,0,0-16.7398,94.7702l23.684,83.9901,27.9117-81.9895a863.92257,863.92257,0,0,0-17.4152-96.7708Z"/><path class="cls-7" d="M843.8878,378.79838q-7.96672,33.74154-13.16588,68.04714-1.17424,7.8048-2.2009,15.63055c-.56423,4.25918-2.05988,9.55556-1.36276,13.78728a47.62923,47.62923,0,0,0,1.40859,4.99526l16.8733,59.83747,5.39185,19.121c1.391,4.933,8.09006,4.56109,9.64279,0l16.20154-47.59138,9.49044-27.87777a58.23279,58.23279,0,0,0,2.12055-6.229c.50774-2.35727-.09564-4.77982-.39386-7.15527q-1.07876-8.5929-2.34267-17.16173c-3.73639-25.33532-8.69127-50.48306-14.5795-75.40351a5.06891,5.06891,0,0,0-4.82139-3.6708H848.7092c-6.43452,0-6.44518,10,0,10h17.4407l-4.8214-3.6708c5.08783,21.533,9.47623,43.233,12.98794,65.08q1.27854,7.954,2.3977,15.93256.6216,4.44294,1.17932,8.89433c.16215,1.29157.88679,3.28932.80634,4.33454-.12413,1.6125-1.21913,3.58114-1.73472,5.09566l-19.83166,58.25472L850.832,557.55868h9.64279l-13.06044-46.316-8.195-29.0619a63.77636,63.77636,0,0,1-2.10852-7.4774,7.35052,7.35052,0,0,1-.11545-1.41921c.10682-5.50642,1.61053-11.58874,2.39487-17.11072q5.34972-37.66368,14.14037-74.7167C855.00822,375.19856,845.36837,372.52773,843.8878,378.79838Z"/><path class="cls-7" d="M945.959,327.98048l9.8746,63.1971c.99055,6.33946,10.62811,3.64757,9.64279-2.6584l-9.8746-63.1971c-.99054-6.33946-10.6281-3.64757-9.64279,2.6584Z"/><path class="cls-7" d="M926.2849,403.63843a189.6174,189.6174,0,0,0,37.9824,11.77215l-2.98816-7.345L901.5343,526.25248l-8.47076,16.7568c-2.89647,5.72979,5.72762,10.798,8.63471,5.0472l59.74484-118.1869,8.47076-16.7568c1.3592-2.68876.35692-6.6578-2.98815-7.345-12.06913-2.47941-24.29977-5.80857-35.59361-10.76406-5.83732-2.56129-10.93317,6.05206-5.04719,8.6347Z"/><path class="cls-2" d="M870.9462,260.59858H838.9115C843.383,282.95528,867.3212,282.10038,870.9462,260.59858Z"/><path class="cls-7" d="M870.9462,255.59858H838.9115a5.06429,5.06429,0,0,0-4.8214,6.3292c2.283,10.29353,9.683,20.21531,21.15619,20.11774,11.22345-.09545,18.57651-9.93065,20.5213-20.11774,1.20056-6.28866-8.43544-8.98265-9.64279-2.6584-1.08346,5.67533-4.14077,12.60624-10.87851,12.77614-6.931.17477-10.24444-7.05463-11.5134-12.77614l-4.82139,6.3292h32.0347C877.38072,265.59858,877.39138,255.59858,870.9462,255.59858Z"/><path class="cls-7" d="M774.781,314.53683a459.23182,459.23182,0,0,1-75.32291,29.46062c-20.86219,6.1-45.59148,12.96347-55.66086,34.48893-2.51379,5.37377-2.73266,9.42118-2.99582,15.02656l-1.08208,23.04794-7.24561,154.32939-2.01252,42.866a5.05776,5.05776,0,0,0,5,5h383.93473c17.64684,0,35.47431.74011,53.11025,0,.25446-.01068.5115,0,.76632,0,2.57912,0,5.168-2.2934,5-5L1071.10713,498.322l-4.70222-75.75292c-.88239-14.21534-.15126-29.075-6.16747-42.27282-4.37127-9.58931-10.93407-19.18385-20.17822-24.60032-10.50867-6.15741-22.06207-10.588-33.43439-14.85706-9.8473-3.6966-19.57337-7.501-29.29649-11.50138-12.652-5.20537-25.73281-9.34458-38.23345-14.92036-5.82717-2.59915-10.91988,6.01525-5.04719,8.6347,10.72947,4.78577,21.82415,8.64,32.789,12.836,8.86388,3.39206,17.48864,7.3232,26.39191,10.6202,9.98156,3.69632,20.02913,7.26985,29.72413,11.68223,9.28139,4.22414,17.187,8.47559,23.01336,17.08743,5.04751,7.46069,8.432,14.96021,8.95643,23.40942l1.25352,20.19417,9.4167,151.70344,2.6798,43.17156,5-5h-419.918c-5.44507,0-11.73249-.87915-17.12693,0a4.98181,4.98181,0,0,1-.76632,0l5,5,5.10107-108.65138,3.631-77.33974,1.27289-27.11231c.20555-4.378-.172-9.2743.63817-13.59282,1.15086-6.13485,6.55161-12.25155,11.24466-16.28545,10.008-8.6023,23.10942-12.31012,35.52734-15.90674a491.28976,491.28976,0,0,0,81.95183-31.69631c5.76466-2.86152.70467-11.48987-5.04719-8.6347Z"/><polygon class="cls-13" points="849.367 336.688 839.963 361.481 846.803 381.145 866.466 381.145 872.451 364.046 864.756 335.833 849.367 336.688"/><path class="cls-7" d="M844.5461,335.359l-4.17448,11.00547c-1.64594,4.33931-3.99693,8.87218-5.07905,13.39027-.81058,3.38431,1.21927,6.99474,2.31845,10.15491l4.37028,12.56465a5.1591,5.1591,0,0,0,4.8214,3.6708h19.6635a5.147,5.147,0,0,0,4.82139-3.6708l4.38357-12.52422c1.1847-3.3848,1.978-5.62658,1.07886-9.148-2.2469-8.8-4.78242-17.53541-7.17223-26.298a5.06431,5.06431,0,0,0-4.82139-3.6708l-15.3889.8549c-6.39937.3555-6.44076,10.3578,0,10l15.3889-.8549-4.8214-3.6708,6.94216,25.45443a9.90769,9.90769,0,0,0,.525,1.92494c1.05557,1.98995-.738-1.54849.205-1.7609-.45223.10187-1.59778,4.565-1.72246,4.92121l-4.23989,12.11372,4.8214-3.6708H846.8027l4.82139,3.6708-3.89877-11.209c-.78469-2.256-1.39754-4.73366-2.40076-6.90222a8.47819,8.47819,0,0,0-.52035-1.496c1.15662.16318-1.04568,3.72211.31409,1.72222,2.44884-3.60167,3.52825-9.30176,5.07141-13.37012l3.99918-10.54331C856.47356,331.99416,846.81016,329.39009,844.5461,335.359Z"/><path class="cls-7" d="M839.1119,198.00508c-.62348,17.201-27.59843,17.63249-28.2857.5844-.25853-6.41292-10.25986-6.44592-10,0,.52787,13.09412,11.56446,22.88985,24.5831,22.8531,13.18037-.03721,23.23386-10.50545,23.7026-23.4375.23328-6.43612-9.76706-6.42665-10,0Z"/><path class="cls-7" d="M899.021,197.59888c-.62776,17.85539-27.05961,17.85638-27.6874,0-.22561-6.41684-10.22667-6.447-10,0,.45531,12.95032,10.5445,23.84369,23.8437,23.8437,13.30136,0,23.38829-10.89035,23.8437-23.8437.22628-6.43631-9.774-6.42745-10,0Z"/><path class="cls-7" d="M846.6591,202.264a70.41716,70.41716,0,0,1,18.8976.1767c2.701.34871,4.97443-2.54814,5-5,.03115-2.98741-2.33255-4.65561-5-5a79.74821,79.74821,0,0,0-21.556.18051c-2.69589.36995-4.11462,3.78941-3.4922,6.15059.76249,2.89249,3.488,3.85759,6.1506,3.4922Z"/><path class="cls-7" d="M789.1982,198.87608l14.6728,3.386c6.263,1.4453,8.93655-8.194,2.6584-9.64279l-14.6728-3.386c-6.263-1.4453-8.93656,8.194-2.6584,9.64279Z"/><path class="cls-7" d="M906.4172,201.69778l10.158-3.386a5.11446,5.11446,0,0,0,3.49219-6.1506,5.05023,5.05023,0,0,0-6.15059-3.49219l-10.158,3.386a5.11445,5.11445,0,0,0-3.4922,6.15059,5.05026,5.05026,0,0,0,6.1506,3.4922Z"/><path class="cls-7" d="M935.88379,188.70448c4.38983-17.62294,7.84824-36.97037,4.80882-55.03772-3.41066-20.27414-11.0291-48.57083-35.27841-51.31938-6.38393-.72359-6.33229,9.28226,0,10,9.19378,1.04207,14.7947,9.5274,18.27873,17.271a100.69023,100.69023,0,0,1,7.85531,30.16181c1.57417,15.22859-1.6312,31.50851-5.30724,46.26593-1.55567,6.24523,8.08564,8.90956,9.64279,2.6584Z"/><path class="cls-7" d="M823.8143,80.81609c-12.40672-1.7727-24.84365,3.34745-33.213,12.60846-3.87637,4.28934-6.98479,9.19068-10.26149,13.93164-2.88995,4.18139-6.06318,9.083-11.33518,10.2223-6.28713,1.35866-3.62655,11.001,2.6584,9.64279,9.8863-2.13646,15.26164-11.90311,20.55454-19.58518,6.48983-9.41928,16.39845-18.96895,28.93836-17.17722,6.29454.89937,9.01382-8.73472,2.6584-9.64279Z"/><path class="cls-7" d="M769.4788,139.36908c.78454.02191,1.409.32039.6931-.23913.7059.55167.82161,2.9743.94668,3.76039.72338,4.54659.94169,9.23153,1.3655,13.81511q1.29809,14.03893,2.254,28.105c.439,6.38528,10.44237,6.4339,10,0-.89994-13.08888-1.98065-26.16825-3.324-39.21956-.82838-8.04823-2.36327-15.95451-11.93531-16.22184-6.43725-.17978-6.43239,9.82036,0,10Z"/><path class="cls-7" d="M853.24266,109.16125a47.87094,47.87094,0,0,1-32.52756,12.37683c-6.4352-.01677-6.44441,9.9832,0,10a58.39,58.39,0,0,0,39.59863-15.30577c4.782-4.32748-2.30731-11.38206-7.07107-7.07106Z"/><path class="cls-7" d="M812.965,131.68845a62.18846,62.18846,0,0,1-11.48352,9.89619c-1.24687.8025-2.52239,1.52539-3.826,2.2285-.78705.42448-2.01863,1.19658-.4378.26845-4.138,2.42947-3.998,6.08442-4.86,10.50209l-5.47172,28.0427c-1.22669,6.28683,8.40958,8.97862,9.64279,2.6584l6.8395-35.0526-3.49219,3.4922c7.77513-3.20516,14.45515-8.90736,20.16-14.96487,4.4102-4.6828-2.6477-11.76784-7.07107-7.07106Z"/><path class="cls-7" d="M900.83129,82.59838c-2.23878-6.28583-7.72042-10.97179-13.4422-14.13223-7.48773-4.13587-15.12136-3.01229-23.36694-2.40115-11.90609.88243-30.834,7.87926-40.56632-1.91675-4.54212-4.57184-11.61388,2.49853-7.07107,7.07106,10.1025,10.16859,25.3801,7.85605,38.21809,5.99976,7.21866-1.04378,15.19722-2.5003,22.47477-1.85642,4.97.43973,12.37207,5.01207,14.11088,9.89413,2.144,6.01956,11.8097,3.42564,9.64279-2.6584Z"/><path class="cls-7" d="M873.22006,113.652a38.09821,38.09821,0,0,1-22.99766,10.059c-6.37459.49484-6.428,10.499,0,10a49.31406,49.31406,0,0,0,30.06873-12.988c4.75417-4.35826-2.33241-11.41511-7.07107-7.07106Z"/><path class="cls-7" d="M897.1614,119.63993a57.97823,57.97823,0,0,1-25.2912,10.13966c-6.34236.95332-3.6473,10.5906,2.6584,9.64279a64.39046,64.39046,0,0,0,27.68-11.14775c5.215-3.68408.22476-12.359-5.04719-8.6347Z"/><path class="cls-7" d="M900.24194,142.02228c7.17421,11.78629,11.60124,24.49179,16.59476,37.2779,2.31537,5.92858,11.989,3.3492,9.64279-2.6584-5.30193-13.57582-9.98533-27.15211-17.60284-39.6667-3.34135-5.4894-11.993-.47008-8.63471,5.0472Z"/><path class="cls-2" d="M1071.2062,310.49428l-.031.0065c.0105.0648.0226.1292.0329.1939,1.4248,9.0682.2902,18.759-2.0321,27.5919a47.03325,47.03325,0,0,1-1.7928,5.7882c.9982,2.982,9.6781,2.1446,11.4513-.3227,2.1283-2.9611,2.0297-7.5263,2.4201-10.9941.5977-5.309,2.0393-10.8727.8706-16.2002C1081.0273,311.55328,1076.0444,309.23408,1071.2062,310.49428Z"/><path class="cls-2" d="M1060.8718,305.19118c-2.2828-1.5565-5.3125-1.6258-7.9756-1.5835a75.88049,75.88049,0,0,1-.2322,14.0993c-.4381,5.7262-.5183,11.634-1.5523,17.2917a15.18426,15.18426,0,0,1-3.229,7.3987c.3267.6953,2.5208,1.7675,3.4971,2.0726a9.36966,9.36966,0,0,0,6.3569-.0415,6.07823,6.07823,0,0,0,2.6299-2.5433,3.39647,3.39647,0,0,1,.2608-.4441c1.5499-2.9228,2.0407-7.0574,2.5498-9.6782a59.59235,59.59235,0,0,0,.9941-19.1282C1063.8061,309.95828,1063.2526,306.81458,1060.8718,305.19118Z"/><path class="cls-4" d="M1078.0633,352.70888c-4.5563,1.251-11.4657.5855-15.2909-2.7341a15.02672,15.02672,0,0,1-8.1028,2.2918c-4.9692.0012-10.6753-2.1763-12.9622-6.3853a16.82051,16.82051,0,0,1-10.1693-.3628,3.93144,3.93144,0,0,1-1.2044-.761c-2.6443,10.8499,4.6667,21.807,8.4058,31.6074,1.6785,4.3992-5.3792,6.2842-7.0366,1.94-4.4775-11.7359-12.2723-23.8931-8.0206-36.891,1.3904-4.2511,3.4761-8.2758,5.1494-12.4179,1.5659-3.8758,3.7026-8.5982,3.306-12.8891-.2266-2.4506-2.2308-4.6015-4.525-3.9479-2.6299.7493-4.6455,3.9745-6.0952,6.0841-6.9091,10.0527-12.4205,21.0225-19.2386,31.1528-2.6115,3.8799-8.9305.2234-6.3012-3.6831,6.8889-10.2356,12.4191-21.3663,19.4651-31.4787,3.2443-4.6561,7.605-10.0283,13.918-9.3979,7.8947.7884,10.8283,8.2311,9.7861,15.2161-.9628,6.4533-3.9348,12.251-6.4518,18.1992a3.92631,3.92631,0,0,1,.783.2304c2.3067.9358,5.9216,1.0835,8.1408-.2382,2.8332-1.6874,2.6889-6.8734,2.9179-9.7942.6372-8.1325,2.2519-16.9338,1.0002-25.0532-1.0129-6.572-5.8542-13.8985-13.4404-11.8278-6.338,1.73-11.4482,8.3475-14.9185,13.5311a3.58378,3.58378,0,0,1-3.8757,1.5628c-2.0994.554-4.7139-.5752-4.7139-3.3861q0-18.02595-.5791-36.0506c-.246-7.7206-.5647-15.4443-1.1528-23.1472-.2427-3.1778-.1684-6.862-1.2165-9.9051-.9652-2.8025-5.3731-6.4784-8.1111-3.5508-2.3467,2.5094-1.9025,7.6957-1.9788,10.8073q-.20865,8.50845-.4206,17.0169c-.2646,11.1997-.4695,22.4011-.4838,33.6043-.0077,5.9965.2211,12.0102.1012,18.0043a125.643,125.643,0,0,1-1.7117,15.7257,89.304,89.304,0,0,0-1.3669,16.3282c.208,5.5224,2.0898,10.6435,3.8984,15.8128,7.3128,20.9006,16.9401,41.3857,17.551,63.9101a3.40323,3.40323,0,0,1-4.0865,3.4844,130.78954,130.78954,0,0,0,59.2396-.1095,3.59084,3.59084,0,0,1-2.9349-3.4114c-.224-4.0448-.3632-8.1034-.3302-12.1544a31.36761,31.36761,0,0,1,.5166-7.1323c.7619-3.0803,2.9338-5.9805,4.6553-8.5969,3.9755-6.0433,9.8805-12.3073,10.7703-19.7745.8643-7.2517-1.1484-14.4794-2.1315-21.6787C1078.5676,352.54438,1078.3257,352.63688,1078.0633,352.70888Z"/><path class="cls-12" d="M1082.3659,514.96358c-.3497-28.5524-.7669-57.1063-1.4345-85.6533a139.16861,139.16861,0,0,1-74.0673,2.9921q-3.45765-.84045-6.8669-1.8383c-.0638,6.629-.4963,13.2893-.6865,19.8967q-.4362,15.1446-.8434,30.29c-.5587,20.2515-1.3817,40.5002-1.863,60.7527-.3275,13.7778-.4601,28.1651,2.5929,41.709,2.1579,9.5726,6.5194,18.8311,14.9275,24.4175,12.175,8.089,30.0615,8.9221,43.8562,5.3901,12.4597-3.1903,19.9421-12.0491,22.8667-24.3469,2.664-11.2034,1.9924-22.9616,1.9125-34.395Q1082.623,534.57048,1082.3659,514.96358Z"/><path class="cls-7" d="M1074.6713,422.20879a131.87008,131.87008,0,0,1-77.0184-1.4983,5.03964,5.03964,0,0,0-6.3292,4.82139c.422,17.29323-.94579,34.81006-1.422,52.1049q-.771,28.00065-1.71454,55.99437c-.5421,15.98868-.85193,32.25161,1.93271,48.07711,1.90762,10.84126,6.1637,21.74307,14.48257,29.28541,11.17517,10.132,26.922,12.79356,41.54322,12.1938,14.3479-.58855,28.59507-5.07136,36.88993-17.50844,7.63327-11.4451,8.44793-26.2258,8.432-39.54471-.0139-11.62587-.14282-23.25217-.26628-34.87727-.37874-35.66046-.86163-71.32435-1.7325-106.97657-.07438-3.04473-3.1646-5.93578-6.3292-4.82139q-4.20382,1.48034-8.4683,2.7497c-6.15315,1.83231-3.5328,11.48643,2.6584,9.64279q4.27151-1.272,8.4683-2.7497l-6.3292-4.8214c.73028,29.89665,1.16464,59.80134,1.53372,89.70435q.23973,19.42354.3966,38.84807c.0808,11.05889.7952,22.48032-1.41627,33.3699-2.51028,12.361-9.14407,21.82569-21.7092,25.24271-13.35918,3.633-30.87278,2.9263-42.83877-4.67447-8.64627-5.49209-12.94207-14.85763-15.051-24.55143-2.96052-13.608-2.75291-28.0174-2.40294-41.83974.50144-19.80426,1.28226-39.604,1.82885-59.40786.50789-18.4013,1.96292-37.04074,1.51394-55.44013l-6.3292,4.8214a141.655,141.655,0,0,0,82.3352,1.4983C1083.51381,430.10743,1080.886,420.456,1074.6713,422.20879Z"/><path class="cls-7" d="M1003.44555,350.078c6.71269-9.9979,12.20015-20.76752,18.948-30.72539,1.99282-2.94081,8.77255-10.35793,8.37818-1.866-.41511,8.93827-6.72748,16.69111-8.87416,25.18514-3.23762,12.81071,4.07877,24.49861,8.50222,35.99248,2.28765,5.9442,11.95994,3.36247,9.64279-2.6584-2.80485-7.2881-6.90224-14.3311-8.45769-22.0387-1.29115-6.39792.85285-11.56473,3.323-17.30172,3.58774-8.33255,10.16-21.59525,2.28635-29.51217-6.699-6.73574-15.35422-3.2201-20.516,3.18359-8.52448,10.57546-14.30315,23.42773-21.86744,34.694-3.59715,5.35762,5.06176,10.36875,8.63471,5.0472Z"/><path class="cls-7" d="M1018.34505,305.78158c3.30568-4.89044,8.22132-11.46509,14.318-12.946,7.606-1.84746,11.30351,6.56063,11.76837,12.71731.54208,7.17928-.59688,14.61962-1.1579,21.77176-.18471,2.35469.10057,7.76126-1.83381,9.52986-1.684,1.53967-5.75612,1.01715-7.60241.32423-6.03225-2.26393-8.638,7.39861-2.6584,9.64279,8.87641,3.33134,18.59822-.8874,20.955-10.10411,1.44531-5.65221,1.33564-11.89243,1.77946-17.68062.46859-6.1113,1.0627-12.25645-.08587-18.3338-1.77466-9.39009-9.21868-18.42841-19.463-18.14393-10.85815.30152-19.046,9.87844-24.65419,18.17526-3.61361,5.346,5.04636,10.35581,8.63471,5.0472Z"/><path class="cls-7" d="M1052.7698,304.96018c6.39342-.08124,9.32452,1.85871,10.12992,8.36969a58.6018,58.6018,0,0,1-1.03435,18.12625,64.65322,64.65322,0,0,1-1.74847,7.05323,19.62437,19.62437,0,0,1-1.15237,3.03683q-.80163,1.21407.09717.348a16.27942,16.27942,0,0,1-1.56643,1.15947,8.40547,8.40547,0,0,1-5.25571.25711c-1.86772-.48891-3.05183-1.07217-2.91976-2.087.82805-6.36284-9.17984-6.30223-10,0-1.07843,8.28681,8.99933,12.56993,15.79407,12.38781,9.28509-.24887,13.308-7.03335,15.41843-15.17539,2.40323-9.27154,3.57887-19.52381,1.83089-29.00655-1.89118-10.25958-9.67353-14.59541-19.59339-14.46937-6.43.0817-6.44768,10.08193,0,10Z"/><path class="cls-7" d="M1071.5654,311.79738c12.48223-2.969,9.29018,12.9696,8.451,19.954-.372,3.096-.38268,6.40819-1.44394,9.37577a5.00675,5.00675,0,0,1-2.20692,3.05514c-.93853.52858-7.73094.71064-7.72488-.821.02547-6.43552-9.9745-6.444-10,0-.03868,9.771,11.82432,12.77434,19.75785,10.6268,7.568-2.04861,10.06972-9.23,10.96436-16.25333,1.06447-8.35652,3.35534-17.78479.38408-25.95827-3.02363-8.31756-12.81821-11.52994-20.84-9.62189-6.25812,1.48854-3.60857,11.13344,2.6584,9.64279Z"/><path class="cls-7" d="M1077.0845,348.98858c.66156,8.24,3.70974,16.852,2.5122,25.1491-1.09566,7.59117-7.28108,13.88971-11.26364,20.13119a25.958,25.958,0,0,0-4.68073,15.72233c-.02371,3.93454.116,7.87608.33237,11.80448.35248,6.39984,10.35475,6.441,10,0-.21637-3.9284-.35608-7.86994-.33237-11.80448.01094-1.81422-.15078-4.29759.35387-5.772,1.211-3.53807,4.40671-7.1092,6.52269-10.17,4.24585-6.14169,8.3792-12.27741,9.06781-19.91156.76994-8.53588-1.83513-16.71581-2.5122-25.1491-.51152-6.3712-10.51593-6.4261-10,0Z"/><path class="cls-7" d="M1014.4692,421.83228c-.67043-22.24933-9.87049-42.45167-17.18288-63.08941-1.7421-4.91672-3.76488-9.95292-4.18484-15.1917-.44948-5.607.34575-11.25023,1.14473-16.78719,1.64837-11.42338,1.74377-22.43362,1.75-33.95667.00618-11.4325.21368-22.86326.483-34.29223q.17912-7.60124.37573-15.20205c.06421-2.591-.65963-8.9808,1.36438-11.23259,2.24759-2.50053,5.36456.1656,6.2169,2.78272,1.02843,3.15779.9067,6.96755,1.14642,10.2553.57411,7.87373.88543,15.76693,1.12353,23.65711q.5203,17.24274.531,34.50071c0,6.43452,10,6.44518,10,0q0-17.251-.531-34.50071c-.26049-8.63233-.59754-17.27214-1.29381-25.88181-.63573-7.86106-1.20641-16.62493-9.3556-20.4011-8.585-3.97811-16.4926.93141-18.36624,9.75108-1.01722,4.78833-.80394,9.81735-.92561,14.67683q-.234,9.34524-.44473,18.69107c-.27674,13.2255-.41239,26.45359-.25259,39.6816.14861,12.3005-3.45829,24.30685-3.05238,36.57381.44074,13.31937,7.19882,26.35035,11.72457,38.67272,4.90058,13.343,9.29786,26.97112,9.7294,41.29251.19346,6.42034,10.19428,6.44771,10,0Z"/><path class="cls-7" d="M825.8388,188.93338c-7.078,0-7.0897,11,0,11C832.9167,199.93338,832.9284,188.93338,825.8388,188.93338Z"/><path class="cls-7" d="M885.8388,188.93338c-7.078,0-7.0897,11,0,11C892.9167,199.93338,892.9284,188.93338,885.8388,188.93338Z"/></g><path class="cls-7" d="M898.7824.70368A284.12137,284.12137,0,0,0,720.01257,519.91246q8.1147,5.4778,16.59523,10.37407L734.31,524.64l-15.38948,83.18533-2.231,12.05937c-.68635,3.71,3.52549,8.59377,7.345,5.64655l75.91584-58.57845,10.862-8.38135-3.85279.50405a284.25435,284.25435,0,0,0,320.58209-138.09891c29.91834-54.40627,40.99573-117.98265,31.91565-179.34761-8.76717-59.25021-37.03384-115.0084-79.14145-157.54031A284.10477,284.10477,0,0,0,922.39469,3.39379Q910.64238,1.59634,898.7824.70368c-6.419-.48348-6.388,9.51885,0,10a276.02174,276.02174,0,0,1,189.91734,97.399c47.38921,56.41136,69.85858,130.76272,62.51535,203.97508-7.3338,73.11837-44.93189,141.01937-102.30787,186.75916-59.12669,47.13545-137.2189,67.81153-211.93807,56.2329q-8.77074-1.35914-17.44354-3.26714c-3.8104-.83908-10.0341-3.80409-13.79845-1.83665a33.27143,33.27143,0,0,0-4.36462,3.36785l-23.88948,18.43368-54.96993,42.4161-3.51583,2.7129,7.345,5.64655,15.38949-83.18533,2.231-12.05937a5.18323,5.18323,0,0,0-2.2978-5.64655,274.29373,274.29373,0,0,1-93.36123-386.46837A274.14708,274.14708,0,0,1,880.54754,9.96371c6.08557.05039,12.16453.313,18.23486.74C905.20465,11.1554,905.17637,1.15341,898.7824.70368Z"/><path class="cls-7" d="M853.05523,834.22075c-5.89168-4.71735-12.88121-5.37687-20.22134-5.3535-5.93842.01891-12.51055-1.0357-18.28266.74093-13.02087,4.00777-16.81809,19.56325-17.30226,31.58436-.233,5.78459.96272,12.00791,5.31923,16.14914,4.61381,4.38581,10.85726,5.07262,16.88546,5.73534,12.88587,1.41662,29.54624,4.22935,40.73867-4.04407,17.40546-12.8661,5.16637-33.48278-7.1371-44.8122-4.72784-4.35355-11.81756,2.70034-7.07107,7.07106,5.55406,5.11436,12.733,12.33255,13.07361,20.43287.292,6.94416-5.87881,11.12306-12.07765,12.1788-6.19775,1.05557-12.73357.54665-18.96236.0324-5.07164-.41871-12.48082-.107-17.02449-2.74344-4.9674-2.88233-3.995-9.89966-3.29442-14.71715.75159-5.168,2.023-11.57926,6.12558-15.24331,3.54593-3.16689,7.77772-2.48075,12.15664-2.34138,6.06656.19309,14.90559-1.68026,20.00309,2.40121C850.96012,845.276,858.08044,838.24433,853.05523,834.22075Z"/><path class="cls-7" d="M865.83705,873.27988c10.34189-16.88663,20.675-33.78105,30.67618-50.8726,4.94725-8.45461,9.84316-16.94794,14.44545-25.59652,2.90676-5.46236,6.32079-11.24306,8.0013-17.241,2.18393-7.79471-4.02012-15.92679-8.86382-21.43721-6.59649-7.50448-14.2846-12.5153-24.49388-12.27457-20.68661.48778-32.60412,17.07528-43.56966,32.17961a568.48677,568.48677,0,0,0-40.83028,64.19507c-3.0488,5.66707,5.58133,10.72277,8.63471,5.0472a571.83183,571.83183,0,0,1,32.26091-52.0263c5.161-7.53011,10.42134-15.03165,16.11473-22.17226,4.74255-5.94807,9.5791-11.5114,16.69267-14.71378,8.30084-3.73687,16.9846-3.621,23.85,2.51454a40.01214,40.01214,0,0,1,9.34481,11.68652,33.57959,33.57959,0,0,1,1.33277,3.39691c.98751,2.65418.19312-.07434.10673.45081.28631-1.74051-.265.68933-.42211,1.11876-4.74834,12.97821-13.17036,25.99484-20.28257,38.18819-10.29576,17.65132-20.96083,35.084-31.63268,52.50941-3.3702,5.503,5.27535,10.53249,8.63471,5.0472Z"/><path class="cls-7" d="M878.20234,751.23268l-43.70922,69.93476-6.29078,10.06524c-3.42061,5.473,5.22772,10.49839,8.63471,5.0472l43.70923-69.93476,6.29077-10.06524c3.42061-5.473-5.22771-10.49839-8.63471-5.0472Z"/><path class="cls-11" d="M709.7428,713.52488a7.87727,7.87727,0,0,0-10.9411,1.0024l-47.282,52.229,20,3,39.2534-44.9866A7.87729,7.87729,0,0,0,709.7428,713.52488Z"/><path class="cls-7" d="M712.26639,709.20753c-7.83782-5.27725-14.60021-.86691-19.90682,4.99492l-16.078,17.76025-28.29736,31.258c-2.24952,2.48488-1.77412,7.75986,2.20634,8.35693,6.42662.964,12.84911,1.96165,19.28066,2.89209,5.28887.76514,7.43007-3.29358,10.53786-6.85528l31.392-35.97694c.96727-1.10854,1.979-2.191,2.90766-3.33234a13.15262,13.15262,0,0,0-1.0303-18.31586c-4.65482-4.44412-11.73707,2.61627-7.07107,7.07106,3.56477,3.40341-1.44083,7.00579-3.70143,9.59657l-13.58738,15.5719-20.93429,23.99187,4.86474-1.28586-20-3,2.20633,8.35692,24.97854-27.592,16.12949-17.81709c2.59021-2.86121,6.81495-9.896,11.05594-7.04052C712.572,721.44628,717.58255,712.78693,712.26639,709.20753Z"/></svg>
