<svg width="320" height="320" viewBox="0 0 320 320" fill="none" xmlns="http://www.w3.org/2000/svg">
<rect width="320" height="320" fill="white"/>
<path d="M282.843 150.693C275.181 139.385 264.553 129.64 250.583 126.984C235.126 124.046 218.697 123.644 204.408 118.026C195.553 114.544 187.996 109.226 179.467 105.242C144.463 88.8936 98.2072 96.8176 75.3776 129.445C70.4001 136.559 66.5512 144.687 59.9074 150.274C55.1613 154.264 49.2621 156.702 44.5542 160.738C37.2046 167.038 33.5184 176.502 30.106 185.565C22.6826 205.281 13.1767 233.424 31.9241 249.983C44.7042 261.272 44.9168 260.009 60.2205 268.99C76.5727 278.586 172.145 287.921 198.318 277.262C224.49 266.602 238.669 270.128 261.816 255.567C289.186 238.35 304.126 204.966 295.611 177.627C292.661 168.085 288.362 159.015 282.843 150.693Z" fill="#FAF7DE"/>
<path d="M81.1154 72C104.375 72 123.231 87.3361 123.231 106.253C123.231 118.839 114.883 129.836 102.449 135.791L107.826 145L95.5036 138.454C91.0153 139.781 86.1691 140.505 81.1154 140.505C57.8562 140.505 39 125.169 39 106.251C39 87.3341 57.8562 72 81.1154 72Z" fill="#C1E4EA"/>
<path d="M57.9091 95.4619C58.0114 95.4619 58.1138 95.4648 58.2078 95.4735C58.3295 95.4823 58.454 95.4852 58.5757 95.4852H80.7628V95.5026H90.7666C95.0923 95.5026 99.418 95.5026 103.746 95.4939C103.843 95.4939 103.948 95.4997 104.056 95.5026C104.178 95.5084 104.302 95.5142 104.427 95.5142C104.753 95.5142 105.162 95.4765 105.431 95.1889C105.605 95.003 105.688 94.7416 105.682 94.4105C105.669 93.7454 105.268 93.4084 104.49 93.4084C104.36 93.4084 104.228 93.4172 104.098 93.423C103.987 93.4288 103.879 93.4346 103.769 93.4346C101.271 93.423 98.7735 93.423 96.276 93.423H87.0687C77.4632 93.4317 67.8576 93.4375 58.2438 93.452C58.1829 93.452 58.1221 93.452 58.0557 93.452C57.9838 93.452 57.9119 93.452 57.84 93.452C57.4915 93.452 56.5622 93.452 56.5483 94.4512C56.5317 95.4358 57.3919 95.4532 57.9063 95.4648L57.9091 95.4619Z" fill="#284A66"/>
<path d="M104.707 107.061C105.291 107.01 105.656 106.712 105.681 106.268C105.698 105.985 105.592 105.49 104.695 105.374C104.464 105.344 104.23 105.341 104.005 105.341L100.87 105.344C87.0565 105.361 72.7728 105.377 58.7174 105.407C58.6227 105.407 58.5169 105.402 58.4083 105.394C58.2775 105.387 58.1438 105.379 58.0129 105.379C57.7512 105.379 57.3753 105.404 57.1303 105.632C56.9716 105.778 56.8936 105.98 56.8992 106.23C56.9103 106.778 57.2834 107.056 58.0157 107.056C58.1522 107.056 58.2914 107.048 58.425 107.041C58.5392 107.033 58.6478 107.028 58.7508 107.028C63.1835 107.038 67.6162 107.041 72.0489 107.041H81.0033V107.096H89.3564C94.0675 107.096 98.7758 107.096 103.501 107.096C103.896 107.096 104.306 107.096 104.712 107.061H104.707Z" fill="#284A66"/>
<path d="M73.751 118.678C75.5572 118.678 77.3635 118.678 79.1725 118.672C79.6268 118.672 80.0449 118.624 80.4128 118.537C80.8421 118.435 81.118 118.071 81.1153 117.609C81.1153 117.173 80.8477 116.822 80.4212 116.689C80.1648 116.611 79.8582 116.572 79.4846 116.572C72.6361 116.581 65.7903 116.593 58.9417 116.611C58.4512 116.611 58.0554 116.644 57.6986 116.713C57.1662 116.816 56.854 117.206 56.9042 117.708C56.9488 118.149 57.261 118.462 57.7237 118.525C58.1975 118.591 58.5878 118.621 58.9529 118.621C60.734 118.624 62.5179 118.627 64.2991 118.627H68.7254V118.672H73.7455L73.751 118.678Z" fill="#284A66"/>
<path d="M194.684 100.649C162.798 86.8194 135.698 120.605 139.987 151.756C140.469 153.845 141.55 152.804 140.127 154.609C138.704 156.415 137.014 156.061 136.373 159.33C135.731 162.6 134.605 164.043 136.373 166.132C138.141 168.221 143.845 171.992 143.845 171.992C145.642 175.787 141.62 213.003 140.995 214.126C140.995 214.126 141.867 212.033 135.427 216.753C128.987 221.47 123.041 227.462 123.284 227.56C123.181 227.096 130.636 208.484 123.559 211.272C122.161 212.156 119.949 215.248 118.686 217.358C117.424 219.468 116.86 221.071 114.854 220.512C110.939 220.006 107.423 212.703 109.956 209.421C112.292 203.89 119.944 211.054 122.646 209.664C128.798 206.864 115.043 199.54 112.123 200.432C107.53 201.18 105.313 205.025 102.241 203.964C102.225 203.681 93.1368 183.091 88.7162 184.526C87.6265 185.089 87.9472 186.294 86.9027 187.499C81.454 191.134 86.0556 192.886 83.6911 196.735C82.2436 198.503 81.5239 198.902 82.0832 201.472C82.6466 204.043 89.7155 225.57 91.7223 229.987C93.7784 236.299 98.5732 238.639 101.592 241.234L101.119 281.073H249.393L248.431 270.311L257.346 267.963C257.346 267.963 251.001 255.774 249.233 248.064C247.465 240.354 246.412 236.348 244.895 231.035C242.045 221.524 229.889 216.145 223.93 212.962L220.637 172C220.637 172 227.385 168.949 228.828 166.699C232.221 161.88 228.536 156.555 225.213 154.815C225.213 154.815 227.907 143.326 226.278 136.82C224.65 130.314 222.619 121.317 219.539 118.105C211.244 107.964 207.284 102.462 194.688 100.653L194.684 100.649Z" fill="white"/>
<mask id="mask0_1332_3507" style="mask-type:luminance" maskUnits="userSpaceOnUse" x="196" y="209" width="61" height="73">
<path d="M249.052 246.928C246.083 222.768 234.564 217.423 213.539 209.42C208.534 213.191 203.098 217.061 197.509 220.642C197.476 225.721 197.02 230.775 196.884 235.845C196.855 236.902 196.855 237.955 196.859 239.012C199.627 240.525 201.942 243.293 203.406 245.867C205.363 249.301 206.42 253.174 207.391 256.974C207.399 257.007 207.403 257.04 207.411 257.069C209.069 261.168 209.731 265.527 211.084 269.767C212.321 273.649 212.428 277.733 214.83 281.043H228.676C228.676 281.043 229.996 276.552 232.266 275.87C238.763 273.32 251.297 267.435 256.918 266.28C256.918 266.28 250.376 251.797 249.052 246.928Z" fill="white"/>
</mask>
<g mask="url(#mask0_1332_3507)">
<path d="M256.454 212.563C257.383 212.563 258.136 211.81 258.136 210.881C258.136 209.952 257.383 209.199 256.454 209.199C255.525 209.199 254.772 209.952 254.772 210.881C254.772 211.81 255.525 212.563 256.454 212.563Z" fill="#B3B2DA"/>
<path d="M245.709 212.563C246.638 212.563 247.391 211.81 247.391 210.881C247.391 209.952 246.638 209.199 245.709 209.199C244.78 209.199 244.027 209.952 244.027 210.881C244.027 211.81 244.78 212.563 245.709 212.563Z" fill="#B3B2DA"/>
<path d="M252.272 215.063C252.93 215.721 252.93 216.786 252.272 217.44C251.614 218.098 250.549 218.098 249.895 217.44C249.237 216.782 249.237 215.717 249.895 215.063C250.553 214.41 251.618 214.406 252.272 215.063Z" fill="#B3B2DA"/>
<path d="M256.454 223.308C257.383 223.308 258.136 222.555 258.136 221.626C258.136 220.697 257.383 219.944 256.454 219.944C255.525 219.944 254.772 220.697 254.772 221.626C254.772 222.555 255.525 223.308 256.454 223.308Z" fill="#B3B2DA"/>
<path d="M234.963 212.563C235.892 212.563 236.645 211.81 236.645 210.881C236.645 209.952 235.892 209.199 234.963 209.199C234.034 209.199 233.281 209.952 233.281 210.881C233.281 211.81 234.034 212.563 234.963 212.563Z" fill="#B3B2DA"/>
<path d="M241.527 215.063C242.185 215.721 242.185 216.786 241.527 217.44C240.869 218.098 239.804 218.098 239.15 217.44C238.492 216.782 238.492 215.717 239.15 215.063C239.808 214.41 240.873 214.406 241.527 215.063Z" fill="#B3B2DA"/>
<path d="M245.709 223.308C246.638 223.308 247.391 222.555 247.391 221.626C247.391 220.697 246.638 219.944 245.709 219.944C244.78 219.944 244.027 220.697 244.027 221.626C244.027 222.555 244.78 223.308 245.709 223.308Z" fill="#B3B2DA"/>
<path d="M251.084 228.679C252.012 228.679 252.765 227.926 252.765 226.997C252.765 226.068 252.012 225.315 251.084 225.315C250.155 225.315 249.402 226.068 249.402 226.997C249.402 227.926 250.155 228.679 251.084 228.679Z" fill="#B3B2DA"/>
<path d="M256.454 234.053C257.383 234.053 258.136 233.3 258.136 232.371C258.136 231.442 257.383 230.689 256.454 230.689C255.525 230.689 254.772 231.442 254.772 232.371C254.772 233.3 255.525 234.053 256.454 234.053Z" fill="#B3B2DA"/>
<path d="M224.219 212.563C225.147 212.563 225.9 211.81 225.9 210.881C225.9 209.952 225.147 209.199 224.219 209.199C223.29 209.199 222.537 209.952 222.537 210.881C222.537 211.81 223.29 212.563 224.219 212.563Z" fill="#B3B2DA"/>
<path d="M230.781 215.064C231.439 215.722 231.439 216.787 230.781 217.441C230.123 218.099 229.058 218.099 228.404 217.441C227.746 216.783 227.746 215.718 228.404 215.064C229.062 214.41 230.127 214.406 230.781 215.064Z" fill="#B3B2DA"/>
<path d="M234.964 223.308C235.893 223.308 236.646 222.555 236.646 221.626C236.646 220.697 235.893 219.944 234.964 219.944C234.035 219.944 233.282 220.697 233.282 221.626C233.282 222.555 234.035 223.308 234.964 223.308Z" fill="#B3B2DA"/>
<path d="M241.527 225.807C242.185 226.465 242.185 227.53 241.527 228.184C240.869 228.842 239.804 228.842 239.15 228.184C238.496 227.526 238.492 226.461 239.15 225.807C239.808 225.154 240.873 225.149 241.527 225.807Z" fill="#B3B2DA"/>
<path d="M245.709 234.053C246.638 234.053 247.391 233.299 247.391 232.371C247.391 231.442 246.638 230.689 245.709 230.689C244.78 230.689 244.027 231.442 244.027 232.371C244.027 233.299 244.78 234.053 245.709 234.053Z" fill="#B3B2DA"/>
<path d="M252.272 236.552C252.93 237.21 252.93 238.275 252.272 238.929C251.614 239.583 250.549 239.587 249.895 238.929C249.241 238.271 249.237 237.206 249.895 236.552C250.553 235.894 251.618 235.894 252.272 236.552Z" fill="#B3B2DA"/>
<path d="M256.454 244.798C257.383 244.798 258.136 244.045 258.136 243.116C258.136 242.187 257.383 241.434 256.454 241.434C255.525 241.434 254.772 242.187 254.772 243.116C254.772 244.045 255.525 244.798 256.454 244.798Z" fill="#B3B2DA"/>
<path d="M213.473 212.563C214.402 212.563 215.155 211.81 215.155 210.881C215.155 209.952 214.402 209.199 213.473 209.199C212.544 209.199 211.791 209.952 211.791 210.881C211.791 211.81 212.544 212.563 213.473 212.563Z" fill="#B3B2DA"/>
<path d="M220.036 215.063C220.694 215.721 220.694 216.786 220.036 217.44C219.378 218.098 218.313 218.098 217.659 217.44C217.001 216.782 217.001 215.717 217.659 215.063C218.317 214.409 219.382 214.405 220.036 215.063Z" fill="#B3B2DA"/>
<path d="M224.219 223.308C225.147 223.308 225.9 222.555 225.9 221.626C225.9 220.698 225.147 219.945 224.219 219.945C223.29 219.945 222.537 220.698 222.537 221.626C222.537 222.555 223.29 223.308 224.219 223.308Z" fill="#B3B2DA"/>
<path d="M229.593 228.678C230.522 228.678 231.275 227.925 231.275 226.997C231.275 226.068 230.522 225.315 229.593 225.315C228.664 225.315 227.911 226.068 227.911 226.997C227.911 227.925 228.664 228.678 229.593 228.678Z" fill="#B3B2DA"/>
<path d="M234.964 234.053C235.893 234.053 236.646 233.3 236.646 232.371C236.646 231.442 235.893 230.689 234.964 230.689C234.035 230.689 233.282 231.442 233.282 232.371C233.282 233.3 234.035 234.053 234.964 234.053Z" fill="#B3B2DA"/>
<path d="M241.527 236.554C242.184 237.212 242.184 238.277 241.527 238.931C240.869 239.589 239.803 239.589 239.15 238.931C238.496 238.273 238.492 237.208 239.15 236.554C239.808 235.896 240.873 235.896 241.527 236.554Z" fill="#B3B2DA"/>
<path d="M245.709 244.797C246.638 244.797 247.391 244.044 247.391 243.115C247.391 242.187 246.638 241.434 245.709 241.434C244.78 241.434 244.027 242.187 244.027 243.115C244.027 244.044 244.78 244.797 245.709 244.797Z" fill="#B3B2DA"/>
<path d="M251.084 250.169C252.012 250.169 252.765 249.416 252.765 248.487C252.765 247.558 252.012 246.805 251.084 246.805C250.155 246.805 249.402 247.558 249.402 248.487C249.402 249.416 250.155 250.169 251.084 250.169Z" fill="#B3B2DA"/>
<path d="M256.454 255.544C257.383 255.544 258.136 254.791 258.136 253.862C258.136 252.933 257.383 252.18 256.454 252.18C255.525 252.18 254.772 252.933 254.772 253.862C254.772 254.791 255.525 255.544 256.454 255.544Z" fill="#B3B2DA"/>
<path d="M203.916 209.693C204.574 210.351 204.574 211.416 203.916 212.07C203.259 212.723 202.193 212.727 201.54 212.07C200.882 211.412 200.882 210.347 201.54 209.693C202.198 209.035 203.263 209.035 203.916 209.693Z" fill="#B3B2DA"/>
<path d="M209.291 215.063C209.949 215.721 209.949 216.786 209.291 217.44C208.633 218.098 207.568 218.098 206.914 217.44C206.256 216.782 206.256 215.717 206.914 215.063C207.572 214.41 208.637 214.406 209.291 215.063Z" fill="#B3B2DA"/>
<path d="M213.473 223.308C214.402 223.308 215.155 222.555 215.155 221.626C215.155 220.697 214.402 219.944 213.473 219.944C212.544 219.944 211.791 220.697 211.791 221.626C211.791 222.555 212.544 223.308 213.473 223.308Z" fill="#B3B2DA"/>
<path d="M218.848 228.679C219.777 228.679 220.53 227.926 220.53 226.997C220.53 226.068 219.777 225.315 218.848 225.315C217.919 225.315 217.166 226.068 217.166 226.997C217.166 227.926 217.919 228.679 218.848 228.679Z" fill="#B3B2DA"/>
<path d="M224.218 234.053C225.147 234.053 225.9 233.3 225.9 232.371C225.9 231.442 225.147 230.689 224.218 230.689C223.289 230.689 222.536 231.442 222.536 232.371C222.536 233.3 223.289 234.053 224.218 234.053Z" fill="#B3B2DA"/>
<path d="M230.781 236.554C231.439 237.212 231.439 238.277 230.781 238.931C230.123 239.584 229.058 239.589 228.405 238.931C227.751 238.273 227.747 237.208 228.405 236.554C229.062 235.896 230.128 235.896 230.781 236.554Z" fill="#B3B2DA"/>
<path d="M234.963 244.798C235.892 244.798 236.645 244.045 236.645 243.116C236.645 242.188 235.892 241.435 234.963 241.435C234.034 241.435 233.281 242.188 233.281 243.116C233.281 244.045 234.034 244.798 234.963 244.798Z" fill="#B3B2DA"/>
<path d="M241.527 247.299C242.185 247.957 242.185 249.022 241.527 249.676C240.869 250.334 239.804 250.334 239.15 249.676C238.496 249.018 238.492 247.953 239.15 247.299C239.808 246.645 240.873 246.641 241.527 247.299Z" fill="#B3B2DA"/>
<path d="M245.709 255.543C246.638 255.543 247.391 254.79 247.391 253.862C247.391 252.933 246.638 252.18 245.709 252.18C244.78 252.18 244.027 252.933 244.027 253.862C244.027 254.79 244.78 255.543 245.709 255.543Z" fill="#B3B2DA"/>
<path d="M251.084 260.914C252.012 260.914 252.765 260.161 252.765 259.232C252.765 258.304 252.012 257.551 251.084 257.551C250.155 257.551 249.402 258.304 249.402 259.232C249.402 260.161 250.155 260.914 251.084 260.914Z" fill="#B3B2DA"/>
<path d="M256.454 266.289C257.383 266.289 258.136 265.536 258.136 264.607C258.136 263.678 257.383 262.925 256.454 262.925C255.525 262.925 254.772 263.678 254.772 264.607C254.772 265.536 255.525 266.289 256.454 266.289Z" fill="#B3B2DA"/>
<path d="M198.546 215.064C199.204 215.722 199.204 216.787 198.546 217.441C197.888 218.099 196.823 218.099 196.169 217.441C195.511 216.783 195.511 215.718 196.169 215.064C196.827 214.41 197.892 214.406 198.546 215.064Z" fill="#B3B2DA"/>
<path d="M203.916 220.438C204.574 221.096 204.574 222.161 203.916 222.815C203.259 223.469 202.193 223.473 201.54 222.815C200.882 222.157 200.882 221.092 201.54 220.438C202.198 219.78 203.263 219.78 203.916 220.438Z" fill="#B3B2DA"/>
<path d="M208.103 228.678C209.031 228.678 209.784 227.925 209.784 226.996C209.784 226.067 209.031 225.314 208.103 225.314C207.174 225.314 206.421 226.067 206.421 226.996C206.421 227.925 207.174 228.678 208.103 228.678Z" fill="#B3B2DA"/>
<path d="M213.473 234.053C214.402 234.053 215.155 233.299 215.155 232.371C215.155 231.442 214.402 230.689 213.473 230.689C212.544 230.689 211.791 231.442 211.791 232.371C211.791 233.299 212.544 234.053 213.473 234.053Z" fill="#B3B2DA"/>
<path d="M220.036 236.554C220.694 237.212 220.694 238.277 220.036 238.931C219.378 239.584 218.313 239.589 217.659 238.931C217.005 238.273 217.001 237.208 217.659 236.554C218.317 235.896 219.382 235.896 220.036 236.554Z" fill="#B3B2DA"/>
<path d="M224.219 244.798C225.147 244.798 225.9 244.045 225.9 243.116C225.9 242.187 225.147 241.434 224.219 241.434C223.29 241.434 222.537 242.187 222.537 243.116C222.537 244.045 223.29 244.798 224.219 244.798Z" fill="#B3B2DA"/>
<path d="M229.593 250.169C230.522 250.169 231.275 249.416 231.275 248.487C231.275 247.558 230.522 246.805 229.593 246.805C228.664 246.805 227.911 247.558 227.911 248.487C227.911 249.416 228.664 250.169 229.593 250.169Z" fill="#B3B2DA"/>
<path d="M234.963 255.544C235.892 255.544 236.645 254.791 236.645 253.862C236.645 252.933 235.892 252.18 234.963 252.18C234.034 252.18 233.281 252.933 233.281 253.862C233.281 254.791 234.034 255.544 234.963 255.544Z" fill="#B3B2DA"/>
<path d="M241.527 258.045C242.184 258.703 242.184 259.768 241.527 260.422C240.869 261.079 239.803 261.079 239.15 260.422C238.496 259.764 238.492 258.699 239.15 258.045C239.808 257.391 240.873 257.387 241.527 258.045Z" fill="#B3B2DA"/>
<path d="M245.709 266.289C246.638 266.289 247.391 265.536 247.391 264.607C247.391 263.678 246.638 262.925 245.709 262.925C244.78 262.925 244.027 263.678 244.027 264.607C244.027 265.536 244.78 266.289 245.709 266.289Z" fill="#B3B2DA"/>
<path d="M251.083 271.659C252.012 271.659 252.765 270.906 252.765 269.977C252.765 269.048 252.012 268.295 251.083 268.295C250.154 268.295 249.401 269.048 249.401 269.977C249.401 270.906 250.154 271.659 251.083 271.659Z" fill="#B3B2DA"/>
<path d="M257.643 274.164C258.301 274.822 258.301 275.887 257.643 276.541C256.985 277.199 255.92 277.199 255.266 276.541C254.608 275.883 254.608 274.818 255.266 274.164C255.924 273.51 256.989 273.506 257.643 274.164Z" fill="#B3B2DA"/>
<path d="M197.357 228.679C198.286 228.679 199.039 227.926 199.039 226.997C199.039 226.068 198.286 225.315 197.357 225.315C196.429 225.315 195.676 226.068 195.676 226.997C195.676 227.926 196.429 228.679 197.357 228.679Z" fill="#B3B2DA"/>
<path d="M203.916 231.183C204.574 231.841 204.574 232.906 203.916 233.56C203.258 234.213 202.193 234.217 201.539 233.56C200.881 232.902 200.881 231.837 201.539 231.183C202.197 230.525 203.262 230.525 203.916 231.183Z" fill="#B3B2DA"/>
<path d="M209.291 236.553C209.949 237.211 209.949 238.276 209.291 238.93C208.633 239.584 207.568 239.588 206.914 238.93C206.26 238.272 206.256 237.207 206.914 236.553C207.572 235.895 208.637 235.895 209.291 236.553Z" fill="#B3B2DA"/>
<path d="M213.473 244.798C214.402 244.798 215.155 244.045 215.155 243.116C215.155 242.187 214.402 241.434 213.473 241.434C212.544 241.434 211.791 242.187 211.791 243.116C211.791 244.045 212.544 244.798 213.473 244.798Z" fill="#B3B2DA"/>
<path d="M218.847 250.17C219.776 250.17 220.529 249.417 220.529 248.488C220.529 247.559 219.776 246.806 218.847 246.806C217.919 246.806 217.166 247.559 217.166 248.488C217.166 249.417 217.919 250.17 218.847 250.17Z" fill="#B3B2DA"/>
<path d="M224.219 255.544C225.147 255.544 225.9 254.791 225.9 253.862C225.9 252.933 225.147 252.18 224.219 252.18C223.29 252.18 222.537 252.933 222.537 253.862C222.537 254.791 223.29 255.544 224.219 255.544Z" fill="#B3B2DA"/>
<path d="M229.593 260.914C230.522 260.914 231.275 260.161 231.275 259.232C231.275 258.303 230.522 257.55 229.593 257.55C228.664 257.55 227.911 258.303 227.911 259.232C227.911 260.161 228.664 260.914 229.593 260.914Z" fill="#B3B2DA"/>
<path d="M234.963 266.289C235.892 266.289 236.645 265.536 236.645 264.607C236.645 263.678 235.892 262.925 234.963 262.925C234.034 262.925 233.281 263.678 233.281 264.607C233.281 265.536 234.034 266.289 234.963 266.289Z" fill="#B3B2DA"/>
<path d="M241.527 268.789C242.185 269.447 242.185 270.512 241.527 271.165C240.869 271.823 239.804 271.823 239.15 271.165C238.496 270.507 238.492 269.442 239.15 268.789C239.808 268.135 240.873 268.131 241.527 268.789Z" fill="#B3B2DA"/>
<path d="M246.897 274.164C247.555 274.822 247.555 275.887 246.897 276.541C246.239 277.199 245.174 277.199 244.52 276.541C243.862 275.883 243.862 274.818 244.52 274.164C245.178 273.51 246.243 273.506 246.897 274.164Z" fill="#B3B2DA"/>
<path d="M251.083 282.404C252.012 282.404 252.765 281.651 252.765 280.722C252.765 279.793 252.012 279.04 251.083 279.04C250.154 279.04 249.401 279.793 249.401 280.722C249.401 281.651 250.154 282.404 251.083 282.404Z" fill="#B3B2DA"/>
<path d="M198.546 236.554C199.204 237.212 199.204 238.277 198.546 238.931C197.888 239.585 196.823 239.589 196.169 238.931C195.515 238.273 195.511 237.208 196.169 236.554C196.827 235.896 197.892 235.896 198.546 236.554Z" fill="#B3B2DA"/>
<path d="M203.916 241.928C204.574 242.586 204.574 243.651 203.916 244.305C203.259 244.959 202.193 244.963 201.54 244.305C200.882 243.647 200.882 242.582 201.54 241.928C202.198 241.27 203.263 241.27 203.916 241.928Z" fill="#B3B2DA"/>
<path d="M208.102 250.169C209.031 250.169 209.784 249.416 209.784 248.487C209.784 247.558 209.031 246.805 208.102 246.805C207.173 246.805 206.42 247.558 206.42 248.487C206.42 249.416 207.173 250.169 208.102 250.169Z" fill="#B3B2DA"/>
<path d="M213.473 255.544C214.402 255.544 215.155 254.791 215.155 253.862C215.155 252.933 214.402 252.18 213.473 252.18C212.544 252.18 211.791 252.933 211.791 253.862C211.791 254.791 212.544 255.544 213.473 255.544Z" fill="#B3B2DA"/>
<path d="M218.848 260.916C219.777 260.916 220.53 260.163 220.53 259.234C220.53 258.305 219.777 257.552 218.848 257.552C217.919 257.552 217.166 258.305 217.166 259.234C217.166 260.163 217.919 260.916 218.848 260.916Z" fill="#B3B2DA"/>
<path d="M224.218 266.289C225.147 266.289 225.9 265.536 225.9 264.607C225.9 263.678 225.147 262.925 224.218 262.925C223.289 262.925 222.536 263.678 222.536 264.607C222.536 265.536 223.289 266.289 224.218 266.289Z" fill="#B3B2DA"/>
<path d="M229.593 271.661C230.522 271.661 231.275 270.908 231.275 269.979C231.275 269.05 230.522 268.297 229.593 268.297C228.664 268.297 227.911 269.05 227.911 269.979C227.911 270.908 228.664 271.661 229.593 271.661Z" fill="#B3B2DA"/>
<path d="M236.152 274.164C236.81 274.822 236.81 275.887 236.152 276.54C235.494 277.198 234.429 277.198 233.775 276.54C233.117 275.882 233.117 274.817 233.775 274.164C234.433 273.51 235.498 273.506 236.152 274.164Z" fill="#B3B2DA"/>
<path d="M241.527 279.533C242.184 280.191 242.184 281.256 241.527 281.91C240.869 282.568 239.803 282.568 239.15 281.91C238.496 281.252 238.492 280.187 239.15 279.533C239.808 278.88 240.873 278.875 241.527 279.533Z" fill="#B3B2DA"/>
<path d="M197.357 250.169C198.286 250.169 199.039 249.416 199.039 248.487C199.039 247.558 198.286 246.805 197.357 246.805C196.428 246.805 195.675 247.558 195.675 248.487C195.675 249.416 196.428 250.169 197.357 250.169Z" fill="#B3B2DA"/>
<path d="M203.916 252.674C204.574 253.332 204.574 254.397 203.916 255.051C203.259 255.704 202.193 255.708 201.54 255.051C200.882 254.393 200.882 253.327 201.54 252.674C202.198 252.016 203.263 252.016 203.916 252.674Z" fill="#B3B2DA"/>
<path d="M208.103 260.914C209.031 260.914 209.784 260.161 209.784 259.232C209.784 258.304 209.031 257.551 208.103 257.551C207.174 257.551 206.421 258.304 206.421 259.232C206.421 260.161 207.174 260.914 208.103 260.914Z" fill="#B3B2DA"/>
<path d="M213.473 266.289C214.402 266.289 215.155 265.536 215.155 264.607C215.155 263.678 214.402 262.925 213.473 262.925C212.544 262.925 211.791 263.678 211.791 264.607C211.791 265.536 212.544 266.289 213.473 266.289Z" fill="#B3B2DA"/>
<path d="M218.848 271.659C219.777 271.659 220.53 270.906 220.53 269.977C220.53 269.048 219.777 268.295 218.848 268.295C217.919 268.295 217.166 269.048 217.166 269.977C217.166 270.906 217.919 271.659 218.848 271.659Z" fill="#B3B2DA"/>
<path d="M225.407 274.164C226.065 274.822 226.065 275.887 225.407 276.541C224.749 277.199 223.684 277.199 223.03 276.541C222.372 275.883 222.372 274.818 223.03 274.164C223.688 273.51 224.753 273.506 225.407 274.164Z" fill="#B3B2DA"/>
<path d="M229.593 282.405C230.522 282.405 231.275 281.652 231.275 280.723C231.275 279.794 230.522 279.041 229.593 279.041C228.664 279.041 227.911 279.794 227.911 280.723C227.911 281.652 228.664 282.405 229.593 282.405Z" fill="#B3B2DA"/>
<path d="M197.357 260.914C198.286 260.914 199.039 260.161 199.039 259.232C199.039 258.303 198.286 257.55 197.357 257.55C196.428 257.55 195.675 258.303 195.675 259.232C195.675 260.161 196.428 260.914 197.357 260.914Z" fill="#B3B2DA"/>
<path d="M203.916 263.419C204.574 264.077 204.574 265.142 203.916 265.796C203.259 266.449 202.193 266.454 201.54 265.796C200.882 265.138 200.882 264.073 201.54 263.419C202.198 262.761 203.263 262.761 203.916 263.419Z" fill="#B3B2DA"/>
<path d="M208.102 271.659C209.031 271.659 209.784 270.906 209.784 269.977C209.784 269.048 209.031 268.295 208.102 268.295C207.173 268.295 206.42 269.048 206.42 269.977C206.42 270.906 207.173 271.659 208.102 271.659Z" fill="#B3B2DA"/>
<path d="M214.661 274.164C215.319 274.822 215.319 275.887 214.661 276.541C214.003 277.199 212.938 277.199 212.284 276.541C211.627 275.883 211.627 274.818 212.284 274.164C212.942 273.51 214.007 273.506 214.661 274.164Z" fill="#B3B2DA"/>
<path d="M218.848 282.405C219.777 282.405 220.53 281.652 220.53 280.723C220.53 279.795 219.777 279.042 218.848 279.042C217.919 279.042 217.166 279.795 217.166 280.723C217.166 281.652 217.919 282.405 218.848 282.405Z" fill="#B3B2DA"/>
<path d="M197.357 271.661C198.286 271.661 199.039 270.908 199.039 269.979C199.039 269.05 198.286 268.297 197.357 268.297C196.428 268.297 195.675 269.05 195.675 269.979C195.675 270.908 196.428 271.661 197.357 271.661Z" fill="#B3B2DA"/>
<path d="M203.916 274.164C204.574 274.822 204.574 275.887 203.916 276.541C203.258 277.199 202.193 277.199 201.539 276.541C200.881 275.883 200.881 274.818 201.539 274.164C202.197 273.506 203.262 273.506 203.916 274.164Z" fill="#B3B2DA"/>
<path d="M208.102 282.405C209.031 282.405 209.784 281.652 209.784 280.723C209.784 279.794 209.031 279.041 208.102 279.041C207.173 279.041 206.42 279.794 206.42 280.723C206.42 281.652 207.173 282.405 208.102 282.405Z" fill="#B3B2DA"/>
<path d="M197.357 282.405C198.286 282.405 199.039 281.652 199.039 280.723C199.039 279.794 198.286 279.041 197.357 279.041C196.428 279.041 195.675 279.794 195.675 280.723C195.675 281.652 196.428 282.405 197.357 282.405Z" fill="#B3B2DA"/>
</g>
<mask id="mask1_1332_3507" style="mask-type:luminance" maskUnits="userSpaceOnUse" x="118" y="208" width="63" height="74">
<path d="M140.526 214.425C140.526 214.425 132.104 217.67 127.491 222.057C122.872 226.445 123.28 228.592 123.28 228.592C123.28 228.592 122.395 232.412 121.281 234.48C120.167 236.549 118.337 237.663 118.736 238.938C119.134 240.213 123.115 259.553 123.909 264.253C124.707 268.949 124.579 272.083 124.579 272.083L136.406 276.113L137.088 281.031H180.444C180.444 281.031 169.69 271.898 167.745 269.751C165.8 267.604 164.961 267.51 164.961 265.178C164.961 262.847 165.989 262.11 165.146 260.001C164.303 257.891 163.296 256.403 163.941 254.441C164.587 252.48 165.163 252.295 163.941 250.518C162.72 248.746 162.066 246.784 162.625 245.662C163.185 244.543 164.867 244.432 164.213 241.919C163.559 239.407 162.921 237.82 163.941 237.445C164.961 237.071 166.347 236.828 167.231 236.919C168.115 237.009 168.526 237.092 168.526 237.092L167.745 219.783L153.443 208.162L151.798 209.416C151.798 209.416 151.049 222.695 151.424 227.082C151.798 231.47 152.867 236.606 154.713 239.312C156.56 242.018 157.773 242.82 157.773 242.82C157.773 242.82 153.759 242.392 150.49 242.298C147.221 242.203 144.696 242.758 142.973 240.332C141.25 237.91 140.127 236.413 139.474 234.081C138.82 231.746 139.194 227.921 139.379 224.373C139.564 220.824 140.53 214.417 140.53 214.417L140.526 214.425Z" fill="white"/>
</mask>
<g mask="url(#mask1_1332_3507)">
<path d="M182.426 209.692C183.084 210.35 183.084 211.415 182.426 212.069C181.768 212.727 180.703 212.727 180.049 212.069C179.395 211.411 179.391 210.346 180.049 209.692C180.707 209.039 181.772 209.034 182.426 209.692Z" fill="#B3B2DA"/>
<path d="M170.492 212.563C171.421 212.563 172.174 211.81 172.174 210.881C172.174 209.952 171.421 209.199 170.492 209.199C169.563 209.199 168.81 209.952 168.81 210.881C168.81 211.81 169.563 212.563 170.492 212.563Z" fill="#B3B2DA"/>
<path d="M177.055 215.063C177.713 215.721 177.713 216.786 177.055 217.44C176.397 218.098 175.332 218.098 174.679 217.44C174.021 216.782 174.021 215.717 174.679 215.063C175.336 214.409 176.402 214.405 177.055 215.063Z" fill="#B3B2DA"/>
<path d="M182.426 220.438C183.084 221.096 183.084 222.161 182.426 222.815C181.768 223.473 180.703 223.473 180.049 222.815C179.395 222.157 179.391 221.092 180.049 220.438C180.707 219.785 181.772 219.781 182.426 220.438Z" fill="#B3B2DA"/>
<path d="M159.747 212.563C160.676 212.563 161.429 211.81 161.429 210.881C161.429 209.952 160.676 209.199 159.747 209.199C158.818 209.199 158.065 209.952 158.065 210.881C158.065 211.81 158.818 212.563 159.747 212.563Z" fill="#B3B2DA"/>
<path d="M166.31 215.063C166.968 215.721 166.968 216.786 166.31 217.44C165.652 218.098 164.587 218.098 163.933 217.44C163.275 216.782 163.275 215.717 163.933 215.063C164.591 214.409 165.656 214.405 166.31 215.063Z" fill="#B3B2DA"/>
<path d="M170.492 223.308C171.421 223.308 172.174 222.555 172.174 221.626C172.174 220.697 171.421 219.944 170.492 219.944C169.563 219.944 168.81 220.697 168.81 221.626C168.81 222.555 169.563 223.308 170.492 223.308Z" fill="#B3B2DA"/>
<path d="M175.867 228.678C176.796 228.678 177.549 227.925 177.549 226.996C177.549 226.067 176.796 225.314 175.867 225.314C174.938 225.314 174.185 226.067 174.185 226.996C174.185 227.925 174.938 228.678 175.867 228.678Z" fill="#B3B2DA"/>
<path d="M182.426 231.183C183.084 231.841 183.084 232.906 182.426 233.56C181.768 234.218 180.703 234.218 180.049 233.56C179.395 232.902 179.391 231.837 180.049 231.183C180.707 230.529 181.772 230.525 182.426 231.183Z" fill="#B3B2DA"/>
<path d="M149.001 212.563C149.93 212.563 150.683 211.81 150.683 210.881C150.683 209.952 149.93 209.199 149.001 209.199C148.073 209.199 147.32 209.952 147.32 210.881C147.32 211.81 148.073 212.563 149.001 212.563Z" fill="#B3B2DA"/>
<path d="M155.565 215.063C156.223 215.721 156.223 216.786 155.565 217.44C154.907 218.098 153.842 218.098 153.188 217.44C152.53 216.782 152.53 215.717 153.188 215.063C153.846 214.409 154.911 214.405 155.565 215.063Z" fill="#B3B2DA"/>
<path d="M159.747 223.308C160.676 223.308 161.429 222.555 161.429 221.626C161.429 220.697 160.676 219.944 159.747 219.944C158.818 219.944 158.065 220.697 158.065 221.626C158.065 222.555 158.818 223.308 159.747 223.308Z" fill="#B3B2DA"/>
<path d="M165.122 228.679C166.05 228.679 166.803 227.926 166.803 226.997C166.803 226.068 166.05 225.315 165.122 225.315C164.193 225.315 163.44 226.068 163.44 226.997C163.44 227.926 164.193 228.679 165.122 228.679Z" fill="#B3B2DA"/>
<path d="M170.492 234.053C171.421 234.053 172.174 233.3 172.174 232.371C172.174 231.442 171.421 230.689 170.492 230.689C169.563 230.689 168.81 231.442 168.81 232.371C168.81 233.3 169.563 234.053 170.492 234.053Z" fill="#B3B2DA"/>
<path d="M177.055 236.554C177.713 237.211 177.713 238.277 177.055 238.93C176.397 239.584 175.332 239.588 174.678 238.93C174.024 238.272 174.02 237.207 174.678 236.554C175.336 235.896 176.401 235.896 177.055 236.554Z" fill="#B3B2DA"/>
<path d="M182.426 241.928C183.084 242.586 183.084 243.651 182.426 244.305C181.768 244.963 180.703 244.963 180.049 244.305C179.395 243.647 179.391 242.582 180.049 241.928C180.707 241.274 181.772 241.27 182.426 241.928Z" fill="#B3B2DA"/>
<path d="M138.256 212.563C139.185 212.563 139.938 211.81 139.938 210.881C139.938 209.952 139.185 209.199 138.256 209.199C137.327 209.199 136.574 209.952 136.574 210.881C136.574 211.81 137.327 212.563 138.256 212.563Z" fill="#B3B2DA"/>
<path d="M144.819 215.063C145.477 215.721 145.477 216.786 144.819 217.44C144.162 218.098 143.096 218.098 142.443 217.44C141.789 216.782 141.785 215.717 142.443 215.063C143.101 214.405 144.166 214.405 144.819 215.063Z" fill="#B3B2DA"/>
<path d="M149.001 223.309C149.93 223.309 150.683 222.556 150.683 221.627C150.683 220.698 149.93 219.945 149.001 219.945C148.073 219.945 147.32 220.698 147.32 221.627C147.32 222.556 148.073 223.309 149.001 223.309Z" fill="#B3B2DA"/>
<path d="M154.376 228.679C155.305 228.679 156.058 227.926 156.058 226.997C156.058 226.068 155.305 225.315 154.376 225.315C153.448 225.315 152.695 226.068 152.695 226.997C152.695 227.926 153.448 228.679 154.376 228.679Z" fill="#B3B2DA"/>
<path d="M159.747 234.054C160.676 234.054 161.429 233.301 161.429 232.372C161.429 231.443 160.676 230.69 159.747 230.69C158.818 230.69 158.065 231.443 158.065 232.372C158.065 233.301 158.818 234.054 159.747 234.054Z" fill="#B3B2DA"/>
<path d="M166.31 236.554C166.968 237.212 166.968 238.277 166.31 238.931C165.652 239.585 164.587 239.589 163.933 238.931C163.279 238.273 163.275 237.208 163.933 236.554C164.591 235.896 165.656 235.896 166.31 236.554Z" fill="#B3B2DA"/>
<path d="M170.492 244.799C171.421 244.799 172.174 244.046 172.174 243.117C172.174 242.188 171.421 241.435 170.492 241.435C169.563 241.435 168.81 242.188 168.81 243.117C168.81 244.046 169.563 244.799 170.492 244.799Z" fill="#B3B2DA"/>
<path d="M175.867 250.169C176.796 250.169 177.549 249.416 177.549 248.488C177.549 247.559 176.796 246.806 175.867 246.806C174.938 246.806 174.185 247.559 174.185 248.488C174.185 249.416 174.938 250.169 175.867 250.169Z" fill="#B3B2DA"/>
<path d="M182.426 252.674C183.084 253.332 183.084 254.397 182.426 255.05C181.768 255.708 180.703 255.708 180.049 255.05C179.395 254.392 179.391 253.327 180.049 252.674C180.707 252.02 181.772 252.016 182.426 252.674Z" fill="#B3B2DA"/>
<path d="M128.699 209.693C129.357 210.351 129.357 211.416 128.699 212.07C128.041 212.723 126.976 212.727 126.322 212.07C125.664 211.412 125.664 210.347 126.322 209.693C126.98 209.035 128.045 209.035 128.699 209.693Z" fill="#B3B2DA"/>
<path d="M134.074 215.064C134.732 215.722 134.732 216.787 134.074 217.441C133.416 218.099 132.351 218.099 131.697 217.441C131.039 216.783 131.039 215.718 131.697 215.064C132.355 214.406 133.42 214.406 134.074 215.064Z" fill="#B3B2DA"/>
<path d="M138.256 223.308C139.185 223.308 139.938 222.555 139.938 221.626C139.938 220.697 139.185 219.944 138.256 219.944C137.327 219.944 136.574 220.697 136.574 221.626C136.574 222.555 137.327 223.308 138.256 223.308Z" fill="#B3B2DA"/>
<path d="M144.82 225.807C145.478 226.465 145.478 227.53 144.82 228.184C144.162 228.838 143.097 228.842 142.443 228.184C141.785 227.526 141.785 226.461 142.443 225.807C143.101 225.149 144.166 225.149 144.82 225.807Z" fill="#B3B2DA"/>
<path d="M149.001 234.053C149.93 234.053 150.683 233.3 150.683 232.371C150.683 231.442 149.93 230.689 149.001 230.689C148.073 230.689 147.32 231.442 147.32 232.371C147.32 233.3 148.073 234.053 149.001 234.053Z" fill="#B3B2DA"/>
<path d="M155.565 236.554C156.223 237.212 156.223 238.277 155.565 238.931C154.907 239.585 153.842 239.589 153.188 238.931C152.534 238.273 152.53 237.208 153.188 236.554C153.846 235.896 154.911 235.896 155.565 236.554Z" fill="#B3B2DA"/>
<path d="M159.747 244.8C160.676 244.8 161.429 244.047 161.429 243.118C161.429 242.189 160.676 241.436 159.747 241.436C158.818 241.436 158.065 242.189 158.065 243.118C158.065 244.047 158.818 244.8 159.747 244.8Z" fill="#B3B2DA"/>
<path d="M165.121 250.17C166.05 250.17 166.803 249.417 166.803 248.488C166.803 247.559 166.05 246.806 165.121 246.806C164.192 246.806 163.439 247.559 163.439 248.488C163.439 249.417 164.192 250.17 165.121 250.17Z" fill="#B3B2DA"/>
<path d="M170.492 255.544C171.421 255.544 172.174 254.791 172.174 253.862C172.174 252.933 171.421 252.18 170.492 252.18C169.563 252.18 168.81 252.933 168.81 253.862C168.81 254.791 169.563 255.544 170.492 255.544Z" fill="#B3B2DA"/>
<path d="M175.867 260.914C176.796 260.914 177.549 260.161 177.549 259.232C177.549 258.304 176.796 257.551 175.867 257.551C174.938 257.551 174.185 258.304 174.185 259.232C174.185 260.161 174.938 260.914 175.867 260.914Z" fill="#B3B2DA"/>
<path d="M182.426 263.419C183.084 264.077 183.084 265.142 182.426 265.796C181.768 266.454 180.703 266.454 180.049 265.796C179.395 265.138 179.391 264.073 180.049 263.419C180.707 262.766 181.772 262.761 182.426 263.419Z" fill="#B3B2DA"/>
<path d="M123.329 215.063C123.987 215.721 123.987 216.786 123.329 217.44C122.671 218.098 121.606 218.098 120.952 217.44C120.294 216.782 120.294 215.717 120.952 215.063C121.61 214.405 122.675 214.405 123.329 215.063Z" fill="#B3B2DA"/>
<path d="M128.7 220.438C129.358 221.096 129.358 222.161 128.7 222.815C128.042 223.469 126.977 223.473 126.323 222.815C125.665 222.157 125.665 221.092 126.323 220.438C126.981 219.78 128.046 219.78 128.7 220.438Z" fill="#B3B2DA"/>
<path d="M134.074 225.808C134.732 226.466 134.732 227.531 134.074 228.185C133.416 228.839 132.351 228.843 131.697 228.185C131.039 227.527 131.039 226.462 131.697 225.808C132.355 225.15 133.42 225.15 134.074 225.808Z" fill="#B3B2DA"/>
<path d="M138.256 234.053C139.185 234.053 139.938 233.3 139.938 232.371C139.938 231.442 139.185 230.689 138.256 230.689C137.327 230.689 136.574 231.442 136.574 232.371C136.574 233.3 137.327 234.053 138.256 234.053Z" fill="#B3B2DA"/>
<path d="M144.819 236.554C145.477 237.211 145.477 238.277 144.819 238.93C144.161 239.584 143.096 239.588 142.442 238.93C141.784 238.272 141.784 237.207 142.442 236.554C143.1 235.896 144.165 235.896 144.819 236.554Z" fill="#B3B2DA"/>
<path d="M149.001 244.798C149.93 244.798 150.683 244.045 150.683 243.116C150.683 242.188 149.93 241.435 149.001 241.435C148.073 241.435 147.32 242.188 147.32 243.116C147.32 244.045 148.073 244.798 149.001 244.798Z" fill="#B3B2DA"/>
<path d="M154.376 250.17C155.305 250.17 156.058 249.417 156.058 248.488C156.058 247.559 155.305 246.806 154.376 246.806C153.447 246.806 152.694 247.559 152.694 248.488C152.694 249.417 153.447 250.17 154.376 250.17Z" fill="#B3B2DA"/>
<path d="M159.747 255.545C160.675 255.545 161.428 254.792 161.428 253.863C161.428 252.934 160.675 252.181 159.747 252.181C158.818 252.181 158.065 252.934 158.065 253.863C158.065 254.792 158.818 255.545 159.747 255.545Z" fill="#B3B2DA"/>
<path d="M165.121 260.915C166.05 260.915 166.803 260.162 166.803 259.233C166.803 258.305 166.05 257.552 165.121 257.552C164.192 257.552 163.439 258.305 163.439 259.233C163.439 260.162 164.192 260.915 165.121 260.915Z" fill="#B3B2DA"/>
<path d="M170.492 266.289C171.421 266.289 172.174 265.536 172.174 264.607C172.174 263.679 171.421 262.926 170.492 262.926C169.563 262.926 168.81 263.679 168.81 264.607C168.81 265.536 169.563 266.289 170.492 266.289Z" fill="#B3B2DA"/>
<path d="M175.867 271.659C176.796 271.659 177.549 270.906 177.549 269.977C177.549 269.048 176.796 268.295 175.867 268.295C174.938 268.295 174.185 269.048 174.185 269.977C174.185 270.906 174.938 271.659 175.867 271.659Z" fill="#B3B2DA"/>
<path d="M182.425 274.165C183.083 274.822 183.083 275.888 182.425 276.541C181.768 277.199 180.702 277.199 180.049 276.541C179.391 275.883 179.391 274.818 180.049 274.165C180.707 273.511 181.772 273.507 182.425 274.165Z" fill="#B3B2DA"/>
<path d="M123.329 225.808C123.987 226.466 123.987 227.531 123.329 228.185C122.671 228.843 121.606 228.843 120.952 228.185C120.294 227.527 120.294 226.462 120.952 225.808C121.61 225.15 122.675 225.15 123.329 225.808Z" fill="#B3B2DA"/>
<path d="M128.699 231.183C129.357 231.841 129.357 232.906 128.699 233.56C128.041 234.214 126.976 234.218 126.322 233.56C125.664 232.902 125.664 231.837 126.322 231.183C126.98 230.525 128.045 230.525 128.699 231.183Z" fill="#B3B2DA"/>
<path d="M134.074 236.553C134.732 237.211 134.732 238.276 134.074 238.93C133.416 239.584 132.351 239.588 131.697 238.93C131.039 238.272 131.039 237.207 131.697 236.553C132.355 235.895 133.42 235.895 134.074 236.553Z" fill="#B3B2DA"/>
<path d="M138.256 244.799C139.185 244.799 139.938 244.046 139.938 243.117C139.938 242.188 139.185 241.435 138.256 241.435C137.327 241.435 136.574 242.188 136.574 243.117C136.574 244.046 137.327 244.799 138.256 244.799Z" fill="#B3B2DA"/>
<path d="M144.819 247.298C145.477 247.956 145.477 249.021 144.819 249.675C144.161 250.329 143.096 250.333 142.442 249.675C141.784 249.017 141.784 247.952 142.442 247.298C143.1 246.64 144.165 246.64 144.819 247.298Z" fill="#B3B2DA"/>
<path d="M149.001 255.544C149.93 255.544 150.683 254.791 150.683 253.862C150.683 252.933 149.93 252.18 149.001 252.18C148.073 252.18 147.32 252.933 147.32 253.862C147.32 254.791 148.073 255.544 149.001 255.544Z" fill="#B3B2DA"/>
<path d="M154.376 260.915C155.305 260.915 156.058 260.162 156.058 259.233C156.058 258.305 155.305 257.552 154.376 257.552C153.447 257.552 152.694 258.305 152.694 259.233C152.694 260.162 153.447 260.915 154.376 260.915Z" fill="#B3B2DA"/>
<path d="M159.747 266.289C160.676 266.289 161.429 265.536 161.429 264.607C161.429 263.679 160.676 262.926 159.747 262.926C158.818 262.926 158.065 263.679 158.065 264.607C158.065 265.536 158.818 266.289 159.747 266.289Z" fill="#B3B2DA"/>
<path d="M165.122 271.66C166.051 271.66 166.804 270.907 166.804 269.978C166.804 269.049 166.051 268.296 165.122 268.296C164.193 268.296 163.44 269.049 163.44 269.978C163.44 270.907 164.193 271.66 165.122 271.66Z" fill="#B3B2DA"/>
<path d="M171.68 274.164C172.338 274.822 172.338 275.887 171.68 276.541C171.022 277.199 169.957 277.199 169.304 276.541C168.646 275.883 168.646 274.818 169.304 274.164C169.961 273.51 171.027 273.506 171.68 274.164Z" fill="#B3B2DA"/>
<path d="M175.867 282.404C176.796 282.404 177.549 281.651 177.549 280.722C177.549 279.793 176.796 279.04 175.867 279.04C174.938 279.04 174.185 279.793 174.185 280.722C174.185 281.651 174.938 282.404 175.867 282.404Z" fill="#B3B2DA"/>
<path d="M123.329 236.554C123.987 237.212 123.987 238.277 123.329 238.931C122.671 239.589 121.606 239.589 120.952 238.931C120.294 238.273 120.294 237.208 120.952 236.554C121.61 235.896 122.675 235.896 123.329 236.554Z" fill="#B3B2DA"/>
<path d="M128.7 241.93C129.358 242.587 129.358 243.653 128.7 244.306C128.042 244.96 126.977 244.964 126.323 244.306C125.665 243.648 125.665 242.583 126.323 241.93C126.981 241.272 128.046 241.272 128.7 241.93Z" fill="#B3B2DA"/>
<path d="M134.074 247.299C134.732 247.957 134.732 249.022 134.074 249.676C133.416 250.33 132.351 250.334 131.697 249.676C131.039 249.018 131.039 247.953 131.697 247.299C132.355 246.641 133.42 246.641 134.074 247.299Z" fill="#B3B2DA"/>
<path d="M138.256 255.544C139.185 255.544 139.938 254.791 139.938 253.862C139.938 252.933 139.185 252.18 138.256 252.18C137.327 252.18 136.574 252.933 136.574 253.862C136.574 254.791 137.327 255.544 138.256 255.544Z" fill="#B3B2DA"/>
<path d="M144.819 258.044C145.477 258.702 145.477 259.767 144.819 260.421C144.161 261.075 143.096 261.079 142.442 260.421C141.784 259.763 141.784 258.698 142.442 258.044C143.1 257.386 144.165 257.386 144.819 258.044Z" fill="#B3B2DA"/>
<path d="M149.002 266.29C149.931 266.29 150.684 265.537 150.684 264.608C150.684 263.679 149.931 262.926 149.002 262.926C148.073 262.926 147.32 263.679 147.32 264.608C147.32 265.537 148.073 266.29 149.002 266.29Z" fill="#B3B2DA"/>
<path d="M154.376 271.66C155.305 271.66 156.058 270.907 156.058 269.978C156.058 269.049 155.305 268.296 154.376 268.296C153.448 268.296 152.695 269.049 152.695 269.978C152.695 270.907 153.448 271.66 154.376 271.66Z" fill="#B3B2DA"/>
<path d="M160.935 274.165C161.593 274.822 161.593 275.888 160.935 276.541C160.277 277.199 159.212 277.199 158.558 276.541C157.9 275.883 157.9 274.818 158.558 274.165C159.216 273.511 160.281 273.507 160.935 274.165Z" fill="#B3B2DA"/>
<path d="M165.121 282.406C166.05 282.406 166.803 281.653 166.803 280.724C166.803 279.795 166.05 279.042 165.121 279.042C164.192 279.042 163.439 279.795 163.439 280.724C163.439 281.653 164.192 282.406 165.121 282.406Z" fill="#B3B2DA"/>
<path d="M123.329 247.3C123.987 247.958 123.987 249.023 123.329 249.677C122.671 250.335 121.606 250.335 120.952 249.677C120.294 249.019 120.294 247.954 120.952 247.3C121.61 246.642 122.675 246.642 123.329 247.3Z" fill="#B3B2DA"/>
<path d="M128.699 252.674C129.357 253.332 129.357 254.397 128.699 255.051C128.041 255.705 126.976 255.709 126.323 255.051C125.665 254.393 125.665 253.328 126.323 252.674C126.981 252.016 128.046 252.016 128.699 252.674Z" fill="#B3B2DA"/>
<path d="M134.074 258.044C134.732 258.702 134.732 259.768 134.074 260.421C133.416 261.075 132.351 261.079 131.697 260.421C131.039 259.763 131.039 258.698 131.697 258.044C132.355 257.387 133.42 257.387 134.074 258.044Z" fill="#B3B2DA"/>
<path d="M138.256 266.289C139.185 266.289 139.938 265.536 139.938 264.607C139.938 263.679 139.185 262.926 138.256 262.926C137.327 262.926 136.574 263.679 136.574 264.607C136.574 265.536 137.327 266.289 138.256 266.289Z" fill="#B3B2DA"/>
<path d="M144.819 268.789C145.477 269.447 145.477 270.512 144.819 271.166C144.161 271.819 143.096 271.823 142.442 271.166C141.784 270.508 141.784 269.442 142.442 268.789C143.1 268.131 144.165 268.131 144.819 268.789Z" fill="#B3B2DA"/>
<path d="M150.19 274.165C150.848 274.822 150.848 275.888 150.19 276.541C149.532 277.199 148.467 277.199 147.813 276.541C147.155 275.883 147.155 274.818 147.813 274.165C148.471 273.511 149.536 273.507 150.19 274.165Z" fill="#B3B2DA"/>
<path d="M154.376 282.406C155.305 282.406 156.058 281.653 156.058 280.724C156.058 279.795 155.305 279.042 154.376 279.042C153.447 279.042 152.694 279.795 152.694 280.724C152.694 281.653 153.447 282.406 154.376 282.406Z" fill="#B3B2DA"/>
<path d="M123.329 258.045C123.987 258.703 123.987 259.768 123.329 260.422C122.671 261.08 121.606 261.08 120.952 260.422C120.294 259.764 120.294 258.699 120.952 258.045C121.61 257.387 122.675 257.387 123.329 258.045Z" fill="#B3B2DA"/>
<path d="M128.7 263.418C129.358 264.076 129.358 265.141 128.7 265.795C128.042 266.449 126.977 266.453 126.323 265.795C125.665 265.137 125.665 264.072 126.323 263.418C126.981 262.76 128.046 262.76 128.7 263.418Z" fill="#B3B2DA"/>
<path d="M134.074 268.789C134.732 269.447 134.732 270.512 134.074 271.166C133.416 271.82 132.351 271.824 131.698 271.166C131.04 270.508 131.04 269.443 131.698 268.789C132.356 268.131 133.421 268.131 134.074 268.789Z" fill="#B3B2DA"/>
<path d="M139.445 274.164C140.103 274.822 140.103 275.887 139.445 276.541C138.787 277.199 137.722 277.199 137.068 276.541C136.41 275.883 136.41 274.818 137.068 274.164C137.726 273.506 138.791 273.506 139.445 274.164Z" fill="#B3B2DA"/>
<path d="M144.819 279.534C145.477 280.192 145.477 281.258 144.819 281.911C144.161 282.565 143.096 282.569 142.442 281.911C141.784 281.253 141.784 280.188 142.442 279.534C143.1 278.877 144.165 278.877 144.819 279.534Z" fill="#B3B2DA"/>
<path d="M123.329 268.79C123.987 269.448 123.987 270.513 123.329 271.166C122.671 271.824 121.606 271.824 120.952 271.166C120.294 270.509 120.294 269.443 120.952 268.79C121.61 268.132 122.675 268.132 123.329 268.79Z" fill="#B3B2DA"/>
<path d="M128.7 274.165C129.358 274.823 129.358 275.888 128.7 276.541C128.042 277.199 126.977 277.199 126.323 276.541C125.665 275.884 125.665 274.818 126.323 274.165C126.981 273.507 128.046 273.507 128.7 274.165Z" fill="#B3B2DA"/>
<path d="M134.074 279.534C134.732 280.192 134.732 281.258 134.074 281.911C133.416 282.565 132.351 282.569 131.698 281.911C131.04 281.253 131.04 280.188 131.698 279.534C132.356 278.877 133.421 278.877 134.074 279.534Z" fill="#B3B2DA"/>
<path d="M123.329 279.536C123.987 280.194 123.987 281.259 123.329 281.913C122.671 282.571 121.606 282.571 120.952 281.913C120.294 281.255 120.294 280.19 120.952 279.536C121.61 278.878 122.675 278.878 123.329 279.536Z" fill="#B3B2DA"/>
</g>
<path d="M168.954 237.705C169.723 238.059 170.418 238.174 171.187 238.524C176.15 239.856 181.019 241.571 185.851 243.376C188.343 244.305 188.923 244.379 191.3 245.609C191.563 245.745 193.528 246.431 193.788 246.559C193.792 246.468 193.816 243.939 193.816 243.898C193.816 234.551 193.997 225.204 194.178 215.857C194.199 214.738 194.219 213.608 193.968 212.518C193.565 210.787 191.847 208.496 189.856 208.574C189.544 208.587 170.693 209.335 170.693 209.335L168.209 213.447L168.543 235.135C168.209 237.668 168.913 237.685 168.954 237.701V237.705Z" fill="#F7DFDB"/>
<path d="M152.32 211.749C152.394 210.816 152.209 209.237 152.669 208.414C153.151 207.555 154.643 206.905 155.458 206.428C159.29 203.282 163.637 198.825 163.937 193.668C163.542 192.796 162.897 192.089 162.189 191.418C161.572 190.995 160.968 190.551 160.413 190.049C158.542 188.355 156.806 186.356 155.367 184.284C153.34 181.364 150.613 177.12 150.219 173.378C150.075 173.218 149.935 173.066 149.791 172.922C149.659 172.905 149.528 172.893 149.396 172.872C147.92 172.667 146.497 172.161 145.021 171.996C142.163 175.163 144.7 186.406 144.132 191.065C144.379 203.352 140.214 215.01 138.519 227.018C137.833 233.626 141.052 242.106 148.491 242.723C150.663 242.904 152.842 242.813 155.018 242.727C156.317 242.673 157.765 241.472 156.864 240.058C156.675 239.762 156.366 239.577 156.079 239.379C153.702 237.743 152.702 234.802 152.024 232.117C151.025 228.174 151.337 223.963 151.67 219.879C151.888 217.169 152.106 214.459 152.328 211.753L152.32 211.749Z" fill="#515151"/>
<path d="M209.431 205.33C212.363 207.563 215.965 209.381 219.53 210.664C218.897 198.101 218.136 185.546 217.231 173.004C216.409 173.506 215.57 173.905 214.937 174.591C212.877 181.965 209.315 190.074 201.621 192.776C201.572 192.911 201.523 193.047 201.473 193.187C202.839 197.998 205.368 202.197 209.431 205.334V205.33Z" fill="#515151"/>
<path d="M216.841 122.72C207.934 102.636 182.944 95.5913 163.139 102.858C143.845 112.081 137.257 134.213 139.913 153.726L146.485 154.812C153.529 140.493 175.18 118.739 192.237 115.445C200.174 115.98 203.468 125.463 208.316 130.652C213.905 137.606 216.779 145.983 220.093 154.125C222.117 143.651 221.471 132.441 216.841 122.72Z" fill="#515151"/>
<path d="M90.0731 162.061C90.3527 161.44 90.8339 160.996 91.5823 161.153C92.3348 161.309 92.5651 161.917 92.5651 162.588C92.5651 164.192 92.1004 165.713 91.5412 167.206C91.4507 167.444 91.2204 167.638 91.1053 167.777C90.5255 168.152 90.0032 168.226 89.4768 167.942C88.8353 167.596 88.6215 166.996 88.7284 166.334C88.971 164.854 89.4522 163.435 90.069 162.061H90.0731Z" fill="#B3B2DA"/>
<path d="M65.7327 175.081C67.3776 175.159 68.9485 175.652 70.4371 176.327C71.165 176.656 71.5186 177.318 71.2267 178.128C70.9142 178.991 70.1945 179.288 69.3515 179.086C68.0274 178.769 66.7238 178.37 65.5313 177.7C65.1858 177.507 64.8856 177.227 64.7129 177.096C64.0591 176.014 64.5978 175.027 65.7286 175.081H65.7327Z" fill="#B3B2DA"/>
<path d="M80.216 161.621C80.837 161.453 81.3058 161.769 81.5772 162.267C82.3215 163.653 82.9301 165.104 83.1768 166.667C83.3002 167.448 82.9465 168.114 82.12 168.345C81.2893 168.579 80.7383 168.143 80.2983 167.358C79.8912 166.001 79.4059 164.549 79.3771 163.003C79.3648 162.386 79.517 161.81 80.2201 161.621H80.216Z" fill="#B3B2DA"/>
<path d="M71.1362 166.54C71.86 165.948 72.5468 166.425 73.0731 166.91C73.9655 167.728 74.8126 168.596 75.6063 169.505C76.256 170.245 76.5274 171.15 75.6063 171.877C74.7057 172.593 73.8709 172.149 73.2417 171.396C72.4933 170.504 71.8148 169.554 71.2514 168.818C70.7662 167.917 70.3549 167.173 71.1362 166.536V166.54Z" fill="#B3B2DA"/>
<path d="M174.374 213.821C173.4 213.821 172.606 214.61 172.606 215.589C172.606 216.568 173.396 217.357 174.374 217.357C175.353 217.357 176.142 216.568 176.142 215.589C176.142 214.61 175.353 213.821 174.374 213.821Z" fill="#343434"/>
<path d="M139.046 213.463L138.91 213.487C138.811 213.504 138.717 213.52 138.626 213.553C138.318 213.66 138.014 213.775 137.713 213.903C132.853 215.992 128.786 218.911 125.521 222.633C126.047 219.837 127.042 217.131 128.189 214.191C128.243 214.055 128.305 213.915 128.383 213.742L128.399 213.701C128.782 212.858 129.304 211.707 128.292 210.868C126.849 209.671 125.837 208.508 125.607 206.71C125.541 206.213 125.13 205.806 124.743 205.423C124.69 205.37 124.632 205.316 124.583 205.263C124.369 205.045 124.16 204.819 123.921 204.572C123.214 203.828 122.486 203.055 121.655 202.426C118.707 200.18 115.076 197.98 110.523 198.708C110.515 198.708 110.314 198.745 110.227 198.757C107.982 199.173 106.452 200.587 104.828 202.084L104.306 202.565L104.182 202.331C103.964 201.928 103.788 201.595 103.615 201.262C101.18 196.512 98.9269 192.26 95.9784 188.255C94.4281 186.153 92.7544 184.632 90.8545 183.6C90.0157 183.143 89.1768 182.962 88.4366 183.082C87.0877 183.304 86.1748 184.422 85.9281 186.158C85.9075 186.31 85.9034 186.478 85.9034 186.606C85.8952 187.079 85.8788 187.288 85.5868 187.371C84.1269 187.778 83.1976 188.53 82.737 189.678C82.3834 190.558 82.3135 191.631 82.5108 193.161C82.8151 195.513 82.3628 196.179 81.6925 196.862C80.6891 197.886 80.7097 199.44 80.866 200.826L80.9194 201.328C81.051 202.545 81.1867 203.807 81.491 205.02C82.9961 211.004 84.8672 216.979 86.6848 222.769L86.7053 222.83C87.0507 223.937 87.4003 225.043 87.7457 226.149C90.0732 233.621 94.0415 238.687 99.885 241.627C100.272 241.825 100.444 242.15 100.502 242.795C100.51 242.878 100.559 243.309 100.617 243.778V243.807C100.572 244.107 100.539 244.411 100.506 244.712L100.481 244.938C99.6712 252.661 99.5684 260.531 99.4656 268.147C99.4203 271.651 99.371 275.278 99.2517 278.839C99.223 279.756 99.2394 280.702 99.8151 281.294C100.148 281.635 100.625 281.808 101.234 281.808H101.324C103.22 281.759 103.241 280.048 103.257 278.921C103.311 274.727 103.376 270.532 103.434 266.473L103.496 262.39C103.352 258.52 103.52 254.758 103.685 251.118C103.771 249.19 103.857 247.195 103.899 245.238V245.11V245.102C103.911 244.568 103.919 244.017 103.857 243.47C103.841 243.309 103.804 243.165 103.759 243.03C103.746 242.725 103.734 242.438 103.726 242.211C103.672 240.801 103.265 239.283 100.687 237.733C97.0805 235.566 94.4116 232.461 92.7544 228.509C91.3974 225.273 90.3529 221.868 89.3371 218.57C88.5147 215.897 87.6635 213.134 86.656 210.477C85.5662 207.603 84.9535 204.634 84.3696 201.056L84.3367 200.867C84.201 200.045 84.0694 199.267 84.4683 198.597L84.5505 198.457L84.7068 198.507C84.937 198.581 85.081 198.782 85.2907 199.107C85.3401 199.185 85.3853 199.251 85.4264 199.313C86.4339 200.76 87.1741 202.146 87.684 203.544C88.4777 205.719 89.4811 207.817 90.4474 209.848L90.468 209.889C90.834 210.654 91.2 211.427 91.5536 212.192C91.9443 213.043 92.5406 214.001 93.6632 213.821C93.8154 213.796 93.9634 213.751 94.1238 213.689C95.5754 213.093 95.267 211.9 94.8187 210.687C94.7735 210.564 94.7201 210.461 94.6666 210.358C94.6337 210.296 94.6049 210.243 94.5802 210.185L94.6131 210.198C94.5227 210.062 94.3869 209.77 94.1155 209.186C93.1738 207.171 91.0848 202.705 90.5091 201.472C89.5962 199.522 88.4653 197.832 87.1494 196.45C85.8993 195.139 85.6731 193.535 85.7184 191.536C85.7307 190.903 85.8418 190.644 86.1378 190.558C86.1666 190.549 86.1954 190.541 86.2201 190.537C86.5079 190.492 86.7094 190.73 87.0261 191.158C88.1857 192.704 89.1315 194.181 89.9293 195.673C92.2568 200.045 94.5103 204.334 96.5377 208.767C96.8214 209.392 97.4136 210.687 98.6842 210.486C98.8611 210.457 99.042 210.403 99.2229 210.321C99.7246 210.103 100.058 209.778 100.214 209.355C100.481 208.635 100.165 207.825 99.9056 207.278L99.8028 207.06C97.1134 201.41 94.3294 195.566 90.2994 190.566C89.4441 189.505 89.2919 188.395 89.1233 187.116L89.0123 186.297L89.3742 186.499C90.8833 187.346 92.0348 188.423 93.2191 190.101C96.1593 194.263 98.4416 198.889 100.654 203.375L101.242 204.568C101.925 205.95 103.101 206.649 104.392 206.443C105.034 206.336 105.667 206.007 106.218 205.489L106.637 205.098C107.053 204.708 107.472 204.317 107.879 203.918C108.932 202.882 110.042 202.282 111.284 202.076C112.629 201.862 114.089 202.117 115.742 202.853C117.773 203.758 119.562 205.09 121.055 206.813C121.186 206.961 121.334 207.089 121.482 207.216C121.733 207.43 121.931 207.599 122.017 207.829L122.087 208.022L121.894 208.096C121.791 208.133 121.692 208.162 121.585 208.179C120.968 208.277 120.364 207.981 119.747 207.644C117.761 206.554 116.013 206.04 114.257 206.016C113.83 206.011 113.406 206.04 112.991 206.106C110.902 206.447 109.096 207.656 108.044 209.429C107.04 211.111 106.843 213.064 107.484 214.927C108.492 217.83 110.433 220.108 113.098 221.515C114.286 222.14 115.437 222.37 116.519 222.197C118.139 221.934 119.455 220.807 120.331 218.944L120.685 218.184C121.273 216.925 121.877 215.626 122.535 214.388C123.127 213.265 124.102 212.612 125.512 212.377L125.903 212.348L125.706 212.714C122.872 217.994 121.515 222.966 121.548 227.909C121.556 229.299 121.178 230.742 120.347 232.453C119.554 234.09 118.361 235.459 116.589 236.767C115.783 237.359 115.376 238.132 115.495 238.827C115.59 239.378 115.984 239.785 116.605 239.978C117.436 240.233 118.036 241.936 118.201 242.569L118.238 242.709L118.349 242.672C118.666 245.645 119.171 248.528 119.665 251.316C119.854 252.385 120.043 253.454 120.22 254.523C120.73 257.583 121.158 260.708 121.573 263.735C122.276 268.846 123 274.13 124.135 279.271L124.151 279.349C124.394 280.451 124.69 281.533 126.121 281.533C126.314 281.533 126.524 281.508 126.746 281.454C128.613 281.014 128.288 279.559 128.091 278.518C127.951 277.778 127.803 277.038 127.655 276.298C127.54 275.726 127.429 275.142 127.314 274.558C127.429 274.591 127.544 274.624 127.655 274.661C129.629 275.237 131.668 275.833 133.572 276.684L133.725 276.754C134.021 276.89 134.333 277.017 134.646 277.124C134.798 277.963 134.958 278.798 135.135 279.637C135.39 280.838 135.814 281.981 137.282 281.783C138.754 281.586 138.968 280.332 138.766 279.143C137.952 274.365 137.356 269.57 136.928 264.734C136.537 260.305 136.574 255.897 136.792 251.493C137.047 246.356 137.113 241.224 137.08 236.088C137.08 235.73 137.076 235.373 137.027 235.019C136.895 234.04 136.916 232.774 135.583 232.774C134.292 232.774 134.44 234.024 134.383 234.912C133.873 242.38 133.387 249.852 132.951 256.456C133.03 262.583 133.33 268.213 134.095 273.674C131.496 272.716 129.045 271.869 126.705 271.12C126.384 269.04 126.072 266.934 125.771 264.89C124.805 258.315 123.802 251.517 122.284 244.913C122.066 243.971 121.75 242.947 121.31 241.788C121.301 241.759 121.285 241.738 121.277 241.71L121.367 241.673L121.314 241.545C121.289 241.479 121.199 241.208 121.063 240.772L121.042 240.706C120.874 240.18 120.742 239.769 120.701 239.674C120.356 238.872 120.475 238.301 121.149 237.569C123.526 234.974 124.826 231.836 125.027 228.234C128.033 223.406 132.207 219.73 137.532 217.254C138.112 216.987 138.663 216.642 139.198 216.308C139.428 216.164 139.663 216.021 139.897 215.881C140.469 215.544 140.682 215.046 140.522 214.437C140.321 213.685 139.7 213.549 139.042 213.475L139.046 213.463ZM119.768 211.884C119.55 212.332 119.332 212.776 119.106 213.224C118.398 214.651 117.732 216 117.144 217.41C116.848 218.122 116.478 218.504 116.009 218.583C115.655 218.64 115.224 218.525 114.726 218.245C112.917 217.23 111.609 215.671 110.943 213.734C110.651 212.883 110.733 212.007 111.177 211.263C111.667 210.444 112.534 209.877 113.558 209.708H113.575C113.727 209.684 113.879 209.667 114.035 209.659C115.585 209.593 116.869 210.239 118.234 210.917C118.67 211.135 119.163 211.382 119.665 211.6L119.862 211.686L119.768 211.88V211.884Z" fill="#343434"/>
<path d="M258.469 266.182C257.433 264.027 256.392 261.868 255.344 259.717C252.876 254.655 251.573 249.145 250.314 243.815C249.953 242.286 249.578 240.702 249.184 239.152C247.547 232.758 244.969 227.404 241.514 223.238C237.69 218.628 232.151 214.915 224.58 211.888C224.338 211.793 224.099 211.699 223.852 211.608C223.478 211.469 223.046 211.325 222.615 211.325C222.454 211.325 222.302 211.345 222.158 211.386C221.809 211.485 221.541 211.719 221.397 212.048C221.249 212.394 221.266 212.789 221.447 213.134C221.747 213.71 222.405 213.998 222.985 214.253C223.129 214.314 223.268 214.376 223.4 214.442C224.309 214.886 225.213 215.338 226.118 215.791L227.339 216.399C228.947 217.197 230.605 218.024 232.192 218.912C233.981 219.915 235.79 221.046 236.913 222.543C242.333 228.81 245.31 234.583 246.272 240.707C247.748 250.103 250.8 259.166 255.34 267.646C255.706 268.324 256.257 269.356 257.239 269.356C257.482 269.356 257.741 269.295 258.013 269.171C258.49 268.958 258.786 268.674 258.921 268.308C259.148 267.683 258.851 266.98 258.473 266.19L258.469 266.182Z" fill="#343434"/>
<path d="M253.892 267.958C253.563 267.958 253.21 268.049 252.897 268.127C252.794 268.151 252.696 268.176 252.601 268.197C246.622 269.513 240.322 271.454 232.731 274.332C232.332 274.484 231.888 274.653 231.555 274.904C232.455 269.052 232.797 263.032 232.879 256.436C232.443 249.836 231.958 242.364 231.448 234.892C231.386 234.008 231.538 232.758 230.247 232.753C228.915 232.753 228.935 234.02 228.804 234.999C228.758 235.352 228.754 235.71 228.75 236.068C228.717 241.204 228.779 246.336 229.038 251.472C229.26 255.881 229.293 260.285 228.902 264.714C228.475 269.55 227.874 274.345 227.064 279.123C226.863 280.311 227.076 281.566 228.549 281.763C230.017 281.96 230.44 280.817 230.695 279.616C230.901 278.65 231.086 277.684 231.254 276.713C231.501 277.198 231.896 277.441 232.455 277.441C232.862 277.441 233.294 277.318 233.709 277.203L233.783 277.182C234.17 277.071 234.544 276.906 234.906 276.742L235.058 276.672C236.966 275.821 239.006 275.225 240.976 274.649C243.061 274.04 245.211 273.411 247.28 272.469C247.527 273.958 247.51 275.373 247.494 276.746C247.481 277.544 247.473 278.296 247.51 279.065C247.555 280.003 247.629 281.418 249.18 281.455H249.25C249.755 281.455 250.15 281.315 250.426 281.035C250.89 280.558 250.936 279.764 250.915 278.979C250.903 278.523 250.899 278.062 250.894 277.605C250.874 275.66 250.849 273.65 250.319 271.589C250.644 271.499 250.952 271.417 251.244 271.338C251.968 271.145 252.593 270.977 253.218 270.755L253.489 270.66C254.291 270.393 255.286 270.055 255.019 268.904C254.871 268.271 254.501 267.958 253.892 267.958Z" fill="#343434"/>
<path d="M219.395 209.89C219.099 209.779 218.794 209.668 218.523 209.536C210.866 205.884 205.331 201.937 203.205 194.522C202.979 193.737 202.621 193.371 202.07 193.371C201.967 193.371 201.856 193.383 201.741 193.408C200.705 193.626 200.647 194.456 200.573 195.509L200.565 195.554C200.816 197.602 201.367 199.255 202.255 200.612C204.484 204.026 207.247 206.879 210.508 209.154C210.097 209.487 209.694 209.828 209.295 210.173C208.962 210.461 208.629 210.745 208.292 211.025C207.782 211.444 207.28 211.876 206.778 212.308C205.631 213.299 204.443 214.323 203.172 215.166C201.807 216.07 200.429 216.967 199.043 217.859C199.043 217.271 199.043 216.687 199.043 216.107C199.047 212.686 198.443 208.964 193.924 207.274L193.817 207.233H171.89L171.787 207.27C168.152 208.537 166.54 211.107 166.553 215.602C166.553 216.136 166.553 216.708 166.553 217.296C162.889 214.845 159.323 212.197 156.034 209.195C155.906 209.075 155.77 208.952 155.626 208.833C158.509 206.736 161.038 204.157 163.152 201.122C164.159 199.675 164.797 197.931 165.15 195.682L165.138 195.468C165.072 194.415 165.023 193.585 163.888 193.391C163.793 193.375 163.707 193.367 163.625 193.367C162.991 193.367 162.724 193.84 162.498 194.609C161.178 199.095 158.509 202.607 154.101 205.658C153.94 206.534 153.813 207.422 153.698 208.302C153.591 208.364 153.484 208.434 153.385 208.533C153.085 208.825 152.937 209.141 152.937 209.462C152.937 210.091 153.517 210.646 153.977 211.09L154.183 211.292L154.964 212.073C157.008 214.125 159.122 216.247 161.589 217.888C163.333 219.043 164.978 220.125 166.557 221.149C166.557 225.878 166.553 231.253 166.54 235.406C163.386 235.213 161.503 237.717 162.083 241.541C162.206 242.356 162.494 243.079 161.848 243.873C159.952 246.205 160.45 248.512 162.202 250.65C162.979 251.604 163.156 252.402 162.568 253.545C161.881 254.882 161.244 256.605 162.243 257.809C164.015 259.952 164.019 262.061 163.37 264.549C162.954 266.128 163.588 267.634 164.891 268.789C165.57 269.389 166.113 270.138 166.717 270.821C170.217 274.735 172.758 276.553 177.031 279.567C177.931 280.201 180.468 282.405 181.381 281.023C182.196 279.789 181.241 279.164 180.46 278.449C180.032 278.058 179.547 277.737 179.095 277.371C175.02 274.098 171.031 270.742 167.548 266.815C166.503 265.635 166.219 264.516 166.849 263.09C168.123 263.336 168.888 264.146 169.805 264.685C170.924 265.343 172.232 266.577 173.276 265.068C174.477 263.328 172.598 262.674 171.52 261.905C169.842 260.7 167.951 259.808 166.442 258.34C165.163 257.094 164.657 255.794 165.895 253.775C168.276 255.35 170.533 256.868 172.82 258.344C173.77 258.961 174.872 259.421 175.686 258.258C176.615 256.929 175.628 256.103 174.6 255.449C172.643 254.203 170.644 253.023 168.679 251.785C167.211 250.86 165.656 250.037 164.579 248.606C163.81 247.582 163.448 246.468 164.422 245.456C165.298 244.543 166.257 245.164 167.132 245.662C170.011 247.307 172.881 248.964 175.768 250.597C176.804 251.181 178.009 251.818 178.823 250.461C179.662 249.071 178.507 248.343 177.454 247.784C174.312 246.102 171.125 244.498 168 242.787C166.532 241.986 164.279 241.258 165.529 239.037C166.581 237.174 168.222 238.823 169.431 239.346C177.948 243.03 186.966 245.423 195.367 249.412C196.276 249.844 197.394 250.152 197.982 248.964C198.052 248.824 198.097 248.697 198.13 248.573L198.18 248.594L198.315 248.323C198.365 248.228 198.418 248.133 198.476 248.047L198.533 247.969C198.603 247.874 198.71 247.734 198.801 247.599L198.834 247.549L198.846 247.496C198.854 247.471 198.871 247.414 198.908 247.307C198.945 247.188 198.978 247.068 199.002 246.953L199.043 246.785L199.064 246.312C199.064 245.259 199.06 244.165 199.06 243.047C203.279 247.525 205.24 253.586 206.618 259.549C208.349 267.058 209.007 273.925 213.222 280.546C214.452 282.483 217.746 281.064 216.508 279.127C208.534 266.634 212.022 248.45 199.121 238.84C199.097 238.823 199.076 238.815 199.052 238.799C199.043 233.321 199.035 227.404 199.039 221.725C200.956 220.495 202.872 219.245 204.784 217.962C207.691 216.013 210.159 213.475 212.548 211.02L212.605 210.963C212.696 210.872 212.795 210.77 212.893 210.659C214.275 211.452 215.735 212.155 217.269 212.76L217.565 212.879C218.227 213.147 218.975 213.451 219.621 213.451C220.336 213.451 220.813 213.085 221.118 212.295C221.319 211.777 221.344 211.362 221.196 211.029C220.937 210.449 220.151 210.157 219.391 209.877L219.395 209.89ZM170.007 236.381C170.007 229.674 169.958 220.672 169.735 213.965C169.707 213.089 170.023 212.262 170.628 211.637C171.282 210.963 172.227 210.572 173.219 210.572H173.342C176.377 210.667 179.498 210.712 182.623 210.712C185.748 210.712 188.919 210.667 192.118 210.576C192.164 210.576 192.213 210.576 192.258 210.576C193.29 210.576 194.162 210.905 194.779 211.535C195.4 212.168 195.725 213.064 195.725 214.138C195.721 219.985 195.721 225.833 195.725 231.68V237.882H195.717L195.671 242.208V243.195C195.671 243.676 195.675 243.922 195.671 244.856V245.419C195.667 245.58 195.667 245.765 195.663 245.95C195.622 245.929 195.581 245.909 195.544 245.888C187.319 241.949 178.577 239.403 170.015 236.372L170.007 236.381Z" fill="#343434"/>
<path d="M173.724 177.942C173.482 178.406 173.568 179.007 173.996 179.829C175.871 183.456 178.906 185.788 182.78 186.577L182.915 186.602L183.051 186.573C186.908 185.718 189.906 183.337 191.715 179.677C192.127 178.846 192.205 178.242 191.954 177.781C191.703 177.317 191.136 177.037 190.214 176.922C188.352 176.692 186.361 176.601 183.754 176.622C183.413 176.622 182.434 176.642 182.434 176.642C180.135 176.683 177.759 176.725 175.447 177.049C174.526 177.181 173.963 177.469 173.72 177.942H173.724ZM177.105 179.402C179.132 179.167 181.011 179.04 182.845 179.007C184.683 179.007 186.563 179.101 188.594 179.303L188.792 179.319L188.685 179.492C187.241 181.861 185.185 183.255 182.882 183.415C180.584 183.292 178.495 181.935 177.01 179.591L176.903 179.422L177.101 179.397L177.105 179.402Z" fill="#343434"/>
<path d="M182.381 163.422C182.833 162.645 182.952 161.929 182.71 161.456C182.529 161.111 182.167 160.897 181.739 160.885C181.303 160.885 181.114 161.152 180.95 161.386L180.288 162.316C180.103 162.575 179.918 162.834 179.745 163.101C179.605 163.319 179.473 163.537 179.346 163.759C179.235 163.948 179.128 164.133 178.98 164.364C178.746 164.738 178.499 165.124 178.408 165.581C178.281 166.231 178.519 166.909 179.066 167.444C179.663 168.024 180.526 168.266 181.147 168.365C181.554 168.431 181.97 168.443 182.373 168.455H182.5C182.603 168.464 182.71 168.464 182.817 168.464C183.314 168.464 183.701 168.414 184.038 168.303C184.647 168.106 184.926 167.818 184.823 167.489C184.754 167.312 184.544 167.185 184.314 167.057L184.26 167.028C184.03 166.897 183.779 166.794 183.586 166.72C183.438 166.662 183.281 166.613 183.125 166.568C182.924 166.506 182.73 166.449 182.558 166.366C182.249 166.218 181.986 166.013 181.801 165.766C181.661 165.577 181.583 165.396 181.575 165.227C181.562 164.935 181.739 164.631 181.9 164.36C182.072 164.068 182.233 163.751 182.381 163.414V163.422Z" fill="#343434"/>
<path d="M168.699 154.872C168.107 154.042 167.017 153.548 165.784 153.548C164.447 153.548 163.279 154.12 162.732 155.037C162.354 155.674 162.095 156.764 163.033 158.327L163.09 158.421L163.185 158.483C163.999 159.03 164.932 159.33 165.812 159.33C167.568 159.33 168.819 158.183 169.147 156.258L169.168 156.135L168.736 154.926L168.695 154.872H168.699Z" fill="#343434"/>
<path d="M199.821 153.548C198.587 153.548 197.497 154.046 196.905 154.872L196.864 154.926L196.432 156.135L196.453 156.258C196.786 158.178 198.032 159.33 199.788 159.33C200.668 159.33 201.601 159.03 202.415 158.483L202.51 158.421L202.568 158.327C203.501 156.764 203.246 155.674 202.868 155.037C202.321 154.12 201.153 153.548 199.817 153.548H199.821Z" fill="#343434"/>
<path d="M168.416 145.053C167.823 144.765 167.194 144.629 166.368 144.601C165.977 144.588 165.521 144.601 164.933 144.642L164.546 144.67C163.057 144.81 161.503 145.094 160.228 146.229C159.509 146.87 159.373 147.528 159.829 148.182C160.084 148.548 160.43 148.75 160.833 148.762C160.874 148.762 160.915 148.762 160.96 148.762C161.203 148.746 161.45 148.659 161.68 148.515C162.716 147.866 163.814 147.508 165.031 147.43C165.294 147.413 165.57 147.409 165.841 147.417C166.413 147.434 167.005 147.508 167.643 147.644C167.782 147.672 167.918 147.689 168.046 147.693C168.107 147.693 168.165 147.693 168.226 147.693C168.778 147.656 169.152 147.372 169.333 146.846C169.666 145.9 169.016 145.353 168.416 145.061V145.053Z" fill="#343434"/>
<path d="M204.673 148.663C204.714 148.663 204.759 148.663 204.8 148.663C205.199 148.639 205.541 148.429 205.787 148.059C206.227 147.393 206.075 146.739 205.335 146.118C204.031 145.02 202.469 144.777 200.98 144.678L200.59 144.662C200.001 144.637 199.545 144.637 199.154 144.662C198.332 144.711 197.703 144.868 197.119 145.168C196.523 145.476 195.889 146.04 196.247 146.973C196.444 147.491 196.827 147.767 197.378 147.791C197.435 147.791 197.497 147.791 197.559 147.791C197.686 147.783 197.822 147.763 197.962 147.73C198.599 147.578 199.187 147.491 199.759 147.458C200.03 147.442 200.306 147.442 200.569 147.45C201.79 147.5 202.892 147.824 203.949 148.449C204.184 148.589 204.434 148.663 204.677 148.676L204.673 148.663Z" fill="#343434"/>
<path d="M231.497 161.983C231.436 161.394 231.427 160.646 231.263 159.935C230.7 157.48 229.667 155.37 227.2 154.441C227.282 154.136 227.34 153.82 227.397 153.524C227.936 150.814 227.883 148.067 227.566 145.324C227.566 143.691 227.619 142.059 227.558 140.426C227.011 125.861 220.509 114.293 209.423 105.164C206.758 102.972 203.678 101.257 200.137 100.735C199.171 100.591 197.983 100.451 197.736 101.734C197.514 102.882 198.641 102.98 199.438 103.198C202.934 104.14 205.907 106.077 208.584 108.376C222.372 120.206 226.073 135.631 224.264 152.948C224.198 153.565 224.054 154.227 224.153 154.766C224.091 154.877 224.038 155.008 223.997 155.152C223.688 156.217 224.367 156.797 225.362 157.077C226.197 157.315 226.962 157.611 227.426 158.43C229.178 161.501 228.421 165.577 225.662 167.801C223.223 169.767 220.485 171.021 217.273 171.14C215.628 171.202 214.575 171.901 214.029 173.497C213.412 175.31 212.663 177.095 211.828 178.826C210.245 182.112 208.617 185.311 205.615 187.762C199.204 192.993 191.703 196.032 183.906 198.569C183.269 198.775 182.648 198.84 181.982 198.622C174.181 196.098 166.631 193.129 160.249 187.869C158.518 186.442 157.156 184.826 156.001 182.943C154.175 179.965 153.015 176.713 151.708 173.526C151.079 171.983 150.12 171.214 148.471 171.149C145.26 171.025 142.533 169.771 140.066 167.838C138.421 166.551 137.599 164.853 137.385 162.895C137.056 159.869 138.067 158.175 140.745 156.953C141.526 156.6 141.962 156.04 141.752 155.197C141.666 154.84 141.489 154.572 141.254 154.383C142.126 153.651 141.579 151.505 141.493 150.505C140.819 142.832 141.485 135.01 143.701 127.625C145.794 120.651 150.326 114.647 155.536 109.642C163.703 101.796 173.959 99.3862 185.054 100.081C188.389 100.291 191.703 100.686 194.767 102.207C195.466 102.557 196.379 102.861 196.885 102.014C197.481 101.011 196.605 100.517 195.877 100.032C194.273 98.9708 192.522 98.2718 190.655 97.8441C180.682 95.5495 171.011 96.8366 161.976 101.29C149.323 107.528 141.065 120.757 138.828 134.426C137.895 140.118 137.829 145.928 138.335 151.665C138.409 152.504 138.631 153.622 139.297 154.219C137.734 154.572 136.431 155.37 135.608 156.834C132.948 161.559 134.124 167.131 138.446 170.466C139.737 171.461 141.106 172.28 142.566 172.896C142.566 172.97 142.562 173.044 142.558 173.114L142.546 173.484C142.537 173.715 142.529 173.949 142.533 174.179C142.681 180.315 142.134 186.52 141.604 192.52C141.452 194.247 141.3 195.97 141.16 197.697C140.782 202.463 139.984 207.262 139.211 211.901C138.442 216.527 137.648 221.314 137.261 226.08C136.883 230.792 137.685 234.868 139.716 238.54C141.723 242.167 144.89 244.079 148.879 244.079C149.52 244.079 150.19 244.03 150.865 243.927C151.375 243.849 152.078 243.746 152.246 243.026C152.403 242.356 152.049 241.85 151.198 241.521C150.737 241.349 150.211 241.221 149.627 241.143C146.275 240.703 143.981 239.087 142.616 236.196C141.193 233.182 140.584 230.11 140.814 227.075L140.888 226.08C141.152 222.556 141.423 218.912 142.262 215.347C144.466 205.983 145.087 196.274 145.687 186.89L145.733 186.401C145.766 186.047 145.803 185.698 145.815 185.344C145.967 181.886 146.016 177.843 145.358 173.776C145.877 173.892 146.399 173.994 146.938 174.064C148.151 174.216 148.94 174.693 149.327 175.902C149.742 177.21 150.318 178.477 150.885 179.735C152.349 182.984 153.809 186.298 156.552 188.708C159.809 191.566 163.333 194.111 167.273 196.102C171.956 198.466 176.981 199.98 181.83 201.929C182.599 202.237 183.409 202.134 184.19 201.801C184.976 201.468 185.769 201.143 186.579 200.876C194.331 198.31 201.68 195.037 207.959 189.773C209.674 188.334 211.01 186.668 212.178 184.81C213.95 181.98 215.18 178.917 216.377 175.841C216.817 174.71 217.516 174.167 218.671 174.085C219.078 174.056 219.473 173.998 219.864 173.924C219.605 174.747 219.638 175.606 219.675 176.445C219.683 176.684 219.695 176.918 219.695 177.153C219.757 182.815 220.23 188.548 220.682 194.087C220.912 196.871 221.147 199.745 221.328 202.578C221.496 205.206 221.739 208.496 222.179 211.938C222.253 212.526 222.681 212.999 223.248 213.176C224.293 213.496 225.284 214.228 226.242 214.96C226.225 214.771 226.205 214.578 226.184 214.397L225.909 211.901C225.666 209.713 225.415 207.447 225.21 205.219C224.761 200.391 224.326 195.559 223.886 190.731C223.404 185.426 222.923 180.122 222.43 174.817L222.409 174.595C222.376 174.179 222.339 173.706 222.105 173.283C222.932 172.97 223.738 172.596 224.523 172.197C228.689 170.075 231.394 166.938 231.464 161.962L231.497 161.983Z" fill="#343434"/>
<path d="M212.013 194.474C211.943 194.474 211.873 194.478 211.795 194.49C210.734 194.65 210.8 195.646 210.841 196.242C210.944 197.825 211.08 199.437 211.207 200.991L211.368 202.953C211.368 203.545 211.491 204.174 211.491 204.762C211.487 205.774 211.701 206.769 211.709 207.801C212.893 208.295 214.004 209.043 215.085 209.841C215.085 209.8 215.097 209.763 215.097 209.718C215.324 205.12 214.727 200.44 213.333 195.822C213.202 195.382 212.926 194.469 212.017 194.469L212.013 194.474Z" fill="#343434"/>
<path d="M158.76 240.707C155.511 238.569 154.426 235.234 153.793 232.253C152.945 228.272 153.221 224.176 153.484 220.212C153.538 219.402 153.591 218.596 153.636 217.786C153.776 215.29 153.936 212.793 154.097 210.297C154.302 207.123 154.512 203.845 154.677 200.613V200.498C154.763 198.919 154.853 197.13 153.332 195.715L153.225 195.617L153.106 195.699C152.127 196.377 152.032 197.192 151.942 197.948L151.852 198.721C150.721 208.459 149.549 218.526 149.532 228.515C149.524 232.767 150.799 236.858 153.32 240.683C154.368 242.27 155.532 243.216 156.988 243.664L157.107 243.701C157.522 243.828 157.95 243.96 158.365 243.952C158.916 243.944 159.328 243.693 159.615 243.187C160.125 242.295 159.817 241.415 158.748 240.707H158.76Z" fill="#343434"/>
<path d="M193.541 115.568C193.611 114.992 193.253 114.507 192.591 114.268C192.09 114.091 191.534 114.087 191.53 114.087C191.419 114.087 191.312 114.083 191.21 114.083C189.561 114.083 188.45 114.507 187.365 114.98C182.467 117.118 178.293 119.388 174.604 121.921C166.396 127.559 158.456 134.747 149.61 144.543C148.311 145.982 147.361 147.643 146.444 149.251C145.996 150.036 145.535 150.847 145.037 151.62C144.725 152.105 144.614 152.631 144.725 153.096C144.729 153.121 144.741 153.137 144.75 153.162C144.515 153.466 144.532 153.886 144.544 154.202C144.552 154.395 144.56 154.576 144.532 154.737L144.523 154.778V154.819C144.889 157.537 145.292 160.19 146.23 162.735C146.547 163.594 147.102 164.063 147.793 164.063C147.961 164.063 148.134 164.034 148.311 163.977C148.837 163.812 149.651 163.307 149.207 161.781C148.521 159.416 147.776 156.9 146.974 154.358C147.386 154.219 147.772 153.902 148.113 153.421C148.192 153.31 148.274 153.195 148.356 153.084C148.66 152.664 148.977 152.232 149.195 151.759C150.33 149.276 152.156 147.248 153.92 145.283L154.409 144.74C162.12 136.125 169.748 129.298 177.738 123.87C178.12 123.611 178.499 123.352 178.881 123.089C183.01 120.26 187.274 117.336 192.497 116.559C193.064 116.472 193.471 116.082 193.533 115.56L193.541 115.568Z" fill="#343434"/>
<path d="M221.336 152.43L221.328 152.405C221.27 152.224 221.212 152.023 221.155 151.809C221.011 151.295 220.846 150.715 220.604 150.164C219.962 148.704 219.271 147.236 218.605 145.817C218.338 145.25 218.071 144.682 217.807 144.111C212.745 133.222 206.824 124.5 199.705 117.447C199.138 116.884 198.575 116.341 197.941 115.872C197.707 115.699 197.444 115.609 197.185 115.609C196.876 115.609 196.584 115.74 196.342 115.983C195.963 116.37 195.922 116.929 196.231 117.41C196.749 118.212 197.357 119.137 198.069 119.964C204.944 127.995 209.669 135.06 212.939 142.186C213.535 143.486 214.18 144.789 214.806 146.048C215.92 148.297 217.075 150.62 217.98 153.01C218.247 153.717 218.626 154.153 219.123 154.321L219.107 154.371C218.432 156.476 217.799 158.635 217.186 160.72L216.993 161.374C216.742 162.233 216.36 163.529 217.775 163.96C217.972 164.022 218.165 164.051 218.342 164.051C219.506 164.051 219.901 162.78 220.086 162.168C220.789 159.889 221.274 157.443 221.574 154.679V154.626L221.562 154.572C221.529 154.465 221.537 154.297 221.541 154.124C221.554 153.807 221.57 153.339 221.233 153.047C221.274 152.853 221.303 152.656 221.328 152.454V152.43H221.336Z" fill="#343434"/>
<path d="M196.12 106.624L196.103 106.685C195.704 108.314 195.4 109.753 195.174 111.094C195.075 111.682 195.137 112.138 195.363 112.451C195.54 112.697 195.819 112.85 196.19 112.907C196.276 112.92 196.358 112.928 196.436 112.928C197.123 112.928 197.58 112.467 197.797 111.554C198.048 110.502 198.266 109.441 198.455 108.503C198.529 108.137 198.599 107.787 198.673 107.43C198.653 107.195 198.653 106.969 198.653 106.747C198.653 105.974 198.653 105.242 197.686 105.086C197.596 105.069 197.51 105.065 197.427 105.065C196.502 105.065 196.292 105.933 196.12 106.628V106.624Z" fill="#343434"/>
</svg>
