<svg width="284" height="232" viewBox="0 0 284 232" fill="none" xmlns="http://www.w3.org/2000/svg">
<path d="M268.46 76.6932C260.604 65.385 249.708 55.64 235.385 52.9841C219.537 50.0455 202.693 49.644 188.043 44.0257C178.964 40.5439 171.216 35.2261 162.472 31.2423C126.583 14.8936 79.1583 22.8176 55.7517 55.4453C50.6485 62.559 46.7023 70.6873 39.8906 76.2735C35.0246 80.2642 28.9763 82.702 24.1494 86.7377C16.6141 93.0379 12.8347 102.502 9.33615 111.565C1.72515 131.281 -8.02099 159.424 11.2002 175.983C24.3032 187.272 24.5212 186.009 40.2116 194.99C56.9771 204.586 154.965 213.921 181.799 203.262C208.632 192.602 223.169 196.128 246.902 181.567C274.963 164.35 290.281 130.966 281.551 103.627C278.526 94.0849 274.118 85.0151 268.46 76.6932Z" fill="#FAF7DE"/>
<path d="M235.936 190.888C233.933 188.463 230.175 187.179 230.175 187.179L238.602 121.707L237.235 120.735L177.229 113.872C170.674 110.451 161.113 105.387 159.964 104.345C158.196 102.745 156.869 101.022 155.921 100.899C154.974 100.776 154.114 101.089 153.267 101.885C152.423 102.678 151.689 103.608 151.563 103.178C151.437 102.748 150.49 94.3742 150.49 94.3742C150.49 94.3742 154.533 91.6035 156.743 89.45C158.953 87.2938 158.129 86.2492 161.132 85.2633C164.136 84.2773 166.156 83.0456 167.293 82.2468C168.43 81.4452 172.979 76.8897 173.42 75.4736C173.862 74.0576 173.077 72.7532 174.418 71.4349C175.759 70.1166 176.832 70.0551 177.653 68.2089C178.475 66.3627 179.738 64.7009 179.106 62.5446C178.475 60.3884 178.399 60.1845 178.5 57.3943C178.6 54.604 179.042 45.306 176.893 38.4742C174.745 31.6396 174.113 28.1315 172.029 24.6821C169.945 21.2355 163.563 11.1387 158.322 8.42941C153.077 5.72015 143.538 2.59473 143.351 2.55842C143.161 2.51932 139.278 1.43841 139.278 1.43841C139.278 1.43841 132.114 0.184337 124.215 3.40751C116.316 6.63068 109.98 8.5104 106.856 11.9123C103.732 15.3143 101.62 16.0293 97.7642 22.0287C93.9085 28.0282 91.0586 33.4858 90.3238 36.3515C89.5889 39.2171 85.9958 49.3028 85.9958 55.805C85.9958 62.3072 85.4845 65.7902 87.2727 69.2759C89.0609 72.7588 90.7932 76.7892 93.182 79.3169C95.5709 81.8446 107.06 87.1905 107.06 87.1905C107.06 87.1905 110.653 90.3019 112.111 91.6705C113.57 93.0391 114.799 94.6954 114.799 94.6954L113.55 103.868C113.55 103.868 112.273 100.969 110.821 100.72C109.368 100.471 109.432 100.228 107.915 101.583C106.398 102.938 108.041 101.952 104.252 104.722C100.46 107.493 83.6573 116.112 82.3944 117.344C81.2488 118.461 79.8937 119.076 77.5775 121.062C77.1891 122.492 76.8567 123.933 76.5605 125.383C75.9458 127.528 75.3563 130.421 75.1132 134.083C74.9595 135.167 74.8086 136.25 74.655 137.334C74.1381 140.996 73.4983 144.66 73.0652 148.341H74.1409C73.3837 159.136 72.4477 171.63 71.9616 174.993C71.2183 180.165 70.3075 194.052 71.1038 199.401C71.9001 204.75 69.8521 207.37 73.8363 210.671C77.8206 213.972 81.1231 216.249 84.6547 216.249C88.1863 216.249 90.2344 216.992 90.2344 216.992L87.5717 230.225L184.532 230.116L180.408 217.408L221.298 222.284C221.298 222.284 224.601 225.471 226.082 222.055C227.563 218.64 227.789 216.818 227.789 216.818C227.789 216.818 229.725 217.503 232.458 215.623C235.19 213.743 235.875 213.062 236.897 209.076C237.923 205.093 237.467 202.085 237.353 197.044C237.238 192.002 237.945 193.323 235.942 190.899L235.936 190.888Z" fill="white"/>
<path d="M167.26 73.9854C166.768 73.8095 166.212 73.8877 165.709 73.9156C165.304 73.9407 164.896 73.9854 164.491 74.0329C164.508 74.3262 164.471 74.6111 164.354 74.8597C163.295 77.0969 162.784 79.5575 162.01 81.9344C161.753 82.7249 161.451 83.4985 161.13 84.261C162.87 83.8477 164.234 82.3171 165.472 80.8759C166.033 80.2195 166.581 79.5464 167.061 78.8006C167.609 77.9543 168.305 76.8343 168.327 75.7143C168.344 74.9239 167.877 74.2061 167.26 73.9854Z" fill="#515151"/>
<path d="M175.438 58.227C174.809 53.342 174.248 48.4402 173.457 43.5775C172.725 39.0779 171.752 34.5895 170.115 30.3245C168.489 26.0875 166.234 22.1633 163.203 18.7697C160.333 15.5549 156.866 12.8792 153.175 10.6643C149.294 8.33768 145.126 6.51103 140.867 4.98603C140.82 4.58104 140.616 4.19281 140.239 4.01964C133.002 0.648433 124.531 3.70402 117.831 6.99423C111.38 10.1643 105.523 14.6248 100.746 19.9847C95.6465 25.7048 91.7991 32.4361 89.4354 39.7175C87.0214 47.161 86.158 55.1603 87.0326 62.9389C87.8959 70.6226 90.5586 78.8425 97.5883 83.0404C98.393 83.5209 99.2424 83.9091 100.114 84.2498C101.084 84.6297 101.983 83.5181 101.74 82.6299C98.4992 70.7985 99.3066 58.0315 103.906 46.661C104.462 45.2869 105.079 43.935 105.758 42.6195C106.021 42.1084 106.247 41.5945 106.823 41.4045C107.566 41.1587 108.407 41.1252 109.175 40.994C112.36 40.4437 115.498 39.6086 118.538 38.5054C120.069 37.9495 121.58 37.3267 123.061 36.6452C123.785 36.3128 124.503 35.9609 125.213 35.5978C125.456 35.4721 125.777 35.2319 126.059 35.2263C126.291 35.2207 126.557 35.3995 126.749 35.5056C129.446 36.9859 132.27 37.7596 135.369 37.6395C142.047 37.3853 147.629 33.7013 152.798 29.8106C154.206 34.5141 155.665 39.2092 157.528 43.7563C158.57 46.3007 159.699 48.8312 161.065 51.2221C162.292 53.3644 163.885 55.1994 166.17 56.2384C168.433 57.269 171.191 57.6098 173.191 59.1543C173.622 59.4867 174.099 59.6627 174.633 59.4281C175.063 59.2381 175.51 58.7382 175.446 58.2243L175.438 58.227Z" fill="#515151"/>
<path d="M183.767 230.211L179.875 216.958L149.898 212.769L149.713 212.777C149.534 212.556 149.361 212.313 149.141 212.109C148.766 211.763 150.132 203.613 151.004 198.664C151.281 197.326 151.546 195.988 151.798 194.644C151.976 193.681 151.06 192.918 150.155 193.382C147.478 194.762 144.804 196.142 142.128 197.519C139.831 198.703 137.369 200.046 134.76 199.75C134.545 199.44 134.329 199.13 134.126 198.812C132.768 196.695 131.597 194.463 130.446 192.228C129.267 187.955 128.8 183.495 129.085 179.02C130.574 178.545 131.706 177.392 132.79 176.317C133.88 175.236 135.011 174.197 136.09 173.105C138.607 170.554 141.217 168.105 143.91 165.739C146.285 163.653 148.992 161.36 152.08 160.449C153.435 160.05 154.832 159.86 156.215 159.905L157.408 147.098L157.218 147.082C157.386 145.842 157.634 144.607 157.788 143.468C158.282 139.82 159.151 136.222 159.406 132.547C159.406 132.469 159.406 132.393 159.406 132.315C156.592 134.938 152.457 136.521 148.548 136.868C147.098 137.228 145.606 137.398 144.159 137.275C142.345 137.119 140.605 136.563 138.886 135.943C139.817 137.267 140.677 138.641 141.555 140.068C142.309 141.297 142.996 142.429 143.438 143.819C143.812 144.998 144 146.219 144.329 147.397C144.419 147.476 144.511 147.548 144.6 147.624C144.195 148.084 143.678 148.47 143.083 148.47C141.781 148.47 140.01 147.054 139.571 146.688C138.585 145.71 137.626 144.733 136.682 143.836C134.341 141.61 133.114 139.004 132.589 136.044C132.064 137.873 131.32 139.624 130.189 141.236C128.557 143.562 126.341 145.344 124.229 147.23C123.391 147.629 121.611 148.562 120.41 148.344C119.82 148.238 119.555 147.922 119.443 147.601C119.49 147.487 119.532 147.375 119.58 147.26C120.25 145.632 120.555 143.917 121.326 142.322C122.268 140.37 123.508 138.552 125.081 137.063C120.488 137.267 115.417 136.901 111.421 135.072C107.415 133.234 103.285 130.798 102.36 126.248C102.24 125.662 102.24 125.168 102.324 124.757L81.9027 117.872C81.9027 117.872 79.3825 119.679 77.1669 121.682C76.9992 125.313 76.3706 128.893 75.6302 132.457C75.1636 136.988 74.6662 141.518 74.2695 146.054H74.2639C74.2639 146.054 74.2415 146.358 74.1968 146.909C74.1577 147.383 74.1102 147.858 74.0739 148.333H74.0851C73.3698 157.45 70.7267 191 70.3299 194.119C70.0561 196.27 70.5311 199.948 71.0983 203.423C71.5844 205.814 72.4031 207.998 73.7246 210.121C76.812 215.081 82.0731 216.852 87.7115 216.282C88.4686 216.207 88.8905 217.165 88.9492 217.751C89.3767 221.988 88.6251 226.13 87.5745 230.214H183.772L183.767 230.211Z" fill="#DCE5EC"/>
<path d="M188.156 90.0593C188.215 90.1487 191.154 93.0032 191.154 93.0032L187.955 96.4051L184.834 92.8803L188.156 90.0593Z" fill="#F7F091"/>
<path d="M201.391 73.2117C201.458 73.3122 204.786 76.5466 204.786 76.5466L201.162 80.401L197.628 76.4069L201.388 73.2117H201.391Z" fill="#F7F091"/>
<path d="M206.485 126.757C204.655 130.064 202.824 133.371 200.997 136.678C200.223 138.08 202.369 139.335 203.146 137.932C204.976 134.625 206.806 131.318 208.633 128.012C209.407 126.609 207.261 125.355 206.485 126.757Z" fill="#8FCFD7"/>
<path d="M223.679 129.277C223.405 129.232 223.162 129.269 222.95 129.361C222.26 128.917 221.226 128.85 220.516 128.732C219.111 128.501 217.697 128.361 216.278 128.302C216.043 127.825 215.546 127.478 214.878 127.643C212.869 128.14 211.139 129.537 210.419 131.512C209.86 133.045 210.036 135.134 211.726 135.871C214.386 137.028 217.113 133.559 216.889 130.819C217.395 130.847 217.901 130.883 218.407 130.936C218.854 130.984 219.871 131.053 220.631 131.174C220.505 131.313 220.393 131.439 220.357 131.5C220.133 131.872 219.954 132.263 219.804 132.671C219.513 133.453 219.295 134.38 219.572 135.204C220.117 136.818 221.885 137.031 223.26 136.391C224.626 135.757 226.557 134.148 226.847 132.578C227.216 130.587 225.336 129.562 223.676 129.283L223.679 129.277ZM214.014 132.333C213.662 132.897 212.601 134.022 212.64 132.78C212.668 131.858 213.389 131.101 214.216 130.601C214.827 130.992 214.288 131.894 214.017 132.333H214.014ZM224.145 132.302C224.092 132.682 223.643 133.037 223.388 133.274C222.989 133.645 222.162 134.528 222.047 133.785C221.944 133.123 222.891 132.271 223.232 131.777C223.249 131.755 223.263 131.729 223.279 131.704C223.763 131.749 224.227 131.752 224.148 132.302H224.145Z" fill="#8FCFD7"/>
<path d="M223.168 139.815C218.75 139.966 214.375 140.564 210.081 141.606C208.527 141.983 209.184 144.379 210.743 144.002C214.828 143.013 218.968 142.444 223.168 142.301C224.763 142.245 224.772 139.76 223.168 139.815Z" fill="#8FCFD7"/>
<path d="M220.508 144.415C217.985 144.247 215.498 144.541 213.079 145.278C211.553 145.744 212.204 148.144 213.741 147.674C215.965 146.996 218.192 146.744 220.508 146.898C222.106 147.004 222.098 144.518 220.508 144.412V144.415Z" fill="#8FCFD7"/>
<path d="M182.395 151.032C181.724 147.387 177.064 147.918 174.437 148.736C171.515 149.647 168.62 151.714 167.69 154.761C167.212 156.322 167.581 157.892 168.76 159.037C170.123 160.361 172.043 160.609 173.845 160.805C175.435 160.975 175.421 158.49 173.845 158.319C172.691 158.193 170.869 158.065 170.191 156.903C169.584 155.864 170.364 154.582 171.02 153.758C172.23 152.241 174.085 151.339 175.941 150.904C176.874 150.683 177.924 150.49 178.877 150.669C180.492 150.968 179.889 152.585 179.522 153.685C178.693 156.182 177.461 158.506 175.98 160.676C175.074 162 177.229 163.246 178.128 161.931C179.321 160.182 180.333 158.342 181.149 156.386C181.819 154.778 182.724 152.825 182.395 151.032Z" fill="#8FCFD7"/>
<path d="M203.638 153.42C202.967 149.775 198.307 150.306 195.68 151.124C192.758 152.034 189.863 154.101 188.933 157.149C188.455 158.71 188.824 160.28 190.003 161.425C191.366 162.749 193.286 162.997 195.088 163.193C196.678 163.363 196.664 160.877 195.088 160.707C193.934 160.581 192.112 160.453 191.433 159.291C190.827 158.252 191.607 156.97 192.263 156.146C193.473 154.629 195.328 153.727 197.183 153.291C198.117 153.071 199.167 152.878 200.12 153.057C201.735 153.356 201.131 154.973 200.765 156.073C199.936 158.57 198.703 160.894 197.223 163.064C196.317 164.388 198.472 165.634 199.371 164.318C200.564 162.57 201.576 160.729 202.392 158.774C203.062 157.165 203.967 155.213 203.638 153.42Z" fill="#8FCFD7"/>
<path d="M224.88 155.807C224.21 152.163 219.549 152.693 216.923 153.512C214 154.422 211.106 156.489 210.175 159.536C209.698 161.098 210.066 162.667 211.246 163.812C212.609 165.136 214.529 165.385 216.331 165.58C217.92 165.751 217.906 163.265 216.331 163.095C215.177 162.969 213.355 162.84 212.676 161.678C212.07 160.639 212.849 159.357 213.506 158.534C214.716 157.017 216.571 156.115 218.426 155.679C219.359 155.458 220.41 155.266 221.363 155.444C222.978 155.743 222.374 157.36 222.008 158.461C221.178 160.958 219.946 163.282 218.465 165.452C217.56 166.776 219.714 168.021 220.614 166.706C221.807 164.957 222.818 163.117 223.634 161.162C224.305 159.553 225.21 157.601 224.88 155.807Z" fill="#8FCFD7"/>
<path d="M202.433 176.672C201.763 173.027 197.102 173.558 194.476 174.376C191.553 175.287 188.659 177.353 187.728 180.401C187.251 181.962 187.619 183.532 188.799 184.677C190.162 186.001 192.082 186.249 193.884 186.445C195.473 186.615 195.459 184.129 193.884 183.959C192.73 183.833 190.908 183.705 190.229 182.543C189.623 181.504 190.402 180.222 191.059 179.398C192.269 177.881 194.124 176.979 195.979 176.544C196.912 176.323 197.963 176.13 198.916 176.309C200.531 176.608 199.927 178.225 199.561 179.325C198.731 181.822 197.499 184.146 196.018 186.316C195.113 187.64 197.267 188.886 198.167 187.57C199.36 185.822 200.371 183.981 201.187 182.026C201.858 180.417 202.763 178.465 202.433 176.672Z" fill="#8FCFD7"/>
<path d="M189.377 195.871C188.706 192.226 184.046 192.757 181.42 193.575C178.497 194.486 175.602 196.552 174.672 199.6C174.194 201.161 174.563 202.731 175.742 203.876C177.106 205.2 179.025 205.448 180.827 205.644C182.417 205.817 182.403 203.328 180.827 203.158C179.673 203.032 177.852 202.904 177.173 201.742C176.566 200.703 177.346 199.421 178.002 198.597C179.212 197.08 181.068 196.178 182.923 195.742C183.856 195.522 184.906 195.329 185.859 195.508C187.474 195.807 186.871 197.424 186.505 198.524C185.675 201.021 184.443 203.345 182.962 205.515C182.057 206.839 184.211 208.085 185.11 206.769C186.303 205.021 187.315 203.18 188.131 201.225C188.801 199.616 189.707 197.664 189.377 195.871Z" fill="#8FCFD7"/>
<path d="M204.403 207.178C203.249 207.052 201.428 206.924 200.749 205.762C200.142 204.723 200.922 203.441 201.578 202.617C202.788 201.1 204.643 200.198 206.499 199.762C206.814 199.687 207.144 199.617 207.477 199.564C207.351 198.729 207.496 197.849 207.829 197.036C206.809 197.12 205.806 197.343 204.996 197.598C202.073 198.508 199.178 200.575 198.248 203.622C197.77 205.183 198.139 206.753 199.318 207.898C200.682 209.222 202.601 209.471 204.403 209.666C205.993 209.837 205.979 207.351 204.403 207.18V207.178Z" fill="#8FCFD7"/>
<path d="M211.207 205.594C210.949 204.837 210.768 203.382 210.055 202.913C210.027 202.893 210 202.871 209.974 202.849C209.147 205.228 207.96 207.452 206.543 209.532C205.638 210.856 207.792 212.102 208.692 210.786C209.74 209.253 210.648 207.644 211.405 205.954C211.318 205.84 211.251 205.717 211.209 205.594H211.207Z" fill="#8FCFD7"/>
<path d="M176.181 220.05C176.086 220.05 175.985 220.059 175.887 220.073C161.783 222.156 147.363 223.212 133.033 223.212C126.031 223.212 118.946 222.958 111.977 222.458C105.881 222.019 99.7033 221.38 93.6095 220.55C93.5173 220.539 93.4279 220.531 93.3385 220.531C92.3215 220.531 91.6509 221.304 91.5895 222.053C91.528 222.793 92.0393 223.366 92.8579 223.477C106.219 225.293 119.798 226.215 133.215 226.215H133.217C141.544 226.215 149.942 225.857 158.185 225.156C164.239 224.639 170.45 223.913 176.65 222.997C177.472 222.877 177.977 222.293 177.91 221.55C177.843 220.813 177.178 220.048 176.178 220.048L176.181 220.05Z" fill="#343434"/>
<path d="M92.7603 217.681C96.8535 216.813 101 215.858 105.006 214.93C108.742 214.067 112.606 213.176 116.42 212.358C123.086 210.928 128.89 209.302 134.162 207.395L134.355 207.325C135.159 207.037 136.07 206.71 136.391 206.029C136.562 205.669 136.548 205.238 136.352 204.752C136.048 203.99 135.517 203.621 134.735 203.621C134.167 203.621 133.561 203.811 132.977 203.996L132.829 204.043C132.337 204.197 131.846 204.375 131.371 204.546C130.792 204.755 130.194 204.97 129.596 205.144C128.716 205.398 127.839 205.657 126.962 205.917C124.394 206.677 121.74 207.462 119.094 208.087C115.199 209.003 111.226 209.894 107.384 210.755C102.576 211.833 97.6051 212.947 92.7351 214.126C90.8687 214.578 89.0051 214.807 87.203 214.807C86.0099 214.807 84.8113 214.707 83.635 214.511C81.1316 214.092 78.3627 213.313 76.8177 210.699C74.2136 206.291 72.9005 201.546 72.9144 196.597C72.934 190.729 73.1687 184.528 73.6381 177.638C74.0488 171.616 74.5657 165.496 75.0658 159.581C75.3592 156.095 75.6665 152.492 75.9459 148.945C76.1024 146.959 76.2141 144.934 76.3231 142.979C76.7366 135.544 77.1613 127.86 80.1146 120.629C80.489 119.71 80.0894 119.249 79.6899 119.026C79.4803 118.908 79.2596 118.85 79.0333 118.85C78.6645 118.85 78.2845 119.012 77.9325 119.319C76.8931 120.224 76.1722 121.402 75.7895 122.824C74.8646 126.276 74.0684 129.396 73.7107 132.639C72.5093 143.588 71.6068 154.743 70.7323 165.53C70.3942 169.697 70.045 174.007 69.6846 178.249C69.6147 180.017 69.5337 181.785 69.4554 183.55C69.2738 187.639 69.0838 191.865 69.0056 196.027C68.9274 200.158 69.6678 204.132 71.2017 207.839L71.4252 208.383C72.7719 211.66 74.1661 215.048 78.0973 216.528C81.1344 217.67 84.2637 218.251 87.393 218.251C87.7674 218.251 88.1418 218.24 88.5162 218.223C88.0049 220.005 87.4321 221.991 87.3092 222.402C86.9739 223.525 86.6023 224.656 86.2418 225.751C85.8926 226.812 85.5322 227.907 85.2053 228.996C85.0488 229.513 85.0292 229.968 85.1466 230.345C85.2975 230.831 85.6747 231.175 86.2363 231.339C86.3313 231.367 86.4262 231.39 86.5184 231.404C87.3902 231.535 88.0635 231.024 88.4184 229.962C89.2426 227.479 91.1314 221.167 92.1176 217.81C92.33 217.771 92.5423 217.729 92.7547 217.684L92.7603 217.681Z" fill="#343434"/>
<path d="M92.2713 174.956C94.5484 174.691 93.6878 172.504 93.523 171.107C92.6038 163.29 91.6538 155.469 90.173 147.724C88.9939 141.563 88.22 135.317 86.0434 129.349C85.669 128.321 85.4623 127.114 83.9479 126.734C83.0091 128.042 83.6099 129.34 83.8697 130.592C86.6972 144.146 88.667 157.815 90.2792 171.532C90.4384 172.881 89.7399 175.252 92.2713 174.956Z" fill="#343434"/>
<path d="M124.288 181.599C124.263 180.987 124.218 180.309 123.397 180.203C122.477 180.082 122.103 180.753 122.011 181.426C121.815 182.873 121.74 184.336 121.614 185.791C121.256 191.425 123.48 196.215 127.157 200.528C127.789 201.27 128.666 202.011 129.719 201.296C130.829 200.544 129.957 199.706 129.42 199.07C125.47 194.391 123.925 189.065 124.305 183.194C124.338 182.663 124.305 182.13 124.285 181.599H124.288Z" fill="#343434"/>
<path d="M232.564 186.615C234.344 171.113 236.121 155.612 237.903 140.111C238.552 134.472 239.239 128.835 239.784 124.227C239.759 119.833 239.756 119.844 236.431 119.445C216.778 117.079 197.125 114.705 177.472 112.342C174.809 110.921 172.093 109.493 169.375 108.155C165.27 106.131 160.976 103.851 157.567 100.209C156.95 99.5501 156.24 99.201 155.516 99.201C155.014 99.201 154.516 99.3686 154.041 99.7009C153.533 100.056 153.024 100.433 152.546 100.854C152.239 98.3854 151.937 95.9582 151.63 93.5479C150.795 94.0757 149.94 94.5785 149.087 95.0756C149.275 98.1312 149.613 101.176 150.001 104.214C150.012 104.298 150.029 104.379 150.046 104.46C147.352 109.87 144.078 114.987 141.166 119.537C138.107 124.319 135.472 127.835 132.642 130.91C132.597 130.863 132.553 130.821 132.511 130.779C132.368 130.637 132.251 130.519 132.145 130.394C124.855 121.638 119.295 111.946 115.258 104.452C115.302 104.231 115.333 103.999 115.358 103.773C115.652 101.123 115.928 98.4608 116.23 95.6007C115.948 95.4164 115.66 95.2349 115.372 95.0589C114.785 94.6958 114.199 94.3355 113.615 93.964C113.321 96.2655 113.034 98.5697 112.746 100.871C111.637 99.8322 110.72 99.2485 109.779 99.2485C108.837 99.2485 107.823 99.8685 106.633 101.259C105.403 102.698 103.741 103.77 102.134 104.807L102.081 104.84C100.072 106.139 97.8817 107.197 95.761 108.222C94.5205 108.823 93.2381 109.44 92.0059 110.102C91.1034 110.585 90.201 111.069 89.2957 111.549C86.5995 112.987 83.8111 114.473 81.1009 115.99C80.0392 116.585 79.6704 117.487 79.7793 118.071C79.8548 118.487 80.1621 118.769 80.6147 118.844C81.5423 119.001 82.2241 119.473 82.9449 119.973C83.5065 120.361 84.0877 120.766 84.789 120.998C101.732 126.606 114.693 130.748 126.814 134.43C127.35 134.592 127.831 134.726 128.286 134.726C129.038 134.726 129.527 134.332 129.742 133.558C130.13 132.151 128.814 131.737 127.853 131.435L127.8 131.419C117.431 128.159 103.766 123.869 89.9914 119.568C88.7173 119.168 87.4489 118.822 85.982 118.42C85.3981 118.261 84.789 118.093 84.1436 117.912C86.5632 116.892 88.6615 115.688 90.6899 114.521C92.0255 113.753 93.2856 113.029 94.6155 112.365L95.6465 111.853C100.578 109.404 105.68 106.871 109.32 102.421C109.614 102.061 109.988 101.871 110.402 101.871C111.075 101.871 111.715 102.382 112.025 103.173C113.341 106.505 114.732 109.384 116.272 111.971C116.987 113.172 117.691 114.409 118.373 115.605C120.153 118.73 121.994 121.959 124.296 125.048C124.218 125.051 124.143 125.053 124.067 125.053C123.075 125.053 122.304 124.788 121.555 124.531C121.416 124.484 121.279 124.436 121.142 124.391C114.011 122.045 106.677 119.925 99.586 117.872C96.9206 117.102 94.2551 116.331 91.5924 115.546L91.327 115.465C90.9553 115.348 90.5698 115.225 90.2038 115.225C89.6701 115.225 89.2929 115.496 89.0862 116.035C88.9465 116.395 88.9409 116.711 89.0666 116.973C89.2929 117.445 89.8992 117.655 90.4301 117.836L90.6871 117.926C91.0811 118.068 91.4862 118.191 91.8802 118.308C92.3216 118.439 92.777 118.576 93.2101 118.741C96.3059 119.931 99.5441 120.869 102.673 121.774C104.367 122.266 106.118 122.771 107.826 123.313C109.195 123.746 110.558 124.19 111.924 124.634C116.124 125.997 120.468 127.408 124.824 128.497C126.934 129.025 128.096 130.112 129.393 131.807C129.594 132.07 129.764 132.366 129.929 132.65C130.027 132.818 130.125 132.986 130.228 133.15C130.993 134.357 131.812 134.969 132.661 134.969C133.511 134.969 134.349 134.332 135.101 133.075C136.327 131.025 137.931 129.022 141.329 128.24C145.9 127.19 150.423 125.704 154.796 124.269C156.028 123.864 157.28 123.456 158.537 123.054C158.464 123.674 158.389 124.294 158.316 124.914C157.679 125.118 157.039 125.322 156.405 125.525C150.261 127.497 143.905 129.536 137.607 131.388L137.534 131.41C136.797 131.625 135.961 131.871 135.626 132.488C135.45 132.81 135.433 133.198 135.576 133.645C135.808 134.368 136.274 134.72 136.998 134.72C137.456 134.72 137.945 134.58 138.417 134.446L138.562 134.405C138.716 134.36 138.867 134.31 139.021 134.256L139.155 134.212C143.963 132.595 148.914 131.112 153.7 129.679C155.095 129.26 156.497 128.838 157.903 128.413C157.777 129.472 157.651 130.531 157.525 131.589C156.953 131.989 156.344 132.36 155.693 132.701C152.125 134.566 148.814 135.474 145.57 135.474C144.097 135.474 142.6 135.284 141.122 134.91L140.854 134.84C140.278 134.689 139.624 134.519 138.926 134.519C137.995 134.519 137.205 134.826 136.512 135.455L136.252 135.689L136.556 135.868C140.454 138.172 142.617 141.574 143.541 146.87C143.508 146.867 143.474 146.861 143.444 146.859C143.262 146.836 143.131 146.822 143.069 146.783C139.227 144.432 135.724 141.935 135.025 137.306C134.83 136.005 134.332 135.136 132.555 135.136H132.435C130.58 135.175 130.398 136.307 130.239 137.306C129.49 141.968 125.847 144.546 122.178 146.783C122.086 146.839 122.005 146.867 121.935 146.867C121.907 146.867 121.838 146.867 121.737 146.789C122.463 141.848 124.785 138.22 128.831 135.7L129.222 135.455L128.809 135.245C127.973 134.821 127.121 134.617 126.202 134.617C125.422 134.617 124.707 134.759 124.017 134.899L123.757 134.952C122.22 135.254 120.712 135.407 119.273 135.407C113.626 135.407 108.79 133.148 104.481 128.503C104.4 128.413 104.322 128.318 104.244 128.223C103.894 127.802 103.498 127.324 102.78 127.324C102.657 127.324 102.525 127.341 102.391 127.369L102.201 127.411L102.179 127.595C102.003 128.98 102.159 129.95 103.495 131.399C107.834 136.105 113.576 138.393 121.047 138.393C121.309 138.393 121.575 138.39 121.84 138.385C119.912 141.038 119.194 143.887 118.499 146.649L118.454 146.822C118.141 148.065 118.183 148.839 118.594 149.336C118.918 149.727 119.46 149.917 120.256 149.917C120.547 149.917 120.868 149.892 121.242 149.844C125.227 149.317 127.697 146.691 130.085 144.152L130.259 143.968C130.96 143.222 131.522 142.379 132.114 141.488C132.301 141.206 132.491 140.921 132.689 140.633C133.838 142.859 135.335 144.705 137.258 146.267C137.459 146.431 137.66 146.596 137.861 146.761C139.47 148.093 141.136 149.47 143.505 149.789C144.097 149.87 144.578 149.906 144.969 149.906C145.799 149.906 146.333 149.727 146.648 149.347C147.07 148.839 147.084 148.004 146.701 146.456C145.975 143.527 145.209 140.873 143.304 138.237C144.061 138.309 144.815 138.348 145.55 138.348C149.434 138.348 153.119 137.337 157.098 135.178C156.184 142.842 155.268 150.506 154.357 158.171C154.147 158.182 153.938 158.19 153.731 158.204C151.68 158.33 149.864 159.061 148.235 160.343C142.971 164.486 138.051 169.047 133.452 173.985C132.578 174.926 130.717 176.021 132.013 177.479C133.441 179.088 134.57 177.119 135.537 176.158C140.085 171.636 144.684 167.184 149.663 163.173C151.057 162.05 152.53 161.391 154.268 161.315C159.548 161.084 164.79 161.38 169.953 162.639C170.783 162.843 171.772 162.832 172.085 163.407C167.455 163.407 162.664 163.363 157.872 163.438C156.69 163.458 154.768 162.944 154.737 164.826C154.706 166.636 156.626 166.228 157.83 166.438C163.111 167.362 168.489 166.96 173.786 167.728C175.225 167.938 176.315 168.334 175.86 170.34C175.365 170.34 174.918 170.343 174.471 170.34C169.137 170.287 163.798 170.616 158.467 170.125C157.64 170.049 156.615 170.091 156.478 171.234C156.346 172.326 157.274 172.669 158.095 172.929C158.531 173.066 158.992 173.105 159.439 173.208C163.89 174.233 168.402 173.775 172.895 173.848C173.747 173.862 174.764 173.513 175.351 174.652C175.144 175.923 174.521 176.49 173.214 176.624C169.939 176.965 166.662 176.834 163.387 176.97C161.792 177.038 160.194 177.183 158.607 177.381C158.003 177.456 157.383 177.78 157.38 178.579C157.38 179.345 157.928 179.738 158.545 179.858C159.515 180.048 160.507 180.205 161.493 180.216C164.888 180.258 168.285 180.233 171.842 180.233C171.09 182.383 170.699 182.83 168.576 183.258C165.659 183.841 162.719 184.461 159.766 184.66C157.014 184.844 155.058 186.123 153.304 188.187C149.16 193.064 143.667 195.678 138.051 198.044C137.557 198.253 136.911 198.329 136.322 198.463C135.545 197.779 134.844 197.039 134.226 196.206C129.689 190.092 129.585 183.205 130.144 176.205C130.175 175.828 130.424 175.459 130.605 175.102C131.466 173.393 130.795 172.259 128.923 172.689C123.318 173.976 117.496 173.848 111.899 175.166C103.822 177.071 95.7135 178.867 87.6193 180.724C86.5045 180.981 85.4009 181.291 84.3168 181.643C83.744 181.828 83.3333 182.244 83.4506 182.869C83.5652 183.484 84.0681 183.791 84.6912 183.777C85.6188 183.758 86.5688 183.73 87.4684 183.543C94.3361 182.099 101.235 180.755 108.043 179.102C114.397 177.56 120.854 176.839 127.599 176.202C127.453 177.551 127.342 178.671 127.21 179.789C126.428 186.386 127.727 192.522 131.837 198.055C132.695 199.212 133.667 200.256 134.908 201.047C135.626 202.996 137.719 202.141 139.074 201.605C142.952 200.069 146.682 198.24 150.004 195.709C149.456 200.197 148.638 206.37 148.154 210.459C147.732 214.02 148.168 214.624 151.683 215.082C160.521 216.232 169.361 217.383 178.201 218.525C178.81 220.285 179.514 222.31 180.241 224.341C180.839 226.011 181.531 227.675 182.202 229.287L182.406 229.779C182.61 230.267 183.149 231.563 184.468 231.27C184.563 231.248 184.664 231.22 184.761 231.181C186.184 230.647 185.764 229.209 185.628 228.737C185.457 228.15 185.248 227.539 184.985 226.874C184.574 225.829 184.158 224.79 183.742 223.748C183.121 222.195 182.481 220.595 181.87 219C186.871 219.645 191.869 220.288 196.871 220.925C205.828 222.067 214.794 223.156 223.763 224.218C227.884 224.704 228.219 224.396 228.697 220.243C228.789 219.453 228.879 218.659 228.971 217.869C232.153 218.098 234.486 216.769 236.196 214.165C240.488 207.635 240.175 200.396 238.677 193.218C238.043 190.17 235.087 187.358 232.558 186.606L232.564 186.615ZM220.519 220.36C219.77 220.274 219.024 220.182 218.278 220.092C196.812 217.52 175.348 214.939 153.879 212.386C151.189 212.065 151.169 212.135 151.474 209.47C152.071 204.264 152.831 197.999 153.452 192.667C153.689 192.422 153.927 192.173 154.156 191.916C156.05 189.816 158.034 188.042 161.088 187.852C164.035 187.671 166.991 187.053 169.869 186.308C173.583 185.344 174.591 183.769 174.591 179.54C176.145 179.054 177.896 178.423 178.212 176.817C178.791 173.879 179.69 170.558 178.925 167.882C177.695 163.586 175.063 160.095 170.126 159.271C165.879 158.562 161.647 158.109 157.383 158.103C158.998 143.976 160.607 129.852 162.194 115.722C162.331 114.501 162.574 112.8 160.951 112.622C159.227 112.432 159.59 114.261 159.464 115.308C159.283 116.819 159.104 118.333 158.925 119.844C153.851 121.333 148.724 122.875 143.692 124.526C143.539 124.576 143.388 124.632 143.234 124.685C142.703 124.875 142.156 125.073 141.577 125.073C141.429 125.073 141.287 125.059 141.141 125.034C141.144 125.014 141.15 124.992 141.152 124.972C141.175 124.847 141.194 124.738 141.242 124.665C145.324 118.604 149.951 111.303 153.298 103.094C153.617 102.315 154.131 101.885 154.748 101.885C155.265 101.885 155.821 102.198 156.313 102.762C158.791 105.608 161.957 107.926 166.572 110.281C167.235 110.619 167.894 110.96 168.553 111.303C167.536 111.197 166.519 111.097 165.502 111.002C164.485 110.907 163.236 110.75 163.097 112.222C162.963 113.624 164.164 113.82 165.192 114.021C165.662 114.113 166.134 114.197 166.609 114.258C181.948 116.222 197.284 118.191 212.626 120.14C220.296 121.115 227.971 122.056 235.646 122.995C236.738 123.129 237.831 123.216 237.255 124.827C236.205 127.771 236.14 130.888 235.741 133.938C233.453 151.473 231.427 169.044 229.158 186.584C223.922 187.092 218.801 188.24 213.825 189.983C211.735 190.715 210.34 192.212 210.083 194.514C210.011 195.17 209.921 195.608 209.231 196.016C204.456 198.84 204.392 201.558 209.002 204.376C209.097 205.348 208.491 206.594 209.27 207.328C211.321 209.269 212.428 211.733 213.819 214.093C214.945 216 217.476 216.498 219.698 216.945C221.382 217.283 223.101 217.35 224.808 217.45C224.28 220.785 224.087 220.765 220.513 220.349L220.519 220.36ZM233.377 211.719C231.994 214.09 230.306 214.59 227.602 214.098C225.098 213.643 222.522 213.593 220.008 213.182C218.533 212.942 216.884 212.78 215.702 210.794C218.345 210.794 220.617 210.825 222.886 210.783C224.079 210.761 225.277 210.671 226.456 210.498C227.566 210.333 228.504 209.783 228.367 208.487C228.217 207.066 227.119 206.694 225.903 206.862C222.645 207.306 219.374 207.116 216.11 207.18C215.247 207.197 214.355 207.082 213.517 206.87C212.836 206.697 212.087 206.331 212.154 205.446C212.232 204.451 213.093 204.507 213.797 204.482C217.303 204.359 220.812 204.275 224.319 204.144C225.434 204.102 226.549 203.988 227.655 203.837C228.806 203.683 230.041 203.37 229.935 201.921C229.82 200.345 228.549 200.211 227.253 200.29C222.556 200.569 217.856 200.859 213.157 201.086C211.838 201.15 210.441 201.457 208.91 200.298C210.586 198.038 213.042 198.379 215.048 198.309C219.195 198.17 223.338 198.075 227.468 197.647C228.021 197.589 228.58 197.527 229.119 197.396C229.971 197.189 230.6 196.678 230.55 195.748C230.496 194.818 229.792 194.285 228.946 194.262C227.437 194.223 225.923 194.346 224.414 194.435C221.002 194.636 217.594 194.86 214.188 195.075C213.889 193.578 214.923 193.377 215.674 193.117C220.586 191.413 225.666 190.374 230.767 189.422C231.603 189.265 232.162 189.654 232.665 190.173C233.779 191.327 234.998 192.57 235.246 194.123C236.205 200.13 236.627 206.149 233.38 211.719H233.377Z" fill="#343434"/>
<path d="M132.659 86.5679L132.812 86.6043L132.98 86.5679C136.939 85.7496 140.029 83.3951 141.915 79.7641C142.359 78.9038 142.441 78.2726 142.167 77.781C141.901 77.2811 141.292 76.9766 140.317 76.8482C138.423 76.6024 136.403 76.499 133.757 76.499H132.715L132.424 76.5046C130.088 76.5214 127.669 76.5465 125.313 76.8482C124.338 76.9738 123.729 77.2811 123.464 77.781C123.193 78.2726 123.274 78.9038 123.715 79.7641C125.601 83.3951 128.691 85.7496 132.656 86.5679H132.659ZM132.812 79.091C134.668 79.1077 136.573 79.2222 138.627 79.4261C137.16 81.7276 135.101 83.0627 132.824 83.2051C130.53 83.0599 128.47 81.7276 127.004 79.4261C129.057 79.2222 130.963 79.1077 132.812 79.091Z" fill="#343434"/>
<path d="M132.248 66.346C132.726 65.6365 132.865 64.9327 132.625 64.4104C132.424 63.9747 131.994 63.6842 131.466 63.6367C131.438 63.6367 131.41 63.6367 131.385 63.6367C131.368 63.6367 131.354 63.6367 131.34 63.6367C130.82 63.6563 130.549 63.9858 130.404 64.1646L129.84 64.8433C129.689 65.0221 129.521 65.226 129.362 65.4354C129.236 65.603 129.116 65.7762 129.01 65.9298L128.996 65.9494C128.906 66.0778 128.817 66.2119 128.697 66.3711C128.468 66.6811 128.227 67.0023 128.11 67.4353C127.934 68.0916 128.13 68.7871 128.649 69.3429C129.177 69.9099 129.946 70.1724 130.499 70.2953C130.845 70.3707 131.186 70.4015 131.516 70.4322L131.617 70.4406C131.703 70.449 131.79 70.4545 131.879 70.4601C131.997 70.4685 132.103 70.4713 132.203 70.4713C132.256 70.4713 132.307 70.4713 132.357 70.4713C132.592 70.4629 132.801 70.435 133 70.3847C134.145 70.0942 134.067 69.4099 134.017 69.2005L134.011 69.1809C133.916 68.8848 133.656 68.7061 133.421 68.5608L133.385 68.5385C133.184 68.41 132.972 68.3095 132.812 68.2369C132.673 68.1754 132.527 68.1223 132.421 68.0832C132.284 68.0358 132.156 67.9883 132.055 67.9352C131.89 67.8458 131.756 67.7285 131.667 67.5973C131.603 67.5023 131.6 67.4548 131.6 67.4548C131.6 67.3766 131.737 67.1783 131.809 67.0722C131.963 66.8487 132.111 66.6057 132.248 66.3488V66.346Z" fill="#343434"/>
<path d="M149.562 54.5477C148.35 54.5477 147.277 55.0337 146.693 55.8521L146.654 55.9051L146.229 57.0922L146.249 57.2123C146.576 59.1032 147.802 60.2316 149.532 60.2316C150.395 60.2316 151.314 59.9355 152.119 59.3992L152.211 59.3378L152.267 59.2456C153.186 57.7067 152.935 56.6369 152.56 56.0085C152.024 55.1063 150.873 54.5449 149.56 54.5449L149.562 54.5477Z" fill="#343434"/>
<path d="M118.865 55.8493C118.281 55.0337 117.208 54.5449 115.995 54.5449C114.682 54.5449 113.534 55.1063 112.995 56.0085C112.62 56.6369 112.369 57.7067 113.288 59.2456L113.344 59.3406L113.436 59.402C114.238 59.9383 115.157 60.2344 116.023 60.2344C117.753 60.2344 118.979 59.106 119.306 57.2151L119.329 57.095L118.904 55.9079L118.865 55.8549V55.8493Z" fill="#343434"/>
<path d="M118.574 45.7392C117.985 45.4767 117.359 45.3594 116.546 45.3594C116.16 45.3594 115.713 45.3845 115.137 45.4432L114.757 45.4823C113.296 45.6638 111.779 45.9906 110.561 47.1441C109.871 47.7977 109.759 48.4485 110.228 49.0769C110.491 49.4288 110.837 49.616 111.231 49.616C111.273 49.616 111.315 49.616 111.357 49.6104C111.595 49.588 111.835 49.4959 112.058 49.3478C113.059 48.6775 114.126 48.2921 115.319 48.1748C115.579 48.1496 115.847 48.1357 116.115 48.1357C116.68 48.1357 117.261 48.1915 117.895 48.3032C118.035 48.3284 118.169 48.3396 118.295 48.3396C118.356 48.3396 118.415 48.3368 118.471 48.3312C119.013 48.2781 119.37 47.9876 119.535 47.4653C119.831 46.5241 119.178 46.0074 118.577 45.7392H118.574Z" fill="#343434"/>
<path d="M154.187 49.6072C154.229 49.61 154.27 49.6128 154.312 49.6128C154.706 49.6128 155.053 49.4257 155.315 49.0737C155.785 48.4453 155.673 47.7945 154.983 47.141C153.765 45.9874 152.245 45.6606 150.789 45.4791L150.406 45.44C149.831 45.3841 149.381 45.3562 148.995 45.3562C148.182 45.3562 147.559 45.4735 146.97 45.7361C146.369 46.0042 145.712 46.5209 146.011 47.4622C146.176 47.9845 146.534 48.2749 147.076 48.328C147.132 48.3336 147.19 48.3364 147.252 48.3364C147.378 48.3364 147.512 48.3224 147.651 48.3001C148.286 48.1883 148.867 48.1353 149.431 48.1353C149.699 48.1353 149.968 48.1492 150.228 48.1744C151.423 48.2917 152.491 48.6743 153.488 49.3475C153.709 49.4955 153.952 49.5877 154.189 49.61L154.187 49.6072Z" fill="#343434"/>
<path d="M163.057 10.7421C159.138 7.37643 155.254 5.34868 151.18 4.54428C150.971 4.50239 150.747 4.48004 150.532 4.48004C149.649 4.48004 149.076 4.83755 148.995 5.43806C148.928 5.93522 149.261 6.424 149.926 6.80944C150.677 7.24516 151.501 7.53284 152.298 7.80935C152.714 7.95459 153.128 8.09983 153.533 8.26462C161.602 11.5548 168.782 20.3976 171.705 27.4305C175.737 37.1279 177.533 47.6102 176.715 56.1318C176.354 55.9726 175.966 55.8358 175.536 55.7352C174.535 55.4978 173.56 55.5592 173.23 56.6988C172.926 57.749 173.594 58.316 174.574 58.5925C175.396 58.8243 176.147 59.1204 176.606 59.9248C178.33 62.9468 177.584 66.9549 174.871 69.1418C172.471 71.0774 169.777 72.3091 166.614 72.4264C164.997 72.4879 163.957 73.175 163.424 74.7419C162.814 76.5266 162.08 78.2807 161.258 79.9816C159.699 83.2132 158.095 86.3609 155.145 88.7685C148.839 93.9133 141.457 96.9047 133.787 99.3961C133.159 99.6 132.55 99.6614 131.896 99.4519C124.221 96.9689 116.792 94.0502 110.513 88.8747C109.39 87.9502 108.429 86.9419 107.574 85.8303C107.021 84.5762 106.512 83.5651 105.982 82.6574C103.911 79.1214 103.076 75.0994 103.428 70.3596C103.774 65.6924 104.146 61.1342 104.872 56.6988C106.683 48.2247 109.549 39.8567 113.391 31.8295C114.576 29.3521 115.788 26.7015 116.459 23.9057C116.481 23.8107 116.509 23.7129 116.537 23.6152C116.702 23.0426 116.926 22.255 116.026 21.7131L115.945 21.6656L115.85 21.674C115.009 21.7578 114.699 22.3974 114.47 22.8639L114.394 23.0147C109.723 32.2429 105.646 40.6137 103.081 49.6296C102.05 53.2522 101.246 56.9809 100.695 60.7012C99.3234 67.6811 98.474 75.8926 102.374 84.1907C100.452 83.0065 98.7199 81.825 97.1049 80.5961C93.0983 77.5433 90.7542 74.3536 89.726 70.5579C88.1893 64.874 87.6277 59.76 88.0077 54.9224C88.1865 52.6573 88.5776 50.3837 88.9548 48.1828C89.1532 47.0265 89.3572 45.8311 89.5304 44.6496C91.3046 32.4971 97.5352 22.0008 108.58 12.5575C115.509 6.63348 124.567 3.38796 135.5 2.91315C136.009 2.8908 136.682 2.86566 137.347 2.86566C139.482 2.86566 141.074 3.131 142.513 3.72592C142.834 3.85999 143.184 3.98009 143.558 3.98009C144.025 3.98009 144.447 3.79575 144.843 3.4131L144.944 3.31814L144.924 3.18407C144.774 2.15902 144.019 1.69538 143.354 1.28759L143.276 1.24011C142.002 0.455267 140.535 0.0782058 138.521 0.0223449C137.965 0.00837964 137.406 0 136.858 0C119.728 0 105.607 7.76187 94.8837 23.0678C87.6165 33.4439 84.2693 46.0294 84.6548 61.5419C84.775 66.4074 85.5154 73.5241 90.5195 79.127C94.2495 83.3054 98.8959 86.4894 104.325 88.5898L104.531 88.6736C104.886 88.8188 105.286 88.9808 105.713 88.9808C105.839 88.9808 105.956 88.9641 106.074 88.9361C106.331 89.2043 106.599 89.4696 106.884 89.7182C110.089 92.5308 113.559 95.0333 117.434 96.9885C122.041 99.3123 126.987 100.801 131.759 102.72C132.516 103.024 133.315 102.921 134.081 102.597C134.852 102.267 135.634 101.949 136.431 101.686C144.055 99.1615 151.286 95.9411 157.467 90.7656C158.755 89.6847 159.825 88.4753 160.772 87.1486C160.984 87.1179 161.202 87.0648 161.426 86.9838C168.883 84.3472 173.239 80.3252 175.139 74.3257L175.17 74.2308C175.329 73.7308 175.522 73.1191 175.399 72.5437C178.561 70.4937 180.548 67.6252 180.607 63.4133C180.545 62.8351 180.537 62.1006 180.378 61.3995C180.26 60.894 180.126 60.4024 179.961 59.9331C179.961 59.9304 179.961 59.9276 179.964 59.9248C180.721 58.0842 180.78 56.1178 180.841 54.037C180.855 53.6153 180.867 53.1824 180.886 52.7411C181.537 37.3318 174.37 20.4535 163.055 10.7393L163.057 10.7421ZM163.636 82.1351C164.413 80.4732 165.092 78.7694 165.757 77.0601C166.19 75.9457 166.877 75.4122 168.014 75.334C169.378 75.2418 170.652 74.8676 171.875 74.3648C169.883 77.6662 167.126 80.2665 163.639 82.1351H163.636Z" fill="#343434"/>
<path d="M141.524 25.3213C142.714 24.0952 143.485 22.5423 143.751 20.8273C143.899 19.8693 143.611 19.2772 142.896 19.0649C142.781 19.0314 142.667 19.0146 142.558 19.0146C141.845 19.0146 141.524 19.7436 141.387 20.0537C140.275 22.5842 138.249 24.2823 136.106 26.081L136.031 26.1453C130.192 31.0527 123.411 34.8624 115.883 37.4739C115.685 37.5437 115.484 37.6079 115.28 37.6722C114.322 37.9766 113.327 38.2922 112.399 39.1525L112.106 39.4234L112.472 39.591C113.45 40.0407 114.14 40.2837 114.978 40.2837C115.487 40.2837 116.062 40.1971 116.9 39.996C125.998 37.809 134.05 33.0106 141.521 25.3241L141.524 25.3213Z" fill="#343434"/>
<path d="M170.015 55.1961C170.517 54.4699 169.947 53.8974 169.604 53.5538L169.548 53.498C165.949 49.8698 164.033 45.2557 162.518 41.2197L161.839 39.4098C160.895 36.8877 159.951 34.3684 158.975 31.8183C158.718 31.148 158.4 30.3129 157.293 30.2068L157.238 30.2012L157.184 30.2179C155.997 30.5754 156.195 31.5307 156.343 32.268C157.103 35.9828 158.403 39.6054 159.548 42.8006C161.074 47.0516 162.633 50.1491 164.608 52.8472C165.421 53.9588 166.424 55.185 168.07 55.6709C168.358 55.7575 168.609 55.7966 168.838 55.7966C169.341 55.7966 169.735 55.5955 170.012 55.1961H170.015Z" fill="#343434"/>
<path d="M156.022 24.252C155.799 24.104 155.564 24.0286 155.329 24.0286C154.801 24.0286 154.388 24.3972 154.089 24.7157C153.848 24.9726 153.63 25.2519 153.421 25.5228L153.197 25.8077C148.956 31.1452 143.234 34.1254 136.19 34.6701C135.405 34.7315 134.575 34.8153 133.564 34.941C133.086 34.9996 132.365 35.089 132.245 35.8431C132.094 36.7928 133.002 37.167 133.301 37.2899C134.262 37.6838 135.263 37.7368 136.375 37.762H136.394C141.845 37.4855 146.654 35.7845 150.688 32.7066C153.074 30.8855 154.949 28.6874 156.257 26.1792C156.447 25.8189 156.947 24.8609 156.019 24.252H156.022Z" fill="#343434"/>
<path d="M167.226 56.3828C166.17 56.3828 165.949 57.3827 165.787 58.1117L165.734 58.3435C165.337 60.0138 164.971 61.698 164.647 63.3431C164.413 64.5301 164.837 65.3317 165.815 65.5468C165.972 65.5803 166.122 65.5971 166.265 65.5971C167.123 65.5971 167.704 64.991 167.902 63.8905C168.123 62.6727 168.307 61.4578 168.472 60.388C168.534 59.9886 168.59 59.6116 168.648 59.2261C168.648 59.0306 168.651 58.8379 168.657 58.6536C168.682 57.6481 168.71 56.6062 167.525 56.4107C167.419 56.394 167.318 56.3856 167.226 56.3856V56.3828Z" fill="#343434"/>
<path d="M194.292 92.1563C194.023 92.0529 193.766 92.0445 193.543 92.0389C193.484 92.0389 193.437 92.0362 193.392 92.0334C191.478 91.9244 190.374 91.3547 189.701 90.1201C189.321 89.4247 189.176 88.6259 189.07 87.9332C189.017 87.5785 188.977 87.207 188.944 86.8467C188.924 86.6456 188.905 86.4501 188.882 86.2546L188.877 86.1875C188.852 85.9445 188.776 85.21 187.969 85.21H187.935C187.103 85.2351 187.05 85.9976 187.033 86.2462L187.027 86.3216C186.949 87.369 186.871 88.4499 186.505 89.4163C185.96 90.8575 185.147 91.6172 183.948 91.8071C183.778 91.8351 183.61 91.8658 183.443 91.8993C183.054 91.9747 182.688 92.0445 182.322 92.0445H182.185C181.302 92.0445 181.084 92.5892 181.034 92.916L181.023 92.9858L181.031 93.0556C181.065 93.3265 181.244 93.9522 182.168 93.9522H182.252C182.652 93.9522 183.049 94.0276 183.471 94.1058C183.644 94.1393 183.82 94.1728 183.996 94.2008C185.133 94.3823 185.896 95.0778 186.468 96.4603C186.832 97.3318 186.918 98.3317 187.002 99.2953L187.022 99.5159C187.024 99.555 187.027 99.5941 187.027 99.6332C187.033 99.7478 187.038 99.8706 187.066 100.002C187.214 100.678 187.675 100.787 187.938 100.792H187.958C188.449 100.792 188.796 100.463 188.863 99.9349C188.905 99.6053 188.938 99.2729 188.972 98.9517C189.003 98.6557 189.033 98.3512 189.072 98.0496C189.246 96.6363 189.698 95.6336 190.495 94.8934C190.891 94.5248 191.266 94.3209 191.677 94.2482C191.878 94.2119 192.076 94.17 192.269 94.1281C192.702 94.036 193.11 93.9466 193.518 93.9466C193.568 93.9466 193.618 93.9466 193.669 93.9522C193.688 93.9522 193.708 93.9522 193.727 93.9522C193.94 93.9522 194.132 93.8879 194.272 93.8405C194.672 93.7064 194.906 93.3629 194.887 92.9439C194.867 92.5752 194.655 92.2847 194.297 92.1479L194.292 92.1563ZM188.67 94.1142C188.399 94.4466 188.164 94.8013 187.958 95.1951C187.488 94.2957 186.857 93.5723 186.041 92.9998C186.848 92.4328 187.474 91.7122 187.952 90.81C188.419 91.7038 189.047 92.4244 189.869 93.0053C189.413 93.3265 189.019 93.6896 188.67 94.117V94.1142Z" fill="#343434"/>
<path d="M208.34 75.5879C208.036 75.4706 207.748 75.4622 207.491 75.4538C207.424 75.4538 207.371 75.451 207.317 75.4482C205.149 75.3253 203.898 74.6773 203.135 73.2836C202.705 72.496 202.54 71.591 202.42 70.8062C202.358 70.404 202.316 69.9822 202.277 69.5772C202.255 69.351 202.232 69.1276 202.207 68.9069L202.199 68.8315C202.171 68.5578 202.087 67.7227 201.171 67.7227H201.132C200.187 67.7506 200.128 68.6136 200.109 68.8985L200.103 68.9823C200.017 70.1666 199.925 71.3927 199.511 72.4876C198.894 74.1187 197.974 74.979 196.614 75.1968C196.421 75.2276 196.231 75.2639 196.041 75.3002C195.602 75.384 195.186 75.4622 194.772 75.4622H194.619C193.618 75.4622 193.373 76.0795 193.314 76.4481L193.303 76.5263L193.314 76.6045C193.353 76.909 193.554 77.6212 194.602 77.6212H194.697C195.15 77.6212 195.599 77.705 196.077 77.7944C196.276 77.8307 196.471 77.8698 196.672 77.9005C197.958 78.1044 198.824 78.8948 199.475 80.4617C199.885 81.4505 199.983 82.5817 200.078 83.6737L200.101 83.9251C200.103 83.9698 200.106 84.0145 200.109 84.0592C200.115 84.1877 200.12 84.3273 200.154 84.4781C200.321 85.2434 200.844 85.3663 201.143 85.3719H201.162C201.718 85.3719 202.112 85.0004 202.188 84.4027C202.235 84.0285 202.274 83.6514 202.311 83.2883C202.344 82.9531 202.38 82.6096 202.422 82.266C202.621 80.6656 203.132 79.5317 204.035 78.6909C204.484 78.2748 204.909 78.0402 205.376 77.9592C205.605 77.9201 205.828 77.8698 206.046 77.8251C206.535 77.719 206.999 77.6212 207.46 77.6212C207.516 77.6212 207.575 77.6212 207.63 77.6268C207.653 77.6268 207.675 77.6268 207.697 77.6268C207.938 77.6268 208.156 77.5542 208.315 77.5011C208.768 77.3503 209.033 76.9621 209.011 76.4844C208.991 76.0683 208.748 75.7387 208.343 75.5823L208.34 75.5879ZM201.973 77.8028C201.665 78.1798 201.4 78.582 201.165 79.0289C200.631 78.0094 199.919 77.1911 198.994 76.5403C199.908 75.8979 200.62 75.0823 201.159 74.0601C201.688 75.0739 202.4 75.8895 203.33 76.5459C202.814 76.909 202.366 77.3224 201.973 77.8055V77.8028Z" fill="#343434"/>
</svg>
