<svg width="320" height="308" viewBox="0 0 320 308" fill="none" xmlns="http://www.w3.org/2000/svg">
<path d="M286.46 108.693C278.604 97.385 267.708 87.64 253.385 84.9841C237.537 82.0455 220.693 81.644 206.043 76.0257C196.964 72.5439 189.216 67.2261 180.472 63.2423C144.583 46.8936 97.1583 54.8176 73.7517 87.4453C68.6485 94.559 64.7023 102.687 57.8906 108.274C53.0246 112.264 46.9763 114.702 42.1494 118.738C34.6141 125.038 30.8347 134.502 27.3361 143.565C19.7251 163.281 9.97901 191.424 29.2002 207.983C42.3032 219.272 42.5212 218.009 58.2116 226.99C74.9771 236.586 172.965 245.921 199.799 235.262C226.632 224.602 241.169 228.128 264.902 213.567C292.963 196.35 308.281 162.966 299.551 135.627C296.526 126.085 292.118 117.015 286.46 108.693Z" fill="#FAF7DE"/>
<path d="M283.445 143.01C282.025 137.18 279.465 131.49 276.685 126.19C273.825 120.75 270.375 115.76 266.325 111.15C262.905 107.25 259.265 102.79 254.365 100.74C254.155 100.65 253.965 100.53 253.775 100.38C248.335 103.42 219.815 119.33 217.985 120.25C215.955 121.26 216.975 121.71 218.445 125.2C219.915 128.69 215.175 127.9 210.895 129.58C206.615 131.26 206.955 132.4 206.955 132.74C206.955 133.08 202.345 135.33 199.645 134.77C196.945 134.21 189.965 129.37 185.125 125.43C180.285 121.49 175.105 119.47 170.155 119.69C165.205 119.92 164.645 121.72 162.165 124.64C159.685 127.57 155.415 129.59 151.925 128.69C148.435 127.79 145.735 127.9 140.675 128.8C135.615 129.7 121.655 133.64 118.915 133.04C116.165 132.44 117.155 133.15 115.185 133.04C113.205 132.93 113.895 131.18 113.895 131.18L100.745 127.62L102.025 121L73.2051 105.69C72.9351 105.23 72.5051 104.82 71.8551 104.5C69.3951 103.3 66.9251 102.09 64.4451 100.87C59.9751 103.79 55.7051 106.44 52.3351 110.7C49.3351 114.5 47.0151 118.8 44.9251 123.15C40.3851 132.57 36.3751 142.5 35.2151 152.95L88.0151 178.75L89.8151 169.63C89.8151 169.63 103.545 174.02 108.155 175.13C112.765 176.24 114.705 175.88 117.275 177.41C119.845 178.94 122.565 181.33 131.005 186.55C139.445 191.77 146.535 194.61 152.275 193.37C158.015 192.13 154.635 191.34 158.465 188.64C162.295 185.94 162.405 189.43 168.035 191.12C173.665 192.81 174.335 190.78 181.085 188.42C187.835 186.06 184.575 185.16 189.835 182.12C195.095 179.08 210.915 172.55 212.145 171.88C213.385 171.2 216.985 171.32 216.985 171.32L229.705 169.86L231.395 177.06L284.215 151.68C284.165 148.77 284.155 145.86 283.455 142.99L283.445 143.01Z" fill="white"/>
<path d="M36.3752 153.3C40.2552 155.64 44.2151 157.85 48.2251 159.94C48.2751 159.96 48.3151 159.98 48.3651 159.99C48.4251 160.03 48.4851 160.06 48.5451 160.1C52.9251 162.37 57.3751 164.52 61.8651 166.57C66.9751 168.9 72.0851 171.32 77.3051 173.39C78.2351 173.76 79.1751 174.1 80.1151 174.43C80.6651 173.56 81.0551 172.47 81.1852 171.23C81.9752 162.46 84.7251 138.39 87.0751 134.6L52.2851 110.74C46.8851 117.4 42.9851 125.9 39.9851 134.22C38.5351 136.98 37.4451 139.91 36.7051 142.96C36.1251 145.37 34.8751 149.79 35.7851 152.25C35.9251 152.64 36.1351 152.98 36.3651 153.32L36.3752 153.3Z" fill="#CEE8F7"/>
<path d="M278.665 130.16C278.025 128.82 277.365 127.49 276.685 126.19C273.825 120.75 270.375 115.76 266.325 111.15C265.445 110.14 264.545 109.1 263.615 108.07L223.705 131.68C226.425 135.43 229.625 159.54 230.535 168.31C231.015 172.49 234.885 174.91 238.195 173.11C238.305 173.04 238.415 172.98 238.525 172.92C238.595 172.9 238.655 172.9 238.715 172.87C246.055 170.36 253.145 166.84 260.275 163.78C263.695 162.31 267.155 160.89 270.525 159.29C272.145 158.52 273.745 157.71 275.285 156.79C276.645 155.99 279.065 153.53 280.715 153.67C282.525 153.82 284.075 152.01 284.075 150.31C284.055 143.22 282.425 136.19 278.655 130.15L278.665 130.16Z" fill="#CEE8F7"/>
<path d="M287.945 150.34C287.505 149.42 286.755 148.95 285.735 148.95C285.035 148.95 284.325 149.18 283.775 149.37C281.505 150.19 279.295 151.13 277.225 152.17C274.545 153.51 271.865 154.86 269.195 156.21L269.005 156.31C258.405 161.67 247.435 167.22 236.225 171.75C235.975 171.85 235.735 171.98 235.485 172.12C235.035 172.36 234.615 172.59 234.145 172.62L233.595 172.66L233.615 172.11C234.125 153.99 229.815 138.42 220.445 124.52L220.185 124.14L220.545 123.85C221.305 123.24 222.115 122.89 222.975 122.53L223.315 122.38C231.145 118.98 238.385 114.33 245.425 109.81C248.335 107.94 251.345 106.01 254.355 104.19C255.345 103.59 256.525 102.75 256.795 101.53C256.955 100.8 256.775 100.05 256.255 99.28C255.685 98.43 254.935 98 254.045 98C253.055 98 252.035 98.54 251.215 98.98C246.535 101.47 241.905 104.22 237.425 106.87C230.825 110.78 224.005 114.83 216.915 118.12C212.275 120.27 212.055 122.04 213.335 125.44L213.595 126.13H212.605C212.255 126.12 211.915 126.13 211.575 126.16C207.575 126.57 205.005 127.84 203.945 129.93C203.485 130.84 203.325 131.91 203.475 133.13L203.655 134.58V134.52L204.325 136.04C204.635 136.75 204.975 137.42 205.355 138.07C211.755 148.9 214.755 159.16 214.535 169.44C214.535 169.87 214.535 170.26 214.565 170.64L213.635 170.92C213.055 169.92 212.135 169.36 211.055 169.36C210.645 169.36 210.225 169.44 209.795 169.59C208.825 169.93 207.895 170.41 206.995 170.87C206.615 171.06 206.235 171.26 205.855 171.44L195.975 176.21L196.435 175.02C196.715 174.32 196.965 173.56 196.965 172.79C196.955 165.64 195.985 156.56 188.575 149.85C185.055 146.66 181.065 143.55 176.035 140.06L175.765 139.87L175.835 139.54C176.215 137.75 176.105 136.55 175.485 135.75C174.605 134.6 172.765 134.42 171.075 134.38H170.825C167.545 134.38 164.655 135.69 161.995 138.4C160.245 140.17 158.655 141.04 157.115 141.04C155.575 141.04 154.095 140.23 152.435 138.57L152.115 138.25L152.405 137.9C157.565 131.74 162.495 127.3 167.915 123.95C168.545 123.56 168.975 123.4 169.415 123.4C169.555 123.4 169.705 123.42 169.845 123.45L171.155 123.77C174.145 124.49 176.965 125.16 179.505 126.82C184.565 130.12 189.525 133.3 194.245 136.28C195.715 137.21 197.325 138.12 199.145 138.5C199.615 138.6 200.035 138.65 200.425 138.65C201.855 138.65 202.835 137.95 203.265 136.63C203.315 136.47 203.345 136.3 203.375 136.14L203.645 134.62L202.615 133.52C202.225 133.11 201.745 132.78 201.195 132.56C196.055 130.47 191.485 127.22 187.025 124.05C186.135 123.42 185.245 122.78 184.355 122.16C179.385 118.7 175.245 117.08 171.335 117.08C167.225 117.08 163.105 118.86 158.365 122.68C158.325 122.71 158.285 122.74 158.225 122.78C158.095 122.87 157.915 122.99 157.785 123.17C156.435 125.11 154.625 126.01 152.095 126.01C151.185 126.01 150.195 125.9 148.985 125.66C147.255 125.32 145.455 125.14 143.645 125.14C137.455 125.14 131.595 127.15 125.935 129.1C123.665 129.88 121.305 130.69 118.965 131.35C118.215 131.56 117.675 132 117.405 132.6L116.445 132.39C116.445 132.08 116.415 131.8 116.355 131.54C116.055 130.29 115.035 129.2 113.155 128.12C110.795 126.76 108.555 126.09 106.305 126.06H105.565L105.845 125.37C107.185 122.08 106.555 120.63 102.755 118.3L102.375 118.06C101.975 117.81 101.565 117.54 101.115 117.34C93.4152 113.88 85.6851 109.59 76.7651 103.84C74.6451 102.47 72.3752 101.29 70.1752 100.14L70.0751 100.09C69.3351 99.7 68.5952 99.31 67.8552 98.92C67.0252 98.48 66.0652 98 65.1252 98C64.1852 98 63.4151 98.47 62.8451 99.39C62.3851 100.13 62.2351 100.87 62.4051 101.58C62.6251 102.5 63.3752 103.32 64.6752 104.09C67.7452 105.91 70.7951 107.89 73.7651 109.82C78.2351 112.73 82.8651 115.74 87.7051 118.27C90.3551 119.65 93.0252 121 95.7952 122.4L99.1752 124.11L98.8251 124.59C93.1451 132.29 90.2552 140.71 88.3752 147.18C85.7552 156.18 85.4852 165.28 85.5452 172.21V172.98L84.8451 172.67C83.2951 171.98 81.7752 171.32 80.2851 170.67C76.1152 168.85 72.1651 167.12 68.2851 165.25C61.8551 162.15 55.3452 158.92 49.0552 155.79L48.9551 155.74C45.4851 154.01 42.0051 152.28 38.5352 150.57C37.1351 149.88 35.4852 149.14 33.6652 149.09H33.5051C32.8351 149.09 31.8851 149.2 31.3351 150.14C30.8051 151.05 30.9052 152 31.6252 152.96C32.3852 153.97 33.4152 154.8 34.8652 155.59L37.7952 157.16C39.7952 158.23 41.7952 159.31 43.7952 160.4C57.5052 167.88 71.6952 174.65 85.9752 180.53C87.1252 181 88.0151 181.22 88.7851 181.22C90.5551 181.22 91.5952 180.03 92.1752 177.37C92.3952 176.36 92.4352 175.35 92.4752 174.27V174.08L92.6152 173.44L93.2551 173.67C95.5651 174.51 97.9951 174.88 100.345 175.24C103.685 175.75 106.835 176.23 109.765 177.91C110.225 178.17 110.745 178.31 111.265 178.31C112.175 178.31 113.005 177.92 113.605 177.22L114.715 175.92L114.465 177.74C114.445 177.88 114.425 178.03 114.415 178.17C114.285 179.43 114.685 180.5 115.595 181.34C117.545 183.14 119.975 185.37 122.845 186.71L126.965 188.61C131.265 190.6 135.725 192.65 140.085 194.76C143.195 196.26 146.135 197.03 148.805 197.03C151.925 197.03 154.725 196 157.145 193.96C158.605 192.72 159.845 192.17 161.175 192.17C161.805 192.17 162.465 192.3 163.185 192.55C166.065 193.58 168.895 194.1 171.585 194.1C177.495 194.1 183.085 191.57 188.175 186.6L188.515 186.26C189.095 185.67 189.645 185.11 190.385 185.02C193.575 184.63 196.355 183.22 199.055 181.85C200.685 181.02 202.375 180.16 204.125 179.55C206.415 178.75 208.555 177.48 210.635 176.24C211.205 175.9 211.785 175.56 212.355 175.23C213.325 174.67 213.915 173.9 214.065 173.01L214.345 171.29L215.015 172.9C215.215 173.38 215.475 173.78 215.795 174.11C216.545 174.88 217.615 175.25 219.075 175.25C219.705 175.25 220.395 175.18 221.195 175.05C222.615 174.8 223.985 174.38 225.435 173.94L226.165 173.72L226.825 173.65L226.805 174.34C226.735 177.33 227.155 179.12 228.165 180.14C228.775 180.76 229.595 181.08 230.625 181.08C231.715 181.08 233.055 180.73 234.745 180.02C249.755 173.63 265.645 165.83 283.325 156.17C284.295 155.64 285.325 155.05 286.245 154.32C287.555 153.28 288.765 152.12 287.945 150.4V150.34ZM98.0151 167.82V168.43L97.4051 168.3C96.9351 168.2 96.4752 168.07 95.9852 167.93C94.9752 167.65 93.9351 167.36 92.7751 167.33H92.2851V166.83C92.3751 153.94 95.6751 141.99 102.385 130.29L102.765 129.62L103.215 130.24C104.135 131.5 105.525 131.87 106.745 132.21C107.485 132.41 108.175 132.6 108.755 132.95L109.185 133.21L108.925 133.64C101.595 145.67 98.1251 156.53 98.0051 167.82H98.0151ZM121.325 177.43L120.995 177.2C120.705 177 120.375 176.65 120.015 176.15L119.795 175.86L120.005 175.56C123.265 171.03 126.955 165.9 133.485 164.8L135.125 164.53L121.325 177.43ZM131.655 183.36C130.975 183.36 130.065 182.81 128.615 181.79L128.135 181.45L142.145 166.93L142.465 167.08C143.455 167.53 144.615 168.11 145.655 168.92L146.175 169.33L145.645 169.72C141.285 172.93 137.905 176.87 135.075 180.3C133.335 182.42 132.525 183.36 131.655 183.36ZM143.245 185.42C142.685 186.13 142.105 186.86 141.505 187.56L141.265 187.83L140.935 187.69C140.095 187.34 139.465 186.99 138.915 186.55L138.535 186.25L138.815 185.86C141.805 181.78 145.375 178.29 148.785 175.12L149.315 174.63L150.965 178.61L150.525 178.81C147.305 180.28 145.235 182.89 143.235 185.41L143.245 185.42ZM152.485 189.08C151.915 189.84 151.115 190.16 149.795 190.16C149.425 190.16 149.035 190.14 148.625 190.1L147.735 190.03L148.265 189.31C149.335 187.87 150.545 186.54 152.075 185.15L152.725 184.56L152.905 185.41C153.255 187.06 153.125 188.23 152.495 189.08H152.485ZM166.315 186.57C164.345 186.24 162.105 185.87 160.205 184.94C159.085 184.39 159.035 182.6 159.005 181.17L158.985 180.17L166.695 185.67L166.325 186.57H166.315ZM188.655 165.4C188.565 165.3 188.475 165.19 188.325 165.01C188.145 164.79 187.965 164.57 187.775 164.37C182.815 159.09 177.065 154.18 170.685 149.75C169.665 149.04 168.825 148.71 168.045 148.71C167.455 148.71 166.615 148.92 165.905 149.91C164.645 151.68 165.875 153.09 167.115 154.26C168.105 155.19 169.165 156.12 170.375 157.12C176.785 162.38 182.475 168.26 186.705 172.79C188.415 174.62 188.645 176 187.475 177.41L187.185 177.76L181.885 174.08C176.855 170.58 171.645 166.96 166.475 163.42C165.695 162.89 164.515 162.18 163.315 162.18C162.635 162.18 161.665 162.42 160.865 163.57C159.345 165.75 161.055 167.25 162.785 168.47C164.555 169.72 166.295 171.07 168.015 172.4C171.185 174.85 174.465 177.38 178.045 179.42C179.315 180.15 180.755 181.07 181.815 182.44L182.095 182.8L181.755 183.11C180.295 184.44 179.525 185.07 178.795 185.07C178.065 185.07 177.085 184.43 175.465 183.37C170.525 180.13 166.165 177.26 162.135 174.57C160.905 173.75 159.575 172.94 158.085 172.94C157.565 172.94 157.035 173.04 156.515 173.24L156.095 173.4L155.885 173C155.715 172.66 155.565 172.36 155.425 172.06C155.315 171.83 155.215 171.59 155.095 171.29C154.935 170.89 154.765 170.48 154.545 170.07C150.805 163.02 144.405 158.98 136.025 158.38C135.725 158.36 135.435 158.35 135.135 158.35C127.375 158.35 118.295 165.58 115.305 174.15L114.765 175.7L114.345 174.12C114.045 172.99 113.055 172.19 111.475 171.81C109.815 171.41 108.355 170.65 106.785 169.85C106.195 169.55 105.595 169.24 104.975 168.95L104.695 168.82V168.51C104.655 166.39 104.615 163.98 105.015 161.72C106.675 152.34 110.075 143.63 115.135 135.83C115.655 135.03 116.005 134.3 116.215 133.61L117.195 133.72V133.82C117.195 133.82 117.195 133.91 117.205 133.96C117.375 135.14 118.015 135.93 119.145 136.38C119.625 136.57 120.115 136.66 120.655 136.66C121.495 136.66 122.295 136.43 123.065 136.21C125.185 135.6 127.305 135.01 129.435 134.41C132.585 133.53 135.845 132.61 139.035 131.67C140.165 131.34 141.325 131.17 142.585 131.17C144.365 131.17 146.175 131.51 147.715 131.84L148.465 132.06L147.965 132.69C147.405 133.38 146.925 133.99 146.455 134.59C145.325 136.04 145.135 137.5 145.855 139.35C147.725 144.18 152.165 147.3 157.175 147.29C160.435 147.29 163.525 145.95 165.875 143.51L166.005 143.37C167.275 142.05 168.465 140.81 170.545 140.81L171.185 140.83L171.155 141.35C171.015 143.5 172.585 144.8 173.975 145.95C178.255 149.49 181.505 152.25 184.485 154.89C187.935 157.93 188.985 161.88 189.525 164.98L189.825 166.73L188.655 165.4ZM226.475 167.25C225.225 167.36 224.075 167.68 222.865 168.02C222.525 168.12 222.185 168.21 221.825 168.3L221.205 168.46V167.82C221.015 156.37 217.525 145.5 210.225 133.61L209.975 133.2L210.375 132.93C210.945 132.55 211.655 132.36 212.405 132.16C213.625 131.83 215.015 131.46 215.945 130.18L216.405 129.56L216.785 130.23C223.405 141.91 226.725 153.85 226.925 166.73V167.2L226.465 167.24L226.475 167.25Z" fill="#343434"/>
</svg>
