<svg width="320" height="320" viewBox="0 0 320 320" fill="none" xmlns="http://www.w3.org/2000/svg">
<rect width="320" height="320" fill="white"/>
<path d="M282.843 150.693C275.181 139.385 264.553 129.64 250.583 126.984C235.126 124.046 218.697 123.644 204.408 118.026C195.553 114.544 187.996 109.226 179.467 105.242C144.463 88.8936 98.2072 96.8176 75.3776 129.445C70.4001 136.559 66.5512 144.687 59.9074 150.274C55.1613 154.264 49.2621 156.702 44.5542 160.738C37.2046 167.038 33.5184 176.502 30.106 185.565C22.6826 205.281 13.1767 233.424 31.9241 249.983C44.7042 261.272 44.9168 260.009 60.2205 268.99C76.5727 278.586 172.145 287.921 198.318 277.262C224.49 266.602 238.669 270.128 261.816 255.567C289.186 238.35 304.126 204.966 295.611 177.627C292.661 168.085 288.362 159.015 282.843 150.693Z" fill="#FAF7DE"/>
<g clip-path="url(#clip0_148_2652)">
<path d="M183.711 165.075V175.016L183.797 175.472C173.824 177.194 165.128 184.088 162.229 189.984H161.986C158.944 183.789 149.486 176.483 138.896 175.258L139.01 174.233V165.973L139.426 165.602C144.405 170.914 151.466 174.901 161.381 174.574C171.785 174.233 178.858 170.201 183.666 165.033L183.71 165.076L183.711 165.075Z" fill="#FFEBD7"/>
<path d="M215.482 200.064C214.994 196.817 213.918 193.614 212.124 190.537C210.359 187.518 208.465 185.026 206.456 182.975L206.657 182.775C218.611 186.406 230.908 191.077 236.174 199.935C239.015 204.721 252.189 258.752 256.206 280.2V280.214H223.977L215.927 265.346L213.458 265.446L213.444 264.976C213.444 264.976 213.187 263.638 212.713 261.729L213.029 261.643C212.254 259.122 226.919 234.97 227.565 231.907C228.786 226.097 223.964 209.448 223.964 209.448C223.964 209.448 219.989 196.546 217.235 198.07C216.158 198.655 215.643 199.309 215.485 200.064H215.482Z" fill="#CBD4DF"/>
<path d="M108.72 200.094C108.576 199.325 108.06 198.655 106.97 198.058C104.229 196.534 100.24 209.436 100.24 209.436C100.24 209.436 95.4329 226.083 96.6531 231.895C97.2984 234.958 111.965 259.11 111.19 261.631L111.506 261.716C111.032 263.625 110.774 264.963 110.774 264.963L110.76 265.433L108.278 265.334L100.242 280.201V280.215H64.7937C69.5435 258.483 85.2427 205.605 88.3269 201.019C94.1532 192.333 104.829 187.746 115.463 184.442L116.008 184.884C114.644 186.521 113.34 188.387 112.091 190.523C110.284 193.628 109.193 196.833 108.72 200.094Z" fill="#CBD4DF"/>
<path d="M256.205 281.98C255.356 281.98 254.603 281.381 254.444 280.525C250.408 258.983 237.285 205.313 234.629 200.841C229.715 192.576 218.03 188.094 206.132 184.479C205.185 184.191 204.652 183.195 204.943 182.255C205.234 181.316 206.234 180.789 207.184 181.075C219.772 184.899 232.184 189.722 237.72 199.035C240.845 204.294 254.061 259 257.97 279.876C258.153 280.842 257.509 281.77 256.536 281.95C256.425 281.97 256.314 281.981 256.206 281.981L256.205 281.98Z" fill="#343434"/>
<path d="M64.7953 281.995C64.6687 281.995 64.5422 281.983 64.4141 281.955C63.4453 281.746 62.8298 280.8 63.0407 279.838C67.4967 259.443 83.4288 205.094 86.8364 200.03C93.2627 190.446 105.223 185.758 114.926 182.742C115.873 182.452 116.876 182.972 117.174 183.91C117.469 184.848 116.943 185.845 115.998 186.141C106.859 188.981 95.6266 193.349 89.8222 202.004C87.1208 206.017 71.5903 257.51 66.5468 280.59C66.364 281.425 65.6218 281.994 64.7953 281.994V281.995Z" fill="#343434"/>
<path d="M183.711 176.794C182.721 176.794 181.918 175.997 181.918 175.014V165.073C181.918 164.09 182.721 163.293 183.711 163.293C184.702 163.293 185.505 164.09 185.505 165.073V175.014C185.505 175.997 184.702 176.794 183.711 176.794Z" fill="#343434"/>
<path d="M139.01 176.011C138.02 176.011 137.217 175.214 137.217 174.231V165.97C137.217 164.986 138.02 164.189 139.01 164.189C140.001 164.189 140.804 164.986 140.804 165.97V174.231C140.804 175.214 140.001 176.011 139.01 176.011Z" fill="#343434"/>
<path d="M121.663 228.605C122.782 228.121 124.361 228.734 125.452 229.061C129.327 230.242 132.569 232.464 132.211 237.136C131.909 240.952 126.169 235.313 125.567 235.114C123.644 234.545 123.013 237.364 123.558 238.589C124.549 240.825 128.02 241.48 129.7 243.075C131.68 244.941 133.029 247.504 133.575 250.225C134.25 253.585 133.704 257.189 131.665 260.037L131.508 260.293C130.962 262.444 131.422 265.705 131.494 266.232L110.759 265.435L110.773 264.965C110.773 264.965 111.031 263.627 111.504 261.718L111.188 261.633C111.963 259.112 97.2984 234.959 96.6515 231.897C95.4313 226.087 100.239 209.438 100.239 209.438C100.239 209.438 104.228 196.535 106.968 198.059C108.059 198.658 108.576 199.326 108.718 200.095C109.177 202.217 106.839 205.081 106.279 209.182C105.576 214.308 105.375 217.171 105.346 217.67C106.437 213.939 108.117 210.435 110.082 209.58C111.904 208.797 113.841 208.855 115.721 208.996C116.897 209.095 118.965 209.081 119.925 209.765C121.533 210.891 122.092 212.144 123.183 213.624L123.097 214.336C126.009 214.721 128.752 215.846 128.578 218.053C128.334 221.129 123.642 219.264 122.178 220.787C120.499 222.539 120.786 225.657 120.428 227.893L120.988 228.962C121.203 228.833 121.433 228.706 121.663 228.605Z" fill="#FFEBD7"/>
<path d="M201.017 213.637C202.121 212.156 202.667 210.903 204.274 209.777C205.235 209.093 207.316 209.093 208.479 209.008C210.373 208.865 212.31 208.794 214.133 209.593C216.071 210.447 217.749 213.879 218.839 217.554C218.796 216.812 218.596 213.993 217.935 209.194C217.375 205.065 214.993 202.187 215.48 200.066C215.638 199.311 216.155 198.656 217.23 198.072C219.985 196.547 223.959 209.45 223.959 209.45C223.959 209.45 228.781 226.097 227.561 231.909C226.916 234.971 212.249 259.124 213.024 261.645L212.708 261.73C213.182 263.639 213.44 264.977 213.44 264.977L213.454 265.447L192.703 266.244C192.789 265.717 193.248 262.456 192.689 260.305L192.531 260.034C190.508 257.199 189.963 253.597 190.638 250.236C191.183 247.516 192.531 244.953 194.512 243.086C196.192 241.49 199.65 240.836 200.654 238.6C201.186 237.361 200.568 234.556 198.645 235.125C198.028 235.31 192.303 240.965 192.002 237.133C191.642 232.477 194.886 230.255 198.747 229.073C199.55 228.831 200.612 228.433 201.559 228.433L203.768 227.905C203.424 225.669 203.696 222.551 202.018 220.799C200.568 219.275 195.862 221.14 195.633 218.065C195.461 215.857 198.187 214.747 201.1 214.362L201.014 213.637H201.017Z" fill="#FFEBD7"/>
<path d="M171.026 148.995C171.026 148.995 169.662 159.321 160.22 159.321C150.779 159.321 149.085 148.995 149.085 148.995C149.085 148.995 154.51 150.135 159.963 150.135C165.415 150.135 170.912 148.995 170.912 148.995H171.026Z" fill="#ECA4A6"/>
<path d="M153.347 107.212C152.357 107.71 176.809 103.709 180.727 93.2273L181.015 93.2847C180.298 97.1581 187.989 119.161 194.833 123.376L194.905 124.046C197.889 122.052 201.118 123.391 203.17 125.869C204.217 127.152 204.95 128.732 205.149 130.313C206.196 138.302 201.059 142.76 194.216 146.021L193.025 145.878C191.963 150.949 189.466 158.824 183.669 165.033C178.862 170.203 171.787 174.233 161.384 174.574C151.469 174.901 144.409 170.914 139.429 165.602C133.115 158.88 130.131 150.065 128.883 145.236L127.463 145.008C117.69 145.008 112.668 130.895 117.604 126.054C118.622 125.043 120.086 124.444 122.01 124.444L125.999 124.002C132.169 111.726 157.669 97.5845 158.831 97.5845C160.209 97.5845 154.828 106.485 153.35 107.212H153.347ZM178.073 129.229C178.216 127.705 176.968 126.353 175.288 126.196C173.609 126.04 172.146 127.15 172.003 128.674C171.859 130.198 173.107 131.551 174.773 131.707C176.452 131.85 177.93 130.738 178.073 129.229ZM171.026 148.996H170.912C170.912 148.996 165.431 150.136 159.963 150.136C154.494 150.136 149.085 148.996 149.085 148.996C149.085 148.996 150.765 159.322 160.22 159.322C169.676 159.322 171.026 148.996 171.026 148.996ZM147.535 131.707C149.215 131.551 150.447 130.197 150.319 128.674C150.176 127.15 148.698 126.04 147.019 126.196C145.34 126.353 144.107 127.707 144.235 129.229C144.379 130.74 145.857 131.85 147.535 131.707Z" fill="#FFEBD7"/>
<path d="M215.482 200.064C214.994 202.186 217.375 205.064 217.936 209.193C218.596 213.992 218.797 216.813 218.841 217.552C217.75 213.877 216.071 210.446 214.135 209.591C212.313 208.794 210.376 208.866 208.48 209.007C207.318 209.092 205.237 209.092 204.276 209.776C202.668 210.902 202.123 212.154 201.018 213.635L201.104 214.361C198.192 214.746 195.465 215.856 195.637 218.064C195.867 221.14 200.573 219.275 202.023 220.798C203.703 222.55 203.429 225.668 203.773 227.904L201.564 228.431C200.617 228.431 199.554 228.83 198.751 229.072C194.891 230.253 191.648 232.475 192.006 237.132C192.308 240.963 198.033 235.308 198.65 235.124C200.573 234.555 201.19 237.36 200.659 238.599C199.654 240.835 196.197 241.489 194.517 243.084C192.537 244.95 191.188 247.513 190.642 250.234L189.939 250.149C176.349 263.849 162.473 273.433 162.473 273.433H161.726C161.726 273.433 147.865 263.835 134.275 250.134L133.572 250.219C133.026 247.499 131.678 244.936 129.697 243.069C128.017 241.473 124.545 240.819 123.555 238.583C123.01 237.358 123.641 234.539 125.564 235.108C126.167 235.308 131.906 240.948 132.208 237.13C132.567 232.46 129.323 230.238 125.449 229.055C124.358 228.727 122.78 228.115 121.66 228.599C121.43 228.698 121.2 228.827 120.985 228.955L120.425 227.887C120.785 225.651 120.497 222.533 122.175 220.781C123.639 219.256 128.331 221.122 128.575 218.047C128.747 215.839 126.006 214.715 123.094 214.33L123.18 213.618C122.089 212.137 121.53 210.885 119.922 209.759C118.961 209.075 116.894 209.089 115.718 208.99C113.838 208.847 111.901 208.79 110.079 209.574C108.113 210.429 106.434 213.931 105.343 217.664C105.371 217.166 105.573 214.304 106.276 209.176C106.835 205.074 109.174 202.212 108.715 200.089C109.188 196.828 110.279 193.623 112.087 190.519C113.335 188.382 114.641 186.517 116.004 184.879C122.906 176.633 131.2 174.341 138.892 175.252C149.482 176.477 158.938 183.781 161.981 189.978H162.225C165.123 184.082 173.82 177.188 183.793 175.466C191.269 174.169 199.462 175.793 206.451 182.97C208.46 185.022 210.354 187.514 212.119 190.533C213.913 193.609 214.99 196.813 215.477 200.06L215.482 200.064Z" fill="#ECA4A6"/>
<path d="M131.664 260.036C133.701 257.187 134.247 253.585 133.573 250.223L134.276 250.138C147.866 263.838 161.728 273.438 161.728 273.438H162.475C162.475 273.438 176.351 263.853 189.941 250.154L190.644 250.239C189.969 253.599 190.514 257.203 192.538 260.037L192.695 260.309C193.255 262.459 192.795 265.72 192.709 266.247L190.844 266.319C190.844 266.319 189.294 272.628 189.939 280.218H134.276V280.204C134.922 272.614 133.358 266.305 133.358 266.305L131.492 266.233C131.42 265.706 130.961 262.445 131.506 260.295L131.664 260.039V260.036Z" fill="#CBD4DF"/>
<path d="M175.288 126.195C176.968 126.352 178.216 127.705 178.073 129.228C177.929 130.738 176.451 131.848 174.773 131.706C173.109 131.549 171.86 130.195 172.002 128.673C172.146 127.149 173.61 126.038 175.288 126.195Z" fill="#343434"/>
<path d="M131.492 266.23L133.357 266.302C133.357 266.302 134.921 272.611 134.276 280.201V280.215H100.239V280.201L108.274 265.334L110.757 265.433L131.492 266.23Z" fill="#CBD4DF"/>
<path d="M194.833 123.376C187.988 119.16 180.296 97.1581 181.015 93.2847L180.727 93.2273C176.81 103.709 152.358 107.71 153.347 107.212C154.825 106.487 160.206 97.5845 158.828 97.5845C157.666 97.5845 132.167 111.726 125.995 124.002L122.007 124.444C120.083 124.444 118.621 125.043 117.601 126.054L116.869 125.455C112.521 112.509 114.444 100.59 119.782 90.8766C126.97 77.8453 140.345 68.8456 153.03 66.8375C165.572 64.8435 179.691 64.4015 186.179 76.7211L186.394 76.9491C191.014 74.9844 197.961 78.4733 204.56 92.3295C206.985 97.4 213.415 113.036 204.101 125.455L203.168 125.868C201.117 123.39 197.887 122.052 194.903 124.044L194.831 123.374L194.833 123.376Z" fill="#535353"/>
<path d="M150.319 128.673C150.449 130.197 149.215 131.549 147.535 131.706C145.855 131.848 144.377 130.737 144.235 129.228C144.105 127.704 145.34 126.352 147.019 126.195C148.699 126.038 150.177 127.149 150.319 128.673Z" fill="#343434"/>
<path d="M192.708 266.244L213.458 265.447L215.927 265.348L223.977 280.215H189.939C189.294 272.625 190.844 266.316 190.844 266.316L192.709 266.244H192.708Z" fill="#CBD4DF"/>
<path d="M223.978 281.995C223.339 281.995 222.721 281.656 222.396 281.057L214.879 267.17L192.322 268.04C191.93 270.211 191.283 274.847 191.727 280.065C191.811 281.045 191.078 281.907 190.091 281.988C189.102 282.099 188.235 281.346 188.153 280.364C187.489 272.574 189.035 266.16 189.1 265.892C189.291 265.118 189.974 264.565 190.775 264.535L215.855 263.568C216.538 263.534 217.183 263.904 217.508 264.504L225.558 279.373C226.027 280.24 225.7 281.319 224.827 281.784C224.556 281.927 224.266 281.995 223.978 281.995Z" fill="#343434"/>
<path d="M100.237 281.98C99.9515 281.98 99.6609 281.912 99.3906 281.769C98.5172 281.304 98.189 280.224 98.6578 279.359L106.693 264.492C107.018 263.892 107.664 263.493 108.346 263.554L133.426 264.521C134.226 264.553 134.909 265.105 135.1 265.875C135.167 266.145 136.726 272.56 136.062 280.35C135.979 281.329 135.123 282.095 134.125 281.974C133.139 281.891 132.405 281.031 132.489 280.051C132.931 274.833 132.278 270.197 131.883 268.027L109.324 267.158L101.82 281.043C101.497 281.642 100.876 281.981 100.237 281.981V281.98Z" fill="#343434"/>
<path d="M192.537 261.816C191.975 261.816 191.422 261.554 191.072 261.065C188.875 257.984 188.077 253.911 188.884 249.889C189.514 246.749 191.077 243.874 193.283 241.796C194.126 240.994 195.206 240.441 196.253 239.901C197.442 239.292 198.668 238.661 199.02 237.876C199.081 237.718 199.056 237.356 198.986 237.073C198.917 237.127 198.843 237.186 198.767 237.246C196.311 239.194 193.945 240.872 191.947 240.014C191.362 239.763 190.359 239.071 190.217 237.274C189.961 233.951 191.142 229.541 198.22 227.374L198.639 227.243C199.937 226.833 201.823 226.378 203.243 226.981C205.376 227.904 206.754 229.848 207.859 231.41L208.255 231.968C208.834 232.768 208.648 233.88 207.843 234.452C207.037 235.026 205.915 234.84 205.34 234.043L204.923 233.457C203.988 232.136 203.02 230.768 201.82 230.252C201.768 230.23 201.671 230.214 201.559 230.214C201.056 230.214 200.32 230.449 199.729 230.635L199.267 230.779C194.584 232.213 193.761 234.468 193.769 236.42C194.687 235.924 196.012 234.876 196.526 234.466C197.333 233.827 197.665 233.562 198.129 233.424C199.411 233.04 200.639 233.379 201.507 234.345C202.731 235.704 202.873 237.975 202.306 239.299C201.431 241.25 199.554 242.215 197.9 243.066C197.04 243.506 196.231 243.922 195.754 244.376C194.075 245.958 192.884 248.16 192.398 250.586C191.783 253.653 192.366 256.724 193.997 259.009C194.569 259.812 194.378 260.923 193.569 261.492C193.253 261.713 192.892 261.819 192.533 261.819L192.537 261.816Z" fill="#343434"/>
<path d="M131.662 261.816C131.303 261.816 130.941 261.709 130.625 261.487C129.817 260.916 129.627 259.806 130.2 259.004C131.84 256.711 132.428 253.636 131.812 250.569C131.326 248.144 130.136 245.941 128.463 244.364C127.981 243.908 127.17 243.492 126.311 243.05C124.649 242.197 122.767 241.233 121.913 239.302C121.246 237.804 121.591 235.582 122.683 234.351C123.542 233.387 124.811 233.032 126.075 233.407C126.559 233.565 126.874 233.816 127.634 234.423C128.872 235.407 129.812 236.074 130.442 236.414C130.448 234.46 129.622 232.196 124.919 230.76L124.491 230.628C123.924 230.448 122.742 230.075 122.375 230.236C122.219 230.303 122.06 230.396 121.91 230.486C120.924 231.106 120.06 232.337 119.224 233.526L118.877 234.019C118.305 234.824 117.183 235.012 116.377 234.444C115.568 233.877 115.377 232.765 115.949 231.963L116.283 231.489C117.274 230.079 118.397 228.484 120.025 227.457C120.341 227.268 120.641 227.105 120.939 226.975C122.55 226.282 124.3 226.834 125.58 227.237L125.97 227.358C133.07 229.523 134.254 233.945 133.997 237.271C133.854 239.07 132.85 239.76 132.264 240.009C130.253 240.873 127.867 239.174 125.391 237.2C125.331 237.153 125.275 237.108 125.222 237.065C125.153 237.347 125.133 237.701 125.197 237.874C125.542 238.65 126.769 239.281 127.958 239.89C129.005 240.427 130.087 240.982 130.937 241.788C133.139 243.861 134.7 246.736 135.329 249.876C136.139 253.9 135.336 257.978 133.125 261.067C132.775 261.557 132.222 261.816 131.661 261.816H131.662Z" fill="#343434"/>
<path d="M213.03 231.98C212.93 231.98 212.83 231.973 212.729 231.956C211.752 231.793 211.093 230.873 211.258 229.904C211.854 226.397 208.862 217.271 206.332 216.313C205.534 216.006 203.403 215.851 201.345 216.129C199.05 216.432 197.367 217.205 197.423 217.929C197.431 218.04 197.448 218.082 197.448 218.082C197.645 218.203 198.647 218.254 199.243 218.285C200.65 218.358 202.24 218.441 203.326 219.579C205.021 221.349 205.22 223.911 205.377 225.969C205.424 226.555 205.467 227.122 205.545 227.639C205.695 228.611 205.021 229.52 204.043 229.667C203.071 229.822 202.148 229.147 202 228.177C201.907 227.577 201.854 226.921 201.803 226.242C201.675 224.592 201.543 222.886 200.721 222.029C200.523 221.917 199.606 221.87 199.059 221.843C197.448 221.76 194.1 221.588 193.847 218.2C193.737 216.814 194.205 213.479 200.867 212.601C203.406 212.26 206.123 212.415 207.62 212.992C212.618 214.885 215.455 226.608 214.794 230.498C214.647 231.368 213.888 231.982 213.029 231.982L213.03 231.98Z" fill="#343434"/>
<path d="M111.185 231.966C110.326 231.966 109.567 231.352 109.42 230.483C108.759 226.591 111.596 214.868 116.604 212.97C118.083 212.399 120.788 212.237 123.332 212.57C130.011 213.454 130.477 216.794 130.367 218.189C130.1 221.571 126.756 221.743 125.15 221.826C124.6 221.853 123.677 221.9 123.436 222.049C122.669 222.857 122.536 224.544 122.41 226.175C122.353 226.876 122.299 227.555 122.199 228.171C122.044 229.143 121.119 229.8 120.146 229.648C119.168 229.493 118.501 228.582 118.657 227.611C118.743 227.081 118.786 226.497 118.832 225.897C118.993 223.857 119.193 221.317 120.879 219.557C121.969 218.42 123.561 218.34 124.964 218.268C125.542 218.239 126.497 218.189 126.778 218.023C126.778 218.009 126.785 217.971 126.789 217.91C126.847 217.18 125.156 216.4 122.858 216.096C120.799 215.825 118.672 215.986 117.888 216.291C115.351 217.253 112.359 226.38 112.954 229.887C113.12 230.856 112.46 231.776 111.484 231.939C111.382 231.956 111.282 231.963 111.182 231.963L111.185 231.966Z" fill="#343434"/>
<path d="M218.838 219.334C218.063 219.334 217.349 218.831 217.118 218.058C215.891 213.924 214.369 211.646 213.404 211.221C211.969 210.593 210.321 210.658 208.613 210.784L207.982 210.822C207.363 210.857 205.723 210.946 205.318 211.224C204.392 211.874 203.928 212.561 203.285 213.511C203.029 213.891 202.762 214.286 202.456 214.697C201.864 215.487 200.742 215.651 199.946 215.068C199.151 214.482 198.984 213.367 199.573 212.578C199.845 212.215 200.079 211.866 200.306 211.531C201.031 210.456 201.781 209.345 203.238 208.324C204.465 207.451 206.304 207.349 207.785 207.268L208.346 207.234C210.435 207.079 212.658 207.003 214.857 207.966C217.716 209.227 219.535 213.603 220.56 217.051C220.839 217.996 220.295 218.985 219.346 219.262C219.175 219.31 219.005 219.335 218.836 219.335L218.838 219.334Z" fill="#343434"/>
<path d="M220.091 228.561C219.989 228.561 219.889 228.554 219.788 228.537C218.811 228.372 218.154 227.453 218.319 226.484C218.549 225.139 218.207 221.733 217.118 218.072C216.838 217.129 217.382 216.138 218.332 215.86C219.277 215.586 220.278 216.121 220.56 217.065C221.702 220.909 222.224 224.935 221.856 227.081C221.708 227.951 220.949 228.563 220.091 228.563V228.561Z" fill="#343434"/>
<path d="M104.11 228.548C103.248 228.548 102.486 227.927 102.343 227.054C101.992 224.913 102.507 220.939 103.626 217.166C104.653 213.656 106.481 209.202 109.362 207.948C111.59 206.993 113.882 207.07 115.858 207.219C116.074 207.238 116.299 207.25 116.54 207.265C117.974 207.351 119.761 207.458 120.971 208.315C122.438 209.343 123.197 210.471 123.931 211.562C124.149 211.885 124.374 212.221 124.631 212.57C125.216 213.364 125.042 214.479 124.244 215.059C123.444 215.639 122.322 215.465 121.736 214.674C121.446 214.28 121.192 213.904 120.947 213.539C120.296 212.572 119.824 211.871 118.891 211.218C118.496 210.948 116.972 210.858 116.322 210.819C116.049 210.802 115.793 210.787 115.568 210.768C113.966 210.647 112.263 210.582 110.791 211.213C109.83 211.632 108.299 213.945 107.067 218.165C105.999 221.764 105.66 225.135 105.881 226.482C106.04 227.453 105.376 228.368 104.399 228.526C104.301 228.543 104.204 228.549 104.107 228.549L104.11 228.548Z" fill="#343434"/>
<path d="M213.027 263.425C212.259 263.425 211.548 262.932 211.312 262.165C210.754 260.352 212.33 256.854 220.185 242.461C222.585 238.064 225.57 232.593 225.806 231.545C226.733 227.138 223.542 214.457 222.238 209.943C220.844 205.422 218.819 200.975 217.696 199.878C217.425 200.072 217.272 200.255 217.236 200.429C217.097 201.032 217.591 202.254 218.068 203.434C218.669 204.921 219.418 206.772 219.713 208.959C220.418 214.082 220.6 216.935 220.63 217.454C220.652 217.631 220.649 217.754 220.649 217.754C220.611 218.71 219.816 219.5 218.855 219.5C218.844 219.5 218.832 219.5 218.821 219.5C217.844 219.481 217.061 218.724 217.061 217.755C217.054 217.685 217.046 217.641 217.046 217.571C217.021 217.16 216.846 214.434 216.158 209.438C215.921 207.689 215.294 206.133 214.738 204.761C214.024 202.995 213.352 201.328 213.732 199.672C214.001 198.39 214.891 197.317 216.372 196.512C217.108 196.103 217.972 196.056 218.796 196.383C221.902 197.625 224.644 205.572 225.678 208.932C226.192 210.708 230.594 226.208 229.32 232.275C229.017 233.713 226.958 237.53 223.341 244.157C220.221 249.873 215.027 259.394 214.797 261.357C214.943 262.225 214.422 263.087 213.551 263.349C213.377 263.402 213.201 263.427 213.027 263.427V263.425ZM218.105 199.626C218.105 199.626 218.099 199.63 218.097 199.632C218.1 199.632 218.104 199.627 218.105 199.626Z" fill="#343434"/>
<path d="M111.187 263.41C111.015 263.41 110.838 263.385 110.663 263.332C109.793 263.069 109.271 262.206 109.418 261.34C109.19 259.377 103.995 249.854 100.875 244.14C97.2593 237.513 95.1985 233.694 94.8954 232.259C93.622 226.192 98.0093 210.695 98.5155 208.946C99.5639 205.553 102.317 197.597 105.415 196.366C106.234 196.04 107.096 196.09 107.845 196.506C109.338 197.324 110.231 198.425 110.482 199.77C110.827 201.362 110.163 203.013 109.463 204.766C108.915 206.133 108.295 207.682 108.057 209.422C107.317 214.824 107.145 217.657 107.139 217.775C107.082 218.737 106.298 219.496 105.296 219.486C104.326 219.458 103.554 218.704 103.554 217.741C103.554 217.707 103.554 217.6 103.557 217.566C103.576 217.257 103.757 214.384 104.504 208.941C104.8 206.772 105.539 204.928 106.131 203.449C106.603 202.269 107.092 201.05 106.967 200.467C106.928 200.26 106.774 200.066 106.507 199.869C105.384 200.976 103.361 205.42 101.956 209.96C100.662 214.441 97.4827 227.122 98.4093 231.532C98.6468 232.576 101.633 238.048 104.031 242.445C111.885 256.84 113.462 260.339 112.904 262.151C112.668 262.917 111.959 263.411 111.188 263.411L111.187 263.41ZM106.1 199.616C106.1 199.616 106.106 199.619 106.107 199.619C106.104 199.619 106.101 199.619 106.1 199.616Z" fill="#343434"/>
<path d="M213.441 266.758C212.599 266.758 211.846 266.164 211.682 265.311C211.677 265.291 211.427 263.996 210.969 262.155C210.902 261.903 210.827 261.62 210.752 261.309C210.519 260.354 211.112 259.391 212.074 259.16C213.032 258.926 214.007 259.516 214.24 260.471C214.31 260.758 214.379 261.017 214.447 261.278C214.941 263.267 215.205 264.644 215.205 264.644C215.391 265.609 214.752 266.541 213.78 266.727C213.666 266.747 213.554 266.759 213.441 266.759V266.758Z" fill="#343434"/>
<path d="M110.774 266.744C110.662 266.744 110.549 266.733 110.435 266.711C109.463 266.527 108.824 265.595 109.01 264.629C109.01 264.629 109.276 263.252 109.762 261.29L109.979 260.447C110.218 259.493 111.184 258.905 112.152 259.149C113.113 259.386 113.699 260.352 113.46 261.306L113.238 262.166C112.788 263.98 112.538 265.275 112.533 265.297C112.369 266.15 111.616 266.744 110.774 266.744Z" fill="#343434"/>
<path d="M192.694 268.094C191.703 268.094 190.9 267.297 190.9 266.314C190.9 266.199 190.917 266.061 190.942 265.93C191.083 265.06 191.372 262.344 190.958 260.749C190.71 259.797 191.288 258.826 192.245 258.581C193.198 258.332 194.183 258.908 194.43 259.859C195.112 262.483 194.545 266.123 194.477 266.53C194.472 266.558 194.467 266.585 194.461 266.613C194.317 267.454 193.58 268.093 192.692 268.093L192.694 268.094Z" fill="#343434"/>
<path d="M131.506 268.082C130.619 268.082 129.881 267.441 129.737 266.603C129.73 266.559 129.72 266.516 129.716 266.474C129.5 264.915 129.222 262.005 129.767 259.859C130.009 258.907 130.981 258.324 131.944 258.567C132.904 258.806 133.487 259.775 133.245 260.727C132.962 261.848 132.967 263.796 133.264 265.942C133.286 266.068 133.3 266.196 133.3 266.302C133.3 267.285 132.497 268.082 131.506 268.082Z" fill="#343434"/>
<path d="M88.933 142.045C88.3003 142.045 87.6894 141.715 87.3628 141.126C87.1316 140.71 85.9598 138.583 85.6348 137.499C85.3504 136.558 85.8894 135.565 86.8394 135.285C87.7862 135.001 88.7893 135.536 89.0705 136.48C89.2283 137.004 90.0174 138.535 90.5017 139.403C90.9814 140.264 90.6673 141.347 89.8002 141.822C89.5252 141.974 89.2268 142.045 88.9346 142.045H88.933Z" fill="#343434"/>
<path d="M232.987 142.045C232.695 142.045 232.397 141.974 232.122 141.822C231.255 141.348 230.94 140.264 231.42 139.403C231.997 138.367 232.706 136.955 232.848 136.482C233.129 135.539 234.132 135.006 235.079 135.283C236.028 135.564 236.568 136.555 236.287 137.497C235.962 138.581 234.792 140.71 234.559 141.126C234.232 141.712 233.62 142.045 232.989 142.045H232.987Z" fill="#343434"/>
<path d="M83.835 151.231C83.4256 151.231 83.0131 151.092 82.6756 150.808L79.3617 148.017C78.6071 147.381 78.5133 146.257 79.1539 145.508C79.7945 144.759 80.9288 144.666 81.6819 145.302L84.9958 148.093C85.7505 148.728 85.8442 149.853 85.2036 150.602C84.849 151.017 84.3427 151.23 83.835 151.23V151.231Z" fill="#343434"/>
<path d="M238.084 151.231C237.574 151.231 237.07 151.019 236.715 150.603C236.074 149.854 236.167 148.73 236.923 148.094L240.238 145.303C240.996 144.667 242.127 144.759 242.766 145.509C243.407 146.258 243.315 147.382 242.558 148.018L239.243 150.809C238.906 151.093 238.493 151.233 238.084 151.233V151.231Z" fill="#343434"/>
<path d="M75.9135 160.716C75.1292 160.716 74.4089 160.201 74.187 159.413C73.9214 158.466 74.4792 157.485 75.4338 157.221C76.4291 156.945 78.3978 156.743 78.6196 156.722C79.6164 156.636 80.4852 157.336 80.5836 158.316C80.682 159.294 79.9633 160.167 78.9774 160.265C78.2603 160.336 76.9228 160.504 76.3947 160.649C76.2338 160.694 76.0729 160.714 75.9119 160.714L75.9135 160.716Z" fill="#343434"/>
<path d="M245.99 160.716C245.827 160.716 245.663 160.696 245.499 160.648C245.013 160.511 243.708 160.342 242.938 160.265C241.952 160.166 241.234 159.293 241.332 158.316C241.432 157.337 242.305 156.638 243.296 156.722C243.657 156.757 245.512 156.953 246.476 157.222C247.429 157.491 247.982 158.475 247.713 159.421C247.488 160.204 246.769 160.716 245.988 160.716H245.99Z" fill="#343434"/>
<path d="M160.239 176.372C151.502 176.372 144.063 173.16 138.115 166.815C131.506 159.778 128.405 150.552 127.144 145.68C126.566 143.45 126.355 142.039 126.347 141.978C126.203 141.006 126.88 140.104 127.859 139.96C128.817 139.818 129.75 140.487 129.895 141.461C129.898 141.473 130.092 142.763 130.62 144.796C131.797 149.339 134.673 157.928 140.74 164.389C146.222 170.238 153.124 173.046 161.323 172.797C170.007 172.511 177.082 169.496 182.35 163.828C187.767 158.026 190.191 150.668 191.27 145.517C191.875 142.617 191.994 140.657 191.995 140.639C192.053 139.659 192.923 138.888 193.887 138.962C194.876 139.018 195.633 139.857 195.578 140.837C195.572 140.926 195.448 143.056 194.783 146.239C193.611 151.834 190.959 159.845 184.986 166.244C179.044 172.634 171.123 176.036 161.444 176.354C161.041 176.368 160.639 176.374 160.241 176.374L160.239 176.372Z" fill="#343434"/>
<path d="M127.46 146.789C121.205 146.789 117.007 142.03 115.163 137.576C113.082 132.551 113.545 127.53 116.34 124.789C118.562 122.582 122.15 122.061 126.495 123.432C127.441 123.73 127.963 124.73 127.663 125.666C127.363 126.604 126.358 127.124 125.411 126.825C122.429 125.886 120.13 126.062 118.869 127.313C117.16 128.991 117.002 132.652 118.482 136.223C119.883 139.609 122.978 143.228 127.46 143.228C128.45 143.228 129.253 144.025 129.253 145.008C129.253 145.992 128.45 146.789 127.46 146.789Z" fill="#343434"/>
<path d="M194.217 147.8C193.548 147.8 192.906 147.429 192.598 146.79C192.17 145.905 192.547 144.841 193.439 144.415C201.192 140.721 204.16 136.572 203.37 130.54C203.215 129.332 202.635 128.042 201.775 126.99C201.301 126.418 198.761 123.612 195.905 125.522C195.626 125.714 195.381 125.911 195.153 126.128C194.437 126.807 193.302 126.783 192.617 126.072C191.933 125.364 191.958 124.235 192.673 123.556C193.033 123.215 193.427 122.898 193.876 122.585C197.315 120.287 201.593 121.163 204.554 124.737C205.851 126.322 206.691 128.218 206.927 130.087C208.24 140.081 200.743 144.881 194.99 147.623C194.739 147.742 194.476 147.798 194.216 147.798L194.217 147.8Z" fill="#343434"/>
<path d="M159.954 143.935C158.984 143.935 158.048 143.751 157.253 143.376C156.537 143.038 156.231 142.189 156.572 141.479C156.911 140.771 157.764 140.468 158.483 140.803C159.426 141.248 160.901 141.172 162.073 140.619C162.792 140.282 163.645 140.585 163.984 141.295C164.325 142.005 164.018 142.853 163.303 143.191C162.251 143.686 161.081 143.937 159.953 143.937L159.954 143.935Z" fill="#343434"/>
<path d="M194.831 125.156C194.508 125.156 194.181 125.069 193.886 124.889C186.647 120.431 178.36 97.7598 179.249 92.9622L179.312 92.6769C179.548 91.7233 180.512 91.1449 181.48 91.3682C182.443 91.6023 183.033 92.5652 182.799 93.5204L182.774 93.6259C182.19 96.7798 189.727 118.138 195.778 121.864C196.62 122.383 196.878 123.48 196.356 124.316C196.016 124.858 195.43 125.157 194.83 125.157L194.831 125.156Z" fill="#343434"/>
<path d="M204.101 127.235C203.728 127.235 203.353 127.12 203.032 126.883C202.237 126.297 202.073 125.181 202.664 124.393C211.065 113.19 205.657 98.7707 202.942 93.0924C196.73 80.0549 190.53 77.1196 187.1 78.5849C186.191 78.971 185.138 78.5539 184.744 77.6483C184.355 76.7443 184.777 75.6992 185.688 75.31C188.171 74.2556 197.001 72.2956 206.182 91.5666C209.174 97.8248 215.105 113.764 205.54 126.516C205.188 126.986 204.648 127.234 204.099 127.234L204.101 127.235Z" fill="#343434"/>
<path d="M116.869 127.235C116.118 127.235 115.418 126.764 115.168 126.018C111.013 113.647 112.063 101.202 118.207 90.0238C125.361 77.0608 138.918 67.2687 152.749 65.0808C165.345 63.0774 180.715 62.4974 187.769 75.8962C188.228 76.7677 187.888 77.8438 187.011 78.2981C186.135 78.7494 185.047 78.416 184.591 77.5461C178.63 66.2236 165.432 66.667 153.317 68.596C140.54 70.618 127.995 79.6999 121.358 91.7326C117.416 98.9026 113.732 110.479 118.572 124.892C118.886 125.826 118.377 126.834 117.438 127.144C117.25 127.206 117.058 127.235 116.871 127.235H116.869Z" fill="#343434"/>
<path d="M178.099 118.377C177.826 118.377 177.549 118.301 177.305 118.14C177.28 118.122 174.887 116.614 173.176 117.513C172.476 117.884 171.607 117.619 171.237 116.924C170.864 116.229 171.131 115.367 171.831 115C175.09 113.278 178.746 115.668 178.901 115.772C179.558 116.211 179.733 117.094 179.291 117.749C179.015 118.158 178.562 118.378 178.099 118.378V118.377Z" fill="#343434"/>
<path d="M143.205 118.374C142.74 118.374 142.284 118.15 142.007 117.736C141.571 117.082 141.746 116.204 142.404 115.767C142.56 115.666 146.222 113.277 149.486 114.998C150.186 115.367 150.452 116.229 150.079 116.924C149.707 117.618 148.843 117.885 148.138 117.511C146.429 116.607 144.016 118.122 143.993 118.139C143.751 118.298 143.476 118.374 143.205 118.374Z" fill="#343434"/>
<path d="M125.995 125.782C125.727 125.782 125.453 125.722 125.197 125.595C124.309 125.156 123.95 124.088 124.392 123.208C130.744 110.571 156.584 95.8045 158.83 95.8045C159.781 95.8045 160.567 96.4278 160.786 97.3551C161.103 98.6979 159.487 101.94 157.706 104.646C164.404 103.06 176.598 99.1507 179.044 92.6071C179.39 91.6845 180.421 91.2116 181.349 91.5574C182.279 91.9001 182.752 92.9235 182.407 93.8445C178.222 105.037 155.01 109.028 153.271 109.028C153.25 109.028 153.233 109.028 153.217 109.025C152.417 108.963 151.713 108.363 151.557 107.581C151.4 106.8 151.819 105.984 152.533 105.624C153.124 105.179 154.549 103.069 155.681 101.117C148.358 105.229 132.237 115.572 127.6 124.796C127.286 125.421 126.653 125.782 125.994 125.782H125.995Z" fill="#343434"/>
<path d="M160.108 166.649C159.136 166.649 158.199 166.466 157.4 166.092C156.683 165.757 156.374 164.909 156.711 164.197C157.05 163.484 157.908 163.179 158.62 163.513C159.578 163.959 161.061 163.883 162.231 163.332C162.95 162.996 163.803 163.298 164.142 164.008C164.483 164.718 164.176 165.568 163.461 165.905C162.409 166.399 161.237 166.649 160.108 166.649Z" fill="#343434"/>
<path d="M159.963 151.916C154.385 151.916 148.943 150.786 148.715 150.736C147.744 150.533 147.127 149.589 147.332 148.626C147.537 147.665 148.494 147.054 149.458 147.254C149.51 147.265 154.772 148.355 159.964 148.355C165.156 148.355 170.492 147.263 170.545 147.252C171.521 147.057 172.465 147.666 172.67 148.629C172.873 149.592 172.251 150.536 171.282 150.738C171.051 150.785 165.553 151.916 159.966 151.916H159.963Z" fill="#343434"/>
<path d="M160.22 161.101C151.532 161.101 147.98 153.368 147.313 149.279C147.157 148.308 147.821 147.395 148.799 147.237C149.771 147.083 150.696 147.741 150.857 148.711C150.916 149.068 152.435 157.54 160.22 157.54C168.006 157.54 169.2 149.122 169.248 148.766C169.378 147.789 170.303 147.091 171.259 147.232C172.242 147.361 172.934 148.252 172.804 149.228C172.262 153.335 168.934 161.102 160.22 161.102V161.101Z" fill="#343434"/>
</g>
<defs>
<clipPath id="clip0_148_2652">
<rect width="195" height="218" fill="white" transform="translate(63 64)"/>
</clipPath>
</defs>
</svg>
