<svg width="284" height="185" viewBox="0 0 284 185" fill="none" xmlns="http://www.w3.org/2000/svg">
<path d="M268.46 53.6932C260.604 42.385 249.708 32.64 235.385 29.9841C219.537 27.0455 202.693 26.644 188.043 21.0257C178.964 17.5439 171.216 12.2261 162.472 8.2423C126.583 -8.10644 79.1583 -0.182446 55.7517 32.4453C50.6485 39.559 46.7023 47.6873 39.8906 53.2735C35.0246 57.2642 28.9763 59.702 24.1494 63.7377C16.6141 70.0379 12.8347 79.5016 9.33615 88.5647C1.72515 108.281 -8.02099 136.424 11.2002 152.983C24.3032 164.272 24.5212 163.009 40.2116 171.99C56.9771 181.586 154.965 190.921 181.799 180.262C208.632 169.602 223.169 173.128 246.902 158.567C274.963 141.35 290.281 107.966 281.551 80.6266C278.526 71.0849 274.118 62.0151 268.46 53.6932Z" fill="#FAF7DE"/>
<path d="M265.445 88.0099C264.025 82.1799 261.465 76.4899 258.685 71.1899C255.825 65.7499 252.375 60.7599 248.325 56.1499C244.905 52.2499 241.265 47.7899 236.365 45.7399C236.155 45.6499 235.965 45.5299 235.775 45.3799C230.335 48.4199 201.815 64.3299 199.985 65.2499C197.955 66.2599 198.975 66.7099 200.445 70.1999C201.915 73.6899 197.175 72.8999 192.895 74.5799C188.615 76.2599 188.955 77.3999 188.955 77.7399C188.955 78.0799 184.345 80.3299 181.645 79.7699C178.945 79.2099 171.965 74.3699 167.125 70.4299C162.285 66.4899 157.105 64.4699 152.155 64.6899C147.205 64.9199 146.645 66.7199 144.165 69.6399C141.685 72.5699 137.415 74.5899 133.925 73.6899C130.435 72.7899 127.735 72.8999 122.675 73.7999C117.615 74.6999 103.655 78.6399 100.915 78.0399C98.1651 77.4399 99.1551 78.1499 97.1851 78.0399C95.2051 77.9299 95.8951 76.1799 95.8951 76.1799L82.7451 72.6199L84.0251 65.9999L55.2051 50.6899C54.9351 50.2299 54.5051 49.8199 53.8551 49.4999C51.3951 48.2999 48.9251 47.0899 46.4451 45.8699C41.9751 48.7899 37.7051 51.4399 34.3351 55.6999C31.3351 59.4999 29.0151 63.7999 26.9251 68.1499C22.3851 77.5699 18.3751 87.4999 17.2151 97.9499L70.0151 123.75L71.8151 114.63C71.8151 114.63 85.5451 119.02 90.1551 120.13C94.7651 121.24 96.7051 120.88 99.2751 122.41C101.845 123.94 104.565 126.33 113.005 131.55C121.445 136.77 128.535 139.61 134.275 138.37C140.015 137.13 136.635 136.34 140.465 133.64C144.295 130.94 144.405 134.43 150.035 136.12C155.665 137.81 156.335 135.78 163.085 133.42C169.835 131.06 166.575 130.16 171.835 127.12C177.095 124.08 192.915 117.55 194.145 116.88C195.385 116.2 198.985 116.32 198.985 116.32L211.705 114.86L213.395 122.06L266.215 96.6799C266.165 93.7699 266.155 90.8599 265.455 87.9899L265.445 88.0099Z" fill="white"/>
<path d="M18.3752 98.3002C22.2552 100.64 26.2151 102.85 30.2251 104.94C30.2751 104.96 30.3151 104.98 30.3651 104.99C30.4251 105.03 30.4851 105.06 30.5451 105.1C34.9251 107.37 39.3751 109.52 43.8651 111.57C48.9751 113.9 54.0851 116.32 59.3051 118.39C60.2351 118.76 61.1751 119.1 62.1151 119.43C62.6651 118.56 63.0551 117.47 63.1852 116.23C63.9752 107.46 66.7251 83.3902 69.0751 79.6002L34.2851 55.7402C28.8851 62.4002 24.9851 70.9002 21.9851 79.2202C20.5351 81.9802 19.4451 84.9102 18.7051 87.9602C18.1251 90.3702 16.8751 94.7902 17.7851 97.2502C17.9251 97.6402 18.1351 97.9802 18.3651 98.3202L18.3752 98.3002Z" fill="#CEE8F7"/>
<path d="M260.665 75.1603C260.025 73.8203 259.365 72.4903 258.685 71.1903C255.825 65.7503 252.375 60.7603 248.325 56.1503C247.445 55.1403 246.545 54.1003 245.615 53.0703L205.705 76.6803C208.425 80.4303 211.625 104.54 212.535 113.31C213.015 117.49 216.885 119.91 220.195 118.11C220.305 118.04 220.415 117.98 220.525 117.92C220.595 117.9 220.655 117.9 220.715 117.87C228.055 115.36 235.145 111.84 242.275 108.78C245.695 107.31 249.155 105.89 252.525 104.29C254.145 103.52 255.745 102.71 257.285 101.79C258.645 100.99 261.065 98.5303 262.715 98.6703C264.525 98.8203 266.075 97.0103 266.075 95.3103C266.055 88.2203 264.425 81.1903 260.655 75.1503L260.665 75.1603Z" fill="#CEE8F7"/>
<path d="M269.945 95.34C269.505 94.42 268.755 93.95 267.735 93.95C267.035 93.95 266.325 94.18 265.775 94.37C263.505 95.19 261.295 96.13 259.225 97.17C256.545 98.51 253.865 99.86 251.195 101.21L251.005 101.31C240.405 106.67 229.435 112.22 218.225 116.75C217.975 116.85 217.735 116.98 217.485 117.12C217.035 117.36 216.615 117.59 216.145 117.62L215.595 117.66L215.615 117.11C216.125 98.99 211.815 83.42 202.445 69.52L202.185 69.14L202.545 68.85C203.305 68.24 204.115 67.89 204.975 67.53L205.315 67.38C213.145 63.98 220.385 59.33 227.425 54.81C230.335 52.94 233.345 51.01 236.355 49.19C237.345 48.59 238.525 47.75 238.795 46.53C238.955 45.8 238.775 45.05 238.255 44.28C237.685 43.43 236.935 43 236.045 43C235.055 43 234.035 43.54 233.215 43.98C228.535 46.47 223.905 49.22 219.425 51.87C212.825 55.78 206.005 59.83 198.915 63.12C194.275 65.27 194.055 67.04 195.335 70.44L195.595 71.13H194.605C194.255 71.12 193.915 71.13 193.575 71.16C189.575 71.57 187.005 72.84 185.945 74.93C185.485 75.84 185.325 76.91 185.475 78.13L185.655 79.58V79.52L186.325 81.04C186.635 81.75 186.975 82.42 187.355 83.07C193.755 93.9 196.755 104.16 196.535 114.44C196.535 114.87 196.535 115.26 196.565 115.64L195.635 115.92C195.055 114.92 194.135 114.36 193.055 114.36C192.645 114.36 192.225 114.44 191.795 114.59C190.825 114.93 189.895 115.41 188.995 115.87C188.615 116.06 188.235 116.26 187.855 116.44L177.975 121.21L178.435 120.02C178.715 119.32 178.965 118.56 178.965 117.79C178.955 110.64 177.985 101.56 170.575 94.85C167.055 91.66 163.065 88.55 158.035 85.06L157.765 84.87L157.835 84.54C158.215 82.75 158.105 81.55 157.485 80.75C156.605 79.6 154.765 79.42 153.075 79.38H152.825C149.545 79.38 146.655 80.69 143.995 83.4C142.245 85.17 140.655 86.04 139.115 86.04C137.575 86.04 136.095 85.23 134.435 83.57L134.115 83.25L134.405 82.9C139.565 76.74 144.495 72.3 149.915 68.95C150.545 68.56 150.975 68.4 151.415 68.4C151.555 68.4 151.705 68.42 151.845 68.45L153.155 68.77C156.145 69.49 158.965 70.16 161.505 71.82C166.565 75.12 171.525 78.3 176.245 81.28C177.715 82.21 179.325 83.12 181.145 83.5C181.615 83.6 182.035 83.65 182.425 83.65C183.855 83.65 184.835 82.95 185.265 81.63C185.315 81.47 185.345 81.3 185.375 81.14L185.645 79.62L184.615 78.52C184.225 78.11 183.745 77.78 183.195 77.56C178.055 75.47 173.485 72.22 169.025 69.05C168.135 68.42 167.245 67.78 166.355 67.16C161.385 63.7 157.245 62.08 153.335 62.08C149.225 62.08 145.105 63.86 140.365 67.68C140.325 67.71 140.285 67.74 140.225 67.78C140.095 67.87 139.915 67.99 139.785 68.17C138.435 70.11 136.625 71.01 134.095 71.01C133.185 71.01 132.195 70.9 130.985 70.66C129.255 70.32 127.455 70.14 125.645 70.14C119.455 70.14 113.595 72.15 107.935 74.1C105.665 74.88 103.305 75.69 100.965 76.35C100.215 76.56 99.6751 77 99.4051 77.6L98.4451 77.39C98.4451 77.08 98.4152 76.8 98.3552 76.54C98.0552 75.29 97.0351 74.2 95.1551 73.12C92.7951 71.76 90.5552 71.09 88.3052 71.06H87.5651L87.8451 70.37C89.1851 67.08 88.5551 65.63 84.7551 63.3L84.3752 63.06C83.9752 62.81 83.5652 62.54 83.1152 62.34C75.4152 58.88 67.6851 54.59 58.7651 48.84C56.6451 47.47 54.3752 46.29 52.1752 45.14L52.0751 45.09C51.3351 44.7 50.5952 44.31 49.8552 43.92C49.0252 43.48 48.0652 43 47.1252 43C46.1852 43 45.4151 43.47 44.8451 44.39C44.3851 45.13 44.2351 45.87 44.4051 46.58C44.6251 47.5 45.3752 48.32 46.6752 49.09C49.7452 50.91 52.7951 52.89 55.7651 54.82C60.2351 57.73 64.8651 60.74 69.7051 63.27C72.3551 64.65 75.0252 66 77.7952 67.4L81.1752 69.11L80.8251 69.59C75.1451 77.29 72.2552 85.71 70.3752 92.18C67.7552 101.18 67.4852 110.28 67.5452 117.21V117.98L66.8451 117.67C65.2951 116.98 63.7752 116.32 62.2851 115.67C58.1152 113.85 54.1651 112.12 50.2851 110.25C43.8551 107.15 37.3452 103.92 31.0552 100.79L30.9551 100.74C27.4851 99.01 24.0051 97.28 20.5352 95.57C19.1351 94.88 17.4852 94.14 15.6652 94.09H15.5051C14.8351 94.09 13.8851 94.2 13.3351 95.14C12.8051 96.05 12.9052 97 13.6252 97.96C14.3852 98.97 15.4152 99.8 16.8652 100.59L19.7952 102.16C21.7952 103.23 23.7952 104.31 25.7952 105.4C39.5052 112.88 53.6952 119.65 67.9752 125.53C69.1252 126 70.0151 126.22 70.7851 126.22C72.5551 126.22 73.5952 125.03 74.1752 122.37C74.3952 121.36 74.4352 120.35 74.4752 119.27V119.08L74.6152 118.44L75.2551 118.67C77.5651 119.51 79.9951 119.88 82.3451 120.24C85.6851 120.75 88.8351 121.23 91.7651 122.91C92.2251 123.17 92.7451 123.31 93.2651 123.31C94.1751 123.31 95.0052 122.92 95.6052 122.22L96.7151 120.92L96.4651 122.74C96.4451 122.88 96.4252 123.03 96.4152 123.17C96.2852 124.43 96.6851 125.5 97.5951 126.34C99.5451 128.14 101.975 130.37 104.845 131.71L108.965 133.61C113.265 135.6 117.725 137.65 122.085 139.76C125.195 141.26 128.135 142.03 130.805 142.03C133.925 142.03 136.725 141 139.145 138.96C140.605 137.72 141.845 137.17 143.175 137.17C143.805 137.17 144.465 137.3 145.185 137.55C148.065 138.58 150.895 139.1 153.585 139.1C159.495 139.1 165.085 136.57 170.175 131.6L170.515 131.26C171.095 130.67 171.645 130.11 172.385 130.02C175.575 129.63 178.355 128.22 181.055 126.85C182.685 126.02 184.375 125.16 186.125 124.55C188.415 123.75 190.555 122.48 192.635 121.24C193.205 120.9 193.785 120.56 194.355 120.23C195.325 119.67 195.915 118.9 196.065 118.01L196.345 116.29L197.015 117.9C197.215 118.38 197.475 118.78 197.795 119.11C198.545 119.88 199.615 120.25 201.075 120.25C201.705 120.25 202.395 120.18 203.195 120.05C204.615 119.8 205.985 119.38 207.435 118.94L208.165 118.72L208.825 118.65L208.805 119.34C208.735 122.33 209.155 124.12 210.165 125.14C210.775 125.76 211.595 126.08 212.625 126.08C213.715 126.08 215.055 125.73 216.745 125.02C231.755 118.63 247.645 110.83 265.325 101.17C266.295 100.64 267.325 100.05 268.245 99.32C269.555 98.28 270.765 97.12 269.945 95.4V95.34ZM80.0151 112.82V113.43L79.4051 113.3C78.9351 113.2 78.4752 113.07 77.9852 112.93C76.9752 112.65 75.9351 112.36 74.7751 112.33H74.2851V111.83C74.3751 98.94 77.6751 86.99 84.3851 75.29L84.7651 74.62L85.2151 75.24C86.1351 76.5 87.5252 76.87 88.7452 77.21C89.4852 77.41 90.1751 77.6 90.7551 77.95L91.1852 78.21L90.9252 78.64C83.5952 90.67 80.1251 101.53 80.0051 112.82H80.0151ZM103.325 122.43L102.995 122.2C102.705 122 102.375 121.65 102.015 121.15L101.795 120.86L102.005 120.56C105.265 116.03 108.955 110.9 115.485 109.8L117.125 109.53L103.325 122.43ZM113.655 128.36C112.975 128.36 112.065 127.81 110.615 126.79L110.135 126.45L124.145 111.93L124.465 112.08C125.455 112.53 126.615 113.11 127.655 113.92L128.175 114.33L127.645 114.72C123.285 117.93 119.905 121.87 117.075 125.3C115.335 127.42 114.525 128.36 113.655 128.36ZM125.245 130.42C124.685 131.13 124.105 131.86 123.505 132.56L123.265 132.83L122.935 132.69C122.095 132.34 121.465 131.99 120.915 131.55L120.535 131.25L120.815 130.86C123.805 126.78 127.375 123.29 130.785 120.12L131.315 119.63L132.965 123.61L132.525 123.81C129.305 125.28 127.235 127.89 125.235 130.41L125.245 130.42ZM134.485 134.08C133.915 134.84 133.115 135.16 131.795 135.16C131.425 135.16 131.035 135.14 130.625 135.1L129.735 135.03L130.265 134.31C131.335 132.87 132.545 131.54 134.075 130.15L134.725 129.56L134.905 130.41C135.255 132.06 135.125 133.23 134.495 134.08H134.485ZM148.315 131.57C146.345 131.24 144.105 130.87 142.205 129.94C141.085 129.39 141.035 127.6 141.005 126.17L140.985 125.17L148.695 130.67L148.325 131.57H148.315ZM170.655 110.4C170.565 110.3 170.475 110.19 170.325 110.01C170.145 109.79 169.965 109.57 169.775 109.37C164.815 104.09 159.065 99.18 152.685 94.75C151.665 94.04 150.825 93.71 150.045 93.71C149.455 93.71 148.615 93.92 147.905 94.91C146.645 96.68 147.875 98.09 149.115 99.26C150.105 100.19 151.165 101.12 152.375 102.12C158.785 107.38 164.475 113.26 168.705 117.79C170.415 119.62 170.645 121 169.475 122.41L169.185 122.76L163.885 119.08C158.855 115.58 153.645 111.96 148.475 108.42C147.695 107.89 146.515 107.18 145.315 107.18C144.635 107.18 143.665 107.42 142.865 108.57C141.345 110.75 143.055 112.25 144.785 113.47C146.555 114.72 148.295 116.07 150.015 117.4C153.185 119.85 156.465 122.38 160.045 124.42C161.315 125.15 162.755 126.07 163.815 127.44L164.095 127.8L163.755 128.11C162.295 129.44 161.525 130.07 160.795 130.07C160.065 130.07 159.085 129.43 157.465 128.37C152.525 125.13 148.165 122.26 144.135 119.57C142.905 118.75 141.575 117.94 140.085 117.94C139.565 117.94 139.035 118.04 138.515 118.24L138.095 118.4L137.885 118C137.715 117.66 137.565 117.36 137.425 117.06C137.315 116.83 137.215 116.59 137.095 116.29C136.935 115.89 136.765 115.48 136.545 115.07C132.805 108.02 126.405 103.98 118.025 103.38C117.725 103.36 117.435 103.35 117.135 103.35C109.375 103.35 100.295 110.58 97.3052 119.15L96.7651 120.7L96.3451 119.12C96.0451 117.99 95.0552 117.19 93.4752 116.81C91.8151 116.41 90.3551 115.65 88.7851 114.85C88.1952 114.55 87.5952 114.24 86.9752 113.95L86.6951 113.82V113.51C86.6551 111.39 86.6151 108.98 87.0151 106.72C88.6751 97.34 92.0751 88.63 97.1351 80.83C97.6551 80.03 98.0051 79.3 98.2151 78.61L99.1951 78.72V78.82C99.1951 78.82 99.1951 78.91 99.2051 78.96C99.3751 80.14 100.015 80.93 101.145 81.38C101.625 81.57 102.115 81.66 102.655 81.66C103.495 81.66 104.295 81.43 105.065 81.21C107.185 80.6 109.305 80.01 111.435 79.41C114.585 78.53 117.845 77.61 121.035 76.67C122.165 76.34 123.325 76.17 124.585 76.17C126.365 76.17 128.175 76.51 129.715 76.84L130.465 77.06L129.965 77.69C129.405 78.38 128.925 78.99 128.455 79.59C127.325 81.04 127.135 82.5 127.855 84.35C129.725 89.18 134.165 92.3 139.175 92.29C142.435 92.29 145.525 90.95 147.875 88.51L148.005 88.37C149.275 87.05 150.465 85.81 152.545 85.81L153.185 85.83L153.155 86.35C153.015 88.5 154.585 89.8 155.975 90.95C160.255 94.49 163.505 97.25 166.485 99.89C169.935 102.93 170.985 106.88 171.525 109.98L171.825 111.73L170.655 110.4ZM208.475 112.25C207.225 112.36 206.075 112.68 204.865 113.02C204.525 113.12 204.185 113.21 203.825 113.3L203.205 113.46V112.82C203.015 101.37 199.525 90.5 192.225 78.61L191.975 78.2L192.375 77.93C192.945 77.55 193.655 77.36 194.405 77.16C195.625 76.83 197.015 76.46 197.945 75.18L198.405 74.56L198.785 75.23C205.405 86.91 208.725 98.85 208.925 111.73V112.2L208.465 112.24L208.475 112.25Z" fill="#343434"/>
</svg>
