<svg width="320" height="234" viewBox="0 0 320 234" fill="none" xmlns="http://www.w3.org/2000/svg">
<path d="M255.49 32.4958H65.8063C61.5578 32.4958 58.1138 35.9491 58.1138 40.2089V166.11C58.1138 170.37 61.5578 173.823 65.8063 173.823H255.49C259.738 173.823 263.182 170.37 263.182 166.11V40.2089C263.182 35.9491 259.738 32.4958 255.49 32.4958Z" fill="#323232"/>
<path d="M253.913 162.539C253.762 163.246 253.372 163.879 252.81 164.331C252.248 164.784 251.547 165.028 250.826 165.023L70.673 164.977C69.8642 164.985 69.0843 164.676 68.4992 164.116C67.9141 163.556 67.57 162.789 67.5401 161.979L67.54 44.2479C67.5399 44.0754 67.5554 43.9034 67.5864 43.7338C67.7374 43.027 68.1268 42.394 68.689 41.9416C69.2512 41.4891 69.9518 41.2448 70.6727 41.2498L250.826 41.2952C251.635 41.2874 252.415 41.5964 253 42.1563C253.585 42.7162 253.929 43.4829 253.959 44.2933L253.959 162.025C253.96 162.197 253.944 162.369 253.913 162.539Z" fill="white"/>
<path d="M53.0103 198.954L50.4569 197.675L49.1152 201.194L50.4569 197.675C49.9705 197.431 49.4841 197.188 48.9978 196.944C41.388 193.131 33.7782 189.318 26.1682 185.504L17.877 181.35L16.7273 184.001L17.877 181.35C16.3563 180.588 14.8355 179.826 13.3147 179.064C13.0342 179.627 12.7537 180.19 12.4732 180.753C9.2315 187.257 5.98979 193.76 2.74805 200.264L42.8472 219.345C43.0341 218.97 43.221 218.595 43.4079 218.22C46.6087 211.798 49.8095 205.376 53.0103 198.954Z" fill="white"/>
<path d="M51.6295 79.2345C50.0284 79.2044 48.4323 79.4228 46.8977 79.8818C46.1186 80.2413 45.3991 80.7185 44.7644 81.2968C39.0586 85.9128 33.6039 90.8324 28.4239 96.0345C26.1175 98.1309 24.0111 100.438 22.1321 102.927C19.1166 107.285 20.0446 113.497 20.8833 118.375C22.0686 125.268 24.0588 131.996 25.2472 138.89C26.0627 143.472 26.1024 148.158 25.3646 152.752C24.1402 160.187 22.2777 167.501 19.7978 174.615C19.6957 174.866 19.676 175.143 19.7416 175.407C19.8071 175.67 19.9545 175.906 20.1625 176.08L21.4904 173.017L20.1625 176.08C20.3582 176.254 20.5935 176.378 20.8479 176.44C21.1023 176.502 21.368 176.501 21.6219 176.437C21.8757 176.372 22.11 176.247 22.3043 176.071C22.4985 175.895 22.6469 175.674 22.7363 175.427C24.715 169.627 26.3232 163.706 27.5513 157.7C28.5532 153.433 29.0452 149.061 29.0169 144.677C28.7849 138.521 27.055 132.367 25.6817 126.395C24.9062 123.024 24.1196 119.643 23.6036 116.219C23.0628 113.437 23.0037 110.583 23.4288 107.781C24.0677 104.621 26.0236 102.834 28.2296 100.557C33.4953 95.1214 39.1357 89.9877 44.9147 85.1068C45.4636 84.6433 46.0151 84.1828 46.5747 83.7325C46.8753 83.4694 47.1924 83.226 47.5241 83.0037C47.6412 82.9233 47.7567 82.8388 47.8806 82.7689L47.8989 82.7594C48.0135 82.7166 48.1307 82.6812 48.2499 82.6535C49.019 82.4915 49.7995 82.3892 50.5844 82.3476C53.1001 82.1756 55.6377 82.1793 58.1649 82.2586V79.2059C55.9865 79.1426 53.8032 79.1386 51.6295 79.2345Z" fill="#323232"/>
<path d="M60.484 79.2933C59.7121 79.2573 58.9391 79.2282 58.165 79.2058V82.2585C58.9393 82.2827 59.7123 82.3128 60.484 82.3488C62.4447 82.44 62.4401 79.3843 60.484 79.2933Z" fill="#323232"/>
<path d="M85.4054 97.8689C85.2392 96.4613 84.6062 95.1505 83.6081 94.1469C83.2386 93.6471 82.7241 93.2739 82.1351 93.0784C81.546 92.8828 80.9111 92.8745 80.3171 93.0545C79.1403 93.3295 78.0581 93.9151 77.1828 94.7504C76.4726 95.4531 75.8689 96.2937 75.2289 97.0599C74.4014 98.0509 73.553 99.024 72.7192 100.01C73.696 100.925 74.8936 101.615 75.8893 102.513C76.1719 102.798 76.472 103.064 76.7877 103.311C76.9339 103.413 77.1382 103.466 77.2742 103.565L77.2876 103.576C77.2916 103.577 77.2923 103.576 77.2968 103.576C77.3383 103.578 77.3796 103.575 77.421 103.574C77.4972 103.548 77.5748 103.525 77.6534 103.507C77.6983 103.491 77.7419 103.471 77.7837 103.447C77.8981 103.374 78.0139 103.305 78.1264 103.228C78.1764 103.186 78.2264 103.144 78.2748 103.1C78.3742 103.011 78.4703 102.918 78.5639 102.823C78.7804 102.601 78.9846 102.368 79.1755 102.123C79.2127 102.07 79.3428 101.894 79.3641 101.863C79.4635 101.721 79.5604 101.578 79.6547 101.433C79.8432 101.143 80.0227 100.847 80.1934 100.546C80.4909 100.024 80.7654 99.4889 81.0201 98.9447C81.1173 98.7369 81.2092 98.5268 81.3005 98.3165C81.3102 98.2862 81.4499 97.9458 81.4816 97.8618C81.5965 97.4759 81.8557 97.1495 82.2049 96.9506C82.5542 96.7518 82.9666 96.6959 83.3559 96.7946C83.7438 96.9052 84.0728 97.1642 84.2719 97.5158C84.4711 97.8674 84.5243 98.2834 84.4202 98.674C83.9289 99.9918 83.3201 101.262 82.6012 102.471C81.8366 103.915 80.7276 105.146 79.3728 106.056C78.7159 106.454 77.9574 106.652 77.1901 106.625C76.0161 106.471 74.9327 105.91 74.1271 105.04C73.0504 104.047 71.8577 103.237 70.7876 102.28C69.8046 103.43 68.8364 104.593 67.8455 105.737C64.6719 109.401 61.4865 113.14 58.1651 116.744C55.1616 120.053 51.9676 123.183 48.5992 126.118C48.3438 126.344 48.0205 126.478 47.6804 126.5C46.4075 126.575 45.2446 124.986 46.4444 123.957C50.3238 120.493 53.9907 116.797 57.4249 112.889C57.6745 112.616 57.9163 112.336 58.1651 112.062V82.2586C55.638 82.1792 53.1003 82.1756 50.5846 82.3476C49.7998 82.3892 49.0193 82.4914 48.2501 82.6535C48.131 82.6812 48.0137 82.7166 47.8991 82.7594L47.8808 82.7689C47.7569 82.8387 47.6414 82.9233 47.5243 83.0036C47.1926 83.226 46.8755 83.4694 46.5749 83.7325C46.0153 84.1828 45.4638 84.6433 44.915 85.1068C39.1359 89.9876 33.4956 95.1214 28.2298 100.557C26.0238 102.834 24.0679 104.621 23.429 107.781C23.0039 110.583 23.0631 113.437 23.6038 116.219C24.1198 119.643 24.9064 123.024 25.6819 126.395C27.0552 132.367 28.7851 138.521 29.0171 144.677C29.0455 149.061 28.5535 153.433 27.5515 157.701C26.3235 163.706 24.7152 169.627 22.7365 175.427C22.6471 175.674 22.4988 175.895 22.3045 176.071C22.1102 176.247 21.876 176.373 21.6221 176.437C21.3682 176.501 21.1025 176.502 20.8481 176.44C20.5937 176.378 20.3584 176.254 20.1627 176.08L19.0918 178.549C26.5669 182.295 34.0418 186.04 41.5168 189.786C44.8608 191.462 48.2049 193.137 51.5489 194.813L53.6266 189.364C53.4496 189.272 53.2933 189.145 53.167 188.99C53.0408 188.835 52.9475 188.656 52.8927 188.464C52.8378 188.272 52.8227 188.071 52.8483 187.872C52.8738 187.674 52.9394 187.483 53.0411 187.311C53.3737 186.722 53.733 186.147 54.0841 185.568C56.0415 182.338 58.2385 179.239 60.3334 176.108C63.3875 171.543 66.4572 166.96 69.1024 162.14C70.035 160.527 70.8353 158.841 71.4954 157.099C72.2877 154.853 72.2562 152.832 72.4137 150.301C72.7038 146.403 72.7308 142.489 72.4945 138.587C72.2663 135.473 71.3769 132.445 71.2002 129.321C71.0651 127.737 71.2567 126.141 71.763 124.634C72.3434 123.22 73.0432 121.857 73.8547 120.562C75.6013 117.557 77.5317 114.664 79.3532 111.705C81.1649 108.896 82.7375 105.939 84.0542 102.865C84.653 101.38 85.5243 99.5024 85.4054 97.8689ZM48.2233 96.3251C48.6127 96.2255 49.0254 96.281 49.3749 96.4799C49.7244 96.6789 49.9834 97.0059 50.0977 97.3922C50.3589 98.1336 50.6161 98.877 50.8985 99.6107C50.9514 99.7486 51.0055 99.8859 51.0609 100.023L51.0629 100.028C51.0788 100.065 51.095 100.102 51.1112 100.139C51.2185 100.38 51.3328 100.618 51.457 100.851C51.5766 101.075 51.7054 101.293 51.8435 101.506C51.917 101.619 51.993 101.731 52.0716 101.841C52.1037 101.886 52.1728 101.971 52.224 102.033C52.617 102.494 53.0066 102.954 53.4243 103.395C53.7027 103.685 53.8581 104.072 53.8581 104.475C53.8581 104.878 53.7027 105.265 53.4243 105.555C53.1367 105.838 52.7498 105.997 52.3468 105.997C51.9438 105.997 51.5569 105.838 51.2693 105.555C50.3177 104.615 49.4959 103.552 48.8257 102.393C48.1656 101.041 47.6085 99.6408 47.1591 98.2045C47.0569 97.8139 47.1109 97.3988 47.3097 97.0476C47.5086 96.6965 47.8364 96.4372 48.2233 96.3251Z" fill="#FFEBD7"/>
<path d="M52.0715 101.841C51.993 101.731 51.917 101.619 51.8433 101.506C51.7052 101.293 51.5764 101.075 51.4569 100.851C51.3327 100.618 51.2184 100.38 51.1111 100.139C51.0948 100.102 51.0786 100.065 51.0628 100.028L51.0607 100.023C51.0052 99.886 50.9511 99.7486 50.8983 99.6107C50.616 98.877 50.3588 98.1335 50.0975 97.3922C50.0446 97.1984 49.9541 97.017 49.8311 96.8584C49.7082 96.6998 49.5553 96.567 49.3812 96.4677C49.207 96.3684 49.0151 96.3044 48.8163 96.2796C48.6174 96.2547 48.4157 96.2694 48.2225 96.3228C48.0294 96.3762 47.8487 96.4672 47.6906 96.5907C47.5326 96.7142 47.4004 96.8677 47.3017 97.0425C47.2029 97.2173 47.1394 97.4098 47.1149 97.6092C47.0905 97.8086 47.1054 98.0109 47.159 98.2044C47.6083 99.6408 48.1654 101.041 48.8255 102.393C49.4958 103.552 50.3176 104.615 51.2692 105.555C51.5567 105.838 51.9436 105.997 52.3466 105.997C52.7497 105.997 53.1366 105.838 53.4241 105.555C53.7025 105.265 53.858 104.878 53.858 104.475C53.858 104.072 53.7025 103.685 53.4241 103.395C53.0064 102.954 52.6169 102.494 52.2238 102.033C52.1726 101.971 52.1036 101.886 52.0715 101.841Z" fill="#323232"/>
<path d="M57.4247 112.889C53.9905 116.797 50.3236 120.493 46.4442 123.957C45.2444 124.986 46.4074 126.575 47.6802 126.5C48.0203 126.478 48.3437 126.344 48.5991 126.118C51.9674 123.183 55.1615 120.053 58.1649 116.744V112.062C57.9162 112.336 57.6743 112.616 57.4247 112.889Z" fill="#323232"/>
<path d="M41.5163 189.786C34.0413 186.041 26.5664 182.295 19.0914 178.549L17.877 181.35L26.1682 185.504C33.778 189.318 41.3879 193.131 48.9977 196.944C49.4842 197.188 49.9706 197.431 50.4568 197.675L51.5484 194.813C48.2044 193.137 44.8603 191.461 41.5163 189.786Z" fill="#323232"/>
<path d="M12.4733 180.752C12.7538 180.189 13.0343 179.627 13.3148 179.064C14.8356 179.826 16.3564 180.588 17.8772 181.35L19.0916 178.549C18.9568 178.482 18.8219 178.414 18.687 178.347C16.9257 177.464 15.1646 176.582 13.4035 175.699C13.0532 175.5 12.6394 175.447 12.2502 175.549C11.8609 175.651 11.5268 175.902 11.3187 176.247C7.87647 183.153 4.43417 190.06 0.991842 196.966C0.661193 197.63 0.330581 198.293 0 198.956L2.74819 200.264C5.98998 193.76 9.23169 187.256 12.4733 180.752Z" fill="#323232"/>
<path d="M55.8199 196.953C54.3963 196.239 52.9727 195.526 51.5489 194.813L50.4573 197.675L53.0108 198.954C49.81 205.376 46.6092 211.798 43.4084 218.22C43.2215 218.595 43.0346 218.97 42.8477 219.345L45.596 220.653C48.6939 214.437 51.7918 208.222 54.8899 202.006C55.382 201.018 55.8743 200.031 56.3666 199.043C56.5646 198.692 56.6183 198.277 56.5162 197.887C56.4141 197.496 56.1643 197.161 55.8199 196.953Z" fill="#323232"/>
<path d="M87.7138 94.8949C86.5109 92.1847 84.0589 89.6503 80.905 89.8849C78.4044 90.106 76.0912 91.3053 74.4656 93.2234C73.0246 94.9469 71.5784 96.6658 70.1271 98.3801C70.0102 98.4138 69.8979 98.4615 69.7925 98.5223C69.5958 98.6482 69.428 98.8146 69.3003 99.0105C69.1726 99.2063 69.0879 99.4271 69.0517 99.6583C68.9253 99.807 68.8015 99.9578 68.6749 100.106C65.2292 104.142 61.7259 108.127 58.1648 112.062V116.744C61.4862 113.14 64.6716 109.401 67.8453 105.737C68.8361 104.593 69.8044 103.43 70.7873 102.28C71.8574 103.237 73.0501 104.047 74.1268 105.04C74.9324 105.91 76.0159 106.471 77.1899 106.625C77.9571 106.652 78.7156 106.454 79.3725 106.056C80.7273 105.146 81.8364 103.915 82.6009 102.471C83.3198 101.262 83.9287 99.9918 84.4199 98.674C84.524 98.2834 84.4708 97.8674 84.2717 97.5158C84.0726 97.1642 83.7436 96.9051 83.3557 96.7946C82.9663 96.6959 82.5539 96.7518 82.2046 96.9506C81.8554 97.1495 81.5962 97.4759 81.4813 97.8618C81.4496 97.9458 81.3099 98.2862 81.3003 98.3165C81.2089 98.5268 81.117 98.7369 81.0198 98.9447C80.7651 99.4889 80.4907 100.024 80.1931 100.546C80.0219 100.847 79.8423 101.142 79.6544 101.433C79.5601 101.578 79.4632 101.721 79.3638 101.863C79.3425 101.894 79.2125 102.07 79.1752 102.123C78.9843 102.368 78.7802 102.601 78.5637 102.823C78.47 102.918 78.3739 103.011 78.2746 103.1C78.2261 103.144 78.1761 103.186 78.1261 103.228C78.0136 103.305 77.8978 103.374 77.7834 103.447C77.7416 103.471 77.6981 103.491 77.6531 103.507C77.5745 103.525 77.4969 103.548 77.4208 103.574C77.3793 103.575 77.338 103.578 77.2965 103.576C77.2921 103.576 77.2913 103.577 77.2873 103.576L77.2739 103.565C77.138 103.466 76.9336 103.413 76.7874 103.311C76.4717 103.064 76.1716 102.798 75.889 102.513C74.8933 101.615 73.6958 100.925 72.7189 100.01C73.5527 99.0239 74.4011 98.0508 75.2286 97.0599C75.8686 96.2937 76.4723 95.4531 77.1825 94.7504C78.0578 93.915 79.14 93.3295 80.3169 93.0545C80.9108 92.8745 81.5457 92.8828 82.1348 93.0783C82.7238 93.2739 83.2383 93.647 83.6078 94.1468C84.606 95.1505 85.2389 96.4613 85.4051 97.8688C85.524 99.5023 84.6528 101.38 84.0539 102.865C82.7372 105.939 81.1647 108.896 79.3529 111.705C77.5315 114.664 75.601 117.557 73.8544 120.562C73.043 121.857 72.3432 123.22 71.7628 124.634C71.2564 126.141 71.0648 127.737 71.2 129.321C71.3766 132.445 72.2661 135.473 72.4942 138.587C72.7306 142.489 72.7036 146.403 72.4135 150.301C72.2559 152.832 72.2874 154.853 71.4952 157.099C70.835 158.841 70.0347 160.527 69.1021 162.14C66.4569 166.959 63.3872 171.543 60.3332 176.108C58.2382 179.239 56.0413 182.338 54.0839 185.567C53.7327 186.147 53.3734 186.722 53.0408 187.311C52.9391 187.483 52.8735 187.674 52.848 187.872C52.8225 188.07 52.8376 188.272 52.8924 188.464C52.9472 188.656 53.0406 188.835 53.1668 188.99C53.293 189.145 53.4494 189.272 53.6263 189.364L55.3072 184.956L53.6263 189.364C53.7911 189.476 53.9773 189.551 54.1731 189.586C54.3689 189.621 54.5697 189.614 54.7627 189.565C54.9556 189.517 55.1362 189.429 55.2929 189.306C55.4496 189.184 55.5788 189.029 55.6722 188.853C57.7053 185.25 60.142 181.862 62.4432 178.429C65.3072 174.156 68.1738 169.872 70.7531 165.418C72.6609 162.124 74.7218 158.595 75.1046 154.738C75.5211 150.637 75.7095 146.516 75.669 142.395C75.5459 138.885 75.1687 135.389 74.5406 131.933C74.2462 130.387 74.1531 128.809 74.2638 127.239C74.5562 125.658 75.1719 124.155 76.0721 122.825C77.8484 119.687 79.8545 116.688 81.7518 113.624C83.7051 110.584 85.4049 107.387 86.8338 104.067C88.0689 101.06 89.1037 98.0258 87.7138 94.8949Z" fill="#323232"/>
<path d="M61.0542 14.8975C59.5616 11.2943 58.0688 7.69104 56.576 4.08781C56.3604 3.56736 56.1448 3.04695 55.9292 2.52659C55.7644 1.99868 55.3958 1.55235 54.9 1.28006C54.4042 1.00776 53.8191 0.930383 53.2659 1.06394C52.7154 1.21648 52.2487 1.57169 51.966 2.05331C51.6832 2.53493 51.607 3.10458 51.7536 3.63995C53.2464 7.24319 54.7392 10.8464 56.2319 14.4497C56.4476 14.9701 56.6632 15.4905 56.8787 16.0109C57.0436 16.5388 57.4121 16.9851 57.9079 17.2574C58.4038 17.5297 58.9889 17.6071 59.5421 17.4735C60.0925 17.321 60.5592 16.9657 60.8419 16.4841C61.1246 16.0025 61.2008 15.4329 61.0542 14.8975Z" fill="#F2E98C" stroke="#323232" stroke-width="2" stroke-miterlimit="10"/>
<path d="M48.3104 25.2448C44.685 22.7373 41.0596 20.2299 37.434 17.7224C36.9179 17.3655 36.4019 17.0085 35.8859 16.6515C35.411 16.3608 34.8479 16.2808 34.3182 16.4289C33.7885 16.577 33.3347 16.9412 33.0547 17.4429C32.7897 17.9511 32.719 18.5487 32.8573 19.1111C32.9956 19.6735 33.3322 20.1572 33.797 20.4613C37.4225 22.9688 41.048 25.4763 44.6735 27.9839C45.1895 28.3407 45.7056 28.6976 46.2217 29.0546C46.6966 29.3453 47.2596 29.4253 47.7893 29.2772C48.319 29.1291 48.7729 28.7649 49.0529 28.2632C49.3179 27.755 49.3886 27.1574 49.2502 26.595C49.1119 26.0326 48.7752 25.5489 48.3104 25.2448Z" fill="#F2E98C" stroke="#323232" stroke-width="2" stroke-miterlimit="10"/>
<path d="M40.157 39.5829C36.5504 39.3548 32.9438 39.1267 29.3371 38.8985L27.7796 38.7999C27.2297 38.8028 26.7032 39.0113 26.3143 39.3804C25.9254 39.7494 25.7056 40.2491 25.7026 40.7709C25.7152 41.2899 25.9381 41.7843 26.3249 42.1514C26.7117 42.5185 27.2327 42.73 27.7796 42.7419C31.3862 42.97 34.9928 43.1982 38.5994 43.4264L40.157 43.5249C40.7069 43.5221 41.2335 43.3135 41.6223 42.9445C42.0112 42.5755 42.231 42.0758 42.234 41.5539C42.2214 41.0349 41.9986 40.5405 41.6118 40.1734C41.2249 39.8063 40.7039 39.5948 40.157 39.5829Z" fill="#F2E98C" stroke="#323232" stroke-width="2" stroke-miterlimit="10"/>
<path d="M300.723 189.777C296.848 184.918 293.627 179.57 291.142 173.869C289.931 170.916 288.936 167.877 287.519 165.011C286.446 162.938 285.262 160.925 283.971 158.981C281.635 155.321 279.305 151.657 277.013 147.969C276.157 146.594 275.295 145.22 274.501 143.808C272.659 140.878 270.521 138.146 268.121 135.656C266.478 133.769 263.999 131.546 261.534 133.596C259.748 135.081 261.51 137.893 262.39 139.406C262.565 139.727 262.619 140.099 262.544 140.456C262.47 140.814 262.27 141.133 261.982 141.356C261.693 141.579 261.335 141.691 260.972 141.673C260.608 141.655 260.263 141.508 259.997 141.258C257.603 139.012 254.623 136.036 251.108 136.112C249.496 136.147 247.933 136.711 247.822 138.472C247.748 139.914 248.154 141.34 248.977 142.526C250.06 144.072 247.812 145.364 246.584 144.378C245.076 143.099 243.458 141.958 241.748 140.969C240.593 140.341 239.041 139.534 237.675 139.756C235.381 140.129 234.344 142.616 234.364 144.694C234.283 145.452 234.461 146.215 234.87 146.858C235.385 147.62 235.9 148.381 236.414 149.143C237.3 150.453 238.186 151.764 239.072 153.075C240.192 154.731 237.587 156.156 236.44 154.617C232.166 148.877 227.661 143.275 222.902 137.933C220.131 134.822 217.219 131.775 214.26 128.844C213.253 127.845 211.449 125.909 209.836 126.309C209.346 126.49 208.912 126.796 208.577 127.198C208.411 127.357 208.253 127.521 208.097 127.688C208.025 127.764 207.959 127.844 207.897 127.928C207.801 128.071 207.714 128.22 207.635 128.373C207.61 128.449 207.523 128.671 207.508 128.744C207.506 128.764 207.5 128.784 207.492 128.803C207.491 128.829 207.49 128.865 207.487 128.914C207.484 128.978 207.508 129.311 207.504 129.364C207.724 130.401 208.136 131.388 208.719 132.273C211.151 136.153 213.819 139.88 216.706 143.433C224.959 154.412 232.83 165.695 240.599 177.023C241.435 178.24 240.051 179.45 238.879 179.267C234.663 178.609 231.311 176.608 227.714 174.444C225.883 173.313 223.992 172.281 222.051 171.353C220.55 170.516 218.844 170.119 217.129 170.207C216.082 170.365 214.578 171.313 214.536 172.479C214.496 173.578 215.673 174.796 216.352 175.539C218.655 177.806 221.145 179.873 223.793 181.721C229.376 186.08 233.726 191.726 238.96 196.461C243.618 201.12 249.817 203.905 256.385 204.291C259.406 204.707 262.27 205.174 264.777 207.001C266.898 208.548 268.976 210.156 271.036 211.784C271.094 211.832 271.148 211.885 271.199 211.941C271.349 212.12 271.452 212.335 271.497 212.564C271.542 212.794 271.528 213.031 271.457 213.254C271.386 213.477 271.26 213.678 271.09 213.839C270.92 213.999 270.713 214.114 270.487 214.173L270.896 215.085C270.996 214.998 271.095 214.912 271.195 214.826C278.122 208.832 285.048 202.839 291.975 196.845L294.893 194.32L300.837 189.9C300.797 189.861 300.759 189.82 300.723 189.777Z" fill="#FFEBD7"/>
<path d="M306.015 188.721C304.818 189.756 303.622 190.792 302.425 191.828C295.498 197.821 288.571 203.815 281.645 209.808C278.496 212.534 275.346 215.259 272.197 217.984L273.449 220.773L272.197 217.984C271.359 218.709 270.52 219.434 269.682 220.16C271.282 221.965 272.881 223.77 274.481 225.575C274.631 225.746 274.743 225.947 274.808 226.165C274.874 226.383 274.892 226.612 274.861 226.837C274.83 227.063 274.75 227.279 274.628 227.47C274.506 227.662 274.345 227.825 274.154 227.949L278.005 233.602L317.65 200.476C313.772 196.558 309.893 192.64 306.015 188.721Z" fill="white"/>
<path d="M307.176 185.556C306.886 185.278 306.5 185.123 306.098 185.123C305.697 185.123 305.311 185.278 305.021 185.556C304.278 186.199 303.535 186.842 302.792 187.485C299.327 183.113 296.423 178.322 294.149 173.224C292.798 169.977 291.711 166.628 290.15 163.469C289.023 161.299 287.779 159.192 286.423 157.158C283.853 153.13 281.284 149.101 278.78 145.031C277.562 142.865 276.233 140.765 274.796 138.739C273.681 137.289 272.395 136.008 271.22 134.614C270.348 133.501 269.373 132.474 268.307 131.546C265.432 129.214 261.032 128.958 258.66 132.244C258.001 133.162 257.68 134.28 257.75 135.408C255.215 133.662 252.369 132.533 249.186 133.303C248.063 133.489 247.03 134.036 246.243 134.862C245.457 135.688 244.959 136.748 244.826 137.882C244.78 138.312 244.766 138.746 244.784 139.178C242.664 137.734 240.327 136.586 237.905 136.681C236.394 136.816 234.966 137.433 233.829 138.44C232.693 139.447 231.908 140.793 231.589 142.28C231.515 142.581 231.455 142.914 231.403 143.258C229.856 141.363 228.291 139.483 226.692 137.635C223.737 134.221 220.542 131.058 217.461 127.767C214.78 124.903 210.685 121.289 206.92 124.585C205.28 126.021 204.151 127.754 204.534 130.016C205.088 133.284 207.615 136.311 209.502 138.896C215.265 146.794 221.166 154.576 226.811 162.562C229.809 166.804 232.783 171.061 235.733 175.336C235.208 175.149 234.694 174.933 234.193 174.689C232.483 173.845 230.885 172.788 229.252 171.806C226.078 169.897 222.542 167.653 218.794 167.193C215.711 166.815 211.623 168.707 211.493 172.27C211.378 175.423 214.449 178.148 216.614 180.006C219.311 182.322 222.289 184.251 224.908 186.667C227.682 189.225 230.216 192.028 232.838 194.74C238.012 200.091 243.906 205.149 251.41 206.651C254.689 207.308 258.326 207.152 261.444 208.48C263.049 209.35 264.546 210.408 265.901 211.633C266.901 212.395 267.894 213.166 268.881 213.944C269.103 214.124 269.369 214.241 269.652 214.281C269.935 214.322 270.223 214.284 270.487 214.173L269.162 211.222L270.487 214.173C270.713 214.114 270.92 213.999 271.09 213.839C271.259 213.678 271.386 213.477 271.457 213.254C271.528 213.031 271.542 212.794 271.496 212.564C271.451 212.335 271.349 212.12 271.199 211.941C271.148 211.885 271.094 211.832 271.036 211.783C268.976 210.156 266.898 208.548 264.776 207.001C262.27 205.174 259.406 204.707 256.385 204.291C249.817 203.905 243.618 201.12 238.96 196.461C233.726 191.726 229.375 186.08 223.793 181.721C221.144 179.873 218.655 177.806 216.352 175.539C215.673 174.796 214.496 173.578 214.535 172.479C214.578 171.313 216.082 170.365 217.129 170.207C218.844 170.119 220.549 170.516 222.05 171.353C223.992 172.281 225.883 173.313 227.714 174.444C231.31 176.608 234.663 178.609 238.878 179.267C240.051 179.45 241.434 178.24 240.599 177.023C232.83 165.695 224.959 154.412 216.705 143.432C213.818 139.88 211.151 136.153 208.718 132.273C208.135 131.388 207.723 130.401 207.503 129.364C207.508 129.311 207.483 128.978 207.487 128.914C207.489 128.865 207.491 128.829 207.492 128.803C207.5 128.784 207.505 128.764 207.508 128.744C207.522 128.671 207.609 128.449 207.634 128.373C207.713 128.22 207.801 128.071 207.896 127.928C207.958 127.844 208.025 127.764 208.096 127.688C208.253 127.521 208.411 127.357 208.576 127.198C208.911 126.796 209.346 126.49 209.836 126.309C211.448 125.909 213.252 127.845 214.26 128.844C217.219 131.775 220.131 134.822 222.902 137.933C227.661 143.275 232.165 148.877 236.44 154.617C237.586 156.156 240.191 154.731 239.071 153.075C238.186 151.764 237.3 150.454 236.414 149.143C235.899 148.381 235.384 147.62 234.869 146.858C234.461 146.215 234.282 145.452 234.364 144.694C234.344 142.616 235.381 140.129 237.675 139.756C239.041 139.534 240.593 140.341 241.748 140.969C243.458 141.958 245.076 143.099 246.583 144.377C247.811 145.364 250.06 144.072 248.976 142.526C248.154 141.34 247.748 139.914 247.821 138.471C247.932 136.711 249.496 136.147 251.108 136.112C254.623 136.036 257.602 139.012 259.997 141.258C260.262 141.508 260.608 141.655 260.971 141.673C261.335 141.691 261.693 141.579 261.981 141.356C262.27 141.133 262.469 140.814 262.544 140.456C262.619 140.099 262.564 139.727 262.39 139.406C261.51 137.893 259.748 135.081 261.533 133.596C263.998 131.546 266.478 133.769 268.121 135.656C270.521 138.146 272.659 140.878 274.501 143.808C275.295 145.22 276.157 146.594 277.012 147.969C279.305 151.657 281.635 155.321 283.971 158.981C285.262 160.925 286.446 162.938 287.518 165.011C288.936 167.877 289.931 170.916 291.142 173.869C293.626 179.57 296.848 184.918 300.722 189.777C300.758 189.82 300.796 189.861 300.836 189.9L294.893 194.32L291.975 196.845C285.048 202.839 278.121 208.832 271.195 214.826C271.095 214.912 270.995 214.998 270.896 215.085L272.197 217.984C275.346 215.259 278.496 212.534 281.645 209.809C288.572 203.815 295.498 197.821 302.425 191.828C303.622 190.792 304.818 189.757 306.015 188.721C309.893 192.64 313.772 196.558 317.65 200.476L320 198.513C315.725 194.194 311.451 189.875 307.176 185.556Z" fill="#323232"/>
<path d="M266.444 218.937C266.164 219.226 266.008 219.614 266.008 220.017C266.008 220.42 266.164 220.808 266.444 221.097C268.405 223.31 270.365 225.523 272.326 227.736C272.541 228.006 272.854 228.18 273.197 228.219C273.539 228.259 273.883 228.162 274.154 227.949L271.544 224.116L274.154 227.949C274.345 227.825 274.507 227.662 274.629 227.47C274.751 227.278 274.83 227.063 274.861 226.837C274.892 226.612 274.874 226.382 274.809 226.165C274.743 225.947 274.631 225.746 274.481 225.575C272.881 223.77 271.282 221.965 269.682 220.16C270.521 219.434 271.359 218.709 272.197 217.984L270.896 215.084C269.412 216.369 267.928 217.653 266.444 218.937Z" fill="#323232"/>
<path d="M179.763 60.2933H120.239C119.258 60.2933 118.462 61.091 118.462 62.075C118.462 63.059 119.258 63.8567 120.239 63.8567H179.763C180.744 63.8567 181.54 63.059 181.54 62.075C181.54 61.091 180.744 60.2933 179.763 60.2933Z" fill="#EDEDED"/>
<path d="M194.6 68.3428H120.239C119.258 68.3428 118.462 69.1405 118.462 70.1244C118.462 71.1084 119.258 71.9061 120.239 71.9061H194.6C195.581 71.9061 196.377 71.1084 196.377 70.1244C196.377 69.1405 195.581 68.3428 194.6 68.3428Z" fill="#EDEDED"/>
<path d="M113.78 80.5447H92.9946V59.7041H113.78V80.5447Z" fill="#F2E98C"/>
<path d="M102.847 74.8604L97.7095 70.6936L99.6192 68.6158L102.566 71.0042L107.726 65.3892L109.919 67.1655L102.847 74.8604Z" fill="white"/>
<path d="M113.78 108.515H92.9946V87.6743H113.78V108.515Z" fill="#F2E98C"/>
<path d="M102.847 102.831L97.7095 98.6641L99.6192 96.5853L102.566 98.9748L107.726 93.3586L109.919 95.136L102.847 102.831Z" fill="white"/>
<path d="M226.004 54.8919C223.05 54.8015 220.135 55.5915 217.629 57.162C215.122 58.7326 213.136 61.0131 211.922 63.7153C210.709 66.4174 210.321 69.4198 210.809 72.3427C211.297 75.2656 212.638 77.9779 214.664 80.1364C216.689 82.2949 219.307 83.8028 222.187 84.4693C225.067 85.1359 228.08 84.9312 230.844 83.8811C233.608 82.831 235.999 80.9827 237.715 78.5699C239.432 76.1571 240.396 73.2882 240.486 70.326C240.607 66.3539 239.149 62.4962 236.433 59.6018C233.717 56.7073 229.966 55.0131 226.004 54.8919ZM236.416 70.2015C236.35 72.3567 235.649 74.4439 234.4 76.1993C233.152 77.9547 231.412 79.2994 229.401 80.0634C227.39 80.8274 225.198 80.9764 223.103 80.4914C221.008 80.0065 219.103 78.9095 217.629 77.3391C216.156 75.7687 215.18 73.7954 214.825 71.6689C214.47 69.5423 214.752 67.358 215.635 65.392C216.518 63.4261 217.963 61.7669 219.786 60.6243C221.61 59.4816 223.731 58.9069 225.88 58.9726C227.307 59.0163 228.712 59.3413 230.014 59.9293C231.315 60.5172 232.489 61.3565 233.467 62.3992C234.446 63.4419 235.21 64.6676 235.716 66.0063C236.222 67.3451 236.46 68.7706 236.416 70.2015Z" fill="#F2E98C"/>
<path d="M225.559 88.1852C225.37 88.1852 225.181 88.1824 224.991 88.1763C220.177 88.0256 215.617 85.9731 212.305 82.4661C208.994 78.959 207.199 74.2817 207.312 69.4535C207.425 64.6253 209.436 60.0374 212.908 56.6898C216.38 53.3422 221.031 51.5062 225.847 51.5818C230.663 51.6575 235.254 53.6387 238.62 57.0937C241.985 60.5487 243.852 65.1974 243.814 70.0268C243.776 74.8563 241.836 79.4749 238.417 82.8762C234.997 86.2775 230.375 88.1858 225.559 88.1852ZM225.538 52.9987C221.095 52.9997 216.832 54.7616 213.678 57.9005C210.525 61.0394 208.736 65.3008 208.703 69.756C208.669 74.2113 210.393 78.4992 213.499 81.6855C216.605 84.8717 220.841 86.6979 225.284 86.7661C229.727 86.8344 234.017 85.1391 237.219 82.0497C240.421 78.9604 242.275 74.7274 242.378 70.2732C242.48 65.819 240.823 61.5047 237.767 58.2705C234.71 55.0362 230.503 53.1442 226.062 53.0068C225.887 53.0016 225.713 52.9988 225.538 52.9988V52.9987Z" fill="#F2E98C"/>
<path d="M223.626 76.2455L217.833 70.4572L220.45 68.1442L223.771 71.4635L230.842 65.2129L233.313 67.6818L223.626 76.2455Z" fill="#33C65C"/>
<path d="M193.812 88.8872H120.239C119.258 88.8872 118.462 89.6849 118.462 90.6689C118.462 91.6529 119.258 92.4505 120.239 92.4505H193.812C194.793 92.4505 195.589 91.6529 195.589 90.6689C195.589 89.6849 194.793 88.8872 193.812 88.8872Z" fill="#EDEDED"/>
<path d="M164.62 95.918H120.239C119.258 95.918 118.462 96.7157 118.462 97.6996C118.462 98.6836 119.258 99.4813 120.239 99.4813H164.62C165.602 99.4813 166.397 98.6836 166.397 97.6996C166.397 96.7157 165.602 95.918 164.62 95.918Z" fill="#EDEDED"/>
<path d="M182.696 103.211H120.239C119.258 103.211 118.462 104.009 118.462 104.993C118.462 105.977 119.258 106.774 120.239 106.774H182.696C183.678 106.774 184.473 105.977 184.473 104.993C184.473 104.009 183.678 103.211 182.696 103.211Z" fill="#EDEDED"/>
<path d="M113.78 137.504H92.9946V116.663H113.78V137.504Z" fill="#F2E98C"/>
<path d="M102.421 131.819L97.2827 127.653L99.1925 125.574L102.139 127.964L107.3 122.348L109.492 124.125L102.421 131.819Z" fill="white"/>
<path d="M193.812 118.14H120.239C119.258 118.14 118.462 118.938 118.462 119.922C118.462 120.906 119.258 121.703 120.239 121.703H193.812C194.793 121.703 195.589 120.906 195.589 119.922C195.589 118.938 194.793 118.14 193.812 118.14Z" fill="#EDEDED"/>
<path d="M182.696 125.171H120.239C119.258 125.171 118.462 125.968 118.462 126.952C118.462 127.936 119.258 128.734 120.239 128.734H182.696C183.678 128.734 184.473 127.936 184.473 126.952C184.473 125.968 183.678 125.171 182.696 125.171Z" fill="#EDEDED"/>
</svg>
