<svg width="320" height="320" viewBox="0 0 320 320" fill="none" xmlns="http://www.w3.org/2000/svg">
<rect width="320" height="320" fill="white"/>
<path d="M282.843 150.693C275.181 139.385 264.553 129.64 250.583 126.984C235.126 124.046 218.697 123.644 204.408 118.026C195.553 114.544 187.996 109.226 179.467 105.242C144.463 88.8936 98.2072 96.8176 75.3776 129.445C70.4001 136.559 66.5512 144.687 59.9074 150.274C55.1613 154.264 49.2621 156.702 44.5542 160.738C37.2046 167.038 33.5184 176.502 30.106 185.565C22.6826 205.281 13.1767 233.424 31.9241 249.983C44.7042 261.272 44.9168 260.009 60.2205 268.99C76.5727 278.586 172.145 287.921 198.318 277.262C224.49 266.602 238.669 270.128 261.816 255.567C289.186 238.35 304.126 204.966 295.611 177.627C292.661 168.085 288.362 159.015 282.843 150.693Z" fill="#FAF7DE"/>
<g clip-path="url(#clip0_148_2485)">
<path d="M206.903 258.75C208.312 258.75 209.447 259.887 209.447 261.308C209.447 262.729 208.311 263.854 206.903 263.854C205.495 263.854 204.359 262.717 204.359 261.308C204.359 259.898 205.505 258.75 206.903 258.75Z" fill="white"/>
<path d="M208.65 160.027C204.554 159.131 200.612 157.185 197.522 154.321C195.272 152.234 193.677 150.014 192.595 147.73C190.313 142.953 190.204 137.914 190.717 133.343C191.035 130.556 193.382 123.592 194.355 120.958C194.562 120.4 194.682 118.913 194.759 117.383C194.867 115.284 194.879 113.098 194.879 113.098L195.48 111.677C200.22 113.732 226.093 113.219 234.054 104.397C234.044 112.77 234.338 125.812 244.44 133.321L244.648 133.561C249.323 132.074 250.6 137.901 249.387 141.497C247.443 147.258 242.08 148.745 239.241 148.745L239.273 149.892C239.273 149.892 236.587 159.261 239.219 164.027L239.132 164.431C239.132 164.431 239.317 164.498 239.667 164.628L239.12 165.951L229.279 188.853L229.04 188.754C229.04 188.754 210.353 195.521 204.564 187.999H204.345C204.203 180.806 204.182 174.652 204.356 170.979H204.422V168.421L201.723 168.377C204.464 167.382 206.409 166.835 206.933 166.682C207.032 166.66 207.076 166.65 207.076 166.65L208.277 166.704L208.55 160.485L208.648 160.026L208.65 160.027ZM223.438 128.513C223.831 127.43 223.186 126.196 221.996 125.769C220.816 125.343 219.539 125.868 219.145 126.951C218.751 128.033 219.396 129.267 220.576 129.694C221.767 130.121 223.044 129.595 223.438 128.513ZM203.452 122.829C203.637 121.692 202.786 120.599 201.541 120.391C200.296 120.184 199.138 120.939 198.941 122.074C198.756 123.211 199.607 124.304 200.852 124.512C202.097 124.719 203.255 123.964 203.452 122.829Z" fill="#FFEBD7"/>
<path d="M229.281 188.854L206.226 242.494C206.226 242.494 204.752 210.247 204.348 188.001H204.567C210.356 195.522 229.043 188.755 229.043 188.755L229.282 188.854H229.281Z" fill="white"/>
<path d="M172.851 141.762C176.193 139.172 178.322 146.506 178.399 148.398C178.529 151.294 176.368 161.504 174.019 165.527C172.905 167.429 170.076 168.304 168.897 170.074V170.326L154.733 170.281V169.45C154.045 163.537 150.735 145.194 154.481 140.472C156.414 138.023 167.522 133.027 170.186 134.7C171.606 135.596 173.659 139.17 170.743 139.51L170.711 139.685C170.798 139.695 170.886 139.717 170.972 139.739C171.803 139.969 172.523 140.822 172.851 141.762Z" fill="#FFEBD7"/>
<path d="M55.8589 147.49C59.004 145.063 61.0027 151.96 61.0909 153.743C61.1997 156.464 59.1686 166.085 56.9627 169.878C55.9148 171.66 53.2488 172.481 52.1348 174.153V174.383L38.7889 174.35V173.563C38.1555 167.998 35.0325 150.728 38.5597 146.278C40.3835 143.982 50.846 139.272 53.3473 140.845C54.6906 141.687 56.6129 145.054 53.872 145.372L53.8396 145.547C53.9264 145.547 54.0145 145.569 54.091 145.591C54.8772 145.798 55.5547 146.607 55.8604 147.493L55.8589 147.49Z" fill="#FFEBD7"/>
<path d="M103.793 185.225L90.9057 198.539C90.9057 198.539 87.477 193.238 86.0676 184.557L87.0185 184.404H102.942L103.795 185.224L103.793 185.225Z" fill="white"/>
<path d="M89.5742 164.696C85.7193 163.843 82.0173 162.007 79.1 159.318C72.5366 153.262 71.9796 145.928 72.6894 139.566C72.9848 136.941 75.1907 130.394 76.1078 127.902C76.3047 127.377 76.4135 125.99 76.4899 124.557C76.5884 122.568 76.5987 120.502 76.5987 120.502V120.491C76.5987 120.491 80.1802 120.797 84.9316 118.414L85.1506 118.863C86.7892 121.256 105.476 121.192 113.491 112.304C113.481 120.196 109.767 138.08 123.276 139.555L123.461 139.775C127.863 138.376 129.064 143.852 127.928 147.241C127.785 147.646 127.632 148.039 127.447 148.4C125.35 152.871 120.85 154.074 118.382 154.074L118.404 155.157C118.404 155.157 115.871 163.978 118.35 168.46L118.274 168.855C118.274 168.855 118.448 168.921 118.776 169.04L118.263 170.275L103.793 185.23L102.941 184.41H87.017L86.0662 184.563C85.64 181.907 85.4004 178.944 85.4989 175.709H85.4768V172.364L83.9264 172.255C86.4703 171.37 88.0869 170.943 88.0869 170.943L89.223 170.998L89.4846 165.127L89.5713 164.7L89.5742 164.696ZM103.487 135.017C103.859 133.989 103.258 132.842 102.144 132.427C101.03 132.022 99.8177 132.526 99.4459 133.542C99.0858 134.57 99.6854 135.728 100.799 136.132C101.913 136.537 103.114 136.034 103.486 135.017H103.487ZM84.67 129.661C84.8449 128.591 84.0469 127.562 82.8785 127.377C81.6984 127.18 80.6064 127.89 80.4315 128.963C80.2566 130.034 81.0547 131.05 82.223 131.247C83.4032 131.444 84.4951 130.734 84.67 129.661Z" fill="#FFEBD7"/>
<path d="M86.942 200.354C77.1012 201.097 72.2411 194.002 69.9264 188.22C68.3862 184.394 67.9718 181.137 67.9718 181.137L67.425 180.328C73.3771 176.305 79.8421 173.67 83.9278 172.25L85.4783 172.358V175.703H85.5003C85.4018 178.94 85.6429 181.902 86.0676 184.557C87.477 193.236 90.9057 198.539 90.9057 198.539L90.3266 199.817H90.3164C89.1259 200.091 88.0016 200.266 86.942 200.353V200.354Z" fill="#447193"/>
<path d="M76.6001 120.5C76.6001 120.5 76.5898 122.567 76.4913 124.556L76.1092 124.534C61.0159 108.181 108.339 78.5668 123.279 100.026L123.836 100.321C140.044 107.667 146.957 129.738 133.044 143.893C131.996 144.964 130.826 145.992 129.527 146.965C128.871 147.468 128.173 147.937 127.452 148.398C127.637 148.037 127.79 147.643 127.932 147.238C129.068 143.849 127.866 138.373 123.466 139.772L123.281 139.552C109.77 138.077 113.484 120.193 113.496 112.301C105.479 121.189 86.7921 121.253 85.1549 118.86L84.936 118.411C80.1846 120.794 76.603 120.488 76.603 120.488V120.499L76.6001 120.5Z" fill="#515151"/>
<path d="M194.878 113.1C194.878 113.1 194.868 115.286 194.757 117.385L194.353 117.374C178.321 100.015 228.581 68.5655 244.439 91.3584L245.04 91.6644C264.24 100.377 261.466 118.533 260.789 139.904C260.471 149.895 267.211 163.963 249.813 168.293L249.65 168.675C245.019 166.642 241.056 165.145 239.668 164.63C239.319 164.499 239.133 164.433 239.133 164.433L239.22 164.028C236.588 159.262 239.275 149.893 239.275 149.893L239.242 148.746C242.082 148.746 247.444 147.259 249.389 141.499C250.601 137.902 249.323 132.075 244.649 133.563L244.442 133.323C234.339 125.813 234.044 112.772 234.056 104.399C226.095 113.22 200.221 113.734 195.482 111.679L194.881 113.1H194.878Z" fill="#515151"/>
<path d="M221.996 125.769C223.186 126.196 223.83 127.432 223.438 128.513C223.044 129.595 221.767 130.119 220.576 129.694C219.396 129.267 218.752 128.032 219.145 126.95C219.539 125.868 220.816 125.344 221.996 125.769Z" fill="#343434"/>
<path d="M86.5483 205.819L86.5043 205.6C86.6468 205.578 86.7997 205.545 86.9407 205.513L87.3126 205.382C87.968 206.137 88.9071 206.541 89.8786 206.574L89.8462 207.699C90.4032 210.126 89.7154 212.662 88.5691 214.936C86.3514 219.352 82.398 222.84 82.398 222.84C82.398 222.84 78.139 226.174 77.363 227.398C77.1014 227.813 77.4071 209.81 86.5483 205.82V205.819Z" fill="#F7707E"/>
<path d="M193.295 205.863L193.382 206.431L193.49 207.021L193.599 207.644L193.72 208.301L193.84 208.979L193.983 209.689L194.125 210.41L194.288 211.165L194.451 211.941L194.615 212.728L194.986 214.379L195.401 216.095L195.849 217.877L196.33 219.702L196.854 221.572L197.411 223.484L198.012 225.408L198.656 227.354L199.334 229.3L200.044 231.246L200.797 233.171L201.594 235.083L202.435 236.952L203.309 238.788L204.238 240.592C204.61 241.302 204.325 242.177 203.615 242.548C202.905 242.908 202.03 242.635 201.66 241.924L200.721 240.077L199.804 238.165L198.941 236.23L198.123 234.252L197.347 232.263L196.615 230.262L195.927 228.274L195.283 226.273L194.682 224.305L194.115 222.359L193.602 220.446L193.121 218.577L192.673 216.762L192.259 215.002L191.899 213.33L191.724 212.521L191.561 211.724L191.408 210.959L191.265 210.216L191.123 209.495L190.992 208.807L190.871 208.14L190.763 207.506L190.664 206.894L190.566 206.315L190.479 205.757L190.403 205.244L190.336 204.763L190.27 204.314L190.216 203.899L190.172 203.517L190.14 203.179L190.095 202.774L190.162 202.194L190.381 201.669L190.654 201.275L190.96 200.937L191.287 200.631L191.669 200.325L192.423 199.789L193.286 199.254L194.171 198.751L194.629 198.499L195.066 198.27L195.492 198.062L195.896 197.855L196.278 197.67L196.628 197.506L196.946 197.353L197.219 197.233L197.438 197.124L197.613 197.047L197.721 197.003L197.754 196.993C198.442 196.687 199.262 197.003 199.567 197.693C199.873 198.393 199.557 199.202 198.858 199.508L198.835 199.519L198.737 199.563L198.574 199.629L198.367 199.728L198.105 199.848L197.81 199.991L197.482 200.144L197.11 200.329L196.728 200.515L196.324 200.722L195.92 200.941L195.516 201.16L194.685 201.619L193.943 202.078L193.31 202.537L193.091 202.712L192.916 202.876L192.872 202.92V202.887L192.85 202.745L192.828 202.908L192.783 203.029L192.805 202.996L192.872 202.92L192.916 203.204L192.96 203.554L193.004 203.948L193.07 204.374L193.136 204.845L193.213 205.348L193.299 205.873L193.295 205.863Z" fill="#343434"/>
<path d="M94.1609 206.694C93.6907 206.454 93.2321 206.181 92.7633 205.875L92.5781 205.668C93.5613 204.836 94.205 203.405 94.0199 201.371L94.0522 201.262C104.832 204.476 116.004 199.984 124.796 194.353L125.113 194.844C125.113 194.844 108.916 214.465 94.1624 206.694H94.1609Z" fill="#F7707E"/>
<path d="M206.88 166.302C206.88 166.302 187.801 160.618 192.366 147.883L192.595 147.73C193.677 150.014 195.272 152.234 197.522 154.321C200.612 157.185 204.555 159.131 208.65 160.027L208.551 160.486L208.278 166.705L207.077 166.651C207.077 166.651 207.033 166.661 206.935 166.683L206.88 166.301V166.302Z" fill="#515151"/>
<path d="M82.8799 127.376C84.0483 127.561 84.8463 128.589 84.6714 129.66C84.4966 130.731 83.4046 131.441 82.2245 131.246C81.0561 131.049 80.2581 130.032 80.433 128.961C80.6079 127.89 81.6998 127.18 82.8799 127.376Z" fill="#343434"/>
<path d="M240.411 199.205L240.421 199.336L240.399 199.294L240.355 199.195L240.377 199.151L240.443 198.988L240.411 199.205Z" fill="#343434"/>
<path d="M89.8477 207.699L89.88 206.574C90.8309 206.628 91.8126 206.334 92.5783 205.666L92.7635 205.873C93.2338 206.179 93.6923 206.453 94.1611 206.693C99.2608 210.945 97.2959 218.444 96.1598 223.177C95.8321 224.531 95.0782 227.953 95.3412 229.386C95.3956 229.736 90.2078 221.111 89.2804 214.935H88.5706C89.7169 212.661 90.4047 210.125 89.8477 207.697V207.699Z" fill="#F7707E"/>
<path d="M201.541 120.391C202.786 120.599 203.638 121.692 203.452 122.829C203.255 123.966 202.098 124.72 200.852 124.512C199.607 124.304 198.755 123.211 198.941 122.074C199.138 120.937 200.295 120.182 201.541 120.391Z" fill="#343434"/>
<path d="M162.059 280.633L61.5921 280.567V278.981C61.5921 278.981 62.7384 263.404 63.8965 246.636L62.7928 246.559C62.7928 246.559 37.4883 259.644 35.1722 234.502C33.6761 218.159 34.5828 196.855 35.2927 184.37L36.3743 184.425H55.5636L56.6452 184.282C56.8304 185.791 57.0274 187.398 57.2346 189.026L58.0106 188.928C60.5766 185.55 63.9083 182.696 67.4251 180.325L67.9719 181.134C67.9719 181.134 68.3863 184.393 69.9265 188.217L69.9044 188.227C69.9044 188.227 67.578 209.708 86.5056 205.597L86.5497 205.816C77.4085 209.805 77.1028 227.81 77.3644 227.394C78.1404 226.17 82.3994 222.835 82.3994 222.835C82.3994 222.835 86.3528 219.348 88.5705 214.932H89.2803C90.2092 221.108 95.397 229.733 95.3412 229.383C95.0796 227.95 95.8321 224.53 96.1598 223.174C97.2958 218.44 99.2607 210.941 94.1611 206.69C108.916 214.462 125.112 194.839 125.112 194.839L124.794 194.348C134.613 188.063 141.45 180.346 141.45 180.346L141.768 179.843C143.089 180.718 144.257 181.592 145.196 182.455C146.911 184.041 148.494 187.308 149.948 191.725L150.483 191.747C149.948 204.625 149.674 220.923 150.887 234.172C151.629 242.261 155.212 246.339 159.843 248.098L159.34 249.223C161.164 266.605 162.059 278.246 162.059 278.246V280.629V280.633Z" fill="#7A9FBF"/>
<path d="M148.277 163.231C148.178 169.691 150.438 170.348 151.629 170.37C151.619 170.577 151.607 170.84 151.585 171.157C151.53 171.201 151.476 171.243 151.41 171.299C148.068 174.196 138.545 173.245 133.258 166.664C130.025 162.619 126.902 154.508 129.522 146.966C130.822 145.994 131.99 144.966 133.039 143.895L133.389 144.245C144.267 146.771 148.416 154.236 148.275 163.232L148.277 163.231Z" fill="#515151"/>
<path d="M69.9265 188.22C72.2412 194.003 77.1013 201.097 86.9421 200.354C86.0676 202.65 86.4174 204.344 87.3139 205.382L86.9421 205.513C86.7995 205.545 86.6467 205.579 86.5056 205.6C67.5794 209.71 69.9044 188.23 69.9044 188.23L69.9265 188.22Z" fill="#F7707E"/>
<path d="M56.6465 184.285L55.5649 184.428H36.3756L35.2939 184.373C35.5893 179.148 35.8509 175.463 35.873 174.338L38.7888 174.348L52.1347 174.381L55.4326 174.391C55.4326 174.391 55.9573 178.698 56.6451 184.283L56.6465 184.285Z" fill="#7A9FBF"/>
<path d="M242.954 198.255L243.097 198.714L243.163 199.282L243.054 199.862L242.891 200.266L242.716 200.638L242.519 201.053L242.29 201.512L242.017 202.015L241.721 202.573L241.404 203.174L241.044 203.808L240.662 204.497L240.247 205.217L239.811 205.972L239.341 206.769L238.86 207.6L238.347 208.464L237.812 209.36L237.255 210.278L236.676 211.229L236.075 212.191L235.464 213.186L234.83 214.202L234.175 215.23L233.509 216.279L232.831 217.34L232.132 218.411L231.422 219.493L230.702 220.586L229.97 221.679L229.228 222.784L228.474 223.889L227.72 224.993L226.956 226.086L226.192 227.191L225.405 228.274L224.629 229.367L223.843 230.427L223.057 231.488L222.271 232.526L221.484 233.565L220.698 234.571L219.912 235.577L219.136 236.529L218.36 237.481L217.574 238.41L216.809 239.296L216.045 240.159L215.291 240.99L214.549 241.788L213.817 242.542C213.26 243.122 212.343 243.132 211.764 242.575C211.197 242.017 211.185 241.099 211.742 240.52L212.452 239.787L213.162 239.022L213.894 238.225L214.636 237.394L215.378 236.53L216.132 235.634L216.896 234.705L217.66 233.765L218.424 232.793L219.2 231.808L219.976 230.78L220.752 229.764L221.528 228.715L222.304 227.666L223.08 226.595L223.856 225.535L224.61 224.452L225.374 223.359L226.128 222.276L226.882 221.183L227.614 220.101L228.346 219.018L229.066 217.947L229.776 216.865L230.464 215.804L231.152 214.766L231.817 213.727L232.461 212.711L233.095 211.704L233.706 210.732L234.307 209.77L234.886 208.83L235.433 207.923L235.968 207.047L236.481 206.194L236.961 205.375L237.42 204.588L237.856 203.845L238.26 203.134L238.642 202.468L238.981 201.844L239.298 201.265L239.582 200.729L239.833 200.248L240.052 199.822L240.237 199.461L240.358 199.2L240.402 199.298L240.424 199.342L240.413 199.211L240.446 198.992L240.38 199.155L240.358 199.2L240.336 199.155L240.215 198.948L240.052 198.719L239.571 198.095L238.992 197.439L238.337 196.761L238.009 196.433L237.671 196.115L237.354 195.809L237.036 195.513L236.73 195.24L236.457 194.988L236.218 194.769L235.999 194.584L235.824 194.431L235.693 194.322L235.616 194.245L235.594 194.223C235.015 193.742 234.939 192.868 235.431 192.289C235.922 191.709 236.785 191.645 237.364 192.136L237.396 192.158L237.483 192.234L237.625 192.355L237.811 192.518L238.03 192.715L238.291 192.945L238.575 193.207L238.892 193.491L239.23 193.797L239.568 194.125L239.928 194.475L240.3 194.835L241 195.568L241.677 196.333L242.245 197.053L242.528 197.458L242.758 197.852L242.954 198.257V198.255Z" fill="#343434"/>
<path d="M141.767 179.846L141.45 180.349C141.45 180.349 134.613 188.066 124.794 194.351C116.003 199.981 104.831 204.473 94.0508 201.26C92.806 200.888 91.5612 200.407 90.3267 199.817L90.9057 198.539L103.793 185.225L118.263 170.271L118.776 169.035C121.441 170.019 134.165 174.85 141.766 179.847L141.767 179.846Z" fill="#447193"/>
<path d="M192.782 203.021L192.825 202.901L192.847 202.737L192.869 202.879V202.911L192.804 202.987L192.782 203.021Z" fill="#343434"/>
<path d="M240.049 198.714L240.212 198.944L240.333 199.151L240.355 199.195L240.234 199.457L240.049 199.817L239.83 200.244L239.579 200.725L239.295 201.26L238.978 201.84L238.64 202.464L238.257 203.13L237.853 203.841L237.417 204.583L236.958 205.37L236.478 206.19L235.965 207.043L235.43 207.918L234.883 208.826L234.304 209.766L233.703 210.728L233.092 211.7L232.458 212.706L231.814 213.723L231.149 214.761L230.461 215.8L229.773 216.86L229.063 217.943L228.343 219.014L227.611 220.096L226.879 221.179L226.125 222.272L225.372 223.355L224.607 224.448L223.853 225.53L223.077 226.591L222.301 227.662L221.525 228.711L220.749 229.759L219.973 230.776L219.198 231.804L218.422 232.788L217.657 233.76L216.893 234.7L216.129 235.63L215.375 236.526L214.633 237.389L213.891 238.22L213.159 239.018L212.449 239.783L211.739 240.515C211.182 241.095 211.192 242.013 211.761 242.57C212.34 243.128 213.257 243.117 213.814 242.538L214.546 241.783L215.288 240.986L216.042 240.155L216.806 239.291L217.571 238.406L218.357 237.476L219.133 236.524L219.909 235.573L220.695 234.567L221.481 233.56L222.268 232.522L223.054 231.483L223.84 230.423L224.626 229.362L225.402 228.269L226.189 227.187L226.953 226.082L227.717 224.989L228.471 223.884L229.225 222.78L229.967 221.675L230.699 220.582L231.419 219.489L232.129 218.406L232.829 217.335L233.506 216.275L234.172 215.226L234.827 214.198L235.461 213.181L236.072 212.187L236.673 211.225L237.252 210.273L237.809 209.355L238.344 208.459L238.857 207.596L239.338 206.765L239.808 205.968L240.244 205.213L240.659 204.492L241.041 203.804L241.401 203.17L241.718 202.568L242.014 202.011L242.287 201.508L242.516 201.049L242.713 200.634L242.888 200.262L243.051 199.857L243.16 199.278L243.094 198.71L242.951 198.251L242.755 197.846L242.525 197.452L242.242 197.048L241.674 196.327L240.997 195.562L240.297 194.829L239.925 194.469L239.565 194.119L239.227 193.791L238.889 193.485L238.572 193.201L238.288 192.939L238.027 192.71L237.808 192.512L237.623 192.349L237.48 192.229L237.393 192.152L237.361 192.13C236.782 191.639 235.919 191.703 235.428 192.283C234.937 192.863 235.014 193.736 235.591 194.217L235.614 194.239L235.69 194.316L235.821 194.425L235.996 194.578L236.215 194.763L236.454 194.982L236.728 195.234L237.033 195.507L237.351 195.803L237.668 196.109L238.006 196.427L238.334 196.755L238.989 197.433L239.568 198.089L240.049 198.713V198.714ZM197.214 197.227L196.941 197.348L196.624 197.501L196.274 197.664L195.892 197.849L195.488 198.057L195.061 198.264L194.625 198.494L194.166 198.745L193.282 199.248L192.419 199.784L191.665 200.319L191.283 200.625L190.955 200.931L190.65 201.269L190.376 201.663L190.157 202.189L190.091 202.768L190.135 203.173L190.167 203.511L190.212 203.894L190.266 204.308L190.332 204.757L190.398 205.238L190.475 205.751L190.561 206.309L190.66 206.888L190.758 207.5L190.867 208.134L190.988 208.801L191.118 209.489L191.261 210.21L191.403 210.953L191.556 211.718L191.719 212.515L191.894 213.324L192.254 214.997L192.669 216.756L193.117 218.571L193.598 220.441L194.111 222.353L194.678 224.299L195.279 226.267L195.923 228.268L196.61 230.257L197.342 232.257L198.118 234.246L198.937 236.224L199.8 238.159L200.717 240.071L201.656 241.919C202.028 242.629 202.901 242.903 203.61 242.542C204.32 242.17 204.604 241.296 204.234 240.586L203.305 238.782L202.43 236.947L201.59 235.077L200.793 233.165L200.039 231.241L199.329 229.295L198.652 227.348L198.008 225.402L197.407 223.478L196.85 221.566L196.325 219.696L195.845 217.871L195.396 216.089L194.982 214.373L194.61 212.722L194.447 211.935L194.284 211.159L194.121 210.404L193.978 209.683L193.836 208.973L193.715 208.295L193.595 207.639L193.486 207.015L193.377 206.425L193.29 205.857L193.204 205.332L193.127 204.829L193.061 204.358L192.995 203.932L192.951 203.538L192.907 203.187L192.863 202.904L192.907 202.859L193.082 202.696L193.301 202.521L193.934 202.062L194.676 201.603L195.507 201.144L195.911 200.925L196.315 200.706L196.719 200.498L197.101 200.313L197.473 200.128L197.801 199.975L198.096 199.832L198.358 199.711L198.565 199.613L198.728 199.547L198.827 199.503L198.849 199.492C199.548 199.186 199.864 198.377 199.559 197.677C199.253 196.989 198.434 196.671 197.745 196.977L197.713 196.987L197.604 197.031L197.429 197.108L197.21 197.217L197.214 197.227ZM187.341 243.718L186.708 243.937C186.708 243.937 170.501 252.157 159.841 248.101C155.21 246.342 151.629 242.264 150.885 234.175C149.673 220.926 149.946 204.628 150.481 191.75C150.885 181.935 151.432 174.107 151.585 171.155C152.765 170.127 152.437 170.39 151.629 170.368V170.27L154.73 170.28L168.894 170.324L172.399 170.334C172.399 170.334 173.306 177.725 174.3 185.878H174.31L175.129 185.769C182.14 176.521 194.612 170.958 201.722 168.378L204.42 168.422V170.98H204.354C204.179 174.653 204.201 180.808 204.344 188.001C204.748 210.247 206.222 242.494 206.222 242.494L229.276 188.854L239.117 165.952L239.664 164.63C241.051 165.143 245.015 166.641 249.646 168.675C256.089 171.485 263.832 175.311 267.721 178.896C279.866 190.1 285.632 280.633 285.632 280.633V280.72L184.149 280.644V278.982C184.149 278.982 192.34 257.895 187.972 245.565C187.743 244.931 187.535 244.319 187.338 243.718H187.341ZM209.446 261.306C209.446 259.885 208.31 258.748 206.902 258.748C205.494 258.748 204.358 259.885 204.358 261.306C204.358 262.727 205.505 263.852 206.902 263.852C208.3 263.852 209.446 262.715 209.446 261.306Z" fill="#BDCFDA"/>
<path d="M87.3138 205.382C86.4188 204.344 86.069 202.649 86.942 200.354C88.0016 200.268 89.1259 200.092 90.3163 199.819H90.3266C91.5611 200.409 92.8059 200.89 94.0507 201.262L94.0184 201.371C94.2036 203.404 93.5598 204.836 92.5767 205.667C91.8124 206.334 90.8292 206.63 89.8784 206.575C88.9069 206.543 87.9678 206.138 87.3124 205.384L87.3138 205.382Z" fill="#F7707E"/>
<path d="M102.144 132.425C103.258 132.84 103.859 133.989 103.487 135.016C103.116 136.032 101.915 136.535 100.801 136.131C99.6869 135.726 99.0858 134.567 99.4473 133.54C99.8191 132.524 101.032 132.021 102.146 132.425H102.144Z" fill="#343434"/>
<path d="M175.132 187.137C174.843 187.137 174.554 187.046 174.307 186.859C173.706 186.403 173.59 185.546 174.044 184.946C181.301 175.372 194.212 169.652 201.26 167.095C203.84 166.16 205.711 165.617 206.416 165.414L206.755 165.326C207.49 165.148 208.224 165.598 208.403 166.33C208.581 167.061 208.133 167.801 207.402 167.981L207.176 168.04C206.495 168.237 204.686 168.759 202.192 169.665C195.426 172.12 183.056 177.585 176.222 186.598C175.953 186.952 175.546 187.139 175.133 187.139L175.132 187.137Z" fill="#343434"/>
<path d="M58.0106 190.297C57.7226 190.297 57.433 190.206 57.1847 190.019C56.585 189.562 56.4675 188.706 56.9245 188.104C59.3451 184.918 62.6209 181.921 66.6624 179.196C72.6733 175.133 79.1251 172.475 83.4782 170.96C86.0428 170.067 87.6726 169.634 87.7402 169.617C88.4691 169.425 89.2157 169.859 89.4068 170.589C89.5993 171.318 89.1643 172.066 88.4353 172.258C88.4207 172.263 86.8305 172.685 84.3732 173.54C80.173 175.002 73.9563 177.561 68.1879 181.459C64.3948 184.019 61.335 186.809 59.0967 189.757C58.8277 190.11 58.4206 190.296 58.0091 190.296L58.0106 190.297Z" fill="#343434"/>
<path d="M166.678 250.596C164.141 250.596 161.641 250.249 159.358 249.379C153.551 247.173 150.243 242.099 149.527 234.3C148.534 223.431 148.396 209.096 149.119 191.695C149.414 184.528 149.78 178.491 150.022 174.494C150.111 173.038 150.181 171.883 150.222 171.086C150.24 170.827 150.25 170.624 150.259 170.452L150.266 170.299C150.303 169.572 150.903 168.905 151.63 168.905H151.633L172.407 168.971C173.094 168.972 173.674 169.487 173.757 170.171C173.757 170.171 174.651 177.457 175.637 185.543C175.65 185.599 175.662 185.656 175.669 185.716C177.789 202.987 178.234 206.44 178.303 206.887C178.324 206.981 178.334 207.078 178.334 207.178C178.334 207.933 177.722 208.545 176.968 208.545C175.753 208.545 175.678 207.949 175.359 205.438C175.205 204.226 174.99 202.506 174.738 200.472C174.238 196.452 173.593 191.203 172.981 186.225C172.967 186.168 172.955 186.109 172.948 186.05C172.195 179.862 171.491 174.116 171.196 171.704L152.928 171.646C152.887 172.404 152.825 173.426 152.75 174.665C152.508 178.65 152.143 184.672 151.849 191.811C151.131 209.093 151.264 223.306 152.249 234.055C152.862 240.726 155.579 245.024 160.329 246.829C170.298 250.619 185.936 242.803 186.095 242.723C186.765 242.385 187.587 242.651 187.929 243.325C188.27 243.998 188.001 244.819 187.328 245.161C186.786 245.436 176.463 250.599 166.679 250.6L166.678 250.596Z" fill="#343434"/>
<path d="M49.4748 251.334C46.8411 251.334 44.1605 250.852 41.7503 249.531C37.1635 247.017 34.4931 242.002 33.8141 234.627C32.6899 222.348 32.7295 205.414 33.9317 184.293C34.0581 182.054 34.1786 180.097 34.2756 178.503C34.4035 176.426 34.4946 174.925 34.5064 174.309C34.5196 173.565 35.128 172.969 35.8717 172.969H35.8775L55.4371 173.023C56.1264 173.025 56.704 173.541 56.7877 174.224C56.7877 174.224 57.3124 178.531 57.9987 184.115L58.0781 184.753C58.2398 186.071 58.4102 187.454 58.5895 188.853C59.8476 199.163 60.9483 208 61.0688 208.79C61.0909 208.885 61.1012 208.983 61.1012 209.085C61.1012 209.839 60.4898 210.451 59.7359 210.451C58.9168 210.451 58.1888 207.894 57.552 202.778C57.0758 198.948 56.4571 193.932 55.878 189.192C55.7002 187.796 55.5297 186.409 55.3666 185.087L55.2887 184.448C54.8184 180.628 54.4231 177.407 54.2217 175.751L37.1767 175.705C37.1356 176.458 37.0753 177.448 37.0004 178.669C36.9034 180.259 36.7828 182.213 36.6565 184.447C35.4616 205.435 35.4205 222.234 36.533 234.377C37.1223 240.787 39.318 245.078 43.0553 247.13C50.5491 251.242 62.052 245.403 62.1681 245.344C62.8412 244.999 63.6628 245.262 64.0067 245.933C64.352 246.604 64.0905 247.427 63.4203 247.773C63.0411 247.97 56.4262 251.334 49.4748 251.334Z" fill="#343434"/>
<path d="M169.587 125.888C169.497 125.888 169.406 125.88 169.313 125.86C168.574 125.71 168.098 124.988 168.248 124.25C168.32 123.892 168.7 122.068 169.062 121.268C169.372 120.581 170.18 120.277 170.868 120.587C171.555 120.899 171.86 121.708 171.549 122.396C171.393 122.741 171.102 123.908 170.921 124.794C170.79 125.443 170.22 125.888 169.585 125.888H169.587Z" fill="#343434"/>
<path d="M52.7814 132.623C52.6903 132.623 52.5992 132.614 52.5066 132.595C51.7688 132.443 51.2912 131.721 51.4426 130.982C51.5102 130.646 51.8717 128.929 52.2097 128.167C52.5139 127.476 53.3178 127.162 54.0115 127.471C54.7008 127.777 55.0123 128.585 54.7052 129.273C54.5597 129.601 54.2878 130.7 54.1173 131.53C53.9851 132.177 53.4163 132.623 52.7814 132.623Z" fill="#343434"/>
<path d="M162.057 128.742C161.399 128.742 160.818 128.264 160.711 127.592L160.188 124.323C160.069 123.577 160.575 122.877 161.32 122.758C162.059 122.636 162.764 123.145 162.885 123.891L163.408 127.159C163.527 127.905 163.022 128.605 162.276 128.724C162.203 128.736 162.131 128.742 162.057 128.742Z" fill="#343434"/>
<path d="M45.7007 135.312C45.0453 135.312 44.4662 134.836 44.356 134.166L43.8534 131.094C43.7314 130.348 44.2369 129.647 44.9791 129.525C45.7154 129.4 46.4238 129.906 46.5472 130.651L47.0499 133.723C47.1718 134.469 46.6663 135.17 45.9241 135.292C45.8492 135.304 45.7742 135.31 45.7007 135.31V135.312Z" fill="#343434"/>
<path d="M154.643 131.54C154.376 131.54 154.105 131.462 153.869 131.299C153.414 130.985 152.55 130.419 152.171 130.24C151.489 129.916 151.2 129.101 151.522 128.42C151.845 127.737 152.658 127.446 153.339 127.77C154.042 128.102 155.281 128.954 155.419 129.05C156.039 129.478 156.195 130.329 155.767 130.95C155.501 131.334 155.075 131.54 154.642 131.54H154.643Z" fill="#343434"/>
<path d="M38.7124 137.946C38.4406 137.946 38.1657 137.865 37.9276 137.698C37.4823 137.384 36.7122 136.878 36.3904 136.735C35.7011 136.43 35.3896 135.622 35.6967 134.932C36.0024 134.244 36.8092 133.93 37.4985 134.238C38.1775 134.539 39.2856 135.31 39.5002 135.463C40.116 135.897 40.2644 136.749 39.8308 137.367C39.5648 137.745 39.1416 137.946 38.7124 137.946Z" fill="#343434"/>
<path d="M154.728 170.817C154.046 170.817 153.454 170.305 153.375 169.608C153.273 168.741 153.116 167.604 152.932 166.282C151.444 155.551 150.13 143.756 153.411 139.622C155.435 137.058 167.235 131.237 170.911 133.542C172.264 134.397 173.948 136.853 173.513 138.762C173.387 139.318 172.88 140.637 170.899 140.866C170.16 140.954 169.472 140.416 169.385 139.666C169.297 138.917 169.835 138.237 170.583 138.151C170.83 138.121 170.912 138.067 170.914 138.067C170.962 137.724 170.16 136.299 169.456 135.854C167.846 134.844 157.441 138.923 155.55 141.318C152.719 144.886 154.689 159.083 155.637 165.905C155.823 167.251 155.983 168.409 156.086 169.291C156.174 170.04 155.637 170.72 154.888 170.806C154.836 170.812 154.781 170.815 154.728 170.815V170.817Z" fill="#343434"/>
<path d="M38.7876 174.927C38.1027 174.927 37.5134 174.412 37.4326 173.715C37.337 172.875 37.1842 171.766 37.0064 170.473C35.5558 159.939 34.3977 149.329 37.4899 145.426C39.4181 142.999 50.6109 137.503 54.0734 139.686C55.3946 140.513 56.9819 142.814 56.5601 144.679C56.4381 145.22 55.9472 146.504 54.0279 146.725C53.2754 146.809 52.6008 146.273 52.5141 145.525C52.4274 144.776 52.9653 144.098 53.7134 144.011C53.7971 144.001 53.8574 143.989 53.9015 143.977C53.875 143.489 53.2093 142.369 52.6214 142.002C51.1135 141.054 41.405 144.889 39.6267 147.127C37.0005 150.439 38.8302 163.718 39.709 170.099C39.8913 171.417 40.0456 172.55 40.1441 173.406C40.2293 174.155 39.6914 174.833 38.9419 174.918C38.889 174.924 38.8375 174.927 38.7846 174.927H38.7876Z" fill="#343434"/>
<path d="M171.363 146.112C170.684 146.112 170.097 145.604 170.011 144.913C169.919 144.164 170.451 143.481 171.199 143.389C171.353 143.37 171.549 143.324 171.615 143.217C171.707 143.067 171.731 142.69 171.563 142.216C171.347 141.593 170.908 141.138 170.608 141.056C170.579 141.051 170.485 141.032 170.454 141.026C168.392 140.632 163.686 142.361 161.205 143.542C160.523 143.865 159.711 143.576 159.386 142.894C159.062 142.213 159.352 141.398 160.032 141.073C160.772 140.722 167.359 137.658 170.965 138.342C171.018 138.345 171.162 138.377 171.303 138.412C172.563 138.761 173.637 139.869 174.14 141.31C174.569 142.527 174.495 143.749 173.935 144.654C173.584 145.222 172.883 145.934 171.532 146.1C171.475 146.107 171.419 146.11 171.363 146.11V146.112Z" fill="#343434"/>
<path d="M54.4497 151.666C53.7678 151.666 53.1755 151.154 53.0961 150.457C53.008 149.708 53.5459 149.029 54.2939 148.942C54.4306 148.926 54.5908 148.886 54.6305 148.82C54.6922 148.721 54.7319 148.395 54.5731 147.944C54.3806 147.385 53.9926 146.974 53.7428 146.907C53.7398 146.907 53.7369 146.906 53.734 146.904C53.684 146.9 53.634 146.894 53.5841 146.885C51.6544 146.516 47.2499 148.133 44.9234 149.236C44.243 149.561 43.4288 149.27 43.1054 148.587C42.7821 147.906 43.0716 147.091 43.7536 146.768C44.4443 146.438 50.5375 143.598 53.997 144.182C54.1837 144.196 54.3424 144.236 54.4659 144.271C55.6283 144.579 56.6674 145.642 57.1509 147.041C57.5654 148.214 57.4919 149.392 56.9481 150.264C56.6042 150.814 55.9208 151.501 54.6099 151.654C54.557 151.66 54.5026 151.663 54.4497 151.663V151.666Z" fill="#343434"/>
<path d="M170.85 151.338C170.129 151.338 169.526 150.772 169.488 150.042C169.448 149.289 170.027 148.646 170.781 148.606C171.011 148.595 171.619 148.564 171.745 147.605C171.845 146.837 171.515 146.192 171.34 146.112C171.313 146.112 171.285 146.112 171.258 146.109C169.018 145.972 164.243 147.571 162.585 148.199C161.881 148.464 161.092 148.111 160.826 147.405C160.56 146.698 160.914 145.91 161.62 145.644C162.284 145.392 168.199 143.211 171.382 143.38C171.431 143.38 171.521 143.381 171.554 143.384C173.264 143.527 174.528 145.253 174.492 147.4C174.457 149.645 173.023 151.226 170.921 151.335C170.898 151.335 170.873 151.337 170.849 151.337L170.85 151.338Z" fill="#343434"/>
<path d="M53.969 156.585C53.2474 156.585 52.6448 156.019 52.6066 155.288C52.5684 154.534 53.1474 153.892 53.8999 153.853C54.2291 153.837 54.5847 153.736 54.7185 153.116C54.8684 152.428 54.5891 151.788 54.4172 151.666C54.3951 151.666 54.3746 151.666 54.3525 151.663C52.2935 151.541 47.7744 153.041 46.2165 153.631C45.5126 153.9 44.7248 153.543 44.4559 152.84C44.1899 152.134 44.5441 151.345 45.2466 151.078C45.8668 150.841 51.3295 148.799 54.4128 148.93C54.4686 148.93 54.5157 148.93 54.5671 148.934C54.5994 148.934 54.6318 148.936 54.6465 148.937C56.2969 149.074 57.5182 150.732 57.4873 152.794C57.4535 154.957 56.0661 156.479 54.0366 156.584C54.013 156.584 53.9895 156.585 53.966 156.585H53.969Z" fill="#343434"/>
<path d="M162.911 157.36C162.345 157.36 161.818 157.006 161.622 156.442C161.375 155.73 161.752 154.951 162.465 154.704C162.538 154.679 164.31 154.064 167.163 153.336C167.892 153.15 168.637 153.592 168.822 154.323C169.009 155.054 168.568 155.798 167.836 155.985C165.107 156.681 163.377 157.279 163.36 157.285C163.211 157.337 163.061 157.362 162.911 157.362V157.36Z" fill="#343434"/>
<path d="M46.5002 162.259C45.9329 162.259 45.4023 161.901 45.2083 161.333C44.9644 160.62 45.345 159.843 46.0578 159.599C46.1269 159.576 47.7979 159.006 50.4712 158.312C51.2045 158.119 51.9467 158.561 52.1348 159.292C52.3229 160.021 51.885 160.767 51.156 160.957C48.5915 161.622 46.9572 162.179 46.9411 162.184C46.7956 162.234 46.6457 162.257 46.5002 162.257V162.259Z" fill="#343434"/>
<path d="M167.395 159.689C166.876 159.689 166.372 159.596 165.908 159.38C165.036 158.975 163.999 158.01 164.005 155.717C164.006 154.964 164.618 154.353 165.37 154.353H165.373C166.127 154.355 166.737 154.968 166.735 155.723C166.735 156.356 166.857 156.807 167.059 156.9C167.663 157.179 169.592 156.488 171.094 155.213C171.747 154.659 171.967 153.416 171.594 152.381C171.46 152.006 171.137 151.375 170.498 151.367C170.482 151.367 170.465 151.367 170.449 151.367C168.057 151.367 164.256 152.806 164.218 152.819C163.511 153.087 162.725 152.734 162.456 152.029C162.187 151.325 162.541 150.535 163.245 150.266C163.421 150.198 167.647 148.628 170.524 148.634C172.177 148.653 173.535 149.708 174.163 151.456C174.932 153.594 174.394 155.995 172.858 157.297C171.744 158.244 169.447 159.686 167.395 159.686V159.689Z" fill="#343434"/>
<path d="M50.7548 164.461C50.2463 164.461 49.7511 164.369 49.2911 164.155C48.449 163.763 47.4467 162.835 47.4511 160.635C47.4525 159.882 48.0639 159.273 48.8164 159.273H48.8193C49.5732 159.274 50.1831 159.887 50.1817 160.642C50.1802 161.272 50.311 161.614 50.4403 161.675C50.9826 161.926 52.7668 161.283 54.1571 160.101C54.7391 159.608 54.9375 158.452 54.6039 157.522C54.4569 157.112 54.1688 156.622 53.6368 156.616C51.7483 156.642 48.7605 157.594 47.7523 157.98C47.0454 158.249 46.2577 157.894 45.9902 157.191C45.7198 156.486 46.074 155.697 46.778 155.427C46.9426 155.364 50.843 153.883 53.6001 153.883H53.6648C55.2608 153.903 56.5688 154.918 57.1728 156.598C57.9062 158.64 57.3918 160.938 55.9236 162.184C54.7964 163.143 52.6801 164.459 50.7534 164.459L50.7548 164.461Z" fill="#343434"/>
<path d="M168.459 166.008C168.305 166.008 168.148 165.982 167.995 165.926C167.285 165.668 166.919 164.884 167.176 164.175C167.669 162.815 166.693 160.742 165.98 159.228L165.858 158.968C165.538 158.286 165.833 157.472 166.515 157.151C167.194 156.829 168.01 157.125 168.33 157.809L168.449 158.063C169.366 160.011 170.621 162.679 169.742 165.108C169.543 165.664 169.018 166.01 168.459 166.01V166.008Z" fill="#343434"/>
<path d="M51.7204 170.402C51.5632 170.402 51.4045 170.374 51.2487 170.317C50.5403 170.056 50.1788 169.271 50.4389 168.562C50.8901 167.335 49.9951 165.415 49.3411 164.013L49.2029 163.716C48.8855 163.031 49.1838 162.219 49.8672 161.903C50.5506 161.585 51.3633 161.884 51.6793 162.568L51.8145 162.857C52.6713 164.695 53.8441 167.211 52.999 169.506C52.7962 170.059 52.2745 170.401 51.7175 170.401L51.7204 170.402Z" fill="#343434"/>
<path d="M168.896 171.441C168.636 171.441 168.373 171.367 168.139 171.211C167.511 170.793 167.342 169.945 167.76 169.316C168.472 168.246 169.548 167.513 170.589 166.805C171.528 166.166 172.414 165.562 172.839 164.837C175.071 161.013 177.149 151.072 177.032 148.459C176.971 146.944 175.708 143.221 174.442 142.631C174.331 142.578 174.139 142.489 173.684 142.842L172.742 141.843L173.596 142.909C173.064 143.44 172.222 143.423 171.687 142.889C171.153 142.355 171.175 141.471 171.709 140.937C171.791 140.854 171.882 140.779 171.972 140.713C173.156 139.795 174.429 139.61 175.596 140.153C178.485 141.5 179.708 147.046 179.761 148.342C179.908 151.601 177.62 162.064 175.196 166.216C174.46 167.473 173.219 168.318 172.126 169.063C171.265 169.65 170.449 170.205 170.032 170.832C169.769 171.227 169.335 171.441 168.894 171.441H168.896Z" fill="#343434"/>
<path d="M52.135 175.517C51.8749 175.517 51.6118 175.443 51.3781 175.287C50.7506 174.869 50.5816 174.021 50.999 173.392C51.6823 172.366 52.7067 171.67 53.6972 170.998C54.5717 170.405 55.3976 169.844 55.7856 169.184C57.8622 165.612 59.8242 156.263 59.7272 153.797C59.6582 152.394 58.4751 148.918 57.3214 148.384C57.2318 148.343 57.0833 148.272 56.6939 148.572L56.5513 148.686C55.9634 149.158 55.1037 149.064 54.6319 148.477C54.1602 147.888 54.2528 147.029 54.8406 146.556L55.0214 146.412C56.1207 145.563 57.3405 145.383 58.4663 145.903C61.2351 147.181 62.3917 152.391 62.4549 153.675C62.5798 156.784 60.4121 166.664 58.1429 170.565C57.439 171.761 56.2662 172.558 55.2316 173.26C54.4232 173.809 53.659 174.328 53.2725 174.909C53.0094 175.305 52.5774 175.518 52.135 175.518V175.517Z" fill="#343434"/>
<path d="M207.972 146.231C207.305 146.231 206.617 146.17 205.918 146.048C203.183 145.57 200.858 144.215 199.853 142.512C199.469 141.862 199.684 141.025 200.333 140.64C200.978 140.256 201.819 140.47 202.203 141.121C202.795 142.122 204.476 143.021 206.388 143.355C208.459 143.718 210.372 143.37 211.516 142.424C212.098 141.943 212.956 142.025 213.438 142.606C213.919 143.187 213.836 144.049 213.256 144.53C211.911 145.642 210.051 146.229 207.974 146.229L207.972 146.231Z" fill="#343434"/>
<path d="M88.932 151.781C88.2942 151.781 87.6343 151.722 86.9627 151.604C84.3702 151.147 82.1702 149.855 81.2208 148.236C80.8387 147.584 81.0576 146.747 81.7072 146.366C82.3583 145.985 83.196 146.203 83.5752 146.853C84.1131 147.772 85.665 148.6 87.4374 148.914C89.3685 149.254 91.1571 148.936 92.2211 148.056C92.8002 147.575 93.6614 147.658 94.1434 148.239C94.624 148.821 94.5417 149.682 93.9597 150.163C92.6782 151.223 90.9087 151.782 88.932 151.782V151.781Z" fill="#343434"/>
<path d="M214.33 192.904C210.024 192.904 205.864 191.927 203.484 188.835C203.024 188.238 203.136 187.379 203.733 186.918C204.331 186.456 205.189 186.57 205.648 187.167C209.89 192.679 223.638 189.256 228.577 187.47C229.28 187.215 230.067 187.58 230.324 188.291C230.58 189 230.214 189.784 229.504 190.04C229.005 190.221 221.468 192.904 214.33 192.904Z" fill="#343434"/>
<path d="M101.62 203.714C98.8757 203.714 96.2215 203.333 93.6614 202.57C92.3549 202.18 91.0498 201.675 89.7786 201.069C89.2951 200.857 88.9556 200.376 88.9556 199.817C88.9556 199.063 89.5611 198.451 90.315 198.451C90.5193 198.451 90.7309 198.496 90.9146 198.585C92.0712 199.138 93.2572 199.598 94.4403 199.951C103.076 202.527 113.04 200.254 124.057 193.201C133.589 187.098 140.36 179.518 140.426 179.441C140.925 178.876 141.79 178.825 142.352 179.326C142.917 179.827 142.968 180.69 142.469 181.255C142.183 181.576 135.392 189.188 125.528 195.503C116.994 200.968 108.984 203.714 101.617 203.714H101.62Z" fill="#343434"/>
<path d="M101.502 209.869C98.692 209.869 96.0173 209.215 93.5247 207.902C93.0559 207.662 92.5577 207.371 92.0183 207.018C91.3864 206.606 91.2086 205.759 91.6201 205.126C92.0301 204.494 92.8781 204.316 93.5086 204.729C93.9686 205.029 94.3845 205.273 94.7828 205.476C108.406 212.65 123.905 194.16 124.06 193.973C124.54 193.391 125.401 193.31 125.982 193.789C126.564 194.27 126.645 195.131 126.166 195.713C125.995 195.921 121.92 200.819 115.928 204.82C110.9 208.177 106.026 209.869 101.503 209.869H101.502Z" fill="#343434"/>
<path d="M85.5901 201.771C78.0214 201.771 72.0472 197.189 68.6597 188.728C67.0725 184.787 66.636 181.449 66.6169 181.309C66.5213 180.561 67.0504 179.878 67.797 179.783C68.5303 179.691 69.2284 180.215 69.3254 180.964C69.3284 180.995 69.7428 184.11 71.1919 187.711C73.4022 193.232 77.9053 199.675 86.8393 198.994C87.843 198.911 88.9144 198.741 90.0108 198.489C90.7412 198.321 91.479 198.78 91.6465 199.516C91.8155 200.251 91.3555 200.984 90.6207 201.153C89.3979 201.434 88.1958 201.624 87.0524 201.719C86.5586 201.756 86.0692 201.775 85.5886 201.775L85.5901 201.771Z" fill="#343434"/>
<path d="M82.0072 207.496C78.5477 207.496 75.6628 206.487 73.423 204.471C67.4327 199.079 68.4982 188.53 68.5467 188.084C68.629 187.336 69.2904 186.79 70.0502 186.874C70.7982 186.955 71.3405 187.627 71.2612 188.377C71.2509 188.473 70.3015 197.995 75.2542 202.444C77.7526 204.69 81.4414 205.301 86.2149 204.265C86.4044 204.233 86.522 204.208 86.6308 204.183C87.3685 204.009 88.1004 204.468 88.2709 205.204C88.4414 205.939 87.9858 206.673 87.251 206.844C87.0761 206.885 86.8865 206.925 86.7116 206.951C85.0436 207.315 83.4725 207.496 82.0043 207.496H82.0072Z" fill="#343434"/>
<path d="M102.942 185.771H87.0186C86.2647 185.771 85.6533 185.159 85.6533 184.404C85.6533 183.65 86.2647 183.038 87.0186 183.038H102.942C103.696 183.038 104.308 183.65 104.308 184.404C104.308 185.159 103.696 185.771 102.942 185.771Z" fill="#343434"/>
<path d="M55.5651 185.793H36.3758C35.6219 185.793 35.0105 185.181 35.0105 184.426C35.0105 183.672 35.6219 183.06 36.3758 183.06H55.5651C56.319 183.06 56.9304 183.672 56.9304 184.426C56.9304 185.181 56.319 185.793 55.5651 185.793Z" fill="#343434"/>
<path d="M196.747 195.522C196.29 195.522 195.845 195.293 195.586 194.876L191.229 187.848C191.001 187.48 190.961 187.024 191.121 186.623L196.211 173.822C196.489 173.12 197.288 172.781 197.983 173.057C198.684 173.337 199.027 174.131 198.748 174.833L193.912 186.993L197.908 193.436C198.305 194.078 198.108 194.92 197.467 195.318C197.244 195.457 196.996 195.523 196.749 195.523L196.747 195.522Z" fill="#343434"/>
<path d="M239.132 191.072C238.757 191.072 238.382 190.918 238.112 190.615C237.611 190.051 237.661 189.188 238.224 188.686L243.88 183.647L242.696 170.614C242.628 169.862 243.181 169.197 243.932 169.13C244.715 169.05 245.347 169.617 245.415 170.367L246.661 184.085C246.699 184.518 246.532 184.941 246.208 185.23L240.037 190.728C239.777 190.959 239.452 191.074 239.129 191.074L239.132 191.072Z" fill="#343434"/>
<path d="M184.154 280.35C183.989 280.35 183.822 280.32 183.658 280.257C182.956 279.983 182.608 279.192 182.881 278.489C182.96 278.283 190.836 257.729 186.69 246.024C186.46 245.384 186.245 244.759 186.045 244.144C182.52 233.649 182.8 228.705 183.729 212.319L183.926 208.826C183.969 208.073 184.617 207.496 185.365 207.537C186.117 207.58 186.693 208.224 186.652 208.977L186.455 212.472C185.523 228.868 185.274 233.275 188.636 243.281C188.833 243.879 189.034 244.478 189.261 245.099C193.751 257.771 185.769 278.595 185.426 279.476C185.216 280.017 184.7 280.347 184.154 280.347V280.35Z" fill="#343434"/>
<path d="M61.595 280.35C61.5627 280.35 61.5274 280.35 61.4936 280.345C60.7411 280.289 60.1768 279.635 60.2312 278.882C60.2429 278.726 61.3922 263.116 62.5356 246.542C63.5555 231.831 64.2683 220.901 64.6533 214.06C64.6945 213.306 65.35 212.725 66.0936 212.772C66.8461 212.815 67.4222 213.461 67.3795 214.214C66.993 221.067 66.2803 232.009 65.2588 246.73C64.114 263.31 62.9662 278.926 62.9544 279.082C62.9015 279.8 62.3019 280.348 61.5935 280.348L61.595 280.35Z" fill="#343434"/>
<path d="M206.902 265.22C204.746 265.22 202.993 263.466 202.993 261.308C202.993 259.15 204.748 257.383 206.902 257.383C209.057 257.383 210.812 259.144 210.812 261.308C210.812 263.471 209.057 265.22 206.902 265.22ZM206.902 260.116C206.251 260.116 205.722 260.65 205.722 261.308C205.722 261.965 206.251 262.489 206.902 262.489C207.554 262.489 208.083 261.959 208.083 261.308C208.083 260.656 207.564 260.116 206.902 260.116Z" fill="#343434"/>
<path d="M285.635 282C284.92 282 284.319 281.444 284.274 280.72C282.29 249.596 276.086 188.469 266.798 179.9C263.76 177.098 257.642 173.65 249.103 169.927C244.583 167.943 240.668 166.457 239.192 165.911C238.863 165.788 238.688 165.726 238.679 165.723C237.968 165.473 237.595 164.693 237.844 163.981C238.091 163.269 238.875 162.894 239.583 163.144C239.583 163.144 239.779 163.212 240.146 163.35C241.638 163.903 245.615 165.411 250.197 167.423C259.134 171.318 265.342 174.841 268.648 177.891C281.054 189.335 286.76 276.828 286.997 280.547C287.045 281.3 286.474 281.95 285.721 281.997C285.692 281.999 285.663 282 285.633 282H285.635Z" fill="#343434"/>
<path d="M162.058 279.617C161.351 279.617 160.753 279.073 160.698 278.355C160.688 278.239 159.783 266.53 157.982 249.37C157.903 248.62 158.447 247.948 159.198 247.869C159.958 247.786 160.619 248.333 160.698 249.085C162.503 266.285 163.411 278.028 163.42 278.146C163.477 278.898 162.916 279.555 162.163 279.612C162.128 279.615 162.093 279.617 162.058 279.617Z" fill="#343434"/>
<path d="M149.948 193.095C149.374 193.095 148.841 192.73 148.651 192.155C146.838 186.64 145.268 184.384 144.27 183.461C143.444 182.702 142.348 181.868 141.014 180.984C133.458 176.02 120.772 171.226 118.304 170.317L117.796 170.128C117.091 169.864 116.732 169.075 116.997 168.369C117.261 167.66 118.049 167.306 118.753 167.569L119.248 167.753C121.764 168.681 134.707 173.572 142.516 178.703C143.993 179.681 145.17 180.578 146.119 181.451C147.942 183.138 149.617 186.358 151.242 191.299C151.477 192.015 151.088 192.787 150.372 193.024C150.23 193.071 150.087 193.093 149.946 193.093L149.948 193.095Z" fill="#343434"/>
<path d="M256.234 282C255.513 282 254.91 281.434 254.872 280.706L251.705 220.332C251.665 219.579 252.243 218.936 252.997 218.896C253.745 218.85 254.391 219.434 254.431 220.189L257.598 280.563C257.638 281.316 257.06 281.959 256.306 281.999C256.281 282 256.258 282 256.234 282Z" fill="#343434"/>
<path d="M134.372 279.617C133.651 279.617 133.048 279.051 133.01 278.323L130.04 221.479C130 220.726 130.578 220.082 131.332 220.043C132.111 219.996 132.728 220.583 132.766 221.336L135.736 278.18C135.776 278.933 135.198 279.577 134.444 279.616C134.419 279.617 134.396 279.617 134.372 279.617Z" fill="#343434"/>
<path d="M206.226 243.86C206.144 243.86 206.063 243.853 205.98 243.838C205.355 243.723 204.891 243.192 204.861 242.555C204.848 242.232 203.381 210.035 202.981 188.026C202.826 180.116 202.83 174.359 202.993 170.915C203.03 170.161 203.668 169.583 204.422 169.615C205.174 169.65 205.756 170.292 205.721 171.045C205.559 174.427 205.556 180.122 205.711 187.973C206.006 204.238 206.883 226.085 207.326 236.468L237.864 165.411C238.162 164.718 238.962 164.396 239.658 164.695C240.35 164.993 240.671 165.796 240.372 166.489L207.477 243.031C207.258 243.538 206.76 243.857 206.224 243.857L206.226 243.86Z" fill="#343434"/>
<path d="M90.9072 199.906C90.8631 199.906 90.819 199.904 90.7734 199.9C90.359 199.858 89.9872 199.632 89.7609 199.282C89.6139 199.055 86.1587 193.638 84.7199 184.778C84.2394 181.779 84.0424 178.713 84.135 175.662L84.1688 174.938C84.2056 174.184 84.8552 173.595 85.5973 173.641C86.3513 173.678 86.9318 174.319 86.8936 175.072L86.8612 175.768C86.7745 178.625 86.9597 181.517 87.4123 184.342C88.3265 189.97 90.1341 194.157 91.2026 196.266L117.28 169.321C117.805 168.779 118.669 168.766 119.211 169.29C119.752 169.815 119.765 170.68 119.241 171.223L91.883 199.491C91.6244 199.757 91.2702 199.907 90.9028 199.907L90.9072 199.906Z" fill="#343434"/>
<path d="M208.128 171.648C208.108 171.648 208.089 171.648 208.068 171.648C207.316 171.616 206.731 170.979 206.763 170.224L207.189 160.427C207.222 159.673 207.871 159.103 208.613 159.121C209.366 159.155 209.951 159.792 209.918 160.546L209.492 170.339C209.46 171.073 208.856 171.646 208.13 171.646L208.128 171.648Z" fill="#343434"/>
<path d="M89.0717 175.714C89.0496 175.714 89.029 175.714 89.007 175.712C88.2545 175.678 87.6711 175.039 87.7064 174.285L88.1223 165.061C88.1561 164.308 88.8101 163.724 89.5478 163.758C90.3003 163.791 90.8837 164.43 90.8514 165.183L90.4355 174.41C90.4017 175.143 89.7977 175.714 89.0731 175.714H89.0717Z" fill="#343434"/>
<path d="M206.26 150.8C205.027 150.8 203.818 150.416 202.977 149.721C202.511 149.337 202.445 148.649 202.828 148.183C203.211 147.716 203.898 147.65 204.366 148.034C204.964 148.528 206.044 148.734 206.989 148.54C207.574 148.418 208.157 148.798 208.281 149.389C208.403 149.98 208.024 150.558 207.433 150.68C207.048 150.76 206.654 150.8 206.262 150.8H206.26Z" fill="#343434"/>
<path d="M87.3345 156.069C86.1515 156.069 84.989 155.699 84.1821 155.033C83.7177 154.649 83.6516 153.959 84.0352 153.494C84.4187 153.03 85.1065 152.962 85.5724 153.346C86.1133 153.793 87.1303 153.992 87.9915 153.817C88.5926 153.7 89.1598 154.081 89.2789 154.673C89.3979 155.264 89.0158 155.841 88.425 155.961C88.065 156.033 87.7005 156.069 87.3345 156.069Z" fill="#343434"/>
<path d="M239.241 150.113C238.487 150.113 237.875 149.501 237.875 148.746C237.875 147.991 238.487 147.38 239.241 147.38C241.738 147.38 246.411 146.048 248.093 141.062C248.785 139.008 248.453 136.338 247.366 135.232C247.012 134.872 246.389 134.442 245.061 134.864C244.34 135.094 243.573 134.695 243.346 133.976C243.118 133.257 243.515 132.489 244.233 132.259C246.219 131.628 248.025 132.002 249.314 133.317C251.38 135.42 251.559 139.327 250.681 141.935C248.503 148.39 242.465 150.113 239.241 150.113Z" fill="#343434"/>
<path d="M118.385 155.436C117.631 155.436 117.02 154.824 117.02 154.07C117.02 153.315 117.631 152.703 118.385 152.703C120.441 152.703 124.405 151.673 126.214 147.815C126.367 147.519 126.492 147.215 126.642 146.784C127.277 144.892 126.971 142.416 125.967 141.397C125.65 141.075 125.087 140.688 123.877 141.073C123.156 141.304 122.39 140.904 122.162 140.185C121.935 139.466 122.331 138.698 123.05 138.468C124.949 137.865 126.677 138.223 127.915 139.48C129.879 141.479 130.056 145.192 129.225 147.671C129.087 148.062 128.907 148.55 128.664 149.021C126.449 153.743 121.741 155.435 118.385 155.435V155.436Z" fill="#343434"/>
<path d="M194.355 118.739C193.987 118.739 193.621 118.592 193.352 118.301C189.852 114.512 188.968 109.834 190.797 104.774C194.537 94.4195 209.474 84.1241 223.414 82.2898C233.086 81.0144 240.957 83.9593 245.56 90.5758C245.991 91.1951 245.839 92.0468 245.221 92.4778C244.603 92.9073 243.75 92.7558 243.32 92.1366C238.205 84.786 229.866 84.1991 223.768 84.9993C210.722 86.716 196.799 96.1965 193.363 105.702C191.883 109.796 192.554 113.411 195.355 116.445C195.867 116.999 195.833 117.863 195.279 118.376C195.016 118.619 194.684 118.739 194.352 118.739H194.355Z" fill="#343434"/>
<path d="M76.1081 125.9C75.7407 125.9 75.3747 125.751 75.1058 125.46C71.7888 121.866 70.9511 117.431 72.6853 112.635C76.2183 102.861 90.3123 93.141 103.463 91.4097C112.607 90.2049 120.045 92.988 124.398 99.2427C124.829 99.862 124.677 100.714 124.058 101.145C123.441 101.576 122.59 101.424 122.158 100.805C117.361 93.9148 109.534 93.3661 103.818 94.1192C91.56 95.7329 78.4801 104.637 75.2528 113.564C73.8683 117.392 74.4944 120.771 77.1104 123.605C77.6218 124.16 77.588 125.023 77.034 125.535C76.7709 125.778 76.4388 125.898 76.1066 125.898L76.1081 125.9Z" fill="#343434"/>
<path d="M249.812 169.659C249.199 169.659 248.644 169.243 248.488 168.622C248.306 167.89 248.751 167.148 249.483 166.966C261.845 163.89 260.912 155.775 259.925 147.181C259.642 144.723 259.351 142.181 259.425 139.858C259.488 137.852 259.57 135.875 259.651 133.93C260.427 115.209 261.04 100.423 244.477 92.906C243.791 92.5941 243.487 91.7851 243.798 91.0966C244.111 90.4082 244.919 90.1067 245.606 90.4156C263.846 98.6928 263.167 115.074 262.379 134.042C262.3 135.978 262.217 137.946 262.154 139.944C262.086 142.066 262.355 144.398 262.639 146.866C263.616 155.373 264.835 165.96 250.144 169.615C250.034 169.643 249.922 169.656 249.813 169.656L249.812 169.659Z" fill="#343434"/>
<path d="M127.374 149.819C126.926 149.819 126.488 149.602 126.227 149.201C125.823 148.578 125.981 147.756 126.588 147.337C126.629 147.303 126.671 147.272 126.717 147.244C127.521 146.732 128.15 146.298 128.694 145.882C129.919 144.964 131.049 143.977 132.066 142.939C137.855 137.049 140.219 129.375 138.721 121.333C137.121 112.735 131.201 105.161 123.271 101.567C122.584 101.255 122.279 100.446 122.59 99.7593C122.902 99.0723 123.71 98.7664 124.396 99.0782C133.126 103.034 139.642 111.371 141.405 120.833C143.07 129.779 140.445 138.311 134.014 144.854C132.901 145.991 131.665 147.071 130.341 148.062C129.758 148.509 129.083 148.977 128.235 149.518C128.191 149.552 128.147 149.585 128.115 149.605C127.885 149.751 127.627 149.821 127.372 149.821L127.374 149.819Z" fill="#343434"/>
<path d="M244.439 134.689C244.157 134.689 243.87 134.601 243.626 134.42C232.66 126.268 232.679 112.041 232.688 104.397C232.688 103.641 233.296 103.073 234.054 103.032C234.808 103.032 235.418 103.646 235.417 104.4C235.406 111.562 235.392 124.896 245.253 132.225C245.859 132.676 245.985 133.532 245.535 134.136C245.266 134.498 244.855 134.688 244.437 134.688L244.439 134.689Z" fill="#343434"/>
<path d="M123.279 140.92C123.229 140.92 123.179 140.917 123.129 140.913C110.477 139.53 111.384 125.206 111.928 116.646C112.029 115.037 112.125 113.517 112.128 112.301C112.128 111.546 112.74 110.936 113.493 110.936H113.494C114.248 110.936 114.858 111.549 114.857 112.304C114.855 113.606 114.757 115.166 114.651 116.818C113.973 127.505 114.135 137.181 123.425 138.195C124.174 138.277 124.715 138.951 124.633 139.701C124.556 140.401 123.966 140.919 123.278 140.919L123.279 140.92Z" fill="#343434"/>
<path d="M204.486 114.062C200.098 114.062 196.556 113.634 194.936 112.932C194.349 112.677 193.937 112.366 193.678 111.98C193.258 111.354 193.426 110.505 194.052 110.084C194.638 109.688 195.421 109.813 195.862 110.346C195.892 110.362 195.942 110.39 196.021 110.424C200.692 112.449 225.707 111.607 233.039 103.481C233.546 102.92 234.407 102.878 234.967 103.382C235.527 103.888 235.571 104.752 235.065 105.312C229.228 111.78 214.611 114.06 204.485 114.06L204.486 114.062ZM195.945 110.456C195.945 110.456 195.945 110.456 195.945 110.458C195.945 110.458 195.945 110.458 195.945 110.456Z" fill="#343434"/>
<path d="M91.5509 121.564C90.8587 121.564 90.2047 121.542 89.5963 121.502C85.0947 121.2 84.2894 120.021 84.0234 119.632C83.5972 119.01 83.7574 118.16 84.379 117.733C85.0007 117.307 85.8501 117.466 86.2763 118.089C87.7798 119.398 104.881 119.809 112.479 111.387C112.986 110.825 113.847 110.783 114.407 111.289C114.965 111.795 115.011 112.658 114.505 113.219C108.865 119.473 98.3789 121.565 91.5509 121.565V121.564Z" fill="#343434"/>
<path d="M77.0205 121.868C76.703 121.868 76.5164 121.854 76.4826 121.851C75.7316 121.786 75.1746 121.125 75.2392 120.372C75.3039 119.621 75.9608 119.063 76.7148 119.126C76.7398 119.129 80.0185 119.347 84.3202 117.189C86.9876 115.847 89.4875 113.894 91.7493 111.384C92.2563 110.821 93.1176 110.78 93.6775 111.284C94.2374 111.789 94.2815 112.654 93.7774 113.214C91.2878 115.978 88.519 118.136 85.543 119.632C81.5308 121.645 78.2638 121.867 77.019 121.867L77.0205 121.868Z" fill="#343434"/>
<path d="M239.22 165.395C238.739 165.395 238.274 165.14 238.024 164.69C235.152 159.489 237.844 149.921 237.961 149.517C238.169 148.792 238.931 148.371 239.648 148.581C240.372 148.789 240.793 149.545 240.584 150.27C239.881 152.728 238.482 159.871 240.412 163.366C240.776 164.027 240.538 164.858 239.877 165.223C239.668 165.339 239.442 165.393 239.219 165.393L239.22 165.395Z" fill="#343434"/>
<path d="M118.353 169.822C117.872 169.822 117.407 169.568 117.157 169.118C114.435 164.197 116.983 155.157 117.094 154.776C117.302 154.051 118.059 153.631 118.782 153.84C119.507 154.049 119.926 154.805 119.717 155.53C119.059 157.835 117.74 164.533 119.545 167.795C119.909 168.456 119.671 169.287 119.011 169.653C118.803 169.77 118.575 169.824 118.352 169.824L118.353 169.822Z" fill="#343434"/>
<path d="M207.37 135.306C206.074 135.306 204.801 134.891 203.937 134.149C203.433 133.717 203.375 132.958 203.806 132.453C204.235 131.949 204.995 131.89 205.499 132.322C206.059 132.802 207.095 133.018 208.021 132.84C208.679 132.72 209.302 133.146 209.424 133.799C209.546 134.451 209.119 135.081 208.466 135.204C208.103 135.272 207.734 135.306 207.368 135.306H207.37Z" fill="#343434"/>
<path d="M88.3574 141.478C87.1332 141.478 85.9251 141.087 85.0904 140.388C84.5819 139.961 84.5143 139.202 84.9405 138.693C85.3667 138.186 86.125 138.118 86.6335 138.543C87.1611 138.983 88.1134 139.177 88.9555 139.017C89.6125 138.888 90.2371 139.319 90.362 139.97C90.4884 140.622 90.0607 141.253 89.4097 141.378C89.0628 141.444 88.7101 141.477 88.3574 141.477V141.478Z" fill="#343434"/>
<path d="M226.027 119.603H222.106C221.352 119.603 220.741 118.991 220.741 118.236C220.741 117.482 221.352 116.87 222.106 116.87H226.027C226.781 116.87 227.392 117.482 227.392 118.236C227.392 118.991 226.781 119.603 226.027 119.603Z" fill="#343434"/>
<path d="M105.935 126.709H102.243C101.489 126.709 100.877 126.097 100.877 125.343C100.877 124.588 101.489 123.976 102.243 123.976H105.935C106.688 123.976 107.3 124.588 107.3 125.343C107.3 126.097 106.688 126.709 105.935 126.709Z" fill="#343434"/>
<path d="M213.889 161.983C212.071 161.983 210.212 161.778 208.353 161.361C203.865 160.38 199.797 158.291 196.596 155.324C194.33 153.222 192.569 150.864 191.362 148.315C189.32 144.04 188.683 139.233 189.362 133.192C189.722 130.023 192.382 122.364 193.074 120.487C193.107 120.397 193.27 119.844 193.396 117.317C193.502 115.274 193.515 113.114 193.515 113.092C193.52 112.341 194.13 111.733 194.881 111.733H194.888C195.642 111.737 196.25 112.352 196.246 113.107C196.246 113.197 196.233 115.349 196.124 117.457C195.987 120.177 195.801 120.996 195.636 121.439C194.647 124.122 192.373 130.893 192.077 133.499C191.458 139.008 192.015 143.343 193.83 147.141C194.89 149.379 196.444 151.457 198.452 153.321C201.256 155.919 204.983 157.826 208.944 158.694C213.564 159.73 218.148 159.318 221.856 157.54C222.541 157.213 223.352 157.501 223.679 158.182C224.003 158.864 223.715 159.678 223.036 160.005C220.297 161.317 217.164 161.985 213.892 161.985L213.889 161.983Z" fill="#343434"/>
<path d="M94.4962 166.614C92.7841 166.614 91.0293 166.42 89.276 166.029C85.0493 165.093 81.2091 163.121 78.1757 160.321C70.7202 153.442 70.6996 145.094 71.333 139.411C71.6696 136.424 74.1753 129.198 74.8279 127.426C74.8793 127.281 75.0072 126.717 75.1277 124.481C75.2232 122.552 75.235 120.511 75.235 120.491C75.2394 119.738 75.8493 119.132 76.6003 119.132H76.6076C77.3615 119.137 77.97 119.751 77.9656 120.506C77.9656 120.591 77.9538 122.626 77.8553 124.622C77.7422 126.731 77.6129 127.782 77.3895 128.379C76.4592 130.903 74.3238 137.272 74.0475 139.717C73.4317 145.238 73.5551 152.341 80.0275 158.312C82.6685 160.748 86.1648 162.541 89.8698 163.36C94.2008 164.33 98.4981 163.941 101.971 162.272C102.651 161.947 103.466 162.232 103.793 162.912C104.12 163.591 103.833 164.408 103.154 164.736C100.563 165.98 97.5987 166.614 94.5006 166.614H94.4962Z" fill="#343434"/>
<path d="M206.881 167.669C206.753 167.669 206.622 167.65 206.491 167.612C206.034 167.475 195.251 164.191 191.539 156.847C190.049 153.902 189.896 150.73 191.082 147.421C191.338 146.71 192.119 146.344 192.828 146.596C193.538 146.85 193.906 147.633 193.652 148.343C192.718 150.951 192.822 153.327 193.973 155.605C197.15 161.898 207.172 164.961 207.273 164.992C207.995 165.208 208.406 165.968 208.19 166.692C208.014 167.285 207.471 167.669 206.882 167.669H206.881Z" fill="#343434"/>
<path d="M77.3496 228.771C77.2438 228.771 77.1365 228.759 77.0307 228.733C76.8029 228.677 76.0519 228.415 75.9622 227.378C75.7712 225.164 76.7264 208.615 86.0029 204.566C86.701 204.264 87.499 204.582 87.8003 205.272C88.1016 205.963 87.787 206.768 87.0948 207.071C81.3162 209.592 79.3895 218.956 78.8516 223.989C80.0141 222.978 81.1795 222.059 81.5572 221.76C81.5572 221.76 85.2886 218.425 87.3491 214.32C88.5439 211.953 88.9363 209.829 88.5175 208.003C88.3485 207.268 88.807 206.534 89.5418 206.365C90.2811 206.196 91.01 206.654 91.1775 207.39C91.7448 209.855 91.276 212.6 89.7872 215.55C87.4799 220.146 83.4707 223.714 83.3017 223.862C81.2809 225.448 78.9177 227.494 78.5165 228.126C78.2622 228.53 77.814 228.768 77.3496 228.768V228.771Z" fill="#343434"/>
<path d="M95.3368 230.764C95.1693 230.764 95.0003 230.733 94.8386 230.671C93.5292 230.159 88.7087 220.32 87.9298 215.141C87.8181 214.395 88.3325 213.699 89.0776 213.586C89.8051 213.474 90.5178 213.987 90.631 214.735C91.1175 217.975 92.9075 222.065 94.3742 224.959C94.5256 224.177 94.6931 223.443 94.8342 222.859L94.9224 222.494C95.9923 218.055 97.6074 211.345 93.2896 207.746C93.078 207.565 92.8605 207.403 92.6327 207.243C92.0169 206.807 91.8714 205.954 92.3064 205.338C92.7414 204.722 93.5953 204.576 94.2096 205.011C94.5065 205.222 94.7916 205.434 95.0517 205.657C100.661 210.333 98.7317 218.347 97.5781 223.134L97.4899 223.499C96.8638 226.088 96.5419 228.354 96.686 229.141C96.7771 229.636 96.5875 230.149 96.1966 230.464C95.9497 230.661 95.6469 230.764 95.3398 230.764H95.3368Z" fill="#343434"/>
<path d="M146.115 174.216C145.649 174.216 145.17 174.194 144.682 174.15C139.848 173.715 135.18 171.235 132.194 167.519C128.414 162.79 125.563 154.202 128.233 146.516C128.275 146.401 128.292 146.35 128.316 146.291C128.605 145.594 129.406 145.261 130.098 145.548C130.797 145.835 131.129 146.634 130.842 147.332L130.788 147.481C128.483 154.12 130.999 161.65 134.324 165.81C136.853 168.956 140.817 171.058 144.926 171.429C146.576 171.579 148.121 171.407 149.267 170.974C147.911 169.958 146.842 167.732 146.91 163.21C147.014 156.653 144.699 148.271 133.08 145.575C132.346 145.404 131.888 144.67 132.059 143.935C132.229 143.199 132.967 142.742 133.698 142.912C144.148 145.338 149.809 152.562 149.64 163.253C149.614 164.97 149.758 168.968 151.654 169.003C151.788 169.009 151.896 169.002 151.983 168.996C152.815 168.953 153.366 169.25 153.619 169.878C154.011 170.854 153.337 171.442 152.48 172.188L152.275 172.354C150.89 173.557 148.685 174.216 146.112 174.216H146.115Z" fill="#343434"/>
<path d="M90.1106 207.946C90.0077 207.946 89.9063 207.943 89.802 207.937C88.4543 207.893 87.1595 207.287 86.2836 206.278C85.4929 205.361 84.3657 203.32 85.6517 199.906C85.8368 199.369 86.3453 198.982 86.942 198.982C87.6959 198.982 88.3073 199.588 88.3073 200.342C88.3073 200.509 88.2779 200.685 88.2177 200.841C87.621 202.406 87.668 203.702 88.347 204.489C88.7247 204.923 89.3008 205.186 89.9254 205.207C90.5882 205.251 91.2216 205.036 91.6802 204.636C92.4444 203.991 92.7868 202.88 92.659 201.494C92.5914 200.743 93.1439 200.078 93.8949 200.01C94.6562 199.936 95.3102 200.495 95.3778 201.246C95.588 203.546 94.9061 205.487 93.4555 206.71C92.5414 207.509 91.3583 207.946 90.1091 207.946H90.1106Z" fill="#343434"/>
</g>
<defs>
<clipPath id="clip0_148_2485">
<rect width="254" height="200" fill="white" transform="translate(33 82)"/>
</clipPath>
</defs>
</svg>
