<svg width="320" height="320" viewBox="0 0 320 320" fill="none" xmlns="http://www.w3.org/2000/svg">
<path d="M282.46 108.693C274.604 97.385 263.708 87.64 249.385 84.9841C233.537 82.0455 216.693 81.644 202.043 76.0257C192.964 72.5439 185.216 67.2261 176.472 63.2423C140.583 46.8936 93.1583 54.8176 69.7517 87.4453C64.6485 94.559 60.7023 102.687 53.8906 108.274C49.0246 112.264 42.9763 114.702 38.1494 118.738C30.6141 125.038 26.8347 134.502 23.3361 143.565C15.7251 163.281 5.97901 191.424 25.2002 207.983C38.3032 219.272 38.5212 218.009 54.2116 226.99C70.9771 236.586 168.965 245.921 195.799 235.262C222.632 224.602 237.169 228.128 260.902 213.567C288.963 196.35 304.281 162.966 295.551 135.627C292.526 126.085 288.118 117.015 282.46 108.693V108.693Z" fill="#FAF7DE"/>
<path d="M249.936 222.888C247.933 220.463 244.175 219.179 244.175 219.179L252.602 153.707L251.235 152.735L191.229 145.872C184.674 142.451 175.113 137.387 173.964 136.345C172.196 134.745 170.869 133.022 169.921 132.899C168.974 132.776 168.114 133.089 167.267 133.885C166.423 134.678 165.689 135.608 165.563 135.178C165.437 134.748 164.49 126.374 164.49 126.374C164.49 126.374 168.533 123.603 170.743 121.45C172.953 119.294 172.129 118.249 175.132 117.263C178.136 116.277 180.156 115.046 181.293 114.247C182.43 113.445 186.979 108.89 187.42 107.474C187.862 106.058 187.077 104.753 188.418 103.435C189.759 102.117 190.832 102.055 191.653 100.209C192.475 98.3627 193.738 96.7009 193.106 94.5446C192.475 92.3884 192.399 92.1845 192.5 89.3943C192.6 86.604 193.042 77.306 190.893 70.4742C188.745 63.6396 188.113 60.1315 186.029 56.6821C183.945 53.2355 177.563 43.1387 172.322 40.4294C167.077 37.7202 157.538 34.5947 157.351 34.5584C157.161 34.5193 153.278 33.4384 153.278 33.4384C153.278 33.4384 146.114 32.1843 138.215 35.4075C130.316 38.6307 123.98 40.5104 120.856 43.9123C117.732 47.3143 115.62 48.0293 111.764 54.0287C107.908 60.0282 105.059 65.4858 104.324 68.3515C103.589 71.2171 99.9958 81.3028 99.9958 87.805C99.9958 94.3072 99.4845 97.7902 101.273 101.276C103.061 104.759 104.793 108.789 107.182 111.317C109.571 113.845 121.06 119.19 121.06 119.19C121.06 119.19 124.653 122.302 126.111 123.671C127.57 125.039 128.799 126.695 128.799 126.695L127.55 135.868C127.55 135.868 126.273 132.969 124.821 132.72C123.368 132.471 123.432 132.228 121.915 133.583C120.398 134.938 122.041 133.952 118.252 136.722C114.46 139.493 97.6573 148.112 96.3944 149.344C95.2488 150.461 93.8937 151.076 91.5775 153.062C91.1891 154.492 90.8567 155.933 90.5605 157.383C89.9458 159.528 89.3563 162.421 89.1132 166.083C88.9595 167.167 88.8086 168.25 88.655 169.334C88.1381 172.996 87.4983 176.66 87.0652 180.341H88.1409C87.3837 191.136 86.4477 203.63 85.9616 206.993C85.2183 212.165 84.3075 226.052 85.1038 231.401C85.9001 236.75 83.8521 239.37 87.8363 242.671C91.8206 245.972 95.1231 248.249 98.6547 248.249C102.186 248.249 104.234 248.992 104.234 248.992L101.572 262.225L198.532 262.116L194.408 249.408L235.298 254.284C235.298 254.284 238.601 257.471 240.082 254.055C241.563 250.64 241.789 248.818 241.789 248.818C241.789 248.818 243.725 249.503 246.458 247.623C249.19 245.743 249.875 245.062 250.897 241.076C251.923 237.093 251.467 234.085 251.353 229.044C251.238 224.002 251.945 225.323 249.942 222.899L249.936 222.888Z" fill="white"/>
<path d="M181.26 105.985C180.768 105.809 180.212 105.888 179.709 105.916C179.304 105.941 178.896 105.985 178.491 106.033C178.508 106.326 178.471 106.611 178.354 106.86C177.295 109.097 176.784 111.558 176.01 113.934C175.753 114.725 175.451 115.499 175.13 116.261C176.87 115.848 178.234 114.317 179.472 112.876C180.033 112.219 180.581 111.546 181.061 110.801C181.609 109.954 182.305 108.834 182.327 107.714C182.344 106.924 181.877 106.206 181.26 105.985Z" fill="#515151"/>
<path d="M189.438 90.227C188.809 85.342 188.248 80.4402 187.457 75.5775C186.725 71.0779 185.752 66.5895 184.115 62.3245C182.489 58.0875 180.234 54.1633 177.203 50.7697C174.333 47.5549 170.866 44.8792 167.175 42.6643C163.294 40.3377 159.126 38.511 154.867 36.986C154.82 36.581 154.616 36.1928 154.239 36.0196C147.002 32.6484 138.531 35.704 131.831 38.9942C125.38 42.1643 119.523 46.6248 114.746 51.9847C109.646 57.7048 105.799 64.4361 103.435 71.7175C101.021 79.161 100.158 87.1603 101.033 94.9389C101.896 102.623 104.559 110.842 111.588 115.04C112.393 115.521 113.242 115.909 114.114 116.25C115.084 116.63 115.983 115.518 115.74 114.63C112.499 102.799 113.307 90.0315 117.906 78.661C118.462 77.2869 119.079 75.935 119.758 74.6195C120.021 74.1084 120.247 73.5945 120.823 73.4045C121.566 73.1587 122.407 73.1252 123.175 72.994C126.36 72.4437 129.498 71.6086 132.538 70.5054C134.069 69.9495 135.58 69.3267 137.061 68.6452C137.785 68.3128 138.503 67.9609 139.213 67.5978C139.456 67.4721 139.777 67.2319 140.059 67.2263C140.291 67.2207 140.557 67.3995 140.749 67.5056C143.446 68.9859 146.27 69.7596 149.369 69.6395C156.047 69.3853 161.629 65.7013 166.798 61.8106C168.206 66.5141 169.665 71.2092 171.528 75.7563C172.57 78.3007 173.699 80.8312 175.065 83.2221C176.292 85.3644 177.885 87.1994 180.17 88.2384C182.433 89.269 185.191 89.6098 187.191 91.1543C187.622 91.4867 188.099 91.6627 188.633 91.4281C189.063 91.2381 189.51 90.7382 189.446 90.2243L189.438 90.227Z" fill="#515151"/>
<path d="M197.767 262.211L193.875 248.958L163.898 244.769L163.713 244.777C163.534 244.556 163.361 244.313 163.141 244.109C162.766 243.763 164.132 235.613 165.004 230.664C165.281 229.326 165.546 227.988 165.798 226.644C165.976 225.681 165.06 224.918 164.155 225.382C161.478 226.762 158.804 228.142 156.128 229.519C153.831 230.703 151.369 232.046 148.76 231.75C148.545 231.44 148.329 231.13 148.126 230.812C146.768 228.695 145.597 226.463 144.446 224.228C143.267 219.955 142.8 215.495 143.085 211.02C144.574 210.545 145.706 209.392 146.79 208.317C147.88 207.236 149.011 206.197 150.09 205.105C152.607 202.554 155.217 200.105 157.91 197.739C160.285 195.653 162.992 193.36 166.08 192.449C167.435 192.05 168.832 191.86 170.215 191.905L171.408 179.098L171.218 179.082C171.386 177.842 171.634 176.607 171.788 175.468C172.282 171.82 173.151 168.222 173.406 164.547C173.406 164.469 173.406 164.393 173.406 164.315C170.592 166.938 166.457 168.521 162.548 168.868C161.098 169.228 159.606 169.398 158.159 169.275C156.345 169.119 154.605 168.563 152.886 167.943C153.817 169.267 154.677 170.641 155.555 172.068C156.309 173.297 156.996 174.429 157.438 175.819C157.812 176.998 158 178.219 158.329 179.397C158.419 179.476 158.511 179.548 158.6 179.624C158.195 180.084 157.678 180.47 157.083 180.47C155.781 180.47 154.01 179.054 153.571 178.688C152.585 177.71 151.626 176.733 150.682 175.836C148.341 173.61 147.114 171.004 146.589 168.044C146.064 169.873 145.32 171.624 144.189 173.236C142.557 175.562 140.341 177.344 138.229 179.23C137.391 179.629 135.611 180.562 134.41 180.344C133.82 180.238 133.555 179.922 133.443 179.601C133.49 179.487 133.532 179.375 133.58 179.26C134.25 177.632 134.555 175.917 135.326 174.322C136.268 172.37 137.508 170.552 139.081 169.063C134.488 169.267 129.417 168.901 125.421 167.072C121.415 165.234 117.285 162.798 116.36 158.248C116.24 157.662 116.24 157.168 116.324 156.757L95.9027 149.872C95.9027 149.872 93.3825 151.679 91.1669 153.682C90.9992 157.313 90.3706 160.893 89.6302 164.457C89.1636 168.988 88.6662 173.518 88.2695 178.054H88.2639C88.2639 178.054 88.2415 178.358 88.1968 178.909C88.1577 179.383 88.1102 179.858 88.0739 180.333H88.0851C87.3698 189.45 84.7267 223 84.3299 226.119C84.0561 228.27 84.5311 231.948 85.0983 235.423C85.5844 237.814 86.4031 239.998 87.7246 242.121C90.812 247.081 96.0731 248.852 101.711 248.282C102.469 248.207 102.891 249.165 102.949 249.751C103.377 253.988 102.625 258.13 101.575 262.214H197.772L197.767 262.211Z" fill="#DCE5EC"/>
<path d="M202.156 122.059C202.215 122.149 205.154 125.003 205.154 125.003L201.955 128.405L198.834 124.88L202.156 122.059Z" fill="#F7F091"/>
<path d="M215.391 105.212C215.458 105.312 218.786 108.547 218.786 108.547L215.162 112.401L211.628 108.407L215.388 105.212H215.391Z" fill="#F7F091"/>
<path d="M220.485 158.757C218.655 162.064 216.824 165.371 214.997 168.678C214.223 170.08 216.369 171.335 217.146 169.932C218.976 166.625 220.806 163.318 222.633 160.012C223.407 158.609 221.261 157.355 220.485 158.757Z" fill="#8FCFD7"/>
<path d="M237.679 161.277C237.405 161.232 237.162 161.269 236.95 161.361C236.26 160.917 235.226 160.85 234.516 160.732C233.111 160.501 231.697 160.361 230.278 160.302C230.043 159.825 229.546 159.478 228.878 159.643C226.869 160.14 225.139 161.537 224.419 163.512C223.86 165.045 224.036 167.134 225.726 167.871C228.386 169.028 231.113 165.559 230.889 162.819C231.395 162.847 231.901 162.883 232.407 162.936C232.854 162.984 233.871 163.053 234.631 163.174C234.505 163.313 234.393 163.439 234.357 163.5C234.133 163.872 233.954 164.263 233.804 164.671C233.513 165.453 233.295 166.38 233.572 167.204C234.117 168.818 235.885 169.031 237.26 168.391C238.626 167.757 240.557 166.148 240.847 164.578C241.216 162.587 239.336 161.562 237.676 161.283L237.679 161.277ZM228.014 164.333C227.662 164.897 226.601 166.022 226.64 164.78C226.668 163.858 227.389 163.101 228.216 162.601C228.827 162.992 228.288 163.894 228.017 164.333H228.014ZM238.145 164.302C238.092 164.682 237.643 165.037 237.388 165.274C236.989 165.645 236.162 166.528 236.047 165.785C235.944 165.123 236.891 164.271 237.232 163.777C237.249 163.755 237.263 163.729 237.279 163.704C237.763 163.749 238.227 163.752 238.148 164.302H238.145Z" fill="#8FCFD7"/>
<path d="M237.168 171.815C232.75 171.966 228.375 172.564 224.081 173.606C222.527 173.983 223.184 176.379 224.743 176.002C228.828 175.013 232.968 174.444 237.168 174.301C238.763 174.245 238.772 171.76 237.168 171.815Z" fill="#8FCFD7"/>
<path d="M234.508 176.415C231.985 176.247 229.498 176.541 227.079 177.278C225.553 177.744 226.204 180.144 227.741 179.674C229.965 178.996 232.192 178.744 234.508 178.898C236.106 179.004 236.098 176.518 234.508 176.412V176.415Z" fill="#8FCFD7"/>
<path d="M196.395 183.032C195.724 179.387 191.064 179.918 188.437 180.736C185.515 181.647 182.62 183.714 181.69 186.761C181.212 188.322 181.581 189.892 182.76 191.037C184.123 192.361 186.043 192.609 187.845 192.805C189.435 192.975 189.421 190.49 187.845 190.319C186.691 190.193 184.869 190.065 184.191 188.903C183.584 187.864 184.364 186.582 185.02 185.758C186.23 184.241 188.085 183.339 189.941 182.904C190.874 182.683 191.924 182.49 192.877 182.669C194.492 182.968 193.889 184.585 193.522 185.685C192.693 188.182 191.461 190.506 189.98 192.676C189.074 194 191.229 195.246 192.128 193.931C193.321 192.182 194.333 190.342 195.149 188.386C195.819 186.778 196.724 184.825 196.395 183.032Z" fill="#8FCFD7"/>
<path d="M217.638 185.42C216.967 181.775 212.307 182.306 209.68 183.124C206.758 184.034 203.863 186.101 202.933 189.149C202.455 190.71 202.824 192.28 204.003 193.425C205.366 194.749 207.286 194.997 209.088 195.193C210.678 195.363 210.664 192.877 209.088 192.707C207.934 192.581 206.112 192.453 205.433 191.291C204.827 190.252 205.607 188.97 206.263 188.146C207.473 186.629 209.328 185.727 211.183 185.291C212.117 185.071 213.167 184.878 214.12 185.057C215.735 185.356 215.131 186.973 214.765 188.073C213.936 190.57 212.703 192.894 211.223 195.064C210.317 196.388 212.472 197.634 213.371 196.318C214.564 194.57 215.576 192.729 216.392 190.774C217.062 189.165 217.967 187.213 217.638 185.42Z" fill="#8FCFD7"/>
<path d="M238.88 187.807C238.21 184.163 233.549 184.693 230.923 185.512C228 186.422 225.106 188.489 224.175 191.536C223.698 193.098 224.066 194.667 225.246 195.812C226.609 197.136 228.529 197.385 230.331 197.58C231.92 197.751 231.906 195.265 230.331 195.095C229.177 194.969 227.355 194.84 226.676 193.678C226.07 192.639 226.849 191.357 227.506 190.534C228.716 189.017 230.571 188.115 232.426 187.679C233.359 187.458 234.41 187.266 235.363 187.444C236.978 187.743 236.374 189.36 236.008 190.461C235.178 192.958 233.946 195.282 232.465 197.452C231.56 198.776 233.714 200.021 234.614 198.706C235.807 196.957 236.818 195.117 237.634 193.162C238.305 191.553 239.21 189.601 238.88 187.807Z" fill="#8FCFD7"/>
<path d="M216.433 208.672C215.763 205.027 211.102 205.558 208.476 206.376C205.553 207.287 202.659 209.353 201.728 212.401C201.251 213.962 201.619 215.532 202.799 216.677C204.162 218.001 206.082 218.249 207.884 218.445C209.473 218.615 209.459 216.129 207.884 215.959C206.73 215.833 204.908 215.705 204.229 214.543C203.623 213.504 204.402 212.222 205.059 211.398C206.269 209.881 208.124 208.979 209.979 208.544C210.912 208.323 211.963 208.13 212.916 208.309C214.531 208.608 213.927 210.225 213.561 211.325C212.731 213.822 211.499 216.146 210.018 218.316C209.113 219.64 211.267 220.886 212.167 219.57C213.36 217.822 214.371 215.981 215.187 214.026C215.858 212.417 216.763 210.465 216.433 208.672Z" fill="#8FCFD7"/>
<path d="M203.377 227.871C202.706 224.226 198.046 224.757 195.42 225.575C192.497 226.486 189.602 228.552 188.672 231.6C188.194 233.161 188.563 234.731 189.742 235.876C191.106 237.2 193.025 237.448 194.827 237.644C196.417 237.817 196.403 235.328 194.827 235.158C193.673 235.032 191.852 234.904 191.173 233.742C190.566 232.703 191.346 231.421 192.002 230.597C193.212 229.08 195.068 228.178 196.923 227.742C197.856 227.522 198.906 227.329 199.859 227.508C201.474 227.807 200.871 229.424 200.505 230.524C199.675 233.021 198.443 235.345 196.962 237.515C196.057 238.839 198.211 240.085 199.11 238.769C200.303 237.021 201.315 235.18 202.131 233.225C202.801 231.616 203.707 229.664 203.377 227.871Z" fill="#8FCFD7"/>
<path d="M218.403 239.178C217.249 239.052 215.428 238.924 214.749 237.762C214.142 236.723 214.922 235.441 215.578 234.617C216.788 233.1 218.643 232.198 220.499 231.762C220.814 231.687 221.144 231.617 221.477 231.564C221.351 230.729 221.496 229.849 221.829 229.036C220.809 229.12 219.806 229.343 218.996 229.598C216.073 230.508 213.178 232.575 212.248 235.622C211.77 237.183 212.139 238.753 213.318 239.898C214.682 241.222 216.601 241.471 218.403 241.666C219.993 241.837 219.979 239.351 218.403 239.18V239.178Z" fill="#8FCFD7"/>
<path d="M225.207 237.594C224.949 236.837 224.768 235.382 224.055 234.913C224.027 234.893 224 234.871 223.974 234.849C223.147 237.228 221.96 239.452 220.543 241.532C219.638 242.856 221.792 244.102 222.692 242.786C223.74 241.253 224.648 239.644 225.405 237.954C225.318 237.84 225.251 237.717 225.209 237.594H225.207Z" fill="#8FCFD7"/>
<path d="M190.181 252.05C190.086 252.05 189.985 252.059 189.887 252.073C175.783 254.156 161.363 255.212 147.033 255.212C140.031 255.212 132.946 254.958 125.977 254.458C119.881 254.019 113.703 253.38 107.61 252.55C107.517 252.539 107.428 252.531 107.339 252.531C106.321 252.531 105.651 253.304 105.589 254.053C105.528 254.793 106.039 255.366 106.858 255.477C120.219 257.293 133.798 258.215 147.215 258.215H147.217C155.544 258.215 163.942 257.857 172.185 257.156C178.239 256.639 184.45 255.913 190.65 254.997C191.472 254.877 191.977 254.293 191.91 253.55C191.843 252.813 191.178 252.048 190.178 252.048L190.181 252.05Z" fill="#343434"/>
<path d="M106.76 249.681C110.853 248.813 115 247.858 119.006 246.93C122.742 246.067 126.606 245.176 130.42 244.358C137.086 242.928 142.89 241.302 148.162 239.395L148.355 239.325C149.159 239.037 150.07 238.71 150.391 238.029C150.562 237.669 150.548 237.238 150.352 236.752C150.048 235.99 149.517 235.621 148.735 235.621C148.167 235.621 147.561 235.811 146.977 235.996L146.829 236.043C146.337 236.197 145.846 236.375 145.371 236.546C144.792 236.755 144.194 236.97 143.596 237.144C142.716 237.398 141.839 237.657 140.962 237.917C138.394 238.677 135.74 239.462 133.094 240.087C129.199 241.003 125.226 241.894 121.384 242.755C116.576 243.833 111.605 244.947 106.735 246.126C104.869 246.578 103.005 246.807 101.203 246.807C100.01 246.807 98.8113 246.707 97.635 246.511C95.1316 246.092 92.3627 245.313 90.8177 242.699C88.2136 238.291 86.9005 233.546 86.9144 228.597C86.934 222.729 87.1687 216.528 87.6381 209.638C88.0488 203.616 88.5657 197.496 89.0658 191.581C89.3592 188.095 89.6665 184.492 89.9459 180.945C90.1024 178.959 90.2141 176.934 90.3231 174.979C90.7366 167.544 91.1613 159.86 94.1146 152.629C94.489 151.71 94.0894 151.249 93.6899 151.026C93.4803 150.908 93.2596 150.85 93.0333 150.85C92.6645 150.85 92.2845 151.012 91.9325 151.319C90.8931 152.224 90.1722 153.402 89.7895 154.824C88.8646 158.276 88.0684 161.396 87.7107 164.639C86.5093 175.588 85.6068 186.743 84.7323 197.53C84.3942 201.697 84.045 206.007 83.6846 210.249C83.6147 212.017 83.5337 213.785 83.4554 215.55C83.2738 219.639 83.0838 223.865 83.0056 228.027C82.9274 232.158 83.6678 236.132 85.2017 239.839L85.4252 240.383C86.7719 243.66 88.1661 247.048 92.0973 248.528C95.1344 249.67 98.2637 250.251 101.393 250.251C101.767 250.251 102.142 250.24 102.516 250.223C102.005 252.005 101.432 253.991 101.309 254.402C100.974 255.525 100.602 256.656 100.242 257.751C99.8926 258.812 99.5322 259.907 99.2053 260.996C99.0488 261.513 99.0292 261.968 99.1466 262.345C99.2975 262.831 99.6747 263.175 100.236 263.339C100.331 263.367 100.426 263.39 100.518 263.404C101.39 263.535 102.064 263.024 102.418 261.962C103.243 259.479 105.131 253.167 106.118 249.81C106.33 249.771 106.542 249.729 106.755 249.684L106.76 249.681Z" fill="#343434"/>
<path d="M106.271 206.956C108.548 206.691 107.688 204.504 107.523 203.107C106.604 195.29 105.654 187.469 104.173 179.724C102.994 173.563 102.22 167.317 100.043 161.349C99.669 160.321 99.4623 159.114 97.9479 158.734C97.0091 160.042 97.6099 161.34 97.8697 162.592C100.697 176.146 102.667 189.815 104.279 203.532C104.438 204.881 103.74 207.252 106.271 206.956Z" fill="#343434"/>
<path d="M138.288 213.599C138.263 212.987 138.218 212.309 137.397 212.203C136.477 212.082 136.103 212.753 136.011 213.426C135.815 214.873 135.74 216.336 135.614 217.791C135.256 223.425 137.48 228.215 141.157 232.528C141.789 233.27 142.666 234.011 143.719 233.296C144.829 232.544 143.957 231.706 143.42 231.07C139.47 226.391 137.925 221.065 138.305 215.194C138.338 214.663 138.305 214.13 138.285 213.599H138.288Z" fill="#343434"/>
<path d="M246.564 218.615C248.344 203.113 250.121 187.612 251.903 172.111C252.552 166.472 253.239 160.835 253.784 156.227C253.759 151.833 253.756 151.844 250.431 151.445C230.778 149.079 211.125 146.705 191.472 144.342C188.809 142.921 186.093 141.493 183.375 140.155C179.27 138.131 174.976 135.851 171.567 132.209C170.95 131.55 170.24 131.201 169.516 131.201C169.014 131.201 168.516 131.369 168.041 131.701C167.533 132.056 167.024 132.433 166.546 132.854C166.239 130.385 165.937 127.958 165.63 125.548C164.795 126.076 163.94 126.578 163.087 127.076C163.275 130.131 163.613 133.176 164.001 136.214C164.012 136.298 164.029 136.379 164.046 136.46C161.352 141.87 158.078 146.987 155.166 151.537C152.107 156.319 149.472 159.835 146.642 162.91C146.597 162.863 146.553 162.821 146.511 162.779C146.368 162.637 146.251 162.519 146.145 162.394C138.855 153.638 133.295 143.946 129.258 136.452C129.302 136.231 129.333 135.999 129.358 135.773C129.652 133.123 129.928 130.461 130.23 127.601C129.948 127.416 129.66 127.235 129.372 127.059C128.785 126.696 128.199 126.335 127.615 125.964C127.321 128.265 127.034 130.57 126.746 132.871C125.637 131.832 124.72 131.248 123.779 131.248C122.837 131.248 121.823 131.869 120.633 133.259C119.403 134.698 117.741 135.77 116.134 136.807L116.081 136.84C114.072 138.139 111.882 139.197 109.761 140.222C108.521 140.823 107.238 141.44 106.006 142.102C105.103 142.585 104.201 143.069 103.296 143.549C100.599 144.987 97.8111 146.473 95.1009 147.99C94.0392 148.585 93.6704 149.487 93.7793 150.071C93.8548 150.487 94.1621 150.769 94.6147 150.844C95.5423 151.001 96.2241 151.473 96.9449 151.973C97.5065 152.361 98.0877 152.766 98.789 152.998C115.732 158.606 128.693 162.748 140.814 166.43C141.35 166.592 141.831 166.726 142.286 166.726C143.038 166.726 143.527 166.332 143.742 165.558C144.13 164.151 142.814 163.737 141.853 163.435L141.8 163.419C131.431 160.159 117.766 155.869 103.991 151.568C102.717 151.168 101.449 150.822 99.982 150.42C99.3981 150.261 98.789 150.093 98.1436 149.912C100.563 148.892 102.661 147.688 104.69 146.521C106.025 145.753 107.286 145.029 108.615 144.365L109.646 143.853C114.578 141.404 119.68 138.871 123.32 134.421C123.614 134.061 123.988 133.871 124.402 133.871C125.075 133.871 125.715 134.382 126.025 135.173C127.341 138.505 128.732 141.384 130.272 143.971C130.987 145.172 131.691 146.409 132.373 147.605C134.153 150.73 135.994 153.959 138.296 157.048C138.218 157.051 138.143 157.053 138.067 157.053C137.075 157.053 136.304 156.788 135.555 156.531C135.416 156.484 135.279 156.436 135.142 156.391C128.011 154.045 120.677 151.925 113.586 149.872C110.921 149.102 108.255 148.331 105.592 147.546L105.327 147.465C104.955 147.348 104.57 147.225 104.204 147.225C103.67 147.225 103.293 147.496 103.086 148.035C102.946 148.395 102.941 148.711 103.067 148.973C103.293 149.445 103.899 149.655 104.43 149.836L104.687 149.926C105.081 150.068 105.486 150.191 105.88 150.308C106.322 150.439 106.777 150.576 107.21 150.741C110.306 151.931 113.544 152.869 116.673 153.774C118.367 154.266 120.118 154.771 121.826 155.313C123.195 155.746 124.558 156.19 125.924 156.634C130.124 157.997 134.468 159.408 138.824 160.497C140.934 161.025 142.096 162.112 143.393 163.807C143.594 164.07 143.764 164.366 143.929 164.65C144.027 164.818 144.125 164.986 144.228 165.15C144.993 166.357 145.812 166.969 146.661 166.969C147.511 166.969 148.349 166.332 149.101 165.075C150.327 163.025 151.931 161.022 155.329 160.24C159.9 159.19 164.423 157.704 168.796 156.269C170.028 155.864 171.28 155.456 172.537 155.054C172.464 155.674 172.389 156.294 172.316 156.914C171.679 157.118 171.039 157.322 170.405 157.525C164.261 159.497 157.905 161.536 151.607 163.388L151.534 163.41C150.797 163.625 149.961 163.871 149.626 164.488C149.45 164.81 149.433 165.198 149.576 165.645C149.808 166.368 150.274 166.72 150.998 166.72C151.456 166.72 151.945 166.58 152.417 166.446L152.562 166.405C152.716 166.36 152.867 166.31 153.021 166.256L153.155 166.212C157.963 164.595 162.914 163.112 167.7 161.679C169.095 161.26 170.497 160.838 171.903 160.413C171.777 161.472 171.651 162.531 171.525 163.589C170.953 163.989 170.344 164.36 169.693 164.701C166.125 166.566 162.814 167.474 159.57 167.474C158.097 167.474 156.6 167.284 155.122 166.91L154.854 166.84C154.278 166.689 153.624 166.519 152.926 166.519C151.995 166.519 151.205 166.826 150.512 167.455L150.252 167.689L150.556 167.868C154.454 170.172 156.617 173.574 157.541 178.87C157.508 178.867 157.474 178.861 157.444 178.859C157.262 178.836 157.131 178.822 157.069 178.783C153.227 176.432 149.724 173.935 149.025 169.306C148.83 168.005 148.332 167.136 146.555 167.136H146.435C144.58 167.175 144.398 168.307 144.239 169.306C143.49 173.968 139.847 176.546 136.178 178.783C136.086 178.839 136.005 178.867 135.935 178.867C135.907 178.867 135.838 178.867 135.737 178.789C136.463 173.848 138.785 170.22 142.831 167.7L143.222 167.455L142.809 167.245C141.973 166.821 141.121 166.617 140.202 166.617C139.422 166.617 138.707 166.759 138.017 166.899L137.757 166.952C136.22 167.254 134.712 167.407 133.273 167.407C127.626 167.407 122.79 165.148 118.481 160.503C118.4 160.413 118.322 160.318 118.244 160.223C117.894 159.802 117.498 159.324 116.78 159.324C116.657 159.324 116.525 159.341 116.391 159.369L116.201 159.411L116.179 159.595C116.003 160.98 116.159 161.95 117.495 163.399C121.834 168.105 127.576 170.393 135.047 170.393C135.309 170.393 135.575 170.39 135.84 170.385C133.912 173.038 133.194 175.887 132.499 178.649L132.454 178.822C132.141 180.065 132.183 180.839 132.594 181.336C132.918 181.727 133.46 181.917 134.256 181.917C134.547 181.917 134.868 181.892 135.242 181.844C139.227 181.317 141.697 178.691 144.085 176.152L144.259 175.968C144.96 175.222 145.522 174.379 146.114 173.488C146.301 173.206 146.491 172.921 146.689 172.633C147.838 174.859 149.335 176.705 151.258 178.267C151.459 178.431 151.66 178.596 151.861 178.761C153.47 180.093 155.136 181.47 157.505 181.789C158.097 181.87 158.578 181.906 158.969 181.906C159.799 181.906 160.333 181.727 160.648 181.347C161.07 180.839 161.084 180.004 160.701 178.456C159.975 175.527 159.209 172.873 157.304 170.237C158.061 170.309 158.815 170.348 159.55 170.348C163.434 170.348 167.119 169.337 171.098 167.178C170.184 174.842 169.268 182.506 168.357 190.171C168.147 190.182 167.938 190.19 167.731 190.204C165.68 190.33 163.864 191.061 162.235 192.344C156.971 196.486 152.051 201.047 147.452 205.985C146.578 206.926 144.717 208.021 146.013 209.479C147.441 211.088 148.57 209.119 149.537 208.158C154.085 203.636 158.684 199.184 163.663 195.173C165.057 194.05 166.53 193.391 168.268 193.315C173.548 193.084 178.79 193.38 183.953 194.639C184.783 194.843 185.772 194.832 186.085 195.407C181.455 195.407 176.664 195.363 171.872 195.438C170.69 195.458 168.768 194.944 168.737 196.826C168.706 198.636 170.626 198.228 171.83 198.438C177.111 199.362 182.489 198.96 187.786 199.728C189.225 199.938 190.315 200.334 189.86 202.34C189.365 202.34 188.918 202.343 188.471 202.34C183.137 202.287 177.798 202.616 172.467 202.125C171.64 202.049 170.615 202.091 170.478 203.234C170.346 204.326 171.274 204.669 172.095 204.929C172.531 205.066 172.992 205.105 173.439 205.208C177.89 206.233 182.402 205.775 186.895 205.848C187.747 205.862 188.764 205.513 189.351 206.652C189.144 207.923 188.521 208.49 187.214 208.624C183.939 208.965 180.662 208.834 177.387 208.97C175.792 209.038 174.194 209.183 172.607 209.381C172.003 209.456 171.383 209.78 171.38 210.579C171.38 211.345 171.928 211.738 172.545 211.858C173.515 212.048 174.507 212.205 175.493 212.216C178.888 212.258 182.285 212.233 185.842 212.233C185.09 214.383 184.699 214.83 182.576 215.258C179.659 215.841 176.719 216.461 173.766 216.66C171.014 216.844 169.058 218.123 167.304 220.187C163.16 225.064 157.667 227.678 152.051 230.044C151.557 230.253 150.911 230.329 150.322 230.463C149.545 229.779 148.844 229.039 148.226 228.206C143.689 222.092 143.585 215.205 144.144 208.205C144.175 207.828 144.423 207.459 144.605 207.102C145.466 205.393 144.795 204.259 142.923 204.689C137.318 205.976 131.496 205.848 125.899 207.166C117.822 209.071 109.714 210.867 101.619 212.724C100.504 212.981 99.4009 213.291 98.3168 213.643C97.744 213.828 97.3333 214.244 97.4506 214.869C97.5652 215.484 98.0681 215.791 98.6912 215.777C99.6188 215.758 100.569 215.73 101.468 215.543C108.336 214.099 115.235 212.755 122.043 211.102C128.397 209.56 134.854 208.839 141.599 208.202C141.453 209.551 141.342 210.671 141.21 211.789C140.428 218.386 141.727 224.522 145.837 230.055C146.695 231.212 147.667 232.256 148.908 233.047C149.626 234.996 151.719 234.141 153.074 233.605C156.952 232.069 160.682 230.24 164.004 227.709C163.456 232.197 162.638 238.37 162.154 242.459C161.732 246.02 162.168 246.624 165.683 247.082C174.521 248.232 183.361 249.383 192.201 250.525C192.81 252.285 193.514 254.31 194.241 256.341C194.839 258.011 195.531 259.675 196.202 261.287L196.406 261.779C196.61 262.267 197.149 263.563 198.468 263.27C198.563 263.248 198.664 263.22 198.761 263.181C200.184 262.647 199.764 261.209 199.628 260.737C199.457 260.15 199.248 259.539 198.985 258.874C198.574 257.829 198.158 256.79 197.742 255.748C197.121 254.195 196.481 252.595 195.87 251C200.871 251.645 205.869 252.288 210.871 252.925C219.828 254.067 228.794 255.156 237.763 256.218C241.884 256.704 242.219 256.396 242.697 252.243C242.789 251.453 242.879 250.659 242.971 249.869C246.153 250.098 248.486 248.769 250.196 246.165C254.488 239.635 254.175 232.396 252.677 225.218C252.043 222.17 249.087 219.358 246.558 218.606L246.564 218.615ZM234.519 252.36C233.77 252.274 233.024 252.182 232.278 252.092C210.812 249.52 189.348 246.939 167.879 244.386C165.189 244.065 165.169 244.135 165.474 241.47C166.071 236.264 166.831 229.999 167.452 224.667C167.689 224.422 167.927 224.173 168.156 223.916C170.05 221.816 172.034 220.042 175.088 219.852C178.035 219.671 180.991 219.053 183.869 218.308C187.583 217.344 188.591 215.769 188.591 211.54C190.145 211.054 191.896 210.423 192.212 208.817C192.791 205.879 193.69 202.558 192.925 199.882C191.695 195.586 189.063 192.095 184.126 191.271C179.879 190.562 175.647 190.109 171.383 190.103C172.998 175.976 174.607 161.852 176.194 147.722C176.331 146.501 176.574 144.8 174.951 144.622C173.227 144.432 173.59 146.261 173.464 147.308C173.283 148.819 173.104 150.333 172.925 151.844C167.851 153.333 162.724 154.875 157.692 156.526C157.539 156.576 157.388 156.632 157.234 156.685C156.703 156.875 156.156 157.073 155.577 157.073C155.429 157.073 155.287 157.059 155.141 157.034C155.144 157.014 155.15 156.992 155.152 156.972C155.175 156.847 155.194 156.738 155.242 156.665C159.324 150.604 163.951 143.303 167.298 135.094C167.617 134.315 168.131 133.885 168.748 133.885C169.265 133.885 169.821 134.198 170.313 134.762C172.791 137.608 175.957 139.926 180.572 142.281C181.235 142.619 181.894 142.96 182.553 143.303C181.536 143.197 180.519 143.097 179.502 143.002C178.485 142.907 177.236 142.75 177.097 144.222C176.963 145.624 178.164 145.82 179.192 146.021C179.662 146.113 180.134 146.197 180.609 146.258C195.948 148.222 211.284 150.191 226.626 152.14C234.296 153.115 241.971 154.056 249.646 154.995C250.738 155.129 251.831 155.216 251.255 156.827C250.205 159.771 250.14 162.888 249.741 165.938C247.453 183.473 245.427 201.044 243.158 218.584C237.922 219.092 232.801 220.24 227.825 221.983C225.735 222.715 224.341 224.212 224.083 226.514C224.011 227.17 223.921 227.608 223.231 228.016C218.456 230.84 218.392 233.558 223.002 236.376C223.097 237.348 222.491 238.594 223.27 239.328C225.321 241.269 226.428 243.733 227.819 246.093C228.945 248 231.476 248.498 233.698 248.945C235.382 249.283 237.101 249.35 238.808 249.45C238.28 252.785 238.087 252.765 234.513 252.349L234.519 252.36ZM247.377 243.719C245.994 246.09 244.306 246.59 241.602 246.098C239.098 245.643 236.522 245.593 234.008 245.182C232.533 244.942 230.884 244.78 229.702 242.794C232.345 242.794 234.617 242.825 236.886 242.783C238.079 242.761 239.277 242.671 240.456 242.498C241.566 242.333 242.504 241.783 242.367 240.487C242.217 239.066 241.119 238.694 239.903 238.862C236.645 239.306 233.374 239.116 230.11 239.18C229.247 239.197 228.355 239.082 227.517 238.87C226.836 238.697 226.087 238.331 226.154 237.446C226.232 236.451 227.093 236.507 227.797 236.482C231.303 236.359 234.812 236.275 238.319 236.144C239.434 236.102 240.549 235.988 241.655 235.837C242.806 235.683 244.041 235.37 243.935 233.921C243.82 232.345 242.549 232.211 241.253 232.29C236.556 232.569 231.856 232.859 227.157 233.086C225.838 233.15 224.441 233.457 222.91 232.298C224.586 230.038 227.042 230.379 229.048 230.309C233.195 230.17 237.338 230.075 241.468 229.647C242.021 229.589 242.58 229.527 243.119 229.396C243.971 229.189 244.6 228.678 244.55 227.748C244.496 226.818 243.792 226.285 242.946 226.262C241.437 226.223 239.923 226.346 238.414 226.435C235.002 226.636 231.594 226.86 228.188 227.075C227.889 225.578 228.923 225.377 229.674 225.117C234.586 223.413 239.666 222.374 244.767 221.422C245.603 221.265 246.162 221.654 246.665 222.173C247.779 223.327 248.998 224.57 249.246 226.123C250.205 232.13 250.627 238.149 247.38 243.719H247.377Z" fill="#343434"/>
<path d="M146.659 118.568L146.812 118.604L146.98 118.568C150.939 117.75 154.029 115.395 155.915 111.764C156.359 110.904 156.441 110.273 156.167 109.781C155.901 109.281 155.292 108.977 154.317 108.848C152.423 108.602 150.403 108.499 147.757 108.499H146.715L146.424 108.505C144.088 108.521 141.669 108.547 139.313 108.848C138.338 108.974 137.729 109.281 137.464 109.781C137.193 110.273 137.274 110.904 137.715 111.764C139.601 115.395 142.691 117.75 146.656 118.568H146.659ZM146.812 111.091C148.668 111.108 150.573 111.222 152.627 111.426C151.16 113.728 149.101 115.063 146.824 115.205C144.53 115.06 142.47 113.728 141.004 111.426C143.057 111.222 144.963 111.108 146.812 111.091Z" fill="#343434"/>
<path d="M146.248 98.346C146.726 97.6365 146.865 96.9327 146.625 96.4104C146.424 95.9747 145.994 95.6842 145.466 95.6367C145.438 95.6367 145.41 95.6367 145.385 95.6367C145.368 95.6367 145.354 95.6367 145.34 95.6367C144.82 95.6563 144.549 95.9858 144.404 96.1646L143.84 96.8433C143.689 97.0221 143.521 97.226 143.362 97.4354C143.236 97.603 143.116 97.7762 143.01 97.9298L142.996 97.9494C142.906 98.0778 142.817 98.2119 142.697 98.3711C142.468 98.6811 142.227 99.0023 142.11 99.4353C141.934 100.092 142.13 100.787 142.649 101.343C143.177 101.91 143.946 102.172 144.499 102.295C144.845 102.371 145.186 102.401 145.516 102.432L145.617 102.441C145.703 102.449 145.79 102.455 145.879 102.46C145.997 102.469 146.103 102.471 146.203 102.471C146.256 102.471 146.307 102.471 146.357 102.471C146.592 102.463 146.801 102.435 147 102.385C148.145 102.094 148.067 101.41 148.017 101.2L148.011 101.181C147.916 100.885 147.656 100.706 147.421 100.561L147.385 100.539C147.184 100.41 146.972 100.309 146.812 100.237C146.673 100.175 146.527 100.122 146.421 100.083C146.284 100.036 146.156 99.9883 146.055 99.9352C145.89 99.8458 145.756 99.7285 145.667 99.5973C145.603 99.5023 145.6 99.4548 145.6 99.4548C145.6 99.3766 145.737 99.1783 145.809 99.0722C145.963 98.8487 146.111 98.6057 146.248 98.3488V98.346Z" fill="#343434"/>
<path d="M163.562 86.5477C162.35 86.5477 161.277 87.0337 160.693 87.8521L160.654 87.9051L160.229 89.0922L160.249 89.2123C160.576 91.1032 161.802 92.2316 163.532 92.2316C164.395 92.2316 165.314 91.9355 166.119 91.3992L166.211 91.3378L166.267 91.2456C167.186 89.7067 166.935 88.6369 166.56 88.0085C166.024 87.1063 164.873 86.5449 163.56 86.5449L163.562 86.5477Z" fill="#343434"/>
<path d="M132.865 87.8493C132.281 87.0337 131.208 86.5449 129.995 86.5449C128.682 86.5449 127.534 87.1063 126.995 88.0085C126.62 88.6369 126.369 89.7067 127.288 91.2456L127.344 91.3406L127.436 91.402C128.238 91.9383 129.157 92.2344 130.023 92.2344C131.753 92.2344 132.979 91.106 133.306 89.2151L133.329 89.095L132.904 87.9079L132.865 87.8549V87.8493Z" fill="#343434"/>
<path d="M132.574 77.7392C131.985 77.4767 131.359 77.3594 130.546 77.3594C130.16 77.3594 129.713 77.3845 129.137 77.4432L128.757 77.4823C127.296 77.6638 125.779 77.9906 124.561 79.1441C123.871 79.7977 123.759 80.4485 124.228 81.0769C124.491 81.4288 124.837 81.616 125.231 81.616C125.273 81.616 125.315 81.616 125.357 81.6104C125.595 81.588 125.835 81.4959 126.058 81.3478C127.059 80.6775 128.126 80.2921 129.319 80.1748C129.579 80.1496 129.847 80.1357 130.115 80.1357C130.68 80.1357 131.261 80.1915 131.895 80.3032C132.035 80.3284 132.169 80.3396 132.295 80.3396C132.356 80.3396 132.415 80.3368 132.471 80.3312C133.013 80.2781 133.37 79.9876 133.535 79.4653C133.831 78.5241 133.178 78.0074 132.577 77.7392H132.574Z" fill="#343434"/>
<path d="M168.187 81.6072C168.229 81.61 168.27 81.6128 168.312 81.6128C168.706 81.6128 169.053 81.4257 169.315 81.0737C169.785 80.4453 169.673 79.7945 168.983 79.141C167.765 77.9874 166.245 77.6606 164.789 77.4791L164.406 77.44C163.831 77.3841 163.381 77.3562 162.995 77.3562C162.182 77.3562 161.559 77.4735 160.97 77.7361C160.369 78.0042 159.712 78.5209 160.011 79.4622C160.176 79.9845 160.534 80.2749 161.076 80.328C161.132 80.3336 161.19 80.3364 161.252 80.3364C161.378 80.3364 161.512 80.3224 161.651 80.3001C162.286 80.1883 162.867 80.1353 163.431 80.1353C163.699 80.1353 163.968 80.1492 164.228 80.1744C165.423 80.2917 166.491 80.6743 167.488 81.3475C167.709 81.4955 167.952 81.5877 168.189 81.61L168.187 81.6072Z" fill="#343434"/>
<path d="M177.057 42.742C173.138 39.3764 169.254 37.3487 165.18 36.5443C164.971 36.5024 164.747 36.48 164.532 36.48C163.649 36.48 163.076 36.8376 162.995 37.4381C162.928 37.9352 163.261 38.424 163.926 38.8094C164.677 39.2452 165.501 39.5328 166.298 39.8094C166.714 39.9546 167.128 40.0998 167.533 40.2646C175.602 43.5548 182.782 52.3976 185.705 59.4305C189.737 69.1279 191.533 79.6102 190.715 88.1318C190.354 87.9726 189.966 87.8358 189.536 87.7352C188.535 87.4978 187.56 87.5592 187.23 88.6988C186.926 89.749 187.594 90.316 188.574 90.5925C189.396 90.8243 190.147 91.1204 190.606 91.9248C192.33 94.9468 191.584 98.9549 188.871 101.142C186.471 103.077 183.777 104.309 180.614 104.426C178.997 104.488 177.957 105.175 177.424 106.742C176.814 108.527 176.08 110.281 175.258 111.982C173.699 115.213 172.095 118.361 169.145 120.769C162.839 125.913 155.457 128.905 147.787 131.396C147.159 131.6 146.55 131.661 145.896 131.452C138.221 128.969 130.792 126.05 124.513 120.875C123.39 119.95 122.429 118.942 121.574 117.83C121.021 116.576 120.512 115.565 119.982 114.657C117.911 111.121 117.076 107.099 117.428 102.36C117.774 97.6924 118.146 93.1342 118.872 88.6988C120.683 80.2247 123.549 71.8567 127.391 63.8295C128.576 61.3521 129.788 58.7015 130.459 55.9057C130.481 55.8107 130.509 55.7129 130.537 55.6152C130.702 55.0426 130.926 54.255 130.026 53.7131L129.945 53.6656L129.85 53.674C129.009 53.7578 128.699 54.3974 128.47 54.8639L128.394 55.0147C123.723 64.2429 119.646 72.6137 117.081 81.6296C116.05 85.2522 115.246 88.9809 114.695 92.7012C113.323 99.6811 112.474 107.893 116.374 116.191C114.452 115.006 112.72 113.825 111.105 112.596C107.098 109.543 104.754 106.354 103.726 102.558C102.189 96.874 101.628 91.76 102.008 86.9224C102.186 84.6573 102.578 82.3837 102.955 80.1828C103.153 79.0265 103.357 77.8311 103.53 76.6496C105.305 64.4971 111.535 54.0008 122.58 44.5575C129.509 38.6335 138.567 35.388 149.5 34.9131C150.009 34.8908 150.682 34.8657 151.347 34.8657C153.482 34.8657 155.074 35.131 156.513 35.7259C156.834 35.86 157.184 35.9801 157.558 35.9801C158.025 35.9801 158.447 35.7957 158.843 35.4131L158.944 35.3181L158.924 35.1841C158.774 34.159 158.019 33.6954 157.354 33.2876L157.276 33.2401C156.002 32.4553 154.535 32.0782 152.521 32.0223C151.965 32.0084 151.406 32 150.858 32C133.728 32 119.607 39.7619 108.884 55.0678C101.616 65.4439 98.2693 78.0294 98.6548 93.5419C98.775 98.4074 99.5154 105.524 104.519 111.127C108.249 115.305 112.896 118.489 118.325 120.59L118.531 120.674C118.886 120.819 119.286 120.981 119.713 120.981C119.839 120.981 119.956 120.964 120.074 120.936C120.331 121.204 120.599 121.47 120.884 121.718C124.089 124.531 127.559 127.033 131.434 128.988C136.041 131.312 140.987 132.801 145.759 134.72C146.516 135.024 147.315 134.921 148.081 134.597C148.852 134.267 149.634 133.949 150.431 133.686C158.055 131.161 165.286 127.941 171.467 122.766C172.755 121.685 173.825 120.475 174.772 119.149C174.984 119.118 175.202 119.065 175.426 118.984C182.883 116.347 187.239 112.325 189.139 106.326L189.17 106.231C189.329 105.731 189.522 105.119 189.399 104.544C192.561 102.494 194.548 99.6252 194.607 95.4133C194.545 94.8351 194.537 94.1006 194.378 93.3995C194.26 92.894 194.126 92.4024 193.961 91.9331C193.961 91.9304 193.961 91.9276 193.964 91.9248C194.721 90.0842 194.78 88.1178 194.841 86.037C194.855 85.6153 194.867 85.1824 194.886 84.7411C195.537 69.3318 188.37 52.4535 177.055 42.7393L177.057 42.742ZM177.636 114.135C178.413 112.473 179.092 110.769 179.757 109.06C180.19 107.946 180.877 107.412 182.014 107.334C183.378 107.242 184.652 106.868 185.875 106.365C183.883 109.666 181.126 112.267 177.639 114.135H177.636Z" fill="#343434"/>
<path d="M155.524 57.3213C156.714 56.0952 157.485 54.5423 157.751 52.8273C157.899 51.8693 157.611 51.2772 156.896 51.0649C156.781 51.0314 156.667 51.0146 156.558 51.0146C155.845 51.0146 155.524 51.7436 155.387 52.0537C154.275 54.5842 152.249 56.2823 150.106 58.081L150.031 58.1453C144.192 63.0527 137.411 66.8624 129.883 69.4739C129.685 69.5437 129.484 69.6079 129.28 69.6722C128.322 69.9766 127.327 70.2922 126.399 71.1525L126.106 71.4234L126.472 71.591C127.45 72.0407 128.14 72.2837 128.978 72.2837C129.487 72.2837 130.062 72.1971 130.9 71.996C139.998 69.809 148.05 65.0106 155.521 57.3241L155.524 57.3213Z" fill="#343434"/>
<path d="M184.015 87.1961C184.517 86.4699 183.947 85.8974 183.604 85.5538L183.548 85.498C179.949 81.8698 178.033 77.2557 176.518 73.2197L175.839 71.4098C174.895 68.8877 173.951 66.3684 172.975 63.8183C172.718 63.148 172.4 62.3129 171.293 62.2068L171.238 62.2012L171.184 62.2179C169.997 62.5754 170.195 63.5307 170.343 64.268C171.103 67.9828 172.403 71.6054 173.548 74.8006C175.074 79.0516 176.633 82.1491 178.608 84.8472C179.421 85.9588 180.424 87.185 182.07 87.6709C182.358 87.7575 182.609 87.7966 182.838 87.7966C183.341 87.7966 183.735 87.5955 184.012 87.1961H184.015Z" fill="#343434"/>
<path d="M170.022 56.252C169.799 56.104 169.564 56.0286 169.329 56.0286C168.801 56.0286 168.388 56.3972 168.089 56.7157C167.848 56.9726 167.63 57.2519 167.421 57.5228L167.197 57.8077C162.956 63.1452 157.234 66.1254 150.19 66.6701C149.405 66.7315 148.575 66.8153 147.564 66.941C147.086 66.9996 146.365 67.089 146.245 67.8431C146.094 68.7928 147.002 69.167 147.301 69.2899C148.262 69.6838 149.263 69.7368 150.375 69.762H150.394C155.845 69.4855 160.654 67.7845 164.688 64.7066C167.074 62.8855 168.949 60.6874 170.257 58.1792C170.447 57.8189 170.947 56.8609 170.019 56.252H170.022Z" fill="#343434"/>
<path d="M181.226 88.3828C180.17 88.3828 179.949 89.3827 179.787 90.1117L179.734 90.3435C179.337 92.0138 178.971 93.698 178.647 95.3431C178.413 96.5301 178.837 97.3317 179.815 97.5468C179.972 97.5803 180.122 97.5971 180.265 97.5971C181.123 97.5971 181.704 96.991 181.902 95.8905C182.123 94.6727 182.307 93.4578 182.472 92.388C182.534 91.9886 182.59 91.6116 182.648 91.2261C182.648 91.0306 182.651 90.8379 182.657 90.6536C182.682 89.6481 182.71 88.6062 181.525 88.4107C181.419 88.394 181.318 88.3856 181.226 88.3856V88.3828Z" fill="#343434"/>
<path d="M208.292 124.156C208.023 124.053 207.766 124.045 207.543 124.039C207.484 124.039 207.437 124.036 207.392 124.033C205.478 123.924 204.374 123.355 203.701 122.12C203.321 121.425 203.176 120.626 203.07 119.933C203.017 119.578 202.977 119.207 202.944 118.847C202.924 118.646 202.905 118.45 202.882 118.255L202.877 118.188C202.852 117.945 202.776 117.21 201.969 117.21H201.935C201.103 117.235 201.05 117.998 201.033 118.246L201.027 118.322C200.949 119.369 200.871 120.45 200.505 121.416C199.96 122.857 199.147 123.617 197.948 123.807C197.778 123.835 197.61 123.866 197.443 123.899C197.054 123.975 196.688 124.045 196.322 124.045H196.185C195.302 124.045 195.084 124.589 195.034 124.916L195.023 124.986L195.031 125.056C195.065 125.327 195.244 125.952 196.168 125.952H196.252C196.652 125.952 197.049 126.028 197.471 126.106C197.644 126.139 197.82 126.173 197.996 126.201C199.133 126.382 199.896 127.078 200.468 128.46C200.832 129.332 200.918 130.332 201.002 131.295L201.022 131.516C201.024 131.555 201.027 131.594 201.027 131.633C201.033 131.748 201.038 131.871 201.066 132.002C201.214 132.678 201.675 132.787 201.938 132.792H201.958C202.449 132.792 202.796 132.463 202.863 131.935C202.905 131.605 202.938 131.273 202.972 130.952C203.003 130.656 203.033 130.351 203.072 130.05C203.246 128.636 203.698 127.634 204.495 126.893C204.891 126.525 205.266 126.321 205.677 126.248C205.878 126.212 206.076 126.17 206.269 126.128C206.702 126.036 207.11 125.947 207.518 125.947C207.568 125.947 207.618 125.947 207.669 125.952C207.688 125.952 207.708 125.952 207.727 125.952C207.94 125.952 208.132 125.888 208.272 125.84C208.672 125.706 208.906 125.363 208.887 124.944C208.867 124.575 208.655 124.285 208.297 124.148L208.292 124.156ZM202.67 126.114C202.399 126.447 202.164 126.801 201.958 127.195C201.488 126.296 200.857 125.572 200.041 125C200.848 124.433 201.474 123.712 201.952 122.81C202.419 123.704 203.047 124.424 203.869 125.005C203.413 125.327 203.019 125.69 202.67 126.117V126.114Z" fill="#343434"/>
<path d="M222.34 107.588C222.036 107.471 221.748 107.462 221.491 107.454C221.424 107.454 221.371 107.451 221.317 107.448C219.149 107.325 217.898 106.677 217.135 105.284C216.705 104.496 216.54 103.591 216.42 102.806C216.358 102.404 216.316 101.982 216.277 101.577C216.255 101.351 216.232 101.128 216.207 100.907L216.199 100.831C216.171 100.558 216.087 99.7227 215.171 99.7227H215.132C214.187 99.7506 214.128 100.614 214.109 100.899L214.103 100.982C214.017 102.167 213.925 103.393 213.511 104.488C212.894 106.119 211.974 106.979 210.614 107.197C210.421 107.228 210.231 107.264 210.041 107.3C209.602 107.384 209.186 107.462 208.772 107.462H208.619C207.618 107.462 207.373 108.079 207.314 108.448L207.303 108.526L207.314 108.605C207.353 108.909 207.554 109.621 208.602 109.621H208.697C209.15 109.621 209.599 109.705 210.077 109.794C210.276 109.831 210.471 109.87 210.672 109.901C211.958 110.104 212.824 110.895 213.475 112.462C213.885 113.45 213.983 114.582 214.078 115.674L214.101 115.925C214.103 115.97 214.106 116.014 214.109 116.059C214.115 116.188 214.12 116.327 214.154 116.478C214.321 117.243 214.844 117.366 215.143 117.372H215.162C215.718 117.372 216.112 117 216.188 116.403C216.235 116.028 216.274 115.651 216.311 115.288C216.344 114.953 216.38 114.61 216.422 114.266C216.621 112.666 217.132 111.532 218.035 110.691C218.484 110.275 218.909 110.04 219.376 109.959C219.605 109.92 219.828 109.87 220.046 109.825C220.535 109.719 220.999 109.621 221.46 109.621C221.516 109.621 221.575 109.621 221.63 109.627C221.653 109.627 221.675 109.627 221.697 109.627C221.938 109.627 222.156 109.554 222.315 109.501C222.768 109.35 223.033 108.962 223.011 108.484C222.991 108.068 222.748 107.739 222.343 107.582L222.34 107.588ZM215.973 109.803C215.665 110.18 215.4 110.582 215.165 111.029C214.631 110.009 213.919 109.191 212.994 108.54C213.908 107.898 214.62 107.082 215.159 106.06C215.688 107.074 216.4 107.89 217.33 108.546C216.814 108.909 216.366 109.322 215.973 109.806V109.803Z" fill="#343434"/>
</svg>
