<svg width="320" height="320" viewBox="0 0 320 320" fill="none" xmlns="http://www.w3.org/2000/svg">
<rect width="320" height="320" fill="white"/>
<path d="M282.843 150.693C275.181 139.385 264.553 129.64 250.583 126.984C235.126 124.046 218.697 123.644 204.408 118.026C195.553 114.544 187.996 109.226 179.467 105.242C144.463 88.8936 98.2072 96.8176 75.3776 129.445C70.4001 136.559 66.5512 144.687 59.9074 150.274C55.1613 154.264 49.2621 156.702 44.5542 160.738C37.2046 167.038 33.5184 176.502 30.106 185.565C22.6826 205.281 13.1767 233.424 31.9241 249.983C44.7042 261.272 44.9168 260.009 60.2205 268.99C76.5727 278.586 172.145 287.921 198.318 277.262C224.49 266.602 238.669 270.128 261.816 255.567C289.186 238.35 304.126 204.966 295.611 177.627C292.661 168.085 288.362 159.015 282.843 150.693Z" fill="#FAF7DE"/>
<g clip-path="url(#clip0_1332_3095)">
<path d="M191.707 71.5344C191.707 71.5344 186.479 72.3963 184.131 73.2729C181.782 74.1521 179.838 74.7751 178.388 75.8906C176.94 77.0086 176.604 77.0972 175.459 78.8555C174.315 80.6137 173.787 80.3773 173.636 82.7561C173.486 85.1349 173.323 85.5018 173.836 86.8759C174.349 88.25 174.258 89.5674 174.056 91.7468C173.853 93.9261 173.34 96.7087 173.486 98.2478C173.631 99.7869 173.54 101.801 174.056 103.466C174.571 105.131 175.395 106.633 176.219 107.933C177.046 109.233 179.503 110.991 180.329 111.329C181.156 111.669 182.512 111.769 182.512 111.769C182.512 111.769 182.421 115.219 182.145 116.064C181.869 116.906 181.429 117.51 180.971 117.933C180.512 118.354 180.694 118.556 180.64 118.738C180.586 118.921 180.694 119.396 180.235 119.507C179.777 119.618 179.355 119.6 178.768 120.039C178.18 120.477 176.915 120.462 175.943 120.755C174.971 121.046 158.773 125.003 158.773 125.003L156.945 125.333L154.298 114.143L153.252 111.772C153.252 111.772 153.38 109.987 153.728 108.943C154.076 107.898 155.196 105.059 154.976 104.217C154.757 103.375 154.298 103.227 153.674 101.434C153.05 99.6391 152.83 98.1025 152.132 98.0828C151.434 98.0656 151.288 98.3931 150.792 98.7797C150.297 99.1639 150.499 98.9078 149.618 98.9989C148.738 99.09 146.757 99.255 144.665 100.117C142.573 100.979 141.344 101.454 140.831 102.205C140.318 102.956 139.748 103.781 140.17 104.86C140.592 105.941 141.233 105.941 141.472 106.857C141.712 107.773 141.655 107.79 141.857 108.945C142.06 110.097 141.655 110.299 142.481 111.252C143.308 112.205 144.81 112.314 144.756 113.358C144.702 114.402 144.975 114.823 144.517 115.483C144.058 116.143 143.673 116.655 143.784 117.204C143.895 117.753 144.884 128.394 144.938 129.364C144.993 130.334 145.654 134.932 146.552 136.653C147.45 138.375 147.396 138.246 149.12 139.308C150.844 140.369 153.486 140.497 155.98 140.261C158.475 140.024 170.511 138.887 170.511 138.887L170.804 144.418C170.804 144.418 170.254 146.469 170.106 147.493C169.958 148.518 170.656 159.104 170.545 160.22C170.434 161.338 169.83 161.722 169.665 163.13C169.499 164.541 169.739 166.078 169.554 167.014C169.371 167.947 168.068 171.116 167.647 172.434C167.225 173.751 166.783 174.724 167.096 175.401C167.407 176.078 165.858 177.489 165.858 177.489L162.271 180.75L142.918 200.563L143.229 201.26L144.971 203.2C144.971 203.2 143.722 222.923 143.722 222.868C143.722 222.814 143.256 231.724 143.007 234.689C142.755 237.656 140.75 252.276 140.392 253.635C140.034 254.995 139.139 257.317 137.276 258.319C135.414 259.319 125.96 263.574 124.421 263.897C122.882 264.219 121.562 264.396 120.987 265.076C120.412 265.756 119.66 267.078 120.304 267.792C120.947 268.506 121.557 268.972 123.562 269.366C125.568 269.76 139.39 269.76 139.39 269.76C139.39 269.76 141.574 268.08 143.436 268.152C145.299 268.223 148.987 269.08 150.277 269.046C151.567 269.009 152.606 269.083 152.998 267.829C153.39 266.576 152.961 261.68 152.961 261.68C152.961 261.68 151.098 258.213 150.598 256.639C150.097 255.066 150.06 249.74 150.849 246.775C151.639 243.81 155.398 231.261 155.398 231.261C155.398 231.261 157.189 224.826 157.619 222.287C158.048 219.748 158.514 212.063 158.514 212.063C158.514 212.063 170.003 216.22 172.455 217.567C174.904 218.914 182.226 219.845 183.872 219.832C185.517 219.82 192.363 219.978 192.363 219.978L193.646 234.191L194.827 252.064L195.079 269.043C195.079 269.043 195.688 272.796 194.255 274.87C192.822 276.943 192.787 277.514 190.315 278.622C187.843 279.731 185.088 281.481 183.26 282.198C181.434 282.912 179.177 283.198 178.139 284.129C177.1 285.057 176.562 285.416 176.814 286.488C177.065 287.559 176.456 288.167 178.676 288.167H203.027C203.027 288.167 204.495 287.487 204.925 286.237C205.354 284.986 204.925 281.09 204.925 281.09L203.777 276.943C203.777 276.943 204.698 265.29 205.115 261.966C205.531 258.642 206.128 248.991 206.19 248.883C206.249 248.774 206.787 227.114 206.787 227.114L208.011 217.466L211.8 216.055L208.218 194.621L205.228 180.649L206.032 180.072L201.34 159.232C201.34 159.232 202.428 153.871 202.761 151.761C203.094 149.653 205.494 143.918 205.494 143.918L212.621 150.941L213.517 154.265L214.879 169.136L215.523 169.745L215.271 171.353C215.271 171.353 214.913 172.461 214.089 173.606C213.265 174.751 213.122 175.285 212.656 176.216C212.19 177.144 212.357 177.568 212.148 178.893C211.938 180.22 211.605 180.791 212.148 181.471C212.691 182.151 213.371 181.621 213.729 182.601C214.087 183.581 213.729 183.581 214.876 184.187C216.023 184.793 218.076 185.153 220.271 185.258C222.467 185.364 223.829 185.15 224.473 184.401C225.116 183.65 226.012 182.257 226.084 181.114C226.155 179.971 225.903 179.063 225.797 176.711C225.689 174.359 225.511 170.784 225.511 170.784L226.096 170.247L226.513 149.264C226.513 149.264 227.194 147.156 226.118 145.545C225.045 143.937 220.03 137.074 220.03 137.074L212.33 125.565C212.33 125.565 214.02 121.418 213.749 119.773C213.477 118.128 213.011 117.665 212.76 116.163C212.508 114.66 210.325 102.185 210.325 102.043C210.325 101.9 209.93 93.1061 209.93 93.1061C209.93 93.1061 209.93 89.0675 209.787 86.2775C209.644 83.4899 208.748 80.2714 207.818 79.0205C206.888 77.7695 205.85 76.1615 204.059 74.6963C202.268 73.2311 201.266 72.4086 198.974 72.1574C196.683 71.9062 192.518 71.495 192.518 71.495L191.689 71.5442L191.707 71.5344Z" fill="white"/>
<path d="M151.7 242.196C152.502 239.076 154.745 233.117 155.144 230.824C151.37 231.031 147.129 230.94 143.932 228.975C143.236 236.887 142.506 244.826 140.691 252.615C140.306 255.765 137.957 257.88 135.305 259.003C136.003 258.853 137.005 260.077 136.995 261.392C141.061 265.861 148.738 262.426 152.628 261.2C152.628 261.2 152.189 259.653 151.212 257.956C148.604 253.938 150.921 246.915 151.7 242.194V242.196Z" fill="#284A66"/>
<path d="M206.193 249.808C204.219 250.411 202.213 250.766 200.038 250.791C198.269 250.81 196.438 250.845 194.768 250.362C195.17 255.25 194.818 260.151 194.998 265.046C195.163 269.471 196.09 275.657 190.893 278.147C190.727 278.258 190.562 278.354 190.399 278.437C189.738 278.95 189.079 279.457 188.339 279.807C188.739 280.831 189.607 282.51 190.325 282.648C192.439 283.825 201.244 283.18 203.521 282.358C206.077 282.077 203.75 279.324 203.588 277.243C202.593 269.304 206.385 257.883 206.193 249.808Z" fill="#284A66"/>
<path d="M167.254 175.697L152.154 190.871L143.569 199.896L142.812 200.753C142.812 200.753 145.158 202.102 147.055 204.333C148.952 206.562 152.862 207.611 154.227 209.022C155.591 210.433 156.903 211.524 159.58 212.44C162.256 213.356 162.459 213.509 165.387 214.868C168.315 216.23 173.619 217.993 174.83 218.296C176.042 218.599 178.568 219.232 181.652 219.616C184.735 220 189.669 220.116 192.713 220.192C195.757 220.268 199.226 220.116 201.076 219.576C202.926 219.037 207.473 217.653 209.247 216.961C211.02 216.269 211.637 216.05 211.637 216.05L208.938 199.955C208.938 199.955 207.589 191.028 207.088 188.298C206.587 185.567 205.238 180.642 205.238 180.642C205.238 180.642 205.122 180.91 202.963 181.334C200.805 181.757 198.955 182.025 195.563 182.257C192.171 182.488 188.586 182.257 184.308 182.065C180.031 181.873 176.291 180.91 174.288 180.294C172.285 179.679 171.32 180.026 169.662 178.64C168.004 177.253 167.252 175.692 167.252 175.692L167.254 175.697Z" fill="#C1E4EA"/>
<path d="M211.566 212.354C211.41 211.768 210.954 211.561 210.362 211.706C210.128 211.763 209.903 211.866 209.669 211.918C208.86 212.1 208.063 212.398 207.217 212.292C206.647 209.658 206.178 207.065 206.003 204.388C207.004 204.149 207.942 203.927 208.879 203.703C209.484 203.558 210.036 203.297 209.854 202.558C209.686 201.878 209.109 201.864 208.526 201.992C207.653 202.181 206.782 202.373 205.796 202.588C205.611 199.677 205.006 196.921 204.737 194.119C205.569 193.895 206.296 193.693 207.024 193.506C207.629 193.351 208.184 193.085 208.013 192.361C207.843 191.629 207.241 191.696 206.62 191.78C205.889 191.878 205.228 192.339 204.417 192.218C204.217 190.866 204.01 189.561 203.829 188.251C203.57 186.372 203.346 184.488 203.077 182.612C202.993 182.031 202.69 181.536 202.006 181.634C201.372 181.725 201.224 182.228 201.303 182.799C201.515 184.38 201.733 185.958 201.95 187.539C202.179 189.201 202.413 190.864 202.663 192.656C199.517 192.858 196.478 193.289 193.315 193.023C193.315 192.622 193.315 192.297 193.315 191.972C193.31 189.167 193.308 186.365 193.301 183.56C193.301 183.289 193.308 183.011 193.256 182.75C193.162 182.294 192.881 181.969 192.393 181.974C191.907 181.979 191.625 182.301 191.537 182.762C191.492 182.996 191.507 183.242 191.51 183.483C191.527 186.318 191.551 189.15 191.561 191.984C191.561 192.299 191.677 192.651 191.342 192.967C188.051 192.474 184.666 192.477 181.284 191.876C181.518 190.408 181.731 189.076 181.95 187.741C182.224 186.076 182.518 184.414 182.564 182.725C182.582 182.117 182.305 181.612 181.629 181.637C181.013 181.659 180.793 182.139 180.783 182.72C180.751 184.473 180.406 186.187 180.12 187.911C179.922 189.086 179.74 190.263 179.542 191.474C176.353 190.873 173.407 189.957 170.521 188.566C170.721 188.103 170.893 187.692 171.071 187.286C171.915 185.352 172.721 183.405 173.36 181.393C173.563 180.76 173.476 180.196 172.778 180.011C172.109 179.834 171.841 180.309 171.653 180.893C170.896 183.272 169.926 185.567 168.856 187.867C167.141 187.305 165.715 186.355 164.149 185.488C164.432 185.148 164.657 184.872 164.891 184.604C166.275 183.008 167.706 181.449 168.917 179.713C169.302 179.159 169.615 178.531 168.868 178.076C168.185 177.657 167.807 178.159 167.432 178.711C166.053 180.73 164.368 182.496 162.733 184.36C162.027 183.747 161.571 183.048 161.146 182.316C161.09 182.22 161.028 182.134 160.956 182.063C160.525 182.444 160.095 182.831 159.681 183.23C159.797 183.523 159.957 183.808 160.14 184.065C160.557 184.648 161.021 185.197 161.504 185.811C159.706 187.788 158.026 189.824 156.356 191.977C155.586 191.162 155.078 190.369 154.76 189.443C154.629 189.063 154.38 188.8 154.014 188.78C153.691 189.132 153.38 189.477 153.06 189.81C153.065 189.854 153.07 189.901 153.08 189.945C153.163 190.322 153.341 190.681 153.506 191.034C153.906 191.878 154.523 192.585 155.11 193.343C153.679 195.207 152.28 197.035 150.837 198.918C149.947 197.877 149.147 196.939 148.348 196C148.156 195.774 147.948 195.567 147.724 195.469C147.489 195.661 147.255 195.853 147.023 196.05C146.897 196.217 146.772 196.385 146.648 196.552C146.72 196.769 146.863 196.98 147.031 197.18C147.906 198.217 148.782 199.253 149.749 200.401C148.807 201.63 148.067 202.947 146.944 203.981C146.821 204.095 146.71 204.215 146.624 204.338C146.942 204.548 147.24 204.789 147.531 205.053C147.704 205.208 147.85 205.351 147.985 205.476C148.064 205.405 148.141 205.326 148.215 205.245C148.676 204.728 149.14 204.21 149.567 203.664C150.097 202.984 150.59 202.277 151.16 201.497C153.926 204.013 157.125 205.71 160.268 207.52C160.142 207.786 160.081 207.956 159.989 208.109C159.306 209.254 158.887 210.517 158.366 211.733C158.349 211.775 158.332 211.82 158.317 211.861C158.83 212.157 159.363 212.42 159.901 212.667C159.943 212.598 159.98 212.526 160.017 212.45C160.244 211.958 160.409 211.44 160.609 210.936C160.971 210.022 161.398 209.143 161.941 208.315C166.342 210.502 170.864 212.073 175.539 213.268C175.539 213.479 175.558 213.63 175.536 213.772C175.294 215.245 175.06 216.72 174.794 218.188C175.358 218.424 175.926 218.665 176.506 218.867C176.535 218.712 176.565 218.56 176.592 218.404C176.858 216.836 177.125 215.27 177.401 213.637C182.078 214.474 186.711 215.265 191.44 215.422C191.593 216.25 191.658 217.02 191.658 217.804C191.658 218.611 191.653 219.421 191.687 220.229C192.287 220.172 192.886 220.195 193.486 220.234C193.476 219.803 193.431 219.372 193.429 218.941C193.419 217.779 193.426 216.619 193.426 215.42C197.509 215.324 201.535 214.671 205.561 214.459C205.791 215.57 206.003 216.567 206.205 217.565C206.23 217.69 206.267 217.804 206.309 217.912C206.881 217.764 207.453 217.621 208.023 217.469C208.018 217.395 208.008 217.318 207.999 217.242C207.949 216.917 207.811 216.607 207.742 216.284C207.594 215.592 207.315 214.908 207.547 214.211C208.684 213.952 209.78 213.728 210.86 213.45C211.386 213.314 211.714 212.923 211.566 212.364V212.354ZM169.796 190.226C172.845 191.625 175.968 192.595 179.286 193.257C178.847 196.202 178.432 198.99 178.018 201.77C173.891 201.265 170.153 199.842 166.352 198.207C167.496 195.555 168.621 192.942 169.793 190.226H169.796ZM162.614 187.207C162.868 186.924 163.085 186.938 163.399 187.108C164.928 187.943 166.411 188.871 168.16 189.541C167.01 192.211 165.885 194.816 164.701 197.562C162.227 196.225 159.711 195.153 157.614 193.265C159.227 191.112 160.89 189.135 162.614 187.204V187.207ZM161.006 205.85C157.893 204.176 154.871 202.474 152.211 200.051C153.593 198.236 154.959 196.444 156.375 194.584C158.623 196.562 161.285 197.719 163.902 199.16C162.937 201.391 161.995 203.565 161.006 205.853V205.85ZM175.985 211.519C171.347 210.406 166.931 208.813 162.595 206.651C163.586 204.363 164.548 202.142 165.555 199.812C169.561 201.504 173.466 202.994 177.707 203.523C177.206 206.274 176.659 208.823 175.983 211.522L175.985 211.519ZM191.428 213.612C186.778 213.526 182.335 212.706 177.779 211.896C178.346 209.244 178.896 206.671 179.463 204.013C183.413 204.838 187.39 205.24 191.426 205.523V213.612H191.428ZM191.482 203.454C191.48 203.506 191.428 203.555 191.349 203.701C187.513 203.521 183.67 203.08 179.757 202.245C180.181 199.372 180.593 196.562 181.02 193.671C183.211 194.018 185.342 194.114 187.466 194.314C188.608 194.419 189.748 194.533 190.888 194.648C191.253 194.685 191.606 194.71 191.601 195.242C191.566 197.98 191.672 200.719 191.482 203.454ZM193.352 194.806C196.535 194.806 199.692 194.806 202.924 194.353C203.334 197.242 203.859 200.007 204.039 202.955C200.482 203.366 196.996 203.834 193.355 203.804V194.806H193.352ZM193.315 213.607V205.481C196.969 205.612 200.521 205.122 204.182 204.742C204.545 207.377 204.841 209.99 205.487 212.647C201.35 212.95 197.391 213.568 193.315 213.607Z" fill="white"/>
<path d="M223.787 144.828L210.9 127.596C210.9 127.596 208.586 123.653 208.107 122.936C207.629 122.22 205.993 120.939 204.597 119.767C203.2 118.595 202.401 118.039 201.565 116.645C200.726 115.251 200.168 113.966 200.168 113.966L199.206 111.779L197.938 112.131C197.938 112.131 191.036 115.81 188.759 117.428C187.34 118.435 184.797 120.728 182.752 122.678C180.961 125.571 179.219 128.477 177.312 131.297C175.573 133.87 174.051 136.576 172.855 139.44C172.647 140.484 172.107 141.484 171.73 142.469C171.283 143.639 170.802 144.794 170.264 145.927C170.114 146.244 169.961 146.559 169.805 146.875C169.874 147.586 169.894 148.305 169.961 149.024C170.082 150.31 170.351 151.576 170.449 152.863C170.639 155.304 170.75 157.88 170.686 160.325C170.624 162.645 169.435 164.6 169.25 166.9C169.075 169.074 168.197 171.635 167.07 173.507C166.971 173.884 166.843 174.248 166.697 174.612C167.516 176.124 168.51 177.599 169.739 178.806C171.091 179.19 172.408 179.675 173.765 180.05C175.423 180.505 177.14 180.724 178.839 180.961C182.088 181.411 185.322 181.852 188.586 182.177C193.68 182.685 199.3 183.084 204.158 181.109L202.7 173.206L199.695 160.455C199.695 160.455 201.996 148.268 202.512 146.909C203.028 145.55 203.556 144.831 203.556 144.831C203.556 144.831 210.098 150.657 210.855 151.654C211.613 152.649 211.652 152.691 211.812 154.641C211.973 156.594 213.487 170.254 213.487 170.254C213.487 170.254 213.766 170.83 215.641 171.438C217.516 172.047 220.109 172.367 221.547 172.167C222.983 171.968 224.221 171.529 224.46 171.091C224.7 170.653 224.9 163.603 224.9 163.603V147.798L223.782 144.831L223.787 144.828Z" fill="#8FCFD7"/>
<path d="M170.674 136.956C171.229 134.675 172.494 132.626 173.503 130.528C174.021 129.45 174.492 128.28 175.191 127.298C175.247 127.142 175.289 127.039 175.321 126.975C175.282 126.847 175.247 126.716 175.225 126.583C175.129 126.086 175.124 125.559 175.24 125.062C175.462 124.113 176.126 123.426 176.683 122.666C177.075 122.129 177.421 121.562 177.769 120.996L157.725 125.798C157.725 125.798 157.727 125.808 157.73 125.813C157.722 125.813 157.717 125.813 157.707 125.813C157.601 125.822 157.387 125.867 157.283 125.818C157.369 125.83 157.374 125.832 157.3 125.818C157.256 125.813 157.214 125.805 157.17 125.8C157.138 125.793 157.083 125.781 157.059 125.776C157.022 125.628 156.985 125.478 156.948 125.33C156.232 122.39 155.635 119.425 154.979 116.47C154.883 116.036 154.787 115.605 154.693 115.172C154.599 114.746 154.537 114.29 154.135 114.034C153.642 113.722 153.178 113.975 152.727 114.214C152.408 114.382 152.105 114.552 151.816 114.756C151.641 114.744 151.461 114.763 151.286 114.795C150.99 114.852 150.699 114.931 150.408 115.012C150.159 115.081 149.961 115.16 149.769 115.288C149.179 115.28 148.587 115.271 147.998 115.261C147.403 115.251 146.808 115.234 146.214 115.209C145.639 115.184 144.919 115.12 144.408 115.436C144.327 115.485 144.267 115.564 144.235 115.647C144.186 115.64 144.134 115.633 144.087 115.625C144.386 117.346 144.354 119.156 144.455 120.878C144.601 123.298 144.835 125.707 145.052 128.12C145.232 130.12 145.363 132.104 145.61 134.089C145.869 134.855 146.132 135.621 146.399 136.387C147.119 137.113 147.729 137.955 148.464 138.667C149.093 138.898 149.68 139.219 150.307 139.485C151.283 139.898 152.302 139.913 153.346 139.965C155.384 140.063 157.419 140.115 159.461 140.046C163.14 139.92 166.81 139.379 170.424 138.665C170.454 138.096 170.533 137.522 170.674 136.946V136.956Z" fill="#8FCFD7"/>
<path d="M179.782 119.248L176.698 122.816L175.067 125.599C175.067 125.599 174.717 125.971 175.494 126.244C176.271 126.517 177.852 126.862 178.578 127.116C179.305 127.369 179.656 127.621 179.883 127.219C180.107 126.818 181.489 124.341 181.489 124.341L179.784 119.246L179.782 119.248Z" fill="#F7F091"/>
<path d="M205.569 118.753C207.256 120.213 209.373 121.297 210.747 123.095L211.43 119.536C210.688 114.249 209.262 111.058 208.43 103.818C208.307 100.659 207.994 97.083 207.986 95.3174C207.994 92.6751 208.139 83.4628 206.859 80.919C206.19 79.2815 205.541 77.831 203.479 75.7847C201.417 73.7359 202.211 73.9304 199.431 72.9528C192.22 71.2143 193.416 71.0961 186.795 72.219C183.529 72.5145 176.819 76.0383 175.46 78.8604C174.631 80.0842 174.012 79.9611 173.755 82.3128C173.498 84.667 173.74 87.1492 173.74 87.1492L174.317 87.5432L175.573 84.7926C176.261 83.8593 179.888 78.3432 181.516 77.7473C180.902 83.8248 184.286 87.9126 190.291 88.1416C191.258 89.4738 194.934 89.986 195.938 90.1609C196.234 92.1284 199.838 96.721 200.886 97.7282C200.886 97.7282 201.454 97.6839 201.955 97.7774C202.371 97.8538 202.515 97.6346 202.941 97.9695C203.832 97.5878 204.759 97.6986 205.47 98.6689C207.858 102.318 200.418 104.158 198.079 105.323C198.311 106.101 198.358 106.958 198.491 107.743C199.981 108.098 200.075 109.913 200.506 111.114C202.998 110.615 203.464 117.177 205.569 118.751V118.753Z" fill="#DCE5EC"/>
<path d="M212.034 214.599C211.975 213.966 211.913 213.311 211.83 212.671C211.6 210.91 211.272 209.14 210.954 207.426C210.687 205.98 210.409 204.486 210.194 203.008C208.956 194.549 207.621 187.544 205.995 180.971C206.471 180.631 206.474 180.163 206.291 179.242C206.183 178.683 206.079 178.122 205.976 177.563C205.783 176.512 205.583 175.428 205.339 174.369C205.092 173.303 204.841 172.237 204.587 171.173C203.896 168.265 203.181 165.255 202.628 162.266C202.571 161.953 202.497 161.643 202.428 161.342C202.194 160.338 201.972 159.387 202.223 158.269C202.549 156.831 202.833 155.361 203.106 153.938C203.605 151.35 204.118 148.673 204.912 146.104C204.967 145.925 205.036 145.688 205.06 145.449C205.097 145.107 204.937 144.856 204.631 144.777C204.572 144.762 204.513 144.755 204.456 144.755C204.217 144.755 204.019 144.893 203.913 145.129C203.775 145.439 203.647 145.769 203.533 146.112C202.722 148.535 202.231 151.071 201.757 153.524C201.565 154.519 201.365 155.548 201.143 156.577C200.884 157.779 200.615 159.023 200.844 160.19C200.96 160.778 201.076 161.365 201.19 161.953C201.888 165.514 202.611 169.198 203.558 172.768C203.935 174.189 204.204 175.664 204.463 177.09C204.631 178.016 204.806 178.972 205.011 179.915C203.131 180.634 198.705 181.609 196.774 181.609H196.737C196.495 181.609 196.253 181.609 196.009 181.609C195.079 181.609 194.132 181.619 193.217 181.629C192.301 181.638 191.356 181.648 190.424 181.648C188.221 181.648 185.611 181.599 182.957 181.227L182.179 181.119C178.896 180.663 175.499 180.193 172.28 179.112C170.232 178.425 168.717 177.157 167.649 175.236C167.629 175.199 167.61 175.16 167.587 175.12C167.464 174.884 167.311 174.591 167 174.591C166.904 174.591 166.805 174.618 166.694 174.677C166.201 174.933 166.371 175.389 166.497 175.719L166.524 175.792C166.556 175.881 166.601 175.965 166.643 176.044C167.454 177.543 168.5 178.676 169.813 179.474C168.925 181.131 167.834 182.67 166.786 184.229C165.55 186.071 164.302 187.906 163.046 189.733C160.535 193.387 158.018 197.039 155.45 200.654C154.074 202.592 152.68 204.515 151.288 206.446C150.519 205.946 149.747 205.454 148.987 204.966C148.538 204.68 148.091 204.395 147.645 204.107C146.179 203.166 144.869 202.038 143.646 200.659C143.954 200.524 144.152 200.314 144.344 200.112C144.383 200.073 144.42 200.031 144.46 199.992C146.174 198.248 147.847 196.416 149.468 194.643C151.488 192.429 153.578 190.142 155.761 188.011C156.536 187.255 157.315 186.502 158.095 185.748C160.668 183.261 163.33 180.688 165.821 178.028C165.848 177.999 165.878 177.969 165.908 177.94C165.957 177.891 166.009 177.841 166.053 177.787C166.162 177.657 166.495 177.26 166.122 176.883C166.001 176.763 165.866 176.701 165.715 176.701C165.557 176.701 165.385 176.77 165.204 176.91C164.99 177.075 164.797 177.265 164.61 177.452C163.983 178.075 163.362 178.703 162.74 179.334C161.44 180.653 160.095 182.015 158.709 183.288C155.028 186.672 151.577 190.383 148.239 193.973C146.621 195.714 144.948 197.512 143.271 199.25C143.15 199.376 143.081 199.543 143.022 199.689C142.95 199.864 142.891 200.016 142.765 200.058C142.449 200.164 142.269 200.304 142.213 200.484C142.131 200.745 142.331 201.004 142.526 201.262C143.041 201.939 143.619 202.575 144.263 203.181C144.263 203.208 144.263 203.235 144.263 203.259C144.233 203.88 144.208 204.498 144.184 205.119C144.144 206.116 144.105 207.145 144.038 208.157L143.939 209.65C143.392 217.852 142.822 226.333 142.222 234.674C142.126 236.026 141.961 237.395 141.803 238.72C141.682 239.729 141.559 240.773 141.463 241.803C141.287 243.716 140.935 245.637 140.592 247.494C140.323 248.954 140.047 250.463 139.857 251.963C139.529 254.554 138.233 256.398 135.779 257.765C133.739 258.902 131.506 260.025 128.748 261.306C128.427 261.456 128.107 261.606 127.786 261.759C126.049 262.584 124.253 263.438 122.302 263.756C121.248 263.928 120.496 264.487 119.936 265.514C119.502 266.312 119.376 266.984 119.554 267.568C119.734 268.162 120.225 268.659 121.056 269.095C122.541 269.873 124.155 269.957 125.714 270.038L125.798 270.043C125.943 270.05 126.089 270.058 126.234 270.063C128.065 270.139 129.927 270.1 131.726 270.063C133.522 270.026 135.379 269.986 137.205 270.063C137.38 270.07 137.555 270.077 137.728 270.087L137.9 270.095C138.756 270.129 139.758 270.095 140.695 269.578C141.625 269.063 142.662 268.826 143.774 268.873C144.176 268.89 144.598 268.945 145.027 269.033C145.321 269.095 145.614 269.159 145.908 269.223C147.211 269.506 148.558 269.799 149.924 269.856C150.122 269.863 150.319 269.868 150.516 269.866C151.219 269.858 151.94 269.757 152.438 269.083C152.544 268.94 152.65 268.886 152.811 268.89H152.838C153.412 268.915 153.593 268.482 153.684 268.102C154.641 264.108 154.34 261.138 152.702 258.476C151.772 256.964 151.316 255.278 151.345 253.463C151.417 248.939 152.228 244.201 153.824 238.978C154.019 238.343 154.214 237.708 154.412 237.07C155.988 231.953 157.616 226.661 158.512 221.263C158.896 218.948 158.933 216.582 158.968 214.294C158.975 213.895 158.98 213.496 158.988 213.097C158.988 213.033 158.99 212.927 158.975 212.814C163.502 214.892 169.073 217.247 174.902 218.911C176.483 219.362 178.326 219.864 180.191 220.086C184.313 220.578 188.423 220.731 191.867 220.78C191.879 220.847 191.892 220.908 191.897 220.955C191.926 221.251 191.956 221.544 191.983 221.839C192.094 222.972 192.203 224.107 192.306 225.24C192.513 227.508 192.708 229.778 192.886 232.049C193.244 236.59 193.537 241.135 193.762 245.686C193.986 250.234 194.137 254.788 194.208 259.343C194.25 262.008 194.265 264.672 194.248 267.337C194.23 270.122 194.127 273.089 192.541 275.377C191.374 277.061 189.546 278.154 187.733 279.11C185.421 280.326 183.035 281.405 180.593 282.336C179.236 282.853 177.801 283.365 176.846 284.456C175.891 285.547 175.664 287.426 176.782 288.352C177.487 288.935 178.479 288.975 179.394 288.987C186.159 289.078 192.923 289.172 199.685 289.263C201.138 289.283 202.685 289.278 203.908 288.492C205.504 287.468 206.087 285.372 205.968 283.483C205.85 281.595 205.171 279.787 204.806 277.928C203.856 273.106 205.021 268.159 205.749 263.301C207.998 248.291 206.082 232.859 208.595 217.899C209.345 217.653 210.11 217.392 210.904 217.118C210.949 217.104 210.996 217.089 211.043 217.072C211.546 216.907 212.232 216.683 212.138 215.808C212.094 215.405 212.057 215.001 212.02 214.594L212.034 214.599ZM152.625 262.537C152.825 264.15 152.719 265.716 152.297 267.317C152.238 267.524 150.987 268.341 150.649 268.331C150.558 268.331 150.467 268.327 150.376 268.322C149.041 268.267 147.672 268.073 146.189 267.731C145.321 267.529 144.556 267.418 143.848 267.388C142.425 267.329 141.196 267.603 140.089 268.223C139.538 268.533 138.895 268.661 138.063 268.627C137.977 268.625 137.89 268.617 137.804 268.612C137.429 268.585 137.037 268.563 136.637 268.546C134.829 268.472 132.991 268.524 131.215 268.573C129.444 268.622 127.611 268.674 125.81 268.6C125.445 268.585 125.087 268.565 124.744 268.541C123.58 268.457 122.551 268.174 121.599 267.676C120.915 267.319 120.844 267.083 121.207 266.344C121.532 265.677 122.003 265.325 122.736 265.204C124.855 264.854 126.792 263.933 128.667 263.042L128.995 262.887C131.336 261.774 133.282 260.826 135.11 259.905C135.564 260.414 135.929 261.025 136.255 261.825C136.519 262.476 136.973 262.924 137.641 263.197C138.779 263.663 139.832 263.961 140.868 264.113C141.551 264.214 142.247 264.278 142.938 264.305C146.007 264.433 149.127 263.867 152.475 262.577C152.519 262.559 152.569 262.549 152.625 262.537ZM157.685 213.095L157.638 213.994C157.596 214.769 157.554 215.572 157.527 216.362C157.374 220.554 156.422 224.585 155.386 228.626C154.915 230.468 154.305 232.278 153.726 234.088C153.129 235.947 152.512 237.87 152.001 239.788C150.948 243.751 149.867 248.464 149.843 253.386C149.838 254.475 149.855 255.531 150.114 256.511C150.237 256.982 150.497 257.459 150.748 257.92C150.864 258.132 150.983 258.351 151.086 258.568L152.3 261.084C150.805 261.651 148.858 262.32 146.836 262.609C145.331 262.823 144.008 262.902 142.79 262.852C141.199 262.786 139.773 262.503 138.431 261.983C137.952 261.798 137.663 261.53 137.496 261.114C137.244 260.491 136.869 259.883 136.321 259.213C137.081 258.755 137.77 258.326 138.416 257.809C140.155 256.418 141.125 254.497 141.374 251.941C141.47 250.958 141.685 249.976 141.894 249.025C142.055 248.294 142.22 247.538 142.331 246.784C142.706 244.248 143.036 241.537 143.37 238.252C143.74 234.607 143.996 230.891 144.243 227.299C144.504 223.501 144.677 219.687 145.008 215.895C145.099 214.358 145.188 212.824 145.284 211.29C145.424 209.054 145.55 206.67 145.558 204.274C146.007 204.621 146.478 204.961 146.984 205.289C147.561 205.665 148.143 206.037 148.723 206.411C150.839 207.771 153.028 209.177 155.065 210.731C155.628 211.159 156.24 211.531 156.886 211.836C157.236 212.001 157.596 212.169 157.961 212.339C157.717 212.533 157.698 212.905 157.688 213.095H157.685ZM160.998 212.23C159.301 211.573 157.517 210.807 155.988 209.667C154.888 208.847 153.75 208.061 152.603 207.3C155.174 203.799 157.678 200.245 160.155 196.68C162.693 193.023 165.185 189.334 167.627 185.611C168.3 184.586 168.974 183.559 169.613 182.513C170.106 181.705 170.548 180.892 170.861 180.011C171.078 180.104 171.298 180.193 171.527 180.274C172.857 180.737 174.283 181.134 175.849 181.471C175.558 182.35 175.348 183.269 175.122 184.16C174.835 185.288 174.547 186.413 174.251 187.539C173.666 189.772 173.074 192.001 172.462 194.227C171.234 198.696 169.941 203.149 168.574 207.576C167.859 209.898 167.111 212.208 166.366 214.521C165.676 214.23 164.99 213.93 164.316 213.632C163.236 213.154 162.118 212.661 160.996 212.228L160.998 212.23ZM179.843 218.623C176.772 218.172 173.797 217.16 170.918 216.18C170.311 215.973 169.704 215.767 169.097 215.565C168.698 215.432 168.298 215.289 167.901 215.139C169.337 210.851 170.654 206.522 171.915 202.181C173.212 197.714 174.421 193.215 175.514 188.694C175.817 187.438 176.116 186.179 176.407 184.919C176.651 183.867 176.92 182.796 177.07 181.72C177.167 181.737 177.263 181.757 177.362 181.776C180.344 182.323 183.332 182.7 186.294 182.904C186.171 183.793 186.151 184.712 186.08 185.596C185.981 186.817 185.924 188.043 185.853 189.267C185.71 191.695 185.571 194.126 185.441 196.554C185.179 201.393 184.913 206.232 184.646 211.068C184.498 213.75 184.345 216.429 184.192 219.111C182.693 218.99 181.237 218.827 179.841 218.623H179.843ZM185.821 219.226C186.099 214.38 186.371 209.534 186.627 204.688C186.884 199.851 187.113 195.01 187.301 190.171C187.353 188.817 187.427 187.46 187.454 186.103C187.469 185.426 187.474 184.746 187.481 184.069C187.486 183.7 187.491 183.335 187.481 182.971C188.833 183.045 190.18 183.084 191.517 183.084C193.305 183.084 195.104 183.017 196.89 182.889C196.897 183.254 196.924 183.618 196.949 183.98C196.988 184.581 197.023 185.182 197.075 185.78C197.178 186.982 197.282 188.181 197.383 189.383C197.588 191.767 197.805 194.148 198.017 196.532C198.442 201.316 198.861 206.104 199.28 210.888C199.512 213.553 199.739 216.22 199.981 218.884C198.525 219.175 197.109 219.345 195.75 219.386C194.867 219.414 193.929 219.426 192.972 219.426C191.334 219.426 189.6 219.389 187.511 219.308C186.941 219.285 186.378 219.256 185.818 219.224L185.821 219.226ZM207.059 219.133C206.97 219.687 206.886 220.241 206.807 220.797C206.651 221.908 206.518 223.021 206.402 224.139C206.173 226.373 206.02 228.613 205.911 230.857C205.694 235.353 205.652 239.855 205.568 244.354C205.568 248.804 205.329 253.293 204.89 257.718C204.764 258.976 204.616 260.235 204.439 261.488C203.568 267.644 202.014 273.966 203.612 279.974C203.967 281.311 204.481 282.629 204.52 284.01C204.56 285.392 203.995 286.909 202.746 287.51C202.028 287.854 201.197 287.852 200.4 287.84C193.318 287.741 186.233 287.645 179.15 287.547C178.849 287.542 178.536 287.537 178.264 287.404C177.5 287.029 177.529 285.84 178.102 285.21C178.671 284.579 179.55 284.35 180.366 284.106C182.892 283.353 185.293 282.186 187.441 280.666C187.728 280.464 188.063 280.245 188.399 280.339C188.951 280.494 188.954 281.25 189.089 281.806C189.469 283.348 191.416 283.811 193.004 283.88C196.515 284.03 200.047 283.685 203.462 282.858C203.763 282.784 204.108 282.666 204.199 282.37C204.377 281.794 203.484 281.553 202.887 281.627C200.612 281.91 198.338 282.191 196.063 282.474C194.721 282.641 193.325 282.801 192.047 282.363C190.769 281.925 189.657 280.688 189.829 279.351C192.101 278.814 193.811 276.835 194.64 274.658C195.469 272.478 195.555 270.1 195.602 267.77C195.925 252.084 194.904 236.393 193.18 220.797C193.471 220.797 193.757 220.802 194.036 220.802H194.166C196.194 220.802 198.256 220.586 200.469 220.14C202.685 219.694 204.846 219.101 207.152 218.372C207.103 218.719 207.063 219.061 207.054 219.133H207.059ZM205.44 217.426C204.653 217.643 203.839 217.867 203.047 218.108C202.559 218.259 202.075 218.389 201.594 218.515C201.204 213.868 200.768 209.224 200.339 204.582C199.892 199.777 199.436 194.971 198.932 190.171C198.792 188.819 198.649 187.47 198.506 186.118C198.437 185.46 198.353 184.805 198.271 184.148C198.215 183.7 198.168 183.242 198.091 182.793C198.683 182.742 199.275 182.683 199.862 182.616C201.592 182.422 203.289 181.917 204.809 181.451C204.836 181.579 204.863 181.712 204.893 181.838C205.892 186.241 206.755 190.577 207.458 194.729C207.823 196.884 208.171 199.081 208.504 201.206C209.027 204.53 209.57 207.97 210.199 211.336C210.448 212.671 210.611 214.146 210.682 215.725C208.965 216.459 207.172 216.951 205.44 217.429V217.426Z" fill="#343434"/>
<path d="M159.067 125.587H159.081L159.301 125.537C159.456 125.5 159.622 125.461 159.789 125.429C162.017 124.991 164.25 124.429 166.411 123.883C167.958 123.493 169.556 123.09 171.14 122.737C172.489 122.437 173.846 122.077 175.159 121.733C175.756 121.575 176.362 121.415 176.972 121.26C176.084 122.38 175.284 123.587 174.581 124.875C174.339 125.318 174.32 125.803 174.527 126.202C174.727 126.586 175.119 126.84 175.6 126.894C176.567 127.005 177.472 127.283 178.432 127.576L178.578 127.621C178.578 127.621 178.57 127.635 178.568 127.643C178.521 127.734 178.479 127.818 178.425 127.891C176.69 130.329 175.373 133.046 174.098 135.673C173.908 136.065 173.718 136.454 173.528 136.845C172.107 139.746 170.925 142.78 170.012 145.858C169.946 146.085 169.79 146.612 170.328 146.826C170.417 146.86 170.503 146.88 170.587 146.88C170.925 146.88 171.125 146.587 171.243 146.365C171.466 145.957 171.584 145.513 171.697 145.082C171.759 144.846 171.826 144.6 171.905 144.368C173.412 140.037 175.418 135.68 178.04 131.053C181.363 125.185 185.211 120.829 189.8 117.736C191.845 116.357 194.028 115.136 196.137 113.956C197.529 113.178 198.964 112.375 200.351 111.531L200.647 112.203C200.911 112.804 201.172 113.4 201.441 113.993C201.555 114.242 201.745 114.574 202.1 114.574C202.189 114.574 202.285 114.552 202.386 114.508C202.786 114.333 202.877 113.983 202.66 113.466C202.571 113.254 202.47 113.042 202.374 112.838C202.204 112.481 202.028 112.114 201.915 111.737C201.629 110.784 201.091 110.321 200.272 110.321C200.223 110.321 200.173 110.321 200.124 110.326C200.06 110.119 199.996 109.913 199.932 109.711C199.769 109.191 199.611 108.689 199.46 108.184C199.258 107.497 198.841 107.354 198.525 107.354C198.466 107.354 198.402 107.361 198.338 107.371C198.136 106.985 198.032 106.571 197.956 106.15C197.62 106.401 197.262 106.618 196.882 106.788C196.947 107.123 197.045 107.448 197.198 107.758C196.939 107.861 196.685 107.972 196.441 108.09C193.051 109.706 189.726 111.577 186.923 113.195L186.701 113.323C185.315 114.124 183.899 114.941 182.599 115.931C182.892 115.091 183.063 114.229 183.109 113.353C183.095 113.07 183.097 112.821 183.065 112.577C183.026 112.269 182.897 111.984 182.54 111.979C182.179 111.976 182.022 112.264 182.012 112.57C181.96 114.05 181.664 115.461 180.909 116.758C180.793 116.958 180.813 117.177 180.963 117.352C180.825 117.49 180.689 117.63 180.556 117.775C180.213 118.15 180.181 118.423 180.339 118.696C180.282 118.669 180.221 118.645 180.152 118.627C180.05 118.6 179.952 118.586 179.858 118.586C179.416 118.586 179.115 118.886 178.849 119.152C178.731 119.27 178.615 119.393 178.499 119.514C178.477 119.514 178.454 119.509 178.432 119.509C178.368 119.509 178.299 119.514 178.23 119.526L178.193 119.531C177.806 119.593 177.406 119.654 177.026 119.777C175.109 120.396 173.113 120.849 171.184 121.287C169.494 121.671 167.748 122.068 166.058 122.575C164.869 122.932 163.633 123.2 162.437 123.461C161.257 123.72 160.036 123.986 158.852 124.338C158.576 124.419 158.161 124.542 158.223 125.02C158.29 125.542 158.78 125.567 159.074 125.584L159.067 125.587ZM178.161 122.809C178.003 123.415 177.88 124.028 177.796 124.648C177.751 124.976 177.714 125.303 177.687 125.633C177.68 125.72 177.672 125.806 177.665 125.892C177.085 125.742 176.478 125.668 175.854 125.591L175.76 125.579C176.607 124.008 177.554 122.604 178.632 121.321C178.442 121.807 178.292 122.306 178.161 122.809ZM198.182 108.674L198.898 111.004C193.532 113.784 188.364 116.625 184.084 120.758C183.489 120.28 183.021 119.728 182.525 119.145C182.229 118.795 181.923 118.435 181.587 118.093C186.242 114.811 191.522 111.811 198.182 108.672V108.674ZM181.647 120.186C182.071 120.691 182.51 121.213 183.033 121.666L181.758 123.198L180.956 119.726C180.919 119.568 180.882 119.403 180.82 119.248C181.109 119.551 181.383 119.874 181.647 120.189V120.186ZM179.162 125.744C179.17 125.446 179.187 125.151 179.212 124.855C179.259 124.286 179.33 123.722 179.439 123.161C179.55 122.575 179.712 122.004 179.858 121.425C179.88 121.334 179.905 121.243 179.93 121.154C179.991 121.445 180.048 121.735 180.102 122.021C180.258 122.843 180.418 123.693 180.754 124.518L179.278 126.628C179.231 126.594 179.185 126.562 179.135 126.53C179.172 126.271 179.152 126.005 179.16 125.744H179.162Z" fill="#343434"/>
<path d="M226.713 169.016L226.72 168.88C226.782 167.885 226.861 166.873 226.937 165.896C227.144 163.248 227.359 160.508 227.226 157.786C227.09 155.038 227.083 152.049 227.203 148.648C227.273 146.727 226.725 145.001 225.487 143.221C224.571 141.906 223.582 140.613 222.625 139.362C221.539 137.944 220.414 136.473 219.396 134.969C218.579 133.762 217.693 132.575 216.84 131.428C215.7 129.896 214.521 128.313 213.487 126.668C212.999 125.887 212.434 125.136 211.886 124.412C211.719 124.188 211.551 123.966 211.383 123.742C211.225 123.53 211.01 123.289 210.722 123.289C210.596 123.289 210.473 123.336 210.352 123.432C209.935 123.759 210.209 124.173 210.391 124.446C210.84 125.124 211.287 125.818 211.719 126.49C212.681 127.983 213.672 129.524 214.738 130.98C215.189 131.595 215.641 132.208 216.095 132.821C217.481 134.7 218.917 136.641 220.249 138.608C220.871 139.527 221.574 140.408 222.25 141.261C222.946 142.135 223.666 143.038 224.297 143.982C225.094 145.169 225.827 146.493 225.81 148.141C225.775 151.652 225.75 155.814 225.847 160.035C225.908 162.795 225.61 165.607 225.319 168.329L225.267 168.814C225.252 168.959 225.272 169.112 225.294 169.259C225.341 169.599 225.383 169.892 225.025 170.077C224.65 170.269 224.204 170.404 223.622 170.498C223.518 170.515 223.412 170.518 223.301 170.52H223.177C222.896 170.535 222.617 170.54 222.346 170.54C220.338 170.54 218.564 170.232 216.921 169.602L216.697 169.515C215.88 169.21 215.606 169.107 215.636 167.979C215.641 167.834 215.626 167.671 215.592 167.501C215.199 165.465 215.009 163.369 214.827 161.34C214.718 160.131 214.605 158.877 214.449 157.651C214.383 157.129 214.353 156.592 214.321 156.075C214.277 155.287 214.227 154.472 214.057 153.679L214.052 153.654C213.988 153.356 213.902 152.95 213.465 152.95C213.428 152.95 213.389 152.953 213.347 152.96C212.991 153.017 212.821 153.297 212.843 153.795L212.856 154.093C212.898 155.043 212.94 156.028 213.016 156.994C213.352 161.145 213.833 165.332 214.259 168.875C214.311 169.314 214.437 169.767 214.997 170.124C215.145 170.217 215.298 170.308 215.453 170.395C215.409 170.385 215.362 170.377 215.313 170.377C215.17 170.377 215.029 170.429 214.918 170.525C214.701 170.712 214.588 171.269 214.588 171.722C214.588 171.727 214.588 171.734 214.588 171.742L214.531 171.678L214.422 171.835C213.749 172.813 213.142 173.694 212.557 174.601C212.101 175.307 211.598 176.147 211.415 177.171C211.304 177.79 211.309 178.408 211.314 179.008C211.319 179.533 211.321 180.072 211.247 180.599C211.134 181.405 211.506 182.02 212.298 182.328C212.821 182.532 213.144 182.929 213.416 183.328C214.148 184.404 215.054 185.064 216.181 185.345C217.775 185.739 219.484 186.105 221.209 186.105C221.626 186.105 222.04 186.083 222.44 186.041C222.62 186.022 222.807 186.017 223.005 186.012C223.661 185.995 224.406 185.977 224.897 185.33C226.236 183.567 226.831 181.904 226.824 179.917C226.552 178.105 226.387 176.002 226.259 174.184C226.244 173.965 226.217 173.645 226.005 173.473C226.177 173.194 226.165 172.781 226.125 172.03C226.118 171.87 226.108 171.695 226.098 171.5C226.096 171.424 226.066 171.353 226.042 171.291C225.995 171.17 225.987 171.131 226.029 171.087C226.609 170.491 226.653 169.744 226.695 169.023L226.713 169.016ZM218.628 171.503C219.938 171.791 221.11 171.931 222.215 171.931C223.123 171.931 223.974 171.84 224.813 171.65C224.919 172.712 224.882 172.719 223.868 172.975C223.022 173.187 222.151 173.295 221.275 173.295C220.017 173.295 218.7 173.071 217.355 172.631C216.541 172.362 215.772 172.111 215.885 170.998C215.902 170.828 215.853 170.67 215.749 170.555C215.737 170.542 215.727 170.53 215.715 170.52C216.532 170.934 217.479 171.254 218.628 171.508V171.503ZM224.712 182.889C224.616 183.045 224.529 183.214 224.448 183.377C224.159 183.946 223.888 184.483 223.133 184.559C222.605 184.613 222.06 184.64 221.515 184.64C220.012 184.64 218.451 184.438 216.739 184.027C215.066 183.623 214.361 182.611 214.583 180.932C214.647 180.439 214.694 179.939 214.736 179.454L214.775 179.028C214.834 178.398 214.61 178.006 214.161 177.95C214.129 177.945 214.097 177.945 214.067 177.945C213.571 177.945 213.502 178.44 213.455 178.77L213.443 178.858C213.413 179.045 213.401 179.235 213.386 179.42C213.354 179.843 213.324 180.242 213.137 180.612C213.093 180.7 213.083 180.801 213.073 180.892C213.051 181.102 213.031 181.102 212.952 181.102C212.952 181.102 212.93 181.102 212.917 181.102C212.829 181.094 212.762 181.062 212.715 181.008C212.639 180.917 212.609 180.749 212.631 180.538C212.688 179.981 212.69 179.42 212.693 178.876C212.693 178.587 212.693 178.299 212.703 178.011C212.74 176.844 213.374 175.92 213.988 175.029C214.457 174.347 214.906 173.64 215.34 172.951C215.698 173.268 216.08 173.571 216.564 173.749C218.207 174.354 219.746 174.65 221.27 174.65C222.307 174.65 223.335 174.507 224.332 174.226L224.369 174.216C224.598 174.152 224.798 174.096 224.973 174.042C224.964 174.128 224.961 174.204 224.961 174.256C224.936 175.544 224.998 176.733 225.149 177.895L225.19 178.218C225.398 179.799 225.615 181.434 224.704 182.897L224.712 182.889Z" fill="#343434"/>
<path d="M186.383 125.224L187.306 125.246C188.547 125.276 189.832 125.305 191.095 125.345H191.162C191.685 125.345 192.087 125.148 192.427 124.724C194.835 121.737 197.581 118.932 200.59 116.386C200.815 116.197 201.024 115.995 201.214 115.788C201.358 115.633 201.691 115.268 201.323 114.894C201.207 114.776 201.079 114.717 200.938 114.717C200.738 114.717 200.556 114.84 200.418 114.948C197.23 117.475 194.312 120.343 191.744 123.481C191.403 123.897 191.075 124.059 190.575 124.059C190.518 124.059 190.456 124.059 190.394 124.054C188.944 123.961 187.405 123.899 185.549 123.86H185.5C185.019 123.86 184.656 124.013 184.449 124.298C184.234 124.596 184.205 125.01 184.368 125.493C184.72 126.546 185.162 127.581 185.591 128.583C185.747 128.947 185.905 129.314 186.058 129.681C186.176 129.964 186.213 130.085 185.961 130.267C184.928 131.018 183.877 131.821 182.838 132.651C178.8 135.882 175.82 138.918 173.459 142.208C173.249 142.499 172.899 142.989 173.434 143.385C173.572 143.489 173.713 143.54 173.851 143.54C174.11 143.54 174.342 143.368 174.562 143.016C175.484 141.531 176.715 140.265 177.904 139.044C178.195 138.746 178.484 138.445 178.77 138.145C181.042 135.751 183.786 133.451 187.158 131.112C187.676 130.752 187.807 130.356 187.575 129.824C187.427 129.482 187.281 129.137 187.133 128.795C187.007 128.497 186.882 128.199 186.753 127.903C186.677 127.726 186.598 127.549 186.519 127.369C186.223 126.699 185.917 126.005 185.665 125.227H186.097C186.196 125.227 186.292 125.227 186.386 125.227L186.383 125.224Z" fill="#343434"/>
<path d="M196.984 136.823L197.06 136.909C198.523 138.559 200.163 140.005 202.004 141.593C203.084 142.524 204.096 143.56 205.073 144.565C205.978 145.494 206.915 146.456 207.907 147.333L208.109 147.51C209.565 148.798 211.07 150.128 212.318 151.667C212.466 151.849 212.666 152.002 212.871 152.091C212.955 152.128 213.041 152.145 213.127 152.145C213.482 152.145 213.751 151.844 213.766 151.428V151.404L213.756 151.379C213.746 151.357 213.737 151.33 213.724 151.298C213.69 151.199 213.64 151.066 213.552 150.96C213.421 150.805 213.293 150.645 213.164 150.488C212.787 150.025 212.399 149.544 211.955 149.131C210.248 147.55 208.534 145.922 206.874 144.348C204.056 141.677 201.145 138.914 198.187 136.294C198.145 136.257 198.104 136.217 198.062 136.18C197.874 136.008 197.682 135.828 197.418 135.735C197.326 135.703 197.24 135.685 197.159 135.685C196.998 135.685 196.863 135.749 196.759 135.877C196.596 136.079 196.596 136.318 196.759 136.555C196.828 136.653 196.907 136.742 196.986 136.825L196.984 136.823Z" fill="#343434"/>
<path d="M202.389 114.572C201.942 114.912 202.251 115.409 202.367 115.596C203.565 117.527 205.125 119.667 207.611 120.913C208.391 121.304 209.247 121.807 209.535 122.814C209.609 123.075 209.827 123.237 210.103 123.237C210.169 123.237 210.239 123.228 210.308 123.208C210.633 123.114 210.799 122.858 210.799 122.444V122.42C210.646 121.787 210.387 121.302 210.004 120.942C209.382 120.359 208.652 119.928 208.006 119.546C206.846 118.861 205.541 117.972 204.651 116.584C204.246 115.953 203.785 115.384 203.279 114.892C203.242 114.857 203.208 114.816 203.171 114.774C203.042 114.626 202.897 114.461 202.687 114.461C202.591 114.461 202.49 114.498 202.391 114.574L202.389 114.572Z" fill="#343434"/>
<path d="M171.305 158.685C171.29 158.466 171.278 158.244 171.263 158.025C171.234 157.55 171.204 157.075 171.167 156.6C171.1 155.767 171.012 154.925 170.923 154.11C170.735 152.357 170.54 150.542 170.58 148.744C170.587 148.362 170.543 147.978 170.498 147.606C170.486 147.503 170.474 147.402 170.464 147.301C170.427 146.956 170.247 146.759 169.963 146.759C169.571 146.764 169.487 147.163 169.46 147.294C169.443 147.382 169.435 147.471 169.43 147.557C169.428 147.601 169.425 147.648 169.42 147.693C169.159 150.111 169.398 152.541 169.63 154.895C169.677 155.366 169.721 155.836 169.766 156.304L169.783 156.491C169.98 158.678 170.168 160.744 169.151 162.768C168.791 163.485 168.848 164.278 168.902 165.043C168.92 165.29 168.937 165.543 168.942 165.787C168.947 166.186 169.218 166.455 169.618 166.455H169.657C170.017 166.44 170.254 166.191 170.294 165.792C170.313 165.598 170.311 165.401 170.308 165.208C170.308 165.14 170.308 165.068 170.308 164.999V164.782C170.308 164.113 170.304 163.48 170.587 162.867C171.253 161.416 171.49 160.047 171.313 158.685H171.305Z" fill="#343434"/>
<path d="M169.324 167.124C169.277 167.115 169.235 167.112 169.196 167.112C168.811 167.112 168.668 167.489 168.601 167.671C168.416 168.166 168.231 168.663 168.049 169.161C167.795 169.845 167.54 170.53 167.281 171.215C167.222 171.372 167.161 171.53 167.099 171.685C166.877 172.249 166.645 172.835 166.524 173.451C166.403 174.069 166.707 174.285 166.985 174.357C167.052 174.374 167.116 174.384 167.178 174.384C167.486 174.384 167.718 174.17 167.832 173.781C168.103 172.837 168.461 171.904 168.806 171.003C169.087 170.269 169.376 169.511 169.62 168.747C169.682 168.555 169.729 168.363 169.771 168.193C169.788 168.127 169.803 168.063 169.817 168.008L169.822 167.994V167.976C169.813 167.676 169.798 167.218 169.324 167.129V167.124Z" fill="#343434"/>
<path d="M140.545 106.702C141.095 107.142 141.127 107.618 141.164 108.169L141.171 108.275C141.191 108.556 141.211 108.849 141.255 109.132C141.581 111.117 142.422 112.373 143.895 113.075C143.895 113.151 143.895 113.23 143.892 113.306C143.88 113.693 143.868 114.094 144.04 114.481C144.05 114.505 144.063 114.527 144.075 114.552C144.122 114.643 144.134 114.673 144.09 114.734C143.439 115.648 143.471 116.655 143.564 117.692C143.601 118.101 143.641 118.512 143.68 118.921C143.828 120.472 143.984 122.077 144.016 123.656C144.085 127.135 144.47 130.696 145.158 134.237C145.523 136.114 146.103 137.424 147.045 138.49C148.138 139.726 149.48 140.416 151.034 140.544L151.313 140.566C153.013 140.704 154.772 140.847 156.506 140.847C157.527 140.847 158.455 140.798 159.34 140.699C160.517 140.566 161.694 140.443 162.871 140.317C164.329 140.162 165.838 140.002 167.319 139.83L167.543 139.803C168.286 139.717 169.04 139.628 169.795 139.5C169.795 139.68 169.798 139.862 169.813 140.046L169.855 140.63C169.889 141.108 169.924 141.586 169.961 142.066C169.995 142.511 170.188 142.753 170.53 142.78C170.553 142.78 170.572 142.782 170.595 142.782C170.94 142.782 171.142 142.546 171.194 142.078C171.236 141.716 171.273 141.29 171.231 140.881C171.061 139.185 171.411 137.488 172.366 135.382C172.803 134.42 173.288 133.464 173.76 132.538C174.297 131.479 174.855 130.384 175.341 129.273C175.558 128.778 175.743 128.325 175.822 127.825C175.889 127.397 175.733 127.101 175.395 127.01C175.348 126.998 175.302 126.99 175.257 126.99C174.964 126.99 174.843 127.251 174.744 127.463L174.719 127.515C174.601 127.763 174.485 128.015 174.369 128.266C174.132 128.776 173.89 129.305 173.626 129.81L173.219 130.593C172.44 132.085 171.636 133.629 170.957 135.205C170.55 136.148 170.19 137.045 169.98 137.958C168.609 138.197 167.215 138.352 165.861 138.5C165.116 138.581 164.343 138.665 163.588 138.761C160.347 139.175 157.858 139.359 155.522 139.359C154.088 139.359 152.756 139.288 151.446 139.143C149.367 138.914 147.98 137.877 147.206 135.973C146.394 133.976 146.14 131.812 145.896 129.719C145.864 129.443 145.831 129.167 145.797 128.891C145.604 127.315 145.516 125.7 145.429 124.139C145.333 122.393 145.232 120.59 144.99 118.824C144.901 118.179 144.85 117.517 144.8 116.877C144.781 116.621 144.761 116.364 144.739 116.108C145.195 116.118 145.654 116.135 146.1 116.153C146.749 116.177 147.42 116.204 148.076 116.204C149.85 116.204 151.92 116.032 153.869 114.784C153.869 114.784 154.007 115.355 154.051 115.537L154.841 118.842C155.556 121.836 156.296 124.934 157.034 127.978C157.224 128.763 157.475 129.544 157.722 130.31C157.833 130.654 158.07 130.851 158.371 130.851C158.44 130.851 158.514 130.842 158.588 130.819C158.83 130.75 159.104 130.549 159.035 129.992C159.017 129.852 158.988 129.714 158.948 129.578C158.141 126.899 157.49 124.129 156.859 121.452C156.392 119.467 155.909 117.416 155.366 115.411C155.329 115.271 155.295 115.128 155.263 114.983C155.166 114.569 155.068 114.143 154.853 113.784C154.522 113.232 154.342 112.668 154.291 112.011C154.266 111.705 154.143 111.503 153.928 111.4C153.967 110.752 154.073 110.139 154.167 109.652C154.374 108.58 154.73 107.531 155.075 106.517C155.23 106.059 155.386 105.598 155.529 105.138L155.568 105.017C155.67 104.709 155.783 104.362 155.568 104.01C155.013 103.089 154.626 102.074 154.251 101.089C154.019 100.479 153.78 99.8483 153.501 99.245C153.442 99.1145 153.39 98.9766 153.341 98.8412C153.126 98.2575 152.907 97.6542 151.947 97.6444C151.883 97.6444 151.819 97.6419 151.755 97.6394C151.683 97.637 151.611 97.6345 151.545 97.6345C151.303 97.6345 151.052 97.6641 150.827 97.8857C150.637 98.0728 150.474 98.2797 150.287 98.5186C150.225 98.5974 150.161 98.6786 150.092 98.7648C149.956 98.5358 149.749 98.4151 149.483 98.4151C149.413 98.4151 149.342 98.4225 149.268 98.4398C148.663 98.5678 148.044 98.6762 147.445 98.7821C145.76 99.0776 144.021 99.3829 142.412 100.156C141.371 100.656 140.574 101.442 139.975 102.555C139.462 103.51 139.701 106.017 140.545 106.694V106.702ZM153.06 113.432C153.005 113.614 152.842 113.776 152.561 113.931C151.72 114.389 150.77 114.655 149.574 114.769C148.829 114.838 148.099 114.872 147.339 114.872C146.569 114.872 145.797 114.838 144.983 114.766C145.185 114.471 145.271 114.168 145.259 113.801C145.898 113.853 146.52 113.877 147.109 113.877C149.278 113.877 151.192 113.535 152.956 112.828C153.074 113.07 153.109 113.267 153.06 113.432ZM150.921 106.374C151.496 105.662 151.742 105.037 151.769 104.214C151.794 103.449 151.557 102.744 151.328 102.065L151.237 101.791C150.82 100.526 151.042 99.4125 151.831 98.7894C152.216 99.6095 152.551 100.466 152.875 101.296C153.291 102.358 153.721 103.453 154.256 104.488C154.337 104.645 154.283 104.788 154.222 104.956C154.207 104.997 154.189 105.039 154.177 105.081C154.071 105.416 153.96 105.749 153.847 106.083C153.657 106.65 153.459 107.238 153.294 107.824C152.973 108.977 152.667 110.201 152.667 111.479C152.369 111.563 152.078 111.676 151.789 111.794C151.36 111.969 150.945 112.09 150.521 112.161C149.112 112.4 147.943 112.511 146.843 112.511C146.211 112.511 145.619 112.471 145.037 112.397C145.037 112.397 145.037 112.392 145.035 112.392C144.926 112.252 144.758 112.151 144.598 112.057C143.678 111.531 143.039 110.713 142.701 109.625C142.499 108.974 142.437 108.305 142.365 107.531C142.353 107.403 142.341 107.273 142.328 107.14C142.883 107.248 143.446 107.302 144.048 107.302C145.555 107.302 147.038 106.958 148.471 106.623C148.762 106.554 149.056 106.487 149.347 106.421C149.362 106.665 149.285 106.83 149.211 106.99C149.191 107.031 149.172 107.073 149.157 107.115C148.863 107.824 148.75 108.585 148.809 109.437C148.844 109.952 149.011 110.393 149.3 110.75C149.431 110.91 149.613 111.095 149.862 111.095C149.946 111.095 150.03 111.072 150.114 111.033C150.469 110.858 150.403 110.494 150.363 110.275C150.339 110.142 150.302 110.014 150.265 109.888C150.237 109.794 150.21 109.703 150.188 109.607C149.929 108.475 150.203 107.268 150.923 106.379L150.921 106.374ZM142.824 101.466C144.213 100.708 145.765 100.393 147.109 100.156C148.145 99.9739 148.984 99.772 149.806 99.5036C149.618 100.755 149.791 102.018 150.341 103.458C150.343 103.468 150.346 103.478 150.353 103.513C150.496 104.17 150.538 104.495 150.415 104.682C150.292 104.867 149.971 104.953 149.312 105.071C148.77 103.843 148.53 102.567 148.33 101.36C148.279 101.043 148.212 100.646 147.766 100.646C147.743 100.646 147.719 100.646 147.694 100.649C147.425 100.673 147.112 100.833 147.154 101.461C147.255 102.988 147.524 104.163 148.02 105.254L146.892 105.606C146.35 104.406 145.91 103.306 145.962 102.07C145.972 101.855 145.91 101.668 145.792 101.543C145.691 101.437 145.55 101.382 145.387 101.382H145.355C145.025 101.397 144.83 101.631 144.808 102.045C144.739 103.318 144.756 104.655 145.708 105.825C145.382 105.941 145.072 105.958 144.805 105.958C144.679 105.958 144.554 105.953 144.43 105.948L144.233 105.941C144.075 105.936 144.018 105.827 143.937 105.65L143.902 105.576C143.572 104.889 143.35 104.106 143.207 103.109C143.199 103.05 143.192 102.986 143.187 102.919C143.152 102.567 143.108 102.084 142.619 102.084C142.602 102.084 142.585 102.084 142.565 102.084C141.919 102.131 141.953 102.764 141.976 103.183L141.981 103.279C142.015 104.049 142.193 104.85 142.533 105.79C142.301 105.817 142.114 105.835 141.963 105.835C141.467 105.835 141.401 105.662 141.162 104.845C140.621 102.988 141.973 101.927 142.827 101.461L142.824 101.466Z" fill="#343434"/>
<path d="M204.646 97.4671C204.399 97.3908 204.133 97.3465 203.856 97.3341C203.583 97.3218 203.311 97.3415 203.05 97.3883C203.037 97.3095 203 97.2307 202.946 97.1618C202.704 96.8515 202.46 96.5437 202.194 96.258C198.913 92.7736 196.66 88.7621 195.9 83.9873C195.76 83.0983 195.604 82.2093 195.451 81.3228C195.392 80.9806 195.266 80.6629 194.842 80.7171C194.445 80.7663 194.443 81.1061 194.43 81.4115C194.43 81.5051 194.423 81.5986 194.433 81.6898C194.497 82.2857 194.558 82.8841 194.63 83.48C195.262 88.6981 197.541 93.1158 201.162 96.8786C201.466 97.1938 201.789 97.4868 202.189 97.669C201.829 97.8439 201.525 98.0754 201.323 98.3586C201.111 98.6565 201.098 98.8757 201.283 99.085C201.384 99.2007 201.5 99.2623 201.634 99.2672C201.755 99.2721 201.888 99.2352 202.046 99.149C202.127 99.1047 202.206 99.0505 202.282 98.9988C202.339 98.9594 202.396 98.9225 202.453 98.8855C202.862 98.6344 203.331 98.5088 203.775 98.5285C204.236 98.5506 204.653 98.7279 204.949 99.0284C205.504 99.5923 205.45 100.693 204.831 101.383C204.108 102.188 203.272 102.695 202.342 102.89C200.425 103.293 198.918 103.934 197.595 104.904C194.98 106.827 191.909 108.073 188.988 109.189C186.731 110.048 184.575 110.647 182.394 111.013C182.177 111.05 181.98 111.063 181.787 111.055C181.42 111.038 181.077 110.942 180.707 110.747C179.72 110.23 179.007 109.45 178.316 108.694C178.087 108.443 177.85 108.184 177.606 107.938C175.341 105.653 174.231 102.821 174.219 99.2845C174.211 97.4622 174.364 95.6178 174.51 93.8349C174.64 92.2417 174.776 90.5967 174.798 88.9714C174.801 88.7597 174.798 88.538 174.788 88.309C174.867 87.2969 175.277 86.4104 175.827 85.5534C176.481 84.5389 177.28 83.6376 178.003 82.6772C178.824 81.5863 179.693 80.5324 180.332 79.3184C180.502 78.9958 180.618 78.6313 180.233 78.3949C179.838 78.1536 179.592 78.4565 179.379 78.747C179.268 78.8948 179.16 79.045 179.061 79.2026C177.63 81.4189 175.741 83.2953 174.297 85.5288C174.216 84.2853 174.117 83.054 174.596 81.8868C175.59 79.4636 177.236 77.5577 179.377 76.0752C181.624 74.5189 184.227 73.822 186.815 73.1054C188.917 72.5218 191.05 72.1229 193.239 72.0588C193.579 72.049 194.028 72.0244 194.003 71.554C193.981 71.1329 193.559 71.064 193.207 71.0369C192.281 70.963 191.346 70.9876 190.434 71.1206C187.91 71.4875 185.47 72.1844 183.043 72.9749C179.883 74.0018 177.292 75.7477 175.218 78.3506C173.459 80.557 172.78 83.0023 173 85.7874C173.071 86.6911 173.417 87.5087 173.585 88.373C173.375 90.7888 173.165 93.207 172.958 95.6227L172.83 97.1027C172.647 99.575 172.822 101.629 173.385 103.562C174.411 107.098 176.994 109.548 179.387 111.481C179.811 111.824 180.329 112.048 180.926 112.151C181.21 112.2 181.503 112.23 181.799 112.245C183.376 112.316 184.891 111.88 186.353 111.459L186.509 111.415C188.857 110.74 191.048 109.787 192.693 109.034L193.036 108.876C194.8 108.071 196.626 107.236 198.205 106.086C199.559 105.101 201.069 104.448 202.828 104.086C204.009 103.843 205.07 103.178 205.975 102.104C206.654 101.301 206.878 100.299 206.587 99.3559C206.308 98.4472 205.598 97.7577 204.636 97.4647L204.646 97.4671Z" fill="#343434"/>
<path d="M190.017 92.9854C189.953 92.9755 189.889 92.9706 189.824 92.9657C189.39 92.946 188.998 93.0864 188.744 93.3498L188.734 93.3572L188.478 93.8399V93.8793C188.492 94.6993 188.927 95.2534 189.642 95.3617C189.699 95.3691 189.755 95.3765 189.812 95.379C190.13 95.3937 190.463 95.3223 190.777 95.1721L190.809 95.1573L190.831 95.1302C191.312 94.5368 191.278 94.0738 191.164 93.7882C191.001 93.3769 190.56 93.0691 190.014 92.9879L190.017 92.9854Z" fill="#343434"/>
<path d="M178.383 93.5787C178.435 93.5861 178.486 93.591 178.538 93.5935C178.827 93.6058 179.13 93.5393 179.416 93.3989L179.446 93.3842L179.466 93.3595C179.905 92.8079 179.873 92.377 179.772 92.1135C179.624 91.7318 179.222 91.4462 178.726 91.3698C178.666 91.36 178.61 91.3551 178.551 91.3526C178.156 91.3354 177.798 91.4659 177.569 91.7072L177.559 91.7146L177.324 92.1652V92.2022C177.337 92.9631 177.732 93.4777 178.383 93.5762V93.5787Z" fill="#343434"/>
<path d="M180.559 105.736C180.887 106.066 181.244 106.241 181.619 106.258C181.891 106.271 182.184 106.202 182.488 106.051C183.635 105.485 184.404 104.549 185.221 103.476C185.327 103.335 185.354 103.18 185.297 103.025C185.206 102.771 184.9 102.555 184.503 102.463C184.005 102.348 183.487 102.264 182.988 102.185C182.764 102.148 182.539 102.114 182.317 102.074L182.241 102.047C182.051 102.013 181.859 101.978 181.669 101.941C181.193 101.853 180.699 101.759 180.211 101.7C180.154 101.693 180.097 101.688 180.043 101.685C179.67 101.668 179.387 101.764 179.226 101.961C179.056 102.173 179.022 102.498 179.128 102.904C179.384 103.887 179.737 104.911 180.559 105.736ZM183.605 103.49L183.524 103.596C183.028 104.244 182.473 104.685 181.664 105.076L181.607 105.103L181.565 105.057C181.015 104.431 180.613 103.852 180.425 103.052L180.398 102.931L183.605 103.49Z" fill="#343434"/>
<path d="M179.207 98.6348C179.345 98.6988 179.486 98.7431 179.621 98.785L179.663 98.7973C179.698 98.8096 179.735 98.8194 179.772 98.8293C179.821 98.8441 179.865 98.8539 179.907 98.8638C179.93 98.8687 179.952 98.8736 179.974 98.8761C180.073 98.8933 180.164 98.9007 180.253 98.8982C180.761 98.881 180.793 98.5855 180.788 98.4944V98.4845C180.773 98.3516 180.682 98.2531 180.596 98.1693L180.581 98.157C180.507 98.0856 180.428 98.0241 180.366 97.9773C180.314 97.9379 180.258 97.9034 180.216 97.8763C180.164 97.8443 180.112 97.8123 180.075 97.7803C180.013 97.7285 179.969 97.667 179.942 97.603C179.925 97.5562 179.927 97.5365 179.927 97.5365C179.935 97.5045 180.011 97.433 180.05 97.3961C180.137 97.3173 180.221 97.2287 180.302 97.1326C180.569 96.879 180.692 96.5958 180.64 96.3545C180.596 96.1525 180.44 95.9925 180.223 95.9235C180.211 95.9211 180.201 95.9186 180.189 95.9161C180.181 95.9161 180.176 95.9137 180.169 95.9112C179.949 95.8718 179.804 95.9851 179.727 96.0466L179.426 96.2806C179.347 96.3422 179.256 96.4111 179.172 96.485C179.103 96.5441 179.037 96.6056 178.98 96.6598L178.972 96.6672C178.923 96.714 178.874 96.7608 178.807 96.8174C178.681 96.9258 178.553 97.039 178.462 97.2114C178.326 97.47 178.346 97.7803 178.514 98.0635C178.684 98.3491 178.982 98.5313 179.204 98.6323L179.207 98.6348Z" fill="#343434"/>
<path d="M178.321 89.1219C178.504 89.1515 178.686 89.2007 178.884 89.2795C178.925 89.2968 178.97 89.3091 179.009 89.314C179.029 89.3165 179.049 89.3189 179.066 89.3189C179.244 89.3239 179.377 89.2254 179.463 89.021C179.619 88.6541 179.441 88.4103 179.263 88.2724C179.091 88.1345 178.896 88.0557 178.634 88.0163C178.511 87.9966 178.363 87.9842 178.176 87.9793H178.05C177.569 87.9769 177.058 88.0335 176.589 88.4398C176.325 88.6713 176.246 88.9299 176.357 89.2081C176.419 89.3633 176.52 89.4568 176.646 89.4765C176.658 89.4765 176.673 89.479 176.685 89.4815C176.762 89.4815 176.846 89.4593 176.927 89.41C177.292 89.1884 177.66 89.085 178.055 89.0973C178.141 89.0998 178.227 89.1072 178.314 89.1219H178.321Z" fill="#343434"/>
<path d="M191.208 90.3726C190.786 89.8259 190.187 89.5944 189.607 89.4294L189.454 89.39C189.222 89.3309 189.042 89.2915 188.884 89.2669C188.554 89.2152 188.292 89.2226 188.036 89.2915C187.774 89.3629 187.473 89.5304 187.535 89.9318C187.57 90.1534 187.695 90.2962 187.912 90.3529C187.935 90.3578 187.959 90.3627 187.984 90.3676C188.036 90.375 188.09 90.3799 188.149 90.3775C188.413 90.3726 188.655 90.3873 188.884 90.4243C188.993 90.4415 189.102 90.4637 189.208 90.4908C189.686 90.6139 190.096 90.838 190.461 91.1753C190.542 91.2492 190.633 91.3034 190.73 91.328C190.747 91.3329 190.764 91.3354 190.779 91.3379C190.939 91.3625 191.092 91.3083 191.223 91.1827C191.455 90.9562 191.45 90.6853 191.211 90.375L191.208 90.3726Z" fill="#343434"/>
<path d="M188.786 87.8165C188.877 87.4816 188.589 87.3265 188.332 87.2132C188.036 87.0852 187.728 86.9817 187.422 86.8783C186.324 86.5089 185.364 85.9475 184.624 85.0314C183.415 83.5318 182.927 81.7637 182.712 79.9045C182.628 79.1731 182.668 78.427 182.633 77.6882C182.619 77.3681 182.5 77.08 182.115 77.0676C181.765 77.0578 181.634 77.3262 181.585 77.6094C181.521 77.9714 181.506 78.3432 181.469 78.7126C181.405 79.3184 181.469 79.9192 181.553 80.5127C181.901 82.926 182.656 85.1546 184.609 86.7823C185.616 87.622 186.802 88.0505 188.103 88.1662C188.389 88.1908 188.702 88.1244 188.788 87.8141L188.786 87.8165Z" fill="#343434"/>
<path d="M194.544 89.7323C194.785 89.2201 194.206 89.0551 193.855 88.8828C191.633 87.7894 190.281 86.0065 189.681 83.6376C189.348 82.3152 189.069 80.9805 188.973 79.6163C188.941 79.178 188.912 78.7396 188.865 78.3038C188.835 78.0354 188.724 77.7965 188.408 77.7842C188.093 77.7719 187.959 77.991 187.917 78.2644C187.875 78.5377 187.863 78.816 187.831 79.1804C187.912 81.4657 188.27 83.778 189.264 85.9622C190.098 87.7968 191.499 89.0551 193.305 89.8801C193.715 90.0672 194.302 90.2519 194.549 89.7323H194.544Z" fill="#343434"/>
<path d="M214.008 117.887C213.063 114.417 212.399 110.898 211.792 107.355C211.144 103.565 210.635 99.7774 210.69 95.9261C210.709 94.5643 210.793 93.2025 210.825 91.8457C210.87 89.9569 210.687 88.0632 210.492 86.1745C210.147 82.8205 209.19 79.7202 207.108 77.0041C204.409 73.4827 200.77 71.7589 196.463 71.2713C195.979 71.2492 195.496 71.2024 195.012 71.2147C194.731 71.2221 194.507 71.392 194.499 71.7146C194.492 72.0347 194.699 72.1948 194.985 72.244C195.222 72.2834 195.466 72.2908 195.708 72.3056C198.853 72.4903 201.69 73.4974 204.096 75.5684C205.872 77.0976 207.241 78.9347 208.099 81.1436C209.577 84.9555 209.639 88.9571 209.577 92.9415C209.506 97.4036 209.54 101.829 210.349 106.244C211.084 110.253 211.689 114.282 212.801 118.212C213.174 119.527 213.031 120.891 212.752 122.211C212.513 123.339 212.212 124.457 211.802 125.54C211.968 125.759 212.121 125.991 212.276 126.213C212.37 126.346 212.468 126.479 212.57 126.607C212.634 126.54 212.69 126.461 212.742 126.375C212.819 126.242 212.871 126.094 212.93 125.954C213.421 124.792 213.719 123.568 213.993 122.344C214.326 120.869 214.407 119.359 214.008 117.889V117.887Z" fill="#343434"/>
<path d="M225.686 307.367V301.706C225.689 297.608 225.689 293.51 225.686 289.413C225.684 288.026 225.38 287.709 224.063 287.704H217.839C198.032 287.701 178.225 287.701 158.418 287.699C158.331 287.699 158.243 287.704 158.156 287.711C158.067 287.714 157.976 287.719 157.887 287.719C157.665 287.719 157.5 287.684 157.35 287.605L157.337 287.6L157.33 287.586C157.194 287.371 157.207 287.147 157.216 286.933C157.219 286.876 157.224 286.822 157.221 286.766C157.221 281.22 157.221 275.674 157.226 270.129C157.226 269.58 157.172 269.301 157.026 269.136C156.878 268.969 156.634 268.905 156.148 268.905H153.301C138.211 268.907 123.123 268.91 108.033 268.91H90.9988C90.9297 268.91 90.8631 268.912 90.7965 268.915C90.7249 268.92 90.6509 268.922 90.5769 268.922C90.4042 268.922 90.1748 268.903 89.9281 268.74L89.9035 268.723V263.113C89.9035 259.21 89.9035 255.309 89.901 251.406C89.8985 250.091 89.6296 249.806 88.3814 249.806H48V251.446H59.5996C68.7889 251.448 77.9783 251.448 87.1726 251.451C87.2564 251.451 87.3452 251.448 87.4316 251.443C87.5204 251.438 87.6117 251.436 87.7005 251.436C87.925 251.436 88.0927 251.468 88.2531 251.534L88.2679 251.542L88.2777 251.559C88.4134 251.835 88.3962 252.116 88.3838 252.389C88.3814 252.47 88.3764 252.551 88.3764 252.633C88.3764 259.131 88.3715 264.386 88.3592 269.181C88.3567 270.028 88.6774 270.454 89.3681 270.528C89.4964 270.543 89.637 270.547 89.8196 270.547C89.8961 270.547 90.1995 270.543 90.276 270.543H100.055C118.207 270.545 136.361 270.545 154.513 270.55C154.597 270.55 154.678 270.545 154.767 270.535C154.856 270.53 154.947 270.52 155.038 270.52C155.223 270.52 155.462 270.545 155.712 270.735L155.734 270.752V276.164C155.739 280.048 155.741 284.062 155.756 288.009C155.761 289.171 155.924 289.346 157.017 289.346H189.185C200.511 289.346 211.834 289.346 223.16 289.349C223.224 289.349 223.288 289.344 223.355 289.341C223.424 289.336 223.496 289.334 223.567 289.334C223.715 289.334 223.91 289.351 224.107 289.477L224.13 289.492V289.519C224.137 289.566 224.145 289.615 224.154 289.666C224.169 289.78 224.186 289.898 224.186 290.021V293.158C224.189 297.874 224.191 302.747 224.179 307.542C224.179 308.219 224.209 308.576 224.389 308.768C224.571 308.963 224.931 309 225.533 309H239.437C249.628 309 259.814 309 270.007 309.002V307.37H225.694L225.686 307.367Z" fill="#343434"/>
<path d="M123.745 153.273C123.706 153.273 123.669 153.265 123.634 153.248L73.8142 131.381L70.9945 137.781C70.9525 137.877 70.8613 137.941 70.7552 137.946C70.6392 137.946 70.5504 137.892 70.5011 137.808L58.5192 117.212C58.4748 117.135 58.4698 117.042 58.5044 116.961C58.5389 116.879 58.6129 116.82 58.6992 116.8L82.0044 111.691C82.0242 111.686 82.0439 111.683 82.0636 111.683C82.1475 111.683 82.2265 111.72 82.2807 111.784C82.3473 111.866 82.3621 111.976 82.3202 112.072L79.5005 118.473L129.32 140.34C129.389 140.369 129.441 140.423 129.468 140.495C129.496 140.564 129.493 140.64 129.463 140.709L124.002 153.105C123.972 153.174 123.918 153.226 123.846 153.253C123.814 153.265 123.78 153.273 123.745 153.273Z" fill="white"/>
<path d="M79.1723 113.535C79.2364 113.387 79.1082 113.23 78.9503 113.264L67.6764 115.736L56.2865 118.233C56.1557 118.263 56.0916 118.408 56.1582 118.524L62.0147 128.591L67.812 138.557C67.8935 138.695 68.0982 138.685 68.1623 138.537L70.8587 132.415C70.9031 132.317 71.0191 132.27 71.1177 132.314L120.834 154.135C120.933 154.179 121.049 154.135 121.093 154.034L126.394 141.997C126.439 141.898 126.394 141.783 126.293 141.738L76.5771 119.918C76.4784 119.873 76.4315 119.758 76.4759 119.659L79.1723 113.537V113.535Z" fill="#F7F091"/>
<path d="M123.745 153.726C123.644 153.726 123.543 153.706 123.449 153.664L74.046 131.982L71.4088 137.966C71.2978 138.219 71.0536 138.387 70.7773 138.402C70.5034 138.419 70.2395 138.276 70.1013 138.037L58.1194 117.441C58.001 117.239 57.9887 116.992 58.0824 116.778C58.1761 116.564 58.3686 116.409 58.5955 116.357L81.9007 111.247C82.1721 111.188 82.4508 111.284 82.626 111.499C82.8011 111.713 82.8406 112.006 82.7296 112.257L80.0924 118.241L129.495 139.926C129.865 140.088 130.036 140.522 129.873 140.891L124.411 153.288C124.332 153.465 124.187 153.605 124.006 153.677C123.92 153.711 123.831 153.726 123.74 153.726H123.745ZM73.671 130.283C73.7721 130.283 73.8733 130.302 73.967 130.344L123.37 152.027L128.24 140.97L78.8368 119.285C78.4667 119.123 78.2965 118.689 78.4593 118.32L80.8103 112.983L59.8981 117.569L70.649 136.052L73 130.716C73.0789 130.539 73.2245 130.398 73.4046 130.329C73.4909 130.295 73.5797 130.28 73.671 130.28V130.283Z" fill="#343434"/>
<path d="M161.773 86.2779C161.741 86.3246 160.172 87.8465 160.172 87.8465L161.879 89.6589L163.544 87.78L161.77 86.2754L161.773 86.2779Z" fill="white"/>
<path d="M222.948 108.403C222.916 108.453 221.295 110.024 221.295 110.024L223.059 111.898L224.778 109.957L222.948 108.403Z" fill="white"/>
<path d="M165.579 87.8018C165.552 87.627 165.436 87.3364 164.965 87.3364H164.891C164.696 87.3364 164.499 87.2995 164.294 87.2601C164.205 87.2428 164.114 87.2256 164.023 87.2108C163.381 87.1099 162.947 86.7035 162.658 85.9352C162.464 85.4206 162.422 84.8443 162.38 84.2853V84.2459C162.367 84.113 162.34 83.7066 161.896 83.6943H161.879C161.447 83.6943 161.408 84.0859 161.395 84.2164L161.39 84.2509C161.378 84.3543 161.368 84.4602 161.358 84.5661C161.339 84.7581 161.319 84.9551 161.292 85.1448C161.235 85.5141 161.158 85.9402 160.956 86.3095C160.596 86.967 160.006 87.2699 158.985 87.329C158.96 87.329 158.936 87.329 158.904 87.3315C158.783 87.3339 158.647 87.3389 158.504 87.3955C158.314 87.4694 158.201 87.6245 158.191 87.8191C158.178 88.0431 158.304 88.2254 158.519 88.2968C158.593 88.3214 158.696 88.3559 158.81 88.3559C158.82 88.3559 158.83 88.3559 158.842 88.3559C158.869 88.3559 158.896 88.3559 158.923 88.3559C159.141 88.3559 159.36 88.4027 159.59 88.4519C159.693 88.4741 159.799 88.4962 159.905 88.5159C160.125 88.5553 160.325 88.6637 160.537 88.8607C160.961 89.2547 161.203 89.7891 161.297 90.5426C161.316 90.7027 161.334 90.8652 161.351 91.0228C161.368 91.1952 161.388 91.37 161.41 91.5473C161.445 91.828 161.63 92.0029 161.894 92.0029H161.904C162.044 92.0029 162.291 91.9438 162.37 91.5818C162.385 91.5104 162.387 91.4463 162.392 91.3848C162.392 91.3626 162.392 91.3429 162.394 91.3232L162.404 91.205C162.449 90.6904 162.496 90.1584 162.688 89.693C162.994 88.9567 163.401 88.5849 164.008 88.4889C164.102 88.4741 164.195 88.4568 164.287 88.4396C164.511 88.3977 164.723 88.3583 164.938 88.3583H164.982C165.476 88.3583 165.572 88.0234 165.589 87.8806L165.594 87.8437L165.589 87.8067L165.579 87.8018ZM162.903 87.8461C162.466 88.1515 162.13 88.5381 161.879 89.0183C161.768 88.809 161.644 88.6194 161.499 88.4421C161.311 88.2155 161.102 88.021 160.858 87.8486C161.294 87.5408 161.632 87.1566 161.881 86.6789C162.135 87.1616 162.471 87.5433 162.903 87.8461Z" fill="#343434"/>
<path d="M226.878 109.976C226.851 109.797 226.73 109.496 226.241 109.496H226.165C225.963 109.496 225.76 109.459 225.548 109.417C225.454 109.4 225.363 109.383 225.269 109.368C224.608 109.262 224.159 108.846 223.858 108.051C223.658 107.519 223.614 106.923 223.57 106.347V106.305C223.557 106.167 223.528 105.748 223.069 105.733H223.049C222.605 105.733 222.563 106.14 222.548 106.273L222.543 106.31C222.531 106.418 222.521 106.524 222.509 106.635C222.489 106.832 222.469 107.036 222.44 107.233C222.381 107.615 222.302 108.056 222.092 108.437C221.719 109.114 221.113 109.43 220.057 109.489C220.032 109.489 220.005 109.489 219.973 109.491C219.849 109.496 219.709 109.499 219.561 109.558C219.363 109.634 219.245 109.794 219.235 109.996C219.223 110.227 219.354 110.417 219.573 110.489C219.65 110.513 219.756 110.55 219.874 110.55C219.884 110.55 219.896 110.55 219.906 110.55C219.933 110.55 219.963 110.55 219.99 110.55C220.215 110.55 220.439 110.599 220.678 110.649C220.784 110.671 220.893 110.695 221.004 110.715C221.231 110.754 221.438 110.868 221.655 111.07C222.094 111.478 222.344 112.03 222.44 112.806C222.459 112.971 222.477 113.141 222.494 113.303C222.511 113.48 222.531 113.663 222.553 113.845C222.59 114.136 222.78 114.318 223.052 114.318H223.061C223.207 114.315 223.461 114.256 223.542 113.882C223.557 113.808 223.562 113.742 223.565 113.677C223.565 113.655 223.565 113.633 223.57 113.613L223.579 113.49C223.626 112.958 223.673 112.409 223.873 111.929C224.189 111.168 224.611 110.784 225.237 110.686C225.333 110.671 225.43 110.651 225.526 110.634C225.758 110.589 225.977 110.548 226.197 110.548H226.244C226.754 110.548 226.851 110.203 226.87 110.055L226.875 110.016L226.87 109.976H226.878ZM224.115 110.021C223.666 110.338 223.318 110.735 223.059 111.23C222.945 111.013 222.815 110.816 222.667 110.634C222.474 110.4 222.257 110.198 222.006 110.023C222.457 109.705 222.805 109.307 223.061 108.814C223.325 109.311 223.671 109.708 224.115 110.021Z" fill="#343434"/>
</g>
<defs>
<clipPath id="clip0_1332_3095">
<rect width="222" height="238" fill="white" transform="translate(48 71)"/>
</clipPath>
</defs>
</svg>
