<svg width="320" height="320" viewBox="0 0 320 320" fill="none" xmlns="http://www.w3.org/2000/svg">
<rect width="320" height="320" fill="white"/>
<path d="M282.843 150.693C275.181 139.385 264.553 129.64 250.583 126.984C235.126 124.046 218.697 123.644 204.408 118.026C195.553 114.544 187.996 109.226 179.467 105.242C144.463 88.8936 98.2072 96.8176 75.3776 129.445C70.4001 136.559 66.5512 144.687 59.9074 150.274C55.1613 154.264 49.2621 156.702 44.5542 160.738C37.2046 167.038 33.5184 176.502 30.106 185.565C22.6826 205.281 13.1767 233.424 31.9241 249.983C44.7042 261.272 44.9168 260.009 60.2205 268.99C76.5727 278.586 172.145 287.921 198.318 277.262C224.49 266.602 238.669 270.128 261.816 255.567C289.186 238.35 304.126 204.966 295.611 177.627C292.661 168.085 288.362 159.015 282.843 150.693Z" fill="#FAF7DE"/>
<g clip-path="url(#clip0_148_2313)">
<path d="M261.324 133.708H57.6716V239.371H261.324V133.708Z" fill="#AED3F0"/>
<path d="M193.64 98.6288H125.36V239.371H193.64V98.6288Z" fill="#AED3F0"/>
<path d="M159.502 133.983C166.691 133.983 172.519 128.153 172.519 120.962C172.519 113.771 166.691 107.941 159.502 107.941C152.313 107.941 146.486 113.771 146.486 120.962C146.486 128.153 152.313 133.983 159.502 133.983Z" fill="white"/>
<path d="M172.519 120.962C172.519 113.772 166.69 107.941 159.502 107.941C152.315 107.941 146.486 113.772 146.486 120.962C146.486 128.152 152.315 133.983 159.502 133.983C166.69 133.983 172.519 128.152 172.519 120.962ZM150.384 120.962C150.384 116.094 154.199 112.134 158.995 111.869C158.558 112.162 158.269 112.66 158.269 113.223V119.189L156.72 118.258C155.953 117.797 154.948 118.044 154.487 118.817C154.027 119.589 154.273 120.59 155.046 121.05L159.06 123.461C159.316 123.615 159.609 123.694 159.898 123.694C160.186 123.694 160.451 123.624 160.698 123.484C161.21 123.196 161.526 122.651 161.526 122.065V113.223C161.526 112.711 161.289 112.264 160.921 111.966C165.276 112.65 168.611 116.411 168.611 120.962C168.611 125.997 164.531 130.079 159.498 130.079C154.464 130.079 150.384 125.997 150.384 120.962Z" fill="#323232"/>
<path d="M67.2039 165.782H79.9461C80.844 165.782 81.5744 165.051 81.5744 164.153V149.047C81.5744 148.149 80.844 147.418 79.9461 147.418H67.2039C66.3061 147.418 65.5757 148.149 65.5757 149.047V164.153C65.5757 165.051 66.3061 165.782 67.2039 165.782ZM68.8322 150.676H78.3179V162.524H68.8322V150.676Z" fill="#323232"/>
<path d="M85.2122 165.782H97.9545C98.8523 165.782 99.5827 165.051 99.5827 164.153V149.047C99.5827 148.149 98.8523 147.418 97.9545 147.418H85.2122C84.3144 147.418 83.584 148.149 83.584 149.047V164.153C83.584 165.051 84.3144 165.782 85.2122 165.782ZM86.8405 150.676H96.3262V162.524H86.8405V150.676Z" fill="#323232"/>
<path d="M103.221 165.782H115.963C116.861 165.782 117.591 165.051 117.591 164.153V149.047C117.591 148.149 116.861 147.418 115.963 147.418H103.221C102.323 147.418 101.593 148.149 101.593 149.047V164.153C101.593 165.051 102.323 165.782 103.221 165.782ZM104.849 150.676H114.335V162.524H104.849V150.676Z" fill="#323232"/>
<path d="M157.083 144.468H144.341C143.443 144.468 142.713 145.199 142.713 146.097V161.203C142.713 162.101 143.443 162.831 144.341 162.831H157.083C157.981 162.831 158.711 162.101 158.711 161.203V146.097C158.711 145.199 157.981 144.468 157.083 144.468ZM155.455 159.574H145.969V147.725H155.455V159.574Z" fill="#323232"/>
<path d="M162.349 162.831H175.092C175.99 162.831 176.72 162.101 176.72 161.203V146.097C176.72 145.199 175.99 144.468 175.092 144.468H162.349C161.452 144.468 160.721 145.199 160.721 146.097V161.203C160.721 162.101 161.452 162.831 162.349 162.831ZM163.978 147.725H173.463V159.574H163.978V147.725Z" fill="#323232"/>
<path d="M144.341 184.118H157.083C157.981 184.118 158.711 183.387 158.711 182.489V167.383C158.711 166.485 157.981 165.754 157.083 165.754H144.341C143.443 165.754 142.713 166.485 142.713 167.383V182.489C142.713 183.387 143.443 184.118 144.341 184.118ZM155.455 169.012V180.86H145.969V169.012H155.455Z" fill="#323232"/>
<path d="M175.092 165.754H162.349C161.452 165.754 160.721 166.485 160.721 167.383V182.489C160.721 183.387 161.452 184.118 162.349 184.118H175.092C175.99 184.118 176.72 183.387 176.72 182.489V167.383C176.72 166.485 175.99 165.754 175.092 165.754ZM163.978 180.86V169.012H173.463V180.86H163.978Z" fill="#323232"/>
<path d="M215.054 147.418H202.311C201.413 147.418 200.683 148.149 200.683 149.047V164.153C200.683 165.051 201.413 165.782 202.311 165.782H215.054C215.951 165.782 216.682 165.051 216.682 164.153V149.047C216.682 148.149 215.951 147.418 215.054 147.418ZM213.425 162.524H203.94V150.676H213.425V162.524Z" fill="#323232"/>
<path d="M233.062 147.418H220.32C219.422 147.418 218.692 148.149 218.692 149.047V164.153C218.692 165.051 219.422 165.782 220.32 165.782H233.062C233.96 165.782 234.69 165.051 234.69 164.153V149.047C234.69 148.149 233.96 147.418 233.062 147.418ZM231.434 162.524H221.948V150.676H231.434V162.524Z" fill="#323232"/>
<path d="M251.07 147.418H238.328C237.43 147.418 236.7 148.149 236.7 149.047V164.153C236.7 165.051 237.43 165.782 238.328 165.782H251.07C251.968 165.782 252.699 165.051 252.699 164.153V149.047C252.699 148.149 251.968 147.418 251.07 147.418ZM249.442 162.524H239.956V150.676H249.442V162.524Z" fill="#323232"/>
<path d="M215.054 189.362H202.311C201.413 189.362 200.683 190.093 200.683 190.991V206.097C200.683 206.995 201.413 207.726 202.311 207.726H215.054C215.951 207.726 216.682 206.995 216.682 206.097V190.991C216.682 190.093 215.951 189.362 215.054 189.362ZM213.425 204.468H203.94V192.62H213.425V204.468Z" fill="#323232"/>
<path d="M233.062 189.362H220.32C219.422 189.362 218.692 190.093 218.692 190.991V206.097C218.692 206.995 219.422 207.726 220.32 207.726H233.062C233.96 207.726 234.69 206.995 234.69 206.097V190.991C234.69 190.093 233.96 189.362 233.062 189.362ZM231.434 204.468H221.948V192.62H231.434V204.468Z" fill="#323232"/>
<path d="M251.07 189.362H238.328C237.43 189.362 236.7 190.093 236.7 190.991V206.097C236.7 206.995 237.43 207.726 238.328 207.726H251.07C251.968 207.726 252.699 206.995 252.699 206.097V190.991C252.699 190.093 251.968 189.362 251.07 189.362ZM249.442 204.468H239.956V192.62H249.442V204.468Z" fill="#323232"/>
<path d="M215.054 211.5H202.311C201.413 211.5 200.683 212.231 200.683 213.129V228.235C200.683 229.133 201.413 229.864 202.311 229.864H215.054C215.951 229.864 216.682 229.133 216.682 228.235V213.129C216.682 212.231 215.951 211.5 215.054 211.5ZM213.425 226.606H203.94V214.758H213.425V226.606Z" fill="#323232"/>
<path d="M233.062 211.5H220.32C219.422 211.5 218.692 212.231 218.692 213.129V228.235C218.692 229.133 219.422 229.864 220.32 229.864H233.062C233.96 229.864 234.69 229.133 234.69 228.235V213.129C234.69 212.231 233.96 211.5 233.062 211.5ZM231.434 226.606H221.948V214.758H231.434V226.606Z" fill="#323232"/>
<path d="M251.07 211.5H238.328C237.43 211.5 236.7 212.231 236.7 213.129V228.235C236.7 229.133 237.43 229.864 238.328 229.864H251.07C251.968 229.864 252.699 229.133 252.699 228.235V213.129C252.699 212.231 251.968 211.5 251.07 211.5ZM249.442 226.606H239.956V214.758H249.442V226.606Z" fill="#323232"/>
<path d="M80.5694 189.362H67.8272C66.9294 189.362 66.199 190.093 66.199 190.991V206.097C66.199 206.995 66.9294 207.726 67.8272 207.726H80.5694C81.4673 207.726 82.1977 206.995 82.1977 206.097V190.991C82.1977 190.093 81.4673 189.362 80.5694 189.362ZM78.9412 204.468H69.4555V192.62H78.9412V204.468Z" fill="#323232"/>
<path d="M98.578 189.362H85.8358C84.9379 189.362 84.2075 190.093 84.2075 190.991V206.097C84.2075 206.995 84.9379 207.726 85.8358 207.726H98.578C99.4759 207.726 100.206 206.995 100.206 206.097V190.991C100.206 190.093 99.4759 189.362 98.578 189.362ZM96.9497 204.468H87.464V192.62H96.9497V204.468Z" fill="#323232"/>
<path d="M116.586 189.362H103.844C102.946 189.362 102.216 190.093 102.216 190.991V206.097C102.216 206.995 102.946 207.726 103.844 207.726H116.586C117.484 207.726 118.215 206.995 118.215 206.097V190.991C118.215 190.093 117.484 189.362 116.586 189.362ZM114.958 204.468H105.472V192.62H114.958V204.468Z" fill="#323232"/>
<path d="M80.5694 211.5H67.8272C66.9294 211.5 66.199 212.231 66.199 213.129V228.235C66.199 229.133 66.9294 229.864 67.8272 229.864H80.5694C81.4673 229.864 82.1977 229.133 82.1977 228.235V213.129C82.1977 212.231 81.4673 211.5 80.5694 211.5ZM78.9412 226.606H69.4555V214.758H78.9412V226.606Z" fill="#323232"/>
<path d="M98.578 211.5H85.8358C84.9379 211.5 84.2075 212.231 84.2075 213.129V228.235C84.2075 229.133 84.9379 229.864 85.8358 229.864H98.578C99.4759 229.864 100.206 229.133 100.206 228.235V213.129C100.206 212.231 99.4759 211.5 98.578 211.5ZM96.9497 226.606H87.464V214.758H96.9497V226.606Z" fill="#323232"/>
<path d="M116.586 211.5H103.844C102.946 211.5 102.216 212.231 102.216 213.129V228.235C102.216 229.133 102.946 229.864 103.844 229.864H116.586C117.484 229.864 118.215 229.133 118.215 228.235V213.129C118.215 212.231 117.484 211.5 116.586 211.5ZM114.958 226.606H105.472V214.758H114.958V226.606Z" fill="#323232"/>
<path d="M268.372 237.742H262.957V185.127H269.865V174.484H262.957V138.265H269.865V127.621H261.682V116.955C261.682 116.057 260.952 115.326 260.054 115.326H195.268V98.6288C195.268 97.7306 194.538 97 193.64 97H125.36C124.462 97 123.732 97.7306 123.732 98.6288V115.326H58.9463C58.0484 115.326 57.318 116.057 57.318 116.955V127.566C57.318 127.566 57.318 127.603 57.3227 127.621H49.1349V138.265H56.0433V174.484H49.1349V185.127H56.0433V237.742H50.6282C49.7304 237.742 49 238.473 49 239.371C49 240.269 49.7304 241 50.6282 241H268.372C269.27 241 270 240.269 270 239.371C270 238.473 269.27 237.742 268.372 237.742ZM59.2998 237.742V185.127H123.727V237.742H59.2998ZM74.3263 118.584H84.9564V127.566C84.9564 127.566 84.9564 127.603 84.9611 127.621H74.317C74.317 127.621 74.3216 127.584 74.3216 127.566V118.584H74.3263ZM102.1 118.584H112.73V127.566C112.73 127.566 112.73 127.603 112.734 127.621H102.09C102.09 127.621 102.095 127.584 102.095 127.566V118.584H102.1ZM98.8477 127.621H88.2036C88.2036 127.621 88.2083 127.584 88.2083 127.566V118.584H98.8384V127.566C98.8384 127.566 98.8384 127.603 98.843 127.621H98.8477ZM123.727 138.265V174.484H59.2998V138.265H123.727ZM126.984 100.258H192.007V237.742H179.609V209.038H181.623V202.151H137.367V209.038H139.382V237.742H126.984V100.258ZM207.368 118.584H217.998V127.566C217.998 127.566 217.998 127.603 218.003 127.621H207.359C207.359 127.621 207.364 127.584 207.364 127.566V118.584H207.368ZM235.141 118.584H245.772V127.566C245.772 127.566 245.772 127.603 245.776 127.621H235.132C235.132 127.621 235.137 127.584 235.137 127.566V118.584H235.141ZM231.89 127.621H221.246C221.246 127.621 221.25 127.584 221.25 127.566V118.584H231.88V127.566C231.88 127.566 231.88 127.603 231.885 127.621H231.89ZM195.259 138.265H259.691V174.484H195.259V138.265ZM161.121 237.742V209.406H176.352V237.742H161.121ZM142.634 237.742V209.406H157.865V237.742H142.634ZM195.259 237.742V185.127H259.691V237.742H195.259ZM258.416 127.621H249.023C249.023 127.621 249.028 127.584 249.028 127.566V118.584H258.416V127.621ZM204.112 118.584V127.566C204.112 127.566 204.112 127.603 204.116 127.621H195.259V118.584H204.107H204.112ZM123.727 127.621H115.982C115.982 127.621 115.986 127.584 115.986 127.566V118.584H123.727V127.621ZM60.5745 127.566V118.584H71.0698V127.566C71.0698 127.566 71.0698 127.603 71.0744 127.621H60.5699C60.5699 127.621 60.5745 127.584 60.5745 127.566Z" fill="#323232"/>
<path d="M78.3177 150.676H68.832V162.524H78.3177V150.676Z" fill="white"/>
<path d="M96.3263 150.676H86.8406V162.524H96.3263V150.676Z" fill="white"/>
<path d="M114.335 150.676H104.849V162.524H114.335V150.676Z" fill="white"/>
<path d="M155.455 147.726H145.969V159.574H155.455V147.726Z" fill="white"/>
<path d="M173.464 147.726H163.978V159.574H173.464V147.726Z" fill="white"/>
<path d="M155.455 169.012H145.969V180.86H155.455V169.012Z" fill="white"/>
<path d="M173.464 169.012H163.978V180.86H173.464V169.012Z" fill="white"/>
<path d="M213.421 150.676H203.935V162.524H213.421V150.676Z" fill="white"/>
<path d="M231.434 150.676H221.948V162.524H231.434V150.676Z" fill="white"/>
<path d="M249.438 150.676H239.952V162.524H249.438V150.676Z" fill="white"/>
<path d="M213.421 192.62H203.935V204.468H213.421V192.62Z" fill="white"/>
<path d="M231.434 192.62H221.948V204.468H231.434V192.62Z" fill="white"/>
<path d="M249.438 192.62H239.952V204.468H249.438V192.62Z" fill="white"/>
<path d="M213.421 214.758H203.935V226.606H213.421V214.758Z" fill="white"/>
<path d="M231.434 214.758H221.948V226.606H231.434V214.758Z" fill="white"/>
<path d="M249.438 214.758H239.952V226.606H249.438V214.758Z" fill="white"/>
<path d="M78.9413 192.62H69.4556V204.468H78.9413V192.62Z" fill="white"/>
<path d="M96.9496 192.62H87.4639V204.468H96.9496V192.62Z" fill="white"/>
<path d="M114.958 192.62H105.472V204.468H114.958V192.62Z" fill="white"/>
<path d="M78.9413 214.758H69.4556V226.606H78.9413V214.758Z" fill="white"/>
<path d="M96.9496 214.758H87.4639V226.606H96.9496V214.758Z" fill="white"/>
<path d="M114.958 214.758H105.472V226.606H114.958V214.758Z" fill="white"/>
<path d="M176.362 209.406H161.131V237.742H176.362V209.406Z" fill="white"/>
<path d="M157.874 209.406H142.643V237.742H157.874V209.406Z" fill="white"/>
</g>
<defs>
<clipPath id="clip0_148_2313">
<rect width="221" height="144" fill="white" transform="translate(49 97)"/>
</clipPath>
</defs>
</svg>
