<svg width="320" height="320" viewBox="0 0 320 320" fill="none" xmlns="http://www.w3.org/2000/svg">
<rect width="320" height="320" fill="white"/>
<path d="M282.843 150.693C275.181 139.385 264.553 129.64 250.583 126.984C235.126 124.046 218.697 123.644 204.408 118.026C195.553 114.544 187.996 109.226 179.467 105.242C144.463 88.8936 98.2072 96.8176 75.3776 129.445C70.4001 136.559 66.5512 144.687 59.9074 150.274C55.1613 154.264 49.2621 156.702 44.5542 160.738C37.2046 167.038 33.5184 176.502 30.106 185.565C22.6826 205.281 13.1767 233.424 31.9241 249.983C44.7042 261.272 44.9168 260.009 60.2205 268.99C76.5727 278.586 172.145 287.921 198.318 277.262C224.49 266.602 238.669 270.128 261.816 255.567C289.186 238.35 304.126 204.966 295.611 177.627C292.661 168.085 288.362 159.015 282.843 150.693Z" fill="#FAF7DE"/>
<path d="M299.801 264.665C302.262 245.863 298.581 223.131 293.069 205C290.478 225.347 290.952 246.642 295.417 269.836C290.405 254.962 284.892 239.326 273 229.187C275.876 244.204 282.213 258.327 291.499 270.416L294.163 277C299.279 275.852 302.861 271.263 305.555 266.726C312.255 255.413 316.179 242.648 317 229.495C306.497 237.614 302.823 251.667 299.801 264.665Z" fill="#B4E6E6"/>
<path d="M312 269H279V283H312V269Z" fill="white"/>
<path d="M200.38 124.967C200.38 124.967 199.032 109.372 196.375 104.63C189.89 93.0557 174.903 83.9593 161.954 86.3982C149.005 88.8371 136.89 104.812 134.976 117.968C134.654 120.182 135.073 126.136 135.073 126.136L130 128.193L131.453 146.455C134.176 147.868 137.237 148.482 140.289 148.227L141.832 146.174C141.605 139.814 142.541 133.52 142.313 127.16C142.232 124.884 141.873 122.05 142.458 119.851C143.058 117.594 143.44 116.038 144.686 114.07C147.535 109.569 150.552 104.901 155.124 102.214C159.133 99.8578 163.96 99.2849 168.588 99.6119C174.634 100.039 180.725 102.02 185.252 106.088C190.378 110.694 193.051 117.536 194.183 124.368C195.315 131.2 195.079 138.176 195.359 145.097C195.43 146.852 194.28 148.277 195.891 148.94C197.146 149.457 204 146.455 204 146.455L203.71 127.598L200.38 124.967Z" fill="#E6E6E6"/>
<path d="M233.337 204.62C230.364 198.51 225.203 188.917 213.018 186.514C210.403 185.999 196.582 182.275 196.582 182.275L191.339 169.696L184.255 168.283L151.525 168C151.525 168 147.504 168.551 144.016 169.131C141.541 169.542 139.057 183.123 139.057 183.123L124.179 187.504C124.179 187.504 111.479 190.342 105.869 194.906C101.014 198.856 99.0182 205.456 96.4216 211.144C89.8007 225.645 83.8986 239.096 78.3989 254.057C75.7866 261.163 72.8403 266.676 77.3038 272.797C82.0352 279.285 85.3767 282 85.3767 282L243.664 281.713C243.664 281.713 250.654 280.855 253.249 277.979C257.345 273.439 257.173 272.615 258.772 267.83C259.674 265.13 257.692 258.937 256.446 256.377C248.023 239.061 241.76 221.936 233.337 204.62Z" fill="white"/>
<path d="M170.513 106.108C163.203 106.826 156.46 110.783 151.4 116.109C147.274 120.454 141.823 126.406 141.201 132.367C139.54 148.295 148.722 164.78 148.722 164.78L148.611 175.676L159.983 181.934L169.364 199L175.335 182.93L187.56 175.961L186.036 165.069C189.253 158.241 191.213 150.889 191.821 143.365C192.365 134.733 195.021 121.209 189.944 114.209C185.631 108.262 177.822 105.39 170.513 106.108Z" fill="#FFEBD7"/>
<path d="M224.244 207H108.756C106.012 207 103.837 209.134 104.01 211.657L106.145 278.038C106.162 278.839 106.497 279.601 107.077 280.157C107.656 280.712 108.434 281.015 109.238 280.999H223.652C224.456 281.015 225.234 280.712 225.814 280.157C226.394 279.601 226.729 278.839 226.745 278.038L228.99 211.657C229.163 209.134 226.988 207 224.244 207Z" fill="#E6E6E6"/>
<path d="M184.309 97.6213L176.444 94.1967C168.312 91.8479 155.375 92.7737 149.201 98.6105C143.026 104.447 139.695 116.303 141.48 124.652C154.519 125.228 169.209 121.943 180.948 116.178C183.664 120.851 187.519 124.744 192.145 127.487C192.796 127.872 193.632 128.231 194.262 127.813C194.614 127.521 194.859 127.118 194.957 126.669C196.643 121.368 196.275 115.618 193.926 110.581C191.528 105.706 188.269 101.314 184.309 97.6213Z" fill="#64646E"/>
<path d="M92.1879 172H40.8121C39.8011 172 38.8315 172.421 38.1165 173.172C37.4016 173.922 37 174.939 37 176C37 177.061 37.4016 178.078 38.1165 178.828C38.8315 179.579 39.8011 180 40.8121 180H92.1879C93.1989 180 94.1685 179.579 94.8835 178.828C95.5984 178.078 96 177.061 96 176C96 174.939 95.5984 173.922 94.8835 173.172C94.1685 172.421 93.1989 172 92.1879 172Z" fill="white"/>
<path d="M91.8669 171.016H42.6741C41.8604 170.98 41.045 171.005 40.2354 171.092C35.6821 171.788 34.4715 177.69 38.2274 180.154C39.4361 180.947 40.757 180.993 42.1351 180.993H89.3933C90.1916 180.993 90.9919 181.009 91.79 180.993C92.468 181.001 93.141 180.879 93.7702 180.634C94.3994 180.389 94.9725 180.026 95.4566 179.566C95.9407 179.106 96.3262 178.558 96.5911 177.953C96.8559 177.348 96.9948 176.699 96.9999 176.042C97.0049 175.385 96.876 174.733 96.6205 174.125C96.3651 173.516 95.988 172.962 95.511 172.496C95.0341 172.029 94.4667 171.657 93.8413 171.403C93.2159 171.15 92.5449 171.018 91.8669 171.016C90.0906 170.962 90.0925 173.635 91.8669 173.689C92.1823 173.689 92.4945 173.75 92.7857 173.867C93.0768 173.985 93.3411 174.157 93.5632 174.374C93.7854 174.591 93.961 174.848 94.08 175.131C94.1989 175.414 94.2589 175.717 94.2564 176.023C94.2539 176.328 94.189 176.63 94.0654 176.912C93.9418 177.193 93.762 177.447 93.5364 177.661C93.3107 177.874 93.0437 178.042 92.7506 178.155C92.4576 178.268 92.1444 178.324 91.8291 178.319C91.1336 178.334 90.436 178.319 89.7404 178.319H48.3107C45.9305 178.319 43.546 178.359 41.166 178.319C40.7842 178.327 40.4057 178.249 40.0601 178.092C39.7144 177.934 39.4109 177.702 39.1733 177.412C38.9483 177.119 38.7973 176.779 38.7324 176.419C38.6674 176.059 38.6905 175.69 38.7996 175.34C38.9086 174.99 39.1007 174.67 39.3604 174.405C39.6202 174.14 39.9404 173.938 40.2953 173.815C40.9926 173.663 41.7107 173.621 42.4219 173.689H91.8669C93.6426 173.689 93.6455 171.016 91.8669 171.016Z" fill="#323232"/>
<path d="M142.002 144.842C141.946 150.961 143.43 156.995 146.317 162.381C148.784 166.837 152.443 170.977 157.046 173.25C162.042 175.718 167.865 176.798 173.305 175.344C176.14 174.612 178.798 173.311 181.12 171.519C183.467 169.537 185.421 167.128 186.883 164.419C190.38 158.312 191.564 151.277 191.997 144.332C192.108 142.553 189.354 142.559 189.244 144.332C188.591 154.809 185.506 168.027 174.504 172.063C172.253 172.938 169.849 173.342 167.438 173.251C164.814 173.075 162.236 172.475 159.803 171.475C155.452 169.733 151.999 166.336 149.526 162.395C146.329 157.11 144.676 151.027 144.754 144.842C144.748 143.061 141.995 143.057 142.001 144.842H142.002Z" fill="#323232"/>
<path d="M157.5 134C155.502 134 155.498 137 157.5 137C159.498 137 159.502 134 157.5 134Z" fill="#323232"/>
<path d="M179.5 134C177.502 134 177.498 137 179.5 137C181.498 137 181.502 134 179.5 134Z" fill="#323232"/>
<path d="M201.022 184.722C201.925 184.902 202.815 185.142 203.686 185.44C205.254 185.911 206.816 186.405 208.376 186.903C211.545 187.912 214.703 188.952 217.873 189.957C219.422 190.36 220.92 190.934 222.341 191.667C224.729 193.055 226.459 195.363 228.018 197.583C231.375 202.445 234.286 207.598 236.715 212.98C239.047 218.033 241.101 223.208 243.428 228.263C245.73 233.265 248.277 238.138 250.39 243.228C251.907 246.884 253.263 250.6 254.528 254.349C255.511 257.263 256.637 260.147 257.567 263.075C258.17 264.927 258.32 266.896 258.006 268.818C257.691 270.74 256.921 272.56 255.759 274.126C253.729 276.797 251.132 278.989 248.153 280.545C247.574 280.867 246.985 281.169 246.386 281.452C244.764 282.217 246.178 284.615 247.794 283.852C254.323 280.771 260.826 274.966 260.997 267.267C261.08 263.516 259.387 260.062 258.214 256.577C257.052 253.127 255.9 249.675 254.594 246.275C252.654 241.227 250.446 236.284 248.05 231.436C245.528 226.334 243.325 221.107 241.054 215.893C238.73 210.336 235.989 204.962 232.855 199.815C231.282 197.196 229.487 194.716 227.488 192.402C225.605 190.275 223.175 188.7 220.461 187.845C214.585 185.984 208.747 183.907 202.799 182.288C202.459 182.187 202.113 182.105 201.764 182.041C201.408 181.954 201.032 182.006 200.713 182.187C200.393 182.367 200.156 182.662 200.048 183.012C199.952 183.367 200.001 183.746 200.183 184.066C200.366 184.386 200.667 184.621 201.022 184.722Z" fill="#323232"/>
<path d="M229.657 259.937C233.458 258.817 237.258 257.697 241.059 256.577C242.711 256.09 242.007 253.573 240.343 254.063C236.542 255.183 232.742 256.303 228.941 257.423C227.289 257.91 227.993 260.427 229.657 259.937Z" fill="#323232"/>
<path d="M136.192 150.35C136.187 155.004 136.18 159.659 136.17 164.314C136.151 173.291 136.123 182.268 136.085 191.245C136.065 195.38 136.037 199.515 136 203.651C135.981 205.449 138.789 205.45 138.808 203.651C138.892 195.527 138.913 187.403 138.939 179.279C138.964 171.276 138.983 163.273 138.993 155.27C138.996 153.63 138.998 151.99 139 150.35C139.002 148.552 136.194 148.549 136.192 150.35Z" fill="#323232"/>
<path d="M162.409 158.189C163.288 159.114 164.38 159.845 165.605 160.33C166.831 160.816 168.159 161.042 169.491 160.994C170.728 160.955 171.939 160.66 173.033 160.129C174.128 159.598 175.079 158.847 175.814 157.93C175.997 157.636 176.048 157.287 175.954 156.959C175.861 156.631 175.631 156.349 175.315 156.176C174.994 156.012 174.617 155.968 174.263 156.054C173.908 156.14 173.603 156.348 173.411 156.636C173.179 156.932 173.589 156.476 173.319 156.744C173.247 156.815 173.179 156.889 173.106 156.959C172.944 157.114 172.773 157.26 172.594 157.397C172.744 157.281 172.595 157.398 172.519 157.447C172.431 157.503 172.342 157.559 172.251 157.612C172.069 157.719 171.88 157.817 171.686 157.907C171.57 157.961 171.451 158.015 171.33 158.061C171.513 157.991 171.315 158.062 171.233 158.088C171.001 158.161 170.768 158.23 170.53 158.284C170.312 158.334 170.091 158.375 169.869 158.406C170.145 158.368 169.713 158.417 169.697 158.418C169.583 158.426 169.468 158.432 169.354 158.435C169.124 158.442 168.893 158.44 168.663 158.427C168.546 158.421 168.431 158.411 168.315 158.401C167.889 158.364 168.548 158.46 168.128 158.374C167.672 158.286 167.223 158.17 166.783 158.027C165.853 157.657 165.028 157.092 164.376 156.377C164.247 156.257 164.093 156.163 163.925 156.098C163.756 156.033 163.575 156 163.392 156C163.209 156 163.028 156.033 162.859 156.097C162.69 156.162 162.537 156.256 162.407 156.375C162.278 156.495 162.176 156.636 162.106 156.792C162.036 156.947 162 157.114 162 157.283C162 157.451 162.036 157.618 162.106 157.773C162.176 157.929 162.279 158.07 162.409 158.189Z" fill="#323232"/>
<path d="M224.859 205.002H109.677C109.499 205.002 109.32 204.998 109.141 205.002C105.778 205.07 102.92 207.602 103.002 211.053C103.03 212.257 103.079 213.462 103.118 214.666L103.811 236.227L104.665 262.797C104.822 267.684 104.968 272.573 105.137 277.46C105.234 280.278 107.387 281.959 110.088 281.959H222.457C223.574 282.061 224.7 281.972 225.786 281.697C226.666 281.374 227.423 280.788 227.955 280.018C228.486 279.249 228.766 278.334 228.756 277.4C228.776 276.817 228.796 276.234 228.815 275.651L229.474 256.145L230.385 229.18L230.969 211.914C230.979 211.626 230.991 211.339 230.998 211.051C231.083 207.593 228.218 205.081 224.859 205.002C223.077 204.96 223.078 207.72 224.859 207.762C225.308 207.745 225.756 207.821 226.174 207.986C226.593 208.151 226.972 208.4 227.289 208.719C227.605 209.037 227.852 209.418 228.014 209.836C228.175 210.255 228.248 210.702 228.227 211.15C228.214 211.63 228.195 212.109 228.178 212.589L227.936 219.764L227.105 244.33L226.277 268.836L226.034 276.043C225.987 277.41 226.144 279.131 224.22 279.199C221.278 279.303 218.313 279.199 215.369 279.199H110.006C109.502 279.252 108.995 279.134 108.567 278.865C108.314 278.646 108.12 278.368 108.002 278.056C107.884 277.744 107.846 277.407 107.892 277.076L107.708 271.335L106.961 248.11L106.142 222.636L105.866 214.064C105.827 212.849 105.546 211.287 105.848 210.087C106.374 208.003 108.44 207.762 110.218 207.762H224.859C226.64 207.762 226.643 205.002 224.859 205.002Z" fill="#323232"/>
<path d="M168.878 135.023C168.339 136.36 167.369 137.475 167.253 138.954C167.114 140.732 168.021 142.305 168.807 143.844C169.081 144.379 169.368 144.91 169.619 145.456C169.747 145.73 169.858 146.011 169.952 146.297C169.999 146.44 170.041 146.584 170.076 146.73C170.089 146.784 170.128 147.1 170.111 146.917C170.126 147.084 170.155 146.994 170.035 147.13C169.871 147.295 169.688 147.442 169.49 147.568C169.047 147.873 168.551 148.1 168.025 148.238C166.227 148.72 166.991 151.426 168.797 150.942C170.318 150.59 171.658 149.722 172.575 148.498C173.487 147.04 172.746 145.352 172.084 143.952C171.443 142.596 170.376 141.204 170.166 139.709C170.072 139.191 170.178 138.658 170.465 138.212C170.918 137.421 171.323 136.605 171.677 135.768C171.776 135.41 171.726 135.028 171.536 134.705C171.346 134.382 171.033 134.145 170.663 134.044C170.292 133.953 169.9 134.005 169.567 134.187C169.235 134.37 168.988 134.669 168.878 135.023Z" fill="#323232"/>
<path d="M139 123C137.94 123.003 136.924 123.438 136.175 124.21C135.425 124.982 135.003 126.028 135 127.12V145.88C135 146.973 135.421 148.021 136.172 148.793C136.922 149.566 137.939 150 139 150C140.061 150 141.078 149.566 141.828 148.793C142.579 148.021 143 146.973 143 145.88V127.12C142.997 126.028 142.574 124.982 141.825 124.21C141.076 123.438 140.06 123.003 139 123Z" fill="white"/>
<path d="M138.482 122.001C137.747 122.017 137.021 122.179 136.348 122.48C135.674 122.78 135.065 123.213 134.556 123.752C134.047 124.291 133.648 124.927 133.382 125.623C133.116 126.319 132.987 127.061 133.004 127.807C132.995 129.462 133.004 131.118 133.004 132.773V145.948C133.004 148.646 134.427 151.202 137.179 151.861C137.988 152.047 138.828 152.046 139.638 151.86C140.447 151.673 141.205 151.305 141.855 150.782C142.506 150.259 143.033 149.596 143.397 148.839C143.761 148.083 143.954 147.253 143.961 146.412C144.049 142.474 143.961 138.523 143.961 134.584V128.138C144 127.267 143.873 126.395 143.589 125.572C143.182 124.531 142.479 123.636 141.57 123C140.661 122.364 139.587 122.017 138.482 122.001C136.7 121.948 136.702 124.756 138.482 124.809C139.141 124.818 139.774 125.065 140.268 125.506C140.763 125.947 141.086 126.552 141.18 127.213C141.204 127.555 141.209 127.898 141.192 128.241V145.429C141.192 146.886 141.06 148.378 139.492 149.02C138.875 149.265 138.192 149.274 137.57 149.046C136.947 148.818 136.427 148.369 136.107 147.781C135.857 147.265 135.742 146.693 135.773 146.119C135.762 142.359 135.773 138.6 135.773 134.84V128.636C135.773 128.278 135.758 127.917 135.773 127.56C135.784 126.834 136.073 126.141 136.579 125.628C137.084 125.114 137.767 124.821 138.482 124.809C140.26 124.756 140.268 121.948 138.482 122.001Z" fill="#323232"/>
<path d="M133.735 145.216C132.319 145.167 131.633 143.968 131.633 142.599V129.684C131.619 129.382 131.622 129.08 131.64 128.779C131.704 128.234 131.951 127.732 132.336 127.365C132.721 126.999 133.218 126.793 133.735 126.784C135.418 126.726 135.425 123.942 133.735 124.001C132.478 124.027 131.281 124.573 130.398 125.523C129.515 126.473 129.018 127.751 129.011 129.086C128.987 130.277 129.011 131.472 129.011 132.663C129.011 136.022 128.992 139.38 129.011 142.739C128.994 143.414 129.104 144.085 129.333 144.715C129.562 145.345 129.905 145.921 130.344 146.41C130.783 146.899 131.309 147.29 131.89 147.563C132.472 147.836 133.099 147.984 133.735 147.999C135.423 148.058 135.421 145.274 133.735 145.216Z" fill="#323232"/>
<path d="M148.189 166.413L148.024 172.684L148 173.587C148.003 173.961 148.152 174.318 148.415 174.582C148.678 174.847 149.034 174.997 149.406 175C149.776 174.993 150.129 174.842 150.392 174.578C150.654 174.315 150.804 173.959 150.811 173.587L150.976 167.316L151 166.413C150.997 166.039 150.848 165.682 150.585 165.418C150.322 165.153 149.966 165.003 149.594 165C149.224 165.007 148.871 165.158 148.609 165.422C148.347 165.685 148.196 166.041 148.189 166.413Z" fill="#323232"/>
<path d="M185.069 162.329L185.009 173.118L185 174.671C184.99 176.442 187.921 176.444 187.931 174.671L187.991 163.882L188 162.329C188.01 160.558 185.079 160.556 185.069 162.329Z" fill="#323232"/>
<path d="M136.754 117.663C136.754 109.467 139.994 101.607 145.76 95.8121C151.526 90.0169 159.346 86.7612 167.5 86.7612C175.654 86.7612 183.474 90.0169 189.24 95.8121C195.006 101.607 198.246 109.467 198.246 117.663C198.252 119.444 201.007 119.447 201 117.663C200.993 110.687 198.836 103.885 194.826 98.1906C190.715 92.3648 184.866 88.0039 178.127 85.7385C171.387 83.4731 164.105 83.4204 157.334 85.5881C150.562 87.7558 144.652 92.0316 140.458 97.7974C136.263 103.563 134.002 110.52 134 117.663C133.993 119.445 136.748 119.447 136.754 117.663Z" fill="#323232"/>
<path d="M195 159.334C195.005 163 195.012 166.666 195.023 170.332C195.042 177.678 195.07 185.024 195.107 192.369C195.128 196.135 195.156 199.901 195.192 203.666C195.211 205.442 198.019 205.447 198 203.666C197.926 196.57 197.896 189.473 197.869 182.376C197.844 175.986 197.826 169.595 197.814 163.205C197.812 161.915 197.81 160.624 197.808 159.334C197.805 157.557 194.998 157.554 195 159.334Z" fill="#323232"/>
<path d="M195 123C193.94 123.003 192.924 123.438 192.175 124.21C191.425 124.982 191.003 126.028 191 127.12V145.88C191 146.973 191.421 148.021 192.172 148.793C192.922 149.566 193.939 150 195 150C196.061 150 197.078 149.566 197.828 148.793C198.579 148.021 199 146.973 199 145.88V127.12C198.997 126.028 198.574 124.982 197.825 124.21C197.076 123.438 196.06 123.003 195 123Z" fill="white"/>
<path d="M195.482 122.001C194.747 122.017 194.021 122.179 193.348 122.48C192.674 122.78 192.065 123.213 191.556 123.752C191.047 124.291 190.648 124.927 190.382 125.623C190.116 126.319 189.987 127.061 190.004 127.807C189.995 129.462 190.004 131.118 190.004 132.773V145.948C190.004 148.646 191.427 151.202 194.179 151.861C194.988 152.047 195.828 152.046 196.638 151.86C197.447 151.673 198.205 151.305 198.855 150.782C199.506 150.259 200.033 149.596 200.397 148.839C200.761 148.083 200.954 147.253 200.961 146.412C201.049 142.474 200.961 138.523 200.961 134.584V128.138C201 127.267 200.873 126.395 200.589 125.572C200.182 124.531 199.479 123.636 198.57 123C197.661 122.364 196.587 122.017 195.482 122.001C193.7 121.948 193.702 124.756 195.482 124.809C196.141 124.818 196.774 125.065 197.268 125.506C197.763 125.947 198.086 126.552 198.18 127.213C198.204 127.555 198.209 127.898 198.192 128.241V145.429C198.192 146.886 198.06 148.378 196.492 149.02C195.875 149.265 195.192 149.274 194.57 149.046C193.947 148.818 193.427 148.369 193.107 147.781C192.857 147.265 192.742 146.693 192.773 146.119C192.762 142.359 192.773 138.6 192.773 134.84V128.636C192.773 128.278 192.758 127.917 192.773 127.56C192.784 126.834 193.073 126.141 193.579 125.628C194.084 125.114 194.767 124.821 195.482 124.809C197.26 124.756 197.268 121.948 195.482 122.001Z" fill="#323232"/>
<path d="M200.265 147.999C201.522 147.973 202.719 147.427 203.602 146.477C204.485 145.527 204.982 144.249 204.989 142.914C205.013 141.723 204.989 140.528 204.989 139.337C204.989 135.978 205.008 132.62 204.989 129.261C205.006 128.586 204.896 127.915 204.667 127.285C204.438 126.655 204.095 126.079 203.656 125.59C203.217 125.101 202.691 124.71 202.11 124.437C201.528 124.164 200.901 124.016 200.265 124.001C198.577 123.942 198.579 126.726 200.265 126.784C201.681 126.833 202.367 128.032 202.367 129.401V142.316C202.381 142.618 202.378 142.92 202.36 143.221C202.296 143.766 202.049 144.268 201.664 144.635C201.279 145.001 200.782 145.207 200.265 145.216C198.582 145.274 198.575 148.058 200.265 147.999Z" fill="#323232"/>
<path d="M168.632 91.1546C162.776 90.5103 156.876 91.8921 151.894 95.0753C148.031 97.5916 144.898 101.102 142.815 105.248C140.733 109.393 139.777 114.024 140.044 118.667C140.151 120.438 142.887 120.45 142.779 118.667C142.463 113.299 143.94 107.979 146.973 103.564C150.06 99.1512 154.578 95.9736 159.74 94.5843C162.635 93.793 165.654 93.5689 168.632 93.9241C168.994 93.9219 169.341 93.7754 169.597 93.5161C169.853 93.2569 169.998 92.9059 170 92.5393C169.992 92.1747 169.845 91.8273 169.59 91.5694C169.335 91.3115 168.992 91.1629 168.632 91.1546Z" fill="#323232"/>
<path d="M176.458 109.697C175.172 112.485 173.572 115.39 171.194 117.237C168.656 119.209 165.49 119.907 162.371 120.168C162.01 120.177 161.666 120.329 161.411 120.593C161.156 120.856 161.009 121.211 161 121.584C161.003 121.959 161.148 122.317 161.405 122.582C161.661 122.847 162.008 122.997 162.371 123C165.954 122.701 169.626 121.926 172.578 119.683C175.436 117.511 177.32 114.391 178.826 111.127C179 110.8 179.045 110.417 178.954 110.057C178.862 109.696 178.641 109.386 178.334 109.189C178.019 109.003 177.646 108.952 177.296 109.047C176.945 109.142 176.644 109.375 176.458 109.697Z" fill="#323232"/>
<path d="M166.367 108.631C163.699 112.64 160.311 116.11 156.378 118.861C153.118 121.104 149.334 122.971 145.334 123.202C143.561 123.304 143.55 126.1 145.334 125.997C149.829 125.738 154.096 123.808 157.776 121.275C162.103 118.258 165.828 114.447 168.759 110.041C169.763 108.549 167.364 107.149 166.367 108.631Z" fill="#323232"/>
<path d="M180.046 116.749C181.616 121.039 185.273 124.414 188.967 126.81C189.276 126.996 189.645 127.048 189.991 126.955C190.163 126.908 190.324 126.828 190.466 126.718C190.607 126.608 190.726 126.47 190.815 126.313C190.905 126.155 190.963 125.981 190.987 125.801C191.012 125.62 191.001 125.436 190.956 125.26C190.911 125.084 190.832 124.918 190.725 124.773C190.618 124.628 190.484 124.506 190.331 124.414C188.676 123.357 187.154 122.097 185.796 120.661C185.132 119.978 184.523 119.241 183.974 118.457C183.69 118.044 183.428 117.616 183.189 117.175C183.079 116.971 182.975 116.765 182.877 116.555C182.819 116.431 182.763 116.306 182.711 116.18C182.799 116.395 182.666 116.05 182.652 116.011C182.549 115.662 182.318 115.366 182.009 115.186C181.7 115.006 181.335 114.954 180.99 115.042C180.646 115.142 180.354 115.377 180.178 115.697C180.001 116.016 179.954 116.394 180.046 116.749Z" fill="#323232"/>
<path d="M176.997 96.7078C181.609 97.9002 185.733 100.457 188.809 104.031C191.884 107.605 193.761 112.021 194.184 116.678C194.332 118.433 197.143 118.448 196.994 116.678C196.559 111.42 194.475 106.423 191.029 102.372C187.582 98.3213 182.942 95.4148 177.744 94.0513C175.994 93.6003 175.247 96.2569 176.997 96.7078Z" fill="#323232"/>
<path d="M132.317 183.09C122.121 186.785 109.723 187.059 102.517 196.269C100.905 198.438 99.5449 200.784 98.4641 203.261C97.0142 206.346 95.646 209.469 94.2924 212.597C90.5943 221.142 87.0398 229.749 83.5337 238.374C81.7574 242.744 79.9982 247.12 78.2563 251.504C77.4615 253.505 76.6711 255.509 75.8854 257.514C75.0837 259.561 74.2571 261.532 74.0563 263.745C73.4055 270.918 78.5088 277.809 83.6609 282.29C83.7855 282.398 83.9104 282.506 84.0387 282.61C84.3039 282.861 84.6549 283 85.0197 283C85.3845 283 85.7355 282.861 86.0007 282.61C86.2584 282.349 86.4029 281.997 86.4029 281.63C86.4029 281.264 86.2584 280.912 86.0007 280.651C84.4457 279.355 83.0221 277.91 81.7505 276.336C79.382 273.477 77.2611 269.966 76.8519 266.207C76.6649 264.159 76.9901 262.096 77.7983 260.204C78.5248 258.338 79.2563 256.474 79.9927 254.612C81.6488 250.42 83.3225 246.236 85.0139 242.059C88.4514 233.561 91.9371 225.081 95.5448 216.653C96.9603 213.347 98.3919 210.046 99.8833 206.773C100.811 204.738 101.726 202.674 102.831 200.727C105.303 196.46 109.164 193.167 113.77 191.397C118.569 189.44 123.747 188.627 128.706 187.183C130.171 186.756 131.62 186.282 133.055 185.762C134.721 185.159 134.002 182.479 132.317 183.09L132.317 183.09Z" fill="#323232"/>
<path d="M168.5 239C167.368 239.014 166.266 239.37 165.341 240.023C164.416 240.676 163.711 241.594 163.319 242.657C162.945 243.706 162.899 244.844 163.186 245.92C163.474 246.997 164.081 247.96 164.928 248.684C165.602 249.259 166.406 249.663 167.269 249.861C168.133 250.059 169.032 250.045 169.889 249.821C170.747 249.597 171.538 249.17 172.194 248.575C172.851 247.979 173.354 247.234 173.66 246.403C173.967 245.572 174.068 244.678 173.955 243.8C173.842 242.921 173.519 242.082 173.012 241.355C172.505 240.628 171.83 240.034 171.045 239.624C170.259 239.214 169.386 239 168.5 239C168.139 239 167.793 239.143 167.538 239.398C167.283 239.654 167.139 240 167.139 240.36C167.139 240.721 167.283 241.067 167.538 241.322C167.793 241.577 168.139 241.721 168.5 241.721C168.616 241.722 168.73 241.729 168.845 241.735C169.105 241.748 168.874 241.738 168.822 241.728C169.005 241.761 169.186 241.804 169.364 241.856C169.469 241.889 169.573 241.926 169.675 241.966C169.626 241.947 169.433 241.845 169.649 241.963C169.842 242.068 170.025 242.176 170.208 242.296C170.475 242.473 170.119 242.167 170.23 242.316C170.292 242.382 170.359 242.442 170.43 242.498C170.495 242.562 170.839 242.968 170.644 242.709C170.752 242.853 170.851 243.004 170.939 243.162C170.975 243.225 171.005 243.291 171.041 243.354C171.169 243.578 170.994 243.157 171.095 243.483C171.15 243.66 171.206 243.834 171.244 244.017C171.261 244.095 171.288 244.347 171.258 244.045C171.267 244.14 171.275 244.235 171.279 244.33C171.287 244.524 171.271 244.713 171.264 244.906C171.255 245.125 171.335 244.59 171.256 244.936C171.231 245.045 171.209 245.153 171.179 245.261C171.149 245.368 171.111 245.471 171.077 245.576C171.054 245.647 170.962 245.786 171.088 245.555C171.001 245.714 170.926 245.878 170.828 246.032C170.78 246.107 170.721 246.178 170.676 246.255C170.573 246.426 170.887 246.04 170.652 246.275C170.5 246.428 170.343 246.575 170.189 246.726C170.371 246.548 170.272 246.669 170.208 246.711C170.117 246.771 170.029 246.832 169.936 246.888C169.855 246.936 169.369 247.161 169.675 247.041C169.504 247.109 169.329 247.165 169.15 247.211C169.078 247.229 169.005 247.242 168.932 247.259C168.666 247.32 169.149 247.251 168.788 247.276C168.615 247.288 168.442 247.289 168.269 247.28C168.205 247.277 167.846 247.212 168.178 247.279C168.105 247.264 168.031 247.253 167.958 247.236C167.777 247.196 167.603 247.137 167.427 247.08C167.094 246.972 167.653 247.218 167.35 247.044C167.256 246.99 167.157 246.944 167.064 246.888C166.986 246.842 166.912 246.79 166.836 246.741C166.768 246.698 166.597 246.535 166.81 246.726C166.676 246.606 166.543 246.488 166.42 246.355C166.416 246.351 166.18 246.088 166.317 246.246C166.451 246.401 166.236 246.13 166.231 246.122C166.112 245.94 166.006 245.751 165.912 245.555C165.934 245.6 166.004 245.815 165.923 245.576C165.887 245.472 165.851 245.368 165.821 245.261C165.801 245.19 165.783 245.118 165.767 245.045C165.765 245.039 165.7 244.678 165.733 244.894C165.766 245.11 165.723 244.741 165.723 244.735C165.718 244.639 165.716 244.542 165.717 244.446C165.719 244.35 165.727 244.254 165.731 244.158C165.742 243.84 165.673 244.352 165.744 244.072C165.799 243.855 165.854 243.644 165.923 243.431C166.023 243.12 165.82 243.554 165.935 243.403C166.001 243.295 166.061 243.183 166.115 243.068C166.152 243.006 166.191 242.945 166.231 242.885C166.271 242.825 166.313 242.766 166.356 242.709C166.253 242.841 166.25 242.849 166.347 242.733C166.474 242.606 166.601 242.479 166.728 242.351C166.972 242.107 166.503 242.487 166.792 242.296C166.883 242.237 166.97 242.175 167.064 242.119C167.157 242.063 167.256 242.017 167.35 241.963C167.594 241.824 167.135 242.022 167.427 241.927C167.64 241.858 167.85 241.803 168.068 241.748C168.134 241.731 168.326 241.723 168.041 241.746C168.194 241.734 168.346 241.723 168.5 241.721C168.861 241.721 169.207 241.577 169.462 241.322C169.717 241.067 169.86 240.721 169.86 240.36C169.86 240 169.717 239.654 169.462 239.398C169.207 239.143 168.861 239 168.5 239H168.5Z" fill="#323232"/>
<path d="M93.9872 255.821C97.4226 257.198 100.858 258.574 104.294 259.951C104.639 260.049 105.008 259.999 105.319 259.811C105.631 259.623 105.86 259.313 105.958 258.947C106.045 258.58 105.996 258.191 105.82 257.861C105.644 257.532 105.355 257.287 105.013 257.179C101.577 255.802 98.142 254.426 94.7065 253.049C94.3606 252.951 93.9922 253.001 93.6808 253.189C93.3695 253.377 93.1402 253.687 93.0423 254.053C92.9548 254.42 93.0042 254.809 93.1803 255.139C93.3563 255.468 93.6455 255.713 93.9872 255.821Z" fill="#323232"/>
<path d="M2 238H8.73995L28.4335 174.782H97V169H24.1656L2 238Z" fill="white"/>
<path d="M2.41273 239H9.16687C9.46976 238.995 9.76311 238.894 10.0041 238.711C10.2452 238.529 10.4213 238.275 10.507 237.986L12.4651 231.697L17.1692 216.587L22.8889 198.216L27.8118 182.403L29.4297 177.207C29.733 176.389 29.9926 175.555 30.2074 174.709C30.2168 174.672 30.2283 174.635 30.2416 174.599L28.9015 175.613H89.1183C91.9002 175.613 94.7091 175.726 97.4893 175.613C97.5295 175.611 97.5701 175.613 97.6103 175.613C97.9772 175.608 98.3277 175.461 98.5872 175.203C98.8467 174.945 98.9948 174.597 99 174.232V168.434C98.9948 168.07 98.8467 167.721 98.5872 167.464C98.3277 167.206 97.9772 167.059 97.6103 167.053H33.6298C30.6777 167.053 27.6967 166.933 24.7463 167.053C24.7059 167.055 24.6651 167.053 24.6246 167.053C24.3218 167.059 24.0286 167.16 23.7876 167.342C23.5466 167.525 23.3704 167.779 23.2845 168.067L21.0714 174.96L15.7582 191.509L9.3595 211.44L3.80524 228.74C2.91135 231.524 1.85245 234.308 1.10953 237.137C1.09935 237.175 1.08491 237.214 1.07264 237.252C0.527689 238.949 3.21023 239.676 3.75273 237.986L5.9658 231.093L11.2789 214.544L17.6777 194.613L23.232 177.313L25.0558 171.632C25.3927 170.742 25.6837 169.836 25.9277 168.917C25.9381 168.878 25.9503 168.839 25.9646 168.802L24.6246 169.815H94.6151C95.5722 169.866 96.5314 169.866 97.4886 169.815C97.5291 169.813 97.5697 169.813 97.6103 169.815L96.2206 168.434V174.232L97.6103 172.851H37.3934C34.6115 172.851 31.8028 172.738 29.0225 172.851C28.9823 172.853 28.9418 172.851 28.9015 172.851C28.5987 172.856 28.3053 172.957 28.0643 173.14C27.8232 173.322 27.6471 173.576 27.5615 173.865L25.6034 180.154L20.8993 195.264L15.1795 213.635L10.2566 229.448L8.63869 234.644C8.33546 235.462 8.07585 236.296 7.86105 237.142C7.85158 237.179 7.84015 237.216 7.82678 237.252L9.16687 236.238H2.41264C0.624257 236.238 0.621341 239 2.41273 239Z" fill="#323232"/>
<path d="M62.0549 275H1V283H62.0549C63.1012 283 64.1047 282.579 64.8445 281.828C65.5844 281.078 66 280.061 66 279C66 277.939 65.5844 276.922 64.8445 276.172C64.1047 275.421 63.1012 275 62.0549 275Z" fill="white"/>
<path d="M62.6686 273.001H1.38827C1.0217 273.006 0.671628 273.158 0.412398 273.425C0.153168 273.691 0.00521519 274.051 0 274.427V282.565C0.00521519 282.942 0.153168 283.301 0.412398 283.568C0.671628 283.834 1.0217 283.986 1.38827 283.992H60.1295C60.966 283.992 61.8047 284.011 62.641 283.992C63.5965 283.985 64.5336 283.721 65.3584 283.225C66.1833 282.73 66.8669 282.02 67.3408 281.168C67.9334 280.052 68.1347 278.762 67.9112 277.512C67.6877 276.262 67.0528 275.129 66.1131 274.303C65.1433 273.478 63.9278 273.018 62.6686 273.001C60.8813 272.946 60.8829 275.799 62.6686 275.854C63.1184 275.861 63.5588 275.988 63.9463 276.223C64.3339 276.458 64.6554 276.792 64.8793 277.193C65.1032 277.594 65.2219 278.048 65.2235 278.51C65.2252 278.972 65.1098 279.427 64.8888 279.83C64.6463 280.243 64.301 280.582 63.8886 280.812C63.4762 281.042 63.0115 281.154 62.5426 281.138C61.6231 281.148 60.7031 281.138 59.7836 281.138H4.27336C3.3543 281.09 2.43342 281.09 1.51436 281.138C1.47238 281.141 1.43025 281.141 1.38827 281.138L2.77655 282.565V274.427L1.38827 275.854H54.9997C57.5109 275.854 60.0488 275.964 62.5583 275.854C62.5949 275.852 62.6318 275.854 62.6686 275.854C64.4551 275.854 64.4581 273.001 62.6686 273.001Z" fill="#323232"/>
<path d="M10 235H1V275H10V235Z" fill="white"/>
<path d="M1.41186 275H10.5881C10.9609 274.995 11.317 274.849 11.5806 274.593C11.8442 274.337 11.9947 273.991 12 273.628V234.372C11.9947 234.009 11.8442 233.663 11.5806 233.407C11.317 233.151 10.9609 233.005 10.5881 233H1.41186C1.03906 233.005 0.683037 233.151 0.419403 233.407C0.15577 233.663 0.00530378 234.009 0 234.372V273.628C0 275.393 2.82371 275.396 2.82371 273.628V234.372L1.41186 235.743H10.5881L9.17629 234.372V273.628L10.5881 272.257H1.41186C-0.405069 272.257 -0.408076 275 1.41186 275Z" fill="#323232"/>
<path d="M85.3448 82.7131C92.1705 71.6743 88.7526 57.196 77.7108 50.3751C66.669 43.5541 52.1846 46.9734 45.359 58.0123C38.5333 69.0512 41.9511 83.5295 52.9929 90.3504C64.0347 97.1714 78.5192 93.752 85.3448 82.7131Z" fill="white"/>
<path d="M65.0364 45C58.578 44.9906 52.3666 47.481 47.7034 51.9493C43.0403 56.4176 40.2873 62.5172 40.0212 68.9701C39.7552 75.423 41.9967 81.7285 46.2762 86.5656C50.5556 91.4026 56.541 94.3958 62.9783 94.9181C69.4155 95.4403 75.8051 93.4512 80.8084 89.3673C85.8116 85.2834 89.0403 79.4217 89.818 73.0103C90.5957 66.5989 88.862 60.1353 84.9802 54.9737C81.0984 49.8121 75.3696 46.353 68.9942 45.3211C67.6846 45.1171 66.3617 45.0097 65.0364 45C63.2502 44.991 63.248 47.7664 65.0364 47.7754C70.7448 47.7963 76.2234 50.0263 80.3237 53.9978C84.4241 57.9693 86.8278 63.374 87.0308 69.0788C87.2339 74.7836 85.2206 80.3455 81.4129 84.5985C77.6053 88.8514 72.299 91.4653 66.6066 91.8919C60.9142 92.3186 55.2776 90.525 50.8785 86.8872C46.4794 83.2493 43.6595 78.0497 43.0098 72.3784C42.3602 66.7071 43.9313 61.0045 47.3937 56.4661C50.8562 51.9277 55.9412 48.9059 61.5827 48.0343C62.7254 47.858 63.8802 47.7715 65.0364 47.7754C66.8218 47.7664 66.8255 44.991 65.0364 45Z" fill="#323232"/>
<path d="M52.6954 64.4726L63.3577 70.0293L64.879 70.8222C66.4703 71.6515 67.8966 69.3571 66.3046 68.5274L55.6423 62.9707L54.121 62.1778C52.5297 61.3485 51.1034 63.6429 52.6954 64.4726Z" fill="#323232"/>
<path d="M64 53.3467V70.6533C64 72.4474 67 72.4504 67 70.6533V53.3467C67 51.5526 64 51.5496 64 53.3467Z" fill="#323232"/>
<path d="M298.166 269.251C295.077 260.838 293.139 252.05 292.403 243.123C291.511 233.752 291.589 224.314 292.636 214.959C293.165 210.162 294.026 205.407 295.211 200.728H292.523C295.298 209.016 297.249 217.557 298.347 226.225C299.59 235.288 299.914 244.453 299.314 253.581C299.003 258.27 298.307 262.926 297.234 267.502C297.15 267.852 297.206 268.221 297.39 268.531C297.574 268.841 297.872 269.068 298.22 269.163C298.569 269.259 298.941 269.216 299.258 269.044C299.576 268.872 299.814 268.583 299.922 268.24C303.392 257.108 306.936 245.784 313.279 235.881C315.089 233.012 317.204 230.345 319.586 227.925L317.206 226.944C316.089 238.418 312.001 249.255 306.033 259.08C304.424 261.729 302.695 264.302 300.887 266.821C300.703 267.139 300.653 267.517 300.747 267.872C300.84 268.227 301.07 268.532 301.387 268.72C301.708 268.898 302.086 268.945 302.441 268.852C302.796 268.76 303.102 268.534 303.294 268.222C310.016 258.856 315.539 248.574 318.266 237.324C319.085 233.908 319.662 230.44 319.994 226.944C320.114 225.708 318.411 225.165 317.615 225.962C308.727 234.87 303.874 247.151 299.979 258.865C299.026 261.732 298.133 264.618 297.234 267.502L299.922 268.24C301.996 259.6 302.574 250.619 302.357 241.758C302.119 232.458 301.018 223.2 299.067 214.101C298.06 209.326 296.772 204.614 295.211 199.99C294.787 198.747 292.879 198.596 292.523 199.99C290.337 208.852 289.17 217.934 289.044 227.059C288.797 236.597 289.586 246.134 291.397 255.503C292.345 260.438 293.71 265.283 295.477 269.989C295.584 270.338 295.822 270.634 296.141 270.814C296.46 270.994 296.836 271.046 297.192 270.958C297.547 270.858 297.848 270.623 298.03 270.303C298.212 269.984 298.261 269.606 298.166 269.251V269.251Z" fill="#323232"/>
<path d="M292.957 265.459C291.115 253.246 286.198 241.683 278.653 231.827C276.422 228.867 274.004 226.049 271.413 223.389C271.213 223.201 270.961 223.074 270.689 223.024C270.417 222.974 270.137 223.003 269.881 223.107C269.625 223.211 269.406 223.387 269.25 223.612C269.093 223.837 269.007 224.102 269 224.374C269.901 237.702 274.534 250.523 282.384 261.41C284.675 264.63 287.191 267.689 289.912 270.566C291.154 271.882 293.149 269.908 291.91 268.596C282.938 259.093 276.236 247.486 273.316 234.778C272.53 231.357 272.032 227.877 271.827 224.374L269.414 225.359C277.973 234.147 284.65 244.766 288.127 256.498C289.068 259.677 289.771 262.92 290.231 266.2C290.333 266.555 290.573 266.856 290.898 267.038C291.223 267.221 291.609 267.269 291.97 267.173C292.326 267.066 292.627 266.829 292.811 266.51C292.994 266.191 293.047 265.815 292.957 265.459V265.459Z" fill="#323232"/>
<path d="M279.768 281.306L279.835 276.177L279.872 273.356C279.834 272.957 279.895 272.555 280.049 272.185C280.203 271.815 280.445 271.489 280.755 271.236C281.522 270.672 282.641 270.828 283.542 270.827L288.517 270.818L302.42 270.794L307.716 270.785C308.503 270.742 309.291 270.743 310.078 270.789C312.469 271.061 312.016 274.099 312.065 275.802L312.231 281.657C312.282 283.444 315.05 283.451 314.999 281.657L314.847 276.301C314.79 274.291 315.069 271.827 313.857 270.104C312.672 268.421 310.889 267.997 308.98 268L304.202 268.008L289.739 268.033L284.035 268.043C283.001 267.977 281.962 268.019 280.936 268.168C279.921 268.406 279.008 268.959 278.325 269.75C277.642 270.541 277.226 271.528 277.134 272.571C277.062 273.34 277.094 274.127 277.084 274.899L277 281.306C276.977 283.098 279.745 283.099 279.768 281.306Z" fill="#323232"/>
<path d="M221.666 275.061H125.737C121.339 275.061 116.919 274.924 112.523 275.061C112.46 275.063 112.397 275.061 112.334 275.061C110.557 275.061 110.554 277.939 112.334 277.939H208.264C212.661 277.939 217.081 278.076 221.477 277.939C221.54 277.937 221.603 277.939 221.666 277.939C223.443 277.939 223.446 275.061 221.666 275.061Z" fill="#323232"/>
<path d="M144.674 174.545C146.969 176.227 149.083 178.146 151.433 179.755C153.78 181.36 156.445 182.452 159.252 182.959C159.605 183.045 159.979 182.995 160.295 182.817C160.612 182.639 160.847 182.348 160.953 182.004C161.047 181.654 160.999 181.282 160.818 180.967C160.638 180.652 160.339 180.42 159.987 180.321C157.353 179.852 154.856 178.816 152.672 177.285C150.388 175.697 148.313 173.827 146.069 172.184C145.752 172.003 145.376 171.953 145.022 172.045C144.668 172.137 144.364 172.363 144.178 172.674C144.001 172.989 143.954 173.36 144.046 173.708C144.139 174.057 144.363 174.357 144.674 174.545Z" fill="#323232"/>
<path d="M139.419 187.294C143.138 190.801 147.868 193.102 151.585 196.608C152.877 197.827 154.875 195.926 153.581 194.706C149.862 191.199 145.132 188.898 141.415 185.392C140.123 184.173 138.125 186.074 139.419 187.294Z" fill="#323232"/>
<path d="M153.781 195.993C154.998 192.634 156.326 189.288 157.822 186.059C158 185.743 158.047 185.373 157.952 185.024C157.858 184.675 157.629 184.375 157.314 184.184C156.989 184.003 156.604 183.953 156.241 184.045C155.879 184.137 155.568 184.364 155.377 184.676C153.773 188.136 152.347 191.685 151.051 195.264C151.001 195.438 150.988 195.619 151.011 195.798C151.034 195.977 151.093 196.149 151.185 196.306C151.277 196.462 151.399 196.6 151.546 196.711C151.693 196.821 151.861 196.903 152.04 196.951C152.219 196.999 152.406 197.012 152.591 196.99C152.776 196.967 152.954 196.91 153.115 196.821C153.277 196.732 153.419 196.613 153.534 196.471C153.648 196.329 153.732 196.167 153.781 195.993Z" fill="#323232"/>
<path d="M159.198 182.106C161.721 186.473 164.195 190.882 166.458 195.385C167.083 196.574 167.644 197.795 168.138 199.043C168.765 200.73 171.54 200.001 170.907 198.295C169.811 195.585 168.534 192.948 167.083 190.403C165.645 187.711 164.16 185.043 162.651 182.389C162.328 181.821 162.003 181.253 161.677 180.687C160.767 179.112 158.286 180.527 159.198 182.106Z" fill="#323232"/>
<path d="M170.775 198.057C171.876 194.995 173.009 191.944 174.174 188.904C174.564 187.89 174.961 186.879 175.365 185.87C175.739 184.944 175.94 184.446 176.29 183.674C176.416 183.395 176.544 183.116 176.687 182.845C176.738 182.749 176.8 182.655 176.847 182.557C177.013 182.206 176.788 182.629 176.781 182.616C176.733 182.526 176.856 182.687 176.787 182.613C176.803 182.63 176.939 182.538 177.067 182.481C177.459 182.324 177.865 182.206 178.28 182.129C179.138 181.937 180.014 181.834 180.871 181.636C184.905 180.702 188.109 177.425 190.609 174.349C190.86 174.086 191 173.737 191 173.375C191 173.012 190.86 172.663 190.609 172.4C190.346 172.144 189.992 172 189.623 172C189.254 172 188.9 172.144 188.638 172.4C186.441 175.103 183.692 178.147 180.13 178.977C178.473 179.363 176.599 179.403 175.15 180.396C174.696 180.749 174.346 181.215 174.134 181.747C172.279 185.539 170.918 189.612 169.46 193.563C168.998 194.815 168.54 196.069 168.087 197.324C167.485 198.999 170.177 199.72 170.775 198.057V198.057Z" fill="#323232"/>
<path d="M148.213 166.043C146.157 166.51 143.754 166.84 142.261 168.431C141.198 169.563 141.049 171.056 140.634 172.46C140.304 173.576 140.032 174.707 139.706 175.823C139.237 177.333 138.684 178.817 138.049 180.271C137.951 180.621 138.001 180.995 138.188 181.311C138.376 181.626 138.686 181.859 139.051 181.958C139.418 182.046 139.805 181.995 140.134 181.817C140.463 181.638 140.707 181.346 140.815 181C141.388 179.627 141.956 178.246 142.39 176.826C142.691 175.838 142.927 174.832 143.21 173.839C143.403 173.166 143.597 172.497 143.76 171.816C143.841 171.327 144.008 170.855 144.255 170.419C144.377 170.272 144.518 170.139 144.674 170.025C145.027 169.787 145.411 169.596 145.817 169.455C146.852 169.137 147.907 168.881 148.975 168.688C150.77 168.279 150.01 165.634 148.213 166.043V166.043Z" fill="#323232"/>
<path d="M188.37 169.722C189.847 169.681 191.296 170.008 192.051 171.308C192.092 171.378 192.361 171.958 192.204 171.588C192.246 171.688 192.286 171.789 192.326 171.89C192.433 172.164 192.53 172.442 192.625 172.72C192.846 173.372 193.049 174.03 193.253 174.688C193.706 176.153 194.147 177.625 194.689 179.063C195.09 180.345 195.734 181.547 196.589 182.609C196.857 182.86 197.217 183 197.592 183C197.968 183 198.328 182.86 198.596 182.609C198.855 182.352 199 182.01 199 181.654C199 181.298 198.855 180.955 198.596 180.699C198.464 180.552 198.709 180.901 198.506 180.579C198.434 180.465 198.358 180.355 198.29 180.24C198.124 179.955 197.973 179.662 197.837 179.363C197.762 179.2 197.633 178.883 197.512 178.57C197.373 178.211 197.242 177.849 197.116 177.486C196.588 175.97 196.142 174.43 195.656 172.901C195.324 171.464 194.672 170.112 193.743 168.936C193.049 168.263 192.208 167.742 191.28 167.411C190.351 167.08 189.358 166.946 188.37 167.02C186.547 167.07 186.54 169.772 188.37 169.722V169.722Z" fill="#323232"/>
<path d="M177.149 187.202L180.544 194.319C180.727 194.633 181.025 194.862 181.373 194.955C181.721 195.047 182.092 194.996 182.403 194.813L195.472 184.972L197.342 183.564C197.644 183.372 197.864 183.07 197.954 182.72C198.045 182.369 198 181.997 197.829 181.679C197.645 181.365 197.347 181.138 197 181.045C196.652 180.953 196.282 181.003 195.97 181.185L182.902 191.026L181.032 192.434L182.89 192.928L179.495 185.811C178.734 184.216 176.39 185.611 177.149 187.202Z" fill="#323232"/>
<path d="M195.214 150.943C191.96 159.652 183.35 166.346 174.029 167.173C173.682 167.219 173.332 167.242 172.982 167.241C172.963 167.24 172.634 167.224 172.641 167.215C172.694 167.145 172.746 167.733 172.773 167.744C172.804 167.756 173.341 167.321 173.473 167.247C173.972 166.914 174.555 166.728 175.155 166.711C175.24 166.724 175.357 166.758 175.434 166.766C175.465 166.769 175.49 166.96 175.5 166.956C175.244 167.04 175.99 166.301 175.473 166.705C175.213 166.967 175.068 167.321 175.068 167.689C175.068 168.057 175.213 168.411 175.473 168.673C175.739 168.925 176.093 169.066 176.46 169.066C176.828 169.066 177.181 168.925 177.447 168.673C178.815 167.604 178.32 165.471 177.078 164.533C175.623 163.435 173.517 164.033 172.064 164.845C170.836 165.532 169.607 166.84 170.119 168.344C170.783 170.292 173.162 170.072 174.785 169.877C181.375 169.042 187.467 165.946 192.016 161.121C194.594 158.4 196.597 155.191 197.906 151.683C198.534 150.003 195.836 149.277 195.214 150.943V150.943Z" fill="#323232"/>
</svg>
