<svg width="117" height="80" viewBox="0 0 117 80" fill="none" xmlns="http://www.w3.org/2000/svg">
<g clip-path="url(#clip0)">
<path d="M113.921 10.0016H2.52344V75.8045H113.921V10.0016Z" fill="white"/>
<path d="M2.52326 78.3066H113.921C114.587 78.2972 115.224 78.0306 115.695 77.5634C116.166 77.0962 116.435 76.4652 116.444 75.8046V10.0017C116.435 9.34102 116.166 8.71006 115.695 8.24285C115.224 7.77565 114.587 7.50903 113.921 7.49963H2.52326C1.857 7.50903 1.22069 7.77565 0.749525 8.24285C0.27836 8.71006 0.00947571 9.34102 0 10.0017V75.8046C0 79.0245 5.04653 79.0298 5.04653 75.8046V10.0017L2.52326 12.5037H113.921L111.398 10.0017V75.8046L113.921 73.3025H2.52326C-0.723924 73.3025 -0.729314 78.3066 2.52326 78.3066Z" fill="#323232"/>
<path d="M113.921 20.6072H2.52344V36.5201H113.921V20.6072Z" fill="#F2E98C"/>
<path d="M2.52326 39.0221H113.921C114.587 39.0127 115.224 38.746 115.695 38.2788C116.166 37.8116 116.435 37.1807 116.444 36.52V20.6071C116.435 19.9465 116.166 19.3155 115.695 18.8483C115.224 18.3811 114.587 18.1145 113.921 18.1051H2.52326C1.857 18.1145 1.22069 18.3811 0.749525 18.8483C0.27836 19.3155 0.00947571 19.9465 0 20.6071V36.52C0 39.7399 5.04653 39.7452 5.04653 36.52V20.6071L2.52326 23.1092H113.921L111.398 20.6071V36.52L113.921 34.018H2.52326C-0.723924 34.018 -0.729314 39.0221 2.52326 39.0221Z" fill="#323232"/>
<path d="M20.0485 33.9519V21.372C20.0485 18.1521 15.002 18.1468 15.002 21.372V33.9519C15.002 37.1718 20.0485 37.1772 20.0485 33.9519Z" fill="#323232"/>
<path d="M34.735 33.9519V21.372C34.735 18.1521 29.6885 18.1468 29.6885 21.372V33.9519C29.6885 37.1718 34.735 37.1772 34.735 33.9519Z" fill="#323232"/>
<path d="M87.3239 33.9519V21.372C87.3239 18.1521 82.2773 18.1468 82.2773 21.372V33.9519C82.2773 37.1718 87.3239 37.1772 87.3239 33.9519Z" fill="#323232"/>
<path d="M102.01 33.9519V21.372C102.01 18.1521 96.9639 18.1468 96.9639 21.372V33.9519C96.9639 37.1718 102.01 37.1772 102.01 33.9519Z" fill="#323232"/>
<path d="M113.921 49.0573H2.52344V64.9699H113.921V49.0573Z" fill="#F2E98C"/>
<path d="M2.52326 67.472H113.921C114.587 67.4626 115.224 67.196 115.695 66.7288C116.166 66.2616 116.435 65.6306 116.444 64.97V49.0573C116.435 48.3967 116.166 47.7657 115.695 47.2985C115.224 46.8313 114.587 46.5647 113.921 46.5553H2.52326C1.857 46.5647 1.22069 46.8313 0.749525 47.2985C0.27836 47.7657 0.00947571 48.3967 0 49.0573V64.97C0 68.1898 5.04653 68.1952 5.04653 64.97V49.0573L2.52326 51.5594H113.921L111.398 49.0573V64.97L113.921 62.4679H2.52326C-0.723924 62.4679 -0.729314 67.472 2.52326 67.472Z" fill="#323232"/>
<path d="M20.0485 62.402V49.8221C20.0485 46.6022 15.002 46.5968 15.002 49.8221V62.402C15.002 65.6219 20.0485 65.6272 20.0485 62.402Z" fill="#323232"/>
<path d="M34.735 62.402V49.8221C34.735 46.6022 29.6885 46.5968 29.6885 49.8221V62.402C29.6885 65.6219 34.735 65.6272 34.735 62.402Z" fill="#323232"/>
<path d="M87.3239 62.402V49.8221C87.3239 46.6022 82.2773 46.5968 82.2773 49.8221V62.402C82.2773 65.6219 87.3239 65.6272 87.3239 62.402Z" fill="#323232"/>
<path d="M102.01 62.402V49.8221C102.01 46.6022 96.9639 46.5968 96.9639 49.8221V62.402C96.9639 65.6219 102.01 65.6272 102.01 62.402Z" fill="#323232"/>
<path d="M70.715 2.50208H45.7295V77.498H70.715V2.50208Z" fill="white"/>
<path d="M45.7298 80H70.7153C71.3815 79.9906 72.0178 79.724 72.489 79.2568C72.9602 78.7896 73.229 78.1586 73.2385 77.4979V2.50204C73.229 1.84138 72.9602 1.21042 72.489 0.74322C72.0178 0.276018 71.3815 0.00939601 70.7153 0H45.7298C45.0635 0.00939601 44.4272 0.276018 43.9561 0.74322C43.4849 1.21042 43.216 1.84138 43.2065 2.50204V77.4979C43.2065 80.7178 48.2531 80.7232 48.2531 77.4979V2.50204L45.7298 5.00408H70.7153L68.192 2.50204V77.4979L70.7153 74.9959H45.7298C42.4826 74.9959 42.4772 80 45.7298 80Z" fill="#323232"/>
<path d="M58.2222 7.10826C53.3376 7.35284 49.2129 11.0115 49.2129 16.0418C49.2129 18.4112 50.1621 20.6835 51.8517 22.3588C53.5413 24.0342 55.8328 24.9754 58.2223 24.9754C60.6117 24.9754 62.9033 24.0342 64.5928 22.3588C66.2824 20.6835 67.2316 18.4112 67.2316 16.0418C67.2316 11.0117 63.1066 7.35282 58.2222 7.10826C54.9762 6.94573 54.985 11.9502 58.2222 12.1123C63.2852 12.3658 63.3699 19.9713 58.2222 19.9713C53.0732 19.9713 53.1583 12.3659 58.2222 12.1123C61.4541 11.9505 61.4736 6.94545 58.2222 7.10826Z" fill="#323232"/>
<path d="M60.7169 77.0141V59.1119C60.7169 55.892 55.6704 55.8866 55.6704 59.1119V77.0141C55.6704 80.234 60.7169 80.2394 60.7169 77.0141Z" fill="#323232"/>
<path d="M48.5502 60.6462H67.8372C71.0844 60.6462 71.0898 55.6421 67.8372 55.6421H48.5502C45.303 55.6421 45.2976 60.6462 48.5502 60.6462Z" fill="#323232"/>
</g>
<defs>
<clipPath id="clip0">
<rect width="116.444" height="80" fill="white"/>
</clipPath>
</defs>
</svg>
