<svg id="レイヤー_1" data-name="レイヤー 1" xmlns="http://www.w3.org/2000/svg" xmlns:xlink="http://www.w3.org/1999/xlink" viewBox="0 0 1367.89754 793.38926"><defs><style>.cls-1{fill:none;}.cls-2{fill:#fff;}.cls-3{fill:#ffc8c8;}.cls-4{fill:#ffdc50;}.cls-5{fill:#ffebd7;}.cls-6{fill:url(#新規パターンスウォッチ_2);}.cls-7{fill:url(#新規パターンスウォッチ_2-5);}.cls-8{fill:url(#新規パターン1_2);}.cls-9{fill:#b4e6e6;}.cls-10{fill:url(#新規パターン1_2-3);}.cls-11{fill:#f2e98c;}.cls-12{fill:#323232;}</style><pattern id="新規パターンスウォッチ_2" data-name="新規パターンスウォッチ 2" width="12.5" height="12.5" patternTransform="matrix(1.24265, -1.20579, 1.24265, 1.20579, 933.2326, 3789.21768)" patternUnits="userSpaceOnUse" viewBox="0 0 12.5 12.5"><rect class="cls-1" width="12.5" height="12.5"/><rect class="cls-2" x="0.00003" y="-0.0001" width="12.49997" height="12.50001"/><circle class="cls-4" cx="6.25003" cy="6.24991" r="2.43056"/></pattern><pattern id="新規パターンスウォッチ_2-5" data-name="新規パターンスウォッチ 2" width="12.5" height="12.5" patternTransform="matrix(1.24265, -1.20579, 1.24265, 1.20579, 926.00174, 3788.23026)" patternUnits="userSpaceOnUse" viewBox="0 0 12.5 12.5"><rect class="cls-1" width="12.5" height="12.5"/><rect class="cls-2" x="0.00003" y="-0.0001" width="12.49997" height="12.50001"/><circle class="cls-4" cx="6.25003" cy="6.24991" r="2.43056"/></pattern><pattern id="新規パターン1_2" data-name="新規パターン1 2" width="12.5" height="12.5" patternTransform="matrix(1.24265, -1.20579, 1.24265, 1.20579, 192.89614, 3689.52366)" patternUnits="userSpaceOnUse" viewBox="0 0 12.5 12.5"><rect class="cls-1" width="12.5" height="12.5"/><rect class="cls-2" x="0.00005" y="-0.0001" width="12.50005" height="12.49996"/><circle class="cls-3" cx="6.25005" cy="6.24985" r="2.43056"/></pattern><pattern id="新規パターン1_2-3" data-name="新規パターン1 2" width="12.5" height="12.5" patternTransform="matrix(1.24265, -1.20579, 1.24265, 1.20579, 200.127, 3690.51108)" patternUnits="userSpaceOnUse" viewBox="0 0 12.5 12.5"><rect class="cls-1" width="12.5" height="12.5"/><rect class="cls-2" x="0.00005" y="-0.0001" width="12.50005" height="12.49996"/><circle class="cls-3" cx="6.25005" cy="6.24985" r="2.43056"/></pattern></defs><path class="cls-5" d="M42.8156,591.738c5.9707,3.1364,9.7171,8.8773,13.6109,14.1459,2.9004,3.9245,6.3867,7.6498,9.0639,11.8096,2.0086,2.0814,4.4502,3.6201,7.5376,2.7395a8.948,8.948,0,0,0,5.8225-5.4853c.8062-2.6344-1.1914-4.565-2.5879-6.6781-2.2558-3.4137-4.6367-6.7456-7.0739-10.0317-4.2945-5.791-8.7327-12.2606-14.1844-17.0486-2.0246-1.7784-6.9382-3.6429-10.2946-1.3103-3.2019,2.2249-4.9483,7.5277-3.4326,11.1376C41.7993,591.23856,42.3151,591.475,42.8156,591.738Z"/><path class="cls-5" d="M604.0422,583.56256a5.37164,5.37164,0,0,0-1.7341-.65c-1.6282-.21-1.2068-.2884-2.5301.3856,1.1131-.5669-2.2368,1.5112-2.7881,1.9475a44.41249,44.41249,0,0,0-5.1159,4.9473c-.169.1848-.3286.3781-.4959.5647a16.70309,16.70309,0,0,1,2.6787,1.3581,13.337,13.337,0,0,1,5.67,6.341,37.88162,37.88162,0,0,0,4.292-9.2091,13.44208,13.44208,0,0,0,.5283-4.5174C604.3693,583.91246,603.8662,583.44306,604.0422,583.56256Z"/><path class="cls-5" d="M77.0078,592.096c3.447,4.6032,7.9531,9.7225,10.2876,15.1785,5.8806-1.9558,10.7834-7.6073,8.0959-13.9989a92.07164,92.07164,0,0,0-8.5273-14.9239c-3.1956-4.7826-7.6382-11.407-13.4129-13.2821-5.1394-1.6691-11.9905,4.489-10.5859,9.6928C68.498,579.67536,72.965,586.69736,77.0078,592.096Z"/><path class="cls-2" d="M1036.9083,379.84176c3.4669,5.638,8.2425,10.9572,14.6278,10.9342,6.3686-.0232,11.1035-5.3767,14.5316-11.0364Q1051.488,379.79071,1036.9083,379.84176Z"/><path class="cls-5" d="M705.4826,526.12986a13.1865,13.1865,0,0,1,2.521-.9943,54.0345,54.0345,0,0,0-6.656-5.063,35.8405,35.8405,0,0,0-5.5061-2.9324c-.3032-.1244-1.3894-.2666-1.3227-.2807-2.0884-.1287-3.0535.165-4.1106,1.4151.1091-.0958-.2417.4809-.261.5905-.1992,1.1402-.2661.4621-.1975,1.7748a16.60439,16.60439,0,0,0,1.6699,5.6463,48.541,48.541,0,0,0,5.8213,9.2527C698.2949,531.89656,700.7133,528.63926,705.4826,526.12986Z"/><path class="cls-2" d="M287.3378,382.39236c6.0357,7.5454,15.2259,15.6276,22.4373,9.0216a33.74394,33.74394,0,0,0,7.1997-10.3619Q302.15645,381.72226,287.3378,382.39236Z"/><path class="cls-4" d="M1064.1268,479.61556c-.2743-.4907-.391.0058-.1234-.0952C1063.9663,479.53426,1064.0207,479.56936,1064.1268,479.61556Z"/><path class="cls-6" d="M491.6831,760.25986a4.51855,4.51855,0,0,1-3.5457,4.6933,71.15786,71.15786,0,0,1-54.4138-7.6596q-1.6044,18-3.1621,36.0039h65.198q1.07145-17.5266,2.1433-35.0533C495.8205,758.91726,493.7543,759.608,491.6831,760.25986Z"/><path class="cls-6" d="M50.5002,732.08916a301.34082,301.34082,0,0,0,3.3269-30.3364c.394-8.2722.2529-14.7405-3.7727-22.0969-3.8674-7.0672-9.1055-13.1971-14.0859-19.4827a125.88442,125.88442,0,0,1-12.906-20.197c-2.0655-3.9571-4.8858-8.1607-7.0171-12.4793-.8186,7.3421-1.4466,14.6839-1.9895,22.0257,2.9631-2.8721,9.0366-1.8362,8.4692,3.1879-5.2813,46.7686-8.6646,93.6873-12.5176,140.587H39.6237a5.68087,5.68087,0,0,1,.0801-.9161C43.2165,772.26276,47.4665,752.29546,50.5002,732.08916Z"/><path class="cls-7" d="M459.1965,621.03866c-2.4126,2.3336-7.2949,2.2236-8.4927-1.9989-3.5359-12.4628-5.9307-25.2327-8.9316-37.8288-2.6548-11.143-5.3509-22.6811-10.1924-33.1147a88.56312,88.56312,0,0,0-22.582-29.2338c-10.3855-8.9166-22.1802-12.4398-34.8204-16.8053a318.57812,318.57812,0,0,1-35.8442-14.4895c-3.2034-1.5642-3.0764-4.9009-1.3506-7.0943a22.032,22.032,0,0,1-3.4182-1.7194q-9.50715,15.294-19.0146,30.5886c3.248,4.9993,6.944,10.0489,9.3391,15.373,1.6057,3.5693-.4412,8.5485-1.2534,12.177q-2.5599,11.43255-5.1192,22.8653-4.02285,17.9685-8.0459,35.9373c-.9402,4.2-7.1223,4.8663-9.1387,1.1944a174.93351,174.93351,0,0,0-16.9355-24.6517c-8.2698-10.3425-18.0098-18.7468-23.877-30.7439-2.3332-4.7708-4.4589-9.6414-6.519-14.5354-.9297-2.2094-2.0444-4.3392-2.3574-6.7188-1.5701-11.9436-1.3936-24.3757-1.854-36.4825q-3.5853-1.26945-7.1707-2.5389-11.7696-4.16775-23.5398-8.3351-16.67835-5.9058-33.3569-11.8112a39.2706,39.2706,0,0,1-15.6726,14.9558c-4.5855,2.4187-8.7371-2.707-7.2102-6.3643-4.6934,3.9366-9.323,7.8947-14.3213,11.3345,2.4734,2.0452,3.1841,6.1933-.4685,8.0298-17.9046,9.0027-37.0984,14.9988-55,24-4.2256,2.1245-8.075-1.9895-7.522-5.4627a90.24329,90.24329,0,0,1-10.4663,6.6307c5.9055,8.5931,11.7258,17.2452,17.6006,25.8585,7.072,10.3686,14.0224,21.0031,22.1584,30.5833a4.96983,4.96983,0,0,1,1.0728,4.6516,34.28926,34.28926,0,0,1,3.8237,4.9811c.2512-8.8448-1.7995-17.3136-3.1513-26.4436-1.2657-8.5481-2.3943-19.1194,3.5385-26.2708,5.1302-6.1836,13.5874-9.5207,20.6157-4.478,11.3985,8.1786,9.0777,25.8913,12.2022,37.9079,4.9561,19.0591,12.5024,37.1474,14.7187,56.8726,2.2422,19.9556-3.2399,38.4136-17.1157,52.8701-1.9458,40.9414-6.3764,81.8462-10.9526,122.5689H380.487a117.27946,117.27946,0,0,1-.0334-17.1614c1.3982-32.2407,8.6215-63.531,13.3845-95.3352,4.6133-30.8047,5.6504-63.0463-6.626-92.2932-2.4917-5.9358,7.1892-8.5036,9.6426-2.6584,6.7944,16.1864,9.7241,33.6407,10.1601,51.1342.8238,33.0561-7.2172,65.3818-12.3308,97.8186a355.69,355.69,0,0,0-4.361,44.885,103.40193,103.40193,0,0,0,.163,13.6104h30.0752q3.16485-36.79545,6.5244-73.5733c1.4234-15.4096,1.7559-31.3745,7.3973-45.9497,5.2302-13.5134,13.3806-23.5,23.3916-33.688a61.06674,61.06674,0,0,0,4.9174-5.6682C461.6125,629.93366,460.6164,625.42686,459.1965,621.03866ZM236.4003,519.61476q-34.0404-11.7135-68.0803-23.4274c-6.0593-2.085-3.4399-11.7413,2.6582-9.6427q34.0404,11.7138,68.0806,23.4273C245.1179,512.05716,242.4985,521.71336,236.4003,519.61476Zm78.1248,266.0957c-.2764,6.4214-10.2769,6.4346-10,0,2.4619-57.2216,9.5183-114.7585,3.1946-171.9711-.7071-6.3977,9.3008-6.3267,10,0C324.0434,670.952,316.987,728.48886,314.5251,785.71046Z"/><path class="cls-8" d="M1357.1704,601.823c-2.6267-25.2489-11.9695-52.018-28.6043-71.5004-28.5544-33.4426-72.0054-48.7519-102.5765-79.8954-3.1912-3.2508-.5919-7.7333,2.8003-8.4587a145.53477,145.53477,0,0,1-11.3859-18.0023c-1.0117,4.4069-8.324,5.6069-9.7002.2546q-3.3339-12.96495-6.6678-25.9302c-29.0368,31.6055-66.7254,52.4269-103.5409,73.9143q-.1209,11.5935-.2414,23.1868c-.0584,5.6155-7.6634,6.3302-9.5692,2.1572-1.0522,1.9296-2.0149,3.923-3.0823,5.8178q.6501,1.88835,1.292,3.7719c1.8782,5.5016-5.755,8.1545-8.8098,4.2189-.0207.0105-.0384.0237-.0593.0342.0209-.0105.0386-.0237.0593-.0342a5.32818,5.32818,0,0,1-.833-1.5605q-2.363-6.9216-4.9609-13.7624c-1.3111-3.4652-2.6428-6.9293-4.1452-10.3167-.6027-1.3594-1.2164-2.721-1.9134-4.0354-.0278-.0523-.0628-.1068-.0933-.1601-.0293.0185-.0625.0368-.0891.0551a47.17806,47.17806,0,0,0-5.1098,4.3282c-4.7465,4.3913-9.2083,9.0894-13.6791,13.757-4.336,4.5267-8.6107,9.1367-13.174,13.438-2.6858,2.5315-6.2485,6.4138-10.2666,6.4209-5.0967.0086-5.9023-4.9466-6.0405-8.9004-.2065-5.9098.2493-11.8783.5848-17.7744.5824-10.2334,1.4311-20.4624,2.0402-30.6997a134.83682,134.83682,0,0,0-16.6753,8.0105c3.3704,1.545,3.9492,7.8694-.7166,9.6497-15.3593,5.8609-30.9963,10.9938-46.2426,17.1506-19.6339,7.9287-41.0324,18.4022-49.7929,38.9685-4.9686,11.6643-9.7542,23.4099-14.6306,35.1134-2.0173,4.8415-8.9563,3.9176-9.9249.1097-1.236,3.6411-2.3049,7.3773-3.3557,11.1157a82.27336,82.27336,0,0,1,16.2713,25.8899c4.505,11.8474,3.4771,24.3362,4.2654,36.7473.4059,6.3907,1.3192,12.4961,2.1027,18.8125a304.19128,304.19128,0,0,1,1.8059,30.4231c.2273-.0835.4585-.1648.6848-.2487,3.0974-1.1495,6.33,1.8022,6.3291,4.8212-.0085,31.5181,1.7234,63.0972,2.9829,94.587h144.0447a4.894,4.894,0,0,1,.4003-1.3623.11262.11262,0,0,0,.0037-.0308c-.0288-.0127.1142-.5132.0948-.5671.0366.1023.0588.1687.0832.2412l.0241-.0442a4.551,4.551,0,0,1-.0534-1.0862c.1806-2.2803.314-4.5635.4303-6.8479.3712-7.2896.6085-14.5864.8339-21.8816,1.2429-40.2498,1.8733-80.5249,2.3247-120.7905.2114-18.8577-.3591-37.8621.7145-56.6909a355.84459,355.84459,0,0,1,9.295-63.6747c1.5259-6.2594,11.1665-3.5924,9.6427,2.6583a335.20827,335.20827,0,0,0-9.3749,78.8192c-.0283,40.5641-.7561,81.1376-1.6335,121.6911-.385,17.7954-.7805,35.5959-1.509,53.3813-.1905,4.6494-.323,9.3269-.7786,13.9605-.0708.7204-.1099,1.4794-.2017,2.2246h279.7254c4.2177-34.3081,5.8912-68.8431,7.4692-103.3536.686-15.0039,1.3565-30.0095,2.2555-45.0024C1357.1627,630.53746,1358.6704,616.24106,1357.1704,601.823Zm-138.1098-157.3958c-15.2706,19.1897-36.4586,34.0148-56.5316,47.7458-12.4014,8.4832-25.0757,16.6604-38.0884,24.182a5.05622,5.05622,0,0,1-7.3449-2.9882c-3.4483-12.2943-7.4546-24.7725-13.2969-36.1491-2.9378-5.7203,5.6938-10.7736,8.6346-5.0472a189.82956,189.82956,0,0,1,12.4901,32.2972c10.7276-6.3973,21.2278-13.2109,31.542-20.2358,19.7737-13.4672,40.5005-27.9964,55.5241-46.8757C1215.9973,432.31986,1223.028,439.44166,1219.0606,444.42716Z"/><path class="cls-9" d="M1206.842,226.81846c.8249-14.5216,1.2053-29.9368-3.1211-43.9935-7.4846-24.3188-35.198-47.0833-61.5454-43.3415-5.6975.8091-8.4487-6.9816-4.2433-9.155a53.404,53.404,0,0,0-8.2906-1.693c.8962,3.7508-3.0506,8.2655-7.2837,5.6751-29.4173-18.0019-73.3013-5.5767-90.1968,24.1169-1.1959,2.1017-3.4285,2.5999-5.6466,2.2977-3.8379-.523-8.9486,2.7302-12.0424,4.6071a44.13936,44.13936,0,0,0-12.1621,10.4246c-5.623,7.3134-4.5325,17.116,1.0459,24.1192,6.5481,8.2206,17.0364,13.2207,26.5398,17.1163,11.4955,4.7123,23.4877,8.1395,35.4229,11.5313,3.7983,1.0794,4.2653,5.1258,2.6294,7.6864,8.3605,1.6223,17.1022-.5376,25.0639-4.1673a248.12156,248.12156,0,0,1-25.6277-9.1588,178.01248,178.01248,0,0,1-23.2346-11.2369c-4.3069-2.5667-9.7241-5.7002-12.1431-10.3184-2.9858-5.7008,5.6478-10.7501,8.6348-5.0471,1.3888,2.6514,7.1016,5.9402,10.647,7.9429a177.35142,177.35142,0,0,0,21.1598,9.9973c15.7386,6.3207,32.766,12.1523,49.8164,13.1936a5.14584,5.14584,0,0,1,4.7721,5.9398,14.07847,14.07847,0,0,0,2.7265.1481c-2.8955-5.0699,5.3619-9.5979,8.9473-4.5591.4446.6247.9141,1.2292,1.3771,1.839,7.3819,9.4273,19.1524,18.4557,21.5071,30.422a5.46538,5.46538,0,0,1,.0852,1.5418,44.17415,44.17415,0,0,1,.5562,6.1713c.1756,6.6887-.0407,13.4089-.4369,20.1122q2.64405-2.36475,5.2881-4.7296c3.3305-2.9788,7.773-.469,8.5502,2.7812a66.26181,66.26181,0,0,0,8.2734-4.1189,32.96865,32.96865,0,0,1,3.111-1.924c.3344-.2166.6691-.4247,1.0033-.6475-.3342.2228-.6689.4309-1.0033.6475,4.6252-2.5137,9.7411-3.7491,14.7383-2.5019a5.02059,5.02059,0,0,1-.0513-1.6004C1203.6839,260.26326,1205.8891,243.59086,1206.842,226.81846Z"/><path class="cls-4" d="M811.9311,689.00736a5.12447,5.12447,0,0,1-2.9705-1.2969l-.279,2.5684c1,.8164,2.0122,1.6023,3.043,2.3416C811.821,691.409,811.8875,690.20806,811.9311,689.00736Z"/><path class="cls-10" d="M1056.0124,454.23326q-.75555-5.37465-1.5107-10.7491a68.33272,68.33272,0,0,1-7.8999-1.8496,57.65255,57.65255,0,0,1-15.6797-7.3908c-3.0015,2.6448-3.823,6.5285-4.4815,10.4414a4.41664,4.41664,0,0,1,3.5655,4.6766c-.493,15.9559-2.0721,31.8717-2.8755,47.8137-.1355,2.6901-.2456,5.3827-.3113,8.0759.0996-.0955.2027-.1861.302-.2822,9.0835-8.7944,17.2832-18.4941,26.6698-26.9794,1.4128-1.2771,2.9471-2.7211,4.5978-4.0036a53.271,53.271,0,0,1-8.179-7.2012c-4.3091-4.8171-7.3342-10.5559-10.332-16.2339-3.0056-5.6926,5.6286-10.7405,8.6346-5.0472,2.5681,4.864,5.0741,10.0726,8.7685,14.2101.6689.749,1.3784,1.4543,2.1038,2.1418.1635-1.3574.3737-2.715.61-4.0725C1058.1108,457.44186,1056.2819,456.15146,1056.0124,454.23326Z"/><path class="cls-5" d="M1203.8862,291.28776c-5.0051-5.983-11.9639-2.5357-16.7581,1.8224-4.7549,4.3228-11.8432-2.7327-7.071-7.071a38.37829,38.37829,0,0,1,3.8537-3.076,66.26181,66.26181,0,0,1-8.2734,4.1189,4.24914,4.24914,0,0,1-1.4791,4.2898q-7.3386,6.5637-14.677,13.1271c-2.9699,2.6561-8.9069,1.0834-8.5355-3.5355.8-9.9524,1.4174-19.9784,1.3247-29.9652-.0611-6.58-.9457-11.0421-5.1321-16.3747-.4575-.5825-.9275-1.1534-1.395-1.7268-.7832-.9167-1.5794-1.8142-2.354-2.7002-3.752-4.2917-7.4986-8.5534-10.9624-13.0664-.8022-1.0296-1.5915-2.0709-2.3514-3.1388q-.17385-.24465-.3125-.4881a14.07847,14.07847,0,0,1-2.7265-.1481,4.3109,4.3109,0,0,1-4.7721,4.0602,135.07741,135.07741,0,0,1-29.2526-5.3726c-7.9617,3.6297-16.7034,5.7896-25.0639,4.1673a4.51616,4.51616,0,0,1-5.2879,1.9563c-12.795-3.636-25.5964-7.3706-37.8679-12.5506-7.875-3.324-16.6443-7.803-23.5845-13.8025a40.79175,40.79175,0,0,0-1.3222,11.9948,4.06724,4.06724,0,0,1,2.2799,4.2894,688.806,688.806,0,0,0-2.5198,75.9712c.6358,26.9429-.4651,53.8062,8.4612,79.6514,4.1678,12.0674,9.9261,25.0283,18.7307,34.4572a51.62431,51.62431,0,0,0,27.5386,15.1058c21.0985,4.3916,41.7861-2.7962,58.9649-14.7745,17.709-12.3479,36.3648-28.9802,45.0974-49.1522,2.5525-5.8965,11.1651-.7981,8.6347,5.0473-5.2659,12.1638-14.3291,22.6865-23.6708,31.9243a179.00788,179.00788,0,0,1-31.8831,25.3265,85.81249,85.81249,0,0,1-46.8576,12.8507q.4968,3.53475.9935,7.0697c.3773,2.685-.6124,5.3593-3.4922,6.1505a4.9423,4.9423,0,0,1-2.1681.0579c-.2363,1.3575-.4465,2.7151-.61,4.0725a89.31411,89.31411,0,0,0,11.1099,8.4348,4.9295,4.9295,0,0,1,2.2332,4.421,30.12,30.12,0,0,1,1.8092,3.2634,223.40685,223.40685,0,0,1,10.0651,25.3917c1.0674-1.8948,2.0301-3.8882,3.0823-5.8178a5.014,5.014,0,0,1-.4308-2.1572q.1086-10.42185.217-20.8436c.021-2.0143-.3532-4.5822.2331-6.5609.9362-3.1604,4.981-4.5591,7.5762-6.0706q4.449-2.5911,8.9038-5.1724c12.0154-6.9732,24.0395-13.9453,35.7568-21.4133a284.77189,284.77189,0,0,0,44.0845-33.9722v-16.7412c-3.1346,1.8218-7.9324.5172-7.4412-3.9743q1.2009-10.98255,2.4019-21.9649a5.13085,5.13085,0,0,1,3.0393-4.2241v0a5.67446,5.67446,0,0,1,5,.0767v-3.4201a30.34237,30.34237,0,0,1-9.5928,1.6365c-6.4468.0463-6.4321-9.9537,0-10,15.631-.1122,25.1687-17.0328,28.9348-30.2144C1208.3291,305.66656,1208.7814,297.13966,1203.8862,291.28776Zm-184.0847-9.7326c6.4452,0,6.4345,10,0,10C1013.3563,291.55516,1013.3669,281.55516,1019.8015,281.55516Zm3.7645,45.4305a99.5804,99.5804,0,0,0,6.3466-9.2982c3.5498-5.8146,6.8078-11.9604,8.3133-18.6499,1.4146-6.2859,11.0534-3.6095,9.6427,2.6583-2.6081,11.5906-9.5491,22.5247-16.7766,31.7725-1.5343,1.9633-2.1655,2.5203-1.0156,4.2938a24.79943,24.79943,0,0,0,3.4902,3.4228q2.874,2.8188,5.7483,5.6376c4.6042,4.5154-2.4727,11.5808-7.0711,7.0711-4.8166-4.7239-13.416-10.4783-13.2272-17.9266C1019.1123,332.19686,1021.3833,329.78976,1023.566,326.98566Zm55.0868,50.2485c-5.0462,10.7382-13.8001,23.5143-27.1167,23.5418-13.3134.0273-22.1275-12.6664-27.2457-23.3816a5.12369,5.12369,0,0,1-.4985-2.8521,4.70382,4.70382,0,0,1,4.3406-4.6464,4.4355,4.4355,0,0,1,1.8371-.0298q22.18305-.0777,44.3659-.1556C1078.3862,369.69636,1080.218,373.90376,1078.6528,377.23416Zm4.0727-77.8154c-6.4453,0-6.4345-10,0-10C1089.1706,289.41876,1089.16,299.41876,1082.7255,299.41876Z"/><path class="cls-8" d="M800.6757,696.588a4.128,4.128,0,0,1-1.1955-5.1831,10.53612,10.53612,0,0,0-5.6483,5.7798,4.80606,4.80606,0,0,1,5.3944,4.8152c.1137,18.6062-2.0376,37.3383-3.7698,55.8398q-1.6608,17.74035-3.5725,35.4578H902.508c-1.1655-29.146-2.718-58.3675-2.9386-87.5474C866.9614,716.67756,828.4345,720.34356,800.6757,696.588Zm73.8494,67.1225c-22.8962,1.9673-44.1089.4781-65.3159-8.9636-5.8743-2.6152-.7811-11.2295,5.0472-8.6345,19.4827,8.6738,39.3227,9.398,60.2687,7.5981C880.9467,753.15876,880.8889,763.16366,874.5251,763.71046Z"/><path class="cls-5" d="M892.5251,694.71046a304.24885,304.24885,0,0,0-1.864-31.3503c-.8198-6.4641-1.7393-12.9661-2.1226-19.5134-.6716-11.4744.2774-22.8717-4.1203-33.7591a67.04825,67.04825,0,0,0-9.73-16.3981c-.5219,1.5894-1.0702,3.1606-1.6631,4.7021.5929-1.5415,1.1412-3.1127,1.6631-4.7021a94.59742,94.59742,0,0,0-11.0191-11.6309c-8.7452-7.8462-17.6543-14.2311-24.6057-23.9221-6.6013-9.2029-11.2036-19.7019-14.8974-30.3617-1.8379-5.3036-2.7288-11.3336-4.9803-16.4312-1.3116-2.9701-4.4257-7.1114-7.9868-7.5207-7.7248-.888-7.3458,13.2911-7.1767,17.8631.4677,12.6494,3.2481,25.4485,6.7529,37.5916,1.791,6.2053-7.8616,8.8299-9.6428,2.6584-.4939-1.711-.9837-3.4548-1.4651-5.217-2.4067.6401-5.1926.114-7.9797-.7378.9531,3.7881-3.0114,8.3734-7.2476,5.723-19.7247-12.3404-38.1411-26.6827-57.2981-39.8636-8.6548-5.9549-17.4307-11.888-26.7466-16.7726-3.9333-2.0624-8.7136-4.5426-13.0151-1.9579a6.39324,6.39324,0,0,0-3.0298,7.094c11.9873-10.9272,29.4827,6.325,37.4705,14.2693a4.62141,4.62141,0,0,1,1.4719,3.3891,51.99908,51.99908,0,0,1,5.3559,3.2802c7.6841,5.3271,13.2327,12.4773,18.7036,19.946,3.8108,5.2026-4.8706,10.186-8.6347,5.0473-3.9048-5.3308-7.9151-10.791-13.1397-14.9256-3.3911-2.6833-10.395-8.0898-15.0471-6.3752-8.0642,2.9722-.4309,15.0284,5.0833,22.7822a17.45411,17.45411,0,0,1,9.1338-2.4458c10.3608-.0163,20.5163,5.281,28.4636,11.517,8.0622,6.326,14.5805,14.3838,22.6938,20.6395,8.0982,6.2443,17.4612,9.0711,27.3057,11.1688,16.6995,3.5585,41.1348,6.2988,48.8114,24.3522,2.4921,5.8609-6.1244,10.9505-8.6347,5.0471-3.6408-8.5622-12.3913-12.1943-20.7927-14.6994-9.198-2.7429-18.7207-4.0816-28.0156-6.419a65.85256,65.85256,0,0,1-24.7144-11.5818c-7.1181-5.4969-13.0632-12.2458-19.7957-18.1738-6.7502-5.9436-15.9479-11.9905-25.3214-11.8506-2.585.0387-3.8904.7906-4.3702,1.9303q-.0564.1992-.1313.3913c-.5552,2.2465,1.5215,5.6882,3.4473,8.3211,3.8303,5.2371,9.0512,9.3267,13.8715,13.597q7.14375,6.32865,14.2058,12.7489,14.8338,13.4802,29.3729,27.2785c4.5767,4.322,9.0939,8.9182,14.3348,12.4502,6.2626,4.2205,12.7682,8.0672,19.0165,12.3203a4.89969,4.89969,0,0,1,2.2468,4.0476,4.78343,4.78343,0,0,1,.8374,2.825q-.02715,11.56425-.0542,23.1286c-.0082,3.4734-2.9163,5.0684-5.594,4.7969-.0436,1.2007-.1101,2.4016-.2065,3.6131,23.4139,16.7912,54.8368,13.1118,81.5449,4.6757A4.95271,4.95271,0,0,1,892.5251,694.71046Z"/><path class="cls-5" d="M500.842,629.55086a172.28666,172.28666,0,0,0,2.3-17.9109c.636-8.0449,2.2181-19.7852-2.1579-27.1326-3.2759-5.5003-7.9763-2.1636-10.1382,2.3627-2.158,4.5183-2.2246,10.4315-3.3496,15.3068-2.645,11.4628-6.4888,22.8914-12.8848,32.8459-6.7475,10.5015-17.0359,17.76-23.7387,28.2524a77.87343,77.87343,0,0,0-11.8326,35.0186q-2.1609,23.88615-4.3166,47.7722c.0212.0144.0422.0249.0635.0398a61.23643,61.23643,0,0,0,50.6919,9.2046c3.6921-.9663,6.122,2.0154,6.2041,4.9495,2.0712-.6519,4.1374-1.3426,6.2197-2.0157q.8112-13.267,1.6223-26.5337c.2458-4.02,4.2773-5.5241,7.1484-4.4985.3645-1.4394.7334-2.8725,1.0894-4.3013-3.5083-.8774-6.0217-5.2353-2.5278-8.1445,5.5312-4.6057,11.4795-8.7607,16.8984-13.4897,5.9097-5.1573,10.8186-11.5218,15.9709-17.3968q11.3694-12.96375,22.9759-25.7172c6.7695-7.408,16.6181-15.1133,20.2141-24.722a8.92037,8.92037,0,0,0,.5557-2.1662,5.44532,5.44532,0,0,1-2.0359-2.833c-1.7627-.2767-4.3662.4336-6.6578,1.2583-8.1303,2.926-14.2497,9.0112-19.7648,15.4255-5.3797,6.2566-10.4471,12.7056-17.0603,17.7388-6.302,4.7961-13.6331,7.6943-21.1187,10.0991-11.4368,3.6738-31.9426,6.9746-36.1938,20.3271-1.9485,6.1192-11.5999,3.4881-9.6429-2.6584,6.0659-19.0515,29.9922-22.7197,46.3504-28.3604a53.38891,53.38891,0,0,0,23.0793-15.4089c6.1914-6.8874,11.6008-14.3901,19.0718-20.0068,6.6147-4.9729,16.1956-9.9427,24.7744-8.1142.2578.0551.4983.1308.7456.1982,1.8286-3.1979,3.7048-6.3691,5.3621-9.658,1.4419-2.8617,3.7541-7.6746-.8137-9.1577-4.795-1.5567-9.5394,6.0758-11.9185,9.0511a82.24381,82.24381,0,0,1-7.9666,8.6616c-4.6955,4.399-11.7778-2.6617-7.0712-7.071,4.2041-3.9384,8.8046-10.6639,14.1001-15.4269a5.42507,5.42507,0,0,1,.8999-1.5731c6.5244-8.0068,20.0476-27.3541,32.6342-19.1727a4.83651,4.83651,0,0,0-3.9687-4.8699c-4.2134-1.1414-8.3037,2.1731-11.5735,4.3871a258.18971,258.18971,0,0,0-21.9753,17.2464c-15.4473,13.1066-30.2837,26.9758-46.3433,39.3448-3.4854,2.6845-6.9097-.5244-7.126-4.0613-2.1892.7148-4.3537,1.4775-6.5581,2.3122-.1965,1.097-.3948,2.1856-.594,3.2569C509.3076,638.53786,499.6718,635.84136,500.842,629.55086Z"/><path class="cls-5" d="M358.5092,257.29136a5.175,5.175,0,0,1-3.9841-4.5809,92.00289,92.00289,0,0,0-2.6277-14.268c-6.4177-14.199-16.8948-26.4209-31.4302-33.356a4.90438,4.90438,0,0,1,.7361,1.8245c3.3079,16.8476,3.4112,33.1682-6.5405,47.8962-7.1001,10.508-17.9749,19.5088-30.9517,21.2544a5.52508,5.52508,0,0,1-6.0381-4.0742c-7.9323,2.0992-16.1357,2.1902-23.9335,1.6235q-2.3775,1.54365-4.834,2.9466c-3.0537,1.7413-5.9334-.034-7.0215-2.5247-7.7705,1.3389-15.9148,3.7998-22.2774.9149a96.044,96.044,0,0,1-26.7011,21.6098,5.09386,5.09386,0,0,1-2.1949.6565c-1.2309,1.2141-2.446,2.4443-3.6804,3.655.1238.1728.2559.3332.3755.512,3.5955,5.3667-5.0705,10.3671-8.6345,5.0473-4.3035-6.4233-13.457-2.8083-16.7461,2.7359-3.5227,5.9382-4.502,13.6784-3.6292,20.4348,1.3406,10.379,7.2095,19.0461,15.969,22.7695a18.09025,18.09025,0,0,1,8.6343-2.2098c9.8848,0,17.2031,7.6161,18.3772,16.9599a8.3324,8.3324,0,0,1-.0005,3.1369,19.26841,19.26841,0,0,1-11.6433,15.6696,57.28635,57.28635,0,0,1,.3784,6.7525,4.85882,4.85882,0,0,1,2.4141,4.0329c1.0332,16.7371,2.457,38.0987-3.5989,55.2664q17.3109,6.12945,34.6216,12.2589c10.2505,3.6295,21.2151,6.5458,31.1331,11.0237,5.3117,2.3981,4.1821,9.3842,4.4294,14.3312q.58965,11.78745,1.179,23.5749c.1062,2.1278.1306,4.283.31,6.409.0593.0788.1265.1743.2127.3093a22.24106,22.24106,0,0,1,1.3598,3.2954c3.1809,7.5666,6.2918,16.3972,11.3877,22.9272,3.9734,5.0921,9.001,9.5403,13.1819,14.5137q6.35265,7.55715,12.1111,15.5999,1.81965,2.54175,3.5886,5.1441,5.9451-26.55555,11.8906-53.1112-4.06605-6.6531-8.1316-13.306c-.0231,1.8062-.0734,3.619-.175,5.4447.1016-1.8257.1519-3.6385.175-5.4447q-.9342-1.5288-1.8684-3.0574a4.98019,4.98019,0,0,1,0-5.0472q.80355-1.29225,1.6065-2.5845c-.4414-7.2923-1.367-14.4639-2.4878-21.5864a4.359,4.359,0,0,1-5.021-3.5447,189.82241,189.82241,0,0,1-4.4304-34.0007c-26.1265,1.311-53.6245-9.7576-70.3743-30.0261-4.0715-4.927,2.9683-12.0359,7.0713-7.0711,17.2639,20.8909,45.3997,31.4517,72.1069,25.8784,20.6211-4.303,35.8521-16.6555,43.9102-36.1839,5.2778-12.7907,5.8706-27.0778,6.7654-40.7223,1.664-25.3701,2.1455-50.8677,2.0466-76.2906a4.54259,4.54259,0,0,1,3.3892-4.6008A147.34268,147.34268,0,0,0,358.5092,257.29136Zm-47.0417,57.3591q7.13445,9.86565,14.2695,19.7312c1.7031,2.355.2302,5.3819-1.7939,6.8408q-6.64605,4.79025-13.2923,9.5803c-5.2341,3.7722-10.2204-4.9062-5.0471-8.6347q4.4304-3.19335,8.8609-6.3865-5.8158-8.042-11.6319-16.0839C299.0524,314.47026,307.7314,309.48446,311.4675,314.65046Zm-43.6716-9.8342c-6.4451,0-6.4344-10,0-10C274.2412,294.81626,274.2304,304.81626,267.7959,304.81626Zm61.5505,72.2235c-3.1087,8.8321-8.0889,19.5836-16.4519,24.5226-15.0867,8.9093-31.3015-8.6165-38.6184-20.3306a5.33,5.33,0,0,1,.238-6.7832,4.81615,4.81615,0,0,1,3.5278-1.6358q23.2416-1.0509,46.4832-2.1023C327.6188,370.57066,330.4018,374.04136,329.3464,377.03976Zm5.4932-75.6582c-6.4454,0-6.4346-10,0-10C341.2849,291.38156,341.2741,301.38156,334.8396,301.38156Z"/><path class="cls-11" d="M189.7326,385.92506a18.01518,18.01518,0,0,1-6.7334,1.2854,18.74154,18.74154,0,0,1-18.5259-18.5258,18.28968,18.28968,0,0,1,2.3677-8.8932c-11.542-6.7788-18.677-20.2886-18.7075-34.6769-.021-9.9907,3.1082-21.8403,11.6138-27.9113.51-.3641,1.0327-.6956,1.5608-1.0113a4.65116,4.65116,0,0,1-5.0796-3.5029,85.764,85.764,0,0,1,6.4118-62.6316c2.9485-5.7306,11.5743-.6659,8.6348,5.0471a75.236,75.236,0,0,0-5.4038,54.9261,4.51135,4.51135,0,0,1-.9185,4.4079c7.9424-2.9513,16.8181-.9112,22.0774,6.4304,1.2344-1.2107,2.4495-2.4409,3.6804-3.655-4.5969.2577-7.7353-6.5899-2.8522-9.2913,26.0202-14.3943,42.9934-39.2693,40.5236-69.6826-.5219-6.4253,9.4827-6.3699,10,0,1.7615,21.6898-5.6191,41.2537-18.7754,56.7076,6.3626,2.8849,14.5069.424,22.2774-.9149a4.59392,4.59392,0,0,1,1.9744-6.1101c10.3396-5.8955,19.6472-13.6514,24.925-24.5386,4.5117-9.3078,5.2886-19.9487,3.7773-30.0747-.9411-6.3056,8.6961-9.0012,9.6426-2.6584,1.8697,12.5266,1.1431,25.0232-4.2461,36.6435-5.1592,11.1241-14.063,19.7228-24.2177,26.3164,7.7978.5667,16.0012.4757,23.9335-1.6235-.729-2.4394.1575-5.1353,3.3799-5.5686,10.4478-1.4053,19.2012-8.1067,24.9751-16.6587,8.4409-12.5017,8.3474-25.8538,5.5327-40.1907-1.0939-5.5719,6.3252-8.2993,8.9065-4.4829,14.5354,6.9351,25.0125,19.157,31.4302,33.356a113.05931,113.05931,0,0,0-17.7251-36.7027c-8.5996-11.9672-19.6206-22.783-32.4826-30.0937-9.5125-5.407-20.0015-7.5598-30.7212-9.1464a212.817,212.817,0,0,0-39.8963-2.219c-10.655.4462-23.0383,1.3756-32.0234,7.7472-4.2927,3.0441-8.4007-2.1611-6.949-6.1887-5.769,1.311-10.5234,5.3888-14.54,10.1502,1.6394,2.182,1.7417,5.5152-1.3306,7.2085-20.0027,11.0245-29.3701,32.6541-34.4087,53.9216-10.2014,43.0569-12.7703,88.6377-10.1662,132.7141.6306,10.6753,1.8815,21.2922,1.8764,31.9987a245.0094,245.0094,0,0,1-2.2036,32.0831c-2.126,16.0211-8.7463,31.2849-21.3142,41.5547a66.61318,66.61318,0,0,0,22.4858,1.911c-2.9001-1.5921-4.166-6.5056-.497-8.9879,8.4585-5.7224,13.2609-16.6256,16.3559-25.9751a83.84671,83.84671,0,0,0,4.1675-35.7076c-.7251-6.3945,9.2832-6.3217,10,0,1.5601,13.7579-.7463,28.1382-5.4736,41.0997-4.0445,11.0903-9.9561,22.3962-19.9576,29.1851,8.427-.8631,16.8794-2.5182,24.9827-3.8399a4.74776,4.74776,0,0,1,1.9251-1.7622c.6567-.3465,1.2854-.714,1.9008-1.0921.3738-.3036.7461-.6084,1.1226-.9094-.3765.301-.7488.6058-1.1226.9094,7.4949-4.6028,11.981-11.5207,14.3475-20.1643,4.3432-15.8634,3.2763-33.2055,2.2751-49.4263-.2781-4.5051,4.5347-5.8313,7.5859-4.0329A57.28635,57.28635,0,0,0,189.7326,385.92506Z"/><path class="cls-11" d="M303.9528,444.00056c.0765,2.2756.2061,4.5432.3682,6.8061a53.44389,53.44389,0,0,0,7.8667,6.1978,4.28966,4.28966,0,0,1,4.9851.0442q3.7215,2.4078,7.4426,4.8158a92.83251,92.83251,0,0,0,22.6719-.9318c-6.7073-5.7414-10.1069-15.2556-11.5835-23.8929-1.0779-6.3048,8.5606-8.9889,9.6426-2.6584,1.3955,8.1626,4.3066,19.2525,13.5078,21.5079a4.39616,4.39616,0,0,1,3.3225,2.9245c5.6692-.103,11.0808,1.2544,16.7854.495-16.8542-7.618-23.1558-30.1007-24.437-47.5983a4.286,4.286,0,0,1,4.3784-4.7939,47.74551,47.74551,0,0,1-2.2285-7.7051,71.043,71.043,0,0,1-9.5583,18.4102C336.278,432.53316,320.7453,441.02056,303.9528,444.00056Z"/><path class="cls-6" d="M312.1877,457.00446a53.44389,53.44389,0,0,1-7.8667-6.1978,174.49923,174.49923,0,0,0,3.751,25.6617,5.09727,5.09727,0,0,1-4.6216,6.2031c1.1208,7.1225,2.0464,14.2941,2.4878,21.5864q9.438-15.1824,18.8755-30.3645-6.34425-4.1052-12.688-8.21C308.5642,463.379,309.548,458.82186,312.1877,457.00446Z"/><path class="cls-6" d="M53.0012,552.62156c-4.2198-6.4449-8.3399-12.9611-12.439-19.4917a41.5476,41.5476,0,0,1-3.9189,2.025c3.0962.6882,5.5512,3.8407,3.1992,7.0793-5.917,8.1476-12.1475,19.0646-11.3174,29.4763.354,4.441-4.3127,5.7852-7.3987,4.0904.1609,6.3183.375,12.3972-.4731,18.7922a14.462,14.462,0,0,1,5.0271-3.7278,17.6907,17.6907,0,0,1,5.0815-1.3886c-.8608-11.1686,8.8696-22.3858,20.9278-20.4136.4899.0802.9699.1868,1.4455.3049a20.96736,20.96736,0,0,1,8.4526-11.4731,19.75682,19.75682,0,0,1-2.0075-3.5569A4.9832,4.9832,0,0,1,53.0012,552.62156Z"/><path class="cls-5" d="M142.1196,563.04066c-1.396-5.5386-1.6419-11.3037-2.5542-16.9302-.7053-4.3519-1.4746-12.1712-5.5755-14.8997-2.7568-1.8345-6.2568,1.0032-7.7619,3.4228-1.8279,2.9388-1.7285,7.0374-1.5952,10.3825.3547,8.9029,2.8908,17.5843,3.9753,26.4062,2.4209,19.6916-9.5901,36.8987-9.083,56.2882.1687,6.448-9.832,6.4229-10,0-.3486-13.3337,4.988-25.4381,8.0042-38.1809a45.53371,45.53371,0,0,0,1.1867-9.2592,34.28926,34.28926,0,0,0-3.8237-4.9811c-.9375,3.4291-5.2361,5.8431-8.1436,2.4194-7.9345-9.3426-14.8205-19.6002-21.7365-29.7005-7.67-11.2015-15.2117-22.4906-22.95-33.6453-3.6274-5.229-7.2932-10.4331-11.0681-15.557-2.9788-4.0434-5.9717-9.789-11.0364-11.3493-6.1321-1.8894-12.8354,1.1853-10.3774,8.2972,2.2246,6.4372,7.207,12.172,10.8618,17.8402,7.2361,11.2218,13.8779,22.8065,21.1938,33.9803,1.8714,2.858.3306,5.603-2.0556,6.7637a19.75682,19.75682,0,0,0,2.0075,3.5569,17.69719,17.69719,0,0,1,8.8553-3.1795c10.0197-.5527,17.6699,8.3313,23.0151,15.659a113.887,113.887,0,0,1,8.1738,13.2414c2.0203,3.7577,4.2154,7.5557,4.5323,11.9024.8066,11.0584-7.7898,19.0583-17.6585,21.6506a15.08828,15.08828,0,0,1-2.1296,4.9098,17.28363,17.28363,0,0,1-17.0196,8.1442,16.547,16.547,0,0,1-16.1577,15.3759c-10.1533.3877-18.1379-11.8362-23.6462-18.6875-3.9971-4.9715,3.0386-12.0866,7.071-7.071,3.7901,4.7139,7.6084,9.9385,12.3638,13.7546,2.8826,2.3133,5.4619,2.6558,8.5918.0874,3.3877-2.7798,1.8918-6.7656-.2046-10.1023-.2375-.2732-.4717-.5522-.6992-.8413a5.52858,5.52858,0,0,1-.7654-1.3069c-.3484-.4769-.6882-.9287-.9993-1.3414-4.0859-5.4222-8.112-11.7025-12.9052-16.4936-3.5596-3.5583-10.6724-6.8315-14.5115-1.7441-2.2229,2.9458-3.574,7.4739-4.2148,11.0306-1.16,6.4377,2.7797,11.1512,5.6213,16.6308,3.2097,6.1897,6.3169,12.4541,10.2134,18.2522,7.5688,11.2622,17.4985,20.553,22.6521,33.3731,2.2627,5.6284,2.3296,11.8774,2.1665,17.8657-.2137,7.8515-.8621,15.6777-1.792,23.4824a76.9305,76.9305,0,0,0,56.7138,10.2173c3.9258-.8325,6.438,2.6133,6.2405,5.6443a40.145,40.145,0,0,0,9.4939-1.6179c2.1206-21.9812,3.8899-43.9954,4.9363-66.0206a5.64518,5.64518,0,0,1,.1375-.9868,4.4874,4.4874,0,0,1,1.3269-4.5488c15.0376-14.7312,18.319-33.4456,14.7085-53.5947C152.7165,594.94316,146.2346,579.36876,142.1196,563.04066Z"/><path class="cls-6" d="M125.0949,738.349a4.22464,4.22464,0,0,1-3.582,3.9983,87.3899,87.3899,0,0,1-60.8286-9.0977c-3.0098,20.1284-7.4878,40.124-11.0235,60.0479h78.9107c2.115-18.8213,4.1953-37.6817,6.0173-56.5664A40.145,40.145,0,0,1,125.0949,738.349Z"/><path class="cls-4" d="M1021.2847,509.88646a2.13378,2.13378,0,0,0,.2411-.152C1021.3894,509.787,1021.2946,509.84036,1021.2847,509.88646Z"/><path class="cls-4" d="M1026.767,511.87916c-.0017.3958.012.6678.0811.4458C1026.8051,512.463,1027.8864,512.72346,1026.767,511.87916Z"/><path class="cls-4" d="M1067.0183,480.378c-.007.0088-.0179.017-.0253.0258.0826.0084.1217.0025.0992-.023C1066.9207,480.18776,1067.0522,480.33456,1067.0183,480.378Z"/><path class="cls-12" d="M267.7959,304.81626c6.4345,0,6.4453-10,0-10C261.3615,294.81626,261.3508,304.81626,267.7959,304.81626Z"/><path class="cls-12" d="M334.8396,291.38156c-6.4346,0-6.4454,10,0,10C341.2741,301.38156,341.2849,291.38156,334.8396,291.38156Z"/><path class="cls-12" d="M1028.1325,369.89586a4.70382,4.70382,0,0,0-4.3406,4.6464,5.12369,5.12369,0,0,0,.4985,2.8521c5.1182,10.7152,13.9323,23.4089,27.2457,23.3816,13.3166-.0275,22.0705-12.8036,27.1167-23.5418,1.5652-3.3304-.2666-7.5378-4.3173-7.5237q-22.183.07785-44.3659.1556A4.4355,4.4355,0,0,0,1028.1325,369.89586Zm23.4036,20.8801c-6.3853.023-11.1609-5.2962-14.6278-10.9342q14.5797-.05115,29.1594-.1022C1062.6396,385.39926,1057.9047,390.75276,1051.5361,390.776Z"/><path class="cls-12" d="M358.9143,276.10966c-.1114,5.1555-.2229,10.2749.1108,15.282-.3337-5.0071-.2222-10.1265-.1108-15.282a4.54259,4.54259,0,0,0-3.3892,4.6008c.0989,25.4229-.3826,50.9205-2.0466,76.2906-.8948,13.6445-1.4876,27.9316-6.7654,40.7223-8.0581,19.5284-23.2891,31.8809-43.9102,36.1839-26.7072,5.5733-54.843-4.9875-72.1069-25.8784-4.103-4.9648-11.1428,2.1441-7.0713,7.0711,16.7498,20.2685,44.2478,31.3371,70.3743,30.0261a189.82241,189.82241,0,0,0,4.4304,34.0007,4.359,4.359,0,0,0,5.021,3.5447c-.7512-4.7742-1.5867-9.5274-2.4253-14.2798.8386,4.7524,1.6741,9.5056,2.4253,14.2798a5.09727,5.09727,0,0,0,4.6216-6.2031,174.49923,174.49923,0,0,1-3.751-25.6617c-.448-.4556-.8853-.9221-1.2959-1.415v0c.4106.4929.8479.9594,1.2959,1.415-.1621-2.2629-.2917-4.5305-.3682-6.8061,16.7925-2.98,32.3252-11.4674,43.1639-26.3789a71.043,71.043,0,0,0,9.5583-18.4102c-.7371-3.5442-1.1951-7.1814-1.6499-10.8198.4548,3.6384.9128,7.2756,1.6499,10.8198,3.1597-8.9834,4.7305-18.4638,5.6912-28.2998,1.7763-18.1905,2.3679-36.5063,2.7778-54.7712.2649-11.8064.427-23.6201.3811-35.43C365.51,276.79916,361.8093,275.26566,358.9143,276.10966Z"/><path class="cls-12" d="M460.3464,616.38136c-6.5811-23.1964-9.2827-47.6428-18.6765-69.9997-10.0198-23.8472-30.6287-43.1653-55.2952-50.8311a302.92729,302.92729,0,0,1-42.9941-16.6176,5.08027,5.08027,0,0,0-6.398,1.5404c2.9424,1.1996,6.1111,1.9411,9.0425,2.9183-2.9314-.9772-6.1001-1.7187-9.0425-2.9183-1.7258,2.1934-1.8528,5.5301,1.3506,7.0943a318.57812,318.57812,0,0,0,35.8442,14.4895c12.6402,4.3655,24.4349,7.8887,34.8204,16.8053a88.56312,88.56312,0,0,1,22.582,29.2338c4.8415,10.4336,7.5376,21.9717,10.1924,33.1147,3.0009,12.5961,5.3957,25.366,8.9316,37.8288,1.1978,4.2225,6.0801,4.3325,8.4927,1.9989a44.05368,44.05368,0,0,0-6.1714-12.647,44.05368,44.05368,0,0,1,6.1714,12.647A4.49347,4.49347,0,0,0,460.3464,616.38136Z"/><path class="cls-12" d="M278.0419,372.81276a4.81615,4.81615,0,0,0-3.5278,1.6358,5.33,5.33,0,0,0-.238,6.7832c7.3169,11.7141,23.5317,29.2399,38.6184,20.3306,8.363-4.939,13.3432-15.6905,16.4519-24.5226,1.0554-2.9984-1.7276-6.4691-4.8213-6.3293Q301.2835,371.76181,278.0419,372.81276Zm31.7332,18.6012c-7.2114,6.606-16.4016-1.4762-22.4373-9.0216q14.8185-.67005,29.637-1.3403A33.74394,33.74394,0,0,1,309.7751,391.414Z"/><path class="cls-12" d="M364.5251,252.71046c-3.4521-33.9497-23.3562-66.2856-51.3711-85.6547-10.4224-7.2061-21.7414-11.1514-34.1211-13.3267a231.87151,231.87151,0,0,0-42.8835-3.5839c-13.7832.172-30.4729.9693-42.1477,9.248a5.10055,5.10055,0,0,0-1.9019,2.446,17.63572,17.63572,0,0,1,3.9253-.4475,17.63572,17.63572,0,0,0-3.9253.4475c-1.4517,4.0276,2.6563,9.2328,6.949,6.1887,8.9851-6.3716,21.3684-7.301,32.0234-7.7472a212.817,212.817,0,0,1,39.8963,2.219c10.7197,1.5866,21.2087,3.7394,30.7212,9.1464,12.862,7.3107,23.883,18.1265,32.4826,30.0937a113.05931,113.05931,0,0,1,17.7251,36.7027,83.16394,83.16394,0,0,1,3.1277,7.9492,83.16394,83.16394,0,0,0-3.1277-7.9492,92.00289,92.00289,0,0,1,2.6277,14.268,5.175,5.175,0,0,0,3.9841,4.5809,56.33593,56.33593,0,0,0-2.4841-11.8997,56.33593,56.33593,0,0,1,2.4841,11.8997C361.4685,258.06656,364.916,256.556,364.5251,252.71046Z"/><path class="cls-12" d="M311.4675,314.65046c-3.7361-5.166-12.4151-.1802-8.6348,5.0472q5.81625,8.0421,11.6319,16.0839-4.43055,3.19335-8.8609,6.3865c-5.1733,3.7285-.187,12.4069,5.0471,8.6347q6.64605-4.7901,13.2923-9.5803c2.0241-1.4589,3.497-4.4858,1.7939-6.8408Q318.6021,324.51586,311.4675,314.65046Z"/><path class="cls-12" d="M387.5251,451.71046c-16.7356-2.1142-22.002-26.3698-23-40a5.18489,5.18489,0,0,0-5.6216-4.7939,33.87567,33.87567,0,0,0,2.1216,4.4751,33.87567,33.87567,0,0,1-2.1216-4.4751,4.286,4.286,0,0,0-4.3784,4.7939c1.2812,17.4976,7.5828,39.9803,24.437,47.5983a21.8417,21.8417,0,0,0,4.063-.9171,3.139,3.139,0,0,0,2-5,3.139,3.139,0,0,1-2,5,21.8417,21.8417,0,0,1-4.063.9171,29.68114,29.68114,0,0,0,8.563,2.4017C393.893,462.515,393.8344,452.50766,387.5251,451.71046Z"/><path class="cls-12" d="M347.2873,460.93266a21.37184,21.37184,0,0,0,8.9087,4.5993c4.4309,1.086,7.0559-3.443,5.9807-6.7182a25.72412,25.72412,0,0,0-5.1516.5779C353.7793,459.93266,350.5332,460.47076,347.2873,460.93266Z"/><path class="cls-12" d="M358.8542,455.88926c-9.2012-2.2554-12.1123-13.3453-13.5078-21.5079-1.082-6.3305-10.7205-3.6464-9.6426,2.6584,1.4766,8.6373,4.8762,18.1515,11.5835,23.8929,3.2459-.4619,6.492-1,9.7378-1.541a25.72412,25.72412,0,0,1,5.1516-.5779A4.39616,4.39616,0,0,0,358.8542,455.88926Z"/><path class="cls-12" d="M166.6398,617.85846c-2.2163-19.7252-9.7626-37.8135-14.7187-56.8726-3.1245-12.0166-.8037-29.7293-12.2022-37.9079-7.0283-5.0427-15.4855-1.7056-20.6157,4.478-5.9328,7.1514-4.8042,17.7227-3.5385,26.2708,1.3518,9.13,3.4025,17.5988,3.1513,26.4436a20.47467,20.47467,0,0,1,2.3091,5.1213,20.47467,20.47467,0,0,0-2.3091-5.1213,45.53371,45.53371,0,0,1-1.1867,9.2592c-3.0162,12.7428-8.3528,24.8472-8.0042,38.1809.168,6.4229,10.1687,6.448,10,0-.5071-19.3895,11.5039-36.5966,9.083-56.2882-1.0845-8.8219-3.6206-17.5033-3.9753-26.4062-.1333-3.3451-.2327-7.4437,1.5952-10.3825,1.5051-2.4196,5.0051-5.2573,7.7619-3.4228,4.1009,2.7285,4.8702,10.5478,5.5755,14.8997.9123,5.6265,1.1582,11.3916,2.5542,16.9302,4.115,16.3281,10.5969,31.9025,13.5784,48.5395,3.6105,20.1491.3291,38.8635-14.7085,53.5947a4.4874,4.4874,0,0,0-1.3269,4.5488,5.64518,5.64518,0,0,0-.1375.9868c-1.0464,22.0252-2.8157,44.0394-4.9363,66.0206a14.52989,14.52989,0,0,0,6.4363-4.3394,14.52989,14.52989,0,0,1-6.4363,4.3394c-1.822,18.8847-3.9023,37.7451-6.0173,56.5664h10c4.5762-40.7227,9.0068-81.6275,10.9526-122.5689C163.3999,656.27206,168.882,637.81406,166.6398,617.85846Z"/><path class="cls-12" d="M171.1821,170.56316c-36.2588,19.984-41.9881,67.4364-46.5679,104.3816a501.17733,501.17733,0,0,0-3.7964,66.688c.2207,21.8655,3.428,43.6695,2.51,65.5275-.8637,20.5647-2.894,44.937-21.2746,57.9006-5.2185,3.6804-.2278,12.3552,5.0471,8.6348,1.0073-.7105,1.9727-1.4573,2.9126-2.2256a45.665,45.665,0,0,1-7.9878-3.0784,45.665,45.665,0,0,0,7.9878,3.0784c12.5679-10.2698,19.1882-25.5336,21.3142-41.5547a245.0094,245.0094,0,0,0,2.2036-32.0831c.0051-10.7065-1.2458-21.3234-1.8764-31.9987-2.6041-44.0764-.0352-89.6572,10.1662-132.7141,5.0386-21.2675,14.406-42.8971,34.4087-53.9216,3.0723-1.6933,2.97-5.0265,1.3306-7.2085a114.38378,114.38378,0,0,0-7.5347,10.4023,114.38378,114.38378,0,0,1,7.5347-10.4023A4.79342,4.79342,0,0,0,171.1821,170.56316Z"/><path class="cls-12" d="M157.0515,443.81016c4.7273-12.9615,7.0337-27.3418,5.4736-41.0997-.7168-6.3217-10.7251-6.3945-10,0a83.84671,83.84671,0,0,1-4.1675,35.7076c-3.095,9.3495-7.8974,20.2527-16.3559,25.9751-3.669,2.4823-2.4031,7.3958.497,8.9879q2.29395-.1461,4.5952-.3858C147.0954,466.20636,153.007,454.90046,157.0515,443.81016Z"/><path class="cls-12" d="M137.0939,472.99526q-2.3001.23565-4.5952.3858a4.19348,4.19348,0,0,0,4.5501-.3532C137.0642,473.01736,137.0786,473.00566,137.0939,472.99526Z"/><path class="cls-12" d="M201.3764,367.11856c-1.1741-9.3438-8.4924-16.9599-18.3772-16.9599a18.09025,18.09025,0,0,0-8.6343,2.2098c-8.7595-3.7234-14.6284-12.3905-15.969-22.7695-.8728-6.7564.1065-14.4966,3.6292-20.4348,3.2891-5.5442,12.4426-9.1592,16.7461-2.7359,3.564,5.3198,12.23.3194,8.6345-5.0473-.1196-.1788-.2517-.3392-.3755-.512a66.66521,66.66521,0,0,1-5.0051,4.5227,66.66521,66.66521,0,0,0,5.0051-4.5227c-5.2593-7.3416-14.135-9.3817-22.0774-6.4304a4.51135,4.51135,0,0,0,.9185-4.4079,75.236,75.236,0,0,1,5.4038-54.9261c2.9395-5.713-5.6863-10.7777-8.6348-5.0471a85.764,85.764,0,0,0-6.4118,62.6316,4.65116,4.65116,0,0,0,5.0796,3.5029c-.5281.3157-1.0508.6472-1.5608,1.0113-8.5056,6.071-11.6348,17.9206-11.6138,27.9113.0305,14.3883,7.1655,27.8981,18.7075,34.6769a18.28968,18.28968,0,0,0-2.3677,8.8932,18.74154,18.74154,0,0,0,18.5259,18.5258c9.8823,0,17.2007-7.614,18.3767-16.955a8.3324,8.3324,0,0,0,.0005-3.1369Zm-26.9031,1.5661c0-11.0767,16.5018-10.8943,17.0518,0C190.9753,379.57546,174.4733,379.75776,174.4733,368.68466Z"/><path class="cls-9" d="M174.4733,368.68466c0,11.0731,16.502,10.8908,17.0518,0C190.9751,357.79036,174.4733,357.608,174.4733,368.68466Z"/><path class="cls-12" d="M.0075,793.29746,0,793.38926H10l.0075-.0918Z"/><path class="cls-12" d="M22.5251,652.71046c.5674-5.0241-5.5061-6.06-8.4692-3.1879-.3665,4.9563-.7002,9.9128-1.0308,14.8691.3306-4.9563.6643-9.9128,1.0308-14.8691a5.14635,5.14635,0,0,0-1.5308,3.1879C7.2438,699.47906,3.8605,746.398.0075,793.29746h10C13.8605,746.39776,17.2438,699.47906,22.5251,652.71046Z"/><path class="cls-12" d="M390.323,779.68706a355.69,355.69,0,0,1,4.361-44.885c5.1136-32.4368,13.1546-64.7625,12.3308-97.8186-.436-17.4935-3.3657-34.9478-10.1601-51.1342-2.4534-5.8452-12.1343-3.2774-9.6426,2.6584,12.2764,29.2469,11.2393,61.4885,6.626,92.2932-4.763,31.8042-11.9863,63.0945-13.3845,95.3352a117.27946,117.27946,0,0,0,.0334,17.1614h9.999A103.40193,103.40193,0,0,1,390.323,779.68706Z"/><path class="cls-12" d="M147.5173,480.99806a62.9901,62.9901,0,0,1-11.4922,6.3936,62.9901,62.9901,0,0,0,11.4922-6.3936,4.90224,4.90224,0,0,0-5.5156-.6049c-17.9019,9.0012-37.0957,14.9974-55,24a4.26387,4.26387,0,0,0-2.4749,3.172,27.90672,27.90672,0,0,0,2.4983-2.1735,27.90672,27.90672,0,0,1-2.4983,2.1735c-.553,3.4732,3.2964,7.5872,7.522,5.4627,17.9016-9.0012,37.0954-14.9973,55-24C150.7014,487.19136,149.9907,483.04326,147.5173,480.99806Z"/><path class="cls-12" d="M113.8195,570.63766c-8.136-9.5802-15.0864-20.2147-22.1584-30.5833-5.8748-8.6133-11.6951-17.2654-17.6006-25.8585-.6909.4-1.3726.7981-2.0354,1.1958.6628-.3977,1.3445-.7958,2.0354-1.1958q-4.46115-6.4911-9.0049-12.9247c-7.3032-10.2788-14.4255-24.2836-28.74-24.3685-6.8474-.0408-13.854,3.4062-16.4223,10.0517-2.7823,7.2.8762,14.7541,4.7236,20.7984,5.3611,8.4221,10.6331,16.9133,15.9453,25.3771a3.19373,3.19373,0,0,0,1.4629-2.7382,3.19373,3.19373,0,0,1-1.4629,2.7382c4.0991,6.5306,8.2192,13.0468,12.439,19.4917a4.9832,4.9832,0,0,0,6.5791,1.7164c-.9038-1.9971-1.6221-4.08-2.5552-5.9463.9331,1.8663,1.6514,3.9492,2.5552,5.9463,2.3862-1.1607,3.927-3.9057,2.0556-6.7637-7.3159-11.1738-13.9577-22.7585-21.1938-33.9803-3.6548-5.6682-8.6372-11.403-10.8618-17.8402-2.458-7.1119,4.2453-10.1866,10.3774-8.2972,5.0647,1.5603,8.0576,7.3059,11.0364,11.3493,3.7749,5.1239,7.4407,10.328,11.0681,15.557,7.7383,11.1547,15.28,22.4438,22.95,33.6453,6.916,10.1003,13.802,20.3579,21.7365,29.7005,2.9075,3.4237,7.2061,1.0097,8.1436-2.4194-2.1912-2.4184-4.6284-4.6588-6.8672-6.8976,2.2388,2.2388,4.676,4.4792,6.8672,6.8976A4.96983,4.96983,0,0,0,113.8195,570.63766Z"/><path class="cls-12" d="M1067.0505,791.07286c.4556-4.6336.5881-9.3111.7786-13.9605.7285-17.7854,1.124-35.5859,1.509-53.3813.8774-40.5535,1.6052-81.127,1.6335-121.6911a335.20827,335.20827,0,0,1,9.3749-78.8192c1.5238-6.2507-8.1168-8.9177-9.6427-2.6583a355.84459,355.84459,0,0,0-9.295,63.6747c-1.0736,18.8288-.5031,37.8332-.7145,56.6909-.4514,40.2656-1.0818,80.5407-2.3247,120.7905-.2254,7.2952-.4627,14.592-.8339,21.8816-.1163,2.2844-.2497,4.5676-.4303,6.8479a4.551,4.551,0,0,0,.0534,1.0862l-.0241.0442c-.0244-.0725-.0466-.1389-.0832-.2412.0194.0539-.1236.5544-.0948.5671a.11262.11262,0,0,1-.0037.0308,4.894,4.894,0,0,0-.4003,1.3623h10.2961C1066.9406,792.55226,1066.9797,791.79326,1067.0505,791.07286Z"/><path class="cls-12" d="M1367.618,607.099c-1.7186-26.0821-9.9987-54.065-25.3953-75.4573-13.016-18.0847-30.8396-31.7166-49.1256-44.1028-20.5288-13.9055-42.5397-26.3584-60.0365-44.1827a4.49743,4.49743,0,0,0-4.2707-1.3877c2.0454,2.8324,4.1393,5.6285,6.2352,8.4232-2.0959-2.7947-4.1898-5.5908-6.2352-8.4232-3.3922.7254-5.9915,5.2079-2.8003,8.4587,30.5711,31.1435,74.0221,46.4528,102.5765,79.8954,16.6348,19.4824,25.9776,46.2515,28.6043,71.5004,1.5,14.4181-.0077,28.7145-.8715,43.1185-.899,14.9929-1.5695,29.9985-2.2555,45.0024-1.578,34.5105-3.2515,69.0455-7.4692,103.3536h9.9985c3.9067-31.7791,5.6379-63.7583,7.1202-95.7271.6994-15.0808,1.3464-30.1648,2.1808-45.2392C1366.7058,637.29936,1368.6103,622.159,1367.618,607.099Z"/><path class="cls-12" d="M1002.7292,470.15756c-7.3181,3.9135-14.6291,7.7201-22.7041,9.2341,8.075-1.514,15.386-5.3206,22.7041-9.2341a4.26071,4.26071,0,0,0-3.375.007c-26.4634,10.0979-55.8291,17.4322-79.2035,34.033-9.6495,6.8534-17.9437,15.4624-22.7057,26.4254-2.5139,5.7876-4.8634,11.6514-7.2903,17.4757q-4.22535,10.14135-8.4509,20.2827a4.32767,4.32767,0,0,0-.2822,2.7681,69.55937,69.55937,0,0,1,5.6035-12.7578,69.55937,69.55937,0,0,0-5.6035,12.7578c.9686,3.8079,7.9076,4.7318,9.9249-.1097,4.8764-11.7035,9.662-23.4491,14.6306-35.1134,8.7605-20.5663,30.159-31.0398,49.7929-38.9685,15.2463-6.1568,30.8833-11.2897,46.2426-17.1506C1006.6784,478.027,1006.0996,471.70256,1002.7292,470.15756Z"/><path class="cls-12" d="M31.2077,537.187c-6.8872,9.4838-13.645,22.4534-12.6826,34.5235a4.9604,4.9604,0,0,0,2.6013,4.0904c-.0534-2.1033-.1013-4.2317-.1013-6.4092,0,2.1775.0479,4.3059.1013,6.4092,3.086,1.6948,7.7527.3506,7.3987-4.0904-.8301-10.4117,5.4004-21.3287,11.3174-29.4763,2.352-3.2386-.103-6.3911-3.1992-7.0793a4.59448,4.59448,0,0,0-2.6182,5.2368,4.59448,4.59448,0,0,1,2.6182-5.2368A5.136,5.136,0,0,0,31.2077,537.187Z"/><path class="cls-12" d="M852.0223,622.84916c-7.6766-18.0534-32.1119-20.7937-48.8114-24.3522-9.8445-2.0977-19.2075-4.9245-27.3057-11.1688-8.1133-6.2557-14.6316-14.3135-22.6938-20.6395-7.9473-6.236-18.1028-11.5333-28.4636-11.517a17.45411,17.45411,0,0,0-9.1338,2.4458c-5.5142-7.7538-13.1475-19.81-5.0833-22.7822,4.6521-1.7146,11.656,3.6919,15.0471,6.3752,5.2246,4.1346,9.2349,9.5948,13.1397,14.9256,3.7641,5.1387,12.4455.1553,8.6347-5.0473-5.4709-7.4687-11.0195-14.6189-18.7036-19.946a51.99908,51.99908,0,0,0-5.3559-3.2802,4.62141,4.62141,0,0,0-1.4719-3.3891c-7.9878-7.9443-25.4832-25.1965-37.4705-14.2693a6.39324,6.39324,0,0,1,3.0298-7.094c4.3015-2.5847,9.0818-.1045,13.0151,1.9579,9.3159,4.8846,18.0918,10.8177,26.7466,16.7726,19.157,13.1809,37.5734,27.5232,57.2981,39.8636,4.2362,2.6504,8.2007-1.9349,7.2476-5.723-2.6653-.8147-5.3304-1.9233-7.6624-2.5896,2.332.6663,4.9971,1.7749,7.6624,2.5896a4.78033,4.78033,0,0,0-2.2005-2.9116c-24.0703-15.0593-46.1487-33.078-70.0654-48.376-9.2964-5.9463-21.6931-15.4553-33.3599-11.8696a17.0377,17.0377,0,0,0-11.4033,11.6882c-1.7524,6.5012.8945,12.5695,4.9065,17.5846.041.0514.0845.0939.1262.1428,1.2063,12.387,15.8259,26.5089,22.3037,32.8576a5.41124,5.41124,0,0,0,1.0767.8204c2.3364,3.9999,4.9311,7.7561,6.9805,10.8971-.0201.2977-.0496.59-.0496.8989.0015,10.9312,10.2805,19.7603,17.7258,26.3244q16.4736,14.52345,32.531,29.5089c8.9395,8.3169,17.4729,17.4438,27.2159,24.8474,6.3599,4.833,13.4196,8.8056,20.103,13.2073q-.0264,11.30445-.053,22.6088a4.64867,4.64867,0,0,0,4.406,4.7969c.0889-2.4585.094-4.9367.094-7.6157,0,2.679-.0051,5.1572-.094,7.6157,2.6777.2715,5.5858-1.3235,5.594-4.7969q.02715-11.5641.0542-23.1286a4.78343,4.78343,0,0,0-.8374-2.825,4.89969,4.89969,0,0,0-2.2468-4.0476c-6.2483-4.2531-12.7539-8.0998-19.0165-12.3203-5.2409-3.532-9.7581-8.1282-14.3348-12.4502q-14.57265-13.7616-29.3729-27.2785-7.063-6.41865-14.2058-12.7489c-4.8203-4.2703-10.0412-8.3599-13.8715-13.597-1.9258-2.6329-4.0025-6.0746-3.4473-8.3211q.0747-.1923.1313-.3913c.4798-1.1397,1.7852-1.8916,4.3702-1.9303,9.3735-.1399,18.5712,5.907,25.3214,11.8506,6.7325,5.928,12.6776,12.6769,19.7957,18.1738a65.85256,65.85256,0,0,0,24.7144,11.5818c9.2949,2.3374,18.8176,3.6761,28.0156,6.419,8.4014,2.5051,17.1519,6.1372,20.7927,14.6994C845.8979,633.79966,854.5144,628.71006,852.0223,622.84916Zm-154.5814-87.3103a48.541,48.541,0,0,1-5.8213-9.2527,16.60439,16.60439,0,0,1-1.6699-5.6463c-.0686-1.3127-.0017-.6346.1975-1.7748.0193-.1096.3701-.6863.261-.5905,1.0571-1.2501,2.0222-1.5438,4.1106-1.4151-.0667.0141,1.0195.1563,1.3227.2807a35.8405,35.8405,0,0,1,5.5061,2.9324,54.0345,54.0345,0,0,1,6.656,5.063,13.1865,13.1865,0,0,0-2.521.9943C700.7133,528.63926,698.2949,531.89656,697.4409,535.53886Z"/><path class="cls-12" d="M606.1252,559.82976c-10.8774-2.1141-21.0791,7.515-28.9712,13.6954-19.7427,15.4607-37.5732,33.2413-57.4385,48.5413a5.22741,5.22741,0,0,0-2.0786,4.5735c2.3945-.782,4.8237-1.5156,7.3882-2.2483-2.5645.7327-4.9937,1.4663-7.3882,2.2483.2163,3.5369,3.6406,6.7458,7.126,4.0613,16.0596-12.369,30.896-26.2382,46.3433-39.3448a258.18971,258.18971,0,0,1,21.9753-17.2464c3.2698-2.214,7.3601-5.5285,11.5735-4.3871a4.83651,4.83651,0,0,1,3.9687,4.8699c-12.5866-8.1814-26.1098,11.1659-32.6342,19.1727a5.42507,5.42507,0,0,0-.8999,1.5731c-5.2955,4.763-9.896,11.4885-14.1001,15.4269-4.7066,4.4093,2.3757,11.47,7.0712,7.071a82.24381,82.24381,0,0,0,7.9666-8.6616c2.3791-2.9753,7.1235-10.6078,11.9185-9.0511,4.5678,1.4831,2.2556,6.296.8137,9.1577-1.6573,3.2889-3.5335,6.4601-5.3621,9.658-.2473-.0674-.4878-.1431-.7456-.1982-8.5788-1.8285-18.1597,3.1413-24.7744,8.1142-7.471,5.6167-12.8804,13.1194-19.0718,20.0068a53.38891,53.38891,0,0,1-23.0793,15.4089c-16.3582,5.6407-40.2845,9.3089-46.3504,28.3604-1.957,6.1465,7.6944,8.7776,9.6429,2.6584,4.2512-13.3525,24.757-16.6533,36.1938-20.3271,7.4856-2.4048,14.8167-5.303,21.1187-10.0991,6.6132-5.0332,11.6806-11.4822,17.0603-17.7388,5.5151-6.4143,11.6345-12.4995,19.7648-15.4255,2.2916-.8247,4.8951-1.535,6.6578-1.2583a5.44532,5.44532,0,0,0,2.0359,2.833,8.92037,8.92037,0,0,1-.5557,2.1662c-3.596,9.6087-13.4446,17.314-20.2141,24.722q-11.632,12.729-22.9759,25.7172c-5.1523,5.875-10.0612,12.2395-15.9709,17.3968-5.4189,4.729-11.3672,8.884-16.8984,13.4897-3.4939,2.9092-.9805,7.2671,2.5278,8.1445.459-1.8437.8948-3.6816,1.2622-5.519-.3674,1.8374-.8032,3.6753-1.2622,5.519a5.01792,5.01792,0,0,0,4.5432-1.0734c5.5291-4.6038,11.481-8.762,16.8984-13.49,6.3785-5.5662,11.6639-12.4947,17.2288-18.8296q12.8016-14.57235,25.9207-28.8614c7.1145-7.7136,16.7258-15.8591,19.1784-26.5715a14.34257,14.34257,0,0,0-.4409-8.3103c1.1802-2.0135,2.4959-4.1813,3.7664-6.4302a4.36949,4.36949,0,0,0,2.6853-1.6202c5.4228-6.4655,17.2683-20.3016,17.3857-31.6268a5.68792,5.68792,0,0,0,.4551-.6077C621.5986,575.80646,618.4816,562.23136,606.1252,559.82976Zm-2.1064,29.4179a37.88162,37.88162,0,0,1-4.292,9.2091,13.337,13.337,0,0,0-5.67-6.341,16.70309,16.70309,0,0,0-2.6787-1.3581c.1673-.1866.3269-.3799.4959-.5647a44.41249,44.41249,0,0,1,5.1159-4.9473c.5513-.4363,3.9012-2.5144,2.7881-1.9475,1.3233-.674.9019-.5956,2.5301-.3856a5.37164,5.37164,0,0,1,1.7341.65c-.176-.1195.3271.3499.5049,1.1677A13.44208,13.44208,0,0,1,604.0188,589.24766Z"/><path class="cls-12" d="M506.6735,727.212c-1.7251,6.8101-3.3222,13.7676-2.6484,21.1797-.6738-7.4121.9233-14.3696,2.6484-21.1797-2.8711-1.0256-6.9026.4785-7.1484,4.4985q-.8112,13.26675-1.6223,26.5337c2.0188-.6528,4.0527-1.288,6.1223-1.8525-2.0696.5645-4.1035,1.1997-6.1223,1.8525q-1.0719,17.5266-2.1433,35.0533h10q1.88265-30.7932,3.7656-61.587A4.21274,4.21274,0,0,0,506.6735,727.212Z"/><path class="cls-12" d="M909.5251,698.71046c.0009-3.019-3.2317-5.9707-6.3291-4.8212-.2263.0839-.4575.1652-.6848.2487a304.19128,304.19128,0,0,0-1.8059-30.4231c-.7835-6.3164-1.6968-12.4218-2.1027-18.8125-.7883-12.4111.2396-24.8999-4.2654-36.7473a82.27336,82.27336,0,0,0-16.2713-25.8899c-1.0811,3.8459-2.1513,7.689-3.3777,11.4244a67.04825,67.04825,0,0,1,9.73,16.3981c4.3977,10.8874,3.4487,22.2847,4.1203,33.7591.3833,6.5473,1.3028,13.0493,2.1226,19.5134a304.24885,304.24885,0,0,1,1.864,31.3503,4.95271,4.95271,0,0,0,.7444,2.5857c-26.7081,8.4361-58.131,12.1155-81.5449-4.6757-.1481,1.8628-.3641,3.759-.6995,5.7712.3354-2.0122.5514-3.9084.6995-5.7712-1.3518-.9695-2.6819-1.9944-3.9778-3.1036-3.0386-2.6003-6.9507-.8295-8.2666,1.888a14.1682,14.1682,0,0,1,5.5449-1.0132,14.1682,14.1682,0,0,0-5.5449,1.0132,4.128,4.128,0,0,0,1.1955,5.1831c27.7588,23.7556,66.2857,20.0896,98.8937,9.1621.2206,29.1799,1.7731,58.4014,2.9386,87.5474h10C911.2485,761.80766,909.5166,730.22856,909.5251,698.71046Z"/><path class="cls-12" d="M871.8839,576.02936c-9.4628-8.7429-19.533-15.4887-26.6398-26.5576-6.9114-10.7647-11.7795-23.223-14.9896-35.583-2.3791-9.1599-8.2561-19.5895-19.0556-20.0658-10.0641-.444-15.5818,9.1742-16.758,17.9454-1.9562,14.5889,1.2888,30.5342,5.2263,44.9507,2.2003-.5851,4.084-2.1427,5.3579-5.3274-1.2739,3.1847-3.1576,4.7423-5.3579,5.3274.4814,1.7622.9712,3.506,1.4651,5.217,1.7812,6.1715,11.4338,3.5469,9.6428-2.6584-3.5048-12.1431-6.2852-24.9422-6.7529-37.5916-.1691-4.572-.5481-18.7511,7.1767-17.8631,3.5611.4093,6.6752,4.5506,7.9868,7.5207,2.2515,5.0976,3.1424,11.1276,4.9803,16.4312,3.6938,10.6598,8.2961,21.1588,14.8974,30.3617,6.9514,9.691,15.8605,16.0759,24.6057,23.9221a94.59742,94.59742,0,0,1,11.0191,11.6309c1.2264-3.7354,2.2966-7.5785,3.3777-11.4244Q875.1076,579.01136,871.8839,576.02936Z"/><path class="cls-12" d="M793.8319,697.18466c-1.4054,3.2099-1.8068,7.206-1.8068,11.207,0-4.001.4014-7.9971,1.8068-11.207a4.64644,4.64644,0,0,0-4.6056,4.8152c.1137,18.6062-2.0376,37.3386-3.7698,55.8398q-1.6608,17.74035-3.5725,35.4578h10q1.91415-17.71545,3.5725-35.4578c1.7322-18.5015,3.8835-37.2336,3.7698-55.8398A4.80606,4.80606,0,0,0,793.8319,697.18466Z"/><path class="cls-12" d="M118.8544,732.70466a76.9305,76.9305,0,0,1-56.7138-10.2173c.9299-7.8047,1.5783-15.6309,1.792-23.4824.1631-5.9883.0962-12.2373-2.1665-17.8657-5.1536-12.8201-15.0833-22.1109-22.6521-33.3731-3.8965-5.7981-7.0037-12.0625-10.2134-18.2522-2.8416-5.4796-6.7813-10.1931-5.6213-16.6308.6408-3.5567,1.9919-8.0848,4.2148-11.0306,3.8391-5.0874,10.9519-1.8142,14.5115,1.7441,4.7932,4.7911,8.8193,11.0714,12.9052,16.4936.3111.4127.6509.8645.9993,1.3414a5.52858,5.52858,0,0,0,.7654,1.3069c.2275.2891.4617.5681.6992.8413,2.0964,3.3367,3.5923,7.3225.2046,10.1023-3.1299,2.5684-5.7092,2.2259-8.5918-.0874-4.7554-3.8161-8.5737-9.0407-12.3638-13.7546-4.0324-5.0156-11.0681,2.0995-7.071,7.071,5.5083,6.8513,13.4929,19.0752,23.6462,18.6875a16.547,16.547,0,0,0,16.1577-15.3759,17.28363,17.28363,0,0,0,17.0196-8.1442,15.08828,15.08828,0,0,0,2.1296-4.9098c9.8687-2.5923,18.4651-10.5922,17.6585-21.6506-.3169-4.3467-2.512-8.1447-4.5323-11.9024a113.887,113.887,0,0,0-8.1738-13.2414c-5.3452-7.3277-12.9954-16.2117-23.0151-15.659a17.69719,17.69719,0,0,0-8.8553,3.1795,11.7721,11.7721,0,0,0,2.4373,2.4968,11.7721,11.7721,0,0,1-2.4373-2.4968,20.96736,20.96736,0,0,0-8.4526,11.4731c-.4756-.1181-.9556-.2247-1.4455-.3049-12.0582-1.9722-21.7886,9.245-20.9278,20.4136a17.6907,17.6907,0,0,0-5.0815,1.3886,14.462,14.462,0,0,0-5.0271,3.7278c-.1663,1.2527-.3719,2.5174-.6282,3.7986.2563-1.2812.4619-2.5459.6282-3.7986a27.67976,27.67976,0,0,0-4.479,7.7638c-2.2813,5.4598-4.0042,11.6832-2.8428,17.6234a30.42875,30.42875,0,0,0,2.7139,7.5166c.301-2.7016.6193-5.4034.9797-8.1052-.3604,2.7018-.6787,5.4036-.9797,8.1052,2.1313,4.3186,4.9516,8.5222,7.0171,12.4793a125.88442,125.88442,0,0,0,12.906,20.197c4.9804,6.2856,10.2185,12.4155,14.0859,19.4827,4.0256,7.3564,4.1667,13.8247,3.7727,22.0969a301.34082,301.34082,0,0,1-3.3269,30.3364c-3.0337,20.2063-7.2837,40.1736-10.7964,60.2922a5.68087,5.68087,0,0,0-.0801.9161H49.6608c3.5357-19.9239,8.0137-39.9195,11.0235-60.0479a87.3899,87.3899,0,0,0,60.8286,9.0977,4.22464,4.22464,0,0,0,3.582-3.9983,47.3571,47.3571,0,0,0-7.0698,1.0427,47.3571,47.3571,0,0,1,7.0698-1.0427C125.2924,735.318,122.7802,731.87216,118.8544,732.70466ZM73.4511,565.06956c5.7747,1.8751,10.2173,8.4995,13.4129,13.2821a92.07164,92.07164,0,0,1,8.5273,14.9239c2.6875,6.3916-2.2153,12.0431-8.0959,13.9989-2.3345-5.456-6.8406-10.5753-10.2876-15.1785-4.0428-5.3986-8.5098-12.4206-14.1426-17.3336C61.4606,569.55856,68.3117,563.40046,73.4511,565.06956ZM44.7097,579.879c3.3564-2.3326,8.27-.4681,10.2946,1.3103,5.4517,4.788,9.8899,11.2576,14.1844,17.0486,2.4372,3.2861,4.8181,6.618,7.0739,10.0317,1.3965,2.1131,3.3941,4.0437,2.5879,6.6781a8.948,8.948,0,0,1-5.8225,5.4853c-3.0874.8806-5.529-.6581-7.5376-2.7395-2.6772-4.1598-6.1635-7.8851-9.0639-11.8096-3.8938-5.2686-7.6402-11.0095-13.6109-14.1459-.5005-.263-1.0163-.4994-1.5385-.7214C39.7614,587.40666,41.5078,582.10386,44.7097,579.879Z"/><path class="cls-12" d="M505.0251,631.39166c2.0908-.896,4.0879-1.6953,6.0537-2.4395,2.5127-14.0307,4.5877-29.9948.8775-43.653-2.6387-9.714-12.064-17.7161-22.0457-11.8545-11.0642,6.4975-10.572,21.0852-13.5452,32.0305-2.8349,10.4349-7.0427,20.4202-13.5735,28.9431a75.92748,75.92748,0,0,0,3.2332,9.9734,75.92748,75.92748,0,0,1-3.2332-9.9734,61.06674,61.06674,0,0,1-4.9174,5.6682c-10.011,10.188-18.1614,20.1746-23.3916,33.688-5.6414,14.5752-5.9739,30.5401-7.3973,45.9497q-3.39615,36.7746-6.5244,73.5733h10.0003q1.549-18.00525,3.1621-36.0039a71.15786,71.15786,0,0,0,54.4138,7.6596,4.51855,4.51855,0,0,0,3.5457-4.6933c-6.5945,2.0759-13.2444,3.7495-20.658,3.1318,7.4136.6177,14.0635-1.0559,20.658-3.1318-.0821-2.9341-2.512-5.9158-6.2041-4.9495a61.23643,61.23643,0,0,1-50.6919-9.2046c-.0213-.0149-.0423-.0254-.0635-.0398q2.1438-23.8872,4.3166-47.7722a77.87343,77.87343,0,0,1,11.8326-35.0186c6.7028-10.4924,16.9912-17.7509,23.7387-28.2524,6.396-9.9545,10.2398-21.3831,12.8848-32.8459,1.125-4.8753,1.1916-10.7885,3.3496-15.3068,2.1619-4.5263,6.8623-7.863,10.1382-2.3627,4.376,7.3474,2.7939,19.0877,2.1579,27.1326a172.28666,172.28666,0,0,1-2.3,17.9109c-1.1702,6.2905,8.4656,8.987,9.6428,2.6582.1992-1.0713.3975-2.1599.594-3.2569C509.113,629.69636,507.1159,630.49566,505.0251,631.39166Z"/><path class="cls-12" d="M874.5251,753.71046c-20.946,1.7999-40.786,1.0757-60.2687-7.5981-5.8283-2.595-10.9215,6.0193-5.0472,8.6345,21.207,9.4417,42.4197,10.9309,65.3159,8.9636C880.8889,763.16366,880.9467,753.15876,874.5251,753.71046Z"/><path class="cls-11" d="M522.1462,87.50836c2.1943,2.8032,6.3701,5.4059,6.5735,9.1855a27.0002,27.0002,0,0,1-.4029,3.9755q-.97365,9.614-1.948,19.2277,9.0444-5.586,18.0884-11.1721a47.33423,47.33423,0,0,1,4.104-2.5347c3.44-1.6588,7.7244-.1735,11.46-.1253,3.2864.0423,6.5762,0,9.8628,0h33.5388c11.5842,0,22.3525-1.3444,32.3608-7.8529a48.37093,48.37093,0,0,0,21.7122-42.2245A48.43667,48.43667,0,0,0,632.3847,15.937c-10.0041-5.5028-20.49-5.8182-31.5115-5.8182H567.1909c-11.2332,0-21.7688.8358-31.7337,6.8012a48.61269,48.61269,0,0,0-23.435,41.1717A48.64706,48.64706,0,0,0,522.1462,87.50836ZM612.9318,51.421a5.5742,5.5742,0,1,1-5.5742,5.5742A5.57441,5.57441,0,0,1,612.9318,51.421Zm-28.4284,0a5.5742,5.5742,0,1,1-5.5742,5.5742A5.57439,5.57439,0,0,1,584.5034,51.421Zm-28.4285,0a5.5742,5.5742,0,1,1-5.5742,5.5742A5.57419,5.57419,0,0,1,556.0749,51.421Z"/><path class="cls-12" d="M502.0459,58.69606a59.17568,59.17568,0,0,0,16.4956,39.7558q-1.5708,15.504-3.1414,31.0079c-.3872,3.8206,4.519,6.1731,7.5237,4.3174q14.8095-9.14715,29.6194-18.2943c7.9372.9051,15.9743.5821,23.9555.5821h30.4226c28.053,0,53.7664-17.9414,59.4241-46.3376,6.4082-32.162-15.8874-64.3218-48.5115-68.9746-8.1291-1.1594-16.5822-.634-24.7688-.634H562.8815c-13.7883,0-26.8112,3.4155-37.9018,11.8916a58.72337,58.72337,0,0,0-22.9317,45.4511,5.77157,5.77157,0,0,0-.0258.6302A5.69795,5.69795,0,0,0,502.0459,58.69606ZM535.4572,16.92c9.9649-5.9654,20.5005-6.8012,31.7337-6.8012h33.6823c11.0215,0,21.5074.3154,31.5115,5.8182a48.43667,48.43667,0,0,1,25.1111,40.0506,48.37093,48.37093,0,0,1-21.7122,42.2245c-10.0083,6.5085-20.7766,7.8529-32.3608,7.8529H569.884c-3.2866,0-6.5764.0423-9.8628,0-3.7356-.0482-8.02-1.5335-11.46.1253a47.33423,47.33423,0,0,0-4.104,2.5347q-9.04395,5.58615-18.0884,11.1721.97425-9.6138,1.948-19.2277a27.0002,27.0002,0,0,0,.4029-3.9755c-.2034-3.7796-4.3792-6.3823-6.5735-9.1855a48.64706,48.64706,0,0,1-10.124-29.4167A48.61269,48.61269,0,0,1,535.4572,16.92Z"/><path class="cls-12" d="M612.9318,62.56936a5.5742,5.5742,0,1,0-5.5742-5.5742A5.57434,5.57434,0,0,0,612.9318,62.56936Z"/><circle class="cls-12" cx="584.5034" cy="56.99516" r="5.5742"/><circle class="cls-12" cx="556.0749" cy="56.99516" r="5.5742"/><path class="cls-9" d="M740.144,205.39756a48.58029,48.58029,0,0,0,31.3579,35.0871c9.4983,3.2056,19.3749,2.5803,29.2356,2.5803h32.4303c1.0563,0,2.1134.0125,3.1696,0,3.0872-.0366,7.2616-1.3076,10.2048-.5432,3.1217.8106,6.2937,3.6536,8.9697,5.3064q7.34175,4.5345,14.6832,9.0689-.9738-9.6138-1.9478-19.2277a25.78628,25.78628,0,0,1-.4087-4.0328c.2507-3.8921,4.8728-6.8582,7.0996-9.8308a47.90554,47.90554,0,0,0-19.7136-72.9257c-10.8051-4.58-22.3255-3.7613-33.7646-3.7613-22.6087,0-48.893-4.0177-66.9198,12.7314A48.17869,48.17869,0,0,0,740.144,205.39756ZM840.4892,188.421a5.5742,5.5742,0,1,1-5.5742,5.5742A5.57417,5.57417,0,0,1,840.4892,188.421Zm-28.4285,0a5.5742,5.5742,0,1,1-5.5742,5.5742A5.57422,5.57422,0,0,1,812.0607,188.421Zm-28.4284,0a5.5742,5.5742,0,1,1-5.5741,5.5742A5.57419,5.57419,0,0,1,783.6323,188.421Z"/><path class="cls-12" d="M787.0991,253.065c9.3789.0956,18.7636,0,28.143,0,9.529,0,19.2732.5201,28.7721-.5863q14.8131,9.14925,29.6261,18.2985c3.0047,1.8557,7.9107-.4968,7.5237-4.3174q-1.57065-15.50385-3.1415-31.0079a59.175,59.175,0,0,0,16.4956-39.7538,7.89718,7.89718,0,0,0,.0007-1.2163,58.81371,58.81371,0,0,0-58.1176-57.363q-24.60375-.24945-49.2384,0c-31.5363.3195-58.1406,26.1214-58.1406,57.9729C729.0222,226.89606,755.5841,252.74346,787.0991,253.065Zm-32.5589-93.2148c18.0268-16.7491,44.3111-12.7314,66.9198-12.7314,11.4391,0,22.9595-.8187,33.7646,3.7613a47.90554,47.90554,0,0,1,19.7136,72.9257c-2.2268,2.9726-6.8489,5.9387-7.0996,9.8308a25.78628,25.78628,0,0,0,.4087,4.0328q.97365,9.614,1.9478,19.2277-7.3416-4.5345-14.6832-9.0689c-2.676-1.6528-5.848-4.4958-8.9697-5.3064-2.9432-.7644-7.1176.5066-10.2048.5432-1.0562.0125-2.1133,0-3.1696,0H800.7375c-9.8607,0-19.7373.6253-29.2356-2.5803a47.90088,47.90088,0,0,1-16.9617-80.6345Z"/><path class="cls-12" d="M783.6323,199.56936a5.5742,5.5742,0,1,0-5.5741-5.5742A5.57413,5.57413,0,0,0,783.6323,199.56936Z"/><path class="cls-12" d="M812.0607,199.56936a5.5742,5.5742,0,1,0-5.5742-5.5742A5.57415,5.57415,0,0,0,812.0607,199.56936Z"/><path class="cls-12" d="M840.4892,199.56936a5.5742,5.5742,0,1,0-5.5742-5.5742A5.57411,5.57411,0,0,0,840.4892,199.56936Z"/><path class="cls-12" d="M239.0588,509.972q-34.0404-11.71365-68.0806-23.4273c-6.0981-2.0986-8.7175,7.5577-2.6582,9.6427q34.0401,11.7138,68.0803,23.4274C242.4985,521.71336,245.1179,512.05716,239.0588,509.972Z"/><path class="cls-12" d="M165.9025,466.30106c-.6154.3781-1.2441.7456-1.9008,1.0921a4.74776,4.74776,0,0,0-1.9251,1.7622c.1524-.0249.3006-.0452.4529-.0699Q164.20455,467.684,165.9025,466.30106Z"/><path class="cls-12" d="M162.0766,469.15536a4.02034,4.02034,0,0,0-.238.5082q.345-.28935.6909-.5781C162.3772,469.11016,162.229,469.13046,162.0766,469.15536Z"/><path class="cls-12" d="M305.9382,504.25786q-.8031,1.2924-1.6065,2.5845a4.98019,4.98019,0,0,0,0,5.0472q.9342,1.5288,1.8684,3.0574C306.2465,511.35056,306.1521,507.78936,305.9382,504.25786Z"/><path class="cls-12" d="M312.1877,457.00446a42.7716,42.7716,0,0,1,8.8374,7.3872,42.7716,42.7716,0,0,0-8.8374-7.3872c-2.6397,1.8174-3.6235,6.3745-.062,8.6789q6.3438,4.1049,12.688,8.21-9.438,15.18225-18.8755,30.3645c.2139,3.5315.3083,7.0927.2619,10.6891q4.06575,6.6531,8.1316,13.306-5.9454,26.5554-11.8906,53.1112-1.76985-2.5968-3.5886-5.1441-5.747-8.0277-12.1111-15.5999c-4.1809-4.9734-9.2085-9.4216-13.1819-14.5137-5.0959-6.53-8.2068-15.3606-11.3877-22.9272a22.24106,22.24106,0,0,0-1.3598-3.2954c-.0862-.135-.1534-.2305-.2127-.3093-.1794-2.126-.2038-4.2812-.31-6.409q-.58965-11.78745-1.179-23.5749c-.2473-4.947.8823-11.9331-4.4294-14.3312-9.918-4.4779-20.8826-7.3942-31.1331-11.0237q-17.31075-6.12945-34.6216-12.2589c6.0559-17.1677,4.6321-38.5293,3.5989-55.2664-.3945-6.393-10.3975-6.4377-10,0,1.0012,16.2208,2.0681,33.5629-2.2751,49.4263-2.3665,8.6436-6.8526,15.5615-14.3475,20.1643q-1.6995,1.38105-3.373,2.7844c1.5102-.2446,3.0132-.4819,4.4956-.6938-1.4824.2119-2.9854.4492-4.4956.6938q-.34575.289-.6909.5781c-1.5269,3.6573,2.6247,8.783,7.2102,6.3643a39.2706,39.2706,0,0,0,15.6726-14.9558q16.67865,5.9055,33.3569,11.8112,11.77,4.16745,23.5398,8.3351,3.5856,1.2693,7.1707,2.5389c.4604,12.1068.2839,24.5389,1.854,36.4825.313,2.3796,1.4277,4.5094,2.3574,6.7188,2.0601,4.894,4.1858,9.7646,6.519,14.5354,5.8672,11.9971,15.6072,20.4014,23.877,30.7439a174.93351,174.93351,0,0,1,16.9355,24.6517c2.0164,3.6719,8.1985,3.0056,9.1387-1.1944q4.02315-17.9685,8.0459-35.9373,2.55945-11.4327,5.1192-22.8653c.8122-3.6285,2.8591-8.6077,1.2534-12.177-2.3951-5.3241-6.0911-10.3737-9.3391-15.373q9.50715-15.29445,19.0146-30.5886a14.7856,14.7856,0,0,1-4.5393-4.3623,14.7856,14.7856,0,0,0,4.5393,4.3623q1.20075-1.93215,2.4021-3.8644a5.09118,5.09118,0,0,0-1.7937-6.8409q-4.7787-3.09225-9.5574-6.1842c-1.1967-.1239-2.3935-.2733-3.5903-.4728,1.1968.1995,2.3936.3489,3.5903.4728q-3.72135-2.4078-7.4426-4.8158A4.28966,4.28966,0,0,0,312.1877,457.00446Z"/><path class="cls-12" d="M307.7197,613.73936c6.3237,57.2126-.7327,114.7495-3.1946,171.9711-.2769,6.4346,9.7236,6.4214,10,0,2.4619-57.2216,9.5183-114.7585,3.1946-171.9711C317.0205,607.41266,307.0126,607.34166,307.7197,613.73936Z"/><path class="cls-12" d="M241.884,274.03276c1.0881,2.4907,3.9678,4.266,7.0215,2.5247q2.4546-1.39965,4.834-2.9466c-.9102-.066-1.8167-.1377-2.7144-.2192A35.74616,35.74616,0,0,0,241.884,274.03276Z"/><path class="cls-12" d="M277.9572,247.29446c5.3892-11.6203,6.1158-24.1169,4.2461-36.6435-.9465-6.3428-10.5837-3.6472-9.6426,2.6584,1.5113,10.126.7344,20.7669-3.7773,30.0747-5.2778,10.8872-14.5854,18.6431-24.925,24.5386a4.59392,4.59392,0,0,0-1.9744,6.1101,35.74616,35.74616,0,0,1,9.1411-.6411c.8977.0815,1.8042.1532,2.7144.2192C263.8942,267.01726,272.798,258.41856,277.9572,247.29446Z"/><path class="cls-12" d="M238.382,218.24006c-.5173-6.3699-10.5219-6.4253-10,0,2.4698,30.4133-14.5034,55.2883-40.5236,69.6826-4.8831,2.7014-1.7447,9.549,2.8522,9.2913a69.07488,69.07488,0,0,1,5.3145-4.8223,69.07488,69.07488,0,0,0-5.3145,4.8223,5.09386,5.09386,0,0,0,2.1949-.6565,96.044,96.044,0,0,0,26.7011-21.6098,12.78144,12.78144,0,0,1-2.5815-1.556,12.78144,12.78144,0,0,0,2.5815,1.556C232.7629,259.49376,240.1435,239.92986,238.382,218.24006Z"/><path class="cls-12" d="M321.2033,206.911a4.90438,4.90438,0,0,0-.7361-1.8245c-.4819-.23-.9511-.4765-1.4421-.6948.491.2183.9602.4648,1.4421.6948-2.5813-3.8164-10.0004-1.089-8.9065,4.4829,2.8147,14.3369,2.9082,27.689-5.5327,40.1907-5.7739,8.552-14.5273,15.2534-24.9751,16.6587-3.2224.4333-4.1089,3.1292-3.3799,5.5686a46.38536,46.38536,0,0,0,7.3521-2.5957,46.38536,46.38536,0,0,1-7.3521,2.5957,5.52508,5.52508,0,0,0,6.0381,4.0742c12.9768-1.7456,23.8516-10.7464,30.9517-21.2544C324.6145,240.07916,324.5112,223.75856,321.2033,206.911Z"/><path class="cls-12" d="M1207.8479,281.44536a5.25066,5.25066,0,0,0,3.8609-4.5085c2.2464-18.9632,4.841-37.9535,5.4436-57.0606.4834-15.3247.015-31.6948-6.14-45.9785-11.6157-26.9556-41.5442-48.3108-71.4954-44.0571a4.93814,4.93814,0,0,0-1.5848.4878,23.60914,23.60914,0,0,1,11.0929,7.0632,23.60914,23.60914,0,0,0-11.0929-7.0632c-4.2054,2.1734-1.4542,9.9641,4.2433,9.155,26.3474-3.7418,54.0608,19.0227,61.5454,43.3415,4.3264,14.0567,3.946,29.4719,3.1211,43.9935-.9529,16.7724-3.1581,33.4448-5.1332,50.1184a5.02059,5.02059,0,0,0,.0513,1.6004c-4.9972-1.2472-10.1131-.0118-14.7383,2.5019-1.0333.6694-2.0692,1.3138-3.111,1.924a38.37829,38.37829,0,0,0-3.8537,3.076c-4.7722,4.3383,2.3161,11.3938,7.071,7.071,4.7942-4.3581,11.753-7.8054,16.7581-1.8224,4.8952,5.8519,4.4429,14.3788,2.4809,21.2451-3.7661,13.1816-13.3038,30.1022-28.9348,30.2144-6.4321.0463-6.4468,10.0463,0,10,22.4114-.1608,37.6873-24.7387,40.0624-44.8482C1218.6199,298.37266,1215.941,287.35256,1207.8479,281.44536Z"/><path class="cls-12" d="M1183.9108,282.96316c1.0418-.6102,2.0777-1.2546,3.111-1.924A32.96865,32.96865,0,0,0,1183.9108,282.96316Z"/><path class="cls-12" d="M1182.0251,354.45416v0a5.13085,5.13085,0,0,0-3.0393,4.2241q-1.20105,10.9824-2.4019,21.9649c-.4912,4.4915,4.3066,5.7961,7.4412,3.9743v0a5.10629,5.10629,0,0,0,2.5588-3.9743q1.2009-10.98255,2.4019-21.9649C1189.4523,354.411,1185.1447,353.02056,1182.0251,354.45416Z"/><path class="cls-12" d="M1211.9896,437.35616c-15.0236,18.8793-35.7504,33.4085-55.5241,46.8757-10.3142,7.0249-20.8144,13.8385-31.542,20.2358a189.82956,189.82956,0,0,0-12.4901-32.2972c-2.9408-5.7264-11.5724-.6731-8.6346,5.0472,5.8423,11.3766,9.8486,23.8548,13.2969,36.1491a5.05622,5.05622,0,0,0,7.3449,2.9882c13.0127-7.5216,25.687-15.6988,38.0884-24.182,20.073-13.731,41.261-28.5561,56.5316-47.7458C1223.028,439.44166,1215.9973,432.31986,1211.9896,437.35616Z"/><path class="cls-12" d="M1158.4384,369.35636c-8.7326,20.172-27.3884,36.8043-45.0974,49.1522-17.1788,11.9783-37.8664,19.1661-58.9649,14.7745a51.62431,51.62431,0,0,1-27.5386-15.1058c-8.8046-9.4289-14.5629-22.3898-18.7307-34.4572-8.9263-25.8452-7.8254-52.7085-8.4612-79.6514a688.806,688.806,0,0,1,2.5198-75.9712,4.06724,4.06724,0,0,0-2.2799-4.2894c.0715,5.61.674,11.2395.1396,16.5836.5344-5.3441-.0681-10.9736-.1396-16.5836-2.8438-1.3706-7.3543.068-7.7201,4.2894a668.70094,668.70094,0,0,0-2.5934,72.7733c.633,28.5089-.657,57.317,8.6184,84.6996,6.2803,18.5405,15.7246,36.5601,31.2468,47.6553.5331-.6123,1.0647-1.2236,1.5879-1.834-.5232.6104-1.0548,1.2217-1.5879,1.834a57.72933,57.72933,0,0,0,17.1646,8.4089,68.33272,68.33272,0,0,0,7.8999,1.8496q.7554,5.3745,1.5107,10.7491c.3761,2.6767,3.788,4.1416,6.1505,3.4921,2.8798-.7912,3.8695-3.4655,3.4922-6.1505q-.4968-3.53475-.9935-7.0697a85.81249,85.81249,0,0,0,46.8576-12.8507,179.00788,179.00788,0,0,0,31.8831-25.3265c9.3417-9.2378,18.4049-19.7605,23.6708-31.9243C1169.6035,368.55826,1160.9909,363.45986,1158.4384,369.35636Z"/><path class="cls-12" d="M1038.2259,299.03756c-1.5055,6.6895-4.7635,12.8353-8.3133,18.6499a99.5804,99.5804,0,0,1-6.3466,9.2982c-2.1827,2.8041-4.4537,5.2112-4.5494,8.9814-.1888,7.4483,8.4106,13.2027,13.2272,17.9266,4.5984,4.5097,11.6753-2.5557,7.0711-7.0711q-2.874-2.81865-5.7483-5.6376a24.79943,24.79943,0,0,1-3.4902-3.4228c-1.1499-1.7735-.5187-2.3305,1.0156-4.2938,7.2275-9.2478,14.1685-20.1819,16.7766-31.7725C1049.2793,295.42806,1039.6405,292.75166,1038.2259,299.03756Z"/><path class="cls-12" d="M1082.7255,299.41876c6.4345,0,6.4451-10,0-10C1076.291,289.41876,1076.2802,299.41876,1082.7255,299.41876Z"/><path class="cls-12" d="M1019.8015,281.55516c-6.4346,0-6.4452,10,0,10C1026.236,291.55516,1026.2467,281.55516,1019.8015,281.55516Z"/><path class="cls-12" d="M1084.6022,503.36666c-1.8343,3.256-3.9947,6.2074-7.5178,7.9908,3.0548,3.9356,10.688,1.2827,8.8098-4.2189Q1085.2516,505.25591,1084.6022,503.36666Z"/><path class="cls-12" d="M1084.6022,503.36666a223.40685,223.40685,0,0,0-10.0651-25.3917,30.12,30.12,0,0,0-1.8092-3.2634,4.9295,4.9295,0,0,0-2.2332-4.421c-4.6459-3.1906-9.4325-6.3423-13.2137-10.5766-3.6944-4.1375-6.2004-9.3461-8.7685-14.2101-3.006-5.6933-11.6402-.6454-8.6346,5.0472,2.9978,5.678,6.0229,11.4168,10.332,16.2339a53.271,53.271,0,0,0,8.179,7.2012c-1.6507,1.2825-3.185,2.7265-4.5978,4.0036-9.3866,8.4853-17.5863,18.185-26.6698,26.9794-.0993.0961-.2024.1867-.302.2822.0657-2.6932.1758-5.3858.3113-8.0759.8034-15.942,2.3825-31.8578,2.8755-47.8137.1989-6.4369-9.8013-6.4305-10,0-.1318,4.2638-.3479,8.5253-.6016,12.7853a54.24383,54.24383,0,0,1,5.6206-1.7554,54.24383,54.24383,0,0,0-5.6206,1.7554c-.6091,10.2373-1.4578,20.4663-2.0402,30.6997-.3355,5.8961-.7913,11.8646-.5848,17.7744.1382,3.9538.9438,8.909,6.0405,8.9004,4.0181-.0071,7.5808-3.8894,10.2666-6.4209,4.5633-4.3013,8.838-8.9113,13.174-13.438,4.4708-4.6676,8.9326-9.3657,13.6791-13.757a47.17806,47.17806,0,0,1,5.1098-4.3282c.0266-.0183.0598-.0366.0891-.0551.0305.0533.0655.1078.0933.1601.697,1.3144,1.3107,2.676,1.9134,4.0354,1.5024,3.3874,2.8341,6.8515,4.1452,10.3167q2.58795,6.84045,4.9609,13.7624a5.32818,5.32818,0,0,0,.833,1.5605C1080.6075,509.57406,1082.7679,506.62266,1084.6022,503.36666Zm-63.3175,6.5198c.0099-.0461.1047-.0995.2411-.152A2.13378,2.13378,0,0,1,1021.2847,509.88646Zm5.5634,2.4385c-.0691.222-.0828-.05-.0811-.4458C1027.8864,512.72346,1026.8051,512.463,1026.8481,512.325Zm37.1553-32.8046c-.2676.101-.1509-.3955.1234.0952C1064.0207,479.56936,1063.9663,479.53426,1064.0034,479.52036Zm2.9896.8834c.0074-.0088.0183-.017.0253-.0258.0339-.0434-.0976-.1902.0739.0028C1067.1147,480.40626,1067.0756,480.41216,1066.993,480.40376Z"/><path class="cls-12" d="M1217.3465,421.56246q-4.5-17.4999-9-35c-.88-3.4223-5.9093-5.132-8.3569-2.2063a209.78729,209.78729,0,0,1-15.9645,17.0025v0a284.77189,284.77189,0,0,1-44.0845,33.9722c-11.7173,7.468-23.7414,14.4401-35.7568,21.4133q-4.4529,2.58435-8.9038,5.1724c-2.5952,1.5115-6.64,2.9102-7.5762,6.0706-.5863,1.9787-.2121,4.5466-.2331,6.5609q-.10845,10.4217-.217,20.8436a5.014,5.014,0,0,0,.4308,2.1572,26.3521,26.3521,0,0,1,4.3406-6.1572,26.3521,26.3521,0,0,0-4.3406,6.1572c1.9058,4.173,9.5108,3.4583,9.5692-2.1572q.12075-11.5935.2414-23.1868c36.8155-21.4874,74.5041-42.3088,103.5409-73.9143q3.33375,12.96525,6.6678,25.9302c1.3762,5.3523,8.6885,4.1523,9.7002-.2546a86.49444,86.49444,0,0,1-5.3789-12.5745,86.49444,86.49444,0,0,0,5.3789,12.5745A5.031,5.031,0,0,0,1217.3465,421.56246Z"/><path class="cls-12" d="M1175.6374,287.08206a61.97283,61.97283,0,0,1-6.6123,2.3096,61.97283,61.97283,0,0,0,6.6123-2.3096c-.7772-3.2502-5.2197-5.76-8.5502-2.7812q-2.644,2.3646-5.2881,4.7296c.3962-6.7033.6125-13.4235.4369-20.1122a44.17415,44.17415,0,0,0-.5562-6.1713,5.46538,5.46538,0,0,0-.0852-1.5418c-2.3547-11.9663-14.1252-20.9947-21.5071-30.422-.463-.6098-.9325-1.2143-1.3771-1.839-3.5854-5.0388-11.8428-.5108-8.9473,4.5591a18.4209,18.4209,0,0,0,9.262-3.1116,18.4209,18.4209,0,0,1-9.262,3.1116q.13905.24345.3125.4881c.7599,1.0679,1.5492,2.1092,2.3514,3.1388,3.4638,4.513,7.2104,8.7747,10.9624,13.0664.7746.886,1.5708,1.7835,2.354,2.7002.4675.5734.9375,1.1443,1.395,1.7268,4.1864,5.3326,5.071,9.7947,5.1321,16.3747.0927,9.9868-.5247,20.0128-1.3247,29.9652-.3714,4.6189,5.5656,6.1916,8.5355,3.5355q7.33845-6.56355,14.677-13.1271A4.24914,4.24914,0,0,0,1175.6374,287.08206Z"/><path class="cls-12" d="M1129.6416,128.63546c-2.573-.3682-5.1329-.6918-7.6165-1.2438,2.4836.552,5.0435.8756,7.6165,1.2438a4.72446,4.72446,0,0,0-2.2366-2.9596c-33.1738-20.3008-81.9304-7.2654-102.4068,25.2828-7.7919.5048-15.2805,5.0714-21.2926,9.7042-8.078,6.2246-14.3752,13.9844-15.0858,24.466-.7583,11.1885,4.7475,19.9068,12.5879,26.6844.2361-.8122.4972-1.6211.8174-2.4216-.3202.8005-.5813,1.6094-.8174,2.4216,6.9402,5.9995,15.7095,10.4785,23.5845,13.8025,12.2715,5.18,25.0729,8.9146,37.8679,12.5506a4.51616,4.51616,0,0,0,5.2879-1.9563,27.76037,27.76037,0,0,1-7.9229-2.8184,27.76037,27.76037,0,0,0,7.9229,2.8184c1.6359-2.5606,1.1689-6.607-2.6294-7.6864-11.9352-3.3918-23.9274-6.819-35.4229-11.5313-9.5034-3.8956-19.9917-8.8957-26.5398-17.1163-5.5784-7.0032-6.6689-16.8058-1.0459-24.1192a44.13936,44.13936,0,0,1,12.1621-10.4246c3.0938-1.8769,8.2045-5.1301,12.0424-4.6071,2.2181.3022,4.4507-.196,5.6466-2.2977,16.8955-29.6936,60.7795-42.1188,90.1968-24.1169C1126.591,136.901,1130.5378,132.38626,1129.6416,128.63546Z"/><path class="cls-12" d="M1122.2645,227.41536c-17.0504-1.0413-34.0778-6.8729-49.8164-13.1936a177.35142,177.35142,0,0,1-21.1598-9.9973c-3.5454-2.0027-9.2582-5.2915-10.647-7.9429-2.987-5.703-11.6206-.6537-8.6348,5.0471,2.419,4.6182,7.8362,7.7517,12.1431,10.3184a178.01248,178.01248,0,0,0,23.2346,11.2369,248.12156,248.12156,0,0,0,25.6277,9.1588,79.02992,79.02992,0,0,0,7.0132-3.6511,79.02992,79.02992,0,0,1-7.0132,3.6511,135.07741,135.07741,0,0,0,29.2526,5.3726,4.3109,4.3109,0,0,0,4.7721-4.0602,11.811,11.811,0,0,1-8.0115-4.9635,11.811,11.811,0,0,0,8.0115,4.9635A5.14584,5.14584,0,0,0,1122.2645,227.41536Z"/><path class="cls-4" d="M44.976,117.69646q8.7381,9.9774,17.476,19.955c4.6854,5.3501,13.0078-1.9226,8.3145-7.2816q-8.73795-9.97755-17.4759-19.955C48.6051,105.06466,40.2829,112.33756,44.976,117.69646Z"/><path class="cls-4" d="M21.7153,154.352c-6.7319-2.2903-10.2567,8.1866-3.5041,10.4839q12.556,4.27185,25.1122,8.5436c6.7317,2.2902,10.257-8.1868,3.5039-10.4839Q34.27125,158.62356,21.7153,154.352Z"/><path class="cls-4" d="M92.6933,92.19166q2.57835,13.00965,5.157,26.0195c1.3854,6.9898,12.2385,4.8917,10.8548-2.0909q-2.57865-13.0098-5.1574-26.0195C102.1624,83.111,91.3092,85.20906,92.6933,92.19166Z"/><path class="cls-4" d="M1334.428,117.69646q-8.7381,9.9774-17.476,19.955c-4.6854,5.3501-13.0078-1.9226-8.3146-7.2816q8.7381-9.97755,17.476-19.955C1330.7989,105.06466,1339.1211,112.33756,1334.428,117.69646Z"/><path class="cls-4" d="M1357.6887,154.352c6.7319-2.2903,10.2567,8.1866,3.5041,10.4839q-12.556,4.27185-25.1123,8.5436c-6.7316,2.2902-10.2569-8.1868-3.5038-10.4839Q1345.13275,158.62356,1357.6887,154.352Z"/><path class="cls-4" d="M1286.7107,92.19166q-2.57835,13.00965-5.157,26.0195c-1.3854,6.9898-12.2386,4.8917-10.8548-2.0909q2.57865-13.0098,5.1573-26.0195C1277.2416,83.111,1288.0948,85.20906,1286.7107,92.19166Z"/><path class="cls-2" d="M522.1462,341.50836c2.1943,2.8032,6.3701,5.4059,6.5735,9.1855a27.0002,27.0002,0,0,1-.4029,3.9755q-.97365,9.614-1.948,19.2277,9.0444-5.586,18.0884-11.1721a47.33423,47.33423,0,0,1,4.104-2.5347c3.44-1.6588,7.7244-.1735,11.46-.1253,3.2864.0423,6.5762,0,9.8628,0h33.5388c11.5842,0,22.3525-1.3444,32.3608-7.8529a47.88354,47.88354,0,0,0-3.3989-82.2751c-10.0041-5.5028-20.49-5.8182-31.5115-5.8182H567.1909c-11.2332,0-21.7688.8358-31.7337,6.8012a47.85184,47.85184,0,0,0-13.311,70.5884Zm90.7856-36.0874a5.5742,5.5742,0,1,1-5.5742,5.5742A5.57441,5.57441,0,0,1,612.9318,305.421Zm-28.4284,0a5.5742,5.5742,0,1,1-5.5742,5.5742A5.57439,5.57439,0,0,1,584.5034,305.421Zm-28.4285,0a5.5742,5.5742,0,1,1-5.5742,5.5742A5.57419,5.57419,0,0,1,556.0749,305.421Z"/><path class="cls-12" d="M502.0459,312.69606a59.17568,59.17568,0,0,0,16.4956,39.7558q-1.5708,15.504-3.1414,31.0079c-.3872,3.8206,4.519,6.1731,7.5237,4.3174q14.8095-9.14715,29.6194-18.2943c7.9372.9051,15.9743.5821,23.9555.5821h30.4226c28.053,0,53.7664-17.9414,59.4241-46.3376,6.4082-32.162-15.8874-64.3218-48.5115-68.9746-8.1291-1.1594-16.5822-.634-24.7688-.634H562.8815c-13.7883,0-26.8112,3.4155-37.9018,11.8916a58.72337,58.72337,0,0,0-22.9317,45.4511,5.77157,5.77157,0,0,0-.0258.6302A5.69795,5.69795,0,0,0,502.0459,312.69606ZM535.4572,270.92c9.9649-5.9654,20.5005-6.8012,31.7337-6.8012h33.6823c11.0215,0,21.5074.3154,31.5115,5.8182a47.88354,47.88354,0,0,1,3.3989,82.2751c-10.0083,6.5085-20.7766,7.8529-32.3608,7.8529H569.884c-3.2866,0-6.5764.0423-9.8628,0-3.7356-.0482-8.02-1.5335-11.46.1253a47.33423,47.33423,0,0,0-4.104,2.5347q-9.04395,5.58615-18.0884,11.1721.97425-9.6138,1.948-19.2277a27.0002,27.0002,0,0,0,.4029-3.9755c-.2034-3.7796-4.3792-6.3823-6.5735-9.1855a47.85184,47.85184,0,0,1,13.311-70.5884Z"/><path class="cls-12" d="M612.9318,316.56936a5.5742,5.5742,0,1,0-5.5742-5.5742A5.57434,5.57434,0,0,0,612.9318,316.56936Z"/><circle class="cls-12" cx="584.5034" cy="310.99516" r="5.5742"/><circle class="cls-12" cx="556.0749" cy="310.99516" r="5.5742"/></svg>