<svg width="180" height="181" viewBox="0 0 180 181" fill="none" xmlns="http://www.w3.org/2000/svg">
<path d="M90 180.534C139.706 180.534 180 140.24 180 90.534C180 40.8284 139.706 0.534027 90 0.534027C40.2944 0.534027 0 40.8284 0 90.534C0 140.24 40.2944 180.534 90 180.534Z" fill="#FAF7DE"/>
<mask id="mask0" style="mask-type:alpha" maskUnits="userSpaceOnUse" x="0" y="0" width="180" height="181">
<path d="M90 180.534C139.706 180.534 180 140.24 180 90.534C180 40.8284 139.706 0.534027 90 0.534027C40.2944 0.534027 0 40.8284 0 90.534C0 140.24 40.2944 180.534 90 180.534Z" fill="#FAF7DE"/>
</mask>
<g mask="url(#mask0)">
<path d="M126.303 101.853C126.074 101.937 125.838 102.004 125.598 102.052C124.512 102.256 123.391 102.16 122.355 101.774C120.624 108.251 117.321 114.2 112.739 119.095C112.75 119.157 112.769 119.212 112.775 119.277C113.415 125.817 114.355 132.943 118.095 138.532C120.944 142.791 125.358 144.664 129.745 146.942C132.479 148.361 135.166 149.87 137.807 151.468C135.157 134.708 128.923 118.614 126.303 101.853Z" fill="white"/>
<path d="M115.237 173.182C115.652 174.949 116.043 176.722 116.435 178.494C117.046 176.402 117.657 174.31 118.267 172.219C117.257 172.541 116.25 172.868 115.237 173.182Z" fill="#F2E98C"/>
<path d="M108.674 122.795C106.872 124.197 104.929 125.409 102.878 126.412C103.313 127.288 103.684 128.172 104.003 128.984C106.074 134.257 106.945 140.086 108.327 145.568C110.279 153.31 112.295 161.039 114.184 168.797C116.055 168.216 117.924 167.629 119.786 167.017C121.402 161.479 123.018 155.942 124.635 150.405C124.714 150.134 124.842 149.88 125.013 149.655C124.195 149.222 123.376 148.793 122.559 148.351C112.917 143.132 109.973 132.938 108.674 122.795Z" fill="white"/>
<path d="M65.9411 173.386C64.9846 173.138 64.0288 172.887 63.0737 172.633C63.5878 174.786 64.112 176.936 64.6462 179.084C65.0644 177.181 65.4961 175.282 65.9411 173.386Z" fill="#F2E98C"/>
<path d="M91.4115 109.054C91.3289 109.062 91.2468 109.075 91.166 109.094C91.2801 109.092 91.3914 109.084 91.4115 109.054Z" fill="white"/>
<path d="M86.0386 106.248C86.1651 106.473 86.2812 106.703 86.4273 106.916C86.4606 106.964 86.4956 107.011 86.5304 107.059C86.6617 107.182 86.7712 107.338 86.8964 107.468C87.0415 107.619 87.1925 107.764 87.3494 107.903C87.3905 107.94 87.5459 108.059 87.6131 108.113C87.6772 108.156 87.7384 108.197 87.7581 108.21C87.8881 108.295 88.0213 108.376 88.1566 108.453C88.3096 108.539 88.4678 108.616 88.6242 108.696L88.64 108.704C88.9227 108.796 89.1988 108.898 89.4885 108.969C89.634 109.005 89.7829 109.028 89.9299 109.059C89.9708 109.065 90.0151 109.073 90.0224 109.073C90.3183 109.089 90.6115 109.104 90.9079 109.092C90.9385 109.091 91.0408 109.095 91.1448 109.094C91.1617 109.09 91.1535 109.091 91.1879 109.083C91.2489 109.069 91.3122 109.062 91.3739 109.05C91.6836 108.991 91.9891 108.91 92.2882 108.81C92.3676 108.784 92.4458 108.749 92.5262 108.726L92.5815 108.71C92.6434 108.674 92.7062 108.634 92.7408 108.616C93.0074 108.478 93.2553 108.316 93.5065 108.152L93.5379 108.133L93.5644 108.108C93.6779 108.005 93.7944 107.906 93.9042 107.798C94.0321 107.674 94.1498 107.542 94.2714 107.412C94.2957 107.386 94.3195 107.358 94.3422 107.329C94.5155 107.053 94.7083 106.794 94.8635 106.505C94.9082 106.421 94.9498 106.335 94.9901 106.248H86.0386Z" fill="white"/>
<path d="M66.7313 119.037L66.0606 125.968C66.3599 125.821 66.6902 125.747 67.0237 125.753C68.1236 125.764 69.4352 126.788 69.2737 128.003C68.5902 133.143 68.2135 139.166 65.1496 143.57C63.1604 146.429 60.2083 148.227 57.1318 149.723C57.362 149.984 57.5281 150.295 57.6167 150.632C59.1822 156.318 60.5508 162.055 61.9116 167.795C62.1421 167.777 62.3738 167.797 62.5979 167.854C64.0587 168.251 65.5246 168.628 66.9897 169.008C67.5344 166.767 68.0883 164.528 68.6513 162.292C70.3194 155.677 72.0472 149.077 73.693 142.457C74.4853 139.27 75.2874 136.082 75.9935 132.875C76.348 130.881 76.8616 128.918 77.5294 127.006C77.5682 126.908 77.6136 126.811 77.6554 126.713C73.576 124.843 69.8736 122.241 66.7313 119.037V119.037Z" fill="white"/>
<path d="M57.1017 101.791C56.8137 101.907 56.5151 101.994 56.21 102.052C54.9394 102.298 53.6234 102.133 52.4527 101.581C51.4648 101.099 50.6411 100.336 50.0847 99.3873C49.4987 98.4125 49.2272 97.2809 49.3069 96.1463C49.3602 95.6042 49.4819 95.071 49.6691 94.5594C48.8668 93.9155 48.1618 93.159 47.576 92.3134C47.4923 92.1915 47.4253 92.0575 47.3466 91.932L46.1676 98.6692C47.5531 97.6299 49.9826 98.1637 49.7574 100.303C47.8809 118.123 44.3878 136.031 38.2871 152.93C42.6693 151.045 47.1228 149.318 51.4853 147.391C54.9702 145.852 59.3177 144.266 61.5131 140.932C63.9158 137.281 64.2155 132.202 64.774 128.003C64.8055 127.584 64.9393 127.18 65.1637 126.825C65.3881 126.47 65.6962 126.176 66.0609 125.968L66.7316 119.037C61.9892 114.289 58.6559 108.319 57.1017 101.791V101.791Z" fill="white"/>
<path d="M127.201 75.3797C125.865 74.4392 123.547 75.3506 122.257 76.0251C121.976 76.1745 121.668 76.2653 121.351 76.2922C121.08 76.4503 120.773 76.5385 120.459 76.549C120.144 76.5594 119.832 76.4918 119.551 76.3522C119.269 76.2125 119.026 76.0052 118.844 75.7488C118.662 75.4924 118.547 75.1948 118.508 74.8828C117.828 70.2855 116.773 65.7517 115.353 61.3269C115.225 61.3495 115.096 61.3619 114.966 61.364C106.717 61.3385 98.617 58.4395 91.6579 54.1237C85.9377 50.576 80.4454 45.8446 76.9945 39.9574C76.2059 41.1758 75.2715 42.2933 74.212 43.2851C71.0402 54.3383 67.7531 66.1508 59.2437 74.2916C59.1716 74.7034 58.9921 75.0888 58.7234 75.4091C58.4547 75.7293 58.1063 75.973 57.7133 76.1156C57.3203 76.2582 56.8967 76.2946 56.4851 76.2211C56.0736 76.1476 55.6887 75.9669 55.3693 75.6972C54.3427 74.9828 53.0772 74.6984 51.8436 74.905C51.6221 74.9326 51.4038 74.9815 51.1916 75.0509C51.1726 75.0572 51.1665 75.057 51.1513 75.0614C51.1429 75.0705 51.142 75.074 51.1315 75.0846C50.8255 75.4167 50.576 75.7968 50.3929 76.2097C49.4974 78.4802 49.1885 80.9398 49.4946 83.3612C49.6495 85.5055 50.0516 88.1627 51.3813 89.9361C51.7623 90.4349 52.2115 90.8777 52.7158 91.2514C54.0175 90.6762 55.4891 90.617 56.8327 91.0858C58.0053 91.5123 59.0179 92.29 59.7324 93.3129C59.828 93.4569 59.9154 93.6063 59.994 93.7602C60.2343 93.9679 60.4282 94.2238 60.5631 94.5113C60.698 94.7988 60.7708 95.1116 60.7768 95.4291C61.0504 107.247 69.3809 118.478 80.2376 122.942C81.0288 122.125 82.0227 121.534 83.1176 121.227C84.2125 120.921 85.3691 120.911 86.4691 121.198C87.34 121.435 88.1548 121.844 88.8658 122.4C89.5768 122.956 90.1697 123.648 90.6098 124.436C91.1206 123.429 91.891 122.577 92.8414 121.967C93.7918 121.357 94.8877 121.012 96.016 120.967C96.8076 120.94 97.596 121.079 98.3309 121.374C99.0658 121.67 99.7309 122.116 100.284 122.683C110.097 117.984 116.998 108.013 118.749 97.3175C118.683 96.9308 118.665 96.5374 118.695 96.1463C118.75 95.5491 118.889 94.9625 119.107 94.4039C119.113 94.331 119.125 94.2585 119.13 94.1855C119.143 93.7143 119.304 93.2593 119.59 92.8849C119.877 92.5105 120.274 92.2358 120.725 92.0997C121.874 91.1568 123.341 90.6909 124.823 90.7981C125.359 90.5207 125.859 90.1776 126.31 89.7765C128.062 88.1861 128.814 85.4769 129.12 83.2119C129.433 80.8987 129.381 76.9145 127.201 75.3797ZM90.5629 91.5827C93.4633 91.5827 93.4584 96.0827 90.5629 96.0827C87.6625 96.0827 87.6673 91.5827 90.5629 91.5827ZM69.449 67.6211C69.2931 67.0359 69.3747 66.4128 69.6759 65.8874C69.989 65.3958 70.4649 65.0297 71.0205 64.8533C72.3925 64.2772 73.8384 63.8957 75.3161 63.7198C77.1141 63.5511 78.927 63.6403 80.6998 63.9846C81.2714 64.1492 81.7558 64.5311 82.0495 65.0483C82.3432 65.5656 82.4227 66.1773 82.2712 66.7525C82.111 67.3163 81.7411 67.7975 81.2374 68.0971C80.707 68.3836 80.0896 68.4643 79.5034 68.3239C79.3789 68.3036 79.2542 68.284 79.1295 68.2651C78.5959 68.2408 78.957 68.239 79.1035 68.261L79.1295 68.2651L79.1602 68.2666C78.9636 68.2579 78.7642 68.2195 78.5677 68.2005C78.1766 68.1628 77.7844 68.1369 77.3918 68.1257C77.0324 68.1154 76.6727 68.1173 76.3137 68.134C76.1343 68.1422 75.9554 68.1543 75.7768 68.1702C75.7314 68.1743 75.6164 68.1875 75.5239 68.1978C75.4355 68.2114 75.3419 68.2259 75.3029 68.233C75.1411 68.2621 74.9798 68.2946 74.8192 68.3306C74.5214 68.397 74.2264 68.4743 73.9344 68.5625C73.3511 68.742 72.7778 68.9523 72.2169 69.1926C71.928 69.2775 71.6246 69.3012 71.3261 69.2621C71.0276 69.223 70.7405 69.1221 70.4832 68.9657C69.978 68.6675 69.6075 68.1858 69.449 67.6211V67.6211ZM80.5267 76.2278C80.3666 76.7917 79.9966 77.2729 79.4927 77.5725C78.9652 77.8674 78.3447 77.9486 77.7591 77.7993C77.5936 77.7591 77.4257 77.7331 77.2587 77.7025C76.8606 77.6673 76.4602 77.667 76.0621 77.7018C75.1035 77.9107 74.167 78.2101 73.265 78.5958C72.9759 78.6792 72.6727 78.7021 72.3744 78.663C72.0761 78.624 71.789 78.5239 71.5311 78.369C71.026 78.0708 70.6556 77.5891 70.4971 77.0244C70.3413 76.4392 70.4227 75.8161 70.7238 75.2906C71.0348 74.797 71.5116 74.4304 72.0686 74.2566C72.9714 73.8636 73.9104 73.5598 74.8723 73.3495C76.2255 73.0936 77.6178 73.1314 78.9552 73.4601C79.5253 73.6269 80.0082 74.009 80.3016 74.5256C80.5949 75.0422 80.6756 75.6527 80.5267 76.2278H80.5267ZM97.4973 110.543C96.3142 111.845 94.7874 112.786 93.0928 113.257C91.3983 113.728 89.6051 113.711 87.92 113.207C86.0429 112.58 84.3778 111.442 83.1121 109.921C81.8463 108.4 81.0301 106.556 80.7553 104.597C80.7496 104.564 80.7576 104.532 80.7532 104.5C80.71 104.336 80.6838 104.168 80.6749 103.998C80.6688 103.682 80.7343 103.368 80.8665 103.08C80.9986 102.793 81.194 102.538 81.4381 102.337C81.4983 102.282 81.5618 102.23 81.6283 102.183C81.8134 102.053 82.0162 101.95 82.2305 101.878C82.267 101.866 82.2891 101.839 82.3269 101.829C82.3631 101.819 82.4025 101.819 82.4395 101.811C82.5048 101.795 82.5711 101.789 82.6374 101.779C82.6881 101.774 82.7372 101.765 82.7886 101.763C82.8342 101.76 82.8789 101.748 82.9249 101.748H97.8051C98.4 101.754 98.9689 101.993 99.3896 102.414C99.8103 102.835 100.049 103.403 100.055 103.998C99.938 106.4 99.0399 108.698 97.4973 110.543H97.4973ZM110.175 77.4418C109.875 77.9456 109.394 78.3156 108.83 78.4759C108.268 78.6151 107.675 78.544 107.162 78.2759C106.604 78.0556 106.024 77.8951 105.432 77.7971C105.044 77.7631 104.654 77.7597 104.266 77.7871C103.918 77.8416 103.576 77.9286 103.244 78.0471C102.955 78.1298 102.652 78.1524 102.354 78.1134C102.056 78.0744 101.769 77.9747 101.51 77.8204C101.005 77.5221 100.635 77.0404 100.476 76.4756C100.32 75.8904 100.402 75.2673 100.703 74.7419C101.013 74.2474 101.49 73.8805 102.048 73.7079C103.211 73.2885 104.458 73.1527 105.685 73.3116C106.964 73.4489 108.21 73.8046 109.368 74.3634C109.876 74.6576 110.248 75.141 110.402 75.7081C110.48 75.9977 110.501 76.3001 110.462 76.5977C110.423 76.8952 110.325 77.1821 110.175 77.4418V77.4418ZM111.462 67.6211C111.302 68.185 110.932 68.6662 110.428 68.9657C110.169 69.1174 109.882 69.2156 109.584 69.2545C109.287 69.2935 108.984 69.2725 108.695 69.1926C108.117 68.9453 107.527 68.7299 106.926 68.5474C106.633 68.4606 106.338 68.3844 106.039 68.3187C105.878 68.2835 105.716 68.2517 105.554 68.2233C105.527 68.2186 105.474 68.2103 105.416 68.2015C105.307 68.1897 105.134 68.1699 105.076 68.165C104.897 68.15 104.717 68.1388 104.537 68.1314C104.176 68.1162 103.814 68.1156 103.454 68.1276C103.059 68.1407 102.664 68.1685 102.271 68.2079C102.173 68.2178 102.074 68.2284 101.976 68.2396C101.943 68.2434 101.85 68.2559 101.793 68.2632L101.729 68.2728C101.622 68.2892 101.515 68.3066 101.408 68.3239C100.833 68.4652 100.226 68.3812 99.7113 68.0889C99.1966 67.7967 98.8133 67.3185 98.6401 66.7525C98.4843 66.1672 98.5658 65.5441 98.867 65.0186C99.1635 64.512 99.6459 64.1411 100.212 63.9846C101.985 63.6413 103.797 63.5522 105.595 63.7198C107.073 63.8947 108.519 64.2763 109.891 64.8533C110.439 65.0427 110.912 65.4057 111.235 65.8874C111.386 66.1472 111.483 66.4341 111.522 66.7316C111.561 67.0292 111.541 67.3314 111.462 67.6211H111.462Z" fill="white"/>
<path d="M76.0061 38.184C74.7264 35.5938 78.609 33.3164 79.8918 35.9127C82.8893 41.9799 88.253 46.7178 93.929 50.2381C99.8462 54.0738 106.646 56.3339 113.682 56.8038C110.574 49.3799 105.912 42.7569 98.8846 38.6872C96.3766 37.2349 98.6449 33.3477 101.156 34.8016C113.946 42.2082 119.882 57.0708 122.416 71.1194C123.568 70.7271 124.777 70.5247 125.994 70.5199C126.728 66.9037 127.066 63.2183 127.002 59.5289C126.957 49.3671 123.562 39.7497 116.525 32.3291C112.974 28.6444 108.71 25.722 103.992 23.7403C99.2743 21.7586 94.2021 20.7593 89.0852 20.8032C88.7576 20.8038 88.4341 20.7308 88.1384 20.5896C87.8428 20.4485 87.5827 20.2428 87.3772 19.9877C87.1716 19.7326 87.026 19.4346 86.951 19.1157C86.876 18.7968 86.8735 18.4652 86.9438 18.1452C85.8148 18.5753 84.6034 18.7455 83.3996 18.643C83.494 18.9082 83.5276 19.1913 83.4979 19.4712C83.4682 19.7512 83.3759 20.0209 83.2279 20.2604C83.0799 20.4999 82.8799 20.703 82.6428 20.8548C82.4056 21.0065 82.1374 21.103 81.858 21.1371C76.8729 22.0822 72.2176 24.3026 68.3459 27.5819C61.1042 33.5463 55.5851 41.3348 52.3579 50.1439C50.0562 56.5226 50.6182 63.855 52.485 70.3262C53.7287 70.3469 54.9581 70.5949 56.1126 71.0579C64.5582 62.9156 67.3498 50.7431 70.5161 39.8585C71.3245 37.0788 75.6657 38.2687 74.8553 41.0547C74.6404 41.7937 74.4259 42.5372 74.2119 43.2851C75.2714 42.2933 76.2058 41.1758 76.9944 39.9574C76.6518 39.3733 76.3061 38.791 76.0061 38.184Z" fill="white"/>
<path d="M100.8 133.665C100.256 131.244 99.2896 128.939 97.9454 126.853C97.6074 126.297 97.1321 125.837 96.5651 125.517C96.6215 125.585 96.0101 125.472 96.2359 125.433C95.9733 125.466 95.7185 125.545 95.483 125.666C93.9533 126.462 93.64 128.391 93.6113 130.063C97.4704 129.604 100.599 133.148 101.453 136.718C103.669 145.975 105.315 155.419 107.149 164.758C107.705 167.592 103.367 168.794 102.81 165.955C101.392 158.732 99.936 151.517 98.4431 144.31C98.023 142.283 97.6206 140.25 97.1793 138.228C97.0848 137.54 96.8531 136.878 96.4979 136.281C96.1427 135.684 95.6713 135.165 95.1115 134.754C92.3991 133.167 92.4431 138.056 92.5031 140.588C93.1429 140.544 93.7847 140.635 94.3875 140.854C94.9903 141.073 95.5407 141.415 96.0034 141.859C98.2561 144.076 98.5511 148.149 99.0938 151.094C100.145 156.796 101.032 162.53 101.891 168.264C102.317 171.101 97.9802 172.314 97.5521 169.46C96.6926 163.727 95.8056 157.992 94.7546 152.29C94.4633 150.709 94.1943 149.113 93.7896 147.556C93.6229 146.699 93.3273 145.872 92.9129 145.103C91.7301 144.465 91.3646 146.389 91.4105 147.138C91.6347 150.796 92.2268 154.47 92.6322 158.112C93.6593 167.337 94.4387 176.667 96.1956 185.789C96.2026 185.824 96.1998 185.856 96.2052 185.891H113.44C110.543 171.571 106.64 157.483 103.123 143.308C102.327 140.101 101.637 136.861 100.8 133.665Z" fill="white"/>
<path d="M88.7897 166.949C88.8276 166.722 88.915 166.505 89.0456 166.315C88.6353 162.63 88.2249 158.944 87.8146 155.259C87.566 156.518 87.3223 157.778 87.0705 159.037C86.4042 162.366 85.7306 165.695 85.0497 169.022C84.4686 171.861 80.1319 170.652 80.7105 167.825C81.4367 164.278 82.1543 160.729 82.8635 157.178C83.3584 154.7 83.8441 152.22 84.3206 149.739C84.7824 147.333 85.2759 144.599 86.9903 142.735C87.2645 142.426 87.6239 142.205 88.0234 142.099C88.0158 142.012 88.0131 141.925 88.0153 141.838C88.129 140.174 88.0565 138.258 88.2453 136.452C88.0925 136.231 87.9801 135.984 87.9135 135.724C87.7251 134.984 87.0386 134.151 86.4395 134.199C85.8486 134.245 85.3368 135.604 85.1129 136.251C83.9614 139.583 83.5127 143.225 82.7898 146.666C81.715 151.783 80.634 156.898 79.5469 162.011C78.9435 164.847 74.6067 163.64 75.2076 160.815C76.6553 154.011 78.0908 147.204 79.5141 140.395C80.1973 137.126 80.6801 132.595 83.7294 130.556C84.2944 130.174 84.9346 129.918 85.607 129.804C86.2793 129.69 86.9683 129.722 87.6275 129.896C87.5808 128.28 87.2406 126.489 85.7701 125.721C84.7632 125.195 83.6167 125.588 82.7003 126.775C82.6177 126.941 82.5149 127.097 82.3943 127.238C81.4561 129.026 80.8373 130.965 80.5655 132.966C79.8885 136.201 79.0818 139.411 78.2889 142.619C74.7281 157.027 70.7454 171.338 67.8008 185.891H85.2814C85.2867 185.857 85.2777 185.823 85.2845 185.789C86.521 179.52 87.8679 173.274 88.7897 166.949Z" fill="white"/>
<path d="M138.573 157.257C135.445 155.227 132.202 153.463 128.936 151.734C128.497 153.235 128.059 154.736 127.621 156.237C124.735 166.122 121.85 176.007 118.964 185.891H163.878C161.838 179.833 158.444 174.319 153.954 169.768C149.341 165.003 144.177 160.803 138.573 157.257V157.257Z" fill="#F2E98C"/>
<path d="M53.2196 151.492C47.3818 154.035 41.4056 156.268 35.6612 159.019C30.1281 161.668 23.8474 165.057 20.2108 170.172C16.8816 174.855 15.2898 180.601 13.0049 185.891H61.7616C58.7497 174.584 56.3833 163.111 53.2774 151.828C53.2504 151.717 53.231 151.605 53.2196 151.492V151.492Z" fill="#F2E98C"/>
<path d="M111.462 67.6211C111.541 67.3315 111.561 67.0292 111.522 66.7317C111.483 66.4341 111.386 66.1472 111.236 65.8874C110.912 65.4058 110.44 65.0427 109.891 64.8533C108.519 64.2763 107.073 63.8948 105.595 63.7198C103.797 63.5522 101.985 63.6414 100.212 63.9846C99.6462 64.1411 99.1638 64.5121 98.8672 65.0186C98.5661 65.5441 98.4845 66.1672 98.6403 66.7525C98.8135 67.3185 99.1968 67.7967 99.7115 68.089C100.226 68.3812 100.833 68.4653 101.408 68.3239C101.515 68.3066 101.622 68.2892 101.729 68.2728L101.794 68.2632C101.85 68.2559 101.944 68.2434 101.977 68.2396C102.075 68.2284 102.173 68.2179 102.271 68.2079C102.664 68.1685 103.059 68.1407 103.454 68.1276C103.815 68.1156 104.176 68.1162 104.537 68.1314C104.717 68.1389 104.897 68.1501 105.076 68.165C105.134 68.1699 105.307 68.1897 105.416 68.2015C105.474 68.2103 105.527 68.2186 105.554 68.2233C105.716 68.2518 105.878 68.2836 106.039 68.3187C106.338 68.3838 106.633 68.4601 106.926 68.5474C107.527 68.7299 108.118 68.9453 108.695 69.1926C108.984 69.2725 109.287 69.2935 109.585 69.2546C109.882 69.2156 110.169 69.1174 110.429 68.9657C110.932 68.6662 111.302 68.185 111.462 67.6211V67.6211Z" fill="#323232"/>
<path d="M80.6997 63.9846C78.927 63.6403 77.1141 63.5511 75.316 63.7198C73.8384 63.8957 72.3925 64.2772 71.0205 64.8533C70.4649 65.0298 69.989 65.3958 69.6758 65.8874C69.3747 66.4128 69.2931 67.0359 69.4489 67.6211C69.6075 68.1859 69.978 68.6675 70.4832 68.9657C70.7404 69.1221 71.0275 69.223 71.3261 69.2621C71.6246 69.3012 71.928 69.2775 72.2168 69.1926C72.7778 68.9524 73.3511 68.742 73.9343 68.5625C74.2262 68.4747 74.5212 68.3974 74.8192 68.3306C74.9797 68.2948 75.1409 68.2623 75.3028 68.233C75.3418 68.2259 75.4354 68.2114 75.5238 68.1978C75.6163 68.1875 75.7313 68.1743 75.7767 68.1702C75.9554 68.1544 76.1344 68.1424 76.3136 68.134C76.6726 68.1173 77.0324 68.1154 77.3918 68.1257C77.7844 68.1369 78.1765 68.1628 78.5676 68.2005C78.7641 68.2195 78.9635 68.2579 79.1601 68.2666L79.1294 68.2651C79.2542 68.284 79.3789 68.3036 79.5033 68.3239C80.0896 68.4643 80.707 68.3836 81.2373 68.0971C81.7411 67.7975 82.111 67.3164 82.2711 66.7525C82.4227 66.1773 82.3432 65.5656 82.0495 65.0484C81.7558 64.5311 81.2713 64.1493 80.6997 63.9846V63.9846Z" fill="#323232"/>
<path d="M79.1296 68.2651L79.1036 68.261C78.957 68.239 78.596 68.2408 79.1296 68.2651Z" fill="#323232"/>
<path d="M90.5631 91.5827C87.6675 91.5827 87.6627 96.0827 90.5631 96.0827C93.4586 96.0827 93.4635 91.5827 90.5631 91.5827Z" fill="#323232"/>
<path d="M145.93 156.877C144.895 156.118 143.837 155.392 142.775 154.671C140.121 133.984 131.332 114.366 129.828 93.505C129.809 93.2601 129.751 93.0197 129.659 92.7923L129.668 92.7837C132.341 90.1359 133.446 86.0301 133.7 82.3812C133.94 78.9314 133.061 74.4314 130.231 72.058C130.267 71.9686 130.297 71.8771 130.321 71.7841C132.37 62.494 132.115 51.9043 128.562 43.0398C124.804 33.4656 117.706 25.576 108.581 20.8298C102.52 17.8337 95.8465 16.2843 89.0853 16.3032C88.5613 16.2811 88.0484 16.4591 87.6507 16.8012C87.2531 17.1433 87.0004 17.6237 86.9439 18.1452C87.471 17.8963 87.95 17.5562 88.3587 17.1406C87.95 17.5562 87.471 17.8963 86.9439 18.1452C86.8737 18.4652 86.8761 18.7968 86.9511 19.1157C87.0262 19.4346 87.1718 19.7326 87.3773 19.9877C87.5828 20.2428 87.843 20.4485 88.1386 20.5896C88.4342 20.7308 88.7577 20.8038 89.0853 20.8032C94.2022 20.7593 99.2744 21.7586 103.992 23.7403C108.71 25.722 112.974 28.6444 116.525 32.3291C123.563 39.7497 126.957 49.3671 127.002 59.5289C127.067 63.2183 126.729 66.9038 125.994 70.5199C124.777 70.5247 123.569 70.7271 122.416 71.1194C119.883 57.0708 113.947 42.2082 101.156 34.8016C98.645 33.3477 96.3767 37.2349 98.8847 38.6872C105.913 42.7569 110.575 49.3799 113.682 56.8038C106.646 56.3339 99.8464 54.0738 93.9291 50.2381C88.2531 46.7178 82.8894 41.9799 79.8919 35.9127C78.6091 33.3164 74.7265 35.5938 76.0062 38.184C76.3062 38.791 76.652 39.3733 76.9945 39.9574C77.3499 39.3862 77.6397 38.7767 77.8587 38.1406C77.6397 38.7767 77.3499 39.3862 76.9945 39.9574C80.4454 45.8446 85.9377 50.576 91.6579 54.1237C98.617 58.4395 106.717 61.3385 114.966 61.364C115.096 61.3619 115.225 61.3495 115.353 61.3269C116.773 65.7517 117.828 70.2855 118.508 74.8828C118.547 75.1949 118.662 75.4924 118.844 75.7488C119.026 76.0053 119.269 76.2126 119.551 76.3522C119.832 76.4918 120.144 76.5594 120.459 76.549C120.773 76.5385 121.08 76.4503 121.351 76.2922C121.668 76.2654 121.976 76.1745 122.257 76.0251C123.547 75.3506 125.865 74.4392 127.201 75.3797C129.381 76.9145 129.433 80.8987 129.12 83.2119C128.814 85.4769 128.062 88.1861 126.31 89.7765C125.859 90.1776 125.359 90.5208 124.823 90.7981C123.341 90.6909 121.874 91.1568 120.725 92.0997C120.274 92.2358 119.877 92.5105 119.59 92.8849C119.304 93.2593 119.143 93.7144 119.13 94.1855C119.125 94.2585 119.113 94.331 119.107 94.4039C118.889 94.9626 118.75 95.5491 118.695 96.1463C118.665 96.5375 118.683 96.9308 118.749 97.3175C116.998 108.013 110.097 117.984 100.284 122.683C99.7309 122.116 99.0658 121.67 98.3309 121.374C97.5961 121.079 96.8076 120.94 96.016 120.967C94.8877 121.012 93.7918 121.357 92.8414 121.967C91.891 122.577 91.1207 123.429 90.6098 124.436C90.1697 123.648 89.5768 122.956 88.8658 122.4C88.1548 121.844 87.34 121.435 86.4691 121.198C85.3691 120.911 84.2125 120.921 83.1176 121.227C82.0227 121.534 81.0288 122.125 80.2376 122.942C69.3809 118.478 61.0504 107.247 60.7768 95.4291C60.7708 95.1116 60.698 94.7989 60.5631 94.5113C60.4282 94.2238 60.2343 93.9679 59.994 93.7602C59.9154 93.6063 59.828 93.457 59.7324 93.3129C59.0179 92.29 58.0053 91.5123 56.8327 91.0858C55.4891 90.617 54.0175 90.6762 52.7158 91.2514C52.2115 90.8777 51.7623 90.4349 51.3813 89.9361C50.0516 88.1627 49.6495 85.5055 49.4946 83.3612C49.1885 80.9398 49.4974 78.4802 50.3929 76.2097C50.576 75.7968 50.8255 75.4168 51.1315 75.0846C51.142 75.074 51.1429 75.0705 51.1513 75.0614C51.1665 75.057 51.1726 75.0572 51.1916 75.0509C51.4038 74.9815 51.6221 74.9327 51.8436 74.905C53.0772 74.6985 54.3427 74.9828 55.3693 75.6972C55.6887 75.967 56.0736 76.1477 56.4851 76.2211C56.8967 76.2946 57.3203 76.2582 57.7133 76.1156C58.1063 75.9731 58.4547 75.7293 58.7234 75.4091C58.9921 75.0889 59.1716 74.7034 59.2437 74.2916C67.7531 66.1508 71.0402 54.3383 74.212 43.2851C72.512 44.7311 71.1894 46.5692 70.3587 48.6406C71.1894 46.5692 72.512 44.7311 74.212 43.2851C74.4264 42.5378 74.6409 41.7944 74.8554 41.0547C75.6658 38.2687 71.3246 37.0788 70.5162 39.8585C67.3499 50.7431 64.5583 62.9156 56.1127 71.0579C54.9582 70.5949 53.7288 70.3469 52.4851 70.3262C50.6183 63.855 50.0563 56.5226 52.358 50.1439C55.5853 41.3348 61.1044 33.5463 68.346 27.5819C72.2178 24.3026 76.873 22.0822 81.8581 21.1371C82.1376 21.103 82.4058 21.0065 82.6429 20.8548C82.8801 20.703 83.08 20.4999 83.2281 20.2604C83.3761 20.0209 83.4684 19.7512 83.4981 19.4713C83.5278 19.1913 83.4942 18.9082 83.3997 18.643C82.658 18.5865 81.9128 18.691 81.2153 18.9495C80.5178 19.208 79.8845 19.6144 79.3587 20.1406C79.8845 19.6144 80.5178 19.208 81.2153 18.9495C81.9128 18.691 82.658 18.5865 83.3997 18.643C83.2672 18.0429 82.9091 17.5168 82.3994 17.1733C81.8898 16.8299 81.2677 16.6954 80.6617 16.7978C70.6425 18.5028 62.4041 25.7672 56.4343 33.611C50.2717 41.7084 45.7556 51.257 46.4858 61.6179C46.7001 65.027 47.2728 68.404 48.1945 71.693C48.1544 71.7279 48.1041 71.7471 48.0651 71.7835C45.4273 74.2396 44.8917 78.5748 44.9351 81.9686C44.9774 85.28 45.5428 89.0583 47.3464 91.932L47.5119 90.9867L47.3464 91.932C47.4251 92.0575 47.4921 92.1915 47.5758 92.3134C48.1617 93.159 48.8666 93.9155 49.6689 94.5594C49.4817 95.071 49.36 95.6042 49.3067 96.1463C49.227 97.2809 49.4985 98.4125 50.0845 99.3873C50.6409 100.336 51.4646 101.099 52.4525 101.581C53.6232 102.133 54.9392 102.298 56.2098 102.052C56.5149 101.994 56.8135 101.907 57.1015 101.791C58.6557 108.319 61.9891 114.289 66.7314 119.037L66.95 116.779L66.7314 119.037C69.8737 122.241 73.5761 124.843 77.6555 126.713C77.6137 126.811 77.5683 126.908 77.5295 127.006C76.8617 128.918 76.3481 130.881 75.9936 132.875C75.2875 136.082 74.4854 139.27 73.6931 142.457C72.0473 149.077 70.3195 155.677 68.6514 162.292C68.0873 164.528 67.5335 166.767 66.9898 169.008C65.5247 168.628 64.0588 168.251 62.598 167.854C62.3739 167.797 62.1422 167.777 61.9117 167.795C60.5509 162.055 59.1823 156.318 57.6168 150.632C57.5281 150.295 57.3621 149.984 57.1319 149.723C60.2084 148.227 63.1605 146.429 65.1497 143.57C68.2136 139.166 68.5903 133.143 69.2738 128.003C69.4353 126.788 68.1237 125.764 67.0238 125.753C66.6902 125.747 66.36 125.821 66.0607 125.968L65.8285 128.368L66.0607 125.968C65.696 126.176 65.3879 126.47 65.1635 126.825C64.9392 127.18 64.8053 127.584 64.7738 128.003C64.2153 132.202 63.9156 137.281 61.5129 140.932C59.3175 144.266 54.97 145.852 51.4851 147.391C47.1226 149.318 42.6691 151.045 38.2869 152.93C44.3876 136.031 47.8807 118.123 49.7572 100.303C49.9824 98.1637 47.5529 97.6299 46.1674 98.6692L44.8952 105.939L46.1674 98.6692C45.9091 98.8619 45.6944 99.1071 45.5376 99.3886C45.3807 99.6701 45.2852 99.9817 45.2572 100.303C43.291 118.975 39.4379 137.767 32.6509 155.311C32.6229 155.383 32.6137 155.45 32.5932 155.52C27.1568 158.188 21.3575 161.608 17.4907 166.368C12.8925 172.029 11.2684 179.446 8.06592 185.891H13.005C15.2899 180.601 16.8817 174.855 20.2109 170.172C23.8475 165.057 30.1282 161.668 35.6613 159.019C41.4057 156.268 47.3819 154.035 53.2197 151.492C53.2311 151.605 53.2505 151.717 53.2775 151.828C56.3834 163.111 58.7498 174.584 61.7617 185.891H67.8007C70.7453 171.339 74.728 157.027 78.2888 142.619C79.0817 139.411 79.8884 136.201 80.5654 132.966C80.8372 130.965 81.456 129.026 82.3942 127.238C82.5148 127.097 82.6176 126.941 82.7002 126.775C83.6166 125.588 84.7631 125.195 85.77 125.721C87.2405 126.489 87.5807 128.28 87.6274 129.897C86.9682 129.722 86.2792 129.69 85.6069 129.804C84.9345 129.918 84.2943 130.174 83.7293 130.556C80.68 132.595 80.1972 137.126 79.514 140.395C78.0909 147.204 76.6554 154.011 75.2075 160.815C74.6066 163.64 78.9434 164.847 79.5468 162.012C80.6346 156.898 81.7155 151.783 82.7897 146.666C83.5126 143.225 83.9613 139.583 85.1128 136.251C85.3367 135.604 85.8485 134.245 86.4394 134.199C87.0385 134.151 87.725 134.984 87.9134 135.724C87.98 135.984 88.0924 136.231 88.2452 136.453C88.0564 138.258 88.1289 140.174 88.0152 141.838C88.013 141.925 88.0157 142.012 88.0233 142.099C87.6238 142.205 87.2644 142.426 86.9902 142.735C85.2758 144.599 84.7823 147.333 84.3205 149.739C83.8441 152.221 83.3584 154.7 82.8634 157.178C82.1544 160.729 81.4367 164.278 80.7104 167.825C80.1318 170.652 84.4685 171.861 85.0496 169.022C85.7308 165.695 86.4044 162.367 87.0704 159.037C87.3222 157.778 87.5659 156.518 87.8145 155.259C88.225 158.944 88.6353 162.63 89.0455 166.315C88.9149 166.505 88.8275 166.722 88.7896 166.949C87.8678 173.274 86.5209 179.52 85.2844 185.789C85.2776 185.823 85.2866 185.857 85.2813 185.891H89.8419C90.1729 184.225 90.5054 182.559 90.8394 180.893C91.0877 182.565 91.3618 184.231 91.6619 185.891H96.2052C96.1998 185.856 96.2026 185.824 96.1956 185.789C94.4387 176.667 93.6593 167.337 92.6322 158.112C92.2268 154.47 91.6347 150.796 91.4105 147.138C91.3646 146.389 91.7301 144.465 92.9129 145.103C93.3273 145.872 93.6229 146.699 93.7896 147.556C94.1943 149.113 94.4633 150.709 94.7546 152.29C95.8056 157.992 96.6926 163.727 97.5521 169.46C97.9802 172.314 102.317 171.101 101.891 168.264C101.032 162.53 100.145 156.796 99.0938 151.094C98.5511 148.149 98.2561 144.076 96.0034 141.859C95.5406 141.415 94.9902 141.073 94.3875 140.854C93.7847 140.635 93.1429 140.544 92.5031 140.588C92.4431 138.056 92.3991 133.167 95.1115 134.754C95.6712 135.165 96.1427 135.684 96.4979 136.281C96.8531 136.878 97.0848 137.54 97.1793 138.228C97.6206 140.25 98.023 142.283 98.4431 144.31C99.9361 151.517 101.392 158.732 102.81 165.955C103.367 168.794 107.705 167.592 107.149 164.758C105.315 155.419 103.669 145.975 101.453 136.718C100.599 133.148 97.4704 129.604 93.6113 130.063C93.64 128.391 93.9533 126.462 95.483 125.666C95.7184 125.545 95.9732 125.466 96.2359 125.433C96.0101 125.472 96.6215 125.585 96.5651 125.517C97.1321 125.837 97.6074 126.297 97.9454 126.853C99.2896 128.939 100.256 131.244 100.8 133.665C101.637 136.861 102.327 140.101 103.123 143.308C106.64 157.483 110.543 171.571 113.44 185.891H118.964C121.85 176.007 124.735 166.122 127.621 156.237C128.059 154.736 128.497 153.235 128.935 151.734C132.202 153.463 135.444 155.227 138.572 157.257C144.177 160.803 149.34 165.003 153.953 169.768C158.443 174.319 161.837 179.833 163.878 185.891H168.562C165.284 173.67 155.877 164.174 145.93 156.877ZM56.1966 96.548C56.1665 96.6854 56.1287 96.821 56.0834 96.9541C56.0325 97.0485 55.9769 97.1406 55.9183 97.2304C55.8623 97.2902 55.804 97.3484 55.7442 97.4046C55.6544 97.4631 55.5623 97.5186 55.4682 97.5693C55.3677 97.6018 55.2657 97.6305 55.1628 97.6544C55.0515 97.6593 54.9398 97.6593 54.8288 97.6544C54.7259 97.6305 54.6237 97.6018 54.5234 97.5693C54.4289 97.5186 54.337 97.4631 54.2473 97.4046C54.1874 97.3483 54.1293 97.2902 54.0729 97.2302C54.0144 97.1405 53.9589 97.0484 53.9082 96.9542C53.8756 96.8537 53.847 96.7516 53.823 96.6487C53.8181 96.5376 53.8181 96.426 53.823 96.3148C53.847 96.2119 53.8756 96.1098 53.9082 96.0093C53.9589 95.9149 54.0144 95.8229 54.0729 95.7332C54.129 95.6734 54.1871 95.6154 54.2471 95.5591C54.3368 95.5006 54.4289 95.445 54.5232 95.3943C54.6237 95.3617 54.7259 95.3329 54.8288 95.309C54.9398 95.3042 55.0515 95.3042 55.1626 95.309C55.2657 95.3329 55.3677 95.3617 55.4682 95.3943C55.5625 95.4451 55.6546 95.5006 55.7443 95.5591C55.804 95.6152 55.8623 95.6732 55.9183 95.733C55.9769 95.8228 56.0325 95.9149 56.0833 96.0094C56.1286 96.1426 56.1664 96.2782 56.1966 96.4155C56.1972 96.4376 56.2006 96.4595 56.201 96.4817C56.2006 96.504 56.1972 96.5259 56.1966 96.548ZM64.6462 179.084C64.111 176.936 63.5869 174.786 63.0737 172.633C64.0288 172.887 64.9846 173.138 65.9411 173.386C65.4969 175.282 65.0653 177.182 64.6462 179.084V179.084ZM123.211 96.3151C123.235 96.212 123.264 96.1099 123.297 96.0093C123.347 95.9148 123.403 95.8228 123.462 95.7331C123.518 95.6733 123.576 95.6152 123.635 95.5591C123.725 95.5006 123.817 95.4451 123.912 95.3943C124.012 95.3617 124.114 95.3329 124.217 95.309C124.328 95.3042 124.44 95.3042 124.551 95.309C124.654 95.3329 124.756 95.3617 124.857 95.3943C124.951 95.4451 125.043 95.5006 125.133 95.5591C125.193 95.6152 125.251 95.6734 125.307 95.7331C125.365 95.8228 125.421 95.9148 125.472 96.0092C125.517 96.1425 125.555 96.2781 125.585 96.4155C125.586 96.4377 125.589 96.4595 125.589 96.4817C125.589 96.504 125.586 96.5258 125.585 96.5479C125.555 96.6854 125.517 96.821 125.472 96.9542C125.421 97.0486 125.365 97.1406 125.307 97.2303C125.251 97.2901 125.192 97.3484 125.133 97.4046C125.043 97.4631 124.951 97.5186 124.856 97.5693C124.756 97.6018 124.654 97.6305 124.551 97.6544C124.44 97.6593 124.328 97.6593 124.217 97.6544C124.114 97.6305 124.012 97.6018 123.912 97.5693C123.817 97.5186 123.725 97.4631 123.635 97.4046C123.576 97.3485 123.518 97.2901 123.461 97.2303C123.403 97.1406 123.347 97.0485 123.297 96.9542C123.264 96.8535 123.235 96.7515 123.211 96.6484C123.207 96.5374 123.206 96.4261 123.211 96.3151ZM116.435 178.494C116.042 176.722 115.652 174.949 115.237 173.182C116.249 172.868 117.257 172.541 118.267 172.219C117.656 174.311 117.046 176.402 116.435 178.494V178.494ZM124.635 150.405C123.018 155.942 121.402 161.479 119.786 167.017C117.924 167.629 116.055 168.216 114.184 168.797C112.295 161.039 110.279 153.31 108.327 145.568C106.945 140.086 106.074 134.257 104.003 128.984C103.684 128.172 103.313 127.288 102.878 126.412C104.929 125.409 106.871 124.197 108.674 122.795C109.973 132.938 112.917 143.132 122.559 148.351C123.375 148.793 124.194 149.222 125.013 149.655C124.842 149.88 124.714 150.134 124.635 150.405V150.405ZM129.745 146.942C125.358 144.664 120.945 142.791 118.095 138.532C114.355 132.943 113.415 125.817 112.776 119.277C112.769 119.212 112.75 119.157 112.739 119.095C117.321 114.2 120.624 108.251 122.356 101.774C123.391 102.16 124.512 102.256 125.598 102.052C125.838 102.004 126.074 101.937 126.303 101.853C128.924 118.614 135.158 134.708 137.807 151.468C135.172 149.867 132.485 148.359 129.745 146.942Z" fill="#323232"/>
<path d="M56.1966 96.4155C56.1664 96.2781 56.1286 96.1426 56.0833 96.0094C56.0325 95.9149 55.9769 95.8228 55.9183 95.733C55.8623 95.6732 55.804 95.6152 55.7443 95.5591C55.6546 95.5006 55.5625 95.4451 55.4682 95.3943C55.3677 95.3617 55.2657 95.3329 55.1626 95.309C55.0515 95.3042 54.9398 95.3042 54.8288 95.309C54.7259 95.3329 54.6237 95.3617 54.5232 95.3943C54.4289 95.445 54.3368 95.5006 54.2471 95.5591C54.1872 95.6152 54.1291 95.6732 54.0729 95.7332C54.0144 95.8229 53.9589 95.9149 53.9082 96.0093C53.8756 96.1098 53.847 96.2119 53.823 96.3148C53.8181 96.426 53.8181 96.5376 53.823 96.6487C53.847 96.7516 53.8756 96.8537 53.9082 96.9542C53.9589 97.0484 54.0144 97.1405 54.0729 97.2302C54.1292 97.2901 54.1873 97.3482 54.2473 97.4046C54.337 97.4631 54.4289 97.5186 54.5234 97.5693C54.6237 97.6018 54.7259 97.6305 54.8288 97.6544C54.9398 97.6593 55.0515 97.6593 55.1628 97.6544C55.2657 97.6305 55.3677 97.6018 55.4682 97.5693C55.5623 97.5186 55.6544 97.4631 55.7442 97.4046C55.804 97.3484 55.8623 97.2902 55.9183 97.2304C55.9769 97.1406 56.0325 97.0485 56.0834 96.9541C56.1287 96.821 56.1665 96.6854 56.1966 96.548C56.1972 96.5259 56.2006 96.504 56.201 96.4817C56.2006 96.4595 56.1972 96.4376 56.1966 96.4155Z" fill="#F2E98C"/>
<path d="M125.585 96.4155C125.555 96.2781 125.517 96.1425 125.472 96.0092C125.421 95.9148 125.365 95.8228 125.307 95.7331C125.251 95.6734 125.193 95.6152 125.133 95.5591C125.043 95.5006 124.951 95.4451 124.857 95.3943C124.756 95.3617 124.654 95.3329 124.551 95.309C124.44 95.3042 124.329 95.3042 124.217 95.309C124.115 95.3329 124.013 95.3617 123.912 95.3943C123.817 95.4451 123.725 95.5006 123.636 95.5591C123.576 95.6152 123.518 95.6733 123.462 95.7331C123.403 95.8228 123.347 95.9148 123.297 96.0093C123.264 96.1099 123.235 96.212 123.212 96.3151C123.207 96.4261 123.207 96.5374 123.212 96.6484C123.235 96.7515 123.264 96.8535 123.297 96.9542C123.347 97.0485 123.403 97.1406 123.462 97.2303C123.518 97.2901 123.576 97.3485 123.636 97.4046C123.725 97.4631 123.818 97.5186 123.912 97.5693C124.012 97.6018 124.114 97.6305 124.217 97.6544C124.329 97.6593 124.44 97.6593 124.551 97.6544C124.654 97.6305 124.756 97.6018 124.857 97.5693C124.951 97.5186 125.043 97.4631 125.133 97.4046C125.192 97.3484 125.251 97.2901 125.307 97.2303C125.366 97.1406 125.421 97.0486 125.472 96.9542C125.517 96.821 125.555 96.6854 125.585 96.5479C125.586 96.5258 125.589 96.504 125.59 96.4817C125.589 96.4595 125.586 96.4377 125.585 96.4155Z" fill="#F2E98C"/>
<path d="M82.9252 101.748C82.8792 101.748 82.8345 101.76 82.7889 101.763C82.7375 101.765 82.6884 101.774 82.6377 101.779C82.5714 101.789 82.5051 101.795 82.4398 101.811C82.4028 101.819 82.3634 101.819 82.3272 101.829C82.2894 101.839 82.2673 101.866 82.2308 101.878C82.0165 101.95 81.8137 102.053 81.6286 102.183C81.5621 102.23 81.4986 102.282 81.4384 102.337C81.1943 102.538 80.9989 102.793 80.8668 103.08C80.7346 103.368 80.6691 103.682 80.6752 103.998C80.6841 104.168 80.7103 104.336 80.7535 104.5C80.7579 104.532 80.7499 104.564 80.7556 104.597C81.0304 106.556 81.8466 108.4 83.1124 109.921C84.3781 111.442 86.0432 112.58 87.9203 113.207C89.6054 113.711 91.3986 113.728 93.0932 113.257C94.7877 112.786 96.3146 111.845 97.4976 110.543C99.0402 108.699 99.9383 106.4 100.055 103.998C100.05 103.403 99.8106 102.835 99.3899 102.414C98.9692 101.993 98.4003 101.754 97.8054 101.748H82.9252V101.748ZM91.1662 109.094C91.247 109.075 91.3291 109.062 91.4117 109.054C91.3916 109.084 91.2802 109.092 91.1662 109.094ZM94.3425 107.329C94.3198 107.358 94.296 107.386 94.2717 107.412C94.1501 107.542 94.0324 107.674 93.9045 107.798C93.7947 107.906 93.6782 108.005 93.5647 108.108L93.5382 108.133L93.5068 108.152C93.2556 108.316 93.0077 108.478 92.7411 108.616C92.7065 108.634 92.6437 108.674 92.5818 108.71L92.5265 108.726C92.4461 108.749 92.3679 108.784 92.2885 108.81C91.9894 108.91 91.684 108.991 91.3742 109.05C91.3125 109.062 91.2492 109.069 91.1882 109.083C91.1538 109.091 91.162 109.09 91.1451 109.094C91.0411 109.095 90.9388 109.091 90.9082 109.092C90.6118 109.104 90.3186 109.089 90.0227 109.073C90.0154 109.073 89.9711 109.065 89.9302 109.059C89.7832 109.028 89.6343 109.005 89.4888 108.969C89.1991 108.898 88.923 108.796 88.6403 108.704L88.6245 108.696C88.4681 108.616 88.3099 108.539 88.1569 108.453C88.0216 108.376 87.8884 108.295 87.7584 108.21C87.7387 108.197 87.6775 108.156 87.6134 108.113C87.5462 108.059 87.3908 107.94 87.3497 107.903C87.1928 107.765 87.0418 107.62 86.8967 107.468C86.7715 107.338 86.662 107.182 86.5307 107.059C86.4959 107.011 86.4609 106.964 86.4276 106.916C86.2815 106.703 86.1654 106.473 86.0389 106.248H94.9904C94.9501 106.335 94.9085 106.421 94.8638 106.505C94.7086 106.794 94.5158 107.053 94.3425 107.329Z" fill="#323232"/>
<path d="M78.9554 73.4601C77.618 73.1314 76.2257 73.0937 74.8725 73.3495C73.9106 73.5598 72.9716 73.8636 72.0688 74.2566C71.5118 74.4304 71.035 74.797 70.724 75.2906C70.423 75.8161 70.3415 76.4392 70.4973 77.0244C70.6558 77.5891 71.0262 78.0708 71.5313 78.369C71.7892 78.5239 72.0763 78.624 72.3746 78.6631C72.6729 78.7021 72.9761 78.6792 73.2652 78.5958C74.1672 78.2101 75.1038 77.9107 76.0623 77.7018C76.4604 77.667 76.8608 77.6673 77.2589 77.7025C77.4259 77.7331 77.5938 77.7591 77.7593 77.7993C78.3449 77.9486 78.9654 77.8674 79.4929 77.5725C79.9968 77.273 80.3668 76.7917 80.5269 76.2278C80.6758 75.6527 80.5951 75.0423 80.3017 74.5257C80.0084 74.0091 79.5256 73.6269 78.9554 73.4601V73.4601Z" fill="#323232"/>
<path d="M109.368 74.3634C108.21 73.8046 106.964 73.4489 105.685 73.3116C104.459 73.1527 103.212 73.2885 102.048 73.7079C101.49 73.8805 101.013 74.2474 100.703 74.7419C100.402 75.2673 100.32 75.8904 100.476 76.4756C100.635 77.0404 101.005 77.5222 101.51 77.8204C101.769 77.9747 102.056 78.0744 102.354 78.1134C102.652 78.1524 102.955 78.1298 103.244 78.0471C103.576 77.9286 103.918 77.8416 104.266 77.7871C104.654 77.7598 105.044 77.7631 105.432 77.7971C106.024 77.8951 106.604 78.0556 107.162 78.2759C107.675 78.544 108.269 78.6151 108.83 78.4759C109.394 78.3156 109.875 77.9456 110.175 77.4418C110.326 77.1822 110.423 76.8952 110.462 76.5977C110.501 76.3001 110.481 75.9978 110.402 75.7081C110.248 75.141 109.877 74.6577 109.368 74.3634Z" fill="#323232"/>
</g>
</svg>
