<svg width="94" height="80" viewBox="0 0 94 80" fill="none" xmlns="http://www.w3.org/2000/svg">
<g clip-path="url(#clip0)">
<path d="M43.3716 51.7451H50.5793C50.6421 51.7451 50.7023 51.7701 50.7467 51.8145C50.7911 51.8589 50.816 51.9191 50.816 51.9819V74.1475C50.816 74.2103 50.7911 74.2705 50.7467 74.3149C50.7023 74.3593 50.6421 74.3843 50.5793 74.3843H43.3715C43.3087 74.3843 43.2485 74.3593 43.2041 74.3149C43.1597 74.2705 43.1348 74.2103 43.1348 74.1475V51.9819C43.1348 51.9191 43.1597 51.8589 43.2041 51.8145C43.2485 51.7701 43.3088 51.7451 43.3716 51.7451Z" fill="white"/>
<path d="M50.5792 49.3634C48.2607 49.3634 45.8305 49.1346 43.5256 49.3634C41.0396 49.6102 40.7531 51.448 40.7531 53.4519V70.6824C40.7531 72.2164 40.3332 74.5891 41.4507 75.8316C43.0177 77.5739 47.0971 76.7659 49.1732 76.7659C51.4596 76.7659 53.1198 76.0921 53.1977 73.5269C53.268 71.2132 53.1977 68.8864 53.1977 66.5718V56.1853C53.1977 54.2968 53.7215 51.5192 52.2633 50.061C50.093 47.8906 46.7238 51.2579 48.8951 53.4292L49.1319 53.666L48.4343 51.9819V74.1475L49.1319 72.4634L48.8951 72.7001L50.5792 72.0025H43.3715L45.0556 72.7001L44.8188 72.4634L45.5164 74.1475V51.9819L44.8188 53.666L45.0556 53.4292L43.3715 54.1268H50.5792C53.6442 54.1268 53.6493 49.3634 50.5792 49.3634Z" fill="#323232"/>
<path d="M2.41406 52.1531C2.41406 52.8427 2.54989 53.5257 2.81382 54.1628C3.07774 54.8 3.46459 55.3789 3.95227 55.8666C4.43994 56.3543 5.01889 56.7411 5.65607 57.0051C6.29325 57.269 6.97617 57.4048 7.66584 57.4048H86.2847C86.9744 57.4048 87.6573 57.269 88.2945 57.0051C88.9316 56.7411 89.5106 56.3543 89.9983 55.8666C90.4859 55.3789 90.8728 54.8 91.1367 54.1628C91.4006 53.5257 91.5365 52.8427 91.5365 52.1531V50.25H2.41406V52.1531Z" fill="white"/>
<path d="M0.032416 52.153C0.309462 56.6133 3.54615 59.6963 8.00399 59.7864C9.54716 59.8176 11.0942 59.7864 12.6377 59.7864H81.0635C82.7299 59.7864 84.4066 59.84 86.0725 59.7864C87.9475 59.7967 89.7666 59.1488 91.213 57.9557C93.6116 55.8971 93.9182 53.2092 93.9182 50.25C93.9092 49.6211 93.6554 49.0205 93.2107 48.5758C92.766 48.131 92.1654 47.8772 91.5365 47.8683H2.41409C1.78522 47.8772 1.18461 48.131 0.739883 48.5758C0.295156 49.0205 0.04136 49.6211 0.032416 50.25V52.153C0.032416 55.218 4.79576 55.2231 4.79576 52.153V50.25L2.41409 52.6316H91.5365L89.1548 50.25C89.1548 52.8899 88.6268 54.964 85.6593 55.0231C84.0863 55.0544 82.5094 55.0231 80.9361 55.0231H9.56905C7.45195 55.0231 4.97506 55.0396 4.79576 52.153C4.60663 49.108 -0.158051 49.0866 0.032416 52.153Z" fill="#323232"/>
<path d="M86.2847 2.42395H7.66584C6.97616 2.42395 6.29325 2.55981 5.65607 2.82374C5.01889 3.08766 4.43994 3.47448 3.95227 3.96215C3.46459 4.44983 3.07774 5.02878 2.81382 5.66596C2.54989 6.30313 2.41406 6.98605 2.41406 7.67573V50.25H91.5365V7.67573C91.5365 6.98605 91.4006 6.30313 91.1367 5.66596C90.8728 5.02878 90.4859 4.44983 89.9983 3.96215C89.5106 3.47448 88.9316 3.08766 88.2945 2.82374C87.6573 2.55981 86.9744 2.42395 86.2847 2.42395Z" fill="#F2E98C"/>
<path d="M86.2846 0.0422562H31.6536C23.8682 0.0422562 16.0762 -0.0528202 8.29122 0.0422562C3.57467 0.0998593 0.123652 3.24895 0.0323484 8.05688C-0.0404355 11.8894 0.0323484 15.7305 0.0323484 19.5635V50.25C0.0412924 50.8789 0.295088 51.4795 0.739815 51.9242C1.18454 52.3689 1.78515 52.6227 2.41402 52.6317H91.5364C92.1653 52.6227 92.7659 52.3689 93.2106 51.9242C93.6554 51.4795 93.9092 50.8789 93.9181 50.25V9.13573C93.9181 4.34047 91.5094 0.366778 86.2846 0.0422562C83.2232 -0.147892 83.2346 4.61615 86.2846 4.8056C89.4946 5.00498 89.1548 8.04587 89.1548 10.3239V50.25L91.5364 47.8683H2.41402L4.7957 50.25V10.4458C4.7957 7.89788 4.54997 4.9303 8.03898 4.8056C15.1633 4.55103 22.3435 4.8056 29.4712 4.8056H86.2846C89.3496 4.8056 89.3547 0.0422562 86.2846 0.0422562Z" fill="#323232"/>
<path d="M62.0587 70.7458H31.8916C30.0689 70.7458 28.3209 71.4699 27.032 72.7587C25.7432 74.0475 25.0191 75.7956 25.019 77.6182H68.9313C68.9313 76.7157 68.7535 75.8221 68.4081 74.9883C68.0628 74.1545 67.5565 73.3968 66.9184 72.7587C66.2802 72.1205 65.5226 71.6143 64.6887 71.2689C63.8549 70.9236 62.9612 70.7458 62.0587 70.7458Z" fill="white"/>
<path d="M62.0586 68.3642H41.6043C38.5234 68.3642 35.4393 68.3228 32.3586 68.3642C26.9698 68.4367 22.8962 72.1692 22.6372 77.6183C22.6443 78.2478 22.8975 78.8494 23.3426 79.2945C23.7878 79.7397 24.3894 79.9929 25.0189 80H68.9311C69.5608 79.9937 70.1629 79.7407 70.6082 79.2954C71.0535 78.8502 71.3065 78.248 71.3128 77.6183C71.2616 75.18 70.2701 72.8558 68.5456 71.1313C66.8211 69.4068 64.4969 68.4154 62.0586 68.3642C58.9942 68.2186 59.0017 72.9823 62.0586 73.1276C63.2429 73.1491 64.3726 73.6292 65.2102 74.4667C66.0478 75.3043 66.5279 76.434 66.5494 77.6183L68.9311 75.2366H25.0189L27.4006 77.6183C27.5937 73.5554 31.0177 73.1276 34.1703 73.1276H62.0586C65.1235 73.1276 65.1286 68.3642 62.0586 68.3642Z" fill="#323232"/>
<path d="M12.8855 8.35608C12.2828 8.35608 11.6935 8.53483 11.1923 8.86971C10.6911 9.2046 10.3005 9.6806 10.0699 10.2375C9.83919 10.7944 9.77886 11.4072 9.89647 11.9984C10.0141 12.5896 10.3043 13.1326 10.7306 13.5588C11.1568 13.985 11.6999 14.2753 12.291 14.3929C12.8822 14.5104 13.495 14.4501 14.0519 14.2194C14.6088 13.9887 15.0847 13.598 15.4196 13.0968C15.7545 12.5956 15.9332 12.0064 15.9332 11.4036C15.9332 10.5953 15.612 9.82018 15.0405 9.24865C14.4689 8.67713 13.6938 8.35607 12.8855 8.35608Z" fill="#EF998E"/>
<path d="M23.8442 8.35608C23.2414 8.35606 22.6522 8.53478 22.151 8.86966C21.6498 9.20453 21.2591 9.68048 21.0284 10.2374C20.7977 10.7943 20.7374 11.4071 20.8549 11.9983C20.9725 12.5895 21.2628 13.1325 21.6891 13.5588C22.1153 13.985 22.6583 14.2752 23.2495 14.3928C23.8407 14.5104 24.4535 14.4501 25.0104 14.2194C25.5673 13.9887 26.0433 13.598 26.3781 13.0968C26.713 12.5956 26.8918 12.0064 26.8918 11.4036C26.8917 10.5954 26.5706 9.82023 25.9991 9.24871C25.4276 8.67719 24.6524 8.35611 23.8442 8.35608Z" fill="white"/>
<path d="M34.8021 8.35608C34.1994 8.35606 33.6101 8.53478 33.1089 8.86966C32.6077 9.20453 32.2171 9.68054 31.9864 10.2374C31.7557 10.7943 31.6954 11.4071 31.813 11.9983C31.9305 12.5895 32.2208 13.1326 32.6471 13.5588C33.0733 13.985 33.6163 14.2752 34.2075 14.3928C34.7987 14.5104 35.4116 14.4501 35.9684 14.2194C36.5253 13.9887 37.0013 13.598 37.3362 13.0968C37.671 12.5956 37.8497 12.0064 37.8497 11.4036C37.8497 10.5954 37.5286 9.82023 36.957 9.24871C36.3855 8.6772 35.6104 8.35612 34.8021 8.35608Z" fill="#ACEF8E"/>
</g>
<defs>
<clipPath id="clip0">
<rect width="93.9181" height="80" fill="white"/>
</clipPath>
</defs>
</svg>
